<?xml version="1.0" encoding="UTF-8" standalone="no"?>
<svg
   id="svg2"
   viewBox="0 0 704.99998 704.99998"
   version="1.1"
   sodipodi:docname="remove-icon.svg"
   width="705"
   height="705"
   inkscape:version="1.1 (c68e22c387, 2021-05-23)"
   xmlns:inkscape="http://www.inkscape.org/namespaces/inkscape"
   xmlns:sodipodi="http://sodipodi.sourceforge.net/DTD/sodipodi-0.dtd"
   xmlns="http://www.w3.org/2000/svg"
   xmlns:svg="http://www.w3.org/2000/svg"
   xmlns:rdf="http://www.w3.org/1999/02/22-rdf-syntax-ns#"
   xmlns:cc="http://creativecommons.org/ns#"
   xmlns:dc="http://purl.org/dc/elements/1.1/">
  <defs
     id="defs12" />
  <sodipodi:namedview
     id="namedview10"
     pagecolor="#ffffff"
     bordercolor="#111111"
     borderopacity="1"
     inkscape:pageshadow="0"
     inkscape:pageopacity="0"
     inkscape:pagecheckerboard="1"
     showgrid="false"
     fit-margin-top="0"
     fit-margin-left="0"
     fit-margin-right="0"
     fit-margin-bottom="0"
     inkscape:zoom="0.77156973"
     inkscape:cx="394.65001"
     inkscape:cy="368.72883"
     inkscape:window-width="1920"
     inkscape:window-height="1001"
     inkscape:window-x="-9"
     inkscape:window-y="-9"
     inkscape:window-maximized="1"
     inkscape:current-layer="svg2" />
  <g
     id="layer1"
     transform="translate(-20.695524,-155.19692)">
    <path
       id="path2989"
       d="m 814.29,606.65 a 314.29,314.29 0 1 1 -628.57,0 314.29,314.29 0 1 1 628.57,0 z"
       stroke="#000000"
       stroke-width="5"
       transform="matrix(1.1048,0,0,1.1048,-179.21,-162.53)" />
    <g
       id="g3763"
       transform="matrix(0.91837,0,0,0.91837,47.587,10.944)"
       stroke="#ffffff"
       stroke-linecap="round"
       stroke-width="133.87"
       fill="none">
      <path
         id="path2991"
         d="M 176.51,362.87 532.64,719" />
      <path
         id="path2993"
         d="M 532.64,362.87 176.51,719" />
    </g>
  </g>
  <metadata
     id="metadata7">
    <rdf:RDF>
      <cc:Work>
        <dc:format>image/svg+xml</dc:format>
        <dc:type
           rdf:resource="http://purl.org/dc/dcmitype/StillImage" />
        <cc:license
           rdf:resource="http://creativecommons.org/publicdomain/zero/1.0/" />
        <dc:publisher>
          <cc:Agent
             rdf:about="http://openclipart.org/">
            <dc:title>Openclipart</dc:title>
          </cc:Agent>
        </dc:publisher>
        <dc:title>Close Button</dc:title>
        <dc:date>2013-09-18T11:23:45</dc:date>
        <dc:description>A round black close button with a white, thick, X in the center.</dc:description>
        <dc:source>https://openclipart.org/detail/183568/close-button-by-henrikhoff-183568</dc:source>
        <dc:creator>
          <cc:Agent>
            <dc:title>henrikhoff</dc:title>
          </cc:Agent>
        </dc:creator>
        <dc:subject>
          <rdf:Bag>
            <rdf:li>black</rdf:li>
            <rdf:li>close button</rdf:li>
            <rdf:li>cross</rdf:li>
            <rdf:li>icon</rdf:li>
            <rdf:li>white</rdf:li>
            <rdf:li>x</rdf:li>
          </rdf:Bag>
        </dc:subject>
      </cc:Work>
      <cc:License
         rdf:about="http://creativecommons.org/publicdomain/zero/1.0/">
        <cc:permits
           rdf:resource="http://creativecommons.org/ns#Reproduction" />
        <cc:permits
           rdf:resource="http://creativecommons.org/ns#Distribution" />
        <cc:permits
           rdf:resource="http://creativecommons.org/ns#DerivativeWorks" />
      </cc:License>
    </rdf:RDF>
  </metadata>
  <path
     style="fill:#aa0019;stroke-width:0;stroke-linecap:round;stroke-miterlimit:0;fill-opacity:1"
     d="M 320.77464,702.36155 C 203.02068,691.18792 98.820033,621.48118 43.554929,516.91086 24.885869,481.58603 12.55681,443.30836 6.2625534,401.1303 2.7147533,377.35635 3.0311895,324.54542 6.8682868,300.03769 22.569916,199.75064 77.218816,114.07604 160.61274,59.008204 204.31687,30.148895 251.48462,12.393682 305.86996,4.3294735 c 21.78625,-3.2304447 71.54193,-3.2294344 93.31625,0.00189 40.42417,5.9989825 71.91286,15.7148535 107.57291,33.1917435 100.62304,49.315057 172.05753,145.618773 190.39736,256.682313 5.28038,31.97731 5.90326,77.16947 1.47912,107.3183 -11.07143,75.44784 -43.47098,141.80388 -95.29567,195.1707 -47.20856,48.61332 -102.23197,80.43507 -167.05484,96.61298 -37.23954,9.29391 -78.71926,12.54525 -115.51045,9.05415 z M 204.73203,576.05563 c 15.72653,-4.09623 17.4414,-5.56342 84.30655,-72.13017 l 63.52429,-63.24079 61.54542,61.59532 c 33.84998,33.87744 64.29753,63.37398 67.66123,65.54786 23.96158,15.48584 55.87713,12.88301 76.30276,-6.22277 13.25678,-12.40018 19.51172,-26.7884 19.61721,-45.12551 0.0737,-12.80914 -2.78319,-23.54217 -8.91039,-33.47554 -1.8341,-2.97343 -31.40307,-33.54692 -65.70881,-67.94109 l -62.37406,-62.53485 62.37406,-62.53486 c 34.30574,-34.39417 63.87471,-64.96766 65.70881,-67.94109 12.28654,-19.91883 12.07679,-46.99256 -0.51613,-66.61692 -17.31308,-26.9801 -53.23998,-36.16331 -82.14377,-20.99663 -4.81776,2.52803 -23.5713,20.36947 -70.10161,66.69212 L 352.4933,264.3715 290.94788,202.77618 c -33.84998,-33.87743 -64.29753,-63.37398 -67.66123,-65.54786 -23.96158,-15.48584 -55.87713,-12.88301 -76.30276,6.22277 -13.25678,12.40018 -19.51171,26.7884 -19.61721,45.12551 -0.0737,12.80914 2.78318,23.54217 8.91039,33.47554 1.8341,2.97343 31.40307,33.54692 65.70881,67.94109 l 62.37406,62.53486 -62.37406,62.53485 c -34.30574,34.39417 -63.87471,64.96766 -65.70881,67.94109 -12.28654,19.91884 -12.07679,46.99257 0.51613,66.61692 14.22983,22.17529 42.32386,33.10654 67.93883,26.43468 z"
     id="path84" />
</svg>
