<?xml version="1.0" encoding="UTF-8" standalone="no"?>
<!-- Generator: Adobe Illustrator 18.1.1, SVG Export Plug-In . SVG Version: 6.00 Build 0)  -->

<svg
   version="1.1"
   id="Capa_1"
   x="0px"
   y="0px"
   viewBox="0 0 161.40679 98.855617"
   xml:space="preserve"
   sodipodi:docname="arrow.svg"
   width="161.4068"
   height="98.855621"
   inkscape:version="1.1 (c68e22c387, 2021-05-23)"
   xmlns:inkscape="http://www.inkscape.org/namespaces/inkscape"
   xmlns:sodipodi="http://sodipodi.sourceforge.net/DTD/sodipodi-0.dtd"
   xmlns="http://www.w3.org/2000/svg"
   xmlns:svg="http://www.w3.org/2000/svg"><defs
   id="defs41" /><sodipodi:namedview
   id="namedview39"
   pagecolor="#ffffff"
   bordercolor="#111111"
   borderopacity="1"
   inkscape:pageshadow="0"
   inkscape:pageopacity="0"
   inkscape:pagecheckerboard="1"
   showgrid="false"
   fit-margin-top="0"
   fit-margin-left="0"
   fit-margin-right="0"
   fit-margin-bottom="0"
   inkscape:zoom="5.2340157"
   inkscape:cx="118.74248"
   inkscape:cy="63.526749"
   inkscape:window-width="1920"
   inkscape:window-height="1001"
   inkscape:window-x="-9"
   inkscape:window-y="-9"
   inkscape:window-maximized="1"
   inkscape:current-layer="Capa_1" />
<g
   id="g6"
   transform="matrix(1,0,0,0.60683535,3.4044711,2.3338534)">
	<g
   id="g4">
		<polygon
   style="fill:#010002"
   points="0,109.155 79.18,109.155 79.18,153.542 155.139,77.566 79.18,1.596 79.18,45.978 0,45.978 "
   id="polygon2" />
	</g>
</g>
<g
   id="g8"
   transform="translate(3.4044711,1.7063626)">
</g>
<g
   id="g10"
   transform="translate(3.4044711,1.7063626)">
</g>
<g
   id="g12"
   transform="translate(3.4044711,1.7063626)">
</g>
<g
   id="g14"
   transform="translate(3.4044711,1.7063626)">
</g>
<g
   id="g16"
   transform="translate(3.4044711,1.7063626)">
</g>
<g
   id="g18"
   transform="translate(3.4044711,1.7063626)">
</g>
<g
   id="g20"
   transform="translate(3.4044711,1.7063626)">
</g>
<g
   id="g22"
   transform="translate(3.4044711,1.7063626)">
</g>
<g
   id="g24"
   transform="translate(3.4044711,1.7063626)">
</g>
<g
   id="g26"
   transform="translate(3.4044711,1.7063626)">
</g>
<g
   id="g28"
   transform="translate(3.4044711,1.7063626)">
</g>
<g
   id="g30"
   transform="translate(3.4044711,1.7063626)">
</g>
<g
   id="g32"
   transform="translate(3.4044711,1.7063626)">
</g>
<g
   id="g34"
   transform="translate(3.4044711,1.7063626)">
</g>
<g
   id="g36"
   transform="translate(3.4044711,1.7063626)">
</g>
<path
   style="fill:#596788;stroke:#ffffff;stroke-width:7;stroke-linecap:round;stroke-linejoin:round;stroke-miterlimit:0;stroke-dasharray:none;paint-order:normal"
   d="M 82.597967,81.96626 V 68.576625 H 43.048983 3.5 V 49.470836 30.365047 h 39.547701 39.547702 l 0.04905,-13.432659 0.04905,-13.4326584 37.779517,22.9304184 c 20.77873,12.61173 37.71602,22.990627 37.63841,23.064217 -0.0776,0.07359 -16.82047,10.252584 -37.20635,22.619993 C 100.5192,84.481766 83.560421,94.770505 83.218905,94.978225 l -0.620938,0.37767 z"
   id="path895" /></svg>
