<svg xmlns="http://www.w3.org/2000/svg" xmlns:xlink="http://www.w3.org/1999/xlink" width="360" height="540" viewBox="0 0 95.25 142.875" xmlns:v="https://vecta.io/nano"><style><![CDATA[.B{stroke-linejoin:round}.C{stroke-width:2}.D{fill:none}.E{stroke-linecap:round}.F{stroke:#55a}.G{stroke-width:2.5}.H{stroke:#5456aa}.I{stroke:#000}.J{fill:#f55}.K{fill:#ff5}.L{fill:#55a}.M{fill:#ffff57}]]></style><g transform="matrix(.264583 0 0 .264583 0 -135.562492)"><rect rx="29.944" y="512.862" x=".5" height="539" width="359" fill="#fff" class="I"/><path d="M30 542.362a10 10 0 0 0-10 10v30a10 10 0 0 0 10 10 10.12 10.12 0 0 0 1.281-.094c1.713 3.049 4.972 5.094 8.719 5.094v-5c-1.64 0-3.088-.812-4-2.031 2.424-1.825 4-4.701 4-7.969v-30a10 10 0 0 0-10-10zm0 5a5 5 0 0 1 5 5v30c0 .716-.167 1.384-.437 2-1.275-4.056-5.085-7-9.562-7v-25a5 5 0 0 1 5-5zm-5 35a5 5 0 0 1 5 5 5 5 0 0 1-5-5zm305 440a10 10 0 0 0 10-10v-30a10 10 0 0 0-10-10c-.434 0-.862.04-1.281.094-1.713-3.049-4.972-5.094-8.719-5.094v5c1.64 0 3.088.812 4 2.031-2.424 1.825-4 4.701-4 7.969v30a10 10 0 0 0 10 10zm0-5a5 5 0 0 1-5-5v-30c0-.716.167-1.384.438-2 1.275 4.057 5.085 7 9.563 7v25a5 5 0 0 1-5 5zm5-35a5 5 0 0 1-5-5 5 5 0 0 1 5 5z" class="J"/><path d="M144.719 761.018l-.5 3.281-.125.813-1.125-1.094-.281.531-3.156-1.406.844 3.719.344 2.906.375 1.219 3.875 2 1.094-2.5 5.594 5.156 2.25 2.094 1-2.906.563-1.625 6.406 6.156 2 1.969 1.188-2.562.688-1.437 5.906 7.219 2.124 2.437 1.531-1.937 1.25-1.562 5.095 6.001 2.188 2.531 1.188-3.125.281-.719 6.344 6.844 2.656 2.875.781-3.844.125-.594.906 1.125.25-.531 6.25 5.469 2.563 2.219.719-3.312.219-.969 1.094 1.063.063-.219 4.281 3.188 2.656 1.969.5-3.281.125-.812 1.125 1.094.281-.531 3.188 1.406-.625-2.75 1.031.313-1.346-3.209-2.654-2.197-1.875-2-1.094 2.5-5.594-5.156-2.25-2.094-1 2.906-.562 1.625-6.406-6.156-2-1.969-1.187 2.563-.687 1.438-5.906-7.219-1.771-2.348-1.531 1.938-1.25 1.563-5.448-6.089-2.187-2.531-1.187 3.125-.281.719-6.344-6.844-2.656-2.875-.781 3.844-.125.594-.906-1.125-.25.531-6.25-5.469-2.562-2.219-.719 3.313-.219.969-1.094-1.062-.062.219-4.281-3.187z" class="K"/><path d="M213.503 705.044l-8.546 73.211 10.071 1.871 20.988-78.16zm-89.759 31.595c-2.593 3.536-5.552 6.83-7.778 10.607-1.714 2.907-3.014 6.049-4.243 9.192-1.533 3.922-3.178 7.87-3.889 12.021-.756 4.416.053 8.974-.354 13.435-.553 6.059-2.021 12.001-2.828 18.031-.567 4.231-1.045 8.475-1.414 12.728-.327 3.764-.471 7.542-.707 11.314l9.546-4.596c3.81-1.928 7.836-3.533 11.314-6.01 3.803-2.709 7.455-5.807 10.253-9.546 2.368-3.165 4.057-6.855 5.303-10.607 1.252-3.769 1.859-7.763 2.109-11.727.281-4.456-.14-8.945-.695-13.375-.448-3.578-.891-7.218-2.121-10.607-1.512-4.164-3.884-7.996-6.364-11.667-1.453-2.151-3.205-4.089-4.95-6.01-1.008-1.111-2.121-2.121-3.182-3.182z" class="L"/><use xlink:href="#B" class="J"/><path d="M30 718.362l21.75-18.5c6.615-5.339 13.506-10.325 20.25-15.5l13-10 14.5 11.5c3.959 3.054 7.834 6.236 12 9 3.859 2.56 12 7 12 7s-8.387 4.103-12 7c-4.784 3.837-8.614 8.755-12.5 13.5-4.69 5.726-9.605 11.424-13 18-4.038 7.821-6.744 16.375-8.5 25-.9 4.422-.758 8.994-1 13.5-.268 4.996-.14 10.01-.5 15-.326 4.516-.906 9.011-1.5 13.5-.576 4.346-2 13-2 13s-3.886-7.008-7.25-8.75c-2.895-1.499-6.502-1.024-9.75-.75-4.109.346-8.229 1.332-12 3-2.198.972-3.894 2.841-6 4-1.438.791-3.062 1.209-4.5 2-1.053.579-3 2-3 2z"/><use xlink:href="#C" fill="#000004"/><path d="M217.369 542.362l51.392 88.796 8.321-3.636-49.981-85.161z" fill="#ff5455"/><use xlink:href="#D" class="B C F K"/><use xlink:href="#E" fill="#ffff58"/><g class="B D G I"><g class="E"><use xlink:href="#F"/><use xlink:href="#G"/></g><use xlink:href="#H"/><use xlink:href="#I" class="E"/><use xlink:href="#J"/><use xlink:href="#K"/><use xlink:href="#L" class="E"/><use xlink:href="#M"/><use xlink:href="#N" class="E"/></g><g class="F B"><use xlink:href="#O" class="D G"/><g class="E D"><path d="M170.56 542.555s-3.231 4.665-5.31 6.56c-1.665 1.517-5.623 3.749-5.623 3.749m17.494-10.309s-4.321 6.863-7.185 9.684c-2.923 2.88-9.996 7.185-9.996 7.185" class="G"/><use xlink:href="#P" class="G"/><path d="M188.679 542.555s6.702 13.33 12.183 18.118c5.506 4.81 19.68 9.684 19.68 9.684" class="G"/><path d="M194.302 542.555s5.276 9.822 9.371 13.432c3.529 3.111 12.495 6.56 12.495 6.56" class="G"/><path d="M199.924 542.555s3.194 6.709 5.935 9.059c1.91 1.638 6.872 3.124 6.872 3.124" class="G"/><use xlink:href="#Q" class="C"/></g><g class="L C"><use xlink:href="#R"/><use xlink:href="#S"/><use xlink:href="#T"/><use xlink:href="#U"/></g><g class="D E C"><path d="M192.453 627.116s-3.678 1.442-5.616 1.513c-1.656.061-4.881-.938-4.881-.938m-3.289-45.796s-4.791-4.101-9.136-4.142c-4.65-.044-7.392 2.662-7.392 2.662m56.997 3.102s-9.376-7.14-14.706-7.066c-7.19.1-12.541 4.317-12.541 4.317"/><use xlink:href="#V"/><use xlink:href="#W"/><use xlink:href="#X"/><path d="M205.441 582.664c.952 5.125-2.451 7.071-5.806 6.673-2.276-.27-4.423-3.247-3.371-6.198"/></g><g class="L C"><path d="M199.177 585.514c-.019-.744.611-1.743 1.355-1.775.806-.035 1.68.983 1.629 1.788-.048.754-.972 1.531-1.726 1.47-.646-.052-1.242-.835-1.259-1.483z"/><use xlink:href="#Y"/></g><g class="D E"><path d="M178.166 590.54c-1.935 2.523-2.046 4.74-6.095 6.912m20.29-13.842c1.609 7.205 7.236 9.358 11.682 12.543" class="C"/><use xlink:href="#Z" class="C"/><use xlink:href="#a" class="C"/><path d="M192.014 634.006s-3.755-1.23-5.693-1.191c-1.656.034-4.82 1.215-4.82 1.215" class="C"/><g class="G"><use xlink:href="#b"/><use xlink:href="#c"/><use xlink:href="#d"/><use xlink:href="#e"/><use xlink:href="#f"/><use xlink:href="#g"/><use xlink:href="#h"/><use xlink:href="#i"/><use xlink:href="#j"/></g></g></g><g class="I B D E G"><use xlink:href="#k"/><use xlink:href="#l"/><use xlink:href="#m"/><use xlink:href="#n"/></g><path d="M125.18 648.525l-12.68 6.587 7.25 5.25 7.18-10.087zm11.239 7.494l-6.669 11.843 13.25 6.25 5.75-11.25zM161 666.612l-3.919 12.093 13.5 4.25L174 670.019zm25.25 5.75l-1 12.593 14.424.506-.674-13.598z"/><path d="M211.75 672.112l1.163 12.843 14.087-2.75-2.907-13.18zm24.663-7.18l5.293 13.397 12.029-4.57-2.985-7.398-4.5-6.25zm-124.913 6.18l8-10.5 10.25 7-6.419 12.093zm25.244 16.18l5.761-13.523 14.343 4.593-4.348 14z"/><path d="M167.669 696.722l2.831-13.61 14.843 1.919-1.169 13.674zm31.831 2.39l-.25-14.5h14l1.5 13.5-15.5 2zm30.5-4.25l-3.174-12.924 14.767-4.337 4.337 12.848-15.68 5.413zm28.75-9.75l-5.25-11.75 3-1 15.75 7z"/><g class="B D G I"><path d="M107.413 660.042l.337 4.57 5.581-.989-1.081-5.011zm18.087-3.68l4.75-1.25.587 4.843-4.837 1.75zm4 19.25l5.25-2.5 1.25 4.75-4 2.25zm20-6.75l5-1.75 1.424 4.843-4.674 2.157zm9 17.5l2.75 4.75 4-3.25-3-4.5zm17.064-9.285l3.988-3.25 2.977 3.035-4 4zm12.686 14.459l3.75-3.674 3 4.75-3.75 2.25zm13.965-12.596l3.174-3.75 3.331 3.407-3 3zm15.448 10.928l3.587-4.006 3.75 3-2.565 4.669zm11.087-15.006l2.5-4.5 4.25 1.75-2 4.75zm17.5 8l2.25-4.75 4.75 2.5-2 4.25z"/><use xlink:href="#o" class="E"/><use xlink:href="#p"/><use xlink:href="#p" x="6.75" y="3.75"/><use xlink:href="#p" x="13.25" y="6.75"/><use xlink:href="#p" x="19.75" y="8.5"/><use xlink:href="#p" x="27.25" y="10.75"/><use xlink:href="#p" x="34" y="12.5"/><use xlink:href="#p" x="41.25" y="13"/><use xlink:href="#p" x="48.55" y="13.687"/><use xlink:href="#p" x="55.437" y="13.324"/><use xlink:href="#p" x="62.75" y="12"/><use xlink:href="#p" x="70.25" y="11"/><use xlink:href="#p" x="77.225" y="9.162"/><use xlink:href="#p" x="83.5" y="7.5"/><use xlink:href="#p" x="88.75" y="5"/><use xlink:href="#p" x="94.25" y="3.25"/></g><g class="F E B D"><g class="C"><use xlink:href="#q"/><use xlink:href="#r"/><use xlink:href="#s"/><use xlink:href="#t"/><use xlink:href="#u"/><use xlink:href="#v"/></g><use xlink:href="#w" class="G"/><use xlink:href="#x" class="C"/></g><path d="M206.484 542.362l70.598 141.389 18.118-8.434-76.534-132.955z"/><g class="B C D E H"><use xlink:href="#y"/><use xlink:href="#z"/></g><use xlink:href="#AA" class="M"/><use xlink:href="#AB" class="B C I J"/><path d="M154.624 699.43l16.849 3.786 10.046 62.604-10.546-6.053z" class="L"/><g class="J"><use xlink:href="#AC"/><use xlink:href="#AD"/></g><use xlink:href="#AE" fill="#fff"/><use xlink:href="#AF" class="K"/><path d="M138.131 757.347s6.707-.687 10.008-.202c3.798.558 7.327 2.296 10.96 3.536 2.964 1.011 5.981 1.901 8.839 3.182 4.283 1.92 8.355 4.294 12.374 6.718 2.911 1.756 5.607 3.849 8.485 5.657 2.55 1.602 5.107 3.205 7.778 4.596 2.526 1.316 5.028 2.795 7.778 3.536 2.287.616 4.705.589 7.071.707 2.119.106 6.364 0 6.364 0l.177 9.899-4.066-4.95-1.061 3.889-7.778-6.364-1.414 3.536-8.132-8.132-2.121 3.889-7.778-9.899-2.987 3.615-6.912-7.858-2.121 3.182-8.132-8.485-1.414 3.182-9.899-7.071-.707 3.182-9.192-5.303.354 2.828-5.116-1.494z" class="B I"/><path d="M234.556 707.434l5.094.352-.002-5.844-4.023 1.202z" class="J"/><path d="M239.476 749.198l.111-47.914c6.01-1.886 10.942-3.71 16.281-5.907 5.276-2.171 10.338-4.83 15.539-7.175l8.839-3.889c.681 2.841.637 3.625 1.439 6.345-2.357 2.711-4.852 5.307-7.071 8.132-2.142 2.725-4.228 5.512-6.01 8.485-2.574 4.295-4.761 8.826-6.718 13.435-1.229 2.896-2.281 5.873-3.139 8.899-1.038 3.662-2.062 8.097-2.416 11.161-3.064 1.532-4.314 1.762-6.408 2.78-3.56 1.731-6.44 3.644-10.447 5.647z"/><path d="M239.597 713.304l-.01 37.83-7.071 5.303-7.425 8.485-3.536 8.132-1.414 7.071h-6.01l18.758-66.822c2.362.234 4.346.113 6.708 0z" class="J"/><g class="B C"><g stroke="#ff5"><use xlink:href="#AG"/><use xlink:href="#AH"/><use xlink:href="#AI"/></g><g class="D E H"><use xlink:href="#AJ"/><path d="M171.491 704.776l14.478 8.882M172 711.362l13 8m-12.25.75l12.25 6.25m-10.5 1.25l11.75 6.5m-10.25.25l10.25 6.5m-8.75 1.5l9.5 6m-8.25 1.5l7.75 4m-6.75 3.5l7.25 4.5m25.379-52.168l-12.728 8.132m11.97-1.296l-11 7m10 1.5l-10 5.5m10.5 1.75l-11.25 6m10.75.75l-10.75 5.75m10.25 1.25l-11.5 6.5m10.25.25l-9.75 5.25m8.75 2.25l-9.25 5.75m-11.121 2.832l-6.799-4.866m25.549 5.116l-6.75 3.25m-.207 2.528l6.237 2.5"/></g><use xlink:href="#AK" class="H K"/><path d="M296.5 647.362l-3.5-8.5 6 1.5 3 5.5zm15.5-1l2.5-5.5 6.5-1-2.5 6.5zm1.5 15l.5 6 5 .5-1-5.5zm-16 0l-2 7 4.5-1.5 2.5-8.5z" class="L H"/><g class="K H"><path d="M305 672.862l1.5 40.5 3.5-2-1.5-38.25z"/><use xlink:href="#AL"/></g><path d="M320.5 683.862c-.833 3.833-1.324 7.758-2.5 11.5-1.299 4.134-5 12-5 12h0" class="D E H"/><use xlink:href="#AM" class="H K"/><path d="M292.5 693.862c2.5 2.333 5.378 4.319 7.5 7 2.502 3.161 4 7 6 10.5" class="D E H"/><path d="M297 653.862l11-10.5 9.25 10.75-9.75 10z" class="H J"/><path d="M303 653.862l4.5-4.5 4.5 4.5-4 4.75z" class="H K"/></g><use xlink:href="#AA" x="-22.186" y="53.376" class="M"/><use xlink:href="#AB" x="-22.186" y="53.376" class="B C I J"/><g fill="#fff"><use xlink:href="#AN"/><use xlink:href="#AO"/><use xlink:href="#AP"/><use xlink:href="#AQ"/><use xlink:href="#AR"/><use xlink:href="#AS"/><use xlink:href="#AT"/><use xlink:href="#AU"/></g><path d="M186.323 706.941l2.121 62.579 10.253 5.303.707-67.175z" class="B C I K"/><use xlink:href="#AV"/><use xlink:href="#AV" x="0.387" y="6.954"/><use xlink:href="#AV" x="0.137" y="13.954"/><use xlink:href="#AV" x="-0.113" y="20.204"/><use xlink:href="#AV" x="-0.113" y="27.454"/><use xlink:href="#AV" x="-0.363" y="33.454"/><use xlink:href="#AV" x="0.387" y="39.954"/><use xlink:href="#AV" x="0.387" y="45.954"/><use xlink:href="#AV" x="0.387" y="52.454"/><path d="M209.125 706.487l-9.25 5.75" class="B C D E H"/><g transform="rotate(180 179.475 782.237)"><path d="M239.765 748.66l-.177-47.376c6.01-1.886 10.942-3.71 16.281-5.907 5.276-2.171 10.338-4.83 15.539-7.175l8.839-3.889 1.802 6.829c-2.357 2.711-5.711 5.904-8.282 9.1-2.172 2.701-4.228 5.512-6.01 8.485-2.574 4.295-4.761 8.826-6.718 13.435-1.229 2.896-2.338 5.858-3.139 8.899-.879 3.337-1.457 7.128-1.811 10.192-3.064 1.532-5.252 2.169-7.84 3.34-2.858 1.293-4.478 2.062-8.485 4.066z"/><path d="M154.624 699.43l16.849 3.786 10.046 62.604-10.723-6.937z" class="L"/><path d="M209.125 706.487l-9.25 5.75" class="B C D E H"/><path d="M239.234 713.304l.53 35.477s-6.139 3.436-8.662 5.834c-3.061 2.908-5.478 6.482-7.601 10.132-1.486 2.555-2.651 5.311-3.536 8.132-.719 2.294-1.414 7.071-1.414 7.071l-4.419.177 18.031-66.822c2.362.234 4.709.113 7.071 0z" class="J"/><path d="M213.503 705.044l-8.546 73.211 10.071 1.871 20.988-78.16zm-89.759 31.595c-2.593 3.536-5.552 6.83-7.778 10.607-1.714 2.907-3.014 6.049-4.243 9.192-1.533 3.922-2.92 7.922-3.889 12.021-1.042 4.409-1.516 8.936-2.048 13.435-.66 5.578-1.054 11.186-1.417 16.791-.294 4.537-.277 9.092-.617 13.625-.292 3.896-.985 7.885-1.221 11.656l9.546-4.596c3.81-1.928 7.836-3.533 11.314-6.01 3.803-2.709 7.455-5.807 10.253-9.546 2.368-3.165 4.057-6.855 5.303-10.607 1.252-3.769 1.859-7.763 2.109-11.727.281-4.456-.14-8.945-.695-13.375-.448-3.578-.891-7.218-2.121-10.607-1.512-4.164-3.884-7.996-6.364-11.667-1.453-2.151-3.205-4.089-4.95-6.01-1.008-1.111-2.121-2.121-3.182-3.182z" class="L"/><use xlink:href="#B" class="J"/><path d="M30 718.362l21.75-18.5c6.615-5.339 13.506-10.325 20.25-15.5l13-10 14.5 11.5c3.959 3.054 7.834 6.236 12 9 3.859 2.56 12 7 12 7s-8.387 4.103-12 7c-4.784 3.837-8.614 8.755-12.5 13.5-4.69 5.726-9.605 11.424-13 18-4.038 7.821-6.744 16.375-8.5 25-.9 4.422-.758 8.994-1 13.5-.268 4.996-.14 10.01-.5 15-.326 4.516-.906 9.011-1.5 13.5-.576 4.346-2 13-2 13s-3.763-6.77-7-8.5c-2.955-1.579-6.656-1.192-10-1a37.88 37.88 0 0 0-11.5 2.5c-2.158.84-4.007 2.321-6 3.5l-5 3c-1.016.643-3 2-3 2z"/><use xlink:href="#C" fill="#000004"/><path d="M217.369 542.362l51.392 88.796 8.321-3.636-49.981-85.161z" fill="#ff5455"/><use xlink:href="#D" class="B C F K"/><use xlink:href="#E" fill="#ffff58"/><g class="D B"><g class="E G I"><use xlink:href="#F"/><use xlink:href="#G"/></g><use xlink:href="#H" class="G I"/><use xlink:href="#I" class="E G I"/><use xlink:href="#J" class="G I"/><use xlink:href="#K" class="G I"/><use xlink:href="#L" class="E G I"/><use xlink:href="#M" class="G I"/><use xlink:href="#N" class="E G I"/><g class="F"><use xlink:href="#O" class="G"/><g class="E"><path d="M170.56 542.555s-3.231 4.665-5.31 6.56c-1.665 1.517-5.623 3.749-5.623 3.749m17.494-10.309s-4.321 6.863-7.185 9.684c-2.923 2.88-9.996 7.185-9.996 7.185" class="G"/><use xlink:href="#P" class="G"/><path d="M188.679 542.555s6.702 13.33 12.183 18.118c5.506 4.81 19.68 9.684 19.68 9.684" class="G"/><path d="M194.302 542.555s5.276 9.822 9.371 13.432c3.529 3.111 12.495 6.56 12.495 6.56" class="G"/><path d="M199.924 542.555s3.194 6.709 5.935 9.059c1.91 1.638 6.872 3.124 6.872 3.124" class="G"/><use xlink:href="#Q" class="C"/></g></g></g><g class="L B C F"><use xlink:href="#R"/><use xlink:href="#S"/><use xlink:href="#T"/><use xlink:href="#U"/></g><g class="D E B C F"><path d="M192.453 627.116s-3.678 1.442-5.616 1.513c-1.656.061-4.881-.938-4.881-.938m-3.289-45.796s-4.791-4.101-9.136-4.142c-4.65-.044-7.392 2.662-7.392 2.662m56.997 3.102s-9.376-7.14-14.706-7.066c-7.19.1-12.541 4.317-12.541 4.317"/><use xlink:href="#V"/><use xlink:href="#W"/><use xlink:href="#X"/><path d="M205.077 582.883c.952 5.125-2.087 6.852-5.442 6.454-2.276-.27-4.423-3.247-3.371-6.198"/></g><g class="L B C F"><path d="M198.959 586.024c-.193-.904.671-2.221 1.574-2.285.79-.056 1.69.984 1.629 1.788-.056.738-.987 1.348-1.726 1.397-.575.038-1.357-.337-1.477-.901z"/><use xlink:href="#Y"/></g><g class="D E B"><path d="M178.166 590.54c-1.935 2.523-2.046 4.74-6.095 6.912m20.29-13.842c1.609 7.205 7.236 9.358 11.682 12.543" class="C F"/><use xlink:href="#Z" class="C F"/><use xlink:href="#a" class="C F"/><path d="M192.014 634.006s-3.755-1.23-5.693-1.191c-1.656.034-4.82 1.215-4.82 1.215" class="C F"/><g class="G"><use xlink:href="#b" class="F"/><use xlink:href="#c" class="F"/><use xlink:href="#d" class="F"/><use xlink:href="#e" class="F"/><use xlink:href="#f" class="F"/><use xlink:href="#g" class="F"/><use xlink:href="#h" class="F"/><use xlink:href="#i" class="F"/><use xlink:href="#j" class="F"/><g class="I"><use xlink:href="#k"/><use xlink:href="#l"/><use xlink:href="#m"/><use xlink:href="#n"/></g></g></g><path d="M125.18 648.525l-12.68 6.587 7.25 5.25 7.18-10.087zm11.239 7.494l-6.669 11.843 13.25 6.25 5.75-11.25zM161 666.612l-3.919 12.093 13.5 4.25L174 670.019zm25.25 5.75l-1 12.593 14.424.506-.674-13.598z"/><path d="M211.75 672.112l1.163 12.843 14.087-2.75-2.907-13.18zm24.663-7.18l5.293 13.397 12.029-4.57-2.985-7.398-4.5-6.25zm-124.913 6.18l8-10.5 10.25 7-6.419 12.093zm25.244 16.18l5.761-13.523 14.343 4.593-4.348 14z"/><path d="M167.669 696.722l2.831-13.61 14.843 1.919-1.169 13.674zm31.831 2.39l-.25-14.5h14l1.5 13.5-15.5 2zm30.5-4.25l-3.174-12.924 14.767-4.337 4.337 12.848-15.68 5.413zm28.75-9.75l-5.25-11.75 3-1 15.75 7z"/><g class="B D"><g class="G I"><path d="M107.413 660.042l.337 4.57 5.581-.989-1.081-5.011zm18.087-3.68l4.75-1.25.587 4.843-4.837 1.75zm4 19.25l5.25-2.5 1.25 4.75-4 2.25zm20-6.75l5-1.75 1.424 4.843-4.674 2.157zm9 17.5l2.75 4.75 4-3.25-3-4.5zm17.064-9.285l3.988-3.25 2.977 3.035-4 4zm12.686 14.459l3.75-3.674 3 4.75-3.75 2.25zm13.965-12.596l3.174-3.75 3.331 3.407-3 3zm15.448 10.928l3.587-4.006 3.75 3-2.565 4.669zm11.087-15.006l2.5-4.5 4.25 1.75-2 4.75zm17.5 8l2.25-4.75 4.75 2.5-2 4.25z"/><use xlink:href="#o" class="E"/><use xlink:href="#p"/><use xlink:href="#p" x="6.75" y="3.75"/><use xlink:href="#p" x="13.25" y="6.75"/><use xlink:href="#p" x="19.75" y="8.5"/><use xlink:href="#p" x="27.25" y="10.75"/><use xlink:href="#p" x="34" y="12.5"/><use xlink:href="#p" x="41.25" y="13"/><use xlink:href="#p" x="48.55" y="13.687"/><use xlink:href="#p" x="55.437" y="13.324"/><use xlink:href="#p" x="62.75" y="12"/><use xlink:href="#p" x="70.25" y="11"/><use xlink:href="#p" x="77.225" y="9.162"/><use xlink:href="#p" x="83.5" y="7.5"/><use xlink:href="#p" x="88.75" y="5"/><use xlink:href="#p" x="94.25" y="3.25"/></g><g class="C E F"><use xlink:href="#q"/><use xlink:href="#r"/><use xlink:href="#s"/><use xlink:href="#t"/><use xlink:href="#u"/><use xlink:href="#v"/></g><use xlink:href="#w" class="E F G"/><use xlink:href="#x" class="C E F"/></g><path d="M206.484 542.362l70.598 141.389 18.118-8.434-76.534-132.955z"/><g class="B C D E H"><use xlink:href="#y"/><use xlink:href="#z"/></g><use xlink:href="#AA" class="M"/><g class="J"><use xlink:href="#AB" class="B C I"/><use xlink:href="#AC"/><use xlink:href="#AD"/></g><use xlink:href="#AE" fill="#fff"/><use xlink:href="#AF" class="K"/><path d="M138.131 757.347s6.707-.687 10.008-.202c3.798.558 7.327 2.296 10.96 3.536 2.964 1.011 5.981 1.901 8.839 3.182 4.283 1.92 8.355 4.294 12.374 6.718 2.911 1.756 5.607 3.849 8.485 5.657 2.55 1.602 5.107 3.205 7.778 4.596 2.526 1.316 5.028 2.795 7.778 3.536 2.287.616 4.705.589 7.071.707 2.167.108 6.508 0 6.508 0l.265 9.369-4.298-4.419-1.061 3.889-7.778-6.364-1.414 3.536-8.132-8.132-2.121 3.889-7.778-9.899-2.987 3.615-6.912-7.858-2.121 3.182-8.132-8.485-1.414 3.182-9.899-7.071-.707 3.182-9.192-5.303.354 2.828-5.116-1.494z" class="B I"/><path d="M234.638 706.941l5.169.659-.28-6.505-4.536 2.134z" class="J"/><g class="B C"><g stroke="#ff5"><use xlink:href="#AG"/><use xlink:href="#AH"/><use xlink:href="#AI"/></g><g class="D E H"><use xlink:href="#AJ"/><path d="M171.491 704.776l14.478 8.882M172 711.362l13 8m-12.25.75l12.25 6.25m-10.5 1.25l11.75 6.5m-10.25.25l10.25 6.5m-8.75 1.5l9.5 6m-8.25 1.5l7.75 4m-6.75 3.5l7.25 4.5m25.379-52.168l-12.728 8.132m11.97-1.296l-11 7m10 1.5l-10 5.5m10.5 1.75l-11.25 6m10.75.75l-10.75 5.75m10.25 1.25l-11.5 6.5m10.25.25l-9.75 5.25m8.75 2.25l-9.25 5.75m-11.121 2.832l-6.799-4.866m25.549 5.116l-6.75 3.25m.5 2.793l5.53 2.146"/></g><use xlink:href="#AK" class="H K"/><path d="M296.5 647.362l-3.5-8.5 6 1.5 3 5.5zm15.5-1l2.5-5.5 6.5-1-2.5 6.5zm1.5 15l.5 6 5 .5-1-5.5zm-16 0l-2 7 4.5-1.5 2.5-8.5z" class="L H"/><g class="K H"><path d="M305 672.862l1.5 40.5 3.5-2-1.5-38.25z"/><use xlink:href="#AL"/></g><path d="M320.5 683.862c-.833 3.833-1.324 7.758-2.5 11.5-1.299 4.134-5 12-5 12h0" class="D E H"/><use xlink:href="#AM" class="H K"/><path d="M292.5 693.862c2.5 2.333 5.378 4.319 7.5 7 2.502 3.161 4 7 6 10.5" class="D E H"/><path d="M297 653.862l11-10.5 9.25 10.75-9.75 10z" class="H J"/><path d="M303 653.862l4.5-4.5 4.5 4.5-4 4.75z" class="H K"/></g><use xlink:href="#AA" x="-22.186" y="53.376" class="M"/><use xlink:href="#AB" x="-22.186" y="53.376" class="B C I J"/><g fill="#fff"><use xlink:href="#AN"/><use xlink:href="#AO"/><use xlink:href="#AP"/><use xlink:href="#AQ"/><use xlink:href="#AR"/><use xlink:href="#AS"/><use xlink:href="#AT"/><use xlink:href="#AU"/></g><path d="M186.323 706.941l2.121 62.579 10.253 5.303.707-67.175z" class="B C I K"/><use xlink:href="#AV"/><use xlink:href="#AV" x="0.387" y="6.954"/><use xlink:href="#AV" x="0.137" y="13.954"/><use xlink:href="#AV" x="-0.113" y="20.204"/><use xlink:href="#AV" x="-0.113" y="27.454"/><use xlink:href="#AV" x="-0.363" y="33.454"/><use xlink:href="#AV" x="0.387" y="39.954"/><use xlink:href="#AV" x="0.387" y="45.954"/><use xlink:href="#AV" x="0.387" y="52.454"/></g><path d="M30 662.362v360h270m-240-480h270v360" class="C D F"/><path d="M29.5 611.362c0-5.523-2.858-9-7-9s-7.5 4.477-7.5 10a24.83 24.83 0 0 1 0 1.406c0 3.649 1.338 7.188 2.5 10.5 1.195 3.405 2.917 6.39 4.531 9.438 2.501 4.72 7.969 13.656 7.969 13.656s5.468-8.937 7.969-13.656c1.614-3.047 3.337-6.032 4.531-9.437 1.162-3.312 2.5-6.851 2.5-10.5-.014-.487-.009-.957 0-1.406 0-5.523-3.358-10-7.5-10s-7 3.477-7 9c0 1-1 1-1 0zm59.5-36c0-11.046-5.716-18-14-18s-15 8.954-15 20c.035.956.018 1.891 0 2.813 0 7.298 2.677 14.377 5 21 2.389 6.811 5.834 12.781 9.063 18.875C79.064 629.489 90 647.362 90 647.362s10.936-17.873 15.938-27.312c3.229-6.094 6.673-12.064 9.063-18.875 2.323-6.623 5-13.702 5-21-.028-.974-.019-1.915 0-2.812 0-11.046-6.716-20-15-20s-14 6.954-14 18c0 2-2 2-2 0zm241.5 378c0 5.523 2.858 9 7 9s7.5-4.477 7.5-10c-.017-.478-.009-.946 0-1.406 0-3.649-1.338-7.188-2.5-10.5-1.195-3.405-2.917-6.39-4.531-9.437-2.501-4.72-7.969-13.656-7.969-13.656s-5.468 8.937-7.969 13.656c-1.614 3.047-3.337 6.032-4.531 9.438-1.162 3.312-2.5 6.851-2.5 10.5.014.487.009.957 0 1.406 0 5.523 3.358 10 7.5 10s7-3.477 7-9c0-1 1-1 1 0zm-59.5 36c0 11.046 5.716 18 14 18s15-8.954 15-20c-.035-.956-.018-1.891 0-2.812 0-7.298-2.677-14.377-5-21-2.389-6.811-5.834-12.781-9.062-18.875-5.001-9.439-15.937-27.313-15.937-27.313s-10.936 17.873-15.937 27.313c-3.229 6.094-6.673 12.064-9.062 18.875-2.323 6.623-5 13.702-5 21 .028.974.019 1.915 0 2.813 0 11.046 6.716 20 15 20s14-6.954 14-18c0-2 2-2 2 0z" class="J"/></g><defs ><path id="B" d="M89.26 670.585l15.746 11.96c5.217 3.775 10.341 7.726 15.91 10.96 4.225 2.454 8.711 4.443 13.203 6.364a145.54 145.54 0 0 0 12.253 4.596c3.372 1.095 10.253 2.828 10.253 2.828l-1.061-8.132s-11.667-3.189-17.324-5.303c-4.349-1.625-8.613-3.507-12.728-5.657-4.03-2.106-7.88-4.553-11.667-7.071-4.004-2.663-7.81-5.614-11.667-8.485l-7.425-5.657z"/><path id="C" d="M159.051 573.505s-10.506 9.831-15.117 15.33c-5.201 6.202-10.206 12.68-14.053 19.802-3.514 6.505-6.113 13.529-8.091 20.653-2.041 7.353-3.833 22.57-3.833 22.57l21.292-10.22s2.14-10.261 4.045-15.117c2.052-5.231 4.749-10.237 7.878-14.904 2.778-4.144 9.581-11.498 9.581-11.498z"/><path id="D" d="M292.217 542.362c-1.781 8.491-2.757 17.151-2.913 25.826-.203 11.302.99 22.625 3.478 33.652 1.774 7.865 4.206 15.582 7.261 23.043-3.991-.749-8.084-.954-12.13-.609-3.7.316-7.36 1.092-10.87 2.304l-50.174-84.217z"/><path id="E" d="M276.492 683.413c-17.232 8.904-25.108 12.995-38.67 16.556-15.813 4.151-32.424 6.081-48.756 5.332-14.711-.675-29.529-3.569-43.294-8.805-18.461-7.022-35.059-16.471-51.236-29.764 5.994-4.27 16.424-10.897 25.221-15.282 10.261-5.114 15.873-8.977 31.941-12.758 4.344 2.491 8.496 5.488 13.176 7.312 6.324 2.464 13.043 4.068 19.793 4.773 6.826.713 13.757.149 20.58-.587 6.903-.744 13.852-1.754 20.468-3.858 6.437-2.046 12.103-4.541 18.425-8.434-1.29 17.275-.392 22.175 9.34 31.303 2.17 1.8 13.746 8.993 19.393 7.905 4.924 3.58 1.122 5.101 3.62 6.306z"/><path id="F" d="M256.097 565.89c-2.528-1.882-6.231-2.153-8.053-.18-2.106 2.28-1.092 6.921.945 9.263 2.392 2.75 7.655 4.727 10.62 2.607 1.359-.972 1.27-3.541.444-4.994-.415-.73-1.358-1.093-2.271-1.093"/><path id="G" d="M263.261 583.362c2.03-1.779 1.057-3.638 0-4.87-.869-1.013-2.823-1.313-3.957-.609-2.981 1.854-4.462 6.781-3.168 10.043 1.304 3.285 5.824 6.022 9.254 5.174 2.349-.581 4.668-2.808 3.957-6.087"/><path id="H" d="M262.348 575.449c-.828-1.293-.64-3.673.609-4.565 1.263-.902 3.735-.398 4.565.913.895 1.414.24 4.047-1.217 4.87-1.202.678-3.212-.056-3.957-1.217z"/><path id="I" d="M250.478 556.58c.353 2.95-1.558 7.433-4.565 7.913-3.15.502-5.888-3.45-7.124-6.391-1.259-2.996-1.97-7.546.428-9.739 1.649-1.508 5.152-1.311 6.696.304.841.88 1.093 2.903 0 3.652"/><path id="J" d="M230.696 542.362c.913 5.884 4.284 6.336 7.304 5.696 2.106-.446 3.747-3.596 3.043-5.696"/><path id="K" d="M242.087 542.362c-1.016 1.694.584 3.169 1.826 3.261 1.37.101 3.011-1.934 2.519-3.261"/><path id="L" d="M274.217 596.145c-.435-.467-.98-.88-1.587-1.216-1.829-1.014-4.219-1.335-5.842-.346-2.798 1.705-2.467 6.335-1.053 9.006 1.492 2.818 5.393 5.217 8.482 4.425 1.772-.454 3.513-2.798 3.043-4.565-.349-1.315-1.81-3.248-3.652-1.826"/><path id="M" d="M279.391 604.971c-.511-1.317.208-3.436 1.522-3.957 1.302-.516 3.393.481 3.784 1.826.4 1.375-.885 3.262-2.263 3.652-1.091.309-2.633-.464-3.043-1.522z"/><path id="N" d="M279.696 612.58c1.562.454 1.069-3.325 0-4.261-1.155-1.011-3.505-.502-4.565.609-1.999 2.094-2.018 6.051-.749 8.654 1.354 2.777 4.814 5.973 7.765 5.058 2.522-.782 3.528-3.214 3.027-7.32"/><path id="O" d="M158.69 542.362l1.25 29.869.937 19.055c.607 7.726.827 15.548 2.499 23.116 1.328 6.013 2.875 12.15 5.935 17.493 2.531 4.42 5.763 8.725 9.996 11.558 2.463 1.648 5.48 2.58 8.434 2.811 3.789.297 7.679-.561 11.246-1.874 4.558-1.678 8.548-4.667 12.495-7.497 3.662-2.626 6.962-5.729 10.309-8.747 2.57-2.318 7.497-7.185 7.497-7.185"/><path id="P" d="M183.993 542.555s-7.246 10.413-11.871 14.682c-3.523 3.252-11.871 8.122-11.871 8.122"/><path id="Q" d="M180.473 579.908s.548 4.052.34 6.066c-.393 3.802-2.013 7.375-2.972 11.075-.627 2.421-1.914 4.779-1.818 7.278.075 1.963.592 4.093 1.861 5.593.849 1.004 2.51.965 3.484 1.848.817.74 1.831 2.755 1.831 2.755"/><path id="R" d="M193.63 604.238s3.198 3.597 2.768 5.649c-.272 1.298-1.732 2.341-3.039 2.569-1.684.294-3.216-1.162-4.806-1.789-1.509-.594-3.04-2.589-4.492-1.868-.681.339-1.084 1.644-.575 2.209.618.686 1.815-.391 2.737-.415 3.2-.083 7.04 2.922 9.558.945.872-.684.708-2.21.467-3.292-.346-1.558-2.617-4.008-2.617-4.008z"/><path id="S" d="M220.521 578.972s-8.749-6.254-13.745-7.574c-3.93-1.038-8.239-1.275-12.133-.103-1.566.472-4.15 2.761-4.15 2.761s3.815-1.383 5.801-1.641c4.01-.522 8.188-.798 12.119.215 4.363 1.123 12.108 6.343 12.108 6.343z"/><path id="T" d="M160.943 572.918s6.117-2.84 9.274-2.377c3.503.514 9.096 5.483 9.096 5.483s-5.916-4.084-9.336-4.306c-3.218-.209-9.235 2.882-9.235 2.882z"/><path id="U" d="M197.092 621.998s-3.931-1.537-6.042-1.668c-1.914-.119-3.77.711-5.677.818-2.178.122-4.454-.745-6.542-.203-.947.246-2.408 1.488-2.408 1.488s1.701-.104 2.542-.017c2.23.232 4.313 1.447 6.531 1.424 2.448-.025 4.709-1.4 7.159-1.723 1.462-.193 4.436-.121 4.436-.121z"/><path id="V" d="M218.056 585.74c-5.516-.693-7.469-3.855-12.543-4.252-4.351-.341-13.101 1.231-13.101 1.231"/><path id="W" d="M161.624 583.978c5.033-2.648 4.77-3.255 9.849-2.926 6.552.425 8.416 1.212 8.065 1.072"/><path id="X" d="M215.443 586.674c-4.938 1.285-7.292 2.526-12.893 2.904-4.15.28-9.712-1.033-10.135-5.171"/><path id="Y" d="M172.082 584.702c.015-.728-.819-1.658-1.662-1.627-.737.027-1.43.895-1.352 1.527.082.659.995 1.312 1.763 1.265.608-.037 1.24-.639 1.251-1.165z"/><path id="Z" d="M161.541 586.608c2.711 1.793 6.166 2.827 10.551 2.643 3.249-.136 6.52-2.665 6.536-5.667"/><path id="a" d="M166.642 581.281c-.977 4.985 1.136 7.632 4.942 7.495 1.674-.06 5.045-4.168 2.475-7.994"/><path id="b" d="M224.418 582.235c-1.845 5.394-5.166 10.816-5.11 16.608.055 5.678 2.293 11.38 5.323 16.182 2.358 3.736 5.617 7.206 9.581 9.156 3.801 1.869 8.375 1.278 12.562 1.916"/><path id="c" d="M227.612 587.771c-.852 3.123-2.307 7.175-2.129 10.859.203 4.217 1.51 8.48 3.62 12.136 1.756 3.044 4.156 5.979 7.239 7.665 2.345 1.282 5.252.994 7.878 1.49"/><path id="d" d="M231.231 594.158c-.284 2.271-1.179 4.548-.852 6.813.431 2.989 1.527 6.127 3.62 8.304 1.694 1.762 4.4 2.129 6.601 3.194"/><path id="e" d="M251.459 635.039c-.852 3.052-2.353 5.994-2.555 9.156-.252 3.937.259 8.04 1.703 11.711 1.644 4.177 4.396 7.996 7.665 11.072 1.994 1.877 4.45 3.33 7.026 4.258 1.822.657 3.833.568 5.749.852"/><path id="f" d="M255.078 642.065c-.426 2.271-1.41 4.507-1.278 6.813.179 3.115 1.182 6.255 2.768 8.943 1.301 2.205 3.217 4.08 5.323 5.536 1.334.922 2.981 1.278 4.471 1.916"/><path id="g" d="M161.393 609.063c-3.194 4.329-7.085 8.222-9.581 12.988-2.749 5.249-3.833 11.214-5.749 16.821"/><path id="h" d="M162.458 615.663c-2.058 3.194-4.57 6.137-6.175 9.581-1.726 3.703-2.413 7.807-3.62 11.711"/><path id="i" d="M163.948 623.115c-1.065 1.774-2.357 3.431-3.194 5.323-.697 1.577-.994 2.753-1.49 4.953"/><path id="j" d="M149.676 637.985c6.61 3.734 14.673 7.613 22.577 9.829 6.553 1.837 13.425 2.555 20.227 2.768 7.753.243 15.558-.424 23.208-1.703 5.213-.871 10.417-2.097 15.33-4.045 4.428-1.756 8.375-4.542 12.562-6.813"/><path id="k" d="M139.037 642.917c5.82 3.336 11.31 7.327 17.459 10.007 6.132 2.673 12.628 4.532 19.163 5.962 6.153 1.346 12.44 2.327 18.737 2.432 6.987.116 13.976-.842 20.866-2.006 5.618-.949 11.175-2.327 16.608-4.045 3.707-1.172 7.239-2.839 10.859-4.258"/><path id="l" d="M133.501 646.111c5.039 2.981 9.864 6.357 15.117 8.943 5.144 2.532 10.484 4.72 15.969 6.388 6.526 1.984 13.242 3.445 20.014 4.258 7.191.864 14.494 1.152 21.718.639 5.819-.413 11.582-1.583 17.247-2.981 7.169-1.769 14.053-4.542 21.079-6.813"/><path id="m" d="M126.262 649.092c5.678 3.336 11.085 7.183 17.034 10.007 6.634 3.15 13.596 5.634 20.653 7.665 7.036 2.025 14.237 3.587 21.505 4.471 5.711.694 11.502.945 17.247.639 6.445-.343 12.876-1.311 19.163-2.768 4.504-1.044 8.854-2.682 13.201-4.258 3.742-1.357 7.381-2.981 11.072-4.471"/><path id="n" d="M99.647 663.783c6.742 4.755 13.168 9.994 20.227 14.266 7.849 4.749 15.918 9.286 24.486 12.562 7.676 2.935 15.771 4.736 23.847 6.254 7.654 1.439 15.43 2.306 23.208 2.688 8.295.408 16.678.659 24.912-.426 8.123-1.071 16.028-3.513 23.847-5.962 7.46-2.336 14.851-4.991 21.931-8.304 4.059-1.899 7.807-4.4 11.711-6.601"/><path id="o" d="M95 667.362c7.667 5.667 14.265 11.267 22 16 5.5 3.365 11.337 6.18 17.25 8.75 6.673 2.901 13.498 5.523 20.5 7.5 6.873 1.941 13.934 3.208 21 4.25 7.15 1.054 14.361 1.941 21.588 2.015 9.029.091 18.137-.339 27.018-1.971 9.203-1.691 18.132-4.76 26.894-8.044 8.722-3.268 17.275-7.392 25.442-11.558"/><path id="p" d="M148.25 642.362a1 1 0 1 1-2 0 1 1 0 1 1 2 0z"/><path id="q" d="M312.57 717.38s-1.37.53-2.056.392c-.626-.126-1.225-.548-1.606-1.056-.374-.498-.555-1.799-.555-1.799"/><path id="r" d="M314.985 715.661s3.378-.849 4.591.082c1.276.98 1.635 3.06 1.301 4.622-.506 2.376-3.06 3.796-4.674 5.61-.981 1.103-1.781 2.515-3.042 3.205-1.236.676-2.837 1.305-4.072.715-.965-.46-1.543-1.743-1.68-2.877-.122-1.013.044-2.366.832-2.972 1.058-.814 2.675-.37 3.832.181.618.294 1.121.895 1.414 1.55.3.672.26 2.24.26 2.24"/><path id="s" d="M321.533 719.96s2.128.93 2.771 1.826c.647.902.981 2.12.833 3.216-.241 1.782-1.53 3.306-2.695 4.682-1.364 1.611-3.08 3.005-4.897 4.03-1.348.76-2.827 1.368-4.335 1.503-1.126.101-2.655.423-3.343-.534-.587-.816-.27-2.255.288-3.112.421-.647 1.264-.863 1.978-1.023.969-.217 2.188-.531 2.956.127.688.59.7 2.755.7 2.755"/><path id="t" d="M323.788 729.052s2.581 2.098 2.648 3.573c.046.997-.864 1.843-1.563 2.561-1.781 1.831-4.151 3.029-6.438 4.183-1.406.709-2.852 1.766-4.427 1.658-.738-.051-1.633-.39-1.948-1.053-.29-.61.044-1.403.386-1.984.642-1.09 1.644-2.597 2.909-2.452.793.091 1.173 1.157 1.427 1.907.265.779.027 2.466.027 2.466"/><path id="u" d="M326.034 735.897s.995 1.738.911 2.675c-.137 1.526-1.156 2.931-2.236 4.027-1.4 1.422-3.274 2.432-5.195 2.999-1 .295-2.327.824-3.125.159-.983-.82-1.054-2.661-.465-3.793.508-.977 1.825-1.738 2.921-1.574.827.124 1.361 1.047 1.754 1.779.396.737.515 2.454.515 2.454"/><path id="v" d="M318.146 746.154s-.687 1.161-1.163 1.606c-.447.419-.999.694-1.54.953-1.074.514-2.203.887-3.35 1.178-3.546.897-7.181 1.775-10.838 1.72-2.631-.039-5.608.05-7.756-1.47-1.866-1.32-3.05-3.678-3.447-5.929-.686-3.887.796-7.926 2.087-11.657 1.09-3.15 2.748-6.124 4.698-8.827 1.686-2.337 3.727-4.44 5.96-6.262 1.691-1.38 3.525-2.661 5.552-3.471 1.157-.462 2.472-1.114 3.663-.747.966.297 2.054 1.164 2.114 2.172.127 2.141-2.44 3.548-3.909 5.11-.845.898-1.823 1.666-2.796 2.424-1.055.822-2.294 2.181-3.291 2.295-.652 2.215.796 1.691.887 6.079.085 4.108-1.546 6.802-3.38 8.992"/><path id="w" d="M248.478 629.29c-1.561 4.116-4.184 7.975-4.684 12.349-.659 5.764.187 11.86 2.342 17.247 1.529 3.822 4.319 7.105 7.239 10.007 2.598 2.582 5.62 4.844 8.943 6.388 3.388 1.574 7.239 1.845 10.859 2.768"/><path id="x" d="M168.207 631.419c-29.428 8.653-51.29 20.051-74.051 35.631-3.961 2.711-7.915 5.438-11.73 8.351C64.484 689.098 47.201 702.601 30 718.262"/><path id="y" d="M60.458 856.847l3.889-4.95 5.657 2.828-4.243 5.303 5.657 3.889 9.192-13.081-10.96-6.718 5.657-10.96 5.657 1.768-2.475 5.303 6.364 2.475 4.596-15.203-12.374-3.536 3.536-16.263h6.364l-1.768 9.899 6.01 1.061 2.121-17.678h-10.96v-16.263h6.01l-.354 8.485 6.718-.707 1.061-15.556-11.314-1.768 1.061-16.263 7.071 1.061-.707 7.778 6.364 1.061 3.889-15.203-12.374-5.303 8.132-15.203 5.657 2.828-3.182 7.071 6.01 1.768 6.718-10.253-9.192-8.839 10.96-12.374 5.657 4.596-5.657 4.596 4.596 5.657 11.314-10.253-8.132-11.667 5.023-2.371m7.487 4.131l-2.202.881 3.523 5.284 6.165-3.376"/><path id="z" d="M148.846 713.658c-6.953 4.596-14.468 8.439-20.86 13.789-5.241 4.387-10.273 9.214-14.142 14.849-2.805 4.085-4.685 8.773-6.364 13.435-2.431 6.75-4.251 13.763-5.303 20.86-.761 5.135-.249 10.386-.707 15.556-.556 6.276-1.662 12.491-2.475 18.738-.598 4.595-.882 9.24-1.768 13.789s-2.036 9.054-3.536 13.435c-1.95 5.695-4.28 11.284-7.071 16.617-1.743 3.332-3.614 6.648-6.01 9.546-1.541 1.864-3.536 3.3-5.303 4.95"/><path id="AA" d="M63.64 712.597l-.354-6.364 6.364.354 3.536-6.01 4.596 6.364h6.364l-.707 6.364 5.303 3.182-6.01 4.596.354 5.657-4.95-.707-4.243 6.364-4.95-7.425-4.596 1.768v-6.01l-6.718-3.889z"/><path id="AB" d="M68.091 716.156l5.406-5.077 5.119 5.521-5.18 4.897z"/><path id="AC" d="M159.642 715.633s-8.084 1.711-11.857 3.328c-4.663 1.999-8.931 4.861-13.081 7.778-2.123 1.493-4.152 3.138-6.01 4.95-1.675 1.633-4.596 5.303-4.596 5.303l4.246 4.773c1.703 2.018 3.475 3.995 4.947 6.187 1.109 1.652 2.903 5.217 2.903 5.217s6.611-1.672 9.971-1.535c3.34.136 6.545 1.389 9.753 2.328 5.151 1.509 15.203 5.303 15.203 5.303z"/><path id="AD" d="M108.891 767.019s3.429 4.142 4.213 6.645c.702 2.242.896 4.771.294 7.041-.502 1.894-1.841 3.498-3.122 4.98-1.104 1.276-3.856 3.279-3.856 3.279l1.189-10.423c.427-3.841.046-7.682 1.282-11.523z"/><path id="AE" d="M113.491 757.145s1.197-4.043 2.475-5.657c1.098-1.386 2.493-2.931 4.243-3.182.997-.143 2.255.233 2.828 1.061.47.678.227 1.682 0 2.475-.307 1.069-1.016 2.01-1.768 2.828-.797.868-1.856 1.455-2.828 2.121l-2.828 1.768z"/><path id="AF" d="M109.217 767.329l1.799-6.648s2.554 3.419 3.536 5.303c1.345 2.581 2.678 5.265 3.182 8.132.516 2.936.458 6.038-.222 8.941-.476 2.034-1.506 3.93-2.643 5.683-1.128 1.74-2.441 3.424-4.079 4.696-1.526 1.185-5.18 2.6-5.18 2.6l1.163-7.071s3.767-3.194 4.95-5.303c1.077-1.92 1.687-4.164 1.768-6.364.066-1.802-.358-3.643-1.061-5.303-.736-1.739-3.213-4.665-3.213-4.665z"/><path id="AG" d="M91.57 701.991c-.134-2.318-3.92-4.315-2.828-6.364 1.434-2.691 7.285-4.093 9.01-1.578.81 1.181-2.084 2.256-2.214 3.682-.115 1.26 1.336 3.553 1.336 3.553h12.021l-1.061 3.889H96.52s-1.449 1.376-1.5 2.286c-.073 1.296 2.662 2.544 1.757 3.475-1.792 1.843-5.941-.933-6.975-3.286-.794-1.809 1.882-3.685 1.768-5.657z"/><path id="AH" d="M39.244 717.901s5.501.227 7.071 2.121c1.437 1.733.707 6.718.707 6.718s2.707-2.496 4.243-2.121c1.557.38 2.865 2.287 2.828 3.889-.035 1.509-1.444 2.934-2.828 3.536-1.409.612-4.596-.354-4.596-.354s2.098 5.812 4.636 6.976c2.363 1.084 5.382.133 7.738-.966 2.041-.951 2.757-4.086 4.95-4.596 1.198-.279 3.034-.063 3.536 1.061.902 2.022-2.587 3.809-2.828 6.01-.234 2.134-.128 4.79 1.414 6.284.948.919 2.578.901 3.889.747.854-.1 2.351-1.061 2.351-1.061s-1.671-3.873-.583-5.263c1.099-1.405 3.791-1.652 5.303-.707 1.58.987 2.196 3.49 1.768 5.303-.3 1.273-2.774 2.774-2.774 2.774l1.36 7.479s-3.283-2.737-5.249-3.467c-1.958-.726-4.245-.096-6.214-.791-1.902-.67-3.887-1.599-5.154-3.168-1.335-1.653-2.121-6.01-2.121-6.01s-4.643 2.524-7.071 2.121c-3-.498-5.513-2.937-7.425-5.303-1.313-1.625-2.19-3.684-2.489-5.752-.302-2.083.646-4.167.762-6.269.065-1.177.265-2.397-.04-3.536-.56-2.09-3.182-5.657-3.182-5.657z"/><path id="AI" d="M36.062 791.793s3.956-.462 5.303.707c1.715 1.488 1.844 6.557 1.844 6.557s1.346-3.536 2.913-3.742c1.405-.184 3.313 1.154 3.388 2.569.096 1.797-3.93 3.701-3.93 3.701s2.306 3.41 5.581-.882c.911-1.195 1.407-2.689 1.763-4.149.377-1.545.367-4.757.367-4.757l4.605.085s-1.115 3.688-.976 5.567c.11 1.487.346 3.203 1.414 4.243.933.908 3.737 1.132 3.737 1.132s-.471-1.51-.202-2.193c.521-1.32 1.763-2.802 3.182-2.828 1.264-.024 2.614 1.187 2.927 2.412.257 1.006-.47 2.114-1.159 2.891-.27.304-1.07.586-1.07.586s2.649 1.701 3.545 2.95c.963 1.342 1.781 4.623 1.781 4.623s-4.244-3.052-6.731-3.563c-1.415-.291-2.911.679-4.319.354-1.574-.364-3.094-1.267-4.167-2.475-.771-.868-1.414-3.182-1.414-3.182s-2.487 3.197-4.247 4.05c-1.5.727-3.319 1.048-4.95.703s-3.144-1.387-4.234-2.645c-.757-.874-1.022-2.081-1.401-3.173-.318-.918-.544-1.869-.725-2.824-.177-.933-.032-1.934-.354-2.828-.52-1.446-2.475-3.889-2.475-3.889z"/><path id="AJ" d="M85.206 675.121c5.068 4.125 9.876 8.591 15.203 12.374 6.864 4.876 14.145 9.16 21.506 13.246 4.749 2.636 9.63 5.042 14.592 7.253 3.979 1.773 8.019 3.428 12.149 4.811 3.54 1.185 7.197 1.983 10.796 2.975"/><path id="AK" d="M302.5 646.362c-.833-2.167-3.279-4.313-2.5-6.5.902-2.532 4.319-4.183 7-4 2.727.186 5.408 2.494 6.5 5 1.07 2.456.131 4.631-.75 8 3.01-1.847 4.261-2.296 6.25-1.5 3.133 1.253 5.716 5.132 5.5 8.5-.181 2.832-2.738 5.848-5.5 6.5-2.471.583-4.667-2-7-3 .5 3 2.631 6.177 1.5 9-.93 2.321-3.5 4.515-6 4.5-2.733-.017-5.499-2.456-6.5-5-1.114-2.83 1-6 1.5-9-1.833 1.333-3.243 4.214-5.5 4-3.639-.345-7.257-4.353-7.5-8-.19-2.861 2.583-5.458 5-7 2.287-1.459 5.333-1 8-1.5z"/><path id="AL" d="M311.5 703.862c.333-5.514 1.018-11.197 3.25-16.25 2.215-5.016 6.25-9.417 9.75-13.25.167 5.5.253 11.583-.75 17.25-.625 3.529-1.388 7.187-3.25 10.25-2.081 3.424-5.667 5.667-8.5 8.5-.167-2.167-.631-4.331-.5-6.5z"/><path id="AM" d="M287.5 684.862c4.833 3.833 11.176 6.303 14.5 11.5 3.049 4.767 2.667 11 4 16.5-3.833-3.833-8.007-7.354-11.5-11.5-2.234-2.652-4.747-5.266-6-8.5-.971-2.506-.667-5.333-1-8z"/><path id="AN" d="M117.097 762.053s2.24-3.573 3.904-4.784c1.43-1.04 3.189-2.153 4.942-1.925.998.13 2.109.83 2.439 1.782.27.779-.233 1.681-.665 2.384-.582.947-1.518 1.663-2.463 2.249-1.001.622-2.179.902-3.294 1.283l-3.199.943z"/><path id="AO" d="M119.937 767.146s3.144-2.81 5.08-3.51c1.662-.602 3.662-1.182 5.282-.476.923.403 1.795 1.384 1.848 2.389.043.824-.691 1.55-1.301 2.105-.823.748-1.921 1.175-2.991 1.476-1.135.319-2.344.261-3.521.317l-3.335.016z"/><path id="AP" d="M122.592 772.939s3.938-1.509 5.996-1.475c1.768.029 3.843.196 5.106 1.433.72.704 1.186 1.932.878 2.89-.253.785-1.197 1.203-1.965 1.505-1.035.407-2.213.416-3.32.317-1.174-.105-2.284-.589-3.404-.955l-3.123-1.17z"/><path id="AQ" d="M122.541 778.748s4.186-.506 6.174.026c1.708.457 3.68 1.124 4.605 2.631.527.858.681 2.162.149 3.017-.436.7-1.453.876-2.272.982-1.103.143-2.248-.135-3.298-.5-1.113-.387-2.072-1.126-3.07-1.754l-2.745-1.894z"/><path id="AR" d="M106.4 798.479s-.614 4.172-.134 6.173c.413 1.719 1.029 3.708 2.511 4.671.844.549 2.144.737 3.012.227.711-.418.914-1.43 1.041-2.245.171-1.099-.076-2.25-.414-3.31-.358-1.123-1.072-2.101-1.674-3.114l-1.823-2.793z"/><path id="AS" d="M111.362 795.696s.529 4.184 1.53 5.982c.86 1.545 1.987 3.295 3.674 3.825.961.302 2.263.134 2.962-.591.573-.593.496-1.623.399-2.442-.13-1.104-.678-2.147-1.288-3.077-.647-.985-1.597-1.735-2.449-2.55l-2.506-2.201z"/><path id="AT" d="M115.808 792.117s1.671 3.872 3.132 5.321c1.255 1.245 2.825 2.613 4.592 2.653 1.007.023 2.211-.5 2.682-1.391.386-.729.025-1.697-.295-2.457-.432-1.025-1.248-1.874-2.093-2.597-.895-.767-2.017-1.223-3.061-1.769l-3.019-1.418z"/><path id="AU" d="M120.167 787.492s2.938 3.025 4.819 3.86c1.616.717 3.569 1.438 5.235.847.949-.336 1.889-1.254 2.012-2.253.101-.819-.58-1.595-1.15-2.192-.768-.804-1.833-1.308-2.879-1.684-1.109-.398-2.32-.426-3.49-.565l-3.326-.252z"/><path id="AV" d="M191.272 712.244h2.828l.354 3.182-2.975.146z"/></defs></svg>