<svg xmlns="http://www.w3.org/2000/svg" xmlns:xlink="http://www.w3.org/1999/xlink" width="360" height="540" viewBox="0 0 95.25 142.875" xmlns:v="https://vecta.io/nano"><g transform="matrix(.264583 0 0 .264583 0 -135.562492)"><rect rx="29.944" y="512.862" x=".5" height="539" width="359" fill="#fff" stroke="#000"/><path d="M30 542.362a9.98 9.98 0 0 0-10 10v5c0 3.004 1.323 5.67 3.406 7.5-2.083 1.83-3.406 4.496-3.406 7.5v10a9.98 9.98 0 0 0 10 10 9.98 9.98 0 0 0 10-10v-10c0-3.004-1.323-5.67-3.406-7.5 2.083-1.83 3.406-4.496 3.406-7.5v-5a9.98 9.98 0 0 0-10-10zm0 5a4.99 4.99 0 0 1 5 5v5a5 5 0 1 1-10 0v-5a4.99 4.99 0 0 1 5-5zm0 20a4.99 4.99 0 0 1 5 5v10a5 5 0 1 1-10 0v-10a4.99 4.99 0 0 1 5-5zm300 455a9.98 9.98 0 0 1-10-10v-5c0-3.004 1.323-5.67 3.406-7.5-2.083-1.83-3.406-4.496-3.406-7.5v-10a10 10 0 1 1 20 0v10c0 3.004-1.323 5.67-3.406 7.5 2.083 1.83 3.406 4.496 3.406 7.5v5a9.98 9.98 0 0 1-10 10zm0-5a4.99 4.99 0 0 0 5-5v-5a5 5 0 1 0-10 0v5a4.99 4.99 0 0 0 5 5zm0-20a4.99 4.99 0 0 0 5-5v-10a5 5 0 1 0-10 0v10a4.99 4.99 0 0 0 5 5zm-297.5-367c.5 2 2.5 7 6 7 4.5 0 6.5-4 6.5-9 0-3.5-1.289-5.806-2.5-8.5-1.289-2.868-3.19-5.429-5-8-2.323-3.299-7.5-9.5-7.5-9.5s-5.177 6.201-7.5 9.5c-1.81 2.571-3.711 5.132-5 8-1.211 2.694-2.5 5-2.5 8.5 0 5 2 9 6.5 9 3.5 0 5.5-5 6-7 .5-.5.5 0 .5.5-.5 4-.5 5-1 8s-2 8.5-2 8.5c2.5-1 7.5-1 10 0 0 0-1.5-5.5-2-8.5s-.5-4-1-8c0-.5 0-1 .5-.5zm300 304c.5-2 2.5-7 6-7 4.5 0 6.5 4 6.5 9 0 3.5-1.289 5.806-2.5 8.5-1.289 2.868-3.19 5.429-5 8-2.323 3.299-7.5 9.5-7.5 9.5s-5.177-6.201-7.5-9.5c-1.81-2.571-3.711-5.132-5-8-1.211-2.694-2.5-5-2.5-8.5 0-5 2-9 6.5-9 3.5 0 5.5 5 6 7 .5.5.5 0 .5-.5-.5-4-.5-5-1-8s-2-8.5-2-8.5c2.5 1 7.5 1 10 0 0 0-1.5 5.5-2 8.5s-.5 4-1 8c0 .5 0 1 .5.5z"/><use xlink:href="#B"/><use xlink:href="#B" x="180"/><use xlink:href="#B" x="90" y="90"/><use xlink:href="#B" y="180"/><use xlink:href="#B" x="180" y="180"/><use xlink:href="#C"/><use xlink:href="#C" x="-90" y="90"/><use xlink:href="#C" x="90" y="90"/></g><defs ><path id="B" d="M95 613.362c1 4 5 14 12 14 9 0 13-8 13-18 0-7-2.579-11.612-5-17-2.578-5.737-6.379-10.857-10-16-4.645-6.598-15-19-15-19s-10.355 12.402-15 19c-3.621 5.143-7.422 10.263-10 16-2.421 5.388-5 10-5 17 0 10 4 18 13 18 7 0 11-10 12-14 1-1 1 0 1 1-1 8-1 10-2 16s-4 17-4 17c5-2 15-2 20 0 0 0-3-11-4-17s-1-8-2-16c0-1 0-2 1-1z"/><path id="C" d="M185 861.362c1-4 5-14 12-14 9 0 13 8 13 18 0 7-2.579 11.612-5 17-2.578 5.737-6.379 10.857-10 16-4.645 6.598-15 19-15 19s-10.355-12.402-15-19c-3.621-5.143-7.422-10.263-10-16-2.421-5.388-5-10-5-17 0-10 4-18 13-18 7 0 11 10 12 14 1 1 1 0 1-1-1-8-1-10-2-16s-4-17-4-17c5 2 15 2 20 0 0 0-3 11-4 17s-1 8-2 16c0 1 0 2 1 1z"/></defs></svg>