<svg xmlns="http://www.w3.org/2000/svg" xmlns:xlink="http://www.w3.org/1999/xlink" width="360" height="540" viewBox="0 0 95.25 142.875" xmlns:v="https://vecta.io/nano"><style><![CDATA[.B{stroke-linejoin:round}.C{stroke:#55a}.D{stroke-width:2}.E{fill:none}.F{stroke-linecap:round}.G{fill:#ff5}.H{fill:#55a}.I{stroke:#000}.J{fill:#f55}.K{stroke-width:2.082}.L{stroke-width:2.23}.M{stroke-width:2.142}]]></style><g transform="matrix(.264583 0 0 .264583 0 -135.562492)"><rect rx="29.944" y="512.862" x=".5" height="539" width="359" fill="#fff" class="I"/><path d="M198.75 900.362s-1.398-2.085-2.25-3c-1.128-1.21-2.239-2.577-3.75-3.25-1.841-.82-3.988-.871-6-.75-2.058.124-6 1.5-6 1.5s.166-3.945-.5-5.75c-.744-2.018-2.047-3.937-3.75-5.25-2.047-1.578-4.667-2.663-7.25-2.75-2.002-.067-3.901.98-5.75 1.75-1.136.473-3.25 1.75-3.25 1.75s-1.143-4.492-2.25-6.5c-.773-1.402-1.755-2.744-3-3.75-1.594-1.289-3.528-2.189-5.5-2.75-.885-.252-2.75-.25-2.75-.25l4.75-12.5 4.5-15.5 3-11.25 1.75-9.25 2-10 .25-6.75-17.25-.25-2.5 13.75-6.75 21.5-5.25 12-6.5 11.75-6.75 9.75-6 2-3.25 6.25v4.75l-5.25.75-3 6v6.5l.75 4-8-5-19.5-12 12.25-11.5 8.5-11.25 8.75-12 7.25-14.5 4.75-9-36.549-17.857-1.201-5.643-5.25-1.75-5.75 1-1.5 4 .25 2.75-12 1.25-10.25-1.5-13-.25v-82.5l7.5 6.5 10.75 10 9.25 12.75 7.856 12.919 3.676 14.559 1.064 7.623 49.654 24.149 1.75-7.25 1.5-10.25 1-12v-15.75h111l1.5 33.75 2 18.5 5 16 6.75 16.25 8.5 15.75 7 10.75 5.5 8.25-22 9.25-5.75-4.75-10-17-11.25-24.25-6-21.75-3.5-14.25-1.25-12.25-22.25.25 1.75 22 1.75 14.25 4 14.5 3 11.75 5 12.5 4.75 9 3.25 6-2 .75-3.25-1-4.25 5.25-4-1zm141.25 122v-30-20h-5v15l-3 7-7-22h-5l9 28-9 22h5l10-24v24zm-320-480v30 20h5v-15l3-7 7 22h5l-9-28 9-22h-5l-10 24v-24z"/><path d="M124.649 671.73l4.457-.637 4.139 1.91 3.98-1.91 2.706 1.433 2.706-.796 6.049 13.054 7.323 18.466 4.457 15.76 2.07 13.531 1.274 10.188.318 10.348-11.144-.318-2.229-14.646-3.821-17.989-4.617-14.168-4.935-11.303-5.253-10.188-3.343-6.368zm104.431 3.661l-7.96 14.964-7.96 17.83-5.413 17.83-3.502 16.397-1.91 10.348 7.801.318 4.298-16.715 6.209-18.148 5.253-12.258 6.209-10.666 4.457-6.368-3.821-2.388-2.07-5.731z" class="J"/><path d="M161.25 664.362s1.398 2.085 2.25 3c1.128 1.21 2.239 2.577 3.75 3.25 1.841.82 3.988.871 6 .75 2.058-.124 6-1.5 6-1.5s-.166 3.945.5 5.75c.744 2.018 2.047 3.937 3.75 5.25 2.047 1.578 4.667 2.663 7.25 2.75 2.002.067 3.901-.98 5.75-1.75 1.136-.473 3.25-1.75 3.25-1.75s1.143 4.492 2.25 6.5c.773 1.402 1.755 2.744 3 3.75 1.594 1.289 3.528 2.189 5.5 2.75.885.252 2.75.25 2.75.25l-4.75 12.5-4.5 15.5-3 11.25-1.75 9.25-2 10-.25 6.75 17.25.25 2.5-13.75 6.75-21.5 5.25-12 6.5-11.75 6.75-9.75 6-2 3.25-6.25v-4.75l5.25-.75 3-6v-6.5l-.75-4 8 5 19.5 12-12.25 11.5-8.5 11.25-8.75 12-7.25 14.5-4.75 9 36.549 17.857 1.201 5.643 5.25 1.75 5.75-1 1.5-4-.25-2.75 12-1.25 10.25 1.5 13 .25v82.5l-7.5-6.5-10.75-10-9.25-12.75-8.5-14.5-3.25-13-.75-6.5-49.75-25.25-1.75 7.25-1.5 10.25-1 12v15.75H125l-1.5-33.75-2-18.5-5-16-6.75-16.25-8.5-15.75-7-10.75-5.5-8.25 22-9.25 5.75 4.75 10 17 11.25 24.25 6 21.75 3.5 14.25 1.25 12.25 22.25-.25-1.75-22-1.75-14.25-4-14.5-3-11.75-5-12.5-4.75-9-3.25-6 2-.75 3.25 1 4.25-5.25 4 1z"/><path d="M270.16 747.99l11.011 5.505s.033-2.828.786-3.932c1.229-1.803 3.501-2.678 5.505-3.539 2.025-.87 4.254-1.179 6.423-1.573 1.082-.197 3.277-.393 3.277-.393l-.131-38.407-6.685 6.423c-2.431 2.773-4.495 5.854-6.554 8.914-2.004 2.978-3.91 6.028-5.637 9.176-1.682 3.067-3.164 6.243-4.588 9.438-1.228 2.757-3.408 8.389-3.408 8.389z" class="J"/><path d="M38.25 702.112l16.5-11.5 20.25-11 9.25-4.75 1.25 3.25-5.25 12.25-5 18.5-.75 11.5 2.25 14.25 4 10.75 6.75 11 7.75 9.25 6.25 6 7.5 5.5 10.75 5.5.5 14-1.5 8.75-2 10.75-20.5-9.75-1-16.5-4-17.5-7-18.5-6-9.75L65 726.862l-11.75-11.75-9.25-7.25z" fill="#ff5556"/><use xlink:href="#B" class="C D G"/><use xlink:href="#C"/><use xlink:href="#D"/><use xlink:href="#E"/><use xlink:href="#F"/><use xlink:href="#G"/><use xlink:href="#H"/><use xlink:href="#I"/><use xlink:href="#J"/><use xlink:href="#K"/><use xlink:href="#L" class="J"/><g class="B C D E F"><use xlink:href="#M"/><use xlink:href="#N"/><use xlink:href="#O"/><use xlink:href="#P"/><use xlink:href="#Q"/><use xlink:href="#R"/><use xlink:href="#S"/><use xlink:href="#T"/><use xlink:href="#U"/><use xlink:href="#V"/><path d="M186.76 654.099l-7.506 15.453m26.349-.873l-5.593 10.891m21.782 8.977l6.476-12.951"/><use xlink:href="#W"/><use xlink:href="#X"/><use xlink:href="#Y"/><use xlink:href="#Z"/><use xlink:href="#a"/><use xlink:href="#b"/><use xlink:href="#c"/><use xlink:href="#d"/><use xlink:href="#e"/><use xlink:href="#f"/><use xlink:href="#g"/><use xlink:href="#h"/><use xlink:href="#i"/></g><g class="B D I"><path d="M286.025 676.842c-8.826 8.525-17.312 17.83-24.386 27.98-6.604 9.476-11.676 19.958-16.627 30.402l24.749 12.374c3.94-9.095 8.376-18.043 13.876-26.283 3.878-5.81 8.426-11.363 13.363-16.144.118-6.718-.118-14.125 0-20.843-3.536-2.593-7.44-4.895-10.975-7.488z" class="G"/><g class="E F"><use xlink:href="#j"/><use xlink:href="#k"/><path d="M287.451 683.84l1.192 10.777 7.635-.052m-18.031-1.413l.707 12.021 9.705-1.009m-19.251-.918l1.061 13.947 9.546-1.768m-18.385.116l1.768 12.613 9.534-1.978m-18.06 1.072l3.222 12.573 9.927-4.231"/></g></g><g class="B C D"><path d="M259.706 660.561l19.57 11.823 17.011 11.416" class="E F"/><path d="M330 746.649c-7.157.362-15.409-1.847-23.155-2.1-5.198-.17-10.553-.871-15.599.392-3.239.811-7.258 1.62-8.95 4.498-1.55 2.635-1.797 7.02.384 9.162 2.638 2.59 8.322 2.713 11.087.26 1.543-1.369.714-4.107.593-6.158 4.891-.46 9.824-.918 14.738-.706 3.899.169 7.702 1.401 11.601 1.568 3.101.133 6.398-.226 9.301-.455z" class="G"/></g><g fill="#fff" class="B C D"><use xlink:href="#l"/><g class="F"><use xlink:href="#m"/><use xlink:href="#n"/><path d="M309.428 766.376c1.583.017 4.293 1.356 4.515 3.172.222.627.239 1.301.261 1.959"/><use xlink:href="#o"/><path d="M311.816 773.629c1.588.774 2.08 2.55 1.577 4.166l-.162.787"/><use xlink:href="#p"/><use xlink:href="#q"/><path d="M313.232 785.748c-1.951.686-3.85 2.671-2.507 3.923.695.879 2.527 1.47 3.569 1.65m-1.504-11.411c1.087.841 1.566 1.808 1.61 2.919.035.873-.869 1.989-1.079 2.389m2.299.972c1.138.738 2.475 2.032 1.619 3.488a9.01 9.01 0 0 1-.558 1.2"/></g></g><g class="C D B"><g class="E F"><path d="M297 743.362v-152l14.5-13 12.5 13v154.5"/><use xlink:href="#r"/></g><g class="G"><ellipse cx="311.215" cy="802.488" rx="7.159" ry="7.336"/><use xlink:href="#s" class="F"/><path d="M221.818 688.704s-3.039 3.704-5.112 4.767c-.841.431-2.781.556-2.781.556s-3.919 8.816-5.561 13.347c-2.204 6.082-4.056 12.293-5.747 18.538-1.641 6.062-3.231 12.158-4.264 18.352-.797 4.779-1.483 14.459-1.483 14.459l17.611-.185 1.854-10.196c.768-3.667 1.554-7.338 2.595-10.937a144.12 144.12 0 0 1 4.449-12.976c1.771-4.475 3.783-8.856 5.932-13.162 2.235-4.479 4.634-8.882 7.23-13.162 1.502-2.477 4.82-7.23 4.82-7.23l-5.191-1.854s-5.596 8.364-7.971 12.791c-2.889 5.385-5.323 11.013-7.6 16.684-2.512 6.257-4.778 12.624-6.674 19.094-1.5 5.12-3.708 15.572-3.708 15.572l-7.6-.185s2.149-14.03 3.708-20.948c1.282-5.689 2.87-11.311 4.634-16.869 1.431-4.509 3.025-8.971 4.82-13.347 1.825-4.452 6.039-13.109 6.039-13.109zm-105.852-20.478c7.745 12.383 15.099 25.131 20.548 38.674 4.063 10.098 6.601 20.777 8.919 31.411 1.429 6.555 2.107 13.253 3.059 19.894l22.627.177c-.856-11.363-1.176-20.101-2.974-29.982-2.337-12.843-5.529-25.61-10.109-37.834-2.864-7.644-6.68-14.44-10.782-21.987-.683 2.751-3.942 2.676-4.463 4.31 5.953 11.377 11.379 23.148 14.83 35.499 4.052 14.497 6.84 35.039 6.718 44.654l-11.075-.317c-2.322-14.8-4.57-28.02-8.994-41.447-2.686-8.153-6.699-15.82-10.569-23.482-2.673-5.293-6.477-11.319-8.721-15.504-3.106-1.161-5.189-1.749-6.164-3.986-.479-.027-2.373-.053-2.852-.08z"/></g></g><g class="I B"><path d="M180.025 701.313s-1.826-5.53-.184-7.348c2.14-2.37 7.115-2.799 9.552-.735 2.111 1.788.735 8.266.735 8.266s5.359-1.305 6.981.367c1.961 2.023 2.043 6.333.184 8.45-1.504 1.712-6.797.735-6.797.735s.34 5.262-1.47 6.613c-2.115 1.579-5.876 1.145-7.899-.551-1.741-1.46-1.653-6.613-1.653-6.613s-5.895 1.54-7.532-.367c-1.924-2.243-1.277-6.839.918-8.818 1.774-1.599 7.164 0 7.164 0z" class="G"/><circle cx="185.261" cy="706.365" r="4.133" class="D J"/><path d="M159.443 685.038c-.252-2.019-.915-4.517.346-6.127 1.665-2.126 5.095-2.915 7.743-2.384 2.579.517 4.515 2.924 6.065 5.051 1.238 1.698 1.749 3.836 2.357 5.847.867-1.046 2.123-1.955 3.469-2.151 1.325-.193 2.632.557 3.876 1.053-2.105 1.841-4.266 3.902-5.259 6.509-.962 2.524-.705 5.415-.395 8.095-1.937-4.271-3.824-8.626-6.517-12.463-1.372-1.955-2.565-4.564-4.843-5.282-1.529-.482-3.159.584-4.695 1.042-.733.218-1.437.524-2.146.81zm31.951 13.826s2.34-4.393 4.419-5.48c1.466-.766 3.436-1.02 4.95-.354 1.651.727 3.359 4.243 3.359 4.243s-2.026 2.834-3.536 2.828c-1.215-.005-1.654-1.987-2.828-2.298-2.079-.55-6.364 1.061-6.364 1.061zm.176 12.264c1.598 1.467 3.422 2.797 4.254 4.754.773 1.819 1.195 4.087.438 5.914-.71 1.714-2.377 3.386-4.216 3.635-1.167.158-2.215-.857-3.194-1.512-.4-.267-1.081-.676-1.068-.969 1.215-.274 2.605-.786 3.401-1.79 1.05-1.325 1.206-3.22 1.275-4.909.071-1.732-.459-3.384-.891-5.122zm-12.97 1.06c0 .302-3.911 3.285-4.688 5.59-.67 1.985-.844 4.522.297 6.279.946 1.456 2.961 1.954 4.653 2.341 1.294.296 2.659.049 3.98-.067-.155-1.319-.459-2.691-1.133-3.844s-2.273-1.653-2.803-2.885c-.977-2.272-.695-4.978-.307-7.413z" class="G"/></g><path d="M181.722 737.357c-2.196.325-4.493 1.517-5.764 3.337-1.567 2.245-1.546 5.355-1.416 8.09.115 2.41 2.238 4.586 1.921 6.978-.262 1.977-3.034 5.157-3.034 5.157l2.528 2.225s2.715-1.988 3.438-3.438c1.079-2.163 1.046-4.763 1.011-7.18-.023-1.607-1.139-3.18-.809-4.753.315-1.501 1.015-3.593 2.528-3.843 1.138-.188 2.126 1.142 2.73 2.124.828 1.346.873 3.072.91 4.652.061 2.554-1.737 5.107-1.112 7.584.4 1.589 1.614 2.972 2.933 3.944.489.361 1.719.607 1.719.607l1.82-3.034s-1.879-.926-2.225-1.82c-.909-2.352 1.015-4.963 1.112-7.483.093-2.397.175-4.879-.506-7.18-.514-1.736-1.186-3.66-2.629-4.753-1.408-1.066-3.41-1.472-5.157-1.213z" class="G"/><g class="B D"><path d="M84.676 676.005c12.29 16.272 22.653 34.401 28.869 53.771 5.443 16.962 6.23 35.198 6.84 53.002.277 8.089-.337 16.222-1.454 24.239-.407 2.922-1.222 5.772-1.905 8.642" class="C E F"/><g class="I"><use xlink:href="#t" class="G"/><g class="E F"><use xlink:href="#u"/><use xlink:href="#v"/><use xlink:href="#w"/></g></g><g class="C"><path d="M88.815 673.883c12.437 16.669 22.777 35.252 29.153 54.996 5.168 16 6.354 33.162 6.907 49.967.325 9.878-.671 19.797-2.122 29.573-.47 3.165-1.363 6.253-2.124 9.36" class="E F"/><use xlink:href="#x" class="E F"/><use xlink:href="#y" class="H"/><g class="E F"><use xlink:href="#z"/><use xlink:href="#AA"/></g></g></g><use xlink:href="#AB" class="H"/><use xlink:href="#AC" class="B C D E F"/><use xlink:href="#AD" class="H"/><use xlink:href="#AE" class="B C D E F"/><use xlink:href="#AF" class="H"/><use xlink:href="#AG" class="B C D E F"/><g class="H"><use xlink:href="#AH"/><use xlink:href="#AI" class="B C D"/></g><use xlink:href="#AJ" class="B C D E F"/><use xlink:href="#AK" class="H"/><g class="C B"><g class="D E"><use xlink:href="#AL"/><use xlink:href="#AM"/><use xlink:href="#AN"/></g><ellipse transform="matrix(1 0 0 .923077 0 520.11538)" cx="208.064" cy="106.494" rx="5.399" ry="3.948" class="E K"/><g class="D"><g class="H"><ellipse cx="208.401" cy="617.574" rx="1.957" ry="1.518"/><use xlink:href="#AO"/></g><g class="E F"><use xlink:href="#AP"/><use xlink:href="#AQ"/></g><g class="H"><use xlink:href="#AR"/><use xlink:href="#AS"/><use xlink:href="#AT"/></g><g class="E"><g class="F"><use xlink:href="#AU"/><use xlink:href="#AV"/></g><use xlink:href="#AW"/></g></g><ellipse transform="matrix(-.871976 .037123 .016892 .922057 422.28048 511.54784)" cx="208.064" cy="106.494" rx="5.399" ry="3.948" class="E L"/><ellipse transform="matrix(-.871976 .037123 .0183 .998896 422.1386 503.8032)" cx="208.401" cy="105.212" rx="1.957" ry="1.518" class="H M"/><path d="M215.75 622.237l-5.125 4.5m25.125-2.875l5.125 3.75" class="D E F"/></g><path d="M224.37 777.176c.33.641.86 1.304 1.853 1.416 1.789.201 3.16-1.255 3.383-3.242.156-1.391-.253-2.366-.614-3.49-.384-1.198-1.025-2.3-1.63-3.403-.776-1.415-2.557-4.111-2.557-4.111l-3.406 3.441c-.834.941-1.704 1.874-2.345 2.957-.602 1.017-1.217 1.876-1.374 3.267-.223 1.987.79 3.712 2.579 3.913.994.112 1.657-.417 2.122-.969l.176.221-.621 1.943c-.31.971-1.13 2.892-1.13 2.892 2.032-.174 2.032-.174 3.975.447l-.46-3.071-.174-2.032zm3.953-25.228c.27.669.735 1.378 1.715 1.581 1.762.366 3.262-.957 3.669-2.916.284-1.371-.033-2.379-.289-3.532-.272-1.228-.808-2.385-1.308-3.539-.642-1.481-2.166-4.33-2.166-4.33l-3.709 3.112c-.918.86-1.87 1.708-2.608 2.727-.693.957-1.385 1.755-1.67 3.126-.406 1.958.444 3.769 2.206 4.134.979.203 1.689-.263 2.202-.769l.155.236-.798 1.877c-.399.939-1.393 2.775-1.393 2.775 2.04.014 2.04.014 3.917.812l-.174-3.1.014-2.04zm8.026-23.933c.158.704.503 1.479 1.436 1.838 1.68.646 3.374-.417 4.092-2.284.502-1.307.352-2.353.286-3.532-.07-1.256-.412-2.485-.719-3.704-.394-1.565-1.437-4.623-1.437-4.623l-4.164 2.471c-1.045.7-2.122 1.383-3.015 2.269-.839.832-1.651 1.508-2.153 2.815-.718 1.867-.171 3.791 1.509 4.437.933.359 1.709.014 2.297-.403l.115.258-1.091 1.723c-.545.862-1.823 2.513-1.823 2.513 2.01.344 2.01.344 3.734 1.435l.329-3.087.344-2.01zm11.943-23.44c.048.72.268 1.539 1.135 2.038 1.56.898 3.398.109 4.396-1.624.698-1.213.711-2.27.829-3.446.125-1.252-.023-2.518-.138-3.771-.147-1.607-.705-4.79-.705-4.79l-4.495 1.798c-1.141.53-2.31 1.039-3.329 1.776-.957.693-1.864 1.235-2.562 2.448-.997 1.734-.755 3.719.805 4.616.867.499 1.686.278 2.332-.043l.074.273-1.344 1.534c-.672.767-2.19 2.201-2.19 2.201 1.933.651 1.933.651 3.467 1.995l.803-2.999.651-1.933zm13.99-19.759c-.084.716-.016 1.562.745 2.21 1.371 1.167 3.322.726 4.618-.797.907-1.066 1.112-2.103 1.442-3.237.351-1.208.436-2.481.551-3.733.148-1.607.178-4.838.178-4.838l-4.747.95c-1.218.314-2.461.601-3.597 1.141-1.067.507-2.058.875-2.965 1.941-1.296 1.523-1.419 3.519-.048 4.686.762.648 1.607.58 2.301.382l.023.282-1.601 1.264c-.8.632-2.554 1.766-2.554 1.766 1.782.992 1.782.992 3.046 2.592l1.335-2.803.992-1.782zm-154.457-9.286c.004-.721.175-1.552 1.01-2.103 1.503-.991 3.385-.315 4.486 1.355.77 1.169.847 2.223 1.036 3.389.201 1.242.13 2.515.091 3.772-.05 1.613-.414 4.824-.414 4.824l-4.596-1.522c-1.171-.46-2.369-.897-3.431-1.571-.997-.633-1.936-1.12-2.706-2.289-1.101-1.67-.979-3.666.524-4.657.835-.55 1.666-.379 2.33-.099l.057-.277-1.435-1.45c-.717-.725-2.319-2.065-2.319-2.065 1.89-.767 1.89-.767 3.34-2.201l.983 2.945.767 1.89zm10.559 20.068c.124-.71.43-1.502 1.345-1.906 1.647-.727 3.391.252 4.198 2.082.565 1.281.466 2.333.458 3.514-.008 1.258-.29 2.502-.537 3.735-.317 1.582-1.21 4.688-1.21 4.688l-4.279-2.265c-1.078-.648-2.187-1.278-3.122-2.12-.878-.79-1.723-1.426-2.288-2.706-.808-1.83-.356-3.778 1.29-4.505.915-.404 1.706-.097 2.314.29l.102-.264-1.174-1.668c-.587-.834-1.944-2.421-1.944-2.421 1.991-.442 1.991-.442 3.659-1.616l.48 3.068.442 1.991zm8.977 20.602c.159-.703.505-1.478 1.439-1.836 1.681-.643 3.374.422 4.089 2.29.5 1.308.348 2.353.281 3.533-.071 1.256-.416 2.484-.724 3.703-.396 1.564-1.444 4.621-1.444 4.621l-4.16-2.477c-1.044-.702-2.12-1.387-3.012-2.274-.837-.833-1.649-1.511-2.149-2.818-.715-1.868-.166-3.791 1.515-4.434.934-.357 1.709-.011 2.297.406l.115-.258-1.088-1.725c-.544-.862-1.819-2.516-1.819-2.516 2.011-.341 2.011-.341 3.736-1.43l.325 3.088.341 2.011zm7.466 23.704c.266-.67.727-1.382 1.705-1.591 1.76-.376 3.268.938 3.686 2.894.292 1.369-.019 2.379-.268 3.534-.264 1.23-.794 2.39-1.288 3.547-.633 1.485-2.14 4.343-2.14 4.343l-3.727-3.09c-.923-.855-1.88-1.697-2.624-2.712-.699-.953-1.396-1.747-1.688-3.116-.418-1.956.422-3.771 2.182-4.147.978-.209 1.69.253 2.207.756l.154-.237-.809-1.872c-.404-.936-1.409-2.767-1.409-2.767 2.039-.027 2.039-.027 3.912-.835l-.156 3.101.026 2.039zm2.974 24.356c.328-.642.855-1.307 1.848-1.423 1.788-.208 3.164 1.243 3.395 3.23.161 1.391-.245 2.366-.601 3.493-.38 1.199-1.017 2.304-1.618 3.409-.771 1.418-2.542 4.121-2.542 4.121l-3.418-3.429c-.838-.938-1.711-1.868-2.356-2.948-.605-1.015-1.224-1.871-1.385-3.262-.231-1.987.777-3.714 2.565-3.922.993-.115 1.659.412 2.125.961l.176-.222-.628-1.941c-.314-.97-1.141-2.888-1.141-2.888 2.033.167 2.033.167 3.973-.461l-.449 3.072-.167 2.033z" fill="#fff"/><path d="M110.895 663.823c-15.22 5.602-30.136 12.177-44.281 20.093C53.758 691.111 41.232 698.944 30 708.67" class="B C D E F"/><path d="M235.351 892.995l-4.457.637-4.139-1.91-3.98 1.91-2.706-1.433-2.706.796-6.049-13.054-7.323-18.466-4.457-15.76-2.07-13.531-1.274-10.188-.318-10.348 11.144.318 2.229 14.646 3.821 17.989 4.617 14.168 4.935 11.303 5.253 10.188 3.343 6.368zm-104.431-3.662l7.96-14.964 7.96-17.83 5.413-17.83 3.502-16.397 1.91-10.348-7.8-.318-4.298 16.715-6.209 18.148-5.253 12.258-6.209 10.666-4.457 6.368 3.821 2.388 2.07 5.731zm-41.079-72.599l-11.011-5.505s-.033 2.828-.786 3.932c-1.229 1.803-3.501 2.678-5.505 3.539-2.025.87-4.254 1.179-6.423 1.573-1.082.197-3.277.393-3.277.393l.131 38.407 6.685-6.423c2.431-2.773 4.495-5.854 6.554-8.914 2.004-2.978 3.91-6.028 5.637-9.176 1.682-3.067 3.164-6.243 4.588-9.438 1.228-2.757 3.408-8.389 3.408-8.389z" class="J"/><path d="M321.75 862.612l-16.5 11.5-20.25 11-9.25 4.75-1.25-3.25 5.25-12.25 5-18.5.75-11.5-2.25-14.25-4-10.75-6.75-11-7.75-9.25-6.25-6-7.5-5.5-10.75-5.5-.5-14 1.5-8.75 2-10.75 20.5 9.75 1 16.5 4 17.5 7 18.5 6 9.75 13.25 17.25 11.75 11.75 9.25 7.25z" fill="#ff5556"/><g transform="rotate(180 180 782.362)"><use xlink:href="#B" class="C D G"/><use xlink:href="#C"/><use xlink:href="#D"/><use xlink:href="#E"/><use xlink:href="#F"/><use xlink:href="#G"/><use xlink:href="#H"/><use xlink:href="#I"/><use xlink:href="#J"/><use xlink:href="#K"/><use xlink:href="#L" class="J"/><g class="B C D E F"><use xlink:href="#M"/><use xlink:href="#N"/><use xlink:href="#O"/><use xlink:href="#P"/><use xlink:href="#Q"/><use xlink:href="#R"/><use xlink:href="#S"/><use xlink:href="#T"/></g><g class="B C D E F"><use xlink:href="#U"/><use xlink:href="#V"/><path d="M186.76 654.099l-7.506 15.453m26.349-.873l-5.593 10.891m21.782 8.977l6.476-12.951"/><use xlink:href="#W"/><use xlink:href="#X"/><use xlink:href="#Y"/><use xlink:href="#Z"/><use xlink:href="#a"/><use xlink:href="#b"/><use xlink:href="#c"/><use xlink:href="#d"/><use xlink:href="#e"/><use xlink:href="#f"/><use xlink:href="#g"/><use xlink:href="#h"/><use xlink:href="#i"/></g></g><path d="M30 818.076c7.157-.362 15.409 1.847 23.155 2.1 5.198.17 10.553.871 15.599-.392 3.239-.811 7.258-1.62 8.95-4.498 1.549-2.635 1.797-7.02-.384-9.162-2.638-2.59-8.322-2.713-11.087-.26-1.543 1.369-.714 4.107-.593 6.158-4.891.46-9.824.918-14.738.706-3.899-.169-7.702-1.401-11.601-1.568-3.101-.133-6.398.226-9.301.455z" class="B C D G"/><g transform="rotate(180 180 782.362)" class="B D"><g fill="#fff" class="C"><use xlink:href="#l"/><g class="F"><use xlink:href="#m"/><use xlink:href="#n"/><path d="M309.428 766.376c1.583.017 4.293 1.356 4.515 3.172.222.627.239 1.301.261 1.959"/><use xlink:href="#o"/><path d="M311.816 773.629c1.588.774 2.08 2.55 1.577 4.166l-.162.787"/><use xlink:href="#p"/><use xlink:href="#q"/><path d="M313.232 785.748c-1.951.686-3.85 2.671-2.507 3.923.695.879 2.527 1.47 3.569 1.65m-1.504-11.411c1.087.841 1.566 1.808 1.61 2.919.035.873-.869 1.989-1.079 2.389m2.299.972c1.138.738 2.475 2.032 1.619 3.488a9.01 9.01 0 0 1-.558 1.2"/></g></g><g class="I"><path d="M286.025 676.842c-8.826 8.525-17.312 17.83-24.386 27.98-6.604 9.476-11.676 19.958-16.627 30.402l24.749 12.374c3.94-9.095 8.376-18.043 13.876-26.283 3.878-5.81 8.426-11.363 13.363-16.144.118-6.718-.118-14.135 0-20.853-3.536-2.593-7.44-4.885-10.975-7.478z" class="G"/><g class="E F"><use xlink:href="#j"/><use xlink:href="#k"/><path d="M287.451 683.84l1.192 10.777 7.635-.052m-18.031-1.413l.707 12.021 9.705-1.009m-19.251-.918l1.061 13.947 9.546-1.768m-18.385.116l1.768 12.613 9.534-1.978m-18.06 1.072l3.222 12.573 9.927-4.231"/></g></g></g><path d="M100.294 904.163l-19.57-11.823-17.011-11.416" class="B C D E F"/><g transform="rotate(180 180 782.362)" class="B C D"><g class="E F"><path d="M297 743.362v-152l14.5-13 12.5 13v154.5"/><use xlink:href="#r"/></g><g class="G"><ellipse cx="311.215" cy="802.488" rx="7.159" ry="7.336"/><use xlink:href="#s" class="F"/></g></g><g class="B G"><path d="M138.182 876.021s3.039-3.704 5.112-4.767c.841-.431 2.781-.556 2.781-.556s3.919-8.816 5.561-13.347c2.204-6.082 4.056-12.293 5.747-18.538 1.641-6.062 3.231-12.158 4.264-18.352.797-4.779 1.483-14.459 1.483-14.459l-17.611.185-1.854 10.196c-.768 3.667-1.554 7.338-2.595 10.937-1.271 4.392-2.766 8.725-4.449 12.976-1.771 4.475-3.783 8.856-5.932 13.162-2.235 4.479-4.634 8.882-7.23 13.162-1.502 2.477-4.82 7.23-4.82 7.23l5.191 1.854s5.596-8.364 7.971-12.791c2.889-5.385 5.323-11.013 7.6-16.684 2.512-6.257 4.778-12.624 6.674-19.094 1.5-5.12 3.708-15.572 3.708-15.572l7.6.185s-2.149 14.03-3.708 20.948c-1.282 5.689-2.87 11.311-4.634 16.869-1.431 4.509-3.025 8.971-4.82 13.347-1.825 4.452-6.039 13.109-6.039 13.109z" class="C D"/><path d="M179.975 863.411s1.826 5.53.184 7.348c-2.14 2.37-7.115 2.799-9.552.735-2.111-1.788-.735-8.266-.735-8.266s-5.359 1.305-6.981-.367c-1.961-2.023-2.043-6.333-.184-8.45 1.504-1.712 6.797-.735 6.797-.735s-.34-5.262 1.47-6.613c2.115-1.579 5.876-1.145 7.899.551 1.741 1.46 1.653 6.613 1.653 6.613s5.895-1.54 7.532.367c1.924 2.243 1.277 6.839-.918 8.818-1.774 1.599-7.164 0-7.164 0z" class="I"/></g><g class="D B"><circle transform="rotate(180 180.643 526.916)" cx="186.546" cy="195.472" r="4.133" class="I J"/><path d="M244.034 896.498c-7.745-12.383-15.099-25.131-20.548-38.674-4.063-10.098-6.601-20.777-8.919-31.411-1.429-6.555-2.107-13.253-3.059-19.894l-22.627-.177c.856 11.363 1.176 20.101 2.974 29.982 2.337 12.843 5.529 25.61 10.109 37.834 2.864 7.644 6.68 14.44 10.782 21.987.683-2.751 3.942-2.676 4.463-4.31-5.953-11.377-11.379-23.148-14.83-35.499-4.052-14.497-6.84-35.039-6.718-44.654l11.075.317c2.322 14.8 4.57 28.02 8.994 41.447 2.686 8.153 6.699 15.82 10.569 23.482 2.673 5.293 6.477 11.319 8.721 15.504 3.106 1.161 5.189 1.749 6.164 3.986.479.027 2.373.053 2.852.08z" class="C G"/></g><path d="M200.229 880.696c.197 2.025.791 4.54-.514 6.115-1.722 2.08-5.173 2.774-7.805 2.171-2.564-.588-4.434-3.047-5.925-5.215-1.191-1.731-1.643-3.882-2.196-5.909-.896 1.022-2.175 1.896-3.526 2.056-1.33.157-2.616-.629-3.846-1.159 2.155-1.783 4.371-3.784 5.435-6.363 1.031-2.497.853-5.394.616-8.082 1.819 4.323 3.587 8.727 6.174 12.636 1.318 1.992 2.439 4.632 4.697 5.412 1.515.523 3.174-.498 4.722-.913.739-.198 1.451-.485 2.168-.751zm-31.623-14.836s-2.34 4.393-4.419 5.48c-1.466.766-3.436 1.02-4.95.354-1.651-.727-3.359-4.243-3.359-4.243s2.026-2.834 3.536-2.828c1.215.005 1.654 1.987 2.828 2.298 2.079.55 6.364-1.061 6.364-1.061zm-.176-12.263c-1.598-1.467-3.422-2.797-4.254-4.754-.773-1.819-1.195-4.087-.438-5.914.71-1.714 2.377-3.386 4.216-3.635 1.167-.158 2.215.857 3.194 1.512.4.267 1.081.676 1.068.969-1.215.274-2.605.786-3.401 1.79-1.05 1.325-1.206 3.22-1.275 4.909-.071 1.732.459 3.384.891 5.122zm12.97-1.061c0-.302 3.911-3.285 4.688-5.59.67-1.985.844-4.522-.297-6.279-.946-1.456-2.961-1.954-4.653-2.341-1.294-.296-2.659-.049-3.98.067.155 1.319.459 2.691 1.133 3.844s2.273 1.653 2.803 2.885c.977 2.272.695 4.978.307 7.413z" class="I B G"/><path d="M178.278 827.367c2.196-.325 4.493-1.517 5.764-3.337 1.567-2.245 1.546-5.355 1.416-8.09-.115-2.41-2.238-4.586-1.921-6.978.262-1.977 3.034-5.157 3.034-5.157l-2.528-2.225s-2.715 1.988-3.438 3.438c-1.079 2.163-1.046 4.763-1.011 7.18.023 1.607 1.139 3.18.809 4.753-.315 1.501-1.015 3.593-2.528 3.843-1.138.188-2.126-1.142-2.73-2.124-.828-1.346-.873-3.072-.91-4.652-.061-2.554 1.737-5.107 1.112-7.584-.4-1.589-1.614-2.972-2.933-3.944-.489-.361-1.719-.607-1.719-.607l-1.82 3.034s1.879.926 2.225 1.82c.909 2.352-1.015 4.963-1.112 7.483-.093 2.397-.175 4.879.506 7.18.514 1.736 1.186 3.66 2.629 4.753 1.408 1.066 3.41 1.472 5.157 1.213z" class="G"/><path d="M275.324 888.72c-12.29-16.272-22.653-34.401-28.869-53.771-5.443-16.962-6.23-35.198-6.84-53.002-.277-8.089.337-16.222 1.454-24.239.407-2.922 1.222-5.772 1.905-8.642" class="B C D E F"/><g transform="rotate(180 180 782.362)" class="B D I"><use xlink:href="#t" class="G"/><g class="E F"><use xlink:href="#u"/><use xlink:href="#v"/><use xlink:href="#w"/></g></g><path d="M271.185 890.841c-12.437-16.669-22.777-35.252-29.153-54.996-5.168-16-6.383-33.161-6.907-49.967-.308-9.88.804-19.79 2.222-29.573.458-3.159 1.263-6.253 2.024-9.36" class="B C D E F"/><g transform="rotate(180 180 782.362)"><g class="B C D"><use xlink:href="#x" class="E F"/><use xlink:href="#y" class="H"/><g class="E F"><use xlink:href="#z"/><use xlink:href="#AA"/></g></g><use xlink:href="#AB" class="H"/><use xlink:href="#AC" class="B C D E F"/><use xlink:href="#AD" class="H"/><use xlink:href="#AE" class="B C D E F"/><use xlink:href="#AF" class="H"/><use xlink:href="#AG" class="B C D E F"/><g class="H"><use xlink:href="#AH"/><use xlink:href="#AI" class="B C D"/></g><use xlink:href="#AJ" class="B C D E F"/><use xlink:href="#AK" class="H"/><g class="C E B"><g class="D"><use xlink:href="#AL"/><use xlink:href="#AM"/><use xlink:href="#AN"/></g><ellipse transform="matrix(1 0 0 .923077 0 520.11538)" cx="208.064" cy="106.494" rx="5.399" ry="3.948" class="K"/></g><g class="D B C"><g class="H"><ellipse cx="208.401" cy="617.574" rx="1.957" ry="1.518"/><use xlink:href="#AO"/></g><g class="E F"><use xlink:href="#AP"/><use xlink:href="#AQ"/></g><g class="H"><use xlink:href="#AR"/><use xlink:href="#AS"/><use xlink:href="#AT"/></g><g class="E"><g class="F"><use xlink:href="#AU"/><use xlink:href="#AV"/></g><use xlink:href="#AW"/></g></g><ellipse transform="matrix(-.871976 .037123 .016892 .922057 422.28048 511.54784)" cx="208.064" cy="106.494" rx="5.399" ry="3.948" class="B C E L"/><ellipse transform="matrix(-.871976 .037123 .0183 .998896 422.1386 503.8032)" cx="208.401" cy="105.212" rx="1.957" ry="1.518" class="B C H M"/><path d="M215.75 622.237l-5.125 4.5m25.125-2.875l5.125 3.75" class="D E F B C"/></g><path d="M135.63 787.549c-.33-.641-.86-1.304-1.853-1.416-1.789-.201-3.16 1.255-3.383 3.242-.156 1.391.253 2.366.614 3.49.384 1.198 1.025 2.3 1.63 3.403.776 1.415 2.557 4.111 2.557 4.111l3.406-3.441c.834-.941 1.704-1.874 2.345-2.957.602-1.017 1.217-1.876 1.374-3.267.223-1.987-.79-3.712-2.579-3.913-.994-.112-1.657.417-2.122.969l-.176-.221.621-1.943c.31-.971 1.13-2.892 1.13-2.892-2.032.174-2.032.174-3.975-.447l.46 3.071.174 2.032zm-3.953 25.227c-.27-.669-.735-1.378-1.715-1.581-1.762-.366-3.262.957-3.669 2.916-.284 1.371.033 2.379.289 3.532.272 1.228.808 2.385 1.308 3.539.642 1.481 2.166 4.33 2.166 4.33l3.709-3.112c.918-.86 1.87-1.708 2.608-2.727.693-.957 1.385-1.755 1.67-3.126.406-1.958-.444-3.769-2.206-4.134-.979-.203-1.689.263-2.202.769l-.155-.236.798-1.877c.399-.939 1.393-2.775 1.393-2.775-2.04-.014-2.04-.014-3.917-.812l.174 3.1-.014 2.04zm-8.026 23.933c-.158-.704-.503-1.479-1.436-1.838-1.68-.646-3.374.417-4.092 2.284-.502 1.307-.352 2.353-.286 3.532.07 1.256.412 2.485.719 3.704.394 1.565 1.437 4.623 1.437 4.623l4.164-2.471c1.045-.7 2.122-1.383 3.015-2.269.839-.832 1.651-1.508 2.153-2.815.718-1.867.171-3.791-1.509-4.437-.933-.359-1.709-.014-2.297.403l-.115-.258 1.091-1.723c.545-.862 1.823-2.513 1.823-2.513-2.01-.344-2.01-.344-3.734-1.435l-.329 3.087-.344 2.01zm-11.943 23.441c-.047-.72-.268-1.539-1.135-2.038-1.56-.898-3.398-.109-4.396 1.624-.698 1.213-.711 2.27-.829 3.446-.125 1.252.023 2.518.138 3.771.147 1.607.705 4.79.705 4.79l4.495-1.798c1.141-.53 2.31-1.039 3.329-1.776.957-.693 1.864-1.235 2.562-2.448.997-1.734.755-3.719-.805-4.616-.867-.499-1.686-.278-2.332.043l-.074-.273 1.344-1.534c.672-.767 2.189-2.201 2.189-2.201-1.933-.651-1.933-.651-3.467-1.995l-.803 2.999-.651 1.933zm-13.99 19.758c.084-.716.016-1.562-.745-2.21-1.371-1.167-3.322-.726-4.618.797-.907 1.066-1.112 2.103-1.442 3.237-.351 1.208-.436 2.481-.551 3.733-.148 1.607-.178 4.838-.178 4.838l4.747-.95c1.218-.314 2.461-.601 3.597-1.141 1.067-.507 2.058-.875 2.965-1.941 1.296-1.523 1.419-3.519.048-4.686-.762-.648-1.607-.58-2.301-.382l-.023-.282 1.601-1.264c.8-.632 2.554-1.766 2.554-1.766-1.782-.992-1.782-.992-3.046-2.592l-1.335 2.803-.992 1.782zm154.457 9.286c-.004.721-.175 1.552-1.01 2.103-1.503.991-3.385.315-4.486-1.355-.77-1.169-.847-2.223-1.036-3.389-.201-1.242-.13-2.515-.091-3.772.05-1.613.414-4.824.414-4.824l4.596 1.522c1.171.46 2.369.897 3.431 1.571.997.633 1.936 1.12 2.706 2.289 1.101 1.67.979 3.666-.524 4.657-.835.55-1.666.379-2.33.099l-.057.277 1.435 1.45c.717.725 2.319 2.065 2.319 2.065-1.89.767-1.89.767-3.34 2.201l-.983-2.945-.767-1.89zm-10.559-20.067c-.124.71-.43 1.502-1.345 1.906-1.647.727-3.391-.252-4.198-2.082-.565-1.281-.466-2.333-.458-3.514.008-1.258.29-2.502.537-3.735.317-1.582 1.21-4.688 1.21-4.688l4.279 2.265c1.078.648 2.187 1.278 3.122 2.12.878.79 1.723 1.426 2.288 2.706.808 1.83.356 3.778-1.29 4.505-.915.404-1.706.097-2.314-.29l-.102.264 1.174 1.668c.587.834 1.944 2.421 1.944 2.421-1.991.442-1.991.442-3.659 1.616l-.48-3.068-.442-1.991zm-8.977-20.603c-.159.703-.505 1.478-1.439 1.836-1.681.643-3.374-.422-4.089-2.29-.5-1.308-.348-2.353-.281-3.533.071-1.256.416-2.484.724-3.703.396-1.564 1.444-4.621 1.444-4.621l4.16 2.477c1.044.702 2.12 1.387 3.012 2.274.837.833 1.649 1.511 2.149 2.818.715 1.868.166 3.791-1.515 4.434-.934.357-1.709.011-2.297-.406l-.115.258 1.088 1.725c.544.862 1.819 2.516 1.819 2.516-2.011.341-2.011.341-3.736 1.43l-.325-3.088-.341-2.011zm-7.466-23.704c-.266.67-.727 1.382-1.705 1.591-1.76.376-3.268-.938-3.686-2.894-.292-1.369.019-2.379.268-3.534.264-1.23.794-2.39 1.288-3.547.633-1.485 2.14-4.343 2.14-4.343l3.727 3.09c.923.855 1.88 1.697 2.624 2.712.699.953 1.396 1.747 1.688 3.116.418 1.956-.422 3.771-2.182 4.147-.978.209-1.69-.253-2.207-.756l-.154.237.809 1.872c.404.936 1.409 2.767 1.409 2.767-2.039.027-2.039.027-3.912.835l.156-3.101-.026-2.039zm-2.974-24.355c-.328.642-.855 1.307-1.848 1.423-1.788.208-3.164-1.243-3.395-3.23-.161-1.391.245-2.366.601-3.493.38-1.199 1.017-2.304 1.618-3.409.771-1.418 2.542-4.121 2.542-4.121l3.418 3.429c.838.938 1.711 1.868 2.356 2.948.605 1.015 1.224 1.871 1.385 3.262.231 1.987-.777 3.714-2.565 3.922-.993.115-1.659-.412-2.125-.961l-.176.222.628 1.941c.314.97 1.141 2.888 1.141 2.888-2.033-.167-2.033-.167-3.973.461l.449-3.072.167-2.033z" fill="#fff"/><g class="B D G I"><path d="M179.435 764.724S170 772.362 170 782.362s8.869 17.827 8.869 17.827S190 792.362 190 782.362s-10.565-17.639-10.565-17.639z"/><path d="M180.1 770.775s-5.665 3.535-5.665 12.302c0 6.316 5.1 10.982 5.1 10.982s6.608-5.231 6.608-11.548-6.042-11.736-6.042-11.736z"/><path d="M180.1 776.411s-2.084 4.043-2.084 6.476 2.084 5.722 2.084 5.722 2.461-4.232 2.461-6.665-2.461-5.534-2.461-5.534z"/></g><path d="M148 772.362v20h20s-3-5-3-10 3-10 3-10zm64 0v20h-20s3-5 3-10-3-10-3-10z" class="J"/><g class="C D E"><path d="M30 662.362v360h270m-240-480h270v360"/><path d="M249.105 900.901c15.22-5.602 30.136-12.177 44.281-20.093 12.856-7.195 25.382-15.028 36.614-24.754" class="B F"/></g><path d="M95 613.362c1 4 5 14 12 14 9 0 13-8 13-18 0-7-2.579-11.612-5-17-2.578-5.737-6.379-10.857-10-16-4.645-6.598-15-19-15-19s-10.355 12.402-15 19c-3.621 5.143-7.422 10.263-10 16-2.421 5.388-5 10-5 17 0 10 4 18 13 18 7 0 11-10 12-14 1-1 1 0 1 1-1 8-1 10-2 16s-4 17-4 17c5-2 15-2 20 0 0 0-3-11-4-17s-1-8-2-16c0-1 0-2 1-1zm-62.5 17c.5 2 2.5 7 6 7 4.5 0 6.5-4 6.5-9 0-3.5-1.289-5.806-2.5-8.5-1.289-2.868-3.19-5.429-5-8-2.323-3.299-7.5-9.5-7.5-9.5s-5.177 6.201-7.5 9.5c-1.81 2.571-3.711 5.132-5 8-1.211 2.694-2.5 5-2.5 8.5 0 5 2 9 6.5 9 3.5 0 5.5-5 6-7 .5-.5.5 0 .5.5-.5 4-.5 5-1 8s-2 8.5-2 8.5c2.5-1 7.5-1 10 0 0 0-1.5-5.5-2-8.5s-.5-4-1-8c0-.5 0-1 .5-.5zm232.5 321c-1-4-5-14-12-14-9 0-13 8-13 18 0 7 2.579 11.612 5 17 2.578 5.737 6.379 10.857 10 16 4.645 6.598 15 19 15 19s10.355-12.402 15-19c3.621-5.143 7.422-10.263 10-16 2.421-5.388 5-10 5-17 0-10-4-18-13-18-7 0-11 10-12 14-1 1-1 0-1-1 1-8 1-10 2-16s4-17 4-17c-5 2-15 2-20 0 0 0 3 11 4 17s1 8 2 16c0 1 0 2-1 1zm62.5-17c-.5-2-2.5-7-6-7-4.5 0-6.5 4-6.5 9 0 3.5 1.289 5.806 2.5 8.5 1.289 2.868 3.19 5.429 5 8 2.323 3.299 7.5 9.5 7.5 9.5s5.177-6.201 7.5-9.5c1.81-2.571 3.711-5.132 5-8 1.211-2.694 2.5-5 2.5-8.5 0-5-2-9-6.5-9-3.5 0-5.5 5-6 7-.5.5-.5 0-.5-.5.5-4 .5-5 1-8s2-8.5 2-8.5c-2.5 1-7.5 1-10 0 0 0 1.5 5.5 2 8.5s.5 4 1 8c0 .5 0 1-.5.5z"/></g><defs ><path id="B" d="M116 542.362l31.5 57.5c11.286-4.208 23.301-5.616 35.184-6.875 12.973-1.374 26.104-1.425 39.13-.708 10.633.586 21.331 1.376 31.686 4.083l35.5-54H116z"/><path id="C" d="M191.19 572.915c1.206 1.008 2.788 1.902 4.357 1.806 1.581-.097 2.936-1.308 4.135-2.344.758-.654 1.217-1.332 1.846-2.37.817.97 1.528 2.189 2.643 2.846 1.376.811 3.172 1.754 4.651 1.151 1.78-.726 2.885-2.988 3.032-4.904.136-1.772-.725-3.757-2.077-4.91-1.272-1.086-3.206-1.048-4.871-1.203.476-1.493 1.275-3.404.693-4.973-.682-1.835-2.472-3.606-4.41-3.877-1.756-.245-3.695.899-4.805 2.282-.967 1.206-1.339 3.006-1.032 4.522.227 1.119 1.046 2.071 2.001 2.779-1.94.162-4.177.381-5.54 1.757-1.306 1.319-1.769 3.473-1.632 5.324.058.779.63 1.433 1.01 2.116zm8.49-6.399c-.135-.891.507-2.192 1.4-2.313.917-.124 2.033.982 2.018 1.907-.013.864-1.074 1.722-1.939 1.722-.66 0-1.381-.663-1.479-1.316z"/><path id="D" d="M163.139 558.283c-1.394.726-2.827 1.843-3.341 3.329-.518 1.497.047 3.225.575 4.718.405 1.144 1.214 2.106 1.931 3.086-1.026-.351-2.215-.375-3.16.091-1.79.881-3.722 2.643-3.783 4.637-.059 1.921 1.65 3.811 3.363 4.683 1.584.807 3.747.774 5.332-.032 1.491-.758 2.2-2.558 2.982-4.035 1.196 1.013 2.647 2.061 4.208 2.057 2.099-.005 4.712-.911 5.644-2.792.86-1.736-.044-4.085-1.106-5.704-.719-1.097-1.939-2.099-3.245-2.226-1.182-.115-2.253.8-3.273 1.41.595-1.853 1.253-4.003.506-5.79-.716-1.713-2.527-2.968-4.289-3.552-.742-.246-1.565.031-2.341.12zm2.883 10.799c.912.115 2.154.996 1.997 1.902-.157.912-1.73 1.586-2.536 1.131-.747-.422-.704-1.79-.316-2.555.148-.291.531-.519.855-.478z"/><path id="E" d="M240.049 556.351c1.394.726 2.827 1.843 3.341 3.329.518 1.497-.047 3.225-.575 4.718-.405 1.144-1.214 2.106-1.931 3.086 1.026-.351 2.215-.375 3.16.091 1.79.881 3.722 2.643 3.783 4.637.059 1.921-1.65 3.811-3.363 4.683-1.584.807-3.747.774-5.332-.032-1.491-.758-2.2-2.558-2.982-4.035-1.196 1.013-2.647 2.061-4.208 2.057-2.099-.005-4.712-.911-5.644-2.792-.86-1.736.044-4.085 1.106-5.704.719-1.097 1.939-2.099 3.245-2.226 1.182-.115 2.253.8 3.273 1.41-.595-1.853-1.253-4.003-.506-5.79.716-1.713 2.527-2.968 4.289-3.552.742-.246 1.565.031 2.341.12zm-2.883 10.799c-.912.115-2.154.996-1.997 1.902.157.912 1.73 1.586 2.536 1.131.747-.422.704-1.79.316-2.555-.148-.291-.531-.519-.855-.478z"/><path id="F" d="M271.151 561.226c-1.749-.044-3.78.521-4.967 1.892-1.24 1.43-1.351 3.674-1.423 5.619-.706-.918-1.351-2.126-2.435-2.416-1.197-.32-2.601.206-3.592.996-1.464 1.166-3.035 3.087-2.835 5.011.216 2.084 2.235 3.796 4.092 4.508 1.381.53 3.006.036 4.392-.514l.184 1.512 2.407-3.626c-.106.074-.237.145-.363.168-.861.157-2.028-1.004-1.872-1.916.155-.905 1.545-1.322 2.39-1.123.3.071.573.398.61.721.044.388-.034.881-.188 1.304l6.579-9.91c-.288-.475-.617-.905-.962-1.304-.658-.345-1.278-.904-2.014-.922z"/><path id="G" d="M132.543 562.711c1.746.106 3.721.844 4.786 2.311 1.112 1.532 1.03 3.776.935 5.721.782-.854 1.529-2.002 2.634-2.198 1.22-.216 2.573.428 3.493 1.301 1.359 1.288 2.759 3.337 2.394 5.236-.394 2.058-2.553 3.59-4.464 4.14-1.421.409-2.998-.222-4.331-.89l-.313 1.491-2.087-3.819c.099.083.223.165.347.199.844.23 2.107-.826 2.03-1.748-.076-.915-1.426-1.45-2.285-1.324-.305.045-.605.347-.67.666-.077.383-.042.881.076 1.316l-5.703-10.439c.328-.448.692-.849 1.07-1.216.686-.288 1.351-.791 2.086-.746z"/><path id="H" d="M213.731 577.765c-2.619.324-5.383-.71-7.639-2.064-1.201-.721-2.036-1.932-2.861-3.058-.75-1.023-1.237-2.692-1.868-3.315.359 3.46 1.278 5.709 3.073 7.886 1.725 2.091 4.337 3.379 6.877 4.338 2.733 1.032 5.745 1.606 8.664 1.398 3.437-.245 6.834-1.443 9.857-3.077 2.052-1.109 3.98-2.596 5.389-4.441.784-1.026 1.451-2.543 1.582-3.525-1.311 1.575-3.496 3.413-5.672 4.443-1.984.939-4.256 1.74-6.435 1.443-2.115-.289-3.684-1.404-5.627-3.023-2.055 1.1-3.31 2.744-5.341 2.995z"/><path id="I" d="M189.546 578.743c2.602.19 5.225-1.059 7.432-2.45 1.162-.733 2.051-1.86 2.852-2.976.734-1.021.787-3.419 1.747-3.343-.176 3.474-1.212 5.558-2.888 7.745-1.635 2.133-4.105 3.595-6.563 4.683-2.644 1.17-5.587 1.897-8.477 1.838-3.404-.07-6.818-1.092-9.886-2.57-2.082-1.003-4.062-2.39-5.547-4.161-.826-.985-1.563-2.465-1.743-3.44 1.375 1.506 3.626 3.23 5.826 4.148 2.006.837 4.29 1.521 6.424 1.113 2.072-.396 3.563-1.589 5.397-3.306 2.084.994 3.408 2.571 5.425 2.719z"/><path id="J" d="M245.239 580.819c-2.049-.065-4.11-1.398-5.755-2.955-.875-.828-1.351-2.115-1.986-3.205-.498-.855-.674-2.594-1.431-2.614.022 3.227.832 4.935 2.025 6.978 1.231 2.109 3.104 3.704 4.997 4.938 2.037 1.327 4.324 2.272 6.596 2.486 2.675.252 5.391-.377 7.849-1.458 1.669-.734 3.269-1.832 4.495-3.331.682-.834 1.31-2.134 1.483-3.018-1.13 1.265-2.955 2.649-4.714 3.293-1.603.587-3.42 1.008-5.082.432-1.614-.559-2.745-1.8-4.128-3.556-1.67.725-2.762 2.061-4.351 2.01z"/><path id="K" d="M150.279 584.041c-2.01.78-4.534.263-6.745-.655-1.177-.489-2.209-1.556-3.197-2.47-1.04-.962-2.11-3.442-2.85-3.149 1.305 3.305 2.836 5.475 5.161 7.385 1.911 1.571 4.477 2.521 6.8 3.004 2.5.52 5.088.545 7.372-.175 2.69-.848 5.068-2.616 7.017-4.743 1.323-1.444 2.436-3.233 3.026-5.279.328-1.138.419-2.733.235-3.712-.802 2.4-1.561 4.459-3.252 5.965-1.274 1.134-3.042 1.879-4.747 1.911-1.916.036-3.372-.713-5.409-1.945-1.328 1.435-1.854 3.258-3.412 3.863z"/><path id="L" d="M143.366 590.268s5.122 1.645 7.778 1.768c3.147.145 6.459-.032 9.369-1.237 2.058-.852 3.712-2.507 5.303-4.066 1.078-1.056 2.828-3.536 2.828-3.536s5.816 3.198 9.016 3.889c3.168.684 6.507.58 9.723.177 3.092-.388 6.271-.999 9.016-2.475 2.207-1.187 5.657-4.95 5.657-4.95s4.365 4.689 7.248 5.834c2.802 1.112 6.005.849 9.016.707 2.748-.129 5.51-.579 8.132-1.414 2.612-.832 7.425-3.536 7.425-3.536s2.746 3.768 4.596 5.127c1.722 1.264 3.79 2.029 5.834 2.652 2.057.627 4.222 1.253 6.364 1.061 2.618-.235 7.425-2.659 7.425-2.659l-5.055 7.571s-15.231-2.63-22.918-3.351c-6.453-.606-12.945-.739-19.426-.816-6.978-.083-13.967-.042-20.934.38-5.822.353-11.621 1.052-17.406 1.798-4.353.561-8.743.996-13.014 2.012-3.914.932-11.481 3.727-11.481 3.727z"/><path id="M" d="M148.194 600.152c-2.027 10.373-3.987 20.814-7.316 30.866-3.225 9.211-8.013 17.76-12.767 26.242-1.791 2.708-5.233 5.067-8.594 4.153-2.219-.633-2.304-2.986-1.615-4.816"/><path id="N" d="M153.425 598.844c-1.812 16.315-5.678 32.556-12.232 47.572-3.685 8.442-9.65 18.966-18.836 21.31-3.921 1.001-9.512-.56-11.416-4.131-2.142-4.017-.576-10.863 3.299-13.253 3.656-2.256 9.575-.246 12.574 2.83 1.07 1.098.766 2.987.895 4.513"/><path id="O" d="M159.309 596.447c-1.407 10.12-2.653 20.645-5.647 30.563-3.479 11.522-7.194 23.406-14.183 33.204-3.218 4.511-6.926 9.92-12.328 11.151-2.691.613-6.283.395-7.94-2.346"/><path id="P" d="M164.975 596.222c-1.227 10.563-2.846 21.031-5.687 31.221-2.401 8.613-5.41 17.14-9.54 25.071-3.544 6.808-7.078 13.254-12.934 19.05-1.488 1.472-5.045 1.284-7.581-.27"/><path id="Q" d="M170.309 595.109c-.962 10.591-2.317 21.096-4.901 31.354-2.184 8.671-4.993 17.263-8.907 25.303-3.201 6.575-6.09 12.556-11.798 18.497-1.45 1.509-4.139 2.718-6.713 1.229"/><path id="R" d="M176.235 594.002c-1.039 10.568-2.306 19.364-4.496 28.845-1.972 8.536-4.425 17.155-7.753 25.112-2.722 6.507-5.179 12.427-9.883 18.249-1.195 1.479-3.371 2.632-5.385 1.09"/><path id="S" d="M181.34 593.403c-.624 10.012-1.521 18.359-3.261 27.383-1.567 8.124-3.582 16.344-6.441 23.967-2.338 6.234-4.446 11.905-8.667 17.559-1.072 1.436-3.075 2.598-5.016 1.209"/><path id="T" d="M186.91 593.33c-.578 9.642-1.407 17.68-3.018 26.371-1.45 7.824-3.315 15.74-5.961 23.081-2.163 6.004-4.115 11.465-8.021 16.91-.992 1.383-2.846 2.502-4.642 1.165"/><path id="U" d="M169.251 661.183c.739.684 1.755 1.403 2.759 1.272 1.636-.213 2.802-1.853 3.813-3.157 1.505-1.94 2.161-4.412 3.137-6.664l2.8-7.051"/><path id="V" d="M184.258 650.574c-1.678 3.785-3.116 7.704-5.223 11.268-1.005 1.7-1.759 3.857-3.509 4.774-2.407 1.261-5.896 1.751-8.149.23-1.672-1.129-2.046-3.641-2.105-5.675"/><path id="W" d="M229.592 675.302c1.261 3.657 1.118 8.152 3.757 10.982 2.339 2.508 6.092 4.544 9.477 4 3.452-.555 6.851-3.565 7.899-6.901 1.851-5.89-2.303-12.703-4.469-17.974"/><path id="X" d="M192.946 659.848c-1.896 3.218-6.078 7.44-4.855 11.378.551 1.775 2.88 3.321 4.708 2.986 2.182-.4 2.91-3.388 3.988-5.326.779-1.4 1.17-2.983 1.751-4.475"/><path id="Y" d="M189.706 657.332c-2.732 4.74-5.516 9.369-6.307 14.264-.44 2.725 1.891 5.854 4.392 7.021 2.75 1.283 6.968.981 9.015-1.259 2.165-2.369 3.239-5.125 4.563-7.829.458-.936 1.142-2.911 1.142-2.911"/><path id="Z" d="M209.282 670.739c-2.061 3.741-4.967 8.014-4.106 12.226.592 2.898 3.06 5.797 5.898 6.628 2.136.626 5.076-.037 6.429-1.803 2.917-3.808 4.452-8.109 5.761-11.753"/><path id="a" d="M212.225 672.947c-1.13 2.543-3.925 7.284-2.224 10.391.689 1.258 2.689 2.017 4.029 1.507 3.209-1.219 3.999-6.838 4.818-9.102"/><path id="b" d="M252.551 597.005c-.306 16.745.515 33.644-1.725 50.218-.984 7.279-2.85 15.13-7.701 20.645-3.441 3.912-8.549 6.547-13.827 7.286"/><path id="c" d="M253.226 623.155c3.043 5.316 5.73 11.081 6.503 17.144.72 5.647-.42 10.95-1.856 16.978"/><path id="d" d="M252.5 631.867c3.33 3.877 3.071 7.558 3.336 11.559.173 2.607-.796 5.663-1.158 7.752"/><path id="e" d="M251.919 646.678c2.724 5.805 7.004 11.293 7.597 17.679.338 3.64-.036 7.914-2.401 10.702-1.378 1.625-3.799 2.026-5.923 2.4"/><path id="f" d="M250.903 653.212c2.598 4.953 6.319 10.941 4.408 16.202-.793 2.182-2.919 4.271-5.715 3.981"/><path id="g" d="M248.725 658.293c2.551 3.837 4.277 7.078 2.728 10.26-.502 1.032-2.356 1.197-3.164 1.356"/><path id="h" d="M243.643 669.183c1.648 4.321 5.072 9.76 2.6 13.694-1.463 2.329-5.471 3.276-7.973 2.132-3.426-1.566-3.982-6.515-4.937-10.164"/><path id="i" d="M236.964 673.394c.687 3.66 1.562 8.718 4.556 8.019 2.119-.495.755-4.375.375-6.518-.233-1.316-1.245-2.892-1.592-3.679"/><path id="j" d="M289.731 681.143c-7.623 7.176-9.929 8.735-14.2 13.753-5.74 6.743-10.694 14.164-15.198 21.788-3.84 6.499-8.559 17.602-10.017 20.309"/><path id="k" d="M296.488 696.962c-5.368 5.187-10.959 11.335-15.689 17.618-3.477 4.618-6.586 9.538-9.258 14.664-2.536 4.865-4.623 9.976-6.377 15.174"/><path id="l" d="M293.417 763.987c.434-1.891 1.334-3.679 2.388-5.308.772-1.192 1.574-2.522 2.831-3.184 1.446-.763 3.238-.459 4.865-.619 2.53-.249 5.144-1.159 7.607-.531.848.216 1.366 1.19 2.211 1.415 1.769.471 3.707-.7 5.484-.265.796.195 1.663.56 2.123 1.238.335.494.265 1.769.265 1.769s2.641-.705 3.715-.088c.847.486 1.268 1.6 1.415 2.565.199 1.309-.278 2.673-.796 3.892-.448 1.054-1.131 2.027-1.946 2.831-.379.373-1.327.885-1.327.885s2.706-1.356 3.981-.885c.83.307 1.42 1.255 1.592 2.123.183.926-.381 1.856-.708 2.742-.465 1.262-.818 2.675-1.769 3.627-.998.998-3.804 1.858-3.804 1.858s2.717-.916 3.892-.354c.767.367 1.252 1.288 1.415 2.123.225 1.152-.151 2.416-.708 3.45-.415.771-1.098 1.422-1.858 1.858-.608.348-2.035.531-2.035.531s2.661.814 2.831 1.946c.19 1.266-1.255 2.412-2.388 3.008-2.329 1.223-5.315-.081-7.873.531-1.465.35-2.694 1.412-4.158 1.769-2.241.547-4.652 1.051-6.9.531-1.7-.393-3.26-1.438-4.511-2.654-1.473-1.431-2.376-3.372-3.273-5.219-.917-1.888-1.69-3.873-2.123-5.927-.592-2.806-.548-5.714-.619-8.58l.089-3.981c.026-1.032-.143-2.09.088-3.096z"/><path id="m" d="M320.662 759.21c-1.541 2.24-3.975 4.116-6.814 4.06-1.92.375-3.857-.729-5.67-.244-1.253.81-2.4 1.64-3.749 2.144-1.225.458-2.505.82-3.847.763"/><path id="n" d="M322.078 768.852c-3.158 1.831-7.731 3.607-11.404 3.968-1.605.021-3.804.114-4.587-1.617-.685-1.367-.138-3.151 1.272-3.81 2.374-1.378 6.824-3.732 9.412-4.645"/><path id="o" d="M321.724 777.875c-4.034.764-9.33 2.15-13.443 1.511-1.413-.479-3.342-.948-3.806-2.572-.112-1.572 1.313-2.875 2.641-3.453.522-.151 3.364-.311 3.905-.351"/><path id="p" d="M311.993 755.938c.409 1.334 1.048 3.118 2.724 3.116 1.984.11 3.864-.613 5.591-1.524"/><path id="q" d="M309.163 779.644c-1.349.518-4.095 1.517-2.979 3.374 1.723 2.189 4.724 2.415 7.286 2.713 2.47.067 4.932-.494 7.402-.129l1.648.146"/><path id="r" d="M310.5 603.362s2.015 12.676 1.7 19.04c-.326 6.595-2.851 12.912-3.7 19.46-.746 5.753-1.717 11.58-1.22 17.36.563 6.547 3.731 12.644 4.72 19.14.83 5.447 1.324 10.999 1 16.5-.383 6.498-2.786 12.745-3.46 19.22-.632 6.063-1.28 12.229-.54 18.28.525 4.295 3.5 12.5 3.5 12.5"/><path id="s" d="M305.03 799.243c-.337 3.826 1.159 4.9 3.024 6.291 1.018.759 2.496.705 3.762.602.997-.081 2.031-.37 2.846-.948.616-.437 1.262-1.251 1.388-1.792"/><path id="t" d="M37.75 702.562c14.388 10.79 27.765 23.362 38.081 38.042 7.356 10.468 12.662 22.48 16.318 34.74 2.96 9.926 4.75 21.713 4.351 30.768l-26.25-12.25c-1.029-8.764-3.02-17.545-6.768-25.502-5.064-10.752-12.26-20.675-20.744-28.998-3.677-3.608-8.026-6.601-12.738-8.75v-22l7.75-6.05z"/><path id="u" d="M34.75 706.362c9.136 5.704 17.308 12.331 24.497 20.057 8.749 9.404 16.373 20.049 22.201 31.495 4.819 9.466 8.265 19.736 10.261 30.169.989 5.172 1.076 10.5.792 15.779"/><path id="v" d="M30.75 725.862c6.023 3.648 11.613 8.036 16.587 12.995 6.242 6.223 11.86 13.193 16.371 20.765 3.632 6.098 6.412 12.748 8.423 19.555 1.622 5.491 3.279 12.79 2.87 16.935"/><path id="w" d="M80.25 798.112l-.25-4.5 4 .25v3.5l4.25 1-1-9.25-7.5.75-2.25-8.5 3.25-1 1.5 4.5 4-1-2.5-8.25-7.5 2.5-4-8.5 4.25-1.5 1.75 3.75 4-1.25-3.5-8.75-7.5 3.75-4.25-8 3.75-2.75 2 4.25 4.25-2-4.75-7.75-7 4.25-5-6.75 3.75-2.75 1.75 2.75 3.25-2-4.75-7-7.25 5.75-5.5-6.5 3.5-3.5 3.25 3.75 2.5-2.5-6.25-7.25-6.5 6-6.25-6 3-3.75 4 4 2.25-3.5-6.75-6-6.5 6.5-6.822-5.25 3.572-3.5 3.25 2.5 3-2.75-7-4.75-3.25 3.5"/><path id="x" d="M85.383 678.479s-4.047 8.85-5.657 13.435c-1.643 4.682-3.268 9.422-4.066 14.319-.816 5.007-1.008 10.139-.707 15.203.234 3.936 1.014 7.836 1.945 11.667.862 3.549 1.853 7.102 3.359 10.43 2.037 4.502 4.774 8.675 7.601 12.728 2.949 4.226 6.049 8.407 9.723 12.021 2.933 2.885 6.29 5.335 9.723 7.601 3.874 2.557 12.198 6.718 12.198 6.718"/><path id="y" d="M102.177 703.935c-.855 8.231-1.42 16.797.621 24.816 1.372 5.393 4.313 10.376 7.61 14.858 2.173 2.954 5.048 5.345 7.856 7.703 0 0-3.08-16.339-5.736-24.188-2.714-8.018-10.351-23.188-10.351-23.188z"/><path id="z" d="M89.095 683.076s-3.412.027-4.596 1.061c-1.377 1.202-2.01 3.3-1.945 5.127.066 1.818 1.127 3.558 2.298 4.95 1.662 1.977 4.071 3.232 6.364 4.419 1.837.952 5.834 2.121 5.834 2.121"/><path id="AA" d="M94.929 715.603l-7.248-.354c-2.069-.169-4.298.154-6.187-.707-1.746-.796-3.374-2.178-4.243-3.889-.725-1.427-.865-3.208-.53-4.773.486-2.273 1.654-4.646 3.536-6.01 1.563-1.133 3.727-1.226 5.657-1.237 3.79-.023 11.137 2.298 11.137 2.298"/><path id="AB" d="M95.99 703.671s-5.788-1.859-8.662-1.328c-1.377.254-2.962.822-3.712 2.087-.697 1.175-.662 2.883-.177 4.175.607 1.619 2.026 2.959 3.536 3.606 2.572 1.102 8.309 0 8.309 0z"/><path id="AC" d="M97.183 729.65l-6.991 1.906c-2.017.481-4.032 1.469-6.096 1.25-1.907-.203-3.888-.987-5.251-2.311-1.137-1.105-1.83-2.718-2.005-4.277-.254-2.265.108-4.833 1.466-6.682 1.127-1.536 3.152-2.29 4.981-2.895 3.591-1.19 11.295-1.295 11.295-1.295"/><path id="AD" d="M95.339 718.973s-6.518-.073-9.319 1.342c-1.234.623-2.571 1.626-2.912 2.954-.317 1.233.217 2.702 1.055 3.673 1.051 1.216 2.79 1.94 4.413 2.035 2.765.163 7.887-2.562 7.887-2.562z"/><path id="AE" d="M102.982 743.336l-6.341 3.506c-1.846.945-3.57 2.381-5.626 2.657-1.901.255-4.011-.038-5.648-1.002-1.366-.804-2.421-2.207-2.96-3.681-.783-2.14-1.039-4.721-.158-6.839.732-1.759 2.52-2.971 4.154-3.992 3.207-2.006 10.667-3.932 10.667-3.932"/><path id="AF" d="M97.756 733.218s-5.564 1.5-7.654 3.338c-1.038.913-2.113 2.188-2.13 3.559-.016 1.273.85 2.574 1.895 3.319 1.309.933 3.17 1.224 4.769.933 2.724-.497 7.056-4.356 7.056-4.356z"/><path id="AG" d="M112.145 754.281l-5.07 5.177c-1.498 1.434-2.737 3.305-4.629 4.158-1.748.789-3.854 1.113-5.698.659-1.539-.379-2.952-1.421-3.891-2.679-1.363-1.826-2.348-4.225-2.111-6.507.197-1.895 1.563-3.568 2.835-5.015 2.498-2.841 9.092-6.824 9.092-6.824"/><path id="AH" d="M104.459 746.204s-5.124 3.2-6.664 5.662c-.738 1.179-1.397 2.702-1.021 4.02.349 1.225 1.552 2.223 2.767 2.637 1.521.518 3.388.264 4.836-.473 2.468-1.256 5.512-6.195 5.512-6.195z"/><path id="AI" d="M98.216 697.069c-2.095-.581-4.427-.96-6.078-2.376-1.783-1.528-3.469-3.743-3.538-6.09-.022-.753.458-1.515 1.019-2.018.491-.441 1.299-.77 1.852-.698l6.745 11.183z"/><path id="AJ" d="M111.633 754.495c-2.644 2.357-5.87 5.822-7.139 9.603-.785 2.341-.941 5.101-.059 7.408.731 1.912 2.269 3.618 4.134 4.54 1.88.929 4.332 1.301 6.32.605 2.16-.756 3.47-2.962 4.793-4.738"/><path id="AK" d="M115.134 755.99s-4.629 5.019-5.544 8.185c-.384 1.328-.638 3 .137 4.146.984 1.455 3.076 2.309 4.821 2.122 1.922-.206 3.698-2.13 4.693-3.408.342-3.76-.362-8.199-.362-8.199z"/><path id="AL" d="M223.073 609.916s-.118-2.697.264-3.965c.205-.68 1.057-1.85 1.057-1.85s-4.343 1.576-6.608 1.586c-2.351.01-4.55-1.219-6.872-1.586-2.795-.442-5.637-.962-8.458-.737-3.169.253-6.389.937-9.251 2.323-1.301.63-3.436 2.643-3.436 2.643s5.855-2.742 8.986-3.436c2.414-.535 4.935-.721 7.401-.529 2.344.183 4.529 1.393 6.872 1.586 2.815.232 5.694.056 8.458-.529.751-.159 2.159-.799 2.159-.799s-.679 1.696-.776 2.592.202 1.642.202 2.699z"/><path id="AM" d="M220.239 612.986s-1.592.549-2.374.375c-1.887-.419-3.003-2.55-4.807-3.245-1.484-.572-3.134-.622-4.724-.675-1.781-.059-3.609-.052-5.332.405-2.334.619-4.482 1.852-6.546 3.104-1.785 1.083-3.221 2.678-4.994 3.779-.684.425-2.16 1.08-2.16 1.08s3.847.365 5.736.067c3.071-.483 5.795-2.348 8.841-2.969 1.68-.343 3.414-.403 5.129-.405 1.634-.002 3.265.193 4.889.373.609.067 1.213.357 1.819.265 1.651-.249 4.522-2.155 4.522-2.155z"/><path id="AN" d="M196.389 618.283s3.185 3.043 5.197 3.779c1.44.528 3.056.364 4.589.337 2.308-.039 4.705.019 6.884-.742 1.308-.457 2.398-1.402 3.512-2.227.793-.587 2.245-1.927 2.245-1.927l-4.204-1.717c-1.436-.49-2.877-1.064-4.387-1.215-2.199-.219-4.47-.067-6.614.472-2.558.644-7.221 3.239-7.221 3.239z"/><path id="AO" d="M254.75 611.487s-1.715-1.279-2.75-3.25c-.941-1.793-2.953-2.989-4.875-3.625-1.582-.524-3.338-.128-5 0-1.892.146-3.729.961-5.625.875-1.03-.047-2.003-.489-3-.75l-1.375-.375 1 5.584-.375-4.959s2.452 1.023 3.75 1.25c1.683.294 3.416.156 5.125.125 2.045-.038 4.172-.984 6.125-.375 2.833.884 7 5.5 7 5.5z"/><path id="AP" d="M232.209 611.155c.013 2.148.039 4.879.436 7.276.433 2.611 1.543 5.07 2.106 7.656.486 2.23.655 4.519 1.095 6.759.198 1.01.665 1.98.694 3.009.03 1.059.063 2.262-.54 3.133-1.2 1.733-3.809 1.881-5.455 3.197-.732.585-1.314 1.335-1.92 2.053"/><path id="AQ" d="M219.375 634.112c-1.262-.463-2.455.801-3.106 1.806-.481.743-.512 1.787-.279 2.642.336 1.23 1.149 2.482 2.28 3.071 1.293.674 2.993.601 4.371.124 1.036-.359 1.567-1.575 2.527-2.105 1.214-.671 2.616-.939 3.957-1.288"/><path id="AR" d="M208.875 642.987s-2.754-.86-4.125-.625c-.698.12-1.439.442-1.875 1-.74.948-.989 2.303-.875 3.5.122 1.28.602 2.721 1.625 3.5 1.613 1.228 3.988 1.254 6 1 1.943-.245 3.615-1.516 5.375-2.375 1.189-.58 2.269-1.39 3.5-1.875 1.363-.537 2.785-1.107 4.25-1.125.899-.011 2.361-.235 2.625.625.199.648-.757 1.22-1.375 1.5-1.67.757-3.7-.225-5.5.125-1.968.382-3.706 1.547-5.625 2.125-1.8.542-3.629 1.43-5.5 1.25-1.541-.148-3.158-.777-4.25-1.875-.737-.741-1.178-1.832-1.25-2.875-.074-1.079.192-2.286.875-3.125.859-1.055 2.265-1.838 3.625-1.875.913-.025 2.5 1.125 2.5 1.125z"/><path id="AS" d="M243.875 641.612s2.307.921 3 1.875c.606.834.746 1.969.75 3 .005 1.415-.073 3.056-1 4.125-.588.678-1.604.943-2.5 1-1.331.085-2.626-.532-3.875-1-1.309-.49-2.47-1.314-3.75-1.875-1.184-.519-2.337-1.275-3.625-1.375-.807-.063-1.747 1.01-2.375.5-.259-.21-.16-.707 0-1 .332-.609 1.06-1.056 1.75-1.125 1.024-.102 1.937.701 2.875 1.125 1.324.599 2.575 1.35 3.875 2 1.367.684 2.608 1.817 4.125 2 1.185.143 2.657.095 3.5-.75.993-.995 1.009-2.726.875-4.125-.112-1.171-.57-2.392-1.375-3.25-.574-.611-2.25-1.125-2.25-1.125z"/><path id="AT" d="M215 655.612l4-1.125c1.248-.342 2.456-1.004 3.75-1 1.425.004 2.729.836 4.125 1.125 1.154.239 2.349.753 3.5.5.824-.181 1.291-1.251 2.125-1.375 1.2-.179 2.399.491 3.5 1 .682.315 1.875 1.25 1.875 1.25s-1.862-.943-2.875-1c-1.322-.075-2.557.745-3.875.875-1.659.164-3.342.054-5-.125-1.097-.118-2.16-.457-3.25-.625-1.078-.166-2.162-.456-3.25-.375-1.119.083-2.138.728-3.25.875-.454.06-1.375 0-1.375 0z"/><path id="AU" d="M222.25 659.987s2.264 1.165 3.5 1.375c1.11.189 2.28.138 3.375-.125 1.251-.301 3.5-1.625 3.5-1.625"/><path id="AV" d="M233.5 614.862s3.289-2.474 5.125-3.375c1.502-.737 3.081-1.51 4.75-1.625 1.524-.105 3.035.439 4.5.875 1.164.347 2.2 1.068 3.375 1.375.975.255 3 .375 3 .375"/><path id="AW" d="M252.831 616.897s-2.889 2.508-4.587 3.343c-1.206.593-2.533.996-3.87 1.132-2.001.205-4.102.194-6.016-.486-1.149-.408-2.116-1.312-3.103-2.094-.702-.557-1.993-1.842-1.993-1.842l3.635-1.871c1.243-.543 2.489-1.17 3.803-1.376 1.914-.301 3.897-.233 5.776.226 2.243.548 6.356 2.968 6.356 2.968z"/></defs></svg>