<svg xmlns="http://www.w3.org/2000/svg" xmlns:xlink="http://www.w3.org/1999/xlink" width="360" height="540" viewBox="0 0 95.25 142.875" xmlns:v="https://vecta.io/nano"><style><![CDATA[.B{stroke-linecap:round}.C{fill:#ff5}.D{stroke-linejoin:round}.E{fill:none}.F{fill:#55a}.G{stroke-width:.525}.H{fill:#f55}.I{stroke:#55a}.J{stroke:#000}.K{stroke-width:.544}]]></style><path d="M8.053.131h79.144c4.388 0 7.922 3.534 7.922 7.922v126.769c0 4.388-3.534 7.922-7.922 7.922H8.053c-4.387 0-7.922-3.534-7.922-7.922V8.053C.131 3.666 3.666.131 8.053.131z" fill="#fff" stroke-width=".262" class="J"/><path d="M68.85 79.987l-2.522.178-3.234-.628-3.563-1.397-3.103-1.753-2.391-1.987-4.406-5.494-2.344-3.281-2.203-1.941-4.284-3.15-3.694-1.978-4.547-1.35-3.553-.366-2.569-.047-2.925.863 2.962 5.203 2.522-.178 3.244.638 3.553 1.388 3.113 1.762 2.381 1.978 4.416 5.494 2.344 3.291 2.203 1.931 4.275 3.15 3.694 1.987 4.547 1.35 3.553.356 2.569.047 2.925-.853z" class="C"/><path d="M15.872 7.941h71.437v95.25" class="E G I"/><path d="M7.941 7.941v1.322h1.322v9.262c0 .722-.591 1.322-1.322 1.322s-1.322-.6-1.322-1.322v-1.331H5.287v1.331c0 1.453 1.191 2.644 2.653 2.644a2.65 2.65 0 0 0 2.644-2.644V7.941zm79.368 126.993v-1.322h-1.322v-9.263c0-.722.591-1.322 1.322-1.322s1.322.6 1.322 1.322v1.331h1.331v-1.331c0-1.453-1.191-2.644-2.653-2.644a2.65 2.65 0 0 0-2.644 2.644v10.584z"/><g class="C"><path d="M45 48.797l10.022 8.138-.075 16.594-1.022.703-1.8-1.8-2.737-3.675-2.269-3.206-1.022-1.097-1.247-1.022zm13.781 28.8l6.572-4.772.628 1.256-5.634 4.462z"/><path d="M53.925 74.081l9.553-6.263.544 1.247-8.925 5.878z"/></g><path d="M57.45 55.134l-.084 16.678 6.347-4.153-1.022-4.697-.703-4.537-.159-4.228.084-2.269z" class="H"/><path d="M54.947 74.944l9.075-6.028.938 2.428.553 1.481-6.731 4.856s-1.716-.563-2.428-1.097c-.581-.431-1.406-1.641-1.406-1.641zM39.159 44.381l15.675 12.506 7.078-4.5-.066-3.703.197-3.506.131-2.775-7.209 4.894-9.262-7.612-1.191-.591-.656-.6-1.059-.131-.6-.863-.788.206-.797-.994h-.797l-.656-.6z"/><path d="M36.516 34.791l-.066 23.55 1.584.591 1.322.731-.066-23.616-.862-.131-.853-.862-.534.206z"/><path d="M68.794 55.097l5.353-2.644 1.594 4.369 1.781 4.294c.478.928 1.012 1.828 1.65 2.653.628.797 2.119 2.175 2.119 2.175l-.066 20.775-3.703-4.894c-.947-1.509-1.669-3.159-2.447-4.762l-2.906-6.356c-.553-1.463-.938-2.981-1.331-4.491l-1.05-4.762-.534-3.506-.459-2.85z" class="D G H I"/><path d="M69.787 39.553l7.209 3.9-.731 2.719.263 2.644.797 1.781-2.119 1.594-3.637 1.584-2.709 1.125-.263-2.644v-3.178l.197-3.703.591-4.162z" class="C"/><path d="M59.925 78.516l6.019-4.5 1.594 3.441 1.322 2.709s-2.934.187-4.369-.066c-1.584-.281-4.566-1.584-4.566-1.584z" class="F"/><path d="M87.309 101.269l-4.462-3.872.066-74.016 4.397-.028z"/><path d="M25.397 39.319L25.444 57l-1.828.563-4.481-6.178-3.375-4.397-.75-1.116 4.444-3.141 3.281-2.006 2.662-1.406z" class="F"/><path d="M29.7 37.172l-.094 19.641-2.194-.047c-.759.038-2.25.234-2.25.234l.047-17.681 2.522-1.303 1.969-.844z"/><path d="M54.3 16.969c-1.866.028-3.741-.028-5.606.094l-4.631.506-3 .609-.469 3.272-.459 3.703-.422 2.756c-.131.544-.347 1.059-.516 1.594l-.703.094c-.234-.234-.384-.609-.703-.703-.422-.131-.919.019-1.313.234-.563.3-.966.853-1.303 1.397-.328.525-.591 1.116-.656 1.734a2.4 2.4 0 0 0 .187 1.172c.122.272.291.572.562.703.263.122.591 0 .891 0 .15.216.253.478.459.647.319.263.75.347 1.125.516.206.234.328.572.609.703.244.113.534 0 .797 0 .234.216.403.534.703.656.244.094.525 0 .788 0 .272.309.422.769.797.937.272.113.591-.037.891-.047.234.281.375.684.703.844.272.122.591 0 .891 0 .291.244.553.544.881.741.384.234.797.412 1.219.516.441.103.909.178 1.359.094.488-.084.956-.319 1.359-.609.441-.319.816-.75 1.116-1.209.422-.628.703-1.341.938-2.062.422-1.303.553-2.672.797-4.022l.844-5.287.975-5.231.891-4.35z" class="C"/><g class="D G I"><path d="M34.922 7.941l5.297 10.584 4.069-.937c2.156-.347 4.331-.581 6.516-.656 2.644-.084 5.297.037 7.931.263 3.113.281 9.262 1.331 9.262 1.331l6.084-10.584z" class="H"/><path d="M38.85 8.325l4.012 7.819c1.716-.6 3.019-.619 5.213-.862l-1.031-6.956h-1.519l1.35 6.019c-1.256.084-2.25.075-3.337.506l-2.944-6.525zm10.547 0l.806 6.694c2.663-.244 4.8-.394 7.463-.122l1.453-6.572h-1.706l-.806 5.241c-2.091-.122-3.328.009-5.081.131l-.591-5.372zm12.319 0l-1.941 6.628 6.9.919 3.628-7.547h-1.678l-2.747 6.225c-1.181-.319-3.178-.459-4.359-.628l1.65-5.597z" class="F"/><g class="E"><g class="B"><path d="M54.244 17.194l-1.331 6.619-1.322 7.941c-.366 1.781-.422 3.703-1.322 5.287-.609 1.088-1.434 2.325-2.644 2.644-1.172.309-2.7-.047-3.506-.947-.675-.759-.816-2.063-.459-3.019.375-1.041 1.397-2.203 2.503-2.166 1.153.037 2.428 1.294 2.447 2.438.009 1.031-1.106 2.184-2.137 2.25-.638.047-1.406-.563-1.491-1.2-.103-.741.572-1.809 1.322-1.8.45 0 1.059.525.778 1.097m5.615-19.36c-.778 2.372-.975 4.781-1.387 7.191l-1.097 7.191c-.45 1.875-.956 3.872-1.8 5.494m2.512-19.876c-.591 2.063-.769 4.247-1.097 6.375l-.834 6.262c-.291 1.5-.506 3-1.144 4.416m1.5-16.95c-.525 1.969-.684 4.059-.975 6.094l-.741 5.991c-.262 1.425-.45 2.869-1.022 4.219m1.2-16.135c-.478 1.875-.619 3.853-.881 5.794l-.666 5.681c-.234 1.359-.403 2.728-.919 4.003m.957-15.337c-.469 1.781-.619 3.666-.872 5.503l-.675 5.409c-.234 1.294-.403 2.588-.919 3.806m.779-14.484c-.459 1.669-.562 3.328-.806 4.988l-.656 5.034c-.225 1.2-.384 2.409-.891 3.544m.721-13.322c-.441 1.519-.572 3.122-.806 4.688l-.609 4.603c-.216 1.097-.375 2.203-.844 3.244"/><path d="M41.137 18.384c-.375 1.359-.487 2.7-.684 4.059l-.525 4.125c-.178.984-.309 1.978-.712 2.906m7.2 4.182c-.431-.291-.816-.816-1.331-.834-.853-.028-1.697.544-2.25 1.181-.591.684-.947 1.659-.881 2.559.037.647.356 1.341.872 1.734.253.188.534.141.947.178"/><path d="M44.7 32.803c-.356-.394-.628-.703-1.05-.731-.853-.047-1.697.544-2.25 1.191-.591.675-.947 1.65-.881 2.55.037.647.319 1.397.872 1.734.262.159.497.187.919-.019m1.096-5.512c-.431-.291-.816-.816-1.331-.834-.853-.028-1.697.544-2.25 1.191-.591.675-.947 1.65-.881 2.55.037.647.319 1.387.872 1.734.234.15.431.159.844.019m.965-5.551c-.328-.469-.656-.703-1.097-.731-.844-.038-1.697.544-2.25 1.191-.581.675-.938 1.65-.881 2.55.047.647.347 1.359.872 1.734.244.169.431.225.891.122m.956-5.757c-.159-.394-.591-.666-.994-.694-.844-.056-1.697.544-2.241 1.181-.591.684-.947 1.659-.891 2.559.047.647.347 1.35.881 1.725.197.15.309.066.722.103m.948-5.558a.87.87 0 0 0-.816-.656c-.844-.084-1.697.534-2.25 1.181-.591.684-.909 1.65-.881 2.55.009.478.169 1.012.525 1.322.281.253.675.263 1.088.291m31.734-15.591l-.666 8.053-.534 4.387c-.347 1.922-.431 3.966-1.322 5.7-.544 1.05-1.416 1.931-2.344 2.644-.853.656-1.837 1.191-2.888 1.444a7.69 7.69 0 0 1-3.366.066c-1.097-.234-2.072-.853-3.056-1.387-1.237-.666-2.362-1.519-3.544-2.278"/></g><path d="M53.7 22.191c1.041-.3 2.053-.731 3.122-.9.694-.103 1.434-.244 2.109-.056.337.094.947.366.9.572-.028.103-.197.084-.3.084-.394.009-.75-.244-1.144-.3-.572-.075-1.163-.056-1.744 0-.994.103-1.959.403-2.944.6z"/><path d="M59.531 24.384c.122-.131.459-.244.356-.384-.122-.197-.872-.675-1.378-.872-.478-.188-1.003-.263-1.528-.272-.544-.019-1.097.066-1.631.206-.366.103-.656.263-1.069.441" class="B"/><path d="M53.128 24.722c.881-.225 1.744-.562 2.644-.666.638-.075 1.294-.094 1.922.028.516.103 1.022.3 1.453.581.281.197.497.469.713.741-.431.187-.834.459-1.294.572-.722.188-1.481.263-2.222.178-.628-.066-1.228-.309-1.8-.572-.506-.225-.938-.581-1.416-.862z"/><path d="M55.35 24.328c.028.309-.084.656.066.928.178.328.544.544.9.666.272.084.6.094.872 0a1.32 1.32 0 0 0 .628-.544c.197-.328.159-.741.244-1.116" class="B"/></g><g class="F"><path d="M56.353 24.544c-.084.094-.047.272.019.375.075.122.216.216.347.216.141.009.281-.084.347-.197.084-.122.131-.328.028-.431a.61.61 0 0 0-.741.038z"/><path d="M55.266 27.478c.628-.122 1.509-.263 2.222-.534.628-.244 1.228-.713 1.772-.966" class="B"/></g><path d="M62.747 22.884c-.159.394-.403.759-.488 1.172-.15.844-.037 1.725.066 2.588.122 1.05.506 2.072.684 3.122.113.6.384 1.228.244 1.828-.066.3-.291.544-.506.75-.272.253-.647.384-.966.572m-2.55-3.479c-.412.45-1.012.778-1.237 1.35-.103.272-.122.6 0 .872.15.309.45.581.787.656.272.066.563-.084.806-.206.319-.169.497-.544.816-.694.225-.113.506-.244.75-.15.075.028.169.131.15.206-.084.272-.525.206-.778.3l-1.022.366" class="E B"/><path d="M57.234 35.044c.422-.216 1.022-.169 1.528-.159.525.009 1.031.253 1.547.234.591-.028 1.134-.422 1.734-.422.431-.009.928.187 1.266.281-.019.15-.066.347 0 .459-.431-.159-1.05-.394-1.584-.328-.506.066-.872.647-1.388.656-.591.019-1.05-.656-1.65-.684-.572-.019-1.172.431-1.622.534.122-.169.178-.45.169-.572z" class="F"/><path d="M58.275 36.881c.422.178.816.45 1.266.534a2.68 2.68 0 0 0 1.022-.009c.225-.037.431-.15.647-.234l.581-.272m-.469 1.303c-.309-.131-.6-.244-.909-.244-.263 0-.506.103-.75.216" class="B E"/><path d="M63.047 22.106c.413-.488 1.322-.609 2.034-.666.525-.037 1.041.103 1.547.253.356.103.703.3 1.041.459-.572-.112-1.163-.319-1.753-.337-.516-.009-1.031.094-1.537.206-.356.084-.684.253-1.003.422-.131.075-.431-.216-.328-.338z" class="F"/><g class="E"><path d="M62.897 23.906c.413-.206.788-.488 1.228-.6.619-.178 1.294-.263 1.922-.15.422.075.778.356 1.172.525" class="B"/><path d="M62.625 24.778c.45-.178 1.003-.319 1.509-.384.591-.075 1.2-.094 1.791-.019.347.047.713.113 1.022.291.187.113.309.319.469.478l-.094.722c-.309.112-.619.272-.947.328-.441.084-.909.084-1.359.056-.488-.028-.984-.056-1.444-.234-.347-.141-.656-.375-.947-.619-.094-.084-.169-.178-.253-.272.084-.113.122-.291.253-.347z"/><path d="M63.787 24.581c.019.309-.084.656.066.928.178.328.544.553.9.666.272.094.6.103.872 0 .253-.094.488-.3.628-.544.197-.319.159-.741.244-1.106" class="B"/></g><path d="M64.706 24.806c-.084.094-.047.262.019.375.075.113.216.206.347.216a.42.42 0 0 0 .347-.197c.084-.122.131-.337.028-.441-.178-.159-.572-.131-.741.047z" class="F"/><path d="M62.841 26.212c.337.366.609.797 1.003 1.106.319.244.703.375 1.059.562" class="B E"/><g class="C"><path d="M67.088 28.734c.178.769.366 1.284.694 1.856.337.562.722 1.125 1.266 1.491.431.281.956.506 1.472.459.469-.037.966-.263 1.256-.638s.337-.919.309-1.397c-.028-.431-.15-.9-.441-1.228a1.58 1.58 0 0 0-1.022-.544c-.272-.028-.581.019-.778.206-.15.141-.206.384-.206.591.009.225-.019.459.263.619-.206-.084-.347-.347-.497-.544a5.2 5.2 0 0 1-.506-.928c-.169-.366-.281-.759-.394-1.153l-.356-1.622-.544-2.55-.516 5.381zm-.722 5.288c.169.769.684 2.269 1.284 3.272.337.562.741 1.106 1.266 1.491.422.309.919.656 1.444.619.497-.038.994-.384 1.284-.797.272-.384.337-.919.309-1.388-.028-.441-.15-.909-.441-1.237a1.66 1.66 0 0 0-1.031-.544c-.263-.028-.572.028-.769.206-.15.141-.216.384-.206.591.019.216.009.412.281.572-.206-.084-.366-.3-.516-.488-.216-.281-.366-.609-.516-.928-.159-.375-.262-.778-.384-1.162l-.413-1.387-.928-3.244-.666 4.425z"/><path d="M65.775 36.094l.412 1.116c.197.403.694 1.153.694 1.153l1.294.544c.413.15 1.256.384 1.256.384s-.975-.759-1.359-1.238c-.337-.412-.572-.9-.806-1.387-.216-.469-.366-.975-.534-1.472l-.413-1.341-.262 1.322c-.075.309-.281.919-.281.919z"/><path d="M66.881 38.363l-1.8-1.031.694-1.256zm-18.619 1.115l6.591 5.475 7.425-4.884-.178 2.372-7.153 4.922-9.291-7.669c.75.253 1.744.216 2.606-.216z"/></g><g class="B E"><path d="M29.7 41.944l2.475 2.803-2.428 2.569"/><path d="M29.794 43.641l.891 1.031-.891.928"/></g><path d="M33.206 38.766l-2.475 2.569 2.381 2.616 2.409-2.616zm-.047 1.106l1.416 1.322-1.416 1.556-1.369-1.369z" class="F"/><path d="M87.309 13.762l-10.05 9.525h10.05z" class="C"/><path d="M87.309 15.872l-6.084 5.822h6.084z" class="H"/><g class="B E"><path d="M29.55 48.713l2.475 2.812-2.428 2.569"/><path d="M29.644 50.419l.891 1.022-.891.938m6.647-10.145l-2.428 2.606 2.428 2.569m-.047-3.675l-.891 1.031.891.928m-.141 8.194l-2.278-2.456 2.428-2.569m-.047 3.675l-.881-1.022.881-.937"/></g><path d="M32.944 45.581l-2.475 2.569 2.381 2.616 2.512-2.662zm-.047 1.106l1.416 1.322-1.416 1.556-1.369-1.369zm.15 5.607l-2.466 2.569 2.381 2.494 2.559-2.438zM33.01 53.4l1.416 1.322-1.416 1.556-1.378-1.359z" class="F"/><g class="B E"><path d="M36.347 40.294l-2.222-2.4 2.072-2.222"/><path d="M36.309 38.897l-.891-.928.731-.881M29.803 40.8l2.634-2.756-1.519-1.603"/><path d="M29.897 39.103l.891-1.031-.891-.938"/></g><path d="M29.569 55.641l1.022 1.219m5.784-1.276L34.5 57.516m-4.828-20.269l-.15 19.547m6.909-21.938l-.056 23.391" class="H B"/><path d="M32.062 36.028l1.162 1.162 2.241-2.231-.356-.609z" class="F"/><path d="M81.225 23.287v18.778l1.594.534V23.287zm1.594 74.082V43.922h-1.594v53.972l6.084 5.297v-1.856z" class="C"/></g><use xlink:href="#B" class="C"/><use xlink:href="#B" y="3.704" class="C"/><path d="M85.856 25.669c-.309 0-.656.347-.656.656s.347.666.656.666.666-.356.666-.666-.356-.656-.666-.656zm-1.584 0c-.309 0-.666.347-.666.656s.356.666.666.666.656-.356.656-.666-.347-.656-.656-.656zm.834 11.044c-.319 0-.666.347-.666.666 0 .309.347.656.666.656.309 0 .656-.347.656-.656 0-.319-.347-.666-.656-.666z" class="C"/><use xlink:href="#C" class="C"/><path d="M85.894 38.569c-.309 0-.656.347-.656.656 0 .319.347.666.656.666.319 0 .666-.347.666-.666 0-.309-.347-.656-.666-.656zm-1.585 0c-.309 0-.666.347-.666.656 0 .319.356.666.666.666s.666-.347.666-.666c0-.309-.356-.656-.666-.656z" class="C"/><use xlink:href="#D" class="C"/><use xlink:href="#D" y="3.703" class="C"/><path d="M85.847 51.469c-.309 0-.666.356-.666.666s.356.656.666.656.656-.347.656-.656-.347-.666-.656-.666z" class="C"/><use xlink:href="#C" x="-0.844" y="11.053" class="C"/><use xlink:href="#E" class="C"/><path d="M85.003 66.431c-.309 0-.666.347-.666.666 0 .309.356.656.666.656s.656-.347.656-.656c0-.319-.347-.666-.656-.666zm.788-1.856c-.309 0-.656.356-.656.666s.347.666.656.666c.319 0 .666-.356.666-.666s-.347-.666-.666-.666zm-1.585 0c-.309 0-.656.356-.656.666s.347.666.656.666.666-.356.666-.666a.76.76 0 0 0-.666-.666zm.797 10.959c-.309 0-.666.347-.666.656s.356.666.666.666.656-.356.656-.666-.347-.656-.656-.656z" class="C"/><use xlink:href="#E" y="16.509" class="C"/><use xlink:href="#B" x="0.732" y="53.569" class="C"/><path d="M84.206 77.381c-.309 0-.656.347-.656.666 0 .309.347.656.656.656s.666-.347.666-.656c0-.319-.356-.666-.666-.666z" class="C"/><use xlink:href="#F" class="C"/><use xlink:href="#F" y="3.704" class="C"/><path d="M85.641 90.234c-.309 0-.656.356-.656.666s.347.656.656.656.666-.347.666-.656-.356-.666-.666-.666zm-1.585 0c-.309 0-.666.356-.666.666s.356.656.666.656.656-.347.656-.656-.347-.666-.656-.666zM83.344 33.6v-1.322l3.441-3.178v1.331zm0 2.119v-1.322l3.441-3.178v1.322zm0 11.109v-1.322l3.441-3.169v1.322zm0 2.119v-1.322l3.441-3.178v1.322zm0 11.109v-1.322l3.441-3.169v1.322zm0 2.119v-1.322l3.441-3.178v1.331zm0 10.584v-1.322l3.441-3.178v1.322zm0 2.119v-1.322l3.441-3.178V71.7zm0 10.322v-1.331l3.441-3.169v1.322zm0 2.109v-1.322l3.441-3.169v1.322zm.037 10.125l-.037-.328 3.441-3.178v1.322l-2.644 2.616zm1.744 1.388l-.628-.525 2.288-2.25v1.322z" class="C"/><g class="I D"><g class="G"><path d="M65.484 45.234l-2.475 2.578 2.381 2.616 2.559-2.569zm-.047 1.116l1.416 1.322-1.416 1.547-1.369-1.359zm1.032-8.391L63.684 40.2l2.034 2.897 2.859-2.222zm-.178 1.097l1.228 1.491-1.603 1.359-1.181-1.528zm-.9 13.022l-2.184 2.625 2.653 2.175 2.213-2.625zm.075 1.031l1.547 1.078-1.237 1.575-1.509-1.125zm.571 5.157l-2.072 2.906 2.738 2.25 2.166-2.916zm.122 1.106l1.594 1.097-1.172 1.744-1.556-1.144zm.985 5.719l-1.594 3.188 3.047 1.8 1.687-3.216zm.291 1.069l1.744.844-.891 1.903-1.716-.891zm1.631 5.652l-1.294 3.328 3.206 1.5 1.378-3.356zm.394 1.041l1.809.675-.703 1.978-1.791-.722zm2.446 5.747l-.638 3.506 3.431.872.712-3.553zm.581.947l1.913.319-.328 2.072-1.894-.375zm2.982 5.325l-.337 3.553 3.497.572.403-3.609zm.656.9l1.931.15-.141 2.1-1.922-.216z" class="F"/><g class="B E"><path d="M69.122 42.009l-2.7 2.166 2.137 2.644m.357-3.432l-.994.872.778.956m.75-5.662l-.525 4.894-.469 6.816c.028 1.997.281 3.975.534 5.953l1.059 6.281c.525 2.306 1.191 4.584 1.978 6.816.722 2.006 1.575 3.975 2.522 5.888 1.012 2.063 2.137 4.078 3.366 6.019.938 1.481 3.047 4.303 3.047 4.303m-18.778-39.92l2.812-3-2.512-3.019"/><path d="M62.297 44.878l1.2-1.256-1.106-1.369m6.009 6.581l-2.259 2.175 2.091 2.297m.084-3.187l-.834.862.769.834m-6.32 2.701l2.709-3.094-2.606-2.934m-.047 4.303l1.153-1.303-1.153-1.322m.676 11.043l2.372-3.356-2.887-2.653m.393 4.284l1.012-1.406-1.284-1.209m1.65 11.044l1.969-3.609-3.187-2.297m.899 4.209l.844-1.519-1.416-1.05m3.647 11.166l1.406-3.872-3.487-1.791m1.509 4.031l.609-1.631-1.556-.825m4.838 11.091l.937-4.012-3.684-1.359m1.987 3.814l.403-1.687-1.641-.628"/></g></g><path d="M73.903 88.2l.534-4.078-3.497-1.031m2.129 3.628l.244-1.716-1.566-.488m6.89 9.863l-.197-4.247-3.619-.394m2.738 3.15l-.066-1.716-1.622-.197" class="K B E"/><g class="G"><path d="M68.991 80.362l3.178 5.297 4.491 6.544c1.369 1.781 2.916 3.403 4.369 5.1" class="B E"/><path d="M79.575 95.316l1.519.197" class="B E"/><path d="M81.028 94.453l-1.453-.328.131-3.834 1.322.328z" class="F"/><g class="B E"><path d="M79.969 85.528l-.262 3.441 1.322.328m-12.32-34.313l-1.978 2.456 2.372 2.006m-.319-3.168l-.722.966.863.731m.394 3.525L67.8 64.247l2.672 1.575m-.853-3.066l-.544 1.069.975.572m.994 3.544L69.76 70.81l2.794 1.35m-1.107-2.982l-.45 1.106 1.022.488m1.19 3.637l-.769 3.047 2.991.844m-1.612-2.747l-.253 1.172 1.097.3m1.715 3.478l-.413 3.122 3.066.488"/><path d="M77.119 81.572l-.113 1.191 1.116.178"/></g><path d="M74.344 52.519l2.522 6.947c.619 1.425 1.219 2.887 2.109 4.162.591.844 1.416 1.5 2.119 2.25l-.066-3.703-1.191.262.666-1.65-1.528-.066.928-1.125-1.387-.131.862-1.191-1.528-.066 1.059-1.322-1.716-.131.994-1.322-1.528-.141.928-1.256-1.322-.197.862-1.453-1.856-.066z" class="F"/><g fill="#fff"><path d="M77.259 43.453c.619-.666 1.641-.834 2.512-1.106.469-.141.966-.291 1.453-.262.553.028 1.134.141 1.594.459.244.178.506.431.525.731.019.225-.159.45-.328.591-.159.131-.394.15-.6.197-.328.094-.694.038-.994.197-.272.15-.525.384-.638.675-.141.328-.094.731-.028 1.087.075.403.291.825.469 1.134l-.066 3.778c-.75.084-1.537.328-2.316.263-.459-.037-.975-.094-1.322-.394-.628-.562-.797-1.5-.994-2.316-.187-.844-.253-1.734-.131-2.578.122-.862.272-1.819.863-2.456z"/><path d="M68.991 54.9l3.178-1.387 2.644-1.388 2.447-1.387m-7.876-11.251l4.303 2.053 3.375 1.781" class="B"/><path d="M75.806 42.731s-.609 1.912-.731 2.906c-.122 1.012-.159 2.044 0 3.047.15.891.862 2.578.862 2.578l-3.375 1.922 1.453-2.381-1.584-1.594 1.716-1.913-1.584-2.184 1.387-1.125-.862-2.644z"/></g><path d="M69.853 40.022l1.978 3.234-1.716 1.659 1.65 2.25-1.716 2.109 1.519 1.528-1.847 3.572m-.271-12.637l.666 1.059-.994.797m-.197 2.645l.797.994-.862 1.125m-.132 1.715l.853 1.191-.853 1.322" class="B E"/><path d="M70.575 56.55l2.981-1.453 1.453 4.5c.469 1.256.919 2.541 1.584 3.703.778 1.341 2.784 3.703 2.784 3.703v13.828l-3.703-6.347c-1.125-2.269-2.128-4.612-2.916-7.013-.656-2.006-1.125-4.078-1.519-6.159-.3-1.566-.666-4.762-.666-4.762zm-.544-41.597s.178 1.931.609 2.775c.422.816 1.106 1.519 1.856 2.053a5.64 5.64 0 0 0 2.184.919c.647.131 1.322.066 1.978 0 .45-.037 1.322-.263 1.322-.263s-.844-.272-1.116-.591c-.591-.675-.675-1.659-.928-2.512s-.309-1.753-.6-2.588c-.291-.844-.553-1.753-1.125-2.447a2.93 2.93 0 0 0-1.191-.853c-.272-.113-.872-.141-.872-.141z" class="C"/><g class="B E"><path d="M71.306 13.087c.319 1.05.591 2.063 1.125 2.981.45.797 1.087 1.463 1.716 2.119.412.431.881.797 1.322 1.191"/><path d="M73.584 13.922c-.469.253-1.509.028-2.025-.075-.356.703-.647 1.247-.619 1.903m3.066-.628c-.469.253-1.35.178-1.866.075-.356.703-.647 1.387-.619 2.044m3.085-.488c-.478.253-1.153.066-1.669-.038-.356.703-.281 1.341-.253 1.997m2.607-.768c-.469.263-.769.019-1.284-.084-.356.703-.169.975-.141 1.631m-2.429-6.694c.469.075.938.113 1.406-.094"/></g></g></g><path d="M39.666 37.462c-.225.084-.516.234-.544.478-.028.234.234.441.431.572.112.075.272.066.403.112.141.047.328.066.422.197s.028.328.066.488c.112.394.159.862.459 1.134.262.253.666.3 1.022.337.309.028.619-.075.919-.113.244-.028.478-.103.722-.084.122.019.253.028.347.103.084.075.113.197.131.3.056.225.019.459.028.694.009.3-.047.609.028.891.094.338.234.703.506.919.291.234.694.291 1.059.309.309.009.609-.113.919-.169.234-.047.459-.141.703-.131.103 0 .225 0 .3.075.047.038.047.122.056.178.019.197-.038.384-.056.581-.019.263-.113.534-.066.797.047.319.141.675.366.909.253.253.647.366 1.003.431.309.047.628-.066.938-.075.384 0 .853-.197 1.153.047.234.187.15.572.206.863.056.272.028.553.131.797.131.3.3.619.572.787.225.141.525.159.788.141.197-.009.384-.122.581-.178.159-.047.337-.206.497-.141.047.019.056.084.066.131.075.159.103.328.159.497.075.206.103.459.253.628.206.244.497.478.816.478.309-.009.6-.244.797-.478.141-.178.15-.422.216-.628.056-.159.084-.319.141-.478.019-.028.019-.075.047-.084.037-.028.094-.009.141 0 .159.037.3.131.45.187.216.075.412.206.638.225.3.019.638.009.872-.169.272-.197.403-.563.478-.891.066-.272-.019-.544-.028-.825-.009-.188-.056-.384-.028-.581.009-.047 0-.103.037-.131.075-.066.197-.037.291-.037.216.009.422.075.628.131.281.094.534.319.825.337.253.009.619 0 .731-.225.122-.225-.075-.534-.244-.722-.253-.253-.656-.291-.994-.394-.291-.084-.581-.187-.881-.187-.328.009-.694.028-.956.225-.272.206-.413.562-.488.891-.066.262.019.544.019.816.009.206.169.478.019.619-.122.113-.328-.009-.488-.047-.216-.056-.403-.206-.619-.244-.281-.037-.591-.066-.853.056-.253.131-.422.394-.572.638-.103.178-.009.572-.216.572-.216 0-.113-.422-.216-.609-.15-.253-.309-.544-.581-.647-.413-.169-.891.112-1.341.103-.169 0-.384.066-.516-.047-.15-.141-.056-.403-.113-.6-.159-.553-.159-1.247-.609-1.603-.516-.412-1.294-.253-1.95-.272-.244 0-.478.094-.713.066-.122-.019-.262-.038-.337-.131-.047-.047-.056-.122-.066-.197-.019-.197.047-.394.066-.591.019-.272.103-.544.066-.806-.056-.319-.159-.675-.412-.9-.272-.244-.675-.319-1.041-.347-.309-.019-.619.113-.919.169-.244.037-.478.131-.722.131-.113 0-.244 0-.328-.066s-.112-.187-.141-.291c-.047-.225-.009-.45-.019-.675-.009-.3.037-.609-.037-.9-.084-.337-.216-.703-.488-.928-.272-.234-.656-.309-1.012-.347-.309-.037-.619.056-.928.094-.244.028-.488.103-.731.094-.122-.009-.281 0-.356-.094-.094-.094-.038-.263-.066-.384-.084-.384-.094-.825-.347-1.134-.206-.262-.572-.375-.881-.497-.169-.066-.337-.094-.516-.131a.35.35 0 0 0-.094-.019h0zm.028 3.057a.57.57 0 0 0-.497.366.55.55 0 0 0 .187.591l15.384 12.141a.55.55 0 0 0 .628.009l6.019-4.219c.244-.159.319-.516.15-.75a.55.55 0 0 0-.75-.122l-5.709 4.003-15.075-11.897a.55.55 0 0 0-.337-.122z" class="C"/><path d="M54.788 56.55v16.903l2.578-1.8.084-16.753z"/><path d="M39.291 44.419l5.559 4.462.075 14.4-5.634-3.834z" class="H"/><path d="M44.925 48.637l.159 14.878m1.407-13.762l.075 15.169m7.05-9.159l.075 18.084" class="B D E G J"/><path d="M63.628 67.584L54 73.997" class="B D E G I"/><g class="J D G"><path d="M53.606 71.372l-6.966-7.106 7.012-6.787-7.087-7.275" class="B E"/><path d="M50.766 53.231l-4.247 4.341 7.087 7.387-4.013 3.75" class="B E"/><path d="M50.016 55.941l-1.303 1.397 1.303 1.538 1.35-1.397zm-.038 7.321l-1.134 1.247 1.284 1.303 1.144-1.219z" class="E"/><path d="M46.8 52.303l1.294 1.416-1.359 1.434zm6.666 7.416l-1.387 1.444 1.406 1.369zm-6.741-.01L48 61.097l-1.303 1.2zm6.778 7.285l-1.219 1.256 1.284 1.256z"/></g><path d="M35.175 34.266l-5.616 2.813-4.022 2.053-5.616 3.281-4.959 3.553 3.281 4.397 2.897 3.647 2.428 3.553c.656-.188 1.294-.459 1.969-.563 1.322-.197 2.681-.178 4.022-.094 1.069.066 2.128.263 3.178.469l3.375.844c1.125.394 2.222.919 3.272 1.5 1.2.656 2.344 1.434 3.459 2.241 1.2.872 2.409 1.753 3.459 2.803 1.022 1.022 1.837 2.231 2.719 3.375l2.803 3.834 2.147 2.428c1.078 1.031 2.203 2.016 3.469 2.803 1.162.741 2.447 1.294 3.741 1.781 1.238.478 2.512.938 3.834 1.125 1.294.187 2.616 0 3.928 0l-2.156-4.397-2.241-5.709a51.09 51.09 0 0 1-1.5-5.522c-.394-1.913-.638-3.853-.844-5.794l-.281-4.397v-4.866l.094-4.584.281-4.772" class="B D E G I"/><g class="C"><path d="M50.25 94.078L40.228 85.94l.075-16.594 1.022-.703 1.8 1.8 2.737 3.675 2.269 3.206 1.022 1.097 1.247 1.022zm-13.781-28.8l-6.572 4.772-.628-1.256 5.634-4.462z"/><path d="M41.325 68.794l-9.553 6.263-.544-1.247 8.925-5.878z"/></g><path d="M37.8 87.741l.084-16.678-6.347 4.153 1.022 4.697.703 4.537.159 4.228-.084 2.269z" class="H"/><path d="M40.303 67.931l-9.075 6.028-.938-2.428-.553-1.481 6.731-4.856s1.716.563 2.428 1.097c.581.431 1.406 1.641 1.406 1.641zm15.788 30.563L40.416 85.987l-7.078 4.5.066 3.703-.197 3.506-.131 2.775 7.209-4.894 9.262 7.612 1.191.591.656.6 1.059.131.6.863.788-.206.797.994h.797l.656.6z"/><path d="M58.734 108.084l.066-23.55-1.584-.591-1.322-.731.066 23.616.862.131.853.862.534-.206z"/><path d="M26.456 87.778l-5.353 2.644-1.594-4.369-1.781-4.294c-.478-.928-1.013-1.828-1.659-2.653-.619-.797-2.109-2.175-2.109-2.175l.066-20.775 3.703 4.894c.947 1.509 1.669 3.159 2.447 4.762l2.906 6.356c.553 1.463.938 2.981 1.322 4.491l1.059 4.762.534 3.506.459 2.85z" class="D G H I"/><path d="M25.462 103.322l-7.209-3.9.731-2.719-.263-2.644-.797-1.781 2.119-1.594 3.637-1.584 2.709-1.125.263 2.644v3.178l-.197 3.703-.591 4.162z" class="C"/><path d="M35.325 64.359l-6.019 4.5-1.594-3.441-1.322-2.709s2.934-.187 4.369.066c1.584.281 4.566 1.584 4.566 1.584z" class="F"/><path d="M7.941 41.606l4.463 3.872-.066 74.016-4.397.028z"/><path d="M69.853 103.556l-.047-17.681 1.828-.563 4.481 6.178 3.375 4.397.75 1.116-4.444 3.141-3.281 2.006-2.662 1.406z" class="F"/><path d="M65.55 105.703l.094-19.641 2.194.047c.759-.038 2.25-.234 2.25-.234l-.047 17.681-2.522 1.303-1.969.844z"/><path d="M40.95 125.906l5.606-.094 4.631-.506 3-.609.469-3.272.459-3.703.422-2.756c.131-.544.347-1.059.516-1.594l.703-.094c.234.234.384.609.703.703.422.131.919-.019 1.313-.234.563-.3.966-.853 1.303-1.397.328-.525.591-1.116.656-1.734a2.4 2.4 0 0 0-.187-1.172c-.122-.272-.291-.572-.562-.703-.263-.122-.591 0-.891 0-.15-.216-.253-.478-.459-.647-.319-.263-.75-.347-1.125-.516-.206-.234-.328-.572-.609-.703-.244-.113-.534 0-.797 0-.234-.216-.403-.534-.703-.656-.244-.094-.525 0-.788 0-.272-.309-.422-.769-.797-.937-.272-.113-.591.037-.891.047-.234-.281-.375-.684-.703-.844-.272-.122-.591 0-.891 0-.291-.244-.553-.544-.881-.741-.384-.234-.797-.412-1.219-.516-.441-.103-.909-.178-1.359-.094-.488.084-.956.319-1.359.609-.441.319-.816.75-1.116 1.209-.422.628-.703 1.341-.938 2.062-.422 1.303-.553 2.672-.797 4.022l-.844 5.287-.975 5.231-.891 4.35z" class="C"/><g class="D G I"><path d="M60.328 134.934l-5.297-10.584-4.069.938c-2.156.347-4.331.581-6.516.656-2.644.084-5.297-.037-7.931-.262-3.113-.281-9.262-1.331-9.262-1.331l-6.084 10.584z" class="H"/><path d="M56.4 134.55l-4.012-7.819c-1.716.6-3.019.619-5.213.862l1.031 6.956h1.519l-1.35-6.019c1.256-.084 2.25-.075 3.337-.506l2.944 6.525zm-10.547 0l-.806-6.694c-2.663.244-4.8.394-7.463.122l-1.453 6.572h1.706l.806-5.241c2.091.122 3.328-.009 5.081-.131l.591 5.372zm-12.319 0l1.941-6.628-6.9-.919-3.628 7.547h1.678l2.747-6.225c1.181.319 3.178.459 4.359.628l-1.65 5.597z" class="F"/><g class="E"><g class="B"><path d="M41.006 125.681l1.331-6.619 1.322-7.941c.366-1.781.422-3.703 1.322-5.287.609-1.088 1.434-2.325 2.644-2.644 1.172-.309 2.7.047 3.506.947.675.759.816 2.063.459 3.019-.375 1.041-1.397 2.203-2.503 2.166-1.153-.037-2.428-1.294-2.447-2.438-.009-1.031 1.106-2.184 2.137-2.25.638-.047 1.406.563 1.491 1.2.103.741-.572 1.809-1.322 1.8-.45 0-1.059-.525-.778-1.097m-5.615 19.36c.778-2.372.975-4.781 1.387-7.191l1.097-7.191c.45-1.875.956-3.872 1.8-5.494m-2.512 19.876c.591-2.063.769-4.247 1.097-6.375l.834-6.262c.291-1.5.506-3 1.144-4.416m-1.5 16.95c.525-1.969.684-4.059.975-6.094l.741-5.991c.262-1.425.45-2.869 1.022-4.219m-1.201 16.135c.478-1.875.619-3.853.881-5.794l.666-5.681c.234-1.359.403-2.728.919-4.003m-.956 15.337c.469-1.781.619-3.666.872-5.503l.675-5.409c.234-1.294.403-2.588.919-3.806m-.779 14.484c.459-1.669.562-3.328.806-4.988l.656-5.034c.225-1.2.384-2.409.891-3.544m-.721 13.322c.441-1.519.572-3.122.806-4.688l.609-4.603c.216-1.097.375-2.203.844-3.244"/><path d="M54.113 124.491c.375-1.359.487-2.7.684-4.059l.525-4.125c.178-.984.309-1.978.712-2.906m-7.2-4.182c.431.3.816.816 1.331.834.853.028 1.697-.544 2.25-1.181.591-.684.947-1.659.881-2.559-.037-.647-.356-1.341-.872-1.734-.253-.188-.534-.141-.947-.178"/><path d="M50.55 110.072c.356.394.628.703 1.05.731.853.047 1.697-.544 2.25-1.191.591-.675.947-1.65.881-2.55-.037-.647-.319-1.397-.872-1.734-.262-.159-.497-.187-.919.019m-1.096 5.512c.431.291.816.816 1.331.834.853.028 1.697-.544 2.25-1.191.591-.675.947-1.65.881-2.55-.037-.647-.319-1.387-.872-1.734-.234-.15-.431-.159-.844-.019m-.965 5.551c.328.469.656.703 1.097.731.844.038 1.697-.544 2.25-1.191.581-.675.938-1.65.881-2.55-.047-.647-.347-1.359-.872-1.734-.244-.169-.431-.225-.891-.122m-.956 5.757c.159.394.591.666.994.694.844.056 1.697-.544 2.241-1.181.591-.684.947-1.659.891-2.559-.047-.647-.347-1.35-.881-1.725-.197-.15-.309-.066-.722-.103m-.948 5.558a.87.87 0 0 0 .816.656c.844.084 1.697-.534 2.25-1.181.591-.684.909-1.65.881-2.55-.009-.478-.169-1.012-.525-1.322-.281-.253-.675-.263-1.088-.291m-31.734 15.591l.666-8.053.534-4.387c.347-1.922.431-3.966 1.322-5.7.544-1.05 1.416-1.931 2.344-2.644.853-.656 1.837-1.191 2.888-1.444a7.69 7.69 0 0 1 3.366-.066c1.097.234 2.072.853 3.056 1.387 1.237.666 2.362 1.519 3.544 2.278"/></g><path d="M41.55 120.684c-1.041.3-2.053.731-3.122.9-.694.103-1.434.244-2.109.056-.337-.094-.947-.366-.9-.572.028-.103.197-.084.3-.084.394-.009.75.244 1.144.3.572.075 1.163.056 1.744 0 .994-.103 1.959-.403 2.944-.6z"/><path d="M35.719 118.491c-.122.131-.459.244-.356.384.122.197.872.675 1.378.872.478.188 1.003.263 1.528.272.544.019 1.097-.066 1.631-.206.366-.103.656-.263 1.069-.441" class="B"/><path d="M42.122 118.153c-.881.225-1.744.563-2.644.666-.638.075-1.294.094-1.922-.028-.516-.103-1.022-.3-1.453-.581-.281-.197-.497-.469-.713-.741.431-.187.834-.459 1.294-.572.722-.187 1.481-.263 2.222-.178.628.066 1.228.309 1.8.572.506.225.938.581 1.416.862z"/><path d="M39.9 118.547c-.028-.309.084-.656-.066-.928-.178-.328-.544-.544-.9-.666-.272-.084-.6-.094-.872 0a1.32 1.32 0 0 0-.628.544c-.197.328-.159.741-.244 1.116" class="B"/></g><g class="F"><path d="M38.897 118.331c.084-.094.047-.272-.019-.375-.075-.122-.216-.216-.347-.216-.141-.009-.281.084-.347.197-.084.122-.131.328-.028.431a.61.61 0 0 0 .741-.037z"/><path d="M39.984 115.397c-.628.122-1.509.263-2.222.534-.628.244-1.228.713-1.772.966" class="B"/></g><path d="M32.503 119.991c.159-.394.403-.759.488-1.172.15-.844.037-1.725-.066-2.588-.122-1.05-.506-2.072-.684-3.122-.113-.6-.384-1.228-.244-1.828.066-.3.291-.544.506-.75.272-.253.647-.384.966-.572m2.55 3.478c.412-.45 1.012-.778 1.237-1.35.103-.272.122-.6 0-.872-.15-.309-.45-.581-.787-.656-.272-.066-.563.084-.806.206-.319.169-.497.544-.816.694-.225.113-.506.244-.75.15-.075-.028-.169-.131-.15-.206.084-.272.525-.206.778-.3l1.022-.366" class="E B"/><path d="M38.016 107.831c-.422.216-1.022.169-1.528.159-.525-.009-1.031-.253-1.547-.234-.591.028-1.134.422-1.734.422-.431.009-.928-.187-1.266-.281.019-.15.066-.347 0-.459.431.159 1.05.394 1.584.328.506-.066.872-.647 1.388-.656.591-.019 1.05.656 1.65.684.572.019 1.172-.431 1.622-.534-.122.169-.178.45-.169.572z" class="F"/><path d="M36.975 105.994c-.422-.178-.816-.45-1.266-.534a2.68 2.68 0 0 0-1.022.009c-.225.037-.431.15-.647.234l-.581.272m.469-1.303c.309.131.6.244.909.244.263 0 .506-.103.75-.216" class="B E"/><path d="M32.203 120.769c-.413.488-1.322.609-2.034.666-.525.037-1.041-.103-1.547-.253-.356-.103-.703-.3-1.041-.459.572.113 1.163.319 1.753.337.516.009 1.031-.094 1.537-.206.356-.084.684-.253 1.003-.422.131-.075.431.216.328.337z" class="F"/><g class="E"><path d="M32.353 118.969c-.413.206-.788.488-1.228.6-.619.178-1.294.262-1.922.15-.422-.075-.778-.356-1.172-.525" class="B"/><path d="M32.625 118.097a6.6 6.6 0 0 1-1.509.384c-.591.075-1.2.094-1.791.019-.347-.047-.713-.113-1.022-.291-.187-.113-.309-.319-.469-.478l.094-.722c.309-.113.619-.272.947-.328.441-.084.909-.084 1.359-.056.488.028.984.056 1.444.234.347.141.656.375.947.619.094.084.169.178.253.272-.084.113-.122.291-.253.347z"/><path d="M31.463 118.294c-.019-.309.084-.656-.066-.928-.178-.328-.544-.553-.9-.666-.272-.094-.6-.103-.872 0-.253.094-.488.3-.628.544-.197.319-.159.741-.244 1.106" class="B"/></g><path d="M30.544 118.069c.084-.094.047-.262-.019-.375-.075-.113-.216-.206-.347-.216a.42.42 0 0 0-.347.197c-.084.122-.131.337-.028.441.178.159.572.131.741-.047z" class="F"/><path d="M32.409 116.662c-.337-.366-.609-.797-1.003-1.106-.319-.244-.703-.375-1.059-.562" class="B E"/><g class="C"><path d="M28.162 114.141c-.178-.769-.366-1.284-.694-1.856-.337-.562-.722-1.125-1.266-1.491-.431-.281-.956-.506-1.472-.459-.469.037-.966.263-1.256.638s-.337.919-.309 1.397c.028.431.15.9.441 1.228a1.58 1.58 0 0 0 1.022.544c.272.028.581-.019.778-.206.15-.141.206-.384.206-.591-.009-.225.019-.459-.263-.619.206.084.347.347.497.544a5.2 5.2 0 0 1 .506.928c.169.366.281.759.394 1.153l.356 1.622.544 2.55.516-5.381zm.722-5.288c-.169-.769-.684-2.269-1.284-3.272-.337-.562-.741-1.106-1.266-1.491-.422-.309-.919-.656-1.444-.619-.497.038-.994.384-1.284.797-.272.384-.337.919-.309 1.388.028.441.15.909.441 1.237.253.291.638.497 1.031.544.263.028.572-.028.769-.206.15-.141.216-.384.206-.591-.019-.216-.009-.412-.281-.572.206.084.366.3.516.488.216.281.366.609.516.928.159.375.262.778.384 1.162l.413 1.387.928 3.244.666-4.425z"/><path d="M29.475 106.781l-.412-1.116c-.197-.403-.694-1.153-.694-1.153l-1.294-.544c-.413-.15-1.256-.384-1.256-.384s.975.759 1.359 1.238c.337.412.572.9.806 1.387.216.469.366.975.534 1.472l.413 1.341.262-1.322c.075-.309.281-.919.281-.919z"/><path d="M28.369 104.512l1.8 1.031-.694 1.256zm18.618-1.115l-6.591-5.475-7.425 4.884.178-2.372 7.153-4.922 9.291 7.669c-.75-.253-1.744-.216-2.606.216z"/></g><g class="B E"><path d="M65.55 100.931l-2.475-2.803 2.428-2.569"/><path d="M65.456 99.234l-.891-1.031.891-.928"/></g><path d="M62.044 104.109l2.475-2.569-2.381-2.616-2.409 2.616zm.047-1.106l-1.416-1.322 1.416-1.556 1.369 1.369z" class="F"/><path d="M7.941 129.112l10.05-9.525H7.941z" class="C"/><path d="M7.941 127.003l6.084-5.822H7.941z" class="H"/><g class="B E"><path d="M65.7 94.162l-2.475-2.812 2.428-2.569"/><path d="M65.606 92.456l-.891-1.022.891-.938m-6.647 10.145l2.428-2.606-2.428-2.569m.047 3.675l.891-1.031-.891-.928m.141-8.195l2.278 2.456-2.428 2.569"/><path d="M59.044 90.337l.881 1.022-.881.937"/></g><path d="M62.306 97.294l2.475-2.569-2.381-2.616-2.512 2.662zm.047-1.106l-1.416-1.322 1.416-1.556 1.369 1.369zm-.15-5.607l2.466-2.569-2.381-2.531-2.559 2.475zm.037-1.106l-1.416-1.322 1.416-1.556 1.378 1.359z" class="F"/><path d="M58.903 102.581l2.222 2.4-2.072 2.222m-.112-3.225l.891.928-.731.881m6.346-3.712l-2.634 2.756 1.519 1.603m1.021-2.662l-.891 1.031.891.938" class="B E"/><g class="H B"><path d="M65.681 87.234l-1.022-1.219m-5.784 1.276l1.875-1.931"/><path d="M65.578 105.628l.178-19.612m-6.937 22.003l.056-23.522"/></g><path d="M63.187 106.847l-1.162-1.162-2.241 2.231.356.609z" class="F"/><path d="M14.025 119.587v-18.778l-1.594-.534v19.312zm-1.594-74.081v53.447h1.594V44.981l-6.084-5.297v1.856z" class="C"/></g><use xlink:href="#G" class="C"/><use xlink:href="#G" y="-3.703" class="C"/><path d="M9.394 117.206c.309 0 .656-.347.656-.656s-.347-.666-.656-.666-.666.356-.666.666.356.656.666.656zm1.584 0c.309 0 .666-.347.666-.656s-.356-.666-.666-.666-.656.356-.656.666.347.656.656.656zm-.834-11.044c.319 0 .666-.347.666-.666 0-.309-.347-.656-.666-.656-.309 0-.656.347-.656.656 0 .319.347.666.656.666z" class="C"/><use xlink:href="#H" class="C"/><path d="M9.356 104.306c.309 0 .656-.347.656-.656 0-.319-.347-.666-.656-.666-.319 0-.666.347-.666.666 0 .309.347.656.666.656zm1.585 0c.309 0 .666-.347.666-.656 0-.319-.356-.666-.666-.666s-.666.347-.666.666c0 .309.356.656.666.656z" class="C"/><use xlink:href="#I" class="C"/><use xlink:href="#I" y="-3.703" class="C"/><path d="M9.403 91.406c.309 0 .666-.356.666-.666s-.356-.656-.666-.656-.656.347-.656.656.347.666.656.666z" class="C"/><use xlink:href="#H" x="0.843" y="-11.053" class="C"/><use xlink:href="#J" class="C"/><path d="M10.247 76.444c.309 0 .666-.347.666-.666 0-.309-.356-.656-.666-.656s-.656.347-.656.656c0 .319.347.666.656.666zM9.459 78.3c.309 0 .656-.356.656-.666s-.347-.666-.656-.666c-.319 0-.666.356-.666.666s.347.666.666.666zm1.585 0c.309 0 .656-.356.656-.666s-.347-.666-.656-.666-.666.356-.666.666a.76.76 0 0 0 .666.666zm-.797-10.959c.309 0 .666-.347.666-.656s-.356-.666-.666-.666-.656.356-.656.666.347.656.656.656z" class="C"/><use xlink:href="#J" y="-16.509" class="C"/><use xlink:href="#G" x="-0.732" y="-53.568" class="C"/><path d="M11.044 65.494c.309 0 .656-.347.656-.666 0-.309-.347-.656-.656-.656s-.666.347-.666.656c0 .319.356.666.666.666z" class="C"/><use xlink:href="#K" class="C"/><use xlink:href="#K" y="-3.703" class="C"/><path d="M9.609 52.641c.309 0 .656-.356.656-.666s-.347-.656-.656-.656-.666.347-.666.656.356.666.666.666zm1.585 0c.309 0 .666-.356.666-.666s-.356-.656-.666-.656-.656.347-.656.656.347.666.656.666zm.712 56.634v1.322l-3.441 3.178v-1.331zm0-2.119v1.322l-3.441 3.178v-1.322zm0-11.109v1.322l-3.441 3.169v-1.322zm0-2.119v1.322l-3.441 3.178v-1.322zm0-11.109v1.322L8.465 87.31v-1.322zm0-2.119v1.322L8.466 85.2v-1.331zm0-10.584v1.322l-3.441 3.178v-1.322zm0-2.119v1.322l-3.441 3.178v-1.322zm0-10.322v1.331l-3.441 3.169v-1.322zm0-2.109v1.322l-3.441 3.169v-1.322zm-.037-10.125l.037.328-3.441 3.178v-1.322l2.644-2.616zm-1.753-1.388l.638.525-2.287 2.25v-1.322z" class="C"/><g class="I D"><g class="G"><path d="M29.766 97.641l2.475-2.578-2.381-2.616-2.559 2.569zm.047-1.116l-1.416-1.322 1.416-1.547 1.369 1.359zm-1.032 8.391l2.784-2.241-2.034-2.897L26.672 102zm.178-1.097l-1.228-1.491 1.603-1.359 1.181 1.528zm.9-13.022l2.184-2.625-2.653-2.175-2.213 2.625zm-.075-1.031l-1.547-1.078 1.237-1.575 1.509 1.125zm-.572-5.157l2.072-2.906-2.738-2.25-2.166 2.916zm-.122-1.106l-1.594-1.097 1.172-1.744 1.556 1.144zm-.984-5.719l1.594-3.188-3.047-1.8-1.687 3.216zm-.291-1.069l-1.744-.844.891-1.903 1.716.891zm-1.631-5.653l1.294-3.328-3.206-1.5-1.378 3.356zm-.394-1.041l-1.809-.675.703-1.978 1.791.722zm-2.446-5.746l.638-3.506-3.431-.872-.712 3.553zm-.581-.947l-1.912-.319.328-2.072 1.894.375zm-2.982-5.325l.337-3.553-3.497-.572-.403 3.609zm-.656-.9l-1.931-.15.141-2.1 1.922.216z" class="F"/><g class="B E"><path d="M26.128 100.866l2.7-2.166-2.137-2.644"/><path d="M26.334 99.487l.994-.872-.778-.956m-.75 5.663l.525-4.894.459-6.816c-.019-1.997-.272-3.975-.525-5.953L25.2 79.378a59.63 59.63 0 0 0-1.987-6.816 54.17 54.17 0 0 0-2.512-5.888c-1.012-2.063-2.137-4.078-3.366-6.019-.937-1.481-3.047-4.303-3.047-4.303m18.778 39.92l-2.812 3 2.512 3.019m.187-4.294l-1.2 1.256 1.106 1.369"/><path d="M26.85 94.041l2.259-2.175-2.091-2.297"/><path d="M26.934 92.756l.834-.862-.769-.834m6.32-2.701l-2.709 3.094 2.606 2.934m.047-4.303l-1.153 1.303 1.153 1.322m-.676-11.043l-2.372 3.356 2.887 2.653m-.393-4.284l-1.012 1.406 1.284 1.209m-1.65-11.044l-1.969 3.609 3.187 2.297m-.899-4.209l-.844 1.519 1.416 1.05m-3.647-11.166l-1.406 3.872 3.487 1.791m-1.509-4.031l-.609 1.631 1.556.825m-4.838-11.091l-.937 4.012 3.684 1.359"/><path d="M26.016 62.616l-.403 1.687 1.641.628"/></g></g><g class="K B E"><path d="M21.347 54.675l-.534 4.078 3.497 1.031"/><path d="M22.181 56.156l-.244 1.716 1.566.488m-6.891-9.863l.197 4.247 3.619.394"/><path d="M17.691 49.987l.066 1.716 1.622.197"/></g><g class="G"><path d="M26.259 62.513l-3.178-5.297-4.491-6.544c-1.369-1.781-2.916-3.403-4.369-5.1" class="B E"/><path d="M15.675 47.559l-1.519-.197" class="B E"/><path d="M14.222 48.422l1.453.328-.131 3.834-1.322-.328z" class="F"/><path d="M15.281 57.347l.262-3.441-1.322-.328m12.32 34.313l1.978-2.456-2.372-2.006m.319 3.168l.722-.966-.863-.731m-.394-3.525l1.519-2.747-2.672-1.575m.853 3.066l.544-1.069-.975-.572m-.994-3.544l1.284-2.869-2.794-1.35m1.107 2.982l.45-1.106-1.022-.488m-1.19-3.637l.769-3.047-2.991-.844m1.612 2.747l.253-1.172-1.097-.3m-1.715-3.478l.412-3.122-3.066-.488m1.913 2.541l.113-1.191-1.116-.178" class="B E"/><path d="M20.906 90.356l-2.522-6.947c-.619-1.425-1.219-2.887-2.109-4.162-.591-.844-1.416-1.5-2.119-2.25l.066 3.703 1.191-.262-.666 1.65 1.528.066-.928 1.125 1.387.131-.862 1.191 1.528.066-1.059 1.322 1.716.131-.994 1.322 1.528.141-.928 1.256 1.322.197-.863 1.453 1.856.066z" class="F"/><g fill="#fff"><path d="M17.991 99.422c-.619.666-1.641.834-2.512 1.106-.469.141-.966.291-1.453.262-.553-.028-1.134-.141-1.594-.459-.244-.178-.506-.431-.525-.731-.019-.225.159-.45.328-.591.159-.131.394-.15.6-.197.328-.094.694-.038.994-.197.272-.15.525-.384.637-.675.141-.328.094-.731.028-1.087-.075-.403-.291-.825-.469-1.134l.066-3.778c.75-.084 1.537-.328 2.316-.263.459.037.975.094 1.322.394.628.562.797 1.5.994 2.316.187.844.253 1.734.131 2.578-.122.862-.272 1.819-.863 2.456z"/><path d="M26.259 87.975l-3.178 1.387-2.644 1.388-2.447 1.387m7.876 11.25l-4.303-2.053-3.375-1.781" class="B"/><path d="M19.444 100.144s.609-1.912.731-2.906c.122-1.012.159-2.044 0-3.047-.15-.891-.863-2.578-.863-2.578l3.375-1.922-1.453 2.381 1.584 1.594-1.716 1.913 1.584 2.184-1.387 1.125.863 2.644z"/></g><path d="M25.397 102.853l-1.978-3.234 1.716-1.659-1.65-2.25L25.2 93.6l-1.519-1.528 1.847-3.572m.272 12.637l-.666-1.059.994-.797m.197-2.644l-.797-.994.862-1.125m.132-1.715l-.853-1.191.853-1.322" class="B E"/><path d="M24.675 86.325l-2.981 1.453-1.453-4.5c-.469-1.256-.919-2.541-1.584-3.703-.778-1.341-2.784-3.703-2.784-3.703V62.044l3.703 6.347c1.125 2.269 2.128 4.612 2.916 7.013.656 2.006 1.125 4.078 1.519 6.159.3 1.566.666 4.762.666 4.762zm.544 41.597s-.178-1.931-.609-2.775c-.422-.816-1.106-1.519-1.856-2.053a5.64 5.64 0 0 0-2.184-.919c-.647-.131-1.322-.066-1.978 0-.45.037-1.331.263-1.331.263s.853.272 1.125.591c.591.675.675 1.659.928 2.512s.309 1.753.6 2.588c.291.844.553 1.753 1.125 2.447a2.93 2.93 0 0 0 1.191.853c.272.113.872.141.872.141z" class="C"/><g class="B E"><path d="M23.944 129.787c-.319-1.05-.591-2.062-1.125-2.981-.45-.797-1.087-1.463-1.716-2.119-.413-.431-.881-.797-1.322-1.191"/><path d="M21.666 128.953c.469-.253 1.509-.028 2.025.075.356-.703.647-1.247.619-1.903m-3.066.628c.469-.253 1.35-.178 1.866-.075.356-.703.647-1.387.619-2.044m-3.085.488c.478-.253 1.153-.066 1.669.037.356-.703.281-1.341.253-1.997m-2.607.769c.469-.262.769-.019 1.284.084.356-.703.169-.975.141-1.631m2.428 6.694c-.469-.075-.937-.113-1.406.094"/></g></g></g><path d="M55.584 105.412c.225-.084.516-.234.544-.478.028-.234-.234-.441-.431-.572-.112-.075-.272-.066-.403-.112-.141-.047-.328-.066-.422-.197s-.028-.328-.066-.488c-.112-.394-.159-.862-.459-1.134-.262-.253-.666-.3-1.022-.337-.309-.028-.619.075-.919.113-.244.028-.478.103-.722.084-.122-.019-.253-.028-.347-.103-.084-.075-.113-.197-.131-.3-.056-.225-.019-.459-.028-.694-.009-.3.047-.609-.028-.891-.094-.338-.234-.703-.506-.919-.291-.225-.694-.291-1.059-.309-.309-.009-.609.113-.919.169-.234.047-.459.141-.703.131-.103 0-.225 0-.3-.075-.047-.038-.047-.122-.056-.178-.019-.197.038-.384.056-.581.019-.263.113-.534.066-.797-.047-.319-.141-.675-.366-.909-.253-.253-.647-.366-1.003-.431-.309-.047-.628.066-.938.075-.384 0-.853.197-1.153-.047-.234-.187-.15-.572-.206-.863-.056-.272-.028-.553-.131-.797-.131-.3-.3-.619-.572-.787-.225-.141-.525-.159-.788-.141-.197.009-.384.122-.581.178-.159.047-.337.206-.497.141-.047-.019-.056-.084-.066-.131-.075-.159-.103-.328-.159-.497-.075-.206-.103-.459-.253-.628-.206-.244-.497-.478-.816-.478-.309.009-.6.244-.797.478-.141.178-.15.422-.216.628-.056.159-.084.319-.141.478-.019.028-.019.075-.047.084-.037.028-.094.009-.141 0-.159-.037-.3-.131-.45-.187-.216-.075-.412-.206-.638-.225-.3-.019-.638-.009-.872.169-.272.197-.403.563-.478.891-.066.272.019.544.028.825.009.188.056.384.028.581-.009.047 0 .103-.037.131-.075.066-.197.037-.291.037-.216-.009-.422-.075-.628-.131-.281-.094-.534-.319-.825-.337-.253-.009-.619 0-.731.225-.122.225.075.534.244.722.253.253.656.291.994.394.291.084.581.187.881.187.328-.009.694-.028.956-.225.272-.206.413-.562.488-.891.066-.262-.019-.544-.019-.816-.009-.206-.169-.478-.019-.619.122-.113.328.009.488.047.216.056.403.206.619.244.281.037.591.066.853-.056.253-.131.422-.394.572-.638.103-.178.009-.572.216-.572.216 0 .113.422.216.609.15.253.309.544.581.647.413.169.891-.112 1.341-.103.169 0 .384-.066.516.047.15.141.056.403.113.6.159.553.159 1.247.609 1.603.516.412 1.294.253 1.95.272.244 0 .478-.094.713-.066.122.019.262.038.337.131.047.047.056.122.066.197.019.197-.047.394-.066.591-.019.272-.103.544-.066.806.056.319.159.675.412.9.272.244.675.319 1.041.347.309.019.619-.113.919-.169.244-.037.478-.131.722-.131.113 0 .244 0 .328.066s.112.187.141.291c.047.225.009.45.019.675.009.3-.037.609.037.9.084.337.216.703.488.928.272.234.656.309 1.012.347.309.037.619-.056.928-.094.244-.028.488-.103.731-.094.122.009.281 0 .356.094.094.094.038.263.066.384.084.384.094.825.347 1.134.206.262.572.375.881.497.169.066.337.094.516.131a.35.35 0 0 0 .094.019h0zm-.028-3.056a.57.57 0 0 0 .497-.366.55.55 0 0 0-.187-.591l-15.385-12.14a.55.55 0 0 0-.628-.009l-6.019 4.219c-.244.159-.319.516-.15.75a.55.55 0 0 0 .75.122l5.709-4.003 15.075 11.897a.55.55 0 0 0 .337.122z" class="C"/><path d="M40.462 86.325V69.422l-2.578 1.8-.084 16.753z"/><path d="M55.959 98.456L50.4 93.994l-.075-14.4 5.634 3.834z" class="H"/><path d="M50.325 94.237l-.159-14.878m-1.407 13.763l-.075-15.169m-7.05 9.159l-.075-18.084" class="B D E G J"/><path d="M31.622 75.291l9.628-6.412" class="B D E G I"/><g class="J D G"><path d="M41.644 71.503l6.966 7.106-7.012 6.787 7.087 7.275" class="B E"/><path d="M44.484 89.644l4.247-4.341-7.087-7.387 4.013-3.75" class="B E"/><path d="M45.234 86.934l1.303-1.397L45.234 84l-1.35 1.397zm.038-7.322l1.134-1.247-1.284-1.303-1.144 1.219z" class="E"/><path d="M48.45 90.572l-1.294-1.416 1.359-1.434zm-6.666-7.416l1.387-1.444-1.406-1.369zm6.741.01l-1.275-1.387 1.303-1.2zm-6.778-7.285l1.219-1.256-1.284-1.256z"/></g><g class="E I G"><path d="M60.075 108.609l5.616-2.813 4.022-2.053 5.616-3.281 4.959-3.553-3.281-4.397-2.897-3.647-2.428-3.553c-.656.188-1.294.459-1.969.563-1.322.197-2.681.178-4.022.094-1.069-.066-2.128-.263-3.178-.469l-3.375-.844c-1.125-.394-2.222-.919-3.272-1.5-1.2-.656-2.344-1.434-3.459-2.241-1.2-.872-2.409-1.753-3.459-2.803-1.022-1.022-1.837-2.231-2.719-3.375l-2.803-3.834-2.147-2.428c-1.078-1.031-2.203-2.016-3.469-2.803-1.162-.741-2.447-1.294-3.741-1.781-1.238-.478-2.512-.938-3.834-1.125-1.294-.187-2.616 0-3.928 0l2.156 4.397 2.241 5.709a51.09 51.09 0 0 1 1.5 5.522c.394 1.913.638 3.853.844 5.794l.281 4.397v4.866l-.094 4.584-.281 4.772" class="B D"/><path d="M7.941 39.684v95.25h71.437"/></g><path d="M49.725 71.297c-.178.019-.375.178-.75.45l-.825.581-.816.591c-1.022.609-.741.684-.047 1.519l.778.938.769.928c.712.956.675 1.022 1.509.253l.75-.684.75-.684c.881-.684.703-.731.037-1.528l-.694-.834-.703-.834c-.366-.506-.534-.712-.759-.694zm-.141 1.463a.76.76 0 0 1 .516.197.54.54 0 0 1 .113.356c0 .056-.075.131-.028.178.037.037.103-.047.159-.047.131.009.272.037.366.131.131.122.197.328.197.506 0 .187-.066.384-.197.516-.094.084-.234.103-.366.113-.056.009-.122-.075-.159-.028-.047.037.028.103.028.159 0 .131-.028.272-.113.366-.131.131-.337.197-.516.197s-.384-.066-.516-.197c-.084-.094-.112-.234-.122-.366 0-.056.084-.122.047-.159-.047-.047-.122.037-.178.028-.131-.009-.263-.028-.356-.113a.74.74 0 0 1-.197-.516c0-.178.066-.384.197-.506.094-.094.225-.122.356-.131.056 0 .131.084.178.047.037-.047-.047-.122-.047-.178.009-.122.038-.262.122-.356.131-.131.337-.197.516-.197zm3.713 2.709c-.169.037-.347.234-.666.562l-.712.713-.703.712c-.919.778-.619.806.197 1.509l.928.797.909.787c.863.825.834.9 1.538 0l.619-.806.628-.788c.759-.825.581-.844-.216-1.519l-.825-.713-.825-.703c-.45-.441-.656-.619-.872-.553zm.103 1.463c.187-.028.394 0 .544.113.103.075.15.206.169.328.019.056-.047.141 0 .178s.094-.066.159-.066c.122-.019.272-.009.375.056.15.103.253.291.281.478.028.178 0 .384-.112.534-.075.103-.216.15-.338.178-.056.009-.131-.056-.169-.009-.028.047.056.103.066.159.009.122.009.272-.056.375-.103.15-.291.253-.478.281a.72.72 0 0 1-.534-.112c-.103-.075-.159-.206-.187-.337-.009-.056.066-.131.019-.169s-.103.056-.169.066c-.122.009-.263.019-.366-.056-.15-.103-.253-.291-.281-.469-.028-.187 0-.394.113-.544.075-.103.206-.15.328-.178.056-.019.141.056.178.009.028-.047-.066-.103-.075-.159-.009-.131-.009-.272.066-.375.103-.15.291-.253.469-.281zm4.097 1.799c-.15.094-.253.337-.459.75l-.45.9-.441.9c-.628 1.022-.328.956.666 1.369l1.125.459 1.116.459c1.078.506 1.078.591 1.453-.488l.337-.956.347-.947c.459-1.031.281-.984-.684-1.378l-1.003-.403-1.012-.413c-.563-.272-.806-.384-.994-.253zm.563 1.359c.159-.084.366-.122.544-.066.122.038.206.15.272.253.028.056-.009.15.047.169.056.028.075-.084.131-.113.113-.047.253-.094.375-.056.178.047.328.197.412.356.094.159.122.375.066.544-.037.122-.15.206-.262.272-.047.037-.15-.009-.159.056-.019.056.075.075.103.122.056.122.103.253.066.384-.047.169-.197.328-.356.413s-.375.122-.544.066c-.122-.037-.216-.15-.281-.263-.028-.047.009-.15-.037-.169-.056-.019-.084.084-.141.113-.112.056-.244.103-.366.066-.178-.047-.337-.197-.422-.356-.084-.169-.122-.375-.066-.553.037-.122.15-.206.262-.272.047-.028.15.009.169-.047s-.094-.084-.122-.131a.58.58 0 0 1-.056-.375.72.72 0 0 1 .366-.413zm4.387.713c-.113.141-.15.403-.216.853l-.169.994-.159.994c-.3 1.153-.038 1.003 1.041 1.106l1.209.113 1.209.112c1.172.169 1.191.244 1.238-.891l.047-1.012.047-1.012c.141-1.116-.019-1.012-1.05-1.106l-1.087-.103-1.088-.094c-.619-.094-.881-.122-1.022.047zm.928 1.134c.131-.122.328-.225.506-.216.131 0 .244.075.338.169.037.038.037.141.094.141.066 0 .047-.103.094-.141.094-.084.216-.169.337-.169.187-.009.375.084.506.216s.225.319.225.506c0 .122-.094.244-.178.337-.037.047-.141.037-.141.094s.103.047.141.094c.084.094.178.216.178.337 0 .187-.094.375-.225.506a.74.74 0 0 1-.497.225c-.131-.009-.253-.084-.347-.178-.047-.037-.028-.141-.094-.141-.056 0-.047.103-.094.141-.094.084-.206.169-.338.178-.178 0-.375-.094-.497-.225-.131-.131-.225-.319-.225-.506 0-.122.075-.244.159-.337.047-.047.159-.028.15-.094 0-.056-.113-.047-.15-.094-.084-.094-.159-.206-.159-.337-.009-.178.094-.375.216-.506zM45.956 72.15c.169-.019.375-.178.75-.441l.816-.591.825-.581c1.022-.609.731-.694.047-1.528l-.778-.928-.769-.938c-.713-.947-.675-1.022-1.509-.253l-.75.694-.75.675c-.891.684-.712.731-.037 1.528l.694.834.703.834c.366.506.534.722.759.694zm.141-1.463c-.187 0-.384-.066-.516-.197-.084-.094-.113-.225-.113-.356-.009-.056.066-.131.028-.169-.037-.047-.103.047-.159.037-.131-.009-.272-.037-.366-.122a.74.74 0 0 1-.197-.516.76.76 0 0 1 .197-.516c.094-.084.234-.103.366-.112.056 0 .122.075.159.037.038-.047-.037-.113-.028-.169 0-.131.028-.272.113-.366a.74.74 0 0 1 .516-.197c.178 0 .384.066.506.197.094.094.122.234.131.366 0 .056-.084.122-.047.169.047.037.113-.037.178-.037.122.009.263.028.356.112.131.131.197.337.197.516 0 .187-.066.384-.197.516-.094.084-.234.113-.356.122-.066.009-.131-.084-.178-.037-.037.037.047.112.047.169-.009.131-.037.263-.131.356-.122.131-.328.197-.506.197zm-3.638-2.784c.169-.047.347-.244.675-.562l.703-.722.712-.712c.909-.769.609-.797-.206-1.509l-.919-.787-.919-.797c-.853-.816-.825-.891-1.528.009l-.619.797-.628.797c-.759.825-.581.834.206 1.509l.825.713.834.703c.45.441.647.619.862.562zm-.103-1.463c-.178.028-.394-.009-.534-.112-.103-.075-.15-.206-.178-.337-.009-.056.056-.141.009-.169-.047-.037-.103.056-.159.066-.122.009-.272.009-.375-.066-.15-.103-.253-.291-.281-.469a.74.74 0 0 1 .103-.544c.075-.103.216-.141.347-.169.056-.019.131.056.169 0 .028-.047-.056-.094-.066-.15-.019-.131-.019-.281.056-.384.103-.15.291-.253.469-.281s.394 0 .544.112c.103.075.15.216.178.337.009.056-.056.131-.009.169s.103-.056.159-.056c.131-.019.272-.019.375.047.15.103.253.3.281.478s0 .394-.113.534c-.075.103-.206.159-.328.187-.056.009-.15-.066-.178-.019-.028.056.066.113.066.169a.58.58 0 0 1-.056.375c-.103.15-.3.244-.478.281zm-4.425-2.137c.15-.103.253-.337.459-.75l.45-.9.441-.909c.619-1.012.328-.947-.666-1.359l-1.125-.459-1.125-.469c-1.069-.506-1.069-.581-1.444.497l-.337.956-.347.947c-.459 1.022-.281.975.684 1.369l1.003.413 1.012.403c.562.281.806.384.994.262zm-.562-1.359c-.159.084-.366.122-.544.066-.122-.037-.206-.15-.272-.263-.028-.047.009-.15-.047-.169s-.075.094-.131.112c-.112.056-.253.103-.375.066-.178-.047-.328-.197-.422-.356-.084-.169-.122-.375-.066-.553.047-.122.159-.206.272-.272.047-.028.141.009.159-.047s-.084-.075-.103-.131c-.056-.113-.103-.253-.075-.375.056-.178.206-.328.366-.413s.366-.122.544-.066c.122.037.216.15.281.263.028.047-.019.141.037.159s.084-.084.141-.103c.113-.056.244-.103.366-.066.178.047.328.197.422.356.084.159.122.375.066.544-.047.122-.15.216-.262.281-.047.028-.15-.019-.169.047-.019.047.094.075.113.131.056.113.094.244.066.375-.056.169-.206.328-.366.413zm-4.378-.75c.112-.131.141-.394.216-.844l.159-.994.159-.994c.3-1.162.037-1.012-1.041-1.116l-1.209-.113-1.2-.112c-1.172-.169-1.2-.244-1.247.9l-.037 1.012-.056 1.003c-.141 1.116.019 1.022 1.059 1.116l1.078.094 1.088.094c.619.103.891.131 1.031-.047zm-.938-1.134c-.131.131-.319.225-.506.225-.122 0-.234-.084-.328-.169-.047-.037-.047-.15-.103-.15s-.037.113-.084.15c-.094.084-.216.169-.347.169-.178 0-.375-.094-.506-.225-.122-.122-.225-.319-.216-.497 0-.131.084-.244.169-.337.037-.047.141-.038.141-.094 0-.066-.103-.056-.141-.094-.084-.094-.169-.216-.178-.347a.74.74 0 0 1 .225-.497c.131-.131.319-.225.506-.225.122 0 .253.084.347.169.038.037.028.15.084.15s.056-.113.103-.15c.094-.084.197-.169.328-.169.187 0 .375.094.506.225.122.122.225.319.216.497 0 .131-.075.244-.159.337-.037.047-.15.038-.15.094 0 .066.113.056.15.094.084.094.159.216.169.347a.74.74 0 0 1-.225.497zM69.131 81l-.412.084c-.562.066-.797.113-.881.319-.056.159-.028.403.019.863l.094 1.003.094 1.012c.019 1.191.206.984 1.162.806l1.059-.206 1.031-.187-.506-.872a.71.71 0 0 1-.206.103c-.113.028-.234-.019-.337-.075-.047-.028-.056-.131-.103-.113-.056.009-.028.113-.056.169-.066.103-.141.206-.253.234a.55.55 0 0 1-.478-.075.75.75 0 0 1-.309-.441c-.028-.122.009-.253.056-.366.019-.047.131-.066.112-.122s-.112-.028-.159-.056c-.094-.066-.187-.169-.216-.291-.047-.178-.009-.384.075-.544.084-.15.225-.3.375-.337.112-.037.234.019.328.075.047.028.066.131.122.122l.028-.028L69.131 81zM26.287 62.006l.413-.084c.562-.066.797-.112.881-.319.066-.159.028-.413-.009-.862l-.103-1.013-.094-1.003c-.009-1.191-.206-.984-1.153-.806l-1.069.206-1.031.187.516.872a.57.57 0 0 1 .197-.103c.113-.028.234.019.337.075.047.028.056.122.113.112.047-.009.019-.112.047-.169.066-.103.141-.206.253-.244.15-.047.338-.009.478.084a.82.82 0 0 1 .319.431c.028.131-.009.253-.066.375-.019.047-.131.066-.113.122s.113.028.159.056c.094.066.188.169.216.291.047.169.009.384-.075.534-.075.159-.216.309-.375.347-.113.028-.225-.019-.328-.075-.047-.028-.066-.131-.122-.122-.009 0-.019.019-.028.028l.638 1.078zm-1.153-35.287c.534 1.059 1.856 2.653 3.178 2.653 2.381 0 3.441-2.119 3.441-4.762 0-2.653-1.059-5.034-3.441-5.034-1.322 0-2.119 1.331-2.916 2.119-.263.263-.525 0-.263-.263.797-.797 2.119-2.906 2.119-4.762 0-2.119-1.322-4.762-3.441-4.762s-3.441 2.644-3.441 4.762c0 1.856 1.322 3.966 2.119 4.762.263.263 0 .525-.263.263-.797-.788-1.594-2.119-2.916-2.119-2.381 0-3.441 2.381-3.441 5.034 0 2.644 1.059 4.762 3.441 4.762 1.322 0 2.644-1.594 3.178-2.653.263-.262.263 0 .263.272l-.525 4.228c-.272 1.594-1.059 4.5-1.059 4.5 1.322-.525 3.966-.525 5.287 0l-1.059-4.5-.525-4.228c0-.272 0-.534.263-.272zm-16.537 4.5c.263.534.928 1.322 1.594 1.322 1.191 0 1.716-1.059 1.716-2.381s-.525-2.512-1.716-2.512c-.666 0-1.059.666-1.462 1.059-.131.131-.263 0-.131-.131.403-.394 1.059-1.453 1.059-2.381 0-1.059-.656-2.381-1.716-2.381s-1.725 1.322-1.725 2.381c0 .928.666 1.987 1.059 2.381.131.131 0 .263-.131.131-.394-.394-.797-1.059-1.453-1.059-1.191 0-1.725 1.191-1.725 2.512s.534 2.381 1.725 2.381c.656 0 1.322-.788 1.584-1.322.131-.131.131 0 .131.131l-.263 2.119c-.131.797-.525 2.25-.525 2.25.656-.263 1.978-.263 2.644 0l-.534-2.25-.263-2.119c0-.131 0-.263.131-.131zm61.519 84.937c-.534-1.059-1.856-2.653-3.178-2.653-2.381 0-3.441 2.119-3.441 4.762 0 2.653 1.059 5.034 3.441 5.034 1.322 0 2.119-1.331 2.916-2.119.263-.262.525 0 .263.263-.797.797-2.119 2.906-2.119 4.762 0 2.119 1.322 4.762 3.441 4.762s3.441-2.644 3.441-4.762c0-1.856-1.322-3.966-2.119-4.762-.262-.263 0-.525.263-.263.797.788 1.594 2.119 2.916 2.119 2.381 0 3.441-2.381 3.441-5.034 0-2.644-1.059-4.762-3.441-4.762-1.322 0-2.644 1.594-3.178 2.653-.262.262-.262 0-.262-.272l.525-4.228c.272-1.594 1.059-4.5 1.059-4.5-1.322.525-3.966.525-5.288 0l1.059 4.5.525 4.228c0 .272 0 .534-.262.272zm16.537-4.5c-.262-.534-.928-1.322-1.594-1.322-1.191 0-1.716 1.059-1.716 2.381s.525 2.512 1.716 2.512c.666 0 1.059-.666 1.463-1.059.131-.131.263 0 .131.131-.403.394-1.059 1.453-1.059 2.381 0 1.059.656 2.381 1.716 2.381s1.725-1.322 1.725-2.381c0-.928-.666-1.987-1.059-2.381-.131-.131 0-.263.131-.131.394.394.797 1.059 1.453 1.059 1.191 0 1.725-1.191 1.725-2.512s-.534-2.381-1.725-2.381c-.656 0-1.322.788-1.584 1.322-.131.131-.131 0-.131-.131l.263-2.119c.131-.797.525-2.25.525-2.25-.656.263-1.978.263-2.644 0l.534 2.25.263 2.119c0 .131 0 .263-.131.131z"/><defs ><path id="B" d="M85.059 23.812c-.309 0-.656.347-.656.666 0 .309.347.656.656.656.319 0 .666-.347.666-.656 0-.319-.347-.666-.666-.666z"/><path id="C" d="M85.106 40.416c-.319 0-.666.356-.666.666s.347.656.666.656c.309 0 .656-.347.656-.656s-.347-.666-.656-.666z"/><path id="D" d="M85.05 49.622c-.309 0-.656.347-.656.656 0 .319.347.666.656.666s.666-.347.666-.666c0-.309-.356-.656-.666-.656z"/><path id="E" d="M85.003 62.728c-.309 0-.666.347-.666.656 0 .319.356.666.666.666s.656-.347.656-.666c0-.309-.347-.656-.656-.656z"/><path id="F" d="M84.853 88.387c-.319 0-.666.347-.666.656 0 .319.347.666.666.666.309 0 .656-.347.656-.666 0-.309-.347-.656-.656-.656z"/><path id="G" d="M10.191 119.062c.309 0 .656-.347.656-.666 0-.309-.347-.656-.656-.656-.319 0-.666.347-.666.656 0 .319.347.666.666.666z"/><path id="H" d="M10.144 102.459c.319 0 .666-.356.666-.666s-.347-.656-.666-.656c-.309 0-.656.347-.656.656s.347.666.656.666z"/><path id="I" d="M10.2 93.253c.309 0 .656-.347.656-.656 0-.319-.347-.666-.656-.666s-.666.347-.666.666c0 .309.356.656.666.656z"/><path id="J" d="M10.247 80.147c.309 0 .666-.347.666-.656 0-.319-.356-.666-.666-.666s-.656.347-.656.666c0 .309.347.656.656.656z"/><path id="K" d="M10.397 54.487c.319 0 .666-.347.666-.656 0-.319-.347-.666-.666-.666-.309 0-.656.347-.656.666 0 .309.347.656.656.656z"/></defs></svg>