<svg xmlns="http://www.w3.org/2000/svg" xmlns:xlink="http://www.w3.org/1999/xlink" width="360" height="540" viewBox="0 0 95.25 142.875" xmlns:v="https://vecta.io/nano"><style><![CDATA[.B{stroke-linejoin:round}.C{stroke:#55a}.D{stroke-width:2}.E{fill:none}.F{stroke-linecap:round}.G{fill:#ff5}.H{stroke:#ff5}.I{fill:#55a}.J{fill:#fff}.K{stroke:#000}.L{fill:#f55}.M{stroke:#030000}.N{stroke-width:2.063}.O{stroke-width:2.082}.P{stroke-width:2.217}.Q{stroke-width:2.13}.R{stroke-width:1.641}]]></style><g transform="matrix(.264583 0 0 .264583 0 -135.562492)"><rect rx="29.944" y="512.862" x=".5" height="539" width="359" class="J K"/><path d="M63.664 697.826l8.304-5.536.231 88.576-6.04-.641-5.04-1.06 2.417-6.407.589-3.887z" class="B D M"/><path d="M226.474 788.841l-.966-17.074 3.544-22.873 4.972-21.262 5.337-19.007 4.51-12.242 6.765-13.53 5.477-9.665 3.222-6.765 2.255-2.577 2.577.322 2.577-2.899h3.544l19.651 10.953.322 3.866-6.443 8.698-6.765 11.92-7.41 14.819-5.799 17.074-3.866 19.007-1.933 14.819-1.289 12.886-8.327-.042-8.691 2.521-8.11 6.541z" fill="#ff5655"/><path d="M152.646 720.388l-.481 49.279s2.764 1.596 3.606 2.885c.68 1.042.8 2.372.962 3.606.177 1.351 0 4.087 0 4.087s2.419-1.785 3.846-1.923c1.49-.144 3.052.417 4.327 1.202 1.014.625 2.404 2.644 2.404 2.644s1.446-10.728 1.202-16.106c-.265-5.843-1.434-11.642-2.885-17.308-1.326-5.18-3.052-10.287-5.288-15.144-2.132-4.631-7.692-13.221-7.692-13.221zM38.221 823.514l-8.221-.24v-98.559l13.75-12.26 15.625-11.539-.24 66.106-6.01.962-4.567 4.808.63 3.919 3.478 3.919-4.107 4.181-4.567 1.442-3.216 3.977.834 6.122-1.944 3.844.611 4.327 2.239 1.33-.611 4.716-.076 3.569 2.163 1.202-.24 3.846-5.048.962zm283.488-82.408l8.221.24v98.559l-13.75 12.26-15.625 11.539.24-66.106 6.01-.962 4.567-4.808-4.937-7.667 3.494-1.948 1.442-2.404 4.567-1.442 2.07-2.795.571-4.116-1.474-3.119 2.828-7.487-3.401-1.831 1.536-4.057.033-4.479-2.163-1.202.24-3.846 5.048-.962z" class="L"/><path d="M296.266 866.643l-8.304 5.687-.231-88.576 10.311 2.468-1.243 4.162-.662 3.419-.332 4.353z" class="B D M"/><path d="M180.435 898.759l-28.872-20.428-23.288 14.3-5.856-2.315-4.086.817-3.132 1.498-1.362-1.09-4.086.136 41.673-25.876 38.541 27.374-2.996 2.179-.545 1.226-2.588-1.09-2.179 1.09z"/><path d="M179.972 898.338l-28.638-20.153-24.042 14.849 3.298 2.456 4.767 5.175.272-6.265 2.86-4.358 3.541-3.405 5.448-1.362 8.852-.272 8.988 4.63 6.673 7.218 3.949 6.128 2.996 5.039.681-5.856z" class="L"/><path d="M70.505 872.117l-.721-41.587 2.885-1.202 4.808 2.404 5.048-2.163.962-5.048-3.125-3.365h-5.529l-8.894.481-9.135 2.404-6.49-.481-4.327-3.125v-3.125l3.365.481 5.529-.24 4.567.962 7.212-.721 3.846-.962 3.125-6.01.962-7.933v-7.933l-1.442-6.25-1.923-3.846-3.606-4.087 19.471.481 6.01 3.846 3.846 2.404-1.442 12.5-3.606 21.154-5.048 18.269-4.567 11.539-5.048 10.337zm121.395-93.27l-23.808 6.25-1.433 20.914 1.192 18.77 2.654 11.76 3.606 13.942 4.808 12.74 5.529 11.058 5.048 9.856 5.529 8.173 5.529-2.163 3.365.24 5.289-.721 3.365 1.683 5.289-.962 2.885 2.885 1.683 2.163 3.846 2.404 2.163 2.404 1.202 3.365 14.664-6.971 13.942-6.731-11.779-7.212-15.144-11.779-12.019-11.539-9.856-11.298-6.731-10.817-6.01-12.26-4.087-16.346-1.202-13.702z"/><path d="M133.457 775.779l.966 17.074-3.544 22.873-4.972 21.262-5.337 19.007-4.51 12.242-6.765 13.53-5.477 9.665-3.222 6.765-2.255 2.577-2.577-.322-2.577 2.899h-3.544l-19.651-10.953-.322-3.866 6.443-8.698 6.765-11.92 7.41-14.819 5.799-17.074 3.866-19.007 1.933-14.819 1.289-12.886 8.327.042 8.691-2.521 8.11-6.541z" fill="#ff5655"/><g class="B D"><g class="G"><path d="M103.251 789.797c-1.368 16.939-3.731 33.99-8.784 50.213-3.797 12.192-9.505 23.812-15.993 34.81-2.441 4.138-5.655 7.96-8.551 11.6l.126-11.817c7.513-12.773 14.45-26.245 18.946-40.435 4.754-15.004 6.222-30.875 8.245-46.493l6.01 2.121z" class="K"/><path d="M193.463 893.251l-2.477-.495-39.004-27.93-42.744 26.939-.495 2.725-2.725-.991-4.459 3.22 8.175-15.359 9.661-20.561 5.698-18.662 4.211-16.514 2.725-15.359 2.18-12.486.05-9.314 3.22 2.477 6.441-.991-.495 6.936 2.973 4.707 5.945.248 4.954-2.477.743-4.211-1.239-4.954 6.193 1.239 3.716-3.22-.495 16.845.512 13.172 1.717 11.104 3.303 14.418 3.699 11.214 5.785 15.942 6.287 9.704 7.432 11.643z" class="H"/></g><g class="E F"><path d="M101.129 897.277c7.857-13.788 15.153-28.046 20.138-43.099 6.763-20.422 11.167-41.784 12.979-63.22.489-5.791-.16-11.635-.59-17.424" stroke="#020000"/><path d="M89.87 903.087l-9.981-5.22-9.959-5.487" class="C"/></g></g><g transform="matrix(-1 0 0 -.940225 366.84323 1527.8409)" class="C N B"><g class="F"><path d="M297 743.362v-152l14.5-13 12.5 13v154.5" class="J"/><use xlink:href="#B" class="E"/></g><g class="G"><ellipse cx="311.215" cy="802.488" rx="7.159" ry="7.336"/><use xlink:href="#C" class="F"/></g></g><g class="B C D"><path d="M83.513 826.717c-.457 2.399-3.496 4.795-5.398 4.955s-4.899-2.599-6.862-2.33c-3.926.539-7.925.703-11.798.83-5.198.17-10.553.871-15.599-.392-3.239-.811-7.258-1.62-8.95-4.498-1.55-2.635-1.794-7.017.384-9.162 2.312-2.277 7.089-2.143 9.733-.26 1.754 1.249.242 4.845 1.947 6.158 3.897 3.001 9.824.918 14.738.706 3.899-.169 7.699-1.527 11.601-1.568 2.666-.028 5.771-.635 7.946.906 1.407.997 2.58 2.961 2.257 4.655z" class="G"/><path d="M230.045 903.461c18.042-7.851 37.179-17.743 54.482-28.821 16.04-10.27 32.089-21.06 45.403-34.69" class="E F"/></g><use xlink:href="#D" class="I"/><path d="M207.285 844.232l.481-49.279s-2.764-1.596-3.606-2.885c-.68-1.042-.8-2.372-.962-3.606-.177-1.351 0-4.087 0-4.087s-2.419 1.785-3.846 1.923c-1.49.144-3.052-.417-4.327-1.202-1.014-.625-2.404-2.644-2.404-2.644s-1.446 10.728-1.202 16.106c.265 5.843 1.434 11.642 2.885 17.308 1.326 5.18 3.052 10.287 5.288 15.144 2.132 4.631 7.692 13.221 7.692 13.221z" class="L"/><path d="M55.112 975.986l-12.135-11.557m13.291 3.178L44.133 956.05m13.869 4.045l-14.735-14.446m13.868 4.911l-13.769-13.192m12.917 4.081L43.33 929.074m12.121 3.538l-12.544-12.17m13.361 3.537L42.907 911.4m14.517 5.356l-13.565-13.6m14.586 5.46l-15.199-14.417m14.178 5.799l-14.178-13.6m12.05 3.213l-12.135-11.557m12.17 3.587l-12.135-11.557m12.628 3.756L43.69 862.283m13.156 4.488L43.69 853.784m11.472 2.84L43.844 845.68m10.909 1.783l-10.909-10.74m11.741 2.46l-9.275-8.697" class="B C D E F"/><g transform="matrix(1 0 0 -1 -47.37459 1572.8574)" class="C B"><g class="E"><g class="D"><use xlink:href="#E"/><use xlink:href="#F"/><use xlink:href="#G"/></g><ellipse transform="matrix(1 0 0 .923077 0 520.11538)" cx="208.064" cy="106.494" rx="5.399" ry="3.948" class="O"/></g><g class="D"><g class="I"><ellipse cx="208.401" cy="617.574" rx="1.957" ry="1.518"/><use xlink:href="#H"/></g><use xlink:href="#I" class="E F"/><g class="I"><use xlink:href="#J"/><use xlink:href="#K"/><use xlink:href="#L"/><use xlink:href="#M"/></g><g class="E"><use xlink:href="#N" class="F"/><use xlink:href="#O"/></g></g><ellipse transform="matrix(-.862523 .133435 .119568 .924755 409.32661 491.36765)" cx="208.064" cy="106.494" rx="5.399" ry="3.948" class="E P"/><ellipse transform="matrix(-.862523 .133435 .129532 1.001818 408.32233 483.60035)" cx="208.401" cy="105.212" rx="1.957" ry="1.518" class="I Q"/><path d="M215.75 622.237l-5.125 4.5m25.125-2.875l5.125 3.75" class="D E F"/></g><path d="M209.142 974.023l-.066-5.795-1.302-9.817-.501-7.513.2-9.817-.701-7.813-2.104-10.618-1.47-7.895.168-4.626m4.413 46.878s.403-2.349.936-3.394c.681-1.335 1.612-2.61 2.809-3.511 1.215-.915 2.694-1.834 4.213-1.756 1.552.08 3.214.945 4.096 2.224.827 1.199.861 2.9.585 4.33-.255 1.321-.84 2.812-1.99 3.511-.901.547-2.186.52-3.16.117-.689-.285-1.215-.959-1.522-1.639-.323-.715-.234-2.341-.234-2.341s-1.309 2.121-1.756 3.277c-.579 1.501-.878 3.1-1.17 4.682-.236 1.275-.247 2.584-.468 3.862-.211 1.222-.819 3.628-.819 3.628m-1.871-20.715s.638-4.424 1.287-6.554c.617-2.024 1.373-4.036 2.458-5.852.669-1.119 1.433-2.237 2.458-3.043 1.289-1.015 4.447-2.107 4.447-2.107s-2.482 1.804-2.575 3.16c-.072 1.048.782 2.084 1.639 2.692.911.647 2.172.865 3.277.702 1.278-.189 2.572-.876 3.394-1.873.887-1.075 1.306-2.585 1.287-3.979-.019-1.407-.494-2.907-1.404-3.979-1.152-1.358-2.923-2.293-4.682-2.575-1.881-.301-3.898.234-5.618 1.053-1.524.726-2.844 1.931-3.862 3.277-1.19 1.573-2.458 5.384-2.458 5.384" class="B C D E F"/><g transform="rotate(180 179.965 782.31)" class="B C D E F"><use xlink:href="#P"/><use xlink:href="#Q"/><use xlink:href="#R"/><use xlink:href="#S"/><use xlink:href="#T"/><use xlink:href="#U"/><use xlink:href="#V"/><path d="M212.216 642.1c1.198 2.347 2.846 4.466 4.706 6.321.723.721 1.621 1.242 2.46 1.823"/></g><g transform="rotate(180 184.038 786.445)" class="B C D J"><use xlink:href="#W"/><g class="F"><use xlink:href="#X"/><use xlink:href="#Y"/><path d="M311.428 766.376c1.583.017 4.293 1.356 4.515 3.172.222.627.239 1.301.261 1.959"/><use xlink:href="#Z"/><path d="M312.763 773.027c1.588.774 3.133 3.152 2.631 4.768l-.162.787m-3.239-22.644c.409 1.334 1.048 3.118 2.724 3.116 1.984.11 3.864-.613 5.591-1.524"/><use xlink:href="#a"/><path d="M313.232 785.748c-1.951.686-3.85 2.671-2.507 3.923.695.879 2.527 1.47 3.569 1.65m.496-11.411c1.087.841 1.566 1.808 1.61 2.919.035.873-.869 1.989-1.079 2.389m.299.972c1.138.738 2.475 2.032 1.619 3.488a9.01 9.01 0 0 1-.558 1.2"/></g></g><path d="M61.216 778.919s3.527 9.269 4.063 14.146c.447 4.072-.747 12.267-.747 12.267l-5.128 4.526-5.567-1.007s4.718-2.321 5.875-4.5c.4-.755.514-1.785.15-2.558-.41-.873-2.331-1.714-2.331-1.714s2.25-.479 2.974-1.279c.639-.706 1.181-1.827.862-2.725-.618-1.738-4.626-3.037-4.626-3.037s3.012-1.292 2.67-4.036c-.301-2.418-5.53-1.679-5.53-1.679s3.906-.672 3.597-3.34c-.241-2.081-3.889-2.169-3.889-2.169l3.916-1.257z" class="B C D G"/><g transform="rotate(180 179.965 782.31)" class="B D E F"><path d="M169.352 671.585l38.891 27.577 50.198-31.442m-81.311 22.957l31.113 22.274 39.952-25.456m-65.272 19.011l24.966 17.759 33.234-21.567m-53.033 18.031l20.506 15.203 27.224-18.385m-44.901 17.678l18.711 12.007 21.948-15.543m-38.184 16.971l15.76 9.668 20.982-14.822m-36.742 15.76l8.485 7.778m13.925-.258l11.735-10.66m-2.325 13.04l-5.888 4.922m-44.317-97.553v10.607m11.314-2.922v12.467m10.818-4.774l.142 12.199m10.606-4.596l.354 13.081m11.667-20.152l.284 12.305m11.383-20.083v12.374m11.846-19.623l-.178 12.906" class="K"/><g class="C"><use xlink:href="#b"/><use xlink:href="#c"/><use xlink:href="#d"/><use xlink:href="#e"/><use xlink:href="#f"/><use xlink:href="#g"/><use xlink:href="#h"/><use xlink:href="#i"/><use xlink:href="#j"/><use xlink:href="#j" x="4.795" y="-2.452"/><use xlink:href="#k"/><use xlink:href="#l"/><use xlink:href="#m"/><use xlink:href="#n"/><use xlink:href="#o"/><use xlink:href="#p"/><use xlink:href="#q"/><use xlink:href="#r"/><use xlink:href="#s"/><use xlink:href="#t"/><use xlink:href="#u"/><path d="M149.871 646.097s1.376-1.41 2.285-1.548c.838-.127 2.433.737 2.433.737"/></g></g><g class="B D E F"><path d="M194.605 890.944s-7.43-10.331-10.391-15.94c-3.872-7.336-6.864-15.132-9.546-22.981-2.329-6.817-4.273-13.79-5.657-20.86-1.118-5.709-1.767-11.517-2.121-17.324-.316-5.176-.063-10.371 0-15.556l.354-14.496m25.456-4.596s-1.099 9.887-1.061 14.849c.042 5.441.376 10.922 1.414 16.263 1.152 5.928 2.958 11.759 5.303 17.324 2.765 6.561 6.228 12.865 10.253 18.738 2.789 4.07 6.235 7.655 9.546 11.314 3.747 4.14 7.518 8.284 11.667 12.021 3.118 2.808 6.563 5.233 9.899 7.778 3.148 2.402 6.268 4.849 9.546 7.071 2.25 1.525 6.936 4.288 6.936 4.288" class="M"/><path d="M207.884 844.658l.018-49.911" class="K"/><path d="M287.683 872.391l.123-88.957m8.358 83.438v-71.409m4.85 67.633l-.127-65.068" class="C"/></g><use xlink:href="#D" x="-57.042" y="-29.024" class="I"/><path d="M152.046 719.962l-.018 49.911" class="B D E F K"/><g class="J"><path d="M94.474 874.272c-.184-1.051-.66-2.263-2.121-3.064-2.63-1.443-5.453-.457-6.789 1.979s-.785 5.589 1.845 7.032c1.461.802 2.021.475 3.298.225l.159.404c-1.278.25-4.526 1.319-5.461 3.024-1.069 1.948-.359 5.506 1.979 6.789s5.72-.031 6.789-1.979c.935-1.705.092-5.019-.384-6.23l.426-.083c.476 1.212.501 1.859 1.962 2.661 2.63 1.443 5.586.213 6.922-2.222s.651-5.346-1.979-6.789c-1.461-.802-2.739-.552-3.724-.142l-.159-.404 1.921-2.115c.96-1.057 3.173-3.012 3.173-3.012-3.19-1.116-3.19-1.116-5.845-3.206l-.835 4.294c-.376 1.378-.242 1.134-.752 2.756zM114.1 805.58c-.571-.902-1.473-1.84-3.129-2.024-2.982-.331-5.215 1.657-5.521 4.418s1.405 5.466 4.387 5.797c1.656.184 2.049-.331 3.135-1.049l.301.313c-1.086.718-3.681 2.945-3.895 4.878-.245 2.209 1.767 5.227 4.418 5.521s5.276-2.209 5.521-4.418c.215-1.933-1.829-4.675-2.731-5.613l.362-.239c.902.939 1.172 1.528 2.828 1.711 2.982.331 5.245-1.933 5.552-4.694s-1.436-5.19-4.418-5.521c-1.656-.184-2.742.534-3.497 1.289l-.301-.313.969-2.687c.485-1.344 1.785-3.994 1.785-3.994-3.374.184-3.374.184-6.626-.736l.865 4.288c.178 1.417.209 1.141.356 2.834z"/><use xlink:href="#v"/><use xlink:href="#v" y="-30"/></g><g transform="rotate(180 13.965 718.81)" class="B D E"><circle cx="-80" cy="592.362" r="10" stroke="#fffdff"/><circle cx="-80" cy="592.362" r="5" stroke="#fff" class="J"/></g><g transform="rotate(180 179.965 782.31)" class="G"><use xlink:href="#w"/><use xlink:href="#x"/><ellipse cx="166.657" cy="733.024" rx="3.968" ry="3.673"/><ellipse cx="181.57" cy="773.071" rx="5.237" ry="5.26"/></g><g class="I"><use xlink:href="#D" x="-57.545" y="10.321"/><use xlink:href="#D" x="-38.084" y="32.548"/><use xlink:href="#D" x="-19.294" y="45.467"/><use xlink:href="#D" x="-0.335" y="29.864"/></g><g transform="rotate(180 179.965 782.31)"><g class="B D"><use xlink:href="#y" class="G K"/><use xlink:href="#z" stroke="#000200"/><ellipse cx="106.95" cy="759.974" rx="29.875" ry="30.406" class="K"/></g><g class="G"><ellipse transform="matrix(.983398 0 0 .940641 2.307219 527.38173)" cx="127.804" cy="248.455" rx="2.542" ry="2.658"/><ellipse transform="matrix(.983398 0 0 .940641 -18.810903 524.71811)" cx="127.804" cy="248.455" rx="2.542" ry="2.658"/><ellipse transform="matrix(.983398 0 0 .940641 -8.22961 525.50881)" cx="127.804" cy="248.455" rx="2.542" ry="2.658"/><ellipse transform="matrix(.983398 0 0 .940641 -18.978675 513.98069)" cx="127.804" cy="248.455" rx="2.542" ry="2.658"/><ellipse transform="matrix(.983398 0 0 .940641 -18.475358 504.41767)" cx="127.804" cy="248.455" rx="2.542" ry="2.658"/><ellipse transform="matrix(.983398 0 0 .940641 -30.219416 525.72475)" cx="127.804" cy="248.455" rx="2.542" ry="2.658"/><ellipse transform="matrix(.983398 0 0 .940641 -40.567311 527.3543)" cx="127.804" cy="248.455" rx="2.542" ry="2.658"/></g><g class="B D E F H"><use xlink:href="#AA"/><path d="M117.441 733.092l.336 15.603 9.06 1.007c2.505.478 7.382 2.013 7.382 2.013"/><use xlink:href="#AB"/><path d="M96.637 733.427l-.671 15.938-8.892 1.174-7.382 1.678"/><use xlink:href="#AC"/></g><g class="G B H"><use xlink:href="#AD"/><g class="D"><use xlink:href="#AE"/><use xlink:href="#AF"/><use xlink:href="#AG"/><use xlink:href="#AH"/></g></g><use xlink:href="#AI" class="C D G"/><use xlink:href="#AJ"/><use xlink:href="#AK"/><use xlink:href="#AL"/><use xlink:href="#AM"/><use xlink:href="#AN"/><use xlink:href="#AO"/><use xlink:href="#AP"/><use xlink:href="#AQ" class="L"/><use xlink:href="#AR"/><use xlink:href="#AS"/><use xlink:href="#AT"/></g><path d="M340 1022.362v-30-20h-5v15l-3 7-7-22h-5l9 28-9 22h5l10-24v24zm-320-480v30 20h5v-15l3-7 7 22h5l-9-28 9-22h-5l-10 24v-24z"/><path d="M30 662.362v360h270m-240-480h270v360" class="C D E"/><path d="M179.496 665.861l28.872 20.428 23.288-14.3 5.856 2.315 4.086-.817 3.132-1.498 1.362 1.09 4.086-.136-41.673 25.876-38.541-27.374 2.996-2.179.545-1.226 2.588 1.09 2.179-1.09z"/><path d="M179.959 666.282l28.638 20.153 24.042-14.849-3.298-2.456-4.767-5.175-.272 6.265-2.86 4.358-3.541 3.405-5.448 1.362-8.852.272-8.988-4.63-6.673-7.218-3.949-6.128-2.996-5.039-.681 5.856z" class="L"/><path d="M289.426 692.503l.721 41.587-2.885 1.202-4.808-2.404-5.048 2.163-.962 5.048 3.125 3.365h5.529l8.894-.481 9.135-2.404 6.49.481 4.327 3.125v3.125l-3.365-.481-5.529.24-4.567-.962-7.212.721-3.846.962-3.125 6.01-.962 7.933v7.933l1.442 6.25 1.923 3.846 3.606 4.087-19.471-.481-6.01-3.846-3.846-2.404 1.442-12.5 3.606-21.154 5.048-18.269 4.567-11.539 5.048-10.337zm-121.396 93.27l23.808-6.25 1.433-20.914-1.192-18.77-2.654-11.76-3.606-13.942-4.808-12.74-5.529-11.058-5.048-9.856-5.529-8.173-5.529 2.163-3.365-.24-5.289.721-3.365-1.683-5.289.962-2.885-2.885-1.683-2.163-3.846-2.404-2.163-2.404-1.202-3.365-14.664 6.971-13.942 6.731 11.779 7.212 15.144 11.779 12.019 11.539 9.856 11.298 6.731 10.817 6.01 12.26 4.087 16.346 1.202 13.702z"/><g class="B D"><g class="G"><path d="M256.68 774.823c1.368-16.939 3.731-33.99 8.784-50.213 3.797-12.192 9.505-23.812 15.993-34.81 2.441-4.138 5.655-7.96 8.551-11.6l-.126 11.817c-7.513 12.773-14.45 26.245-18.946 40.435-4.754 15.004-6.222 30.875-8.245 46.493l-6.01-2.121z" class="K"/><path d="M166.468 671.369l2.477.495 39.004 27.93 42.744-26.939.495-2.725 2.725.991 4.459-3.22-8.175 15.359-9.661 20.561-5.698 18.662-4.211 16.514-2.725 15.359-2.18 12.486-.05 9.314-3.22-2.477-6.441.991.495-6.936-2.973-4.707-5.945-.248-4.954 2.477-.743 4.211 1.239 4.954-6.193-1.239-3.716 3.22.495-16.845-.512-13.172-1.717-11.104-3.303-14.418-3.699-11.214-5.785-15.942-6.287-9.704-7.432-11.643z" class="H"/></g><g class="E F"><path d="M258.801 667.343c-7.857 13.788-15.153 28.046-20.138 43.099-6.763 20.422-11.167 41.784-12.979 63.22-.489 5.791.16 11.635.59 17.424" stroke="#020000"/><path d="M270.06 661.533l9.981 5.22L290 672.24" class="C"/></g></g><g class="B C D J"><use xlink:href="#W" x="-8.146" y="-8.269"/><g class="F"><use xlink:href="#X" x="-8.146" y="-8.269"/><use xlink:href="#Y" x="-8.146" y="-8.269"/><path d="M303.282 758.107c1.583.017 4.293 1.356 4.515 3.172.222.627.239 1.301.261 1.959"/><use xlink:href="#Z" x="-8.146" y="-8.269"/><path d="M304.617 764.758c1.588.774 3.133 3.152 2.631 4.768l-.162.787m-3.239-22.644c.409 1.334 1.048 3.118 2.724 3.116 1.984.11 3.864-.613 5.591-1.524"/><use xlink:href="#a" x="-8.146" y="-8.269"/><path d="M305.086 777.479c-1.951.686-3.85 2.671-2.507 3.923.695.879 2.527 1.47 3.569 1.65m.496-11.411c1.087.841 1.566 1.808 1.61 2.919.035.873-.869 1.989-1.079 2.389m.299.972c1.138.738 2.475 2.032 1.619 3.488a9.01 9.01 0 0 1-.558 1.2"/></g></g><g transform="matrix(1 0 0 .940225 -6.912889 36.779087)" class="C N B"><g class="F"><path d="M297 743.362v-152l14.5-13 12.5 13v154.5" class="J"/><use xlink:href="#B" class="E"/></g><g class="G"><ellipse cx="311.215" cy="802.488" rx="7.159" ry="7.336"/><use xlink:href="#C" class="F"/></g></g><g class="B C D"><path d="M276.417 737.903c.457-2.399 3.496-4.795 5.398-4.955s4.899 2.599 6.862 2.33c3.926-.539 7.925-.703 11.798-.83 5.198-.17 10.553-.871 15.599.392 3.239.811 7.258 1.62 8.95 4.498 1.55 2.635 1.794 7.017-.384 9.162-2.312 2.277-7.089 2.143-9.733.26-1.754-1.249-.242-4.845-1.947-6.158-3.897-3.001-9.824-.918-14.738-.706-3.899.169-7.699 1.527-11.601 1.568-2.666.028-5.771.635-7.946-.906-1.407-.997-2.58-2.961-2.257-4.655z" class="G"/><path d="M129.885 661.159c-18.042 7.851-37.179 17.743-54.482 28.821-16.04 10.27-32.089 21.06-45.403 34.69" class="E F"/></g><use xlink:href="#AU" class="I"/><path d="M304.818 588.634l12.135 11.557m-13.291-3.178l12.135 11.557m-13.868-4.045l14.735 14.446m-13.869-4.911l13.769 13.192m-12.916-4.081l12.952 12.374m-12.121-3.536l12.544 12.17m-13.361-3.538l13.361 12.579m-14.516-5.356l13.565 13.6m-14.587-5.46l15.199 14.417m-14.177-5.799l14.178 13.6m-12.051-3.213l12.135 11.557m-12.17-3.587l12.135 11.557m-12.628-3.756l12.135 11.557m-13.157-4.488l13.156 12.987m-11.472-2.84l11.318 10.944m-10.909-1.783l10.909 10.74m-11.741-2.46l9.275 8.697" class="B C D E F"/><g transform="matrix(-1 0 0 1 407.30493 -8.237413)" class="C B"><g class="E"><g class="D"><use xlink:href="#E"/><use xlink:href="#F"/><use xlink:href="#G"/></g><ellipse transform="matrix(1 0 0 .923077 0 520.11538)" cx="208.064" cy="106.494" rx="5.399" ry="3.948" class="O"/></g><g class="D"><g class="I"><ellipse cx="208.401" cy="617.574" rx="1.957" ry="1.518"/><use xlink:href="#H"/></g><use xlink:href="#I" class="E F"/><g class="I"><use xlink:href="#J"/><use xlink:href="#K"/><use xlink:href="#L"/><use xlink:href="#M"/></g><g class="E"><use xlink:href="#N" class="F"/><use xlink:href="#O"/></g></g><ellipse transform="matrix(-.862523 .133435 .119568 .924755 409.32661 491.36765)" cx="208.064" cy="106.494" rx="5.399" ry="3.948" class="E P"/><ellipse transform="matrix(-.862523 .133435 .129532 1.001818 408.32233 483.60035)" cx="208.401" cy="105.212" rx="1.957" ry="1.518" class="I Q"/><path d="M215.75 622.237l-5.125 4.5m25.125-2.875l5.125 3.75" class="D E F"/></g><g class="B D C"><g class="E F"><path d="M150.788 590.597l.066 5.795 1.302 9.817.501 7.513-.2 9.817.701 7.813 2.104 10.618 1.47 7.895-.168 4.626m-4.413-46.878s-.403 2.349-.936 3.394c-.681 1.335-1.612 2.61-2.809 3.511-1.215.915-2.694 1.834-4.213 1.756-1.552-.08-3.214-.945-4.096-2.224-.827-1.199-.861-2.9-.585-4.33.255-1.321.84-2.812 1.99-3.511.901-.547 2.186-.52 3.16-.117.689.285 1.215.959 1.522 1.639.323.715.234 2.341.234 2.341s1.309-2.121 1.756-3.277c.579-1.501.878-3.1 1.17-4.682.236-1.275.247-2.584.468-3.862.211-1.222.819-3.628.819-3.628m1.871 20.715s-.638 4.424-1.287 6.554c-.617 2.024-1.373 4.036-2.458 5.852-.669 1.119-1.433 2.237-2.458 3.043-1.289 1.015-4.447 2.107-4.447 2.107s2.482-1.804 2.575-3.16c.072-1.048-.782-2.084-1.639-2.692-.911-.647-2.172-.865-3.277-.702-1.278.189-2.572.876-3.394 1.873-.887 1.075-1.306 2.585-1.287 3.979.019 1.407.494 2.907 1.404 3.979 1.152 1.358 2.923 2.293 4.682 2.575 1.881.301 3.898-.234 5.618-1.053 1.524-.726 2.844-1.931 3.862-3.277 1.19-1.573 2.458-5.384 2.458-5.384"/><use xlink:href="#P"/><use xlink:href="#Q"/><use xlink:href="#R"/><use xlink:href="#S"/><use xlink:href="#T"/><use xlink:href="#U"/><use xlink:href="#V"/><path d="M212.216 642.1c1.198 2.347 2.846 4.466 4.706 6.321.723.721 1.621 1.242 2.46 1.823"/></g><path d="M298.715 785.701s-3.527-9.269-4.063-14.146c-.447-4.072.747-12.267.747-12.267l5.128-4.526 5.567 1.007s-4.718 2.321-5.875 4.5c-.4.755-.514 1.785-.15 2.558.41.873 2.331 1.714 2.331 1.714s-2.25.479-2.974 1.279c-.639.706-1.181 1.827-.862 2.725.618 1.738 4.626 3.037 4.626 3.037s-3.012 1.292-2.67 4.036c.301 2.418 5.53 1.679 5.53 1.679s-3.906.672-3.597 3.34c.241 2.081 3.889 2.169 3.889 2.169l-3.916 1.257z" class="G"/></g><path d="M169.352 671.585l38.891 27.577 50.198-31.442m-81.311 22.957l31.113 22.274 39.952-25.456m-65.272 19.011l24.966 17.759 33.234-21.567m-53.033 18.031l20.506 15.203 27.224-18.385m-44.901 17.678l18.711 12.007 21.948-15.543m-38.184 16.971l15.76 9.668 20.982-14.822m-36.742 15.76l8.485 7.778m13.925-.258l11.735-10.66m-2.325 13.04l-5.888 4.922m-44.317-97.553v10.607m11.314-2.922v12.467m10.818-4.774l.142 12.199m10.606-4.596l.354 13.081m11.667-20.152l.284 12.305m11.383-20.083v12.374m11.846-19.623l-.178 12.906" class="B D E F K"/><g class="B D E F"><g class="C"><use xlink:href="#b"/><use xlink:href="#c"/><use xlink:href="#d"/><use xlink:href="#e"/><use xlink:href="#f"/><use xlink:href="#g"/><use xlink:href="#h"/><use xlink:href="#i"/><use xlink:href="#j"/><use xlink:href="#j" x="4.795" y="-2.452"/><use xlink:href="#k"/><use xlink:href="#l"/><use xlink:href="#m"/><use xlink:href="#n"/><use xlink:href="#o"/><use xlink:href="#p"/><use xlink:href="#q"/><use xlink:href="#r"/><use xlink:href="#s"/><use xlink:href="#t"/><use xlink:href="#u"/><path d="M149.871 646.097s1.376-1.41 2.285-1.548c.838-.127 2.433.737 2.433.737"/></g><path d="M165.325 673.676s7.43 10.331 10.391 15.94c3.872 7.336 6.864 15.132 9.546 22.981 2.329 6.817 4.273 13.79 5.657 20.86 1.118 5.709 1.767 11.517 2.121 17.324.316 5.176.063 10.371 0 15.556l-.354 14.496m-25.456 4.596s1.099-9.887 1.061-14.849c-.042-5.441-.376-10.922-1.414-16.263-1.152-5.928-2.958-11.759-5.303-17.324-2.765-6.561-6.228-12.865-10.253-18.738-2.789-4.07-6.235-7.655-9.546-11.314-3.747-4.14-7.518-8.284-11.667-12.021-3.118-2.808-6.563-5.233-9.9-7.778-3.148-2.402-6.268-4.849-9.546-7.071-2.25-1.525-6.936-4.288-6.936-4.288" class="M"/><path d="M72.248 692.229l-.123 92.955m-8.358-87.436v71.559m-4.851-67.783l.127 65.068" class="C"/></g><use xlink:href="#AU" x="57.043" y="29.024" class="I"/><g class="B C D"><use xlink:href="#AV" class="J"/><path d="M209.181 770.781l-9.05 8.844 9.256 8.844 10.079-9.461z" class="I"/></g><circle transform="matrix(1.203003 0 0 1.234963 -14.480566 538.13115)" cx="186.546" cy="195.472" r="4.133" class="B C G R"/><g class="J"><path d="M265.456 690.348c.184 1.051.66 2.263 2.121 3.064 2.63 1.443 5.453.457 6.789-1.979s.785-5.589-1.845-7.032c-1.461-.802-2.021-.475-3.298-.225l-.159-.404c1.278-.25 4.526-1.319 5.461-3.024 1.069-1.948.359-5.506-1.979-6.789s-5.72.031-6.789 1.979c-.935 1.705-.092 5.019.384 6.23l-.426.083c-.476-1.212-.501-1.859-1.962-2.661-2.63-1.443-5.586-.213-6.922 2.222s-.651 5.346 1.979 6.789c1.461.802 2.739.552 3.724.142l.159.404-1.921 2.115c-.96 1.057-3.173 3.012-3.173 3.012 3.19 1.116 3.19 1.116 5.845 3.206l.835-4.294c.376-1.378.242-1.134.752-2.756zM245.83 759.04c.571.902 1.473 1.84 3.129 2.024 2.982.331 5.215-1.657 5.521-4.418s-1.405-5.466-4.387-5.797c-1.656-.184-2.049.331-3.135 1.049l-.301-.313c1.086-.718 3.681-2.945 3.895-4.878.245-2.209-1.767-5.227-4.418-5.521s-5.276 2.209-5.521 4.418c-.215 1.933 1.829 4.675 2.731 5.613l-.362.239c-.902-.939-1.172-1.528-2.828-1.711-2.982-.331-5.245 1.933-5.552 4.694s1.436 5.19 4.418 5.521c1.656.184 2.742-.534 3.497-1.289l.301.313-.969 2.687c-.485 1.344-1.785 3.994-1.785 3.994 3.374-.184 3.374-.184 6.626.736l-.865-4.288c-.178-1.417-.209-1.141-.356-2.834z"/><use xlink:href="#AW"/><use xlink:href="#AW" y="30"/></g><g class="B D E"><circle cx="252" cy="719.362" r="10" stroke="#fffdff"/><circle cx="252" cy="719.362" r="5" stroke="#fff" class="J"/></g><g class="G"><use xlink:href="#w"/><use xlink:href="#x"/><ellipse cx="166.657" cy="733.024" rx="3.968" ry="3.673"/><ellipse cx="181.57" cy="773.071" rx="5.237" ry="5.26"/></g><g class="I"><use xlink:href="#AU" x="57.545" y="-10.321"/><use xlink:href="#AU" x="38.084" y="-32.548"/><use xlink:href="#AU" x="19.294" y="-45.467"/><use xlink:href="#AU" x="0.336" y="-29.864"/></g><g class="B D K"><ellipse cx="106.95" cy="759.974" rx="29.875" ry="30.406"/><use xlink:href="#y" class="G"/></g><use xlink:href="#z" stroke="#000200" class="B D"/><g class="G"><ellipse transform="matrix(.983398 0 0 .940641 2.307219 527.38173)" cx="127.804" cy="248.455" rx="2.542" ry="2.658"/><ellipse transform="matrix(.983398 0 0 .940641 -18.810903 524.71811)" cx="127.804" cy="248.455" rx="2.542" ry="2.658"/><ellipse transform="matrix(.983398 0 0 .940641 -8.22961 525.50881)" cx="127.804" cy="248.455" rx="2.542" ry="2.658"/><ellipse transform="matrix(.983398 0 0 .940641 -18.978675 513.98069)" cx="127.804" cy="248.455" rx="2.542" ry="2.658"/><ellipse transform="matrix(.983398 0 0 .940641 -18.475358 504.41767)" cx="127.804" cy="248.455" rx="2.542" ry="2.658"/><ellipse transform="matrix(.983398 0 0 .940641 -30.219416 525.72475)" cx="127.804" cy="248.455" rx="2.542" ry="2.658"/><ellipse transform="matrix(.983398 0 0 .940641 -40.567311 527.3543)" cx="127.804" cy="248.455" rx="2.542" ry="2.658"/></g><g class="B D E F H"><use xlink:href="#AA"/><path d="M117.441 733.092l.336 15.603 9.06 1.007c2.505.478 7.382 2.013 7.382 2.013"/><use xlink:href="#AB"/><path d="M96.637 733.427l-.671 15.938-8.892 1.174-7.382 1.678"/><use xlink:href="#AC"/></g><g class="G"><use xlink:href="#AD" class="B H"/><g class="D"><use xlink:href="#AE" class="B H"/><use xlink:href="#AF" class="B H"/><use xlink:href="#AG" class="B H"/><use xlink:href="#AH" class="B H"/><use xlink:href="#AI" class="C"/></g></g><use xlink:href="#AJ"/><use xlink:href="#AK"/><use xlink:href="#AL"/><use xlink:href="#AM"/><use xlink:href="#AN"/><use xlink:href="#AO"/><use xlink:href="#AP"/><use xlink:href="#AQ" class="L"/><use xlink:href="#AR"/><use xlink:href="#AS"/><use xlink:href="#AT"/><g transform="rotate(180 179.965 782.31)" class="C B"><g class="D"><use xlink:href="#AV" class="J"/><path d="M209.181 770.781l-9.05 8.844 9.256 8.844 10.079-9.461z" class="I"/></g><circle transform="matrix(1.203003 0 0 1.234963 -14.480566 538.13115)" cx="186.546" cy="195.472" r="4.133" class="G R"/></g><path d="M95.008 613.346c1.984 4.004 6.98 10.028 11.976 10.028 9 0 13.004-8.008 13.004-18 0-10.028-4.004-19.028-13.004-19.028-4.996 0-7.972 5.031-10.984 8.008-.992.992-1.984 0-.992-.992 2.976-3.012 8.008-10.984 8.008-18 0-8.008-5.031-18-13.004-18-8.008 0-13.004 9.992-13.004 18 0 7.016 4.996 14.988 8.008 18 .992.992 0 1.984-1.028.992-2.976-2.976-5.988-8.008-10.984-8.008-9 0-13.004 9-13.004 19.028 0 9.992 4.004 18 13.004 18 4.996 0 9.992-6.024 12.012-10.028.992-.992.992 0 .992 1.028-.992 7.972-.992 9.992-2.02 15.98-.992 6.024-4.004 17.008-4.004 17.008 5.031-1.984 15.024-1.984 20.02 0 0 0-3.012-10.984-4.004-17.008-.992-5.988-.992-8.008-1.984-15.98 0-1.028 0-2.02.992-1.028zm-62.504 17.008c.992 2.02 3.508 4.996 5.988 4.996 4.5 0 6.52-4.004 6.52-9s-2.02-9.496-6.52-9.496c-2.48 0-4.004 2.516-5.492 4.004-.496.496-.992 0-.496-.496 1.488-1.488 4.004-5.492 4.004-9 0-4.004-2.516-9-6.52-9s-6.484 4.996-6.484 9c0 3.508 2.48 7.512 4.004 9 .496.496 0 .992-.496.496-1.524-1.488-3.012-4.004-5.528-4.004-4.5 0-6.484 4.5-6.484 9.496s1.984 9 6.484 9c2.516 0 5.031-2.976 6.024-4.996.496-.496.496 0 .496.496-.496 4.004-.496 4.996-.992 8.008s-2.02 8.504-2.02 8.504c2.516-.992 7.512-.992 9.992 0 0 0-1.488-5.492-1.984-8.504s-.496-4.004-.992-8.008c0-.496 0-.992.496-.496z"/><path d="M80.008 55.984c1.984 4.004 6.98 10.028 11.976 10.028 9 0 13.004-8.008 13.004-18 0-10.028-4.004-19.028-13.004-19.028-4.996 0-7.972 5.031-10.984 8.008-.992.992-1.984 0-.992-.992 2.976-3.012 8.008-10.984 8.008-18 0-8.008-5.031-18-13.004-18-8.008 0-13.004 9.992-13.004 18 0 7.016 4.996 14.988 8.008 18 .992.992 0 1.984-1.028.992-2.976-2.976-5.988-8.008-10.984-8.008-9 0-13.004 9-13.004 19.028 0 9.992 4.004 18 13.004 18 4.996 0 9.992-6.024 12.012-10.028.992-.992.992 0 .992 1.028-.992 7.972-.992 9.992-2.02 15.98C67.996 79.016 64.984 90 64.984 90c5.031-1.984 15.024-1.984 20.02 0 0 0-3.012-10.984-4.004-17.008-.992-5.988-.992-8.008-1.984-15.98 0-1.028 0-2.02.992-1.028zM17.504 72.992c.992 2.02 3.508 4.996 5.988 4.996 4.5 0 6.52-4.004 6.52-9s-2.02-9.496-6.52-9.496c-2.48 0-4.004 2.516-5.492 4.004-.496.496-.992 0-.496-.496 1.488-1.488 4.004-5.492 4.004-9 0-4.004-2.516-9-6.52-9s-6.484 4.996-6.484 9c0 3.508 2.48 7.512 4.004 9 .496.496 0 .992-.496.496-1.524-1.488-3.012-4.004-5.528-4.004-4.5 0-6.484 4.5-6.484 9.496s1.984 9 6.484 9c2.516 0 5.031-2.976 6.024-4.996.496-.496.496 0 .496.496-.496 4.004-.496 4.996-.992 8.008S9.992 90 9.992 90c2.516-.992 7.512-.992 9.992 0 0 0-1.488-5.492-1.984-8.504s-.496-4.004-.992-8.008c0-.496 0-.992.496-.496z" transform="rotate(180 172.494 503.681)"/></g><defs ><path id="B" d="M312.056 578.779s-2.944 17.131-3.145 25.8c-.203 8.765 2.059 17.453 1.967 26.221-.104 9.832-3.135 19.517-2.825 29.344.224 7.092 3.056 13.896 3.37 20.984.331 7.459-1.826 14.876-1.578 22.339.164 4.919 1.785 9.694 2.016 14.611.224 4.761.132 9.585-.616 14.285-.682 4.287-3.5 12.5-3.5 12.5"/><path id="C" d="M308.762 795.699c-1.733 1.743-1.885 3.151-1.789 4.9.111 2.025 1.293 3.984 2.679 5.377.671.674 1.608 1.056 2.517 1.23.77.147 1.904.118 2.342-.188"/><path id="D" d="M278.351 841.091l5.423-18.355s-1.537 1.369-2.446 1.251c-.767-.099-1.304-.901-1.728-1.548-.865-1.322-1.487-4.501-1.487-4.501s-.298 2.803-1.014 3.963c-.414.671-1.005 1.442-1.785 1.55-.718.099-1.967-.926-1.967-.926z"/><path id="E" d="M219.278 604.941c-.293-.788-4.449-1.182-6.709-1.506-2.721-.389-5.49-.862-8.21-.518-3.056.387-6.143 1.251-8.857 2.872-1.233.737-3.22 3.024-3.22 3.024s5.556-3.215 8.557-4.087c2.314-.672 4.743-.858 7.138-.836 2.341.021 4.644.76 6.98.946 1.438.115 4.883 1.617 4.321.105z"/><path id="F" d="M219.438 615.39l-2.575-2.029c-1.444-1.003-2.897-2.034-4.506-2.744-1.278-.564-2.633-1.03-4.023-1.176a14.91 14.91 0 0 0-5.332.405c-2.334.619-4.482 1.85-6.546 3.104-1.356.824-2.6 1.831-3.792 2.878-.556.488-1.559 1.581-1.559 1.581s3.593.526 5.336.168c2.68-.55 4.793-2.773 7.438-3.47 1.658-.437 3.419-.539 5.129-.405 1.671.131 3.243.857 4.889 1.174l1.819.265 3.721.249z"/><path id="G" d="M196.389 618.283s3.202 2.999 5.197 3.779c1.434.561 3.049.508 4.589.538 1.899.037 3.868.122 5.682-.442 1.734-.538 3.233-1.678 4.714-2.728.804-.571 2.245-1.927 2.245-1.927l-4.204-1.717c-1.436-.49-2.877-1.064-4.387-1.215-2.199-.219-4.47-.067-6.614.472-2.558.644-7.221 3.239-7.221 3.239z"/><path id="H" d="M255.938 608.209s-1.857-1.063-3.121-2.896c-1.15-1.667-3.334-2.437-5.275-3.013-1.624-.482-3.407-.604-5.072-.294-1.933.36-3.662 1.466-5.371 2.439-1.016.579-2.094 1.139-2.876 2.008-.881.98-1.908 3.463-1.908 3.463.86-2.216 2.9-3.62 4.874-4.727 1.503-.842 3.303-1.027 5.007-1.287 2.023-.308 4.148-.814 6.132-.313 2.877.726 7.61 4.619 7.61 4.619z"/><path id="I" d="M232.209 611.155c.013 2.148.039 4.879.436 7.276.433 2.611 1.543 5.07 2.106 7.656.486 2.23.655 4.519 1.095 6.759.198 1.01.665 1.98.694 3.009.03 1.059.063 2.262-.54 3.133-1.2 1.733-3.809 1.881-5.455 3.197-.732.585-1.314 1.335-1.92 2.053"/><path id="J" d="M218.334 632.08c-1.15-.34-2.809 1.064-3.426 2.012-.807 1.242-.13 3.332.965 4.321 1.476 1.334 3.978 1.101 5.927.704 1.629-.332 2.729-2.019 4.326-2.481.966-.279 2.185-.694 3.015-.127.491.336.871 1.172.577 1.689-.417.734-1.642.407-2.479.525-1.15.161-2.338.004-3.474.243-1.29.271-2.403 1.329-3.721 1.336-1.494.009-3.264-.33-4.235-1.466-1.047-1.226-1.521-3.296-.849-4.762.545-1.187 3.372-1.995 3.372-1.995z"/><path id="K" d="M207.271 641.342s-2.456-1.104-3.732-.993c-.65.057-1.357.311-1.803.828-.757.878-1.098 2.205-1.092 3.407.006 1.286.327 2.764 1.201 3.632 1.378 1.368 3.555 1.607 5.422 1.535 1.803-.07 3.441-1.185 5.127-1.883 1.139-.471 2.196-1.181 3.366-1.553 1.295-.413 2.646-.852 3.992-.739.826.069 2.186-.022 2.356.858.129.664-.796 1.147-1.385 1.37-1.595.604-3.376-.556-5.056-.369-1.837.204-3.528 1.208-5.336 1.611-1.696.378-3.447 1.099-5.149.751-1.402-.286-2.833-1.058-3.744-2.249-.615-.804-.929-1.931-.909-2.976.021-1.081.365-2.26 1.061-3.034.875-.974 2.23-1.627 3.481-1.542.84.057 2.2 1.345 2.2 1.345z"/><path id="L" d="M243.634 641.187s2.347.812 3.085 1.732c.645.804.838 1.932.89 2.961.072 1.413.071 3.056-.805 4.168-.555.705-1.558 1.017-2.45 1.117-1.326.148-2.648-.408-3.918-.816-1.331-.428-2.529-1.196-3.834-1.696-1.207-.462-2.394-1.163-3.686-1.203-.809-.025-1.697 1.091-2.349.611-.268-.198-.193-.699-.047-.999.303-.624 1.009-1.105 1.695-1.206 1.018-.15 1.968.609 2.925.988 1.351.536 2.636 1.227 3.965 1.815 1.397.619 2.691 1.692 4.215 1.804 1.19.087 2.659-.031 3.461-.914.945-1.041.88-2.77.68-4.162-.167-1.164-.682-2.363-1.527-3.182-.602-.584-2.3-1.018-2.3-1.018z"/><path id="M" d="M215.308 654.479l3.677 1.125c1.147.342 2.251 1.012 3.447 1 1.224-.013 2.305-.851 3.505-1.096.604-.123 1.226-.239 1.841-.185 1.249.111 2.363 1.046 3.616 1.031 1.123-.013 2.205-.491 3.217-1 .627-.315 1.723-1.25 1.723-1.25s-1.711.943-2.643 1c-1.215.074-2.35-.745-3.562-.875-1.525-.164-3.072-.054-4.596.125-1.008.118-1.985.457-2.987.625-.991.166-1.988.456-2.987.375-1.028-.083-1.965-.728-2.987-.875-.418-.06-1.264 0-1.264 0z"/><path id="N" d="M233.5 614.862s3.289-2.474 5.125-3.375c1.502-.737 3.088-1.434 4.75-1.625 1.564-.18 3.155.169 4.7.474 1.117.221 2.274.43 3.275.974 1.117.608 2.9 2.479 2.9 2.479"/><path id="O" d="M253.86 617.721s-3.079 2.764-4.917 3.641c-1.36.649-2.87 1.061-4.374 1.128-1.975.088-3.981-.331-5.858-.966-1.184-.401-2.25-1.085-3.317-1.763-.76-.482-2.186-1.631-2.186-1.631l3.404-2.281c1.175-.683 2.344-1.45 3.626-1.802 1.869-.513 3.877-.801 5.766-.409 2.883.599 7.856 4.084 7.856 4.084z"/><path id="P" d="M216.125 662.621c3.345-.733 3.749 4.08 2.495 5.751-1.461 1.947-5.73.989-7.244-.917-2.024-2.549-1.435-7.555 1.001-9.714 2.143-1.899 6.158-1.361 8.589.152 2.222 1.383 3.518 4.367 3.592 6.983.12 4.272-1.623 9.395-5.213 11.713-6.222 4.016-15.999 3.898-22.215-.127-5.309-3.438-7.857-7.647-11.011-12.095-1.755-2.476-3.784-6.857-4.324-8.012"/><path id="Q" d="M186.972 656.432c1.521 3.361 3.398 6.338 5.92 8.825 3.301 3.254 7.204 6.292 11.656 7.581 3.441.996 7.406 1.155 10.746-.14 1.361-.528 2.689-2.408 3.273-2.911"/><path id="R" d="M191.532 656.106c2.212 3.21 5.17 7.198 8.845 9.468 3.587 1.645 7.292 3.263 10.862 2.422"/><path id="S" d="M196.255 654.152c1.656 2.837 3.767 5.552 6.484 7.38 2.012 1.354 4.499 1.855 6.871 2.392"/><path id="T" d="M200.652 651.709c1.937 2.229 3.58 4.132 5.817 5.649 1.245.844 3.057 1.424 4.118 1.843"/><path id="U" d="M204.236 648.451c1.602 2.35 3.561 4.546 5.917 6.134 1.246.84 3.26 1.264 4.181 1.683"/><path id="V" d="M208.144 645.357c2.093 2.923 3.703 4.485 5.939 6.316 2.005 1.642 5.97 3.559 6.602 4.107"/><path id="W" d="M293.417 763.987c.434-1.891 1.334-3.679 2.388-5.308.772-1.192 1.574-2.522 2.831-3.184 1.446-.763 3.238-.459 4.865-.619 2.53-.249 5.144-1.159 7.607-.531.848.216 1.366 1.19 2.211 1.415 1.769.471 3.707-.7 5.484-.265.796.195 1.663.56 2.123 1.238.335.494.265 1.769.265 1.769s2.641-.705 3.715-.088c.847.486 1.268 1.6 1.415 2.565.199 1.309-.278 2.673-.796 3.892-.448 1.054-1.131 2.027-1.946 2.831-.379.373-1.327.885-1.327.885s2.706-1.356 3.981-.885c.83.307 1.42 1.255 1.592 2.123.183.926-.381 1.856-.708 2.742-.465 1.262-.818 2.675-1.769 3.627-.998.998-3.804 1.858-3.804 1.858s2.717-.916 3.892-.354c.767.367 1.252 1.288 1.415 2.123.225 1.152-.151 2.416-.708 3.45-.415.771-1.098 1.422-1.858 1.858-.608.348-2.035.531-2.035.531s2.661.814 2.831 1.946c.19 1.266-1.255 2.412-2.388 3.008-2.329 1.223-5.315-.081-7.873.531-1.465.35-2.694 1.412-4.158 1.769-2.241.547-4.652 1.051-6.9.531-1.7-.393-3.26-1.438-4.511-2.654-1.473-1.431-2.376-3.372-3.273-5.219-.917-1.888-1.69-3.873-2.123-5.927-.592-2.806-.548-5.714-.619-8.58l.089-3.981c.026-1.032-.143-2.09.088-3.096z"/><path id="X" d="M320.662 759.21c-1.541 2.24-3.975 4.116-6.814 4.06-1.92.375-3.857-.729-5.67-.244-1.253.81-1.852 2.529-3.152 3.337-1.422.884-3.46 1.536-4.802 1.479"/><path id="Y" d="M322.078 768.852c-3.158 1.831-5.731 3.607-9.404 3.968-1.605.021-3.804.114-4.587-1.617-.685-1.367-.138-3.151 1.272-3.81 2.374-1.378 4.824-3.732 7.412-4.645"/><path id="Z" d="M321.724 777.875c-4.034.764-7.33 2.15-11.443 1.511-1.413-.479-3.342-.948-3.806-2.572-.112-1.572 1.313-2.875 2.641-3.453.522-.151 2.418-.461 2.959-.501"/><path id="a" d="M312.278 779.644c-2.423.16-3.947 1.747-3.643 3.374.45 2.409 2.84 2.892 6.835 2.713 2.47.067 2.932-.494 5.402-.129l1.648.146"/><path id="b" d="M219.458 586.442c2.307 11.491 4.152 39.695 4.772 50.266.736 9.732 1.821 18.38 6.122 24.795 1.031 3.079 3.746 5.3 7.229 5.286 3.822.341 5.836-8.535-1.359-8.588"/><path id="c" d="M213.322 585.589c3.971 17.175 3.984 46.428 6.436 62.627 1.378 9.108 5.357 19.659 13.448 23.939 3.577 1.892 9.394 1.972 12.096-1.041 3.251-3.624 2.724-10.811-.331-14.602-2.649-3.287-8.61-5.006-12.311-2.975-2.296 1.26-2.746 4.861-2.545 7.432"/><path id="d" d="M225.39 586.862c3.352 14.595 3.032 18.321 3.551 33.926.17 5.091.228 14.777 1.697 21.975.655 3.209 1.836 7.633 3.141 9.309"/><path id="e" d="M230.851 588.445c3.352 14.595 3.032 18.321 3.551 33.926.17 5.091-.106 12.669 1.222 18.81.784 3.628 2.627 8.741 3.932 10.417"/><path id="f" d="M235.599 589.157c3.352 13.973 3.032 17.54 3.551 32.481.17 4.874-.106 12.129 1.222 18.008.784 3.473 2.627 8.368 3.932 9.973"/><path id="g" d="M241.139 590.186c3.109 13.242 2.811 16.622 3.293 30.78.157 4.619-.098 11.494 1.133 17.066.727 3.291 2.436 7.93 3.646 9.451"/><path id="h" d="M246.362 590.978c3.109 12.4 2.811 15.566 3.293 28.825.157 4.326-.098 10.764 1.133 15.981.727 3.082 2.436 7.426 3.646 8.851"/><path id="i" d="M245.197 650.769c.55-1.123 1.479-2.453 2.737-2.595 2.49-.281 4.968 1.809 6.458 3.794 2.494 3.322 3.448 7.932 2.998 12.04-.253 2.307-1.218 4.893-3.108 6.251-.771.554-1.631.953-2.821.388"/><path id="j" d="M250.571 648.565c.314-1.106.907-2.443 1.899-2.698 1.963-.505 4.185 1.215 5.604 2.932 2.375 2.874 3.661 7.102 3.766 10.998.059 2.187-.421 4.706-1.781 6.162-.555.594-1.199 1.052-2.216.637"/><path id="k" d="M260.699 644.378c.329-1.068.941-2.357 1.936-2.591 1.97-.463 4.167 1.235 5.562 2.919 2.335 2.819 3.562 6.938 3.613 10.717.029 2.122-.245 4.651-1.867 5.952-.828.664-2.163.687-3.174.271"/><path id="l" d="M239.793 652.949c.55-1.123 1.479-2.453 2.737-2.595 2.49-.281 4.968 1.809 6.458 3.794 2.494 3.322 3.448 7.932 2.998 12.04-.253 2.307-1.047 5.127-3.108 6.251-1.152.628-2.739.162-3.929-.403"/><path id="m" d="M155.451 647.863c-2.38 6.25-5.386 8.31-10.141 11.294-1.791 2.708-5.057 5.376-7.269 3.775-1.96-1.419-2.36-6.659 1.168-7.164"/><path id="n" d="M156.45 654.03c-2.28 8.091-8.729 14.05-15.946 14.838-3.731.407-8.445-2.175-9.703-5.711-1.536-4.316.088-10.882 4.78-12.886 2.923-1.249 6.566-.082 8.601 2.051 1.834 1.922 1.355 6.305 1.485 7.83"/><path id="o" d="M161.977 654.352c-2.461 6.782-8.398 18.066-16.871 19.478-3.02.503-6.283-1.876-7.94-4.617"/><path id="p" d="M166.57 655.548c-2.598 6.808-3.464 13.537-8.77 17.157-2.936 2.003-8.073 2.609-10.609 1.055"/><path id="q" d="M171.429 656.123c-1.751 6.237-2.364 11.981-6.688 15.658-2.301 1.957-6.221 3.664-8.795 2.175"/><path id="r" d="M175.887 656.103c-.927 4.746-.762 10.392-4.205 13.706-1.197 1.152-2.803 2.822-4.817 1.28"/><path id="s" d="M180.889 656.115c-.976 4.221-.472 5.849-1.853 9.988-.567 1.7-2.886 3.733-4.827 2.345"/><path id="t" d="M140.213 648.677c.857-.757 1.912-1.553 3.054-1.554 1.894-.001 3.844 1.124 5.067 2.57 1.217 1.439 1.439 3.526 1.684 5.397"/><path id="u" d="M145.779 647.206c.612-.47 1.365-.964 2.181-.965 1.353-.001 2.746.698 3.619 1.595s1.028 2.189 1.203 3.35"/><path id="v" d="M315.18 829.036c-.5-.667-1.25-1.333-2.5-1.333-2.25 0-3.75 1.778-3.75 4s1.5 4.222 3.75 4.222c1.25 0 1.5-.444 2.25-1.111l.25.222c-.75.667-2.5 2.667-2.5 4.222 0 1.778 1.75 4 3.75 4s3.75-2.222 3.75-4c0-1.556-1.75-3.556-2.5-4.222l.25-.222c.75.667 1 1.111 2.25 1.111 2.25 0 3.75-2 3.75-4.222s-1.5-4-3.75-4c-1.25 0-2 .667-2.5 1.333l-.25-.222.5-2.222c.25-1.111 1-3.333 1-3.333-2.5.444-2.5.444-5 0l1 3.333c.25 1.111.25.889.5 2.222z"/><path id="w" d="M139.124 679.001c.936-.214 1.939.503 2.634 1.166 1.061 1.014.952 2.877 1.963 3.939.933.98 2.303 1.439 3.54 1.987 1.809.8 3.737 1.299 5.629 1.877-3.222 1.339-7.005 2.301-10.287 1.227-2.18-.713-4.245-2.541-5.027-4.697-.493-1.359-.048-2.981.533-4.305.21-.478.506-1.078 1.015-1.194z"/><path id="x" d="M157.688 697.773s3.407.267 4.38 1.46c1.107 1.357 1.086 3.525.626 5.215-.482 1.771-1.692 3.566-3.337 4.38-1.495.741-3.397.441-5.006 0-2.105-.577-4.242-1.655-5.632-3.337-1.177-1.424-1.639-3.383-1.877-5.215-.207-1.592-.127-3.287.417-4.797.746-2.068 2.003-4.094 3.754-5.423 1.524-1.157 3.547-1.503 5.423-1.877 2.254-.45 4.631-.877 6.883-.417a15.63 15.63 0 0 1 7.092 3.546c2.631 2.323 4.529 5.505 5.84 8.76 1.029 2.555 1.147 5.398 1.46 8.135a64.19 64.19 0 0 1 .417 8.343c-.056 3.348-.628 6.669-.834 10.012-.107 1.736-.524 3.504-.209 5.215.192 1.041.542 2.134 1.251 2.92.48.531 1.165 1.119 1.877 1.043.735-.078 1.431-.76 1.669-1.46.228-.671-.417-2.086-.417-2.086s2.113 1.545 2.503 2.712c.443 1.325.344 2.999-.417 4.172-.61.94-1.807 1.534-2.92 1.669-1.005.122-2.039-.336-2.92-.834-1.242-.702-3.129-2.92-3.129-2.92s-.875 6.106-.834 9.178c.031 2.38.248 4.785.834 7.092.461 1.814 1.055 3.652 2.086 5.215.541.821 1.177 1.71 2.086 2.086.964.399 3.129 0 3.129 0s-2.138-1.258-2.712-2.294c-.476-.86-.681-1.973-.417-2.92s1.012-1.817 1.877-2.294c.981-.542 2.271-.763 3.337-.417 1.357.44 2.454 1.663 3.129 2.92.8 1.491 1.235 3.362.834 5.006-.247 1.013-1.045 1.874-1.877 2.503-1.545 1.168-3.487 2.03-5.423 2.086-1.824.052-3.72-.621-5.215-1.669-1.583-1.109-2.713-2.844-3.546-4.589-1.169-2.45-1.672-5.219-1.877-7.926-.258-3.408.359-6.836.834-10.221.345-2.458 1.147-4.839 1.46-7.3.158-1.243.126-2.504.209-3.754l.417-5.423s-3.12 2.5-5.006 2.712c-1.794.201-3.849-.28-5.215-1.46-1.554-1.343-2.338-3.584-2.503-5.632-.11-1.362.274-2.834 1.043-3.963.728-1.069 1.9-1.892 3.129-2.294.859-.281 1.908-.414 2.712 0 .532.274 1.043 1.46 1.043 1.46s-1.497.603-1.877 1.251c-.458.782-.399 1.825-.209 2.712.183.852.502 1.85 1.251 2.294.897.532 2.148.355 3.129 0 1.532-.555 2.994-1.688 3.754-3.129.684-1.297.37-2.914.417-4.38.074-2.294.106-4.609-.209-6.883s-.662-4.614-1.669-6.675c-.891-1.824-2.24-3.444-3.754-4.797-1.583-1.414-3.413-2.655-5.423-3.337-1.919-.652-4.055-.989-6.049-.626-1.224.223-2.374.883-3.337 1.669s-1.837 1.77-2.294 2.92c-.567 1.427-.859 3.118-.417 4.589.385 1.279 1.299 2.55 2.503 3.129 1.128.542 2.723.709 3.754 0 .798-.548 1.012-1.744 1.043-2.712.037-1.165-1.043-3.337-1.043-3.337z"/><path id="y" d="M96.493 730.91s-1.558-4.579-2.845-6.6c-1.471-2.312-5.462-6.145-5.462-6.145s3.405-2.345 5.348-2.959c2.037-.644 6.372-.683 6.372-.683l2.617-4.438c1.274-1.842 4.21-5.234 4.21-5.234s4.222 3.246 5.803 5.348c.969 1.288 2.162 4.324 2.162 4.324s4.007-.059 5.917.455c2.277.613 6.372 3.072 6.372 3.072s-4.634 3.877-6.258 6.372c-1.403 2.155-2.845 7.169-2.845 7.169s-4.8-1.552-7.282-1.934c-2.439-.376-4.939-.572-7.396-.341-2.29.215-6.714 1.593-6.714 1.593z"/><path id="z" d="M101.613 728.976s-.929-3.69-1.821-5.348c-.704-1.31-2.731-3.527-2.731-3.527s2.108-.602 3.186-.569c1.287.039 3.755.91 3.755.91l1.479-4.324c.443-.992 1.593-2.845 1.593-2.845s1.779 2.007 2.39 3.186c.624 1.203 1.252 3.869 1.252 3.869s2.337-.533 3.527-.569c1.143-.034 3.414.341 3.414.341s-2.154 2.538-2.958 3.983c-.952 1.711-2.162 5.462-2.162 5.462s-3.91-1.061-5.917-1.138c-1.678-.065-5.007.569-5.007.569z"/><path id="AA" d="M113.078 731.749l.336 20.804s8.766.456 13.086 1.174c2.783.463 8.221 2.013 8.221 2.013"/><path id="AB" d="M100.831 732.421l-.671 20.636s-7.416.402-11.073 1.007c-3.292.544-9.731 2.349-9.731 2.349"/><path id="AC" d="M80.363 770.673c6.101-2.368 13.22-4.205 20.074-4.802 6.048-.527 12.171.235 18.178 1.111 4.886.712 12.537 2.71 14.428 3.355"/><path id="AD" d="M86.63 776.173c1.277-.975 3.349.453 4.59 1.473 1.544 1.27 1.753 3.612 2.9 5.249 1.107 1.58 3.805 4.362 3.805 4.362s-5.344-2.394-7.604-4.206c-1.4-1.123-2.893-2.369-3.566-4.032-.356-.881-.88-2.27-.125-2.846z"/><path id="AE" d="M102.296 786.894l-4.096-4.324c-.808-.946-1.803-1.808-2.276-2.958-.465-1.131-.713-2.445-.455-3.641.168-.782.544-1.674 1.252-2.048.672-.355 1.678-.355 2.276.114.935.733.774 2.252 1.024 3.414.242 1.122.223 2.289.455 3.414.255 1.235.654 2.436 1.024 3.641l.797 2.39z"/><path id="AF" d="M105.937 787.121l-1.479-6.372c-.281-1.618-.932-3.292-.569-4.893.268-1.18.924-2.406 1.934-3.072.609-.401 1.481-.602 2.162-.341.73.28 1.229 1.08 1.479 1.821.401 1.186.064 2.515-.114 3.755-.257 1.785-.712 3.554-1.365 5.234-.529 1.36-2.048 3.869-2.048 3.869z"/><path id="AG" d="M110.033 786.78s2.178-3.7 2.959-5.689c.575-1.465.689-3.082 1.252-4.552.304-.792.497-1.72 1.138-2.276.634-.55 1.622-1.138 2.39-.797.605.269.721 1.162.797 1.821.14 1.227-.18 2.514-.683 3.641-.584 1.309-1.672 2.335-2.617 3.414-.849.968-1.74 1.91-2.731 2.731-.778.644-2.503 1.707-2.503 1.707z"/><path id="AH" d="M115.95 787.121l3.072-3.445c.951-1.204 1.884-2.433 2.617-3.759.663-1.199.456-2.911 1.593-3.759.537-.401 1.409-.558 2.048-.313.728.279 1.23 1.061 1.365 1.775.196 1.031-.336 2.123-.91 3.028-.81 1.276-2.137 2.233-3.414 3.132-.903.636-1.97 1.048-2.959 1.566l-3.414 1.775z"/><path id="AI" d="M124.161 542.258l26.836 48.672c9.965-3.776 21.234-4.785 32.045-5.681 11.478-.952 23.086-.757 34.551.343 9.438.906 18.835 2.703 27.978 5.132l31.346-48.465H124.161z"/><path id="AJ" d="M165.265 560.814c-.695-.379-1.022-2.133-.572-3.072a.84.84 0 0 1 .795-.429c.848.104 1.622.9 1.857 1.707.167.576-.464 1.139-.466 1.738-.002.595.093 1.252.452 1.726.703.929 1.849 1.721 3.013 1.771 1.936.083 4.38-.818 5.247-2.506.799-1.558-.041-3.666-1.029-5.12-.669-.984-1.803-1.884-3.017-1.998-1.099-.104-2.095.718-3.043 1.266.553-1.663 1.165-3.592.47-5.197-.666-1.537-2.349-2.663-3.987-3.188-.69-.221-1.455.028-2.177.107h0c-1.296.652-2.628 1.654-3.106 2.988-.481 1.344.043 2.894.535 4.235.376 1.027 1.128 1.89 1.795 2.769-.954-.315-2.059-.336-2.938.081-1.664.791-3.46 2.372-3.517 4.161-.055 1.724 1.534 3.421 3.126 4.203 1.472.724 3.53.805 4.957-.028 1.112-.65 1.69-2.088 1.916-3.356.111-.619-.31-1.861-.31-1.861z"/><path id="AK" d="M138.891 563.932c.005-.684.484-.714.412-1.541-.071-.822-1.326-1.301-2.124-1.188-.283.04-.618 1.202-.678 1.488l-5.176-9.079c.305-.402.644-.762.995-1.092.637-.258 1.256-.71 1.939-.669 1.623.096 3.459.757 4.45 2.075 1.034 1.375.958 3.389.87 5.134.727-.766 1.421-1.797 2.448-1.972 1.134-.194 2.392.385 3.248 1.167 1.263 1.156 2.565 2.995 2.226 4.699-.367 1.847-2.374 3.222-4.15 3.716-1.321.367-2.787-.199-4.027-.799"/><path id="AL" d="M211.158 565.751c-2.269.291-4.663-.637-6.618-1.852-1.04-.647-1.473-2.032-2.478-2.745-.458-.325-1.006-.093-1.552-.651.311 3.105 1.371 3.428 2.596 4.754 1.61 1.743 3.757 3.033 5.958 3.894 2.368.926 4.977 1.442 7.505 1.255 2.977-.22 5.92-1.295 8.539-2.761 1.778-.996 3.448-2.33 4.669-3.986.679-.921 1.257-2.282 1.37-3.164-1.136 1.414-3.028 3.063-4.913 3.987-1.718.843-3.687 1.562-5.574 1.295-1.832-.259-3.191-1.26-4.874-2.713-1.78.987-2.867 2.462-4.627 2.688z"/><path id="AM" d="M188.069 566.413c2.394.171 4.808-.951 6.839-2.199 1.069-.658 1.689-1.845 2.625-2.671.443-.391.525-1.143 1.408-1.075-.162 3.118-1.244 3.61-2.458 5.026-1.596 1.862-3.778 3.227-6.039 4.203-2.433 1.05-5.141 1.703-7.801 1.65-3.132-.062-6.274-.981-9.096-2.307-1.916-.9-3.838-2.049-5.105-3.734-.68-.905-1-2.315-1.165-3.19 1.265 1.352 3.02 2.989 4.922 3.825 1.83.804 3.947 1.365 5.912.999 1.906-.356 3.278-1.427 4.966-2.967 1.918.892 3.136 2.308 4.992 2.44z"/><path id="AN" d="M241.214 568.492c-1.876-.059-3.762-1.255-5.268-2.652-.801-.743-1.237-1.898-1.818-2.877-.456-.767-.617-2.328-1.31-2.346.02 2.897.762 4.429 1.854 6.263 1.127 1.893 2.841 3.325 4.575 4.432 1.865 1.191 3.958 2.039 6.038 2.231 2.449.226 4.935-.338 7.185-1.309 1.528-.659 2.886-1.812 4.115-2.99 1.044-1 2.554-2.615 2.713-3.408-1.452.516-2.382 1.83-5.384 3.521-1.366.769-3.354 1.014-4.939.523-1.559-.483-2.513-1.615-3.779-3.192-1.529.651-2.528 1.849-3.983 1.804z"/><path id="AO" d="M149.903 570.613c-1.899.7-4.465.364-6.375-.588-1.142-.568-1.743-1.864-2.577-2.829-.639-.74-2.113-3.545-1.859-2.27.387 1.941 1.725 4.983 3.598 6.684 1.72 1.562 4.232 2.262 6.428 2.696 2.363.467 4.81.489 6.969-.157 2.542-.761 4.79-2.348 6.633-4.257 1.251-1.296 2.382-2.956 2.86-4.738.264-.983.118-2.174-.056-3.054-.758 2.154-1.339 3.807-2.796 5.075-1.208 1.051-2.875 1.687-4.487 1.715-1.811.032-3.188-.64-5.113-1.746-1.255 1.288-1.752 2.924-3.225 3.467z"/><path id="AP" d="M142.976 575.037s4.962 1.563 7.546 1.718c3.062.184 6.29.081 9.143-.952 2.018-.73 3.655-2.187 5.229-3.559 1.067-.929 2.81-3.125 2.81-3.125s5.613 2.968 8.718 3.643c3.074.668 6.327.631 9.465.323 3.017-.296 6.122-.79 8.819-2.068 2.168-1.027 5.587-4.346 5.587-4.346s4.177 4.282 6.965 5.358c2.711 1.046 5.834.863 8.768.787 2.678-.069 5.375-.427 7.941-1.131 2.557-.702 7.286-3.047 7.286-3.047s2.614 3.428 4.394 4.678c1.657 1.163 3.659 1.885 5.639 2.478 1.993.598 4.091 1.196 6.18 1.06 2.553-.166 7.272-2.26 7.272-2.26l-4.144 6.709s-15.399-2.61-23.163-3.396c-6.279-.635-12.594-.882-18.904-1.061-6.794-.193-13.6-.274-20.391-.013-5.675.218-11.333.748-16.979 1.319-4.248.43-8.508.81-12.704 1.586-3.794.701-11.239 2.765-11.239 2.765z"/><path id="AQ" d="M147.239 582.314s16.079-4.011 29.679-5.396c13.168-1.341 26.494-1.655 39.701-.771 11.35.76 33.726 5.203 33.726 5.203l-5.203 8.287s-17.96-4.126-27.109-4.946c-13.672-1.226-27.518-1.269-41.179.064-8.556.835-25.31 4.946-25.31 4.946z"/><path id="AR" d="M259.789 564.242c.036-.683-.441-.741-.321-1.563.119-.816 1.4-1.221 2.19-1.061.281.057.546 1.236.589 1.526l5.703-8.757a8.75 8.75 0 0 0-.929-1.148c-.621-.295-1.212-.783-1.897-.783-1.626 0-3.498.552-4.564 1.808-1.113 1.311-1.156 3.327-1.171 5.074-.68-.808-1.313-1.877-2.328-2.114-1.121-.261-2.411.243-3.311.974-1.329 1.079-2.737 2.838-2.499 4.56.257 1.866 2.179 3.356 3.923 3.954 1.297.445 2.794-.035 4.067-.56"/><path id="AS" d="M233.192 560.364c.695-.379 1.022-2.133.572-3.072a.84.84 0 0 0-.795-.429c-.848.104-1.622.9-1.857 1.707-.167.576.4 1.142.466 1.738.046.418-.053 1.261-.053 1.261-1.112.909-2.055 2.144-3.411 2.236-1.934.13-4.38-.818-5.247-2.506-.799-1.558.041-3.666 1.029-5.12.669-.984 1.803-1.884 3.017-1.998 1.099-.104 2.095.718 3.043 1.266-.553-1.663-1.165-3.592-.47-5.197.666-1.537 2.349-2.663 3.987-3.188.69-.221 1.455.028 2.177.107h0c1.296.652 2.628 1.654 3.106 2.988.481 1.344-.043 2.894-.535 4.235-.376 1.027-1.128 1.89-1.795 2.769.954-.315 2.059-.336 2.938.081 1.664.791 3.46 2.372 3.517 4.161.055 1.724-1.534 3.421-3.126 4.203-1.472.724-3.532.808-4.957-.028-1.196-.702-1.321-2.296-2.049-3.621z"/><path id="AT" d="M198.991 559.038c-.574-.544-.44-2.323.235-3.116a.84.84 0 0 1 .878-.21c.793.318 1.309 1.287 1.357 2.126.03.529-.54.922-.697 1.428-.137.44-.206 1.366-.206 1.366.841 1.164 1.235 2.587 2.457 3.037 1.819.669 4.444.334 5.714-1.075 1.172-1.3.901-3.554.32-5.212-.394-1.123-1.259-2.283-2.403-2.705-1.036-.382-2.209.157-3.266.442.962-1.466 2.048-3.173 1.788-4.902-.249-1.656-1.587-3.177-3.035-4.105-.61-.39-1.413-.347-2.131-.455h0c-1.42.297-2.965.924-3.769 2.091-.81 1.175-.701 2.808-.57 4.23.1 1.089.605 2.116 1.024 3.137-.841-.55-1.904-.854-2.861-.675-1.811.337-3.953 1.405-4.467 3.119-.496 1.652.605 3.7 1.943 4.865 1.237 1.078 3.206 1.687 4.798 1.245 1.336-.372 1.866-1.88 2.91-2.974z"/><path id="AU" d="M81.579 723.529l-5.423 18.355s1.537-1.369 2.446-1.251c.767.099 1.304.901 1.728 1.548.865 1.322 1.487 4.501 1.487 4.501s.298-2.803 1.014-3.963c.414-.671 1.005-1.442 1.785-1.55.718-.099 1.967.926 1.967.926z"/><path id="AV" d="M203.431 774.116s-2.196-6.829-.221-9.074c2.575-2.927 8.56-3.456 11.492-.907 2.54 2.208.884 10.209.884 10.209s6.446-1.612 8.398.454c2.359 2.498 2.458 7.821.221 10.436-1.809 2.115-8.177.907-8.177.907s.409 6.499-1.768 8.167c-2.545 1.95-7.069 1.414-9.503-.681-2.095-1.803-1.989-8.167-1.989-8.167s-7.092 1.902-9.061-.454c-2.315-2.77-1.536-8.446 1.105-10.889 2.134-1.974 8.619 0 8.619 0z"/><path id="AW" d="M44.75 735.584c.5.667 1.25 1.333 2.5 1.333 2.25 0 3.75-1.778 3.75-4s-1.5-4.222-3.75-4.222c-1.25 0-1.5.444-2.25 1.111l-.25-.222c.75-.667 2.5-2.667 2.5-4.222 0-1.778-1.75-4-3.75-4s-3.75 2.222-3.75 4c0 1.556 1.75 3.556 2.5 4.222l-.25.222c-.75-.667-1-1.111-2.25-1.111-2.25 0-3.75 2-3.75 4.222s1.5 4 3.75 4c1.25 0 2-.667 2.5-1.333l.25.222-.5 2.222c-.25 1.111-1 3.333-1 3.333 2.5-.444 2.5-.444 5 0l-1-3.333c-.25-1.111-.25-.889-.5-2.222z"/></defs></svg>