<svg xmlns="http://www.w3.org/2000/svg" xmlns:xlink="http://www.w3.org/1999/xlink" width="360" height="540" viewBox="0 0 95.25 142.875" xmlns:v="https://vecta.io/nano"><g transform="matrix(.264583 0 0 .264583 0 -135.562493)"><rect rx="29.944" y="512.862" x=".5" height="539" width="359" fill="#fff" stroke="#000"/><g fill="#f55"><path d="M15 542.362l-5 7v7l5-7v43h5v-50z"/><use xlink:href="#B"/><g transform="rotate(180 177.5 771.181)"><path d="M10 520l-5 7v7l5-7v43h5v-50z"/><use xlink:href="#B" x="-5" y="-22.362"/></g><use xlink:href="#C"/><use xlink:href="#C" x="180"/><use xlink:href="#C" x="90" y="60"/><use xlink:href="#C" y="120"/><use xlink:href="#C" x="180" y="120"/><use xlink:href="#C" y="240"/><use xlink:href="#C" x="180" y="240"/><use xlink:href="#C" x="90" y="300"/><use xlink:href="#C" y="360"/><use xlink:href="#C" x="180" y="360"/><use xlink:href="#D"/><use xlink:href="#D" x="300" y="315"/></g></g><defs ><path id="B" d="M35 542.362a9.98 9.98 0 0 0-10 10v30a9.98 9.98 0 0 0 10 10 9.98 9.98 0 0 0 10-10v-30a9.98 9.98 0 0 0-10-10zm0 5a4.99 4.99 0 0 1 5 5v30a4.99 4.99 0 1 1-10 0v-30a4.99 4.99 0 0 1 5-5z"/><path id="C" d="M90 557.362s6 15 13 25 17 20 17 20-10 10-17 20-13 25-13 25-6-15-13-25-17-20-17-20 10-10 17-20 13-25 13-25"/><path id="D" d="M30 602.362s3 7.5 6.5 12.5 8.5 10 8.5 10-5 5-8.5 10-6.5 12.5-6.5 12.5-3-7.5-6.5-12.5-8.5-10-8.5-10 5-5 8.5-10 6.5-12.5 6.5-12.5"/></defs></svg>