<svg xmlns="http://www.w3.org/2000/svg" xmlns:xlink="http://www.w3.org/1999/xlink" width="360" height="540" viewBox="0 0 95.25 142.875" xmlns:v="https://vecta.io/nano"><style><![CDATA[.B{stroke-linejoin:round}.C{stroke-width:2}.D{fill:#ff5}.E{fill:none}.F{stroke:#55a}.G{stroke-linecap:round}.H{stroke:#000}.I{fill:#55a}.J{fill:#f55}.K{stroke-width:2.194}.L{fill-opacity:.331}.M{stroke-width:2.284}.N{stroke-width:2.239}.O{stroke-width:2.151}.P{stroke-width:2.044}.Q{stroke-width:1.519}.R{stroke-width:1.863}]]></style><g transform="matrix(.264583 0 0 .264583 0 -135.562492)"><rect rx="29.944" y="512.862" x=".5" height="539" width="359" fill="#fff" class="H"/><path d="M340 1022.362v-30-20h-5v15l-3 7-7-22h-5l9 28-9 22h5l10-24v24zm-320-480v30 20h5v-15l3-7 7 22h5l-9-28 9-22h-5l-10 24v-24z" class="J"/><use xlink:href="#B" class="D"/><g class="B C E G H"><path d="M290.367 797.644s-1.665 2.579-2.742 3.656-3.656 2.742-3.656 2.742"/><path d="M300.574 797.644s-5.744 5.498-8.988 7.77c-2.477 1.734-7.922 4.418-7.922 4.418"/><use xlink:href="#C"/><use xlink:href="#D"/><use xlink:href="#E"/><use xlink:href="#F"/></g><g class="J"><path d="M298.136 838.319l-16.91 5.332-1.98 9.445 10.207-7.312z"/><use xlink:href="#G"/></g><use xlink:href="#H" class="I"/><use xlink:href="#I" class="J"/><g class="I"><use xlink:href="#J"/><rect width="10.957" height="3.652" x="309.939" y="732.162" rx="0" ry="3.652"/></g><use xlink:href="#K"/><use xlink:href="#L"/><use xlink:href="#M"/><use xlink:href="#N" class="B C D H"/><g class="J"><path d="M162.886 764.524l34.064-.31.929-9.6 2.168-14.245 2.013-10.374 4.335-15.483-43.973 42.27z"/><use xlink:href="#O"/></g><use xlink:href="#P" class="D"/><g class="I"><use xlink:href="#Q"/><use xlink:href="#R"/></g><use xlink:href="#S" class="B C E G H"/><g class="I"><use xlink:href="#T"/><use xlink:href="#U"/><use xlink:href="#V"/><use xlink:href="#W"/><use xlink:href="#X"/><use xlink:href="#Y"/><use xlink:href="#Z"/><use xlink:href="#a"/><use xlink:href="#b"/><ellipse transform="matrix(.865774 0 0 1.64497 5.273984 78.847429)" cx="261.859" cy="361.577" rx="2.888" ry="1.52"/><ellipse transform="matrix(.865774 0 0 1.64497 14.172447 77.442408)" cx="261.859" cy="361.577" rx="2.888" ry="1.52"/><ellipse transform="matrix(.865774 0 0 1.64497 18.855849 85.560305)" cx="261.859" cy="361.577" rx="2.888" ry="1.52"/><ellipse transform="matrix(.865774 0 0 1.64497 -6.746748 99.766624)" cx="261.859" cy="361.577" rx="2.888" ry="1.52"/><ellipse transform="matrix(.865774 0 0 1.64497 1.839489 99.454397)" cx="261.859" cy="361.577" rx="2.888" ry="1.52"/><ellipse transform="matrix(.865774 0 0 1.64497 6.522891 107.72841)" cx="261.859" cy="361.577" rx="2.888" ry="1.52"/><ellipse transform="matrix(.865774 0 0 1.64497 -8.307882 122.71529)" cx="261.859" cy="361.577" rx="2.888" ry="1.52"/><ellipse transform="matrix(.865774 0 0 1.64497 -15.489098 125.68145)" cx="261.859" cy="361.577" rx="2.888" ry="1.52"/><ellipse transform="matrix(.865774 0 0 1.64497 -2.843913 129.7404)" cx="261.859" cy="361.577" rx="2.888" ry="1.52"/><ellipse transform="matrix(.865774 0 0 1.64497 -13.927964 146.75676)" cx="261.859" cy="361.577" rx="2.888" ry="1.52"/><ellipse transform="matrix(.865774 0 0 1.64497 -8.307882 153.62575)" cx="261.859" cy="361.577" rx="2.888" ry="1.52"/><ellipse transform="matrix(.865774 0 0 1.64497 -20.796953 149.5668)" cx="261.859" cy="361.577" rx="2.888" ry="1.52"/><ellipse transform="matrix(.865774 0 0 1.64497 -24.855902 177.66721)" cx="261.859" cy="361.577" rx="2.888" ry="1.52"/><ellipse transform="matrix(.865774 0 0 1.64497 -17.206345 171.26656)" cx="261.859" cy="361.577" rx="2.888" ry="1.52"/><ellipse transform="matrix(.865774 0 0 1.64497 -10.805696 177.04275)" cx="261.859" cy="361.577" rx="2.888" ry="1.52"/><ellipse transform="matrix(.865774 0 0 1.64497 -17.518572 193.74689)" cx="261.859" cy="361.577" rx="2.888" ry="1.52"/><ellipse transform="matrix(.865774 0 0 1.64497 -14.396304 216.53945)" cx="261.859" cy="361.577" rx="2.888" ry="1.52"/><ellipse transform="matrix(.865774 0 0 1.64497 -8.463995 209.20211)" cx="261.859" cy="361.577" rx="2.888" ry="1.52"/><ellipse transform="matrix(.865774 0 0 1.64497 -21.889747 211.54381)" cx="261.859" cy="361.577" rx="2.888" ry="1.52"/><ellipse transform="matrix(.865774 0 0 1.64497 -18.923593 237.14641)" cx="261.859" cy="361.577" rx="2.888" ry="1.52"/><ellipse transform="matrix(.865774 0 0 1.64497 -11.43015 258.22172)" cx="261.859" cy="361.577" rx="2.888" ry="1.52"/><ellipse transform="matrix(.865774 0 0 1.64497 -3.000026 260.09508)" cx="261.859" cy="361.577" rx="2.888" ry="1.52"/><ellipse transform="matrix(.865774 0 0 1.64497 3.088396 254.475)" cx="261.859" cy="361.577" rx="2.888" ry="1.52"/><ellipse transform="matrix(.865774 0 0 1.64497 12.142973 272.74027)" cx="261.859" cy="361.577" rx="2.888" ry="1.52"/><ellipse transform="matrix(.865774 0 0 1.64497 7.459571 282.10707)" cx="261.859" cy="361.577" rx="2.888" ry="1.52"/><ellipse transform="matrix(.865774 0 0 1.64497 -1.907233 280.0776)" cx="261.859" cy="361.577" rx="2.888" ry="1.52"/><ellipse transform="matrix(.865774 0 0 1.64497 11.518519 303.80683)" cx="261.859" cy="361.577" rx="2.888" ry="1.52"/><ellipse transform="matrix(.865774 0 0 1.64497 19.168076 302.40181)" cx="261.859" cy="361.577" rx="2.888" ry="1.52"/><ellipse transform="matrix(.865774 0 0 1.64497 24.319818 294.75225)" cx="261.859" cy="361.577" rx="2.888" ry="1.52"/></g><g class="B C H"><path d="M153.85 715.444l56.756-53.39" class="E G"/><use xlink:href="#c" class="I"/><path d="M273.913 660.907l-12.943 13.649 5.295 6.001 61.735.471.176-20.238z"/></g><path d="M301.094 647.062l-9.651 12.741h26.124l-16.473-12.741zm-20.402-.624l10.086 13.476-29.008.171c5.78-4.566 12.918-9.103 18.923-13.646z" class="J"/><g class="B C"><path d="M253.198 660.489l76.25.065" class="E G H"/><g class="D F"><ellipse cx="316.601" cy="587.927" rx="7.579" ry="8.553"/><use xlink:href="#d"/><g class="G"><use xlink:href="#e" class="L"/><path d="M241.431 578.678l26.702.139m.14 20.722h-28.51"/><path d="M251.584 579.095l-.139 20.166"/></g></g><g class="E F"><path d="M257.147 584.519h6.536v9.457h-6.536z"/><path d="M250.471 588.97l-14.464-.139m2.504-4.729h12.656m-13.212 10.431l13.073.139" class="G"/></g><g class="D H"><use xlink:href="#f"/><use xlink:href="#g"/></g></g><g transform="matrix(-.947581 0 0 .876596 383.64623 64.752112)" class="F B"><g class="E"><g class="K"><use xlink:href="#h"/><use xlink:href="#i"/><use xlink:href="#j"/></g><ellipse transform="matrix(1 0 0 .923077 0 520.11538)" cx="208.064" cy="106.494" rx="5.399" ry="3.948" class="M"/></g><g class="K"><g class="I"><ellipse cx="208.401" cy="617.574" rx="1.957" ry="1.518"/><use xlink:href="#k"/></g><g class="E G"><use xlink:href="#l"/><use xlink:href="#m"/></g><use xlink:href="#n" class="I"/><g class="E"><g class="G"><use xlink:href="#o"/><use xlink:href="#p"/></g><use xlink:href="#q"/></g></g><ellipse transform="matrix(-.928055 .04165 .017979 1.034502 434.79629 499.30668)" cx="208.064" cy="106.494" rx="5.399" ry="3.948" class="E N"/><ellipse transform="matrix(-.928055 .04165 .019477 1.12071 434.64528 490.61759)" cx="208.401" cy="105.212" rx="1.957" ry="1.518" class="I O"/><path d="M215.75 622.237l-7.642 7.998m27.642-6.373l6.114 8.123" class="E G K"/></g><use xlink:href="#r" class="C D F"/><use xlink:href="#s"/><use xlink:href="#t"/><use xlink:href="#u"/><use xlink:href="#v"/><use xlink:href="#w"/><use xlink:href="#x"/><use xlink:href="#y"/><use xlink:href="#z"/><use xlink:href="#AA"/><use xlink:href="#AB"/><g class="B C E F G"><use xlink:href="#AC"/><use xlink:href="#AD"/><use xlink:href="#AE"/><use xlink:href="#AF"/><use xlink:href="#AG"/><use xlink:href="#AH"/><use xlink:href="#AI"/><use xlink:href="#AJ"/><use xlink:href="#AK"/><use xlink:href="#AL"/><use xlink:href="#AM"/><use xlink:href="#AN"/><use xlink:href="#AO"/><use xlink:href="#AP"/><path d="M201.235 638.545c.949 2.126 2.13 4.455 3.729 6.297.826.952 2.285 1.839 2.95 2.366"/><use xlink:href="#AQ"/><use xlink:href="#AR"/><use xlink:href="#AS"/><use xlink:href="#AT"/><use xlink:href="#AU"/><use xlink:href="#AV"/><use xlink:href="#AW"/><use xlink:href="#AX"/><use xlink:href="#AY"/><use xlink:href="#AZ"/><use xlink:href="#Aa"/><use xlink:href="#Ab"/><use xlink:href="#Ac"/></g><g transform="matrix(.017532 -1.046164 .914327 .053977 -418.77744 874.0851)" fill="#fff" class="B F P"><use xlink:href="#Ad"/><g class="G"><use xlink:href="#Ae"/><use xlink:href="#Af"/><path d="M309.428 766.376c1.583.017 4.293 1.356 4.515 3.172.222.627.239 1.301.261 1.959"/><use xlink:href="#Ag"/><path d="M311.461 773.18c1.588.774 1.824 2.172 2.077 3.548.115.626-.243 1.594-.306 1.855"/><use xlink:href="#Ah"/><use xlink:href="#Ai"/><use xlink:href="#Aj"/><path d="M312.79 779.91c1.087.841 1.566 1.808 1.61 2.919.035.873-.869 1.989-1.079 2.389m2.299.972c1.138.738 1.143 1.669 1.31 2.657.115.68-.035 1.645-.249 2.031"/></g></g><g class="H B"><g class="C"><use xlink:href="#Ak" class="D"/><use xlink:href="#Al"/></g><g fill="#fff555"><g class="Q"><ellipse transform="matrix(1.258065 0 0 1.378452 -75.03683 469.62516)" cx="291.846" cy="111.584" rx="2.156" ry="3.546"/><ellipse transform="matrix(1.217723 .376569 -.290612 1.33425 -38.136858 364.07756)" cx="291.846" cy="111.584" rx="2.156" ry="3.546"/><ellipse transform="matrix(-1.217723 .376569 .290612 1.33425 621.68883 364.5747)" cx="291.846" cy="111.584" rx="2.156" ry="3.546"/></g><g class="R"><ellipse transform="matrix(.77307 .777358 -.5303 .958244 112.32889 287.49112)" cx="291.846" cy="111.584" rx="2.156" ry="3.546"/><ellipse transform="matrix(-.77307 .777358 .5303 .958244 471.57075 287.07686)" cx="291.846" cy="111.584" rx="2.156" ry="3.546"/></g><use xlink:href="#Am" class="C"/></g><use xlink:href="#An" class="C E G"/><use xlink:href="#Ao" fill="#000001" class="C"/><g class="D C"><use xlink:href="#Ap"/><use xlink:href="#Aq"/></g><use xlink:href="#Ar" class="C E G"/><g class="D C"><use xlink:href="#As"/><use xlink:href="#At"/></g><path d="M155.676 721.836l59.805-58.436" class="C E G"/><path d="M161.611 746.488l48.849-48.392-4.565 15.978-43.383 42.914z" class="C"/><path d="M297.656 714.531l.457 82.632m5.935-75.327l.457 74.414" class="E G C"/></g><g class="I"><rect width="10.957" height="3.652" x="309.939" y="788.032" rx="0" ry="3.652"/><rect width="10.957" height="3.652" x="309.939" y="780.051" rx="0" ry="3.652"/><rect width="10.957" height="3.652" x="309.939" y="772.069" rx="0" ry="3.652"/><rect width="10.957" height="3.652" x="309.939" y="764.088" rx="0" ry="3.652"/><rect width="10.957" height="3.652" x="309.939" y="756.106" rx="0" ry="3.652"/><rect width="10.957" height="3.652" x="309.939" y="748.125" rx="0" ry="3.652"/><rect width="10.957" height="3.652" x="309.939" y="740.143" rx="0" ry="3.652"/></g><g class="H B C"><g class="E"><use xlink:href="#Au"/><g class="G"><path d="M226.748 811.966a3.92 3.92 0 0 0 .52 1.69c.067 1.006-.39 2.015-.39 2.015m-6.112.942s.454.92.52 2.194c.067 1.306-.39 2.616-.39 2.616m-4.03 1.429a5.2 5.2 0 0 0 .969 2.549c.125 1.517-.727 3.04-.727 3.04m2.033.91s.903 1.007 1.033 2.401c.134 1.429-.775 2.863-.775 2.863m7.866 2.21a5.34 5.34 0 0 0 .648 2.223c.084 1.323-.486 2.651-.486 2.651m54.107-44.615l47.572.26"/><use xlink:href="#Av"/></g></g><use xlink:href="#Aw" class="D"/><g class="E G"><use xlink:href="#Ax"/><use xlink:href="#Ay"/><path d="M281.16 797.494l-2.28 8.511-3.04 6.991-2.736 5.015"/><use xlink:href="#Az"/></g><use xlink:href="#BA" class="D"/></g><ellipse transform="matrix(.865774 0 0 1.64497 34.760803 279.84733)" cx="261.859" cy="361.577" rx="2.888" ry="1.52" class="D"/><ellipse transform="matrix(.865774 0 0 1.64497 43.203269 274.90039)" cx="261.859" cy="361.577" rx="2.888" ry="1.52" class="D"/><ellipse transform="matrix(.865774 0 0 1.64497 51.10615 270.49301)" cx="261.859" cy="361.577" rx="2.888" ry="1.52" class="D"/><ellipse transform="matrix(.865774 0 0 1.64497 58.705075 265.93365)" cx="261.859" cy="361.577" rx="2.888" ry="1.52" class="D"/><ellipse transform="matrix(.865774 0 0 1.64497 66.152021 260.61441)" cx="261.859" cy="361.577" rx="2.888" ry="1.52" class="D"/><ellipse transform="matrix(.865774 0 0 1.64497 74.054902 254.83922)" cx="261.859" cy="361.577" rx="2.888" ry="1.52" class="D"/><ellipse transform="matrix(.865774 0 0 1.64497 81.34987 248.45613)" cx="261.859" cy="361.577" rx="2.888" ry="1.52" class="D"/><ellipse transform="matrix(.865774 0 0 1.64497 88.796815 242.37699)" cx="261.859" cy="361.577" rx="2.888" ry="1.52" class="D"/><ellipse transform="matrix(.865774 0 0 1.64497 95.787826 235.234)" cx="261.859" cy="361.577" rx="2.888" ry="1.52" class="D"/><ellipse transform="matrix(.865774 0 0 1.64497 97.763546 254.07933)" cx="261.859" cy="361.577" rx="2.888" ry="1.52" class="D"/><ellipse transform="matrix(.865774 0 0 1.64497 90.3166 260.46243)" cx="261.859" cy="361.577" rx="2.888" ry="1.52" class="D"/><ellipse transform="matrix(.865774 0 0 1.64497 83.477568 266.38959)" cx="261.859" cy="361.577" rx="2.888" ry="1.52" class="D"/><ellipse transform="matrix(.865774 0 0 1.64497 76.030622 272.31675)" cx="261.859" cy="361.577" rx="2.888" ry="1.52" class="D"/><ellipse transform="matrix(.865774 0 0 1.64497 67.975763 278.09193)" cx="261.859" cy="361.577" rx="2.888" ry="1.52" class="D"/><ellipse transform="matrix(.865774 0 0 1.64497 60.072881 282.80327)" cx="261.859" cy="361.577" rx="2.888" ry="1.52" class="D"/><ellipse transform="matrix(.865774 0 0 1.64497 52.018022 287.66658)" cx="261.859" cy="361.577" rx="2.888" ry="1.52" class="D"/><ellipse transform="matrix(.865774 0 0 1.64497 43.811183 292.98582)" cx="261.859" cy="361.577" rx="2.888" ry="1.52" class="D"/><use xlink:href="#BB" class="D"/><use xlink:href="#BC"/><path d="M240.292 715.812l1.131-6.926 6.785 3.675-.989 7.209zm3.766 16.297l4.588-5.31 3.858 6.682-4.616 5.625zm-3.797 15.519l6.908-1.238-1.209 7.621-7.127 1.465zm-7.803 21.488l-7.017-.08 2.616-7.259 7.276-.102z" class="D"/><use xlink:href="#BD"/><path d="M281.683 843.194l8.988-3.047c3.848-1.421 11.426-4.57 11.426-4.57" class="B C E G H"/><g transform="rotate(180 180 782.37)"><use xlink:href="#B" class="D"/><g class="B C E G H"><path d="M290.367 797.644s-1.665 2.579-2.742 3.656-3.656 2.742-3.656 2.742"/><path d="M300.574 797.644s-5.744 5.498-8.988 7.77c-2.477 1.734-7.922 4.418-7.922 4.418"/><use xlink:href="#C"/><use xlink:href="#D"/><use xlink:href="#E"/><use xlink:href="#F"/></g><g class="J"><path d="M298.136 838.319l-16.91 5.332-1.98 9.445 10.207-7.312z"/><use xlink:href="#G"/></g><use xlink:href="#H" class="I"/><use xlink:href="#I" class="J"/><g class="I"><use xlink:href="#J"/><rect width="10.957" height="3.652" x="309.939" y="732.162" rx="0" ry="3.652"/></g><use xlink:href="#K"/><use xlink:href="#L"/><use xlink:href="#M"/><use xlink:href="#N" class="B C D H"/><g class="J"><path d="M163.186 764.524l33.764-.31.929-9.6 2.168-14.245 2.013-10.374 4.335-15.483-43.973 42.27z"/><use xlink:href="#O"/></g><use xlink:href="#P" class="D"/><g class="I"><use xlink:href="#Q"/><use xlink:href="#R"/></g><use xlink:href="#S" class="B C E G H"/><g class="I"><use xlink:href="#T"/><use xlink:href="#U"/><use xlink:href="#V"/><use xlink:href="#W"/><use xlink:href="#X"/><use xlink:href="#Y"/><use xlink:href="#Z"/><use xlink:href="#a"/><use xlink:href="#b"/><ellipse transform="matrix(.865774 0 0 1.64497 5.273984 78.847429)" cx="261.859" cy="361.577" rx="2.888" ry="1.52"/><ellipse transform="matrix(.865774 0 0 1.64497 14.172447 77.442408)" cx="261.859" cy="361.577" rx="2.888" ry="1.52"/><ellipse transform="matrix(.865774 0 0 1.64497 18.855849 85.560305)" cx="261.859" cy="361.577" rx="2.888" ry="1.52"/><ellipse transform="matrix(.865774 0 0 1.64497 -6.746748 99.766624)" cx="261.859" cy="361.577" rx="2.888" ry="1.52"/><ellipse transform="matrix(.865774 0 0 1.64497 1.839489 99.454397)" cx="261.859" cy="361.577" rx="2.888" ry="1.52"/><ellipse transform="matrix(.865774 0 0 1.64497 6.522891 107.72841)" cx="261.859" cy="361.577" rx="2.888" ry="1.52"/><ellipse transform="matrix(.865774 0 0 1.64497 -8.307882 122.71529)" cx="261.859" cy="361.577" rx="2.888" ry="1.52"/><ellipse transform="matrix(.865774 0 0 1.64497 -15.489098 125.68145)" cx="261.859" cy="361.577" rx="2.888" ry="1.52"/><ellipse transform="matrix(.865774 0 0 1.64497 -2.843913 129.7404)" cx="261.859" cy="361.577" rx="2.888" ry="1.52"/><ellipse transform="matrix(.865774 0 0 1.64497 -13.927964 146.75676)" cx="261.859" cy="361.577" rx="2.888" ry="1.52"/><ellipse transform="matrix(.865774 0 0 1.64497 -8.307882 153.62575)" cx="261.859" cy="361.577" rx="2.888" ry="1.52"/><ellipse transform="matrix(.865774 0 0 1.64497 -20.796953 149.5668)" cx="261.859" cy="361.577" rx="2.888" ry="1.52"/><ellipse transform="matrix(.865774 0 0 1.64497 -24.855902 177.66721)" cx="261.859" cy="361.577" rx="2.888" ry="1.52"/><ellipse transform="matrix(.865774 0 0 1.64497 -17.206345 171.26656)" cx="261.859" cy="361.577" rx="2.888" ry="1.52"/><ellipse transform="matrix(.865774 0 0 1.64497 -10.805696 177.04275)" cx="261.859" cy="361.577" rx="2.888" ry="1.52"/><ellipse transform="matrix(.865774 0 0 1.64497 -17.518572 193.74689)" cx="261.859" cy="361.577" rx="2.888" ry="1.52"/><ellipse transform="matrix(.865774 0 0 1.64497 -14.396304 216.53945)" cx="261.859" cy="361.577" rx="2.888" ry="1.52"/><ellipse transform="matrix(.865774 0 0 1.64497 -8.463995 209.20211)" cx="261.859" cy="361.577" rx="2.888" ry="1.52"/><ellipse transform="matrix(.865774 0 0 1.64497 -21.889747 211.54381)" cx="261.859" cy="361.577" rx="2.888" ry="1.52"/><ellipse transform="matrix(.865774 0 0 1.64497 -18.923593 237.14641)" cx="261.859" cy="361.577" rx="2.888" ry="1.52"/><ellipse transform="matrix(.865774 0 0 1.64497 -11.43015 258.22172)" cx="261.859" cy="361.577" rx="2.888" ry="1.52"/><ellipse transform="matrix(.865774 0 0 1.64497 -3.000026 260.09508)" cx="261.859" cy="361.577" rx="2.888" ry="1.52"/><ellipse transform="matrix(.865774 0 0 1.64497 3.088396 254.475)" cx="261.859" cy="361.577" rx="2.888" ry="1.52"/><ellipse transform="matrix(.865774 0 0 1.64497 12.142973 272.74027)" cx="261.859" cy="361.577" rx="2.888" ry="1.52"/><ellipse transform="matrix(.865774 0 0 1.64497 7.459571 282.10707)" cx="261.859" cy="361.577" rx="2.888" ry="1.52"/><ellipse transform="matrix(.865774 0 0 1.64497 -1.907233 280.0776)" cx="261.859" cy="361.577" rx="2.888" ry="1.52"/><ellipse transform="matrix(.865774 0 0 1.64497 11.518519 303.80683)" cx="261.859" cy="361.577" rx="2.888" ry="1.52"/><ellipse transform="matrix(.865774 0 0 1.64497 19.168076 302.40181)" cx="261.859" cy="361.577" rx="2.888" ry="1.52"/><ellipse transform="matrix(.865774 0 0 1.64497 24.319818 294.75225)" cx="261.859" cy="361.577" rx="2.888" ry="1.52"/></g><g class="B C H"><path d="M153.85 715.444l56.756-53.39" class="E G"/><use xlink:href="#c" class="I"/><path d="M273.913 660.907l-12.943 13.649 5.295 6.001 61.735.471.176-20.238z"/></g><path d="M301.094 647.062l-9.651 12.741h26.124l-16.473-12.741zm-20.402-.624l10.086 13.476-29.008.171c5.78-4.566 12.918-9.103 18.923-13.646z" class="J"/><g class="B C"><path d="M253.198 660.489l76.25.065" class="E G H"/><g class="D F"><ellipse cx="316.601" cy="587.927" rx="7.579" ry="8.553"/><use xlink:href="#d"/><g class="G"><use xlink:href="#e" class="L"/><path d="M241.431 578.678l26.702.139m.14 20.722h-28.51"/><path d="M251.584 579.095l-.139 20.166"/></g></g><g class="E F"><path d="M257.147 584.519h6.536v9.457h-6.536z"/><path d="M250.471 588.97l-14.464-.139m2.504-4.729h12.656m-13.212 10.431l13.073.139" class="G"/></g><g class="D H"><use xlink:href="#f"/><use xlink:href="#g"/></g></g><g transform="matrix(-.947581 0 0 .876596 383.64623 64.752112)" class="F B"><g class="E"><g class="K"><use xlink:href="#h"/><use xlink:href="#i"/><use xlink:href="#j"/></g><ellipse transform="matrix(1 0 0 .923077 0 520.11538)" cx="208.064" cy="106.494" rx="5.399" ry="3.948" class="M"/></g><g class="K"><g class="I"><ellipse cx="208.401" cy="617.574" rx="1.957" ry="1.518"/><use xlink:href="#k"/></g><g class="E G"><use xlink:href="#l"/><use xlink:href="#m"/></g><use xlink:href="#n" class="I"/><g class="E"><g class="G"><use xlink:href="#o"/><use xlink:href="#p"/></g><use xlink:href="#q"/></g></g><ellipse transform="matrix(-.928055 .04165 .017979 1.034502 434.79629 499.30668)" cx="208.064" cy="106.494" rx="5.399" ry="3.948" class="E N"/><ellipse transform="matrix(-.928055 .04165 .019477 1.12071 434.64528 490.61759)" cx="208.401" cy="105.212" rx="1.957" ry="1.518" class="I O"/><path d="M215.75 622.237l-7.642 7.998m27.642-6.373l6.114 8.123" class="E G K"/></g><use xlink:href="#r" class="C D F"/><use xlink:href="#s"/><use xlink:href="#t"/><use xlink:href="#u"/><use xlink:href="#v"/><use xlink:href="#w"/><use xlink:href="#x"/><use xlink:href="#y"/><use xlink:href="#z"/><use xlink:href="#AA"/><use xlink:href="#AB"/><g class="B C E F G"><use xlink:href="#AC"/><use xlink:href="#AD"/><use xlink:href="#AE"/><use xlink:href="#AF"/><use xlink:href="#AG"/><use xlink:href="#AH"/><use xlink:href="#AI"/><use xlink:href="#AJ"/><use xlink:href="#AK"/><use xlink:href="#AL"/><use xlink:href="#AM"/><use xlink:href="#AN"/><use xlink:href="#AO"/><use xlink:href="#AP"/><path d="M201.235 638.545c.949 2.126 2.13 4.455 3.729 6.297.826.952 2.285 1.839 2.95 2.366"/><use xlink:href="#AQ"/><use xlink:href="#AR"/><use xlink:href="#AS"/><use xlink:href="#AT"/><use xlink:href="#AU"/><use xlink:href="#AV"/><use xlink:href="#AW"/><use xlink:href="#AX"/><use xlink:href="#AY"/><use xlink:href="#AZ"/><use xlink:href="#Aa"/><use xlink:href="#Ab"/><use xlink:href="#Ac"/></g><g transform="matrix(.017532 -1.046164 .914327 .053977 -418.77744 874.0851)" fill="#fff" class="B F P"><use xlink:href="#Ad"/><g class="G"><use xlink:href="#Ae"/><use xlink:href="#Af"/><path d="M309.428 766.376c1.583.017 4.293 1.356 4.515 3.172.222.627.239 1.301.261 1.959"/><use xlink:href="#Ag"/><path d="M311.461 773.18c1.588.774 1.824 2.172 2.077 3.548.115.626-.243 1.594-.306 1.855"/><use xlink:href="#Ah"/><use xlink:href="#Ai"/><use xlink:href="#Aj"/><path d="M312.79 779.91c1.087.841 1.566 1.808 1.61 2.919.035.873-.869 1.989-1.079 2.389m2.299.972c1.138.738 1.143 1.669 1.31 2.657.115.68-.035 1.645-.249 2.031"/></g></g><g class="H B"><g class="C"><use xlink:href="#Ak" class="D"/><use xlink:href="#Al"/></g><g fill="#fff555"><g class="Q"><ellipse transform="matrix(1.258065 0 0 1.378452 -75.03683 469.62516)" cx="291.846" cy="111.584" rx="2.156" ry="3.546"/><ellipse transform="matrix(1.217723 .376569 -.290612 1.33425 -38.136858 364.07756)" cx="291.846" cy="111.584" rx="2.156" ry="3.546"/><ellipse transform="matrix(-1.217723 .376569 .290612 1.33425 621.68883 364.5747)" cx="291.846" cy="111.584" rx="2.156" ry="3.546"/></g><g class="R"><ellipse transform="matrix(.77307 .777358 -.5303 .958244 112.32889 287.49112)" cx="291.846" cy="111.584" rx="2.156" ry="3.546"/><ellipse transform="matrix(-.77307 .777358 .5303 .958244 471.57075 287.07686)" cx="291.846" cy="111.584" rx="2.156" ry="3.546"/></g><use xlink:href="#Am" class="C"/></g><use xlink:href="#An" class="C E G"/><use xlink:href="#Ao" fill="#000001" class="C"/><g class="D C"><use xlink:href="#Ap"/><use xlink:href="#Aq"/></g><use xlink:href="#Ar" class="C E G"/><g class="D C"><use xlink:href="#As"/><use xlink:href="#At"/></g><path d="M155.676 721.836l59.805-58.436" class="C E G"/><path d="M161.611 746.488l48.849-48.392-4.565 15.978-43.383 42.914z" class="C"/><path d="M297.656 714.531l.457 82.632m5.935-75.327l.457 74.414" class="E G C"/></g><g class="I"><rect width="10.957" height="3.652" x="309.939" y="788.032" rx="0" ry="3.652"/><rect width="10.957" height="3.652" x="309.939" y="780.051" rx="0" ry="3.652"/><rect width="10.957" height="3.652" x="309.939" y="772.069" rx="0" ry="3.652"/><rect width="10.957" height="3.652" x="309.939" y="764.088" rx="0" ry="3.652"/><rect width="10.957" height="3.652" x="309.939" y="756.106" rx="0" ry="3.652"/><rect width="10.957" height="3.652" x="309.939" y="748.125" rx="0" ry="3.652"/><rect width="10.957" height="3.652" x="309.939" y="740.143" rx="0" ry="3.652"/></g><g class="B C E H"><use xlink:href="#Au"/><g class="G"><path d="M226.748 811.966a3.92 3.92 0 0 0 .52 1.69c.067 1.006-.39 2.015-.39 2.015m-6.112.942s.454.92.52 2.194c.067 1.306-.39 2.616-.39 2.616m-4.03 1.429a5.2 5.2 0 0 0 .969 2.549c.125 1.517-.727 3.04-.727 3.04m2.033.91s.903 1.007 1.033 2.401c.134 1.429-.775 2.863-.775 2.863m7.866 2.21a5.34 5.34 0 0 0 .648 2.223c.084 1.323-.486 2.651-.486 2.651m54.107-44.615l47.572.26"/><use xlink:href="#Av"/></g></g><use xlink:href="#Aw" class="B C D H"/><g class="E G B C H"><use xlink:href="#Ax"/><use xlink:href="#Ay"/><path d="M281.16 797.494l-2.28 8.511-3.04 6.991-2.736 5.015"/><use xlink:href="#Az"/></g><g class="D"><use xlink:href="#BA" class="B C H"/><ellipse transform="matrix(.865774 0 0 1.64497 34.760803 279.84733)" cx="261.859" cy="361.577" rx="2.888" ry="1.52"/><ellipse transform="matrix(.865774 0 0 1.64497 43.203269 274.90039)" cx="261.859" cy="361.577" rx="2.888" ry="1.52"/><ellipse transform="matrix(.865774 0 0 1.64497 51.10615 270.49301)" cx="261.859" cy="361.577" rx="2.888" ry="1.52"/><ellipse transform="matrix(.865774 0 0 1.64497 58.705075 265.93365)" cx="261.859" cy="361.577" rx="2.888" ry="1.52"/><ellipse transform="matrix(.865774 0 0 1.64497 66.152021 260.61441)" cx="261.859" cy="361.577" rx="2.888" ry="1.52"/><ellipse transform="matrix(.865774 0 0 1.64497 74.054902 254.83922)" cx="261.859" cy="361.577" rx="2.888" ry="1.52"/><ellipse transform="matrix(.865774 0 0 1.64497 81.34987 248.45613)" cx="261.859" cy="361.577" rx="2.888" ry="1.52"/><ellipse transform="matrix(.865774 0 0 1.64497 88.796815 242.37699)" cx="261.859" cy="361.577" rx="2.888" ry="1.52"/><ellipse transform="matrix(.865774 0 0 1.64497 95.787826 235.234)" cx="261.859" cy="361.577" rx="2.888" ry="1.52"/><ellipse transform="matrix(.865774 0 0 1.64497 97.763546 254.07933)" cx="261.859" cy="361.577" rx="2.888" ry="1.52"/><ellipse transform="matrix(.865774 0 0 1.64497 90.3166 260.46243)" cx="261.859" cy="361.577" rx="2.888" ry="1.52"/><ellipse transform="matrix(.865774 0 0 1.64497 83.477568 266.38959)" cx="261.859" cy="361.577" rx="2.888" ry="1.52"/><ellipse transform="matrix(.865774 0 0 1.64497 76.030622 272.31675)" cx="261.859" cy="361.577" rx="2.888" ry="1.52"/><ellipse transform="matrix(.865774 0 0 1.64497 67.975763 278.09193)" cx="261.859" cy="361.577" rx="2.888" ry="1.52"/><ellipse transform="matrix(.865774 0 0 1.64497 60.072881 282.80327)" cx="261.859" cy="361.577" rx="2.888" ry="1.52"/><ellipse transform="matrix(.865774 0 0 1.64497 52.018022 287.66658)" cx="261.859" cy="361.577" rx="2.888" ry="1.52"/><ellipse transform="matrix(.865774 0 0 1.64497 43.811183 292.98582)" cx="261.859" cy="361.577" rx="2.888" ry="1.52"/><use xlink:href="#BB"/></g><use xlink:href="#BC"/><path d="M240.292 715.812l1.131-6.926 6.785 3.675-.989 7.209zm3.766 16.297l4.588-5.31 3.858 6.682-4.616 5.625zm-3.797 15.519l6.908-1.238-1.209 7.621-7.127 1.465zm-7.803 21.488l-7.017-.08 2.616-7.259 7.276-.102z" class="D"/><use xlink:href="#BD"/><path d="M281.683 843.194l8.988-3.047c3.848-1.421 11.426-4.57 11.426-4.57" class="B C E G H"/></g><path d="M30 662.362v360h270m-240-480h270v360" class="C E F"/><path d="M163.364 764.077l33.698-.39-.897 18.45 1.153 18.06-34.082.52.897-18.71z"/><g class="B C D H"><rect ry="8.457" rx="0" y="767.362" x="175" height="10" width="10"/><rect ry="8.457" rx="0" y="777.362" x="165" height="10" width="10"/><rect ry="8.457" rx="0" y="777.362" x="185" height="10" width="10"/><rect ry="8.457" rx="0" y="787.362" x="175" height="10" width="10"/></g><path d="M29.5 611.362c0-5.523-2.858-9-7-9s-7.5 4.477-7.5 10a24.83 24.83 0 0 1 0 1.406c0 3.649 1.338 7.188 2.5 10.5 1.195 3.405 2.917 6.39 4.531 9.438 2.501 4.72 7.969 13.656 7.969 13.656s5.468-8.937 7.969-13.656c1.614-3.047 3.337-6.032 4.531-9.437 1.162-3.312 2.5-6.851 2.5-10.5-.014-.487-.009-.957 0-1.406 0-5.523-3.358-10-7.5-10s-7 3.477-7 9c0 1-1 1-1 0zm59.5-36c0-11.046-5.716-18-14-18s-15 8.954-15 20c.035.956.018 1.891 0 2.813 0 7.298 2.677 14.377 5 21 2.389 6.811 5.834 12.781 9.063 18.875C79.064 629.489 90 647.362 90 647.362s10.936-17.873 15.938-27.312c3.229-6.094 6.673-12.064 9.063-18.875 2.323-6.623 5-13.702 5-21-.028-.974-.019-1.915 0-2.812 0-11.046-6.716-20-15-20s-14 6.954-14 18c0 2-2 2-2 0zm241.5 378c0 5.523 2.858 9 7 9s7.5-4.477 7.5-10c-.017-.478-.009-.946 0-1.406 0-3.649-1.338-7.188-2.5-10.5-1.195-3.405-2.917-6.39-4.531-9.437-2.501-4.72-7.969-13.656-7.969-13.656s-5.468 8.937-7.969 13.656c-1.614 3.047-3.337 6.032-4.531 9.438-1.162 3.312-2.5 6.851-2.5 10.5.014.487.009.957 0 1.406 0 5.523 3.358 10 7.5 10s7-3.477 7-9c0-1 1-1 1 0zm-59.5 36c0 11.046 5.716 18 14 18s15-8.954 15-20c-.035-.956-.018-1.891 0-2.812 0-7.298-2.677-14.377-5-21-2.389-6.811-5.834-12.781-9.062-18.875-5.001-9.439-15.937-27.313-15.937-27.313s-10.936 17.873-15.937 27.313c-3.229 6.094-6.673 12.064-9.062 18.875-2.323 6.623-5 13.702-5 21 .028.974.019 1.915 0 2.813 0 11.046 6.716 20 15 20s14-6.954 14-18c0-2 2-2 2 0z" class="J"/></g><defs ><path id="B" d="M281.379 842.737l17.672-5.332 13.406-10.359 9.445-9.141 7.77-7.77.305-12.492-48.445-.305 2.285 6.551-.457 6.246-2.437 6.551 5.332 3.047 4.418 3.656v2.895l-3.961 3.504-7.465 3.809 1.98 5.18z"/><path id="C" d="M281.683 816.839s7.267-2.722 10.664-4.57c3.439-1.871 6.715-4.077 9.75-6.551 2.923-2.382 8.074-7.922 8.074-7.922"/><path id="D" d="M319.617 797.644s-5.234 6.145-8.227 8.836c-3.21 2.886-6.705 5.473-10.359 7.77-3.827 2.405-12.035 6.246-12.035 6.246"/><path id="E" d="M329.215 798.862s-8.149 8.633-12.645 12.492c-3.938 3.381-8.039 6.627-12.492 9.293-4.814 2.882-15.234 7.16-15.234 7.16"/><path id="F" d="M280.922 836.948s9.584-2.67 14.168-4.57c4.007-1.662 7.824-3.768 11.578-5.941 3.876-2.244 7.744-4.555 11.273-7.312 4.105-3.207 11.426-10.664 11.426-10.664"/><path id="G" d="M235.828 843.042l10.512-.152 4.57-2.133 5.332-4.113 3.504 1.371 3.809-1.523 5.332 3.352 5.941 4.875 2.895 5.941.305 2.742-11.73 7.16-16.453 7.617-8.836-13.559z"/><path id="H" d="M223.183 807.089l1.066 3.504 5.941.305 7.16-1.98 6.703.305 7.008 1.676 4.875 4.418 1.523-2.895 3.199-.152 3.504 1.828-.152-33.516-11.883 11.578-6.855 4.113-10.512 5.789z"/><path id="I" d="M275.894 698.468l8.531 2.133 13.711 14.168-.609 81.809-16.605.609-4.113 4.723-5.027 5.637-8.531 5.941.305-31.84 9.293-12.187 5.332-13.254 3.656-17.062.152-17.215-3.504-15.691z"/><path id="J" d="M291.129 699.991l7.312-1.371 6.703-3.047 7.922 4.113 8.074 1.98 8.379 1.219v35.801z"/><path id="K" d="M245.384 694.901l12.098-14.837 9.587 12.098 6.62 16.663 2.967 15.522-.228 16.207-5.022 19.631-7.989 13.924-11.413 11.185-10.957 7.989-18.261 8.446-1.826-17.805 12.783-7.304 14.381-13.011 7.076-12.783 4.109-14.152-.457-10.957-2.967-12.326-4.565-10.272z"/><path id="L" d="M262.695 886.084l12.52-5.783 14.684-9.128 10.069-7.745 9.929-7.729 10.908-9.42 9.196-8.284.033 12.366-16.362 13.629-12.446 9.672-10.768 7.468-10.069 5.67-12.039 7.123z"/><path id="M" d="M253.5 873.484l16.414-8.359 15.958-10.031 10.942-8.511 10.79-8.055 11.854-10.79 10.183-9.271-.152 11.55-17.781 16.414-13.526 11.398-11.702 8.207-10.942 6.231-16.718 8.663z"/><path id="N" d="M249.969 868.356s10.314-4.548 15.296-7.173c4.261-2.245 8.417-4.7 12.456-7.323 5.947-3.862 11.705-8.024 17.309-12.368 5.29-4.101 10.426-8.41 15.379-12.912 6.777-6.158 19.59-19.255 19.59-19.255v8.857s-13.239 12.311-20.13 18.155c-5.408 4.586-10.938 9.039-16.637 13.258-4.984 3.689-10.056 7.279-15.338 10.528-3.914 2.408-8.026 4.479-12.088 6.629-4.127 2.184-12.478 6.369-12.478 6.369z"/><path id="O" d="M134.861 667.443l6.193 15.174 6.503 15.483 3.871 10.529 2.168 6.968 45.521-42.889-6.503.619-8.361-2.168-5.419-3.406-3.716-6.193-3.252-8.206h-2.168l-.774 5.264-4.026 5.419-5.729 1.394-4.181 2.787-5.729-.774-3.561 2.013h-5.419l-4.181-2.323z"/><path id="P" d="M161.338 745.944l-1.703-6.193-2.787-12.696-2.632-11.148 56.515-54.347 4.49 1.548 5.11-1.548 3.097-2.168 3.561 2.323-9.135 19.819-6.968 17.342z"/><path id="Q" d="M211.992 840.453l9.913 11.026-.708-10.457s-1.111-1.967-1.924-2.727c-1.153.096-3.365-2.05-3.365-2.05s-.095 2.886-1.051 3.747c-.724.652-2.864.461-2.864.461z"/><path id="R" d="M255.767 905.621l-1.072-6.698s-1.502 2.162-2.674 2.359c-1.478.248-4.158-1.71-4.158-1.71s.376 3.232-.563 4.355c-.711.85-3.169 1.002-3.169 1.002l5.84 3.59"/><path id="S" d="M227.402 662.596s-7.486 13.33-10.609 20.295c-3.026 6.749-5.568 13.719-7.841 20.757-3.083 9.547-5.792 19.238-7.841 29.059-1.492 7.152-2.504 14.409-3.229 21.679-.901 9.038-1.291 18.132-1.384 27.214-.052 5.076-.039 10.17.461 15.222 1.275 12.879 3.699 25.64 6.458 38.285 2.273 10.422 4.86 20.809 8.303 30.904 2.58 7.567 5.612 15.009 9.225 22.141 4.302 8.491 14.76 24.447 14.76 24.447s13.07-3.887 19.373-6.458c5.858-2.389 17.067-8.303 17.067-8.303s-7.908-9.05-11.532-13.838c-3.938-5.203-7.486-10.692-11.07-16.144-2.695-4.099-5.467-8.161-7.841-12.454-2.23-4.032-5.996-12.454-5.996-12.454"/><path id="T" d="M225.982 686.683l12.783-10.957-2.054 16.663s-1.562-2.119-2.739-2.283c-1.484-.207-4.109 1.826-4.109 1.826s.285-3.241-.685-4.337c-.734-.83-3.196-.913-3.196-.913z"/><path id="U" d="M239.854 664.558l8.294-5.055 3.867.767-3.094 10.016s-1.228-1.955-2.256-2.181c-1.296-.285-3.76 1.299-3.76 1.299s.485-2.802-.294-3.825c-.589-.774-2.757-1.021-2.757-1.021z"/><path id="V" d="M215.677 709.894l11.806-12.003-.632 16.778s-1.736-1.979-2.923-2.042c-1.497-.08-3.939 2.168-3.939 2.168s.009-3.254-1.051-4.263c-.802-.764-3.262-.638-3.262-.638z"/><path id="W" d="M208.087 734.515l9.19-13.618 2.709 15.996s-2.094-1.54-3.27-1.372c-1.483.211-3.43 2.806-3.43 2.806s-.637-3.08-1.876-3.833c-.938-.569-3.323.021-3.323.021z"/><path id="X" d="M204.132 759.544l8.173-14.719 3.87 16.337s-2.201-1.443-3.362-1.187c-1.464.323-3.217 3.141-3.217 3.141s-.86-3.138-2.151-3.828c-.977-.522-3.314.256-3.314.256z"/><path id="Y" d="M203.638 783.559l5.585-14.005 6.559 13.628s-2.413-.928-3.514-.534c-1.389.497-2.644 3.207-2.644 3.207s-1.375-2.6-2.763-3.009c-1.051-.309-3.224.713-3.224.713z"/><path id="Z" d="M204.222 794.649l8.173 13.714 3.87-15.222s-2.201 1.345-3.362 1.106c-1.464-.301-3.217-2.927-3.217-2.927s-.86 2.924-2.151 3.567c-.977.487-3.314-.238-3.314-.238z"/><path id="a" d="M220.524 863.086l13.274 10.356-2.82-16.551s-1.463 2.189-2.631 2.406c-1.473.275-4.189-1.635-4.189-1.635s.434 3.225-.484 4.364c-.695.863-3.15 1.059-3.15 1.059z"/><path id="b" d="M232.651 885.305l11.395 9.515-2.196-14.909s-1.308 1.942-2.329 2.118c-1.287.223-3.621-1.536-3.621-1.536s.328 2.903-.49 3.911c-.619.763-2.759.9-2.759.9z"/><path id="c" d="M266.5 680.439s2.421 4.981 4.379 6.824c2.895 2.724 6.601 4.613 10.372 5.765 2.659.813 5.527.868 8.298.706 2.738-.16 5.498-.668 8.067-1.647 2.692-1.026 7.491-4.353 7.491-4.353s4.647 3.617 7.25 4.957c2.622 1.35 5.449 2.322 8.309 3.044 2.395.605 7.335 1.059 7.335 1.059v-15.884z"/><path id="d" d="M276.2 574.089s3.101-.152 4.172-1.113c1.147-1.029 1.865-2.783 1.669-4.311-.181-1.417-1.335-2.656-2.503-3.477-1.105-.776-2.557-1.297-3.894-1.113-2.103.289-4.086 1.69-5.424 3.338-1.211 1.491-1.947 5.424-1.947 5.424l.139 32.682s-2.807-.05-3.894.695c-1.252.859-2.341 2.376-2.364 3.894-.024 1.598 1.169 3.111 2.364 4.172 1.165 1.035 2.76 1.951 4.311 1.808 1.767-.163 3.218-1.644 4.45-2.921 1.055-1.092 1.932-2.438 2.364-3.894.41-1.378.139-4.311.139-4.311z"/><path id="e" d="M316.67 584.241s2.199.295 2.642 2.642c.278 1.469-.887 3.701-2.225 3.894-3.898.561-4.45-2.642-4.45-2.642"/><path id="f" d="M262.165 886.229s11.931-6.055 17.679-9.468c5.3-3.148 10.444-6.565 15.467-10.138 5.63-4.005 11.114-8.225 16.421-12.65C318.03 848.723 330 837.507 330 837.507v-8.145l-17.401 16.05c-5.588 4.91-11.186 9.829-17.115 14.322-5.076 3.846-10.299 7.527-15.769 10.788-6.822 4.067-21.189 10.898-21.189 10.898z"/><path id="g" d="M272.132 897.881s6.234-3.064 9.272-4.743c5.119-2.828 10.168-5.792 15.078-8.969 5.51-3.565 10.906-7.319 16.117-11.308 5.996-4.589 17.401-14.499 17.401-14.499v-8s-11.218 10.294-17.139 15.07c-5.116 4.127-10.433 8.009-15.859 11.718-5.498 3.758-11.146 7.301-16.897 10.658-3.748 2.188-11.462 6.175-11.462 6.175z"/><path id="h" d="M217.787 602.434c-2.351-.961-4.425-1.257-6.692-1.489a37.27 37.27 0 0 0-8.638.138c-3.142.415-6.389.937-9.251 2.323-1.301.63-3.436 2.643-3.436 2.643s5.855-2.742 8.986-3.436c2.414-.535 4.93-.616 7.401-.529 2.823.099 5.606.752 8.4 1.197 2.315.369 4.076.347 6.93 1.221z"/><path id="i" d="M221.471 614.296s-2.113-2.565-3.387-3.571c-1.532-1.21-3.219-2.264-5.026-2.89-1.513-.524-3.134-.622-4.724-.675-1.781-.059-3.609-.052-5.332.405-2.334.619-4.482 1.852-6.546 3.104-1.785 1.083-3.574 2.208-4.994 3.779-.77.851-1.831 2.972-1.831 2.972l5.408-1.825c2.946-.992 5.795-2.348 8.841-2.969 1.68-.343 3.414-.403 5.129-.405 1.634-.002 3.265.193 4.889.373l1.819.265 5.754 1.436z"/><path id="j" d="M193.602 618.088s5.594 1.831 8.073 3.293c1.346.794 2.969.929 4.499 1.018 2.303.133 4.705.019 6.884-.742 1.308-.457 2.39-1.401 3.512-2.227 1.478-1.088 4.222-3.579 4.222-3.579l-6.182-1.484c-1.672-.343-3.342-.81-5.043-.86-2.142-.063-4.292.266-6.395.709-3.82.804-11.211 3.518-11.211 3.518z"/><path id="k" d="M255.463 607.646s-.322.13-1.357-1.841c-.941-1.793-2.375-1.9-3.751-2.41-2.16-.801-4.524-1.147-6.798-.923-1.88.185-3.812.743-5.4 1.847-1.576 1.095-2.995 2.776-3.768 4.508 1.557-.823 2.489-2.097 3.876-2.894 1.571-.902 3.212-1.816 4.972-2.099 2.56-.412 5.292-.256 7.743.645 1.69.622 4.483 3.168 4.483 3.168z"/><path id="l" d="M232.838 610.863c.013 2.148.291 5.189.616 7.762l1.297 7.461 1.095 6.759c.349 2.137 1.062 4.24 1.054 6.41-.004 1.062.051 2.284-.54 3.133-1.082 1.554-3.178 1.832-4.826 2.614-.862.409-2.033.363-2.639 1.082"/><path id="m" d="M221.486 636.394c-1.262-.463-2.455.801-3.106 1.806-.481.743-.512 1.787-.279 2.642.336 1.23 1.149 2.482 2.28 3.071 1.293.674 2.993.601 4.371.124 1.036-.359 1.567-1.575 2.527-2.105 1.214-.671 2.616-.939 3.957-1.288"/><path id="n" d="M215 655.612l4-1.125c1.248-.342 2.456-1.004 3.75-1 1.425.004 2.729.836 4.125 1.125 1.154.239 2.349.753 3.5.5.824-.181 1.291-1.251 2.125-1.375 1.2-.179 2.399.491 3.5 1 .682.315 1.875 1.25 1.875 1.25s-1.862-.943-2.875-1c-1.322-.075-2.557.745-3.875.875-1.659.164-3.342.054-5-.125-1.097-.118-2.16-.457-3.25-.625-1.078-.166-2.162-.456-3.25-.375-1.119.083-2.138.728-3.25.875-.454.06-1.375 0-1.375 0z"/><path id="o" d="M222.25 662.269s2.264 1.165 3.5 1.375c1.11.189 2.28.138 3.375-.125 1.251-.301 3.5-1.625 3.5-1.625"/><path id="p" d="M234.368 613.812s3.075-2.469 4.797-3.345c1.503-.764 3.081-1.51 4.75-1.625 1.524-.105 3.035.439 4.5.875 1.164.347 2.329.734 3.375 1.375 1.233.756 3.328 2.859 3.328 2.859"/><path id="q" d="M254.449 617.503s-3.075 2.814-4.882 3.751c-1.284.666-2.696 1.117-4.119 1.271-2.13.23-4.366.217-6.403-.545-1.223-.458-2.252-1.472-3.302-2.35-.747-.625-2.121-2.066-2.121-2.066l3.868-2.099c1.323-.609 2.649-1.312 4.047-1.544 2.037-.337 4.147-.261 6.147.254 2.387.615 6.765 3.33 6.765 3.33z"/><path id="r" d="M111.35 542.378l30.191 39.984c10.439-3.776 20.393-2.991 30.671-3.263 10.713-.283 21.455.516 32.105 1.706 10.558 1.179 21.837 2.943 31.415 5.372 10.945-16.155 24.69-27.645 35.636-43.8H111.35z"/><path id="s" d="M156.078 561.079c-.728-.379-1.07-2.133-.6-3.072a.89.89 0 0 1 .833-.429c.888.104 1.699.9 1.945 1.707.175.576-.486 1.139-.488 1.738-.002.595.097 1.252.473 1.726.736.929 1.937 1.721 3.156 1.771 2.028.083 4.589-.818 5.496-2.506.837-1.558-.043-3.666-1.077-5.12-.701-.984-1.889-1.884-3.16-1.998-1.152-.104-2.194.718-3.188 1.266.58-1.663 1.22-3.592.492-5.197-.697-1.537-2.461-2.663-4.177-3.188-.722-.221-1.524.028-2.28.107h0c-1.358.652-2.753 1.654-3.254 2.988-.504 1.344.046 2.894.56 4.235.394 1.027 1.182 1.89 1.88 2.769-.999-.315-2.157-.336-3.078.081-1.743.791-3.624 2.372-3.684 4.161-.058 1.724 1.607 3.421 3.275 4.203 1.542.724 3.698.805 5.192-.028 1.165-.65 1.77-2.088 2.007-3.356.116-.619-.325-1.861-.325-1.861z"/><path id="t" d="M130.961 564.445c-.054-.682.444-.755.298-1.572-.145-.812-1.495-1.177-2.319-.993-.292.065-.568 1.073-.606 1.364l-6.308-8.375c.284-.428.76-.843 1.099-1.202.643-.314 1.25-.82 1.967-.841 1.702-.05 3.675.444 4.822 1.668 1.197 1.277 1.29 3.291 1.347 5.037.693-.829 1.329-1.918 2.386-2.185 1.167-.295 2.53.168 3.489.871 1.417 1.038 2.933 2.754 2.726 4.482-.225 1.873-2.201 3.423-4.013 4.074-1.348.485-2.926.051-4.271-.434"/><path id="u" d="M197.748 567.953c-2.128-.039-4.181-1.301-5.787-2.783-.855-.789-1.037-2.219-1.849-3.068-.37-.386-.909-.236-1.323-.867-.196 3.113.727 3.584 1.646 5.07 1.208 1.953 2.978 3.537 4.865 4.705 2.03 1.256 4.345 2.141 6.694 2.321 2.767.211 5.635-.427 8.266-1.498 1.786-.728 3.526-1.805 4.903-3.266.766-.812 1.507-2.073 1.748-2.928-1.262 1.233-3.254 2.59-5.128 3.232-1.708.585-3.626 1.012-5.317.476-1.641-.52-2.734-1.704-4.053-3.382-1.787.719-3.013 2.02-4.663 1.989z"/><path id="v" d="M176.712 566.762c2.167.282 4.418-.726 6.327-1.879 1.006-.607 1.629-1.764 2.522-2.545.422-.37.535-1.117 1.335-1.009-.306 3.106-1.315 3.548-2.49 4.906-1.546 1.785-3.598 3.047-5.703 3.917-2.265.936-4.759 1.462-7.174 1.286-2.844-.208-5.652-1.27-8.15-2.726-1.696-.988-3.383-2.224-4.449-3.966-.572-.935-.79-2.359-.896-3.24 1.081 1.409 2.592 3.126 4.278 4.049 1.622.888 3.518 1.547 5.322 1.272 1.751-.267 3.052-1.273 4.664-2.733 1.697.98 2.732 2.45 4.413 2.669z"/><path id="w" d="M227.636 573.111c-1.945-.059-3.856-1.419-5.461-2.652-.762-.585-1.172-1.536-1.885-2.181-.41-.371-.64-.937-1.358-.954.021 2.897 1.025 2.933 1.922 4.176 1.266 1.754 2.861 3.362 4.742 4.432 1.742.99 3.778 1.486 5.772 1.674 2.645.249 5.442.166 7.936-.752 1.629-.6 2.991-1.812 4.266-2.99 1.082-1 2.648-2.615 2.812-3.408-1.505.516-2.469 1.83-5.581 3.521-1.416.769-3.477 1.014-5.12.523-1.616-.483-2.605-1.615-3.917-3.192-1.585.651-2.621 1.849-4.129 1.804z"/><path id="x" d="M141.688 570.291c-1.793.716-4.304.414-6.223-.504-1.147-.549-1.852-1.803-2.696-2.768-.551-.63-1.878-3.226-1.543-1.967.51 1.916 1.661 4.693 3.538 6.314 1.704 1.472 4.261 2.187 6.421 2.59 2.324.433 4.698.426 6.746-.24 2.412-.784 4.481-2.382 6.134-4.294 1.122-1.298 2.103-2.955 2.443-4.724.187-.976-.037-2.153-.267-3.022-.585 2.141-1.033 3.784-2.357 5.057-1.098 1.055-2.67 1.704-4.231 1.752-1.754.054-3.135-.595-5.08-1.665-1.127 1.29-1.495 2.915-2.885 3.47z"/><path id="y" d="M240.013 578.796s-4.856 1.259-7.34 1.29c-2.807.035-5.761-.124-8.33-1.249-1.816-.795-3.254-2.304-4.637-3.726-.937-.963-2.442-3.213-2.442-3.213s-5.263 2.782-8.133 3.354c-2.842.567-5.818.424-8.678.014-2.75-.394-5.571-.989-7.986-2.354-1.941-1.097-4.932-4.524-4.932-4.524s-4.003 4.141-6.6 5.125c-2.525.956-5.376.672-8.059.5-2.449-.157-4.902-.601-7.222-1.389-2.311-.785-6.542-3.281-6.542-3.281s-2.537 3.339-4.218 4.53c-1.565 1.108-3.428 1.763-5.265 2.292-1.85.532-3.789 1.044-5.702.857-2.63-.257-7.463-2.675-7.463-2.675l5.674 7.017s11.164-3.025 20.084-3.177c5.782-.098 14.212-.126 21.312.097 5.328.168 10.656.461 15.964.932 4.578.406 9.496 1.105 14.226 1.791 3.866.56 7.731 1.142 11.563 1.898 3.354.662 9.992 2.308 9.992 2.308z"/><path id="z" d="M246.256 570.574c-.593-.48-.197-1.124.001-1.931.591-.703.977-.938 1.788-1.002.288.082.461.542.48.835l6.773-7.702c-.256-.444-.553-1.097-.868-1.476-.622-.352-1.196-.892-1.91-.955-1.696-.151-3.698.226-4.922 1.379-1.277 1.203-1.5 3.207-1.67 4.946-.639-.868-1.204-1.991-2.242-2.321-1.146-.363-2.537.019-3.541.663-1.482.952-3.106 2.574-3.011 4.311.104 1.882 1.978 3.545 3.745 4.301 1.314.563 2.918.224 4.293-.181"/><path id="AA" d="M219.034 565.999c.728-.379 1.07-2.133.6-3.072a.89.89 0 0 0-.833-.429c-.888.104-1.699.9-1.945 1.707-.175.576.419 1.142.488 1.738.048.418-.056 1.261-.056 1.261-1.165.909-2.152 2.144-3.573 2.236-2.026.13-4.589-.818-5.496-2.506-.837-1.558.043-3.666 1.077-5.12.701-.984 1.889-1.884 3.16-1.998 1.152-.104 2.194.718 3.188 1.266-.58-1.663-1.22-3.592-.492-5.197.697-1.537 2.461-2.663 4.177-3.188.722-.221 1.524.028 2.28.107h0c1.358.652 2.753 1.654 3.254 2.988.504 1.344-.046 2.894-.56 4.235-.394 1.027-1.182 1.89-1.88 2.769.999-.315 2.157-.336 3.078.081 1.743.791 3.624 2.372 3.684 4.161.058 1.724-1.607 3.421-3.275 4.203-1.542.724-3.7.808-5.192-.028-1.253-.702-1.384-2.296-2.146-3.621z"/><path id="AB" d="M186.981 561.916c-.601-.544-.461-2.323.247-3.116a.91.91 0 0 1 .92-.21c.831.318 1.371 1.287 1.421 2.126.031.529-.565.922-.73 1.428-.143.44-.216 1.366-.216 1.366.881 1.164 1.294 2.587 2.574 3.037 1.906.669 4.655.334 5.986-1.075 1.228-1.3.944-3.554.335-5.212-.412-1.123-1.319-2.283-2.517-2.705-1.085-.382-2.314.157-3.421.442 1.007-1.466 2.145-3.173 1.873-4.902-.261-1.656-1.662-3.177-3.18-4.105-.639-.39-1.48-.347-2.233-.455h0c-1.488.297-3.106.924-3.948 2.091-.849 1.175-.734 2.808-.597 4.23.105 1.089.634 2.116 1.073 3.137-.881-.55-1.994-.854-2.997-.675-1.897.337-4.141 1.405-4.68 3.119-.519 1.652.634 3.7 2.035 4.865 1.296 1.078 3.358 1.687 5.026 1.245 1.4-.372 1.955-1.88 3.048-2.974z"/><path id="AC" d="M208.19 581.864l18.484 49.203c3.345 8.583 2.97 21.222-3.409 28.236-2.696 2.964-8.21 4.454-11.743 2.565-3.873-2.071-6.83-8.368-4.808-12.267 1.767-3.408 7.908-4.744 11.185-2.745 2.145 1.309 2.068 5.119 1.751 7.333"/><path id="AD" d="M203.299 581.551c3.778 9.872 10.021 24.569 13.762 37.274 2.675 9.084 8.008 18.44 6.173 27.731-.778 3.94-3.558 8.875-6.892 9.881-2.217.639-3.536-1.311-3.922-3.228"/><path id="AE" d="M213.069 582.068c3.335 10.784 7.859 20.414 11.502 30.726 3.586 10.151 9.438 19.909 10.192 30.648.345 4.913.625 10.863-2.658 14.535-1.84 2.057-5.04 3.772-7.928 2.387"/><path id="AF" d="M217.81 583.304c3.335 10.395 8.404 21.631 12.534 32.474 3.612 9.485 9.832 18.385 10.708 28.505.372 4.297.485 9.524-2.4 12.713-1.852 2.047-5.04 3.637-7.928 2.301"/><path id="AG" d="M223.23 583.944c3.335 10.325 8.404 21.485 12.534 32.255 3.612 9.421 9.832 18.261 10.708 28.313.372 4.268.485 9.46-2.4 12.627-1.852 2.033-5.04 3.612-7.928 2.286"/><path id="AH" d="M228.646 585.491c3.335 10.08 8.404 20.974 12.534 31.489 3.612 9.197 9.832 17.827 10.708 27.64.372 4.167.485 9.235-2.4 12.327-1.852 1.985-5.04 3.526-7.928 2.231"/><path id="AI" d="M234.082 586.326c3.335 9.975 8.585 20.876 12.771 31.358 3.631 9.093 9.832 17.641 10.708 27.351.372 4.123.485 9.139-2.4 12.198-1.852 1.964-5.04 3.489-7.928 2.208"/><path id="AJ" d="M197.247 661.138c2.751-.664 3.77 3.788 2.583 5.386-1.305 1.757-5.143.719-6.488-1.008-1.81-2.324-1.454-6.834.823-8.799 1.755-1.514 5.004-.963 7.064.138 1.966 1.051 3.408 3.292 3.688 5.442.387 2.966-.475 6.756-3.003 8.488-4.965 3.4-13.159 3.531-18.271-.115-4.366-3.114-6.354-5.238-8.526-8.658-1.652-2.601-2.758-7.626-3.203-8.672l-2.488.083c-.782 5.667-1.059 6.703-3.293 8.976-1.917 1.951-4.402 2.639-7.654 2.961"/><path id="AK" d="M177.437 653.588c1.228 3.044 1.808 4.89 3.366 6.933 2.368 3.106 5.02 6.541 8.811 7.724 2.957.923 6.605.538 9.276-.984"/><path id="AL" d="M181.555 652.232c1.226 2.733 2.563 5.961 4.904 8.061 1.469 1.318 3.382 3.231 5.362 2.514"/><path id="AM" d="M185.441 650.462c.968 2.313 1.53 3.284 2.73 4.603 1.213 1.334 2.984 2.75 4.371 3.187"/><path id="AN" d="M189.641 648.249c1.061 2.019 1.914 3.119 3.188 4.41 1.071 1.086 3.09 2.351 3.671 2.73"/><path id="AO" d="M193.624 645.298c2.013 3.723 4.474 7.202 7.433 9.718 1.565 1.33 4.096 2.002 5.252 2.667"/><path id="AP" d="M197.722 642.638c1.277 2.087 2.078 3.582 3.481 5.081 1.292 1.379 4.071 3.112 4.457 3.503"/><path id="AQ" d="M218.788 647.103c.136-6.655-1.086-9.905-2.772-14.542-1.189-3.27-4.345-7.876-5.087-9.116"/><path id="AR" d="M215.119 645.19c-1.15-3.863-1.797-6.53-3.122-9.635-1.054-2.47-3.468-6.371-3.816-7.095"/><path id="AS" d="M210.606 645.568c-.787-3.29-1.824-6.248-3.091-8.86-.701-1.446-1.894-2.846-2.445-3.661"/><path id="AT" d="M127.301 639.133c.857 1.757 4.292.355 5.144-1.185 1.05-1.898-.346-4.916-2.131-6.147-1.273-.878-3.235-.512-4.638.138-1.495.693-2.872 2.084-3.305 3.674-.712 2.612-.537 6.32 1.618 7.957 3.098 2.354 8.678 2.312 11.643-.822 2.95-3.119 4.892-6.494 6.3-10.249.777-2.073.806-5.504 1.098-6.55"/><path id="AU" d="M141.781 612.833c-.973 6.11-1.304 11.292-3.537 16.43-1.483 3.411-4.098 8.637-6.375 9.156"/><path id="AV" d="M123.412 642.928c.172 2.788 1.883 5.15 4.093 6.367 2.678 1.473 6.529 1.603 9.168.062 4.364-2.548 6.351-7.872 7.36-13.254"/><path id="AW" d="M124.835 647.457c.172 2.788 1.562 5.835 3.917 7.25 2.62 1.574 6.477 1.509 9.168.062 4.149-2.23 6.705-6.458 7.714-11.84"/><path id="AX" d="M128.017 654.528c1.056 3.319 2.126 4.174 4.093 5.129 2.749 1.335 6.517 1.582 9.168.062 4.365-2.502 6.528-7.696 7.537-13.077"/><path id="AY" d="M131.243 659.199c1.298 4.551 2.855 4.553 5.21 5.384 3.139 1.107 7.181.674 9.91-1.233 3.978-2.78 6.395-7.479 6.656-12.949"/><path id="AZ" d="M133.981 663.673c1.775 3.242 3.338 4.829 5.954 5.535 3.164.855 6.963-.201 9.591-2.158 4.171-3.105 7.364-7.944 7.645-13.598"/><path id="Aa" d="M149.888 668.086c3.274.142 6.074-.523 8.18-2.437 3.177-2.887 5.095-5.473 4.838-11.935"/><path id="Ab" d="M141.985 611.71s-.403 2.349-.936 3.394c-.681 1.335-1.612 2.61-2.809 3.511-1.215.915-2.694 1.834-4.213 1.756-1.552-.08-3.214-.945-4.096-2.224-.827-1.199-.861-2.9-.585-4.33.255-1.321.84-2.812 1.99-3.511.901-.547 2.186-.52 3.16-.117.689.285 1.215.959 1.522 1.639.323.715.234 2.341.234 2.341s1.309-2.121 1.756-3.277c.579-1.501.878-3.1 1.17-4.682.236-1.275.247-2.584.468-3.862.211-1.222.819-3.628.819-3.628"/><path id="Ac" d="M141.245 582.136c-.531 8.894-.46 17.823.051 26.712.416 7.249 1.467 14.45 2.452 21.644.546 3.989.727 8.044 1.917 11.925"/><path id="Ad" d="M293.417 763.987c.434-1.891 1.334-3.679 2.388-5.308.772-1.192 1.574-2.522 2.831-3.184 1.446-.763 3.238-.459 4.865-.619 2.53-.249 5.144-1.159 7.607-.531.848.216 1.366 1.19 2.211 1.415 1.769.471 3.707-.7 5.484-.265.796.195 1.663.56 2.123 1.238.335.494.265 1.769.265 1.769s2.641-.705 3.715-.088c.847.486 1.268 1.6 1.415 2.565.199 1.309-.278 2.673-.796 3.892-.448 1.054-1.131 2.027-1.946 2.831-.379.373-1.327.885-1.327.885s2.706-1.356 3.981-.885c.83.307 1.42 1.255 1.592 2.123.183.926-.381 1.856-.708 2.742-.465 1.262-.818 2.675-1.769 3.627-.998.998-3.804 1.858-3.804 1.858s2.717-.916 3.892-.354c.767.367 1.252 1.288 1.415 2.123.225 1.152-.151 2.416-.708 3.45-.415.771-1.098 1.422-1.858 1.858-.608.348-2.035.531-2.035.531s2.661.814 2.831 1.946c.19 1.266-1.255 2.412-2.388 3.008-2.329 1.223-5.315-.081-7.873.531-1.465.35-2.694 1.412-4.158 1.769-2.241.547-4.652 1.051-6.9.531-1.7-.393-3.26-1.438-4.511-2.654-1.473-1.431-2.376-3.372-3.273-5.219-.917-1.888-1.69-3.873-2.123-5.927-.592-2.806-.548-5.714-.619-8.58l.089-3.981c.026-1.032-.143-2.09.088-3.096z"/><path id="Ae" d="M320.662 759.21c-1.541 2.24-3.975 4.116-6.814 4.06-1.92.375-3.857-.729-5.67-.244-1.253.81-2.4 1.64-3.749 2.144-1.225.458-2.505.82-3.847.763"/><path id="Af" d="M322.078 768.852c-3.158 1.831-7.731 3.607-11.404 3.968-1.605.021-3.804.114-4.587-1.617-.685-1.367-.138-3.151 1.272-3.81 2.374-1.378 6.824-3.732 9.412-4.645"/><path id="Ag" d="M321.724 777.875c-4.034.764-8.744 1.91-12.857 1.271-1.413-.479-4.021-.551-4.392-2.333-.319-1.532 1.313-2.875 2.641-3.453.522-.151 3.364-.311 3.905-.351"/><path id="Ah" d="M311.993 755.938c.409 1.334 1.048 3.118 2.724 3.116 1.984.11 3.864-.613 5.591-1.524"/><path id="Ai" d="M311.873 779.364c-2.392-.374-5.985 1.132-5.69 3.654.336 2.872 4.724 2.415 7.286 2.713 2.47.067 4.932-.494 7.402-.129l1.648.146"/><path id="Aj" d="M313.234 785.8c-1.951.686-2.856 2.019-2.527 3.543.316 1.462 2.544 1.798 3.586 1.978"/><path id="Ak" d="M293.631 608.901c-2.587.076-5.175-.162-7.759-.331-1.873-.123-3.967-1.602-5.613-.496-1.311.88-2.424 3.032-2.146 4.837.376 2.447 2.774 3.878 4.656 4.798 2.79 1.365 5.989.623 8.992.66 3.414.043 6.973.741 10.236-.495 2.197-.832 4.997-1.867 5.849-4.493.645-1.987.148-5.036-1.303-6.214-1.384-1.124-3.271.684-4.918.922-2.655.384-5.321.735-7.994.814z"/><path id="Al" d="M292.349 618.143c-3.114.084-6.228-.179-9.338-.366-2.255-.136-4.774-1.772-6.756-.549-1.578.974-2.917 3.354-2.583 5.35.453 2.706 3.339 4.289 5.604 5.307 3.358 1.509 7.209.689 10.822.73 4.11.047 8.392.819 12.32-.548 2.644-.921 6.014-2.065 7.04-4.97.777-2.197.178-5.57-1.568-6.873-1.666-1.243-3.937.756-5.92 1.019-3.196.424-6.404.813-9.621.9z"/><path id="Am" d="M275.643 626.659s-3.525 11.181-6.119 16.411c-3.006 6.06-10.848 17.15-10.848 17.15s1.999-.313 2.908-.727c7.157-3.258 19.344-13.502 19.344-13.502l10.152 12.934 10.291-11.821s10.915 9.896 17.662 12.378c1.398.514 4.45.417 4.45.417s-8.087-11.594-11.126-17.94c-2.355-4.919-5.424-15.437-5.424-15.437s-3.792 1.164-7.649 1.947c-4.545.923-9.247.922-13.907.417-5.263-.569-9.735-2.225-9.735-2.225z"/><path id="An" d="M260.345 659.897s9.262-9.875 13.073-15.437c3.342-4.877 8.483-15.576 8.483-15.576s1.517 7.922 3.199 11.543c1.489 3.207 5.98 8.762 5.98 8.762s5.118-6.122 6.676-9.735c1.389-3.223 2.225-10.291 2.225-10.291s5.157 11.276 8.762 16.272c3.953 5.478 13.907 14.742 13.907 14.742"/><path id="Ao" d="M287.187 629.301c.419 4.294 2.332 9.282 4.172 10.57 2.132-3.013 3.43-6.861 3.894-10.709z"/><path id="Ap" d="M260.865 674.841l-3.701 4.492c6.48 6.973 11.607 14.942 14.675 23.718 4.242 12.136 6.217 25.55 4.556 38.298-1.516 11.64-5.939 23.343-12.98 32.735-7.241 9.659-18.237 16.013-28.572 22.252-3.822 2.307-9.622 3.792-12.204 5.517l.926 4.988c8.327-3.896 18.854-7.821 26.865-13.957 8.858-6.785 17.364-14.826 22.638-24.659 5.926-11.052 8.586-23.994 9.007-36.528.322-9.58-1.748-19.3-4.996-28.319-3.706-10.293-7-18.09-16.213-28.537z"/><path id="Aq" d="M275.847 698.287c2.897 1.972 5.915 1.65 8.33 2.052L330 746.765v-6.881l-39.787-39.786c5.335-.395 10.356-1.625 14.728-4.587 5.231 3.086 9.466 4.438 14.487 5.795 3.439.929 10.572 1.569 10.572 1.569v-5.432s-11.354-1.888-16.608-4.105c-3.231-1.363-8.933-5.553-8.933-5.553s-7.635 4.272-11.831 5.312c-3.679.912-7.669 1.638-11.348.724-4.032-1.001-10.623-6.519-10.623-6.519z"/><path id="Ar" d="M257.057 679.563s-9.507 10.882-13.442 16.914c-3.776 5.789-6.787 12.062-9.658 18.35-2.942 6.444-5.779 12.987-7.726 19.798-2.408 8.423-3.815 17.133-4.829 25.834-.736 6.322-.94 12.709-.9 19.074.024 3.901.369 7.795.698 11.681.298 3.514 1.154 10.518 1.154 10.518"/><path id="As" d="M244.91 694.862l-2.737 4.383c4.151 4.46 7.553 9.601 9.507 15.27 2.616 7.593 3.603 15.992 2.569 23.957-.924 7.109-3.604 14.19-7.68 20.087-4.254 6.154-10.773 10.445-16.778 14.908-2.785 2.07-7.273 4.296-8.866 5.457l-.156 5.032c5.159-2.656 13.155-7.105 18.73-11.992 5.377-4.714 10.557-10.041 13.834-16.396 3.651-7.081 5.648-15.188 5.944-23.149.236-6.337-1.157-12.776-3.351-18.726-2.515-6.824-5.108-12.144-11.016-18.832z"/><path id="At" d="M232.857 717.145c2.005 2.534 3.232 5.772 3.932 8.957.845 3.838.905 7.916.23 11.787-.591 3.392-1.845 6.74-3.684 9.651-2.038 3.226-4.917 5.906-7.904 8.28-1.13.898-2.894 1.594-3.725 2.205l-.473 5.13c2.67-1.37 6.817-3.501 9.605-6.063a34.01 34.01 0 0 0 7.27-9.612c1.901-3.756 3.177-7.916 3.605-12.103.366-3.578.063-7.291-.923-10.75-1.207-4.236-3.132-7.989-5.979-11.783z"/><path id="Au" d="M255.884 836.424c-1.581 2.475-4.321 4.231-7.076 5.25-4.078 1.508-8.666.761-13.011.913-3.574.125-7.19.519-10.728 0-1.572-.231-3.456-.232-4.565-1.37-.606-.621-.865-1.662-.685-2.511.225-1.058.974-2.467 2.054-2.511 4.941-.199 14.837.228 14.837.228s-11.59-.664-17.348-1.37c-1.838-.225-3.948.129-5.478-.913-.733-.499-1.429-1.397-1.37-2.283.065-.972 1.002-1.762 1.826-2.283 1.123-.71 2.555-1.001 3.88-.913 5.61.374 16.892.685 16.892.685l-19.174-.457c-1.477-.005-3.079-.139-4.337-.913-.83-.511-1.784-1.309-1.826-2.283-.036-.822.73-1.536 1.37-2.054.955-.775 2.195-1.39 3.424-1.37l19.631.228s-12.024-.211-18.033-.685c-1.032-.081-1.991-.931-2.511-1.826-.346-.596-.486-1.415-.228-2.054.444-1.103 1.366-2.313 2.739-2.283l20.087.228s-10.321.388-15.294-.487c-.904-.159-1.853-1.204-1.761-2.118.105-1.04 1.46-1.614 2.446-1.961 1.795-.631 3.814.187 5.707 0 3.861-.382 7.538-2.093 11.413-2.283 3.055-.149 6.233-.065 9.131.913 2.201.743 4.194 2.114 5.935 3.652 1.095.968 2.189 2.07 2.739 3.424.891 2.196.571 4.709.685 7.076.092 1.9.194 3.814 0 5.707-.229 2.242-.157 4.72-1.37 6.62z"/><path id="Av" d="M160.254 740.37l3.716-3.716-7.587-8.98 7.897-6.968 3.716 4.335-3.561 3.406 3.871 3.561 7.897-6.658-7.742-8.671 8.516-7.587 3.561 3.561-2.942 4.026 3.097 3.252 8.051-7.897-7.742-7.742 8.516-8.361 4.026 4.181-3.561 4.335 3.716 3.252 7.897-7.432-8.051-8.516 8.671-7.897 3.561 3.871-3.716 3.716 4.335 4.49 8.671-9.445-8.206-7.897 7.742-7.432 3.406 3.871-3.406 3.252 2.323 2.477"/><path id="Aw" d="M263.597 813.071l6.889-4.679c1.997-1.672 3.697-3.671 5.459-5.589l4.939-5.719s1.801 3.805 2.21 5.849c.502 2.508.784 5.165.26 7.669-.473 2.257-2.99 6.239-2.99 6.239s3.402 1.363 4.939 2.34c1.896 1.205 4.241 2.257 5.199 4.289.333.705.306 1.622 0 2.34-.565 1.325-1.999 2.085-3.119 2.99-1.505 1.215-3.109 2.327-4.809 3.249-1.075.583-3.379 1.43-3.379 1.43s1.522 4.091 1.69 6.239c.217 2.781-.326 5.591-.91 8.319-.378 1.765-1.668 5.153-1.668 5.153s-1.094-4.79-2.362-6.843c-1.368-2.216-3.44-3.944-5.459-5.589-2.115-1.723-6.889-4.419-6.889-4.419l.52-6.369c.053-2.905-.302-5.804-.39-8.709l-.13-8.189z"/><path id="Ax" d="M265.05 817.099s5.293.321 7.751 1.216c3.502 1.275 9.575 5.775 9.575 5.775s-4.991 5.16-8.207 6.535c-3.103 1.327-10.031 1.368-10.031 1.368"/><path id="Ay" d="M264.595 821.963c3.242-.253 6.332 1.013 9.727 2.584-2.989 2.533-6.586 3.09-10.335 3.344"/><path id="Az" d="M270.978 831.689s2.992 3.586 4.103 5.623c1.145 2.098 2.021 4.365 2.584 6.687.672 2.773.912 8.511.912 8.511"/><path id="BA" d="M256.188 814.761s.452-1.505 1.04-1.95c.813-.615 2.003-.907 2.99-.65 1.455.38 2.697 1.649 3.379 2.99 1.142 2.243.616 5.002.716 7.517.108 2.735.079 5.481-.13 8.211-.133 1.744.253 3.743-.716 5.199-.613.922-1.761 1.553-2.86 1.69-1.524.19-4.419-1.3-4.419-1.3.946-6.881 2.187-13.651 0-21.706z"/><path id="BB" d="M250.406 689.422s1.37 1.591 2.283 2.054c2.981 1.513 7.843-.645 9.815 2.054 3.068 4.2-3.522 10.689-1.598 15.522 1.596 4.01 8.89 4.23 9.815 8.446 1.022 4.656-5.923 8.244-5.935 13.011-.013 5.006 7.35 8.832 6.163 13.696-.989 4.052-7.853 4.08-9.815 7.761-2.764 5.186 2.349 13.026-1.37 17.576-2.454 3.002-8.338.564-11.185 3.196-3.518 3.252-1.041 10.802-5.022 13.468-3.732 2.499-9.452-2.469-13.468-.457-3.812 1.91-7.304 10.5-7.304 10.5l-.457-4.565s2.96-7.779 6.391-9.359c3.824-1.761 8.989 3.608 12.555 1.37 4.24-2.661 1.426-10.67 5.022-14.152 2.697-2.611 8.49-.41 10.728-3.424 2.904-3.91-1.808-10.185.228-14.609 1.825-3.966 8.904-4.404 9.815-8.674.959-4.496-5.792-7.958-5.707-12.555.079-4.253 6.557-7.246 5.707-11.413-.799-3.914-7.625-4.061-9.131-7.761-1.843-4.53 4.162-10.593 1.37-14.609-1.844-2.652-6.614-.809-9.359-2.511-.733-.454-1.712-1.94-1.712-1.94z"/><path id="BC" d="M235.158 712.51l6.665-12.625 7.221 9.031 3.367 10.121 2.016 9.954-.155 10.393-3.412 12.589-5.852 8.223-7.331 6.749-7.445 6.254-9.157 5.416.031-15.235 7.131-3.554 6.52-6.082 5.091-7.774 2.085-9.076.397-7.027-2.016-7.905-3.102-6.587z"/><path id="BD" d="M222.199 757.651l2.12-15.124 3.392-12.439 5.371-12.439 3.958 9.753.141 9.47-3.11 9.753-4.664 5.795z"/></defs></svg>