<svg xmlns="http://www.w3.org/2000/svg" xmlns:xlink="http://www.w3.org/1999/xlink" width="360" height="540" viewBox="0 0 95.25 142.875" xmlns:v="https://vecta.io/nano"><style><![CDATA[.B{stroke-linejoin:round}.C{stroke-width:2}.D{fill:none}.E{stroke-linecap:round}.F{fill:#ff5}.G{stroke:#55a}.H{fill:#55a}.I{fill:#f55}.J{fill:#000200}.K{stroke-width:2.004}.L{stroke-width:2.014}]]></style><g transform="matrix(.264583 0 0 .264583 0 -135.562492)"><rect rx="29.944" y="512.862" x=".5" height="539" width="359" fill="#fff" stroke="#000"/><path d="M102.177 790.026l13.274-15.78 142.768-.192-13.305 16.102zM30 542.362a10 10 0 0 0-10 10v30a10 10 0 0 0 10 10 10.12 10.12 0 0 0 1.281-.094c1.713 3.049 4.972 5.094 8.719 5.094v-5c-1.64 0-3.088-.812-4-2.031 2.424-1.825 4-4.701 4-7.969v-30a10 10 0 0 0-10-10zm0 5a5 5 0 0 1 5 5v30c0 .716-.167 1.384-.437 2-1.275-4.056-5.085-7-9.562-7v-25a5 5 0 0 1 5-5zm-5 35a5 5 0 0 1 5 5 5 5 0 0 1-5-5zm305 440a10 10 0 0 0 10-10v-30a10 10 0 0 0-10-10c-.434 0-.862.04-1.281.094-1.713-3.049-4.972-5.094-8.719-5.094v5c1.64 0 3.088.812 4 2.031-2.424 1.825-4 4.701-4 7.969v30a10 10 0 0 0 10 10zm0-5a5 5 0 0 1-5-5v-30c0-.716.167-1.384.438-2 1.275 4.057 5.085 7 9.563 7v25a5 5 0 0 1-5 5zm5-35a5 5 0 0 1-5-5 5 5 0 0 1 5 5z"/><path d="M287.25 669.862l-22 75.5.25 8.5-2.5 8.25-4.5 4.75-4.5 1.5 7.75 1 15.75-21 51.75 35.75.5-81zM30 705.362v77.5l2.375-1.25 15.875-28.25-10.75-12.5 10.25-8.25-14.375-24.625z" class="I"/><use xlink:href="#B" fill="#5455aa" class="B C G"/><use xlink:href="#C" class="I"/><g class="B C G"><path d="M291 672.862l38.75 30.25" class="D E"/><use xlink:href="#D" class="F"/><path d="M157.5 622.362l8 6 49.5-86h-12.5z" class="I"/></g><g stroke="#000100" class="B C"><use xlink:href="#E" class="D E"/><use xlink:href="#F"/><use xlink:href="#G"/></g><path d="M185.846 628.013c.525 4.582 1.647 9.671 2.838 12.92m1.386-19.115c.793 8.121 3.097 14.756 4.71 20.645m-.204-28.248c1.397 9.703 3.023 20.483 6.377 29.534m1.424-18.1c.586 7.253 3.051 13.729 4.23 19.204m2.048-11.8c1.037 6.686 2.463 9.391 3.247 12.606m3.395-6.543c.751 2.667 1.623 4.747 2.374 6.758M250.5 542.362s.98 12.878 7.75 19.75 15.25 10.25 15.25 10.25m-18.875-30s1.27 10.769 6.644 16.781 12.106 8.219 12.106 8.219m-15.25-25s1.56 7.836 5.539 12.417 9.961 7.583 9.961 7.583m-11-20s1.057 5.404 4.268 8.954 6.732 5.296 6.732 5.296M267 542.362s.621 4.078 2.505 6.254 4.245 3.246 4.245 3.246" class="D E G B C"/><g transform="matrix(-1 0 0 1 499.75 .75)" class="B C D E G"><path d="M250 542.862s.48 9.878 8.5 18.75 22 8 22 8m-27.125-27.25s1.27 8.519 8.394 16.031 15.856 6.469 15.856 6.469m-19.5-22.5s1.56 7.836 5.539 12.417 11.711 5.083 11.711 5.083"/><path d="M262.625 542.362s1.057 5.404 4.268 8.954 5.232 3.046 5.232 3.046"/></g><g class="B C G"><use xlink:href="#H" class="H"/><use xlink:href="#I" class="D E"/><g class="H"><use xlink:href="#J"/><use xlink:href="#K"/></g><g class="D"><g class="E"><use xlink:href="#L"/><use xlink:href="#M"/></g><use xlink:href="#N"/><use xlink:href="#O"/></g><use xlink:href="#P" class="H"/><g class="D"><g class="E"><use xlink:href="#Q"/><use xlink:href="#R"/><path d="M258.777 588.872c-1.483 3.078.099 3.092.282 4.505l1.126 1.126"/></g><use xlink:href="#S"/></g><use xlink:href="#T" class="H"/><g class="D E"><path d="M242.445 640.121s3.095-1.655 4.787-1.69c1.915-.039 5.491 1.69 5.491 1.69m-10.982-3.802s4.078 1.364 6.195 1.408c1.813.037 5.35-.986 5.35-.986"/><use xlink:href="#U"/></g></g><g stroke="#000" class="B"><path d="M302 603.612l9.75-16.25 8.75 16.25-9.5 15.75z" class="C F"/><path d="M307.25 603.112l4-7 3.75 6.75-3.75 7.5z" class="C I"/><g class="F C"><use xlink:href="#V"/><use xlink:href="#W"/><ellipse cx="310.75" cy="705.612" rx="9" ry="8.25"/><use xlink:href="#X"/></g><g class="D E C"><use xlink:href="#Y"/><use xlink:href="#Z"/></g><use xlink:href="#a" class="C F"/><use xlink:href="#b" class="C D E"/><use xlink:href="#c" class="C F"/><g class="D"><g class="E C"><use xlink:href="#d"/><use xlink:href="#e"/></g><use xlink:href="#f" class="C"/><path d="M211.75 677.862s14.661 1.168 22 1c6.144-.14 18.36-1.677 18.36-1.677L244 710.362z" class="C"/><path d="M234.75 700.112l7.462 3.212 4.288-4.712m-18.741-4.889c-.5-1 13.241 4.14 13.241 4.14l7.253-7m-28.425-5.463L239 692.862l11.358-9.82m-33.96-4.712L238 687.862l11.177-9.962m-20.567.965l7.89 4.247 5.25-4" class="E C"/><path d="M218.25 657.862l6 .57v4.5l-6-.57z" class="C"/><path transform="rotate(25.058)" d="M432.986 512.949l4.55-.15v4.5l-5.094-.424z" class="C"/><path transform="rotate(9.609)" d="M289.621 611.883l6.013.72-.257 4.688-6.002-.866z" class="C"/><path transform="rotate(6.013)" d="M262.19 630.387l6.328.395v4.5l-6.186-.41z" class="C"/><path d="M231.575 648.169l6.301.416v4.5l-6.153-.279zm23.347 1.176h6v4.5h-6z" transform="rotate(2.197)" class="C"/><path d="M149.114 685.218l5.659.384-.423 4.442-5.781-.545zm10.727.648l5.436-.078-.019 4.641-5.436.078z" transform="rotate(352.151)" class="C"/><path transform="matrix(.946138 -.323764 .242147 .97024 0 0)" d="M95.526 707.644l3.097-.371 2.432 4.702-5.529.15z" class="K"/></g></g><g class="C G B"><use xlink:href="#g"/><use xlink:href="#h" class="D E"/><use xlink:href="#i" class="F"/><use xlink:href="#j" class="D E"/><g class="F"><use xlink:href="#k"/><use xlink:href="#l"/></g></g><use xlink:href="#m"/><g class="B C G"><use xlink:href="#n" class="F"/><use xlink:href="#o" class="D"/><path d="M55.308 679.67l-7.954-3.338-1.615-7.208 6.969 2.562zM67 678.362l1.977-7.715 7.523-3.285-2.5 8.5zm-.232 11.361L68 696.862l8 4-1.5-8.5zm-10.722-.622l-8.347 3.265-1.605 7.699L54 696.859z" class="I"/><use xlink:href="#p" class="D E"/><use xlink:href="#q" class="F"/><use xlink:href="#r" class="H"/><g class="D"><use xlink:href="#s"/><use xlink:href="#t"/></g><use xlink:href="#u" class="E F"/></g><use xlink:href="#v" class="J"/><path d="M150.5 739.404l14-.042 31.5 29.5" class="B C D E G"/><use xlink:href="#w" class="J"/><path d="M121 769.612l139.5-.5" class="B C D E G"/><g fill="#fff"><use xlink:href="#x"/><use xlink:href="#y"/><use xlink:href="#z"/><use xlink:href="#z" x="45.544" y="19.486"/><use xlink:href="#z" x="38.55" y="36.68"/><use xlink:href="#z" x="70.607" y="44.548"/></g><g class="F"><use xlink:href="#AA"/><use xlink:href="#AB"/><use xlink:href="#AB" x="4.885" y="4.848"/><use xlink:href="#AC"/><use xlink:href="#AB" x="-15.921" y="-13.849"/><use xlink:href="#AB" x="-11.036" y="-9.001"/><use xlink:href="#AD"/><use xlink:href="#AB" x="16.282" y="14.856"/><use xlink:href="#AB" x="21.166" y="19.705"/><use xlink:href="#AA" x="32.164" y="28.991"/><use xlink:href="#AB" x="30.999" y="28.845"/><use xlink:href="#AB" x="35.301" y="32.819"/><use xlink:href="#AA" x="46.153" y="42.397"/><use xlink:href="#AB" x="45.279" y="42.105"/><use xlink:href="#AB" x="50.018" y="46.516"/><use xlink:href="#AA" x="61.307" y="54.782"/><use xlink:href="#AB" x="60.287" y="54.636"/><use xlink:href="#AE"/><use xlink:href="#AF"/><use xlink:href="#AG"/><use xlink:href="#AE" x="-4.959" y="19.07"/><use xlink:href="#AH"/><use xlink:href="#AI"/><use xlink:href="#AJ"/><use xlink:href="#AK"/><use xlink:href="#AI" x="4.716" y="-16.072"/><use xlink:href="#AE" x="9.236" y="-33.847"/><use xlink:href="#AL"/><use xlink:href="#AI" x="9.236" y="-33.848"/><use xlink:href="#AM"/><use xlink:href="#AN"/><use xlink:href="#AO"/><use xlink:href="#AP"/><use xlink:href="#AQ"/></g><g class="G B"><g class="C"><use xlink:href="#AR" class="H"/><g class="D"><use xlink:href="#AS"/><use xlink:href="#AT"/></g><use xlink:href="#r" x="-15.106" y="12.857" class="H"/><g class="D"><use xlink:href="#s" x="-15.106" y="12.857"/><use xlink:href="#t" x="-15.106" y="12.857"/></g></g><g class="L"><use xlink:href="#AU" class="H"/><g class="D"><use xlink:href="#AV"/><use xlink:href="#AW"/></g></g><g class="C"><use xlink:href="#r" x="-66.018" y="61.294" class="H"/><g class="D"><use xlink:href="#s" x="-66.018" y="61.294"/><use xlink:href="#t" x="-66.018" y="61.294"/></g><use xlink:href="#r" x="-50.461" y="72.431" class="H"/><g class="D"><use xlink:href="#s" x="-50.461" y="72.431"/><use xlink:href="#t" x="-50.461" y="72.431"/></g></g></g><g transform="rotate(180 180.125 782.112)"><path d="M287.25 669.862l-22 75.5.25 8.5-2.5 8.25-4.5 4.75-4.5 1.5 8.104.293 13.982-22.293 52.811 35.275.854-78.525zM30 705.362v77.5l2.375-1.25 15.875-28.25-10.75-12.5 10.25-8.25-14.375-24.625z" class="I"/><use xlink:href="#B" fill="#5455aa" class="B C G"/><use xlink:href="#C" class="I"/><g class="B C G"><path d="M291 672.862l38.75 30.25" class="D E"/><use xlink:href="#D" class="F"/><path d="M157.5 622.362l8 6 49.5-86h-12.5z" class="I"/></g><g stroke="#000100" class="B C"><use xlink:href="#E" class="D E"/><use xlink:href="#F"/><use xlink:href="#G"/></g><path d="M185.846 628.013c.525 4.582 1.647 9.671 2.838 12.92m1.386-19.115c.793 8.121 3.097 14.756 4.71 20.645m-.204-28.248c1.397 9.703 3.023 20.483 6.377 29.534m1.424-18.1c.586 7.253 3.051 13.729 4.23 19.204m2.048-11.8c1.037 6.686 2.463 9.391 3.247 12.606m3.395-6.543c.751 2.667 1.623 4.747 2.374 6.758M250.5 542.362s.98 12.878 7.75 19.75 15.25 10.25 15.25 10.25m-18.875-30s1.27 10.769 6.644 16.781 12.106 8.219 12.106 8.219m-15.25-25s1.56 7.836 5.539 12.417 9.961 7.583 9.961 7.583m-11-20s1.057 5.404 4.268 8.954 6.732 5.296 6.732 5.296M267 542.362s.621 4.078 2.505 6.254 4.245 3.246 4.245 3.246" class="D E G B C"/><g transform="matrix(-1 0 0 1 499.75 .75)" class="B C D E G"><path d="M250 542.862s.48 9.878 8.5 18.75 22 8 22 8m-27.125-27.25s1.27 8.519 8.394 16.031 15.856 6.469 15.856 6.469m-19.5-22.5s1.56 7.836 5.539 12.417 11.711 5.083 11.711 5.083"/><path d="M262.625 542.362s1.057 5.404 4.268 8.954 5.232 3.046 5.232 3.046"/></g><g class="B C G"><use xlink:href="#H" class="H"/><use xlink:href="#I" class="D E"/><g class="H"><use xlink:href="#J"/><use xlink:href="#K"/></g><g class="D"><g class="E"><use xlink:href="#L"/><use xlink:href="#M"/></g><use xlink:href="#N"/><use xlink:href="#O"/></g><use xlink:href="#P" class="H"/><g class="D"><g class="E"><use xlink:href="#Q"/><use xlink:href="#R"/><path d="M258.777 588.872c-1.483 3.078.099 3.092.282 4.505l1.126 1.126"/></g><use xlink:href="#S"/></g><use xlink:href="#T" class="H"/><g class="D E"><path d="M242.445 640.121s3.095-1.655 4.787-1.69c1.915-.039 5.491 1.69 5.491 1.69m-10.982-3.802s4.078 1.364 6.195 1.408c1.813.037 5.35-.986 5.35-.986"/><use xlink:href="#U"/></g></g><g stroke="#000" class="B"><path d="M302 603.612l9.75-16.25 8.75 16.25-9.5 15.75z" class="C F"/><path d="M307.25 603.112l4-7 3.75 6.75-3.75 7.5z" class="C I"/><g class="F C"><use xlink:href="#V"/><use xlink:href="#W"/><ellipse cx="310.75" cy="705.612" rx="9" ry="8.25"/><use xlink:href="#X"/></g><g class="D E C"><use xlink:href="#Y"/><use xlink:href="#Z"/></g><use xlink:href="#a" class="C F"/><use xlink:href="#b" class="C D E"/><use xlink:href="#c" class="C F"/><g class="D"><g class="E C"><use xlink:href="#d"/><use xlink:href="#e"/></g><use xlink:href="#f" class="C"/><path d="M211.75 677.862s14.661 1.168 22 1c6.144-.14 18.36-1.677 18.36-1.677L244 710.362z" class="C"/><path d="M234.75 700.112l7.462 3.212 4.288-4.712m-18.741-4.889c-.5-1 13.241 4.14 13.241 4.14l7.253-7m-28.425-5.463L239 692.862l11.358-9.82m-33.96-4.712L238 687.862l11.177-9.962m-20.567.965l7.89 4.247 5.25-4" class="E C"/><path d="M218.25 657.862l6 .57v4.5l-6-.57z" class="C"/><path transform="rotate(25.058)" d="M432.986 512.949l4.55-.15v4.5l-5.094-.424z" class="C"/><path transform="rotate(9.609)" d="M289.621 611.883l6.013.72-.257 4.688-6.002-.866z" class="C"/><path transform="rotate(6.013)" d="M262.19 630.387l6.328.395v4.5l-6.186-.41z" class="C"/><path d="M231.575 648.169l6.301.416v4.5l-6.153-.279zm23.347 1.176h6v4.5h-6z" transform="rotate(2.197)" class="C"/><path d="M149.114 685.218l5.659.384-.423 4.442-5.781-.545zm10.727.648l5.436-.078-.019 4.641-5.436.078z" transform="rotate(352.151)" class="C"/><path transform="matrix(.946138 -.323764 .242147 .97024 0 0)" d="M95.526 707.644l3.097-.371 2.432 4.702-5.529.15z" class="K"/></g></g><g class="C G B"><use xlink:href="#g"/><use xlink:href="#h" class="D E"/><use xlink:href="#i" class="F"/><use xlink:href="#j" class="D E"/><g class="F"><use xlink:href="#k"/><use xlink:href="#l"/></g></g><use xlink:href="#m"/><g class="B C G"><use xlink:href="#n" class="F"/><use xlink:href="#o" class="D"/><path d="M55.308 679.67l-7.954-3.338-1.615-7.208 6.969 2.562zM67 678.362l1.977-7.715 7.523-3.285-2.5 8.5zm-.232 11.361L68 696.862l8 4-1.5-8.5zm-10.722-.622l-8.347 3.265-1.605 7.699L54 696.859z" class="I"/><use xlink:href="#p" class="D E"/><use xlink:href="#q" class="F"/><use xlink:href="#r" class="H"/><g class="D"><use xlink:href="#s"/><use xlink:href="#t"/></g><use xlink:href="#u" class="E F"/></g><use xlink:href="#v" class="J"/><path d="M150.5 739.404l14-.042 31.5 29.5" class="B C D E G"/><use xlink:href="#w" class="J"/><path d="M121 769.612l139.5-.5" class="B C D E G"/><g fill="#fff"><use xlink:href="#x"/><use xlink:href="#y"/><use xlink:href="#z"/><use xlink:href="#z" x="45.544" y="19.486"/><use xlink:href="#z" x="38.55" y="36.68"/><use xlink:href="#z" x="70.607" y="44.548"/></g><g class="F"><use xlink:href="#AA"/><use xlink:href="#AB"/><use xlink:href="#AB" x="4.885" y="4.848"/><use xlink:href="#AC"/><use xlink:href="#AB" x="-15.921" y="-13.849"/><use xlink:href="#AB" x="-11.036" y="-9.001"/><use xlink:href="#AD"/><use xlink:href="#AB" x="16.282" y="14.856"/><use xlink:href="#AB" x="21.166" y="19.705"/><use xlink:href="#AA" x="32.164" y="28.991"/><use xlink:href="#AB" x="30.999" y="28.845"/><use xlink:href="#AB" x="35.301" y="32.819"/><use xlink:href="#AA" x="46.153" y="42.397"/><use xlink:href="#AB" x="45.279" y="42.105"/><use xlink:href="#AB" x="50.018" y="46.516"/><use xlink:href="#AA" x="61.307" y="54.782"/><use xlink:href="#AB" x="60.287" y="54.636"/><use xlink:href="#AE"/><use xlink:href="#AF"/><use xlink:href="#AG"/><use xlink:href="#AE" x="-4.959" y="19.07"/><use xlink:href="#AH"/><use xlink:href="#AI"/><use xlink:href="#AJ"/><use xlink:href="#AK"/><use xlink:href="#AI" x="4.716" y="-16.072"/><use xlink:href="#AE" x="9.236" y="-33.847"/><use xlink:href="#AL"/><use xlink:href="#AI" x="9.236" y="-33.848"/><use xlink:href="#AM"/><use xlink:href="#AN"/><use xlink:href="#AO"/><use xlink:href="#AP"/><use xlink:href="#AQ"/></g><g class="G B"><g class="C"><use xlink:href="#AR" class="H"/><g class="D"><use xlink:href="#AS"/><use xlink:href="#AT"/></g><use xlink:href="#r" x="-15.106" y="12.857" class="H"/><g class="D"><use xlink:href="#s" x="-15.106" y="12.857"/><use xlink:href="#t" x="-15.106" y="12.857"/></g></g><g class="L"><use xlink:href="#AU" class="H"/><g class="D"><use xlink:href="#AV"/><use xlink:href="#AW"/></g></g><g class="C"><use xlink:href="#r" x="-66.018" y="61.294" class="H"/><g class="D"><use xlink:href="#s" x="-66.018" y="61.294"/><use xlink:href="#t" x="-66.018" y="61.294"/></g><use xlink:href="#r" x="-50.461" y="72.431" class="H"/><g class="D"><use xlink:href="#s" x="-50.461" y="72.431"/><use xlink:href="#t" x="-50.461" y="72.431"/></g></g></g></g><path d="M60 542.362h270v360m-300-240v360h270" class="C D G"/><path d="M95 613.362c1 4 5 14 12 14 9 0 13-8 13-18 0-7-2.579-11.612-5-17-2.578-5.737-6.379-10.857-10-16-4.645-6.598-15-19-15-19s-10.355 12.402-15 19c-3.621 5.143-7.422 10.263-10 16-2.421 5.388-5 10-5 17 0 10 4 18 13 18 7 0 11-10 12-14 1-1 1 0 1 1-1 8-1 10-2 16s-4 17-4 17c5-2 15-2 20 0 0 0-3-11-4-17s-1-8-2-16c0-1 0-2 1-1zm-62.5 17c.5 2 2.5 7 6 7 4.5 0 6.5-4 6.5-9 0-3.5-1.289-5.806-2.5-8.5-1.289-2.868-3.19-5.429-5-8-2.323-3.299-7.5-9.5-7.5-9.5s-5.177 6.201-7.5 9.5c-1.81 2.571-3.711 5.132-5 8-1.211 2.694-2.5 5-2.5 8.5 0 5 2 9 6.5 9 3.5 0 5.5-5 6-7 .5-.5.5 0 .5.5-.5 4-.5 5-1 8s-2 8.5-2 8.5c2.5-1 7.5-1 10 0 0 0-1.5-5.5-2-8.5s-.5-4-1-8c0-.5 0-1 .5-.5zm232.5 321c-1-4-5-14-12-14-9 0-13 8-13 18 0 7 2.579 11.612 5 17 2.578 5.737 6.379 10.857 10 16 4.645 6.598 15 19 15 19s10.355-12.402 15-19c3.621-5.143 7.422-10.263 10-16 2.421-5.388 5-10 5-17 0-10-4-18-13-18-7 0-11 10-12 14-1 1-1 0-1-1 1-8 1-10 2-16s4-17 4-17c-5 2-15 2-20 0 0 0 3 11 4 17s1 8 2 16c0 1 0 2-1 1zm62.5-17c-.5-2-2.5-7-6-7-4.5 0-6.5 4-6.5 9 0 3.5 1.289 5.806 2.5 8.5 1.289 2.868 3.19 5.429 5 8 2.323 3.299 7.5 9.5 7.5 9.5s5.177-6.201 7.5-9.5c1.81-2.571 3.711-5.132 5-8 1.211-2.694 2.5-5 2.5-8.5 0-5-2-9-6.5-9-3.5 0-5.5 5-6 7-.5.5-.5 0-.5-.5.5-4 .5-5 1-8s2-8.5 2-8.5c-2.5 1-7.5 1-10 0 0 0 1.5 5.5 2 8.5s.5 4 1 8c0 .5 0 1-.5.5z"/></g><defs ><path id="B" d="M133.875 699.737L99.5 730.112l-8.125-3.25-7.25-.5-8.75 2.875-1.375-3.5-3.125-1.25-3.75 1.75L60 719.612l54.25-38.625 8.875 8.25z"/><path id="C" d="M215.639 768.563l34.233-.458-6.419-6.572-2.14-9.158-101.477-91.707-19.409 16.658 15.436 12.379 11.156 12.685 6.113 10.239 1.223 13.449 15.588-.306z"/><path id="D" d="M131 542.362c3.322 8.876 5.674 18.116 7 27.5 1.006 7.116 1.423 14.326 1 21.5a92.47 92.47 0 0 1-5 25c4.04.621 8.048 1.456 12 2.5a116 116 0 0 1 11 3.5l45.5-80z"/><path id="E" d="M189.75 542.362s3.998 5.916.75 11c-1.817 2.844-9.5 3.5-9.5 3.5s3.079 9.223.5 12.5c-2.628 3.339-12.5 2.5-12.5 2.5s5.147 10.986 2.5 15.5c-3.839 6.547-10.671 4.336-10.671 4.336s4.073 7.879-1.329 14.164c-2.804 3.262-12.75 2-12.75 2 3.612 4.281 3.45 5.487 4 7.75s.409 2.998.409 2.998"/><path id="F" d="M159.895 595.52c-.337 1.159-.741 2.327-1.395 3.342-.862 1.339-1.804 2.833-3.25 3.5-1.818.838-4.337 1.364-6 .25-1.621-1.086-2.322-3.576-2-5.5.372-2.221 4.25-5.25 4.25-5.25s-5.381-1.101-6.5-3.25c-1.05-2.017-.41-4.965 1-6.75 1.391-1.761 4.104-3.156 6.25-2.5 2.409.736 4.25 6.25 4.25 6.25s.549-4.298 1.75-6c1.067-1.512 2.66-3.059 4.5-3.25 1.633-.17 3.606.624 4.5 2 1.408 2.166 1.174 5.449 0 7.75-1.177 2.307-6.29 4.559-6.29 4.559s1.137-3.189-1.513-4.612c-2.118-1.137-5.55.969-6.467 3.191-.777 1.881.022 5.203 1.974 5.777 3.895 1.145 5.48-2.632 5.48-2.632s-.244 2.11-.54 3.125z"/><path id="G" d="M179.391 560.644c-.337 1.159-.741 2.327-1.395 3.342-.862 1.339-1.804 2.833-3.25 3.5-1.818.838-4.337 1.364-6 .25-1.621-1.086-2.322-3.576-2-5.5.372-2.221 4.25-5.25 4.25-5.25s-5.381-1.101-6.5-3.25c-1.05-2.017-.41-4.965 1-6.75 1.391-1.761 4.104-3.156 6.25-2.5 2.409.736 4.25 6.25 4.25 6.25s.549-4.298 1.75-6c2.232-3.059 6.88-2.573 9-1.25 1.408 2.166 1.174 5.449 0 7.75-1.177 2.307-6.29 4.559-6.29 4.559s1.137-3.189-1.513-4.612c-2.118-1.137-5.55.969-6.467 3.191-.777 1.881.022 5.203 1.974 5.777 3.895 1.145 5.48-2.632 5.48-2.632s-.244 2.11-.54 3.125z"/><path id="H" d="M274.546 579.298s6.145 18.823 8.448 28.44c2.667 11.136 4.949 22.407 6.195 33.79 1.114 10.177 1.126 30.693 1.126 30.693l-32.101-26.751s8.895-12.182 11.545-19.148c2.003-5.265 2.33-11.033 3.097-16.614.719-5.228 1.122-10.499 1.408-15.769.264-4.875.282-14.642.282-14.642z"/><path id="I" d="M253.427 588.591v7.603c.236 2.659.789 5.287 1.408 7.884.682 2.86 2.396 5.511 2.534 8.448.079 1.673.002 3.575-.986 4.928-.855 1.171-2.746 1.118-3.801 2.112-.891.839-1.971 3.097-1.971 3.097"/><path id="J" d="M238.221 611.681s-3.465 4.061-2.957 6.336c.32 1.431 1.946 2.504 3.379 2.816 1.569.341 3.167-.644 4.646-1.267 1.706-.719 2.998-3.292 4.787-2.816.731.195 1.443 1.284 1.126 1.971-.84 1.822-3.916.938-5.913 1.126-2.43.229-5.469 1.589-7.321 0-.937-.804-.812-2.451-.563-3.661.357-1.735 2.816-4.505 2.816-4.505z"/><path id="K" d="M217.384 579.58s6.27-3.172 9.787-3.779c3.37-.582 7.047-.678 10.316.222 2.348.647 6.084 3.557 6.084 3.557s-5.22-1.934-7.953-2.342c-3.396-.507-6.902-.598-10.299-.104-2.739.398-7.936 2.446-7.936 2.446z"/><path id="L" d="M237.94 586.62l2.816-2.253s-4.449-1.554-6.758-1.971c-2.501-.452-5.114-1.077-7.603-.563-2.385.492-4.484 1.979-6.476 3.379-2.609 1.833-7.04 6.476-7.04 6.476"/><path id="M" d="M215.976 591.688s6.782-3.321 10.419-4.224c2.243-.557 4.589-.625 6.899-.704 1.408-.048 4.224.141 4.224.141l2.957 5.069-4.787 2.253 4.393-.733c-1.517 4.466-6.722 7.327-9.462 9.18"/><path id="N" d="M234.561 587.887s2.022 3.401 0 6.336c-1.173 1.702-4.349 1.212-6.195.282l-8.448-4.083 5.913-1.408c-1.057 1.73.236 3.53 1.408 4.646 1.402 1.334 3.841 2.141 5.632 1.408 1.832-.75 3.277-3.793 3.097-5.069-.118-.838-1.408-2.112-1.408-2.112z"/><path id="O" d="M231.182 589.435c-.818-.282-2.096.833-1.971 1.69.134.915 1.813 1.704 2.534 1.126.747-.598.342-2.504-.563-2.816z"/><path id="P" d="M272.047 577.81s-5.795-2.065-8.604-1.336c-3.405.883-8.327 6.485-8.327 6.485s5.304-4.639 8.608-5.178c2.887-.471 8.568 1.899 8.568 1.899z"/><path id="Q" d="M253.286 587.605s4.007-4.063 6.617-4.928c2.851-.945 6.215-1.098 9.011 0 1.669.655 3.942 3.661 3.942 3.661"/><path id="R" d="M254.835 589.435s4.965-2.09 7.603-2.253c2.279-.14 4.559.511 6.758 1.126 1.46.409 4.224 1.69 4.224 1.69s-2.624 2.548-4.224 3.379c-2.082 1.082-4.412 2.016-6.758 1.971-1.187-.023-3.379-1.126-3.379-1.126l-3.661-1.437c.986 2.062 2.726 5.785 4.083 6.928"/><path id="S" d="M263.564 589.717c-.658.489-1.072 1.751-.563 2.393.583.736 2.152.664 2.816 0 .531-.531.514-1.705 0-2.253s-1.649-.589-2.253-.141z"/><path id="T" d="M235.406 632.936s4.804-2.008 7.462-1.99c2.022.014 3.611 1.55 5.632 1.592 2.819.058 5.348-2.516 8.025-1.89 1.088.254 1.971 1.99 1.971 1.99s-1.902-.811-2.957-.796c-2.501.036-4.405 1.948-6.899 2.089-2.507.142-4.815-1.139-7.321-1.293-1.969-.121-5.913.298-5.913.298z"/><path id="U" d="M274.25 543.112l-.5 35.5c-.467 13.096.478 26.432-2.25 39.25-1.224 5.753-3.718 11.192-6.25 16.5-1.994 4.18-3.53 8.933-7 12-2.853 2.522-6.726 3.99-10.5 4.5-4.251.574-8.648-.495-12.75-1.75-5.773-1.767-11.234-4.64-16.25-8-4.709-3.154-9.067-6.942-12.75-11.25-2.824-3.304-5.246-7.023-7-11-1.289-2.922-2.5-9.25-2.5-9.25"/><path id="V" d="M310.25 622.237c0 3.107-2.406 5.625-5.375 5.625s-5.375-2.518-5.375-5.625 2.406-5.625 5.375-5.625 5.375 2.518 5.375 5.625z"/><path id="W" d="M321.75 621.737c0 3.245-2.462 5.875-5.5 5.875s-5.5-2.63-5.5-5.875 2.462-5.875 5.5-5.875 5.5 2.63 5.5 5.875z"/><path id="X" d="M310.5 697.362c-3.848-1.014-7.284-4.415-8.759-8.11-1.723-4.318.408-9.296.899-13.92 1.098-10.326 3.098-20.537 4.571-30.816L310 624.362c1.894-.529 2.13.826 2.074 2.514l5.7 45.138c.52 4.887 2.064 9.838 1.271 14.688-.565 3.457-1.505 7.39-4.194 9.635-1.144.955-2.91 1.405-4.351 1.025z"/><path id="Y" d="M311.25 644.112l2.5 25c.517 4.508 1.709 8.963 1.75 13.5.021 2.264.231 4.71-.75 6.75-.715 1.487-3.5 3.5-3.5 3.5"/><path id="Z" d="M312.25 701.112c1.472 1.532 3.062 3.584 2.816 5.685-.165 1.411-1.415 2.724-2.723 3.279-.875.371-1.9-.114-2.844-.214"/><path id="a" d="M306.25 768.112l-2.75-26.75c-.432-5.99-1.676-12.067-.75-18 .411-2.631.779-5.71 2.75-7.5 1.466-1.332 3.769-1.511 5.75-1.5 1.9.01 4.15.162 5.5 1.5 2.398 2.377 2.433 6.388 2.75 9.75.542 5.746-.822 11.518-1.5 17.25-.792 6.695-2.071 13.323-3 20l-1.25 9.75z"/><path id="b" d="M311.25 718.862s3.074 2.117 3.75 3.75c1.116 2.695.107 5.835 0 8.75-.208 5.678-.689 11.346-1.25 17-.73 7.354-2.75 22-2.75 22"/><path id="c" d="M179.75 638.862l-9 15.75 78.25 72.75 16.75-63 9.408-2.845-17.503-15.345s-5.176 3.507-8.155 4.19c-3.412.782-7.032.229-10.5-.25-3.664-.506-10.75-2.75-10.75-2.75s-13.886-.719-20.75-1.75c-5.819-.874-11.543-2.316-17.25-3.75-3.53-.887-10.5-3-10.5-3z"/><path id="d" d="M177.25 643.862s12.911 4.018 19.5 5.5c5.36 1.206 10.799 2.069 16.25 2.75 6.139.767 12.316 1.304 18.5 1.5 4.748.15 9.518.177 14.25-.25 5.13-.463 15.25-2.5 15.25-2.5"/><path id="e" d="M176.5 659.612s12.744 3.726 19.25 5c6.188 1.211 12.471 1.925 18.75 2.5 4.985.456 9.994.764 15 .75 6.009-.017 12.017-.442 18-1 6.193-.578 18.5-2.43 18.5-2.43"/><path id="f" d="M194.75 669.612s18.621 3.31 28.041 3.825c6.8.372 13.635-.005 20.425-.538 5.207-.409 15.535-2.038 15.535-2.038l-12.25 48z"/><path id="g" d="M275.185 661.322l11.466 9.316-21.26 75.007s.478 6.608-.239 9.794c-.689 3.06-1.669 6.319-3.822 8.6-2.029 2.149-4.928 4.125-7.883 4.061-2.567-.056-4.881-1.998-6.689-3.822-1.606-1.62-2.632-3.804-3.344-5.972-.601-1.83-.717-5.733-.717-5.733l-102.955-93.162s9.333-8.207 13.377-12.899c4.659-5.406 8.956-11.199 12.422-17.438 17.28-31.104 49.925-86.473 49.925-86.473l17.677.239-14.333 27.471c-7.047 12.817-14.696 25.295-21.977 37.981l-16.721 29.382-9.555 16.96 78.112 72.618 17.677-62.347z"/><path id="h" d="M139.709 659.279L121 675.862l-7.5 5.5-38.646 27.763-8.116 6.121-7.5 5L30.5 705.862"/><path id="i" d="M58.402 719.96c3.228 2.017 9.098 6.902 9.098 6.902s1.439-1.888 2.5-2c1.853-.196 4.35.754 5 2.5.756 2.031-1.71 3.983-2.5 6-.861 2.197-1.977 4.332-2.439 6.646-.724 3.627-.878 7.41-.47 11.086.411 3.695 2.825 7.051 2.909 10.768.035 1.536.264 3.626-1 4.5-1.939 1.341-7-1-7-1l-26.5 12.5c9.144 5.568 14.779 10.235 22.5 14.788 7.216 4.562 20 14.212 20 14.212l10-12.5c5.416-6.936 10.209-14.374 16-21 4.033-4.614 8.449-8.896 13-13 5.103-4.602 11.634-7.693 16-13 3.837-4.664 6.858-10.188 8.5-16 1.453-5.142 2.407-10.845 1-16-1.643-6.02-6.402-10.793-10.5-15.5-6.058-6.959-20.561-18.53-20.561-18.53l5.5-4s13.419 9.94 19.061 16.03c5.437 5.871 11.549 11.883 14 19.5 1.87 5.812 1.174 12.326 0 18.318-1.189 6.069-3.44 12.125-7 17.182-3.737 5.308-9.394 8.992-14.5 13-3.018 2.369-6.585 4.005-9.5 6.5-5.912 5.06-11.068 10.981-16 17-4.924 6.01-9.212 12.521-13.5 19-2.808 4.243-8 13-8 13l-52-35 16-28-11-13 10.5-8-15-26s17.698 7.97 25.902 13.098z"/><path id="j" d="M67 727.362s-2.621 6.459-3.323 9.854c-1.056 5.105-1.612 10.382-1.293 15.586.262 4.269 2.616 12.561 2.616 12.561"/><path id="k" d="M77.219 723.352c-2.688.152-5.653.232-8.006-1.077-3.062-1.704-4.623-5.27-6.684-8.113 0 0 5.973-.613 8.808.154 2.434.659 4.49 2.317 6.6 3.699 1.785 1.17 5.1 3.872 5.1 3.872s-3.821 1.353-5.818 1.465z"/><path id="l" d="M65 700.862s1.404 3.996 2.804 5.507c2.174 2.346 5.397 3.444 8.196 4.993 3.587 1.985 8.009 2.696 11 5.5 3.039 2.849 6.297 10.793 6.297 10.793-3.029-.563-5.172-2.264-8.203-1.993 0 0-2.523-4.64-4.5-6.297-2.378-1.993-5.604-2.664-8.402-4.004-2.569-1.23-5.454-1.951-7.699-3.703-1.64-1.28-3.138-2.9-3.993-4.797-.901-1.999-1-6.5-1-6.5z"/><path id="m" d="M53.851 718.029L63 735.866l-6.542 7.255L62 753.362l-8.098 16.203-8.793 3.696 10.196-19.395L49 742.362l7.304-7.699-10.932-20.5z"/><path id="n" d="M57.378 681.217s-3.983-5.454-3.378-8.416c.5-2.45 2.893-4.629 5.3-5.308 1.881-.531 4.231.081 5.7 1.369 1.746 1.53 2.515 4.179 2.5 6.5-.012 1.795-2 5-2 5s4.04-3.542 6.5-3.5c2.315.039 4.847 1.492 6 3.5 1.079 1.879.628 4.426 0 6.5-.522 1.725-1.327 3.828-3 4.5-2.942 1.182-9.285-2.061-9.285-2.061s2.7 5.947 1.586 8.663c-.773 1.882-2.966 3.477-5 3.5-3.004.034-6.309-2.242-7.5-5-.952-2.204 1.199-7.101 1.199-7.101s-5.08 2.303-7.5 1.5c-2.128-.706-4.364-2.762-4.5-5-.174-2.863 2.236-6.087 4.939-7.046 2.756-.978 8.439 2.401 8.439 2.401z"/><path id="o" d="M53 684.862c3.287-2.164 6.718-3.99 9-8.5 2.26 4.678 4.905 6.667 7.5 9-2.606 1.277-5.214 2.62-8 8.5-1.961-3.262-3.217-6.735-8.5-9z"/><path id="p" d="M74.616 729.539c3.739-1.503 7.626-3.428 11.66-3.271 5.191.202 10.139 2.757 14.635 5.361 1.971 1.141 5.049 2.125 5.23 4.395.157 1.962-1.971 3.911-3.859 4.469-2.475.731-4.907-1.637-7.432-2.168-2.418-.508-9.344-1.123-7.35-.963 4.728.379 9.743 1.179 13.7 3.784 1.599 1.052 3.687 2.567 3.593 4.479-.085 1.71-1.933 3.255-3.594 3.671-3.34.836-6.44-2.64-9.851-3.103-1.602-.218-6.502.163-4.848.17 4.093.017 8.521.73 11.895 3.048 1.449.995 3.57 2.617 3.055 4.297-.629 2.051-3.899 1.989-6.028 2.253-4.8.597-10.592-1.909-14.422-1.598 4.774.188 6.956.218 10.024 1.651 1.662.776 4.391 1.77 4.169 3.59-.239 1.961-3.351 2.296-5.29 2.674-2.932.572-5.955-1-8.931-.741-2.393.208-4.686 1.089-6.972 1.825"/><path id="q" d="M94 726.862c-1.817-3.292-2.685-7.244-2.5-11 .155-3.158 2.207-5.939 3-9 .681-2.626 1.5-8 1.5-8s4.146 6.719 5 10.5c.698 3.089.54 6.38 0 9.5-.423 2.441-1.465 4.749-2.5 7-.561 1.221-2 3.5-2 3.5s-1.93-1.468-2.5-2.5z"/><path id="r" d="M122.75 716.362l13.5-5.75-5.25 15.25s.05-3.469-1.187-4.281c-1.073-.704-3.812.531-3.812.531s1.735-3.437.842-4.79c-.772-1.169-4.092-.96-4.092-.96z"/><path id="s" d="M131.929 708.554c-.31-.062-.522-.66-.306-.89s.81-.062.9.231c.086.281-.302.717-.594.658z"/><path id="t" d="M138.202 715.372c-.235-.184-.209-.689.03-.868.203-.152.619-.058.759.149.112.165.009.435-.137.575-.158.151-.48.28-.653.145z"/><path id="u" d="M215.5 769.362l-45.5-42.75-16.639.097c-1.438 10.693-4.178 16.188-9.111 23.903l15.5 1.25 19.25 17.75"/><path id="v" d="M168.188 730.362l-14.562-.035-.41 3 14.441.066 37.844 36.313c.573.548 1.592.526 2.141-.047s.526-1.592-.047-2.141l-38.312-36.75a1.52 1.52 0 0 0-1.094-.406z"/><path id="w" d="M149.073 744.484l-1.664 2.771 13.716.326 22.344 21.594c.517.695 1.677.772 2.281.15s.492-1.78-.218-2.275l-22.75-22.031c-.263-.263-.628-.423-1-.437z"/><path id="x" d="M294.737 678.124c-2.416 1.185-4.344 3.126-6.336 4.848-4.352 4.928-7.707 12.664-6.406 19.41.625 2.698 2.084 5.09 3.474 7.45.148 2.883.539 6.359-1.56 8.664-1.746 1.631-5.845-1.926-5.764 1.748 1.304 2.201 4.68 2.135 6.751 1.023 2.274-.412 3.443-4.79 3.624-4.873.988 4.448 1.654 8.997 1.605 13.563-.916 3.464-2.867 5.5-5.466 7.214-3.04 1.672-6.292-1.024-7.147-3.942.168-2.147-3.18-4.284-3.55-1.255.926 3.556 2.941 7.652 6.9 8.488 3.061.943 6.455-.658 8.17-3.255-1.329 3.432-2.959 7.615-.64 11.012 1.357 2.421 7.653 4.769 8.065.959-1.328-1.982-5.362-.334-6.068-3.582-.706-2.646.873-5.214 1.597-7.706 1.632-3.964 1.107-9.568.964-13.736-.494-6.039-1.611-11.03-5.07-16.139-.637-1.138-2.411-3.907-2.011-4.141 2.053 1.996 5.238 2.279 7.709.9 2.25-.826 6.015-5.548 2.455-6.693-2.117 1.29-3.013 5.557-6.507 4.337-2.606-1.238-5.95-3.479-4.246-6.659.898-2.974 2.714-10.791 10.179-14.488 1.247-1.023 1.293-3.212-.719-3.147z"/><path id="y" d="M138.281 669.612c-5.466-.226-11.561 5.388-8.917 10.984 1.032 3.478 6.188 5.43 9.002 3.038.83-1.159-.594-2.821-1.866-2.178-7.061 1.563-5.127-9.361.883-8.72 5.545-1.03 7.759 5.097 8.936 9.307 1.909 5.203.773 10.959 2.81 16.164 1.579 7.912 5.666 15.884 13.277 19.457 4.97 3.027 10.898 2.347 16.201.744 5.56-.474 12.087-2.212 16.723 1.988 3.667 2.755 6.363 7.384 5.881 11.943-2.592 3.441-7.683 6.566-11.271 2.476-2.524-2.218.076-6.199-1.836-8.476-1.301-.917-2.855.677-2.408 2.075-.515 4.149.74 8.953 5.011 10.594 3.777 2.95 9.212-1.618 10.824-2.02.559 5.747 1.995 11.598 4.712 16.713 3.682 6.228 11.757 5.817 17.953 4.862 3.653-2.123 12.716-2.964 12.921 2.609-1.163 3.662-4.46 1.625-6.939 1.49-1.641.538-1.052 2.976.57 3.068 5.504 3.864 13.104-4.868 7.766-9.298-2.953-3.206-10.628-2.191-11.801-2.52 3.511-4.935.01-12.116-5.751-13.084-3.002-.75-6.929 1.029-8.348 3.732-.207 1.758 2.221 2.184 3.08.837 4.246-4.822 12.318 1.972 8.477 7.001-2.17 3.764-6.552 4.243-10.38 3.264-6.381-1.459-6.917-9.086-8.603-14.237-1.544-6.579.491-14.335-4.44-19.842-3.723-5.105-10.184-8.073-16.479-6.803-2.525-.042-8.144 1.955-4.403-1.864 3.009-5.149 1.698-13.217-4.564-15.237-2.403-.537-4.603-2.077-6.94-2.29-4.004-2.293-11.29-1.249-11.867-7.31-1.021-2.846 2.498-4.204 2.455-6.632-.535-1.815-3.117-1.074-3.587.464-3.927 4.68-1.401 13.096 4.887 14.078 2.289.715 6.26.879 2.375 2.813-3.132 2.547-1.648 8.557 1.913 9.908 1.768.143 2.124-2.479.524-3.041-4.135-6.013 5.832-8.698 9.686-4.914 5.081 2.197 4.199 9.369 1.064 12.891-1.887 4.545-7.779 3.416-11.304 1.696-7.247-3.048-10.988-10.561-12.489-17.884-2.058-5.817-.732-12.221-3.292-17.927-1.284-4.942-4.729-10.163-10.446-9.916z"/><path id="z" d="M143.51 688.994c0 1.105-1.007 2-2.25 2s-2.25-.895-2.25-2 1.007-2 2.25-2 2.25.895 2.25 2z"/><path id="AA" d="M175.355 668.606s.549 3.603.138 5.333c-.496 2.083-1.756 3.944-3.039 5.657-.589.787-2.122 1.088-2.1 2.071.034 1.558 1.912 3.206 3.469 3.134 1.76-.082 2.913-2.259 3.576-3.891.854-2.1.601-4.567.198-6.798-.352-1.95-2.241-5.506-2.241-5.506z"/><path id="AB" d="M180.752 673.072s1.024 2.322.999 3.566c-.031 1.497-.685 2.991-1.381 4.39-.32.642-1.444 1.137-1.263 1.795.287 1.043 2.002 1.795 3.183 1.45 1.335-.39 1.854-2.077 2.089-3.302.303-1.577-.305-3.191-.987-4.617-.597-1.246-2.64-3.282-2.64-3.282z"/><path id="AC" d="M161.158 658.983s.371 1.755.093 2.598c-.334 1.015-1.185 1.921-2.051 2.756-.398.383-1.432.53-1.417 1.009.023.759 1.29 1.562 2.341 1.527 1.187-.04 1.965-1.101 2.413-1.896.576-1.023.406-2.225.134-3.312-.238-.95-1.512-2.682-1.512-2.682z"/><path id="AD" d="M191.636 683.463s.549 3.732.138 5.524c-.496 2.158-1.756 4.086-3.039 5.861-.589.815-2.122 1.127-2.1 2.145.034 1.614 1.912 3.321 3.469 3.247 1.76-.085 2.913-2.34 3.576-4.031.854-2.175.601-4.731.198-7.042-.352-2.02-2.241-5.704-2.241-5.704z"/><path id="AE" d="M262.346 703.549s.59 3.344 1.545 4.681c1.341 1.877 3.76 2.682 5.513 4.182.433.37 1.102.629 1.23 1.184.212.92-.178 2.152-.974 2.66-1.122.716-2.854.379-3.978-.333-1.916-1.212-2.837-3.69-3.413-5.882-.55-2.093.076-6.491.076-6.491z"/><path id="AF" d="M260.398 710.427l1.275 2.231c.658 1.12 1.194 2.329 2.017 3.334.638.779 2.292 1.038 2.226 2.043-.076 1.163-1.639 2.132-2.863 2.009-1.384-.139-2.131-1.673-2.658-2.864-.61-1.377-.451-2.996-.386-4.501.033-.761.391-2.253.391-2.253z"/><path id="AG" d="M258.545 715.398s.521 2.359 1.112 3.392a11.69 11.69 0 0 0 3.014 3.42c.58.445 1.811.312 1.965.977.245 1.054-.905 2.532-2.108 2.791-1.359.293-2.619-.943-3.41-1.908-1.017-1.243-1.253-2.951-1.332-4.529-.069-1.38.757-4.143.757-4.143z"/><path id="AH" d="M265.6 693.615l.972 2.127c.354.738.654 1.51 1.103 2.195.71 1.083 2.641 1.699 2.487 2.985-.105.88-1.253 1.667-2.135 1.583-1.193-.114-1.949-1.546-2.432-2.647-.558-1.273-.412-2.77-.353-4.16.03-.704.357-2.082.357-2.082z"/><path id="AI" d="M264.54 699.752s.439 1.809.936 2.601c.635 1.012 1.522 1.913 2.536 2.623.488.342 1.524.239 1.653.749.206.808-.761 1.942-1.773 2.141-1.144.224-2.203-.723-2.869-1.463-.856-.953-1.054-2.263-1.121-3.473-.058-1.058.637-3.177.637-3.177z"/><path id="AJ" d="M267.449 687.787s.541 3.081 1.417 4.313c1.229 1.729 3.447 2.471 5.054 3.853.397.341 1.011.58 1.128 1.091.195.848-.163 1.982-.893 2.45-1.028.66-2.616.349-3.646-.306-1.756-1.117-2.6-3.4-3.128-5.42-.504-1.928.07-5.981.07-5.981z"/><path id="AK" d="M270.522 677.852l1.166 2.062c.466.878.728 1.878 1.329 2.669.693.912 2.618 1.158 2.551 2.301-.063 1.068-1.5 1.971-2.619 1.857-1.266-.129-1.949-1.546-2.432-2.647-.558-1.273-.412-2.77-.353-4.16.03-.704.357-2.082.357-2.082z"/><path id="AL" d="M274.927 662.412s.939.498 1.348.831c.592.483 1.029 1.13 1.571 1.668.657.652 2.03.963 2.036 1.889.004.722-.848 1.487-1.57 1.492-1.187.008-2.022-1.39-2.614-2.419-.304-.53-.266-1.193-.399-1.789l-.372-1.672z"/><path id="AM" d="M253.75 734.862c-3.643.025-6.291 2.834-7.906 6.063s-2.397 7.074-2.344 10.219c.053 3.107.953 6.842 2.656 9.969s4.402 5.821 8 5.75c3.579-.07 6.129-2.861 7.688-6.031s2.31-6.897 2.281-9.969a23.52 23.52 0 0 0-2.5-10.062c-1.636-3.179-4.257-5.963-7.875-5.937zm0 3c2.049-.014 3.847 1.617 5.219 4.281s2.132 6.156 2.156 8.719c.024 2.53-.665 6.005-1.969 8.656s-3.041 4.304-5.062 4.344c-2.041.04-3.856-1.572-5.281-4.187s-2.269-6.061-2.312-8.594c-.044-2.571.677-6.105 2.031-8.812s3.145-4.392 5.219-4.406z"/><path id="AN" d="M252.5 751.362s-2.479-1.943-3.75-1.5c-.634.221-1.089 1.084-1 1.75.117.876.994 1.809 1.875 1.875 1.188.089 2.875-2.125 2.875-2.125z"/><path id="AO" d="M255.125 751.112s1.072-2.206 2.125-2.5c.888-.248 2.337-.001 2.625.875.27.824-.702 1.786-1.5 2.125-1.009.429-3.25-.5-3.25-.5z"/><path id="AP" d="M253.25 748.737s-3.373-2.139-3.5-3.875c-.11-1.498 1.01-3.556 2.5-3.75 1.434-.186 2.96 1.458 3.25 2.875.352 1.716-2.25 4.75-2.25 4.75z"/><path id="AQ" d="M253.5 753.737s-2.079 3.307-1.625 5c.29 1.083 1.381 2.314 2.5 2.25 1.444-.082 2.896-1.804 2.875-3.25-.026-1.827-3.75-4-3.75-4z"/><path id="AR" d="M116.958 743.353l14.262-6.87-6.472 14.977s1.075-3.265.035-4.205c-1.177-1.063-4.729.522-4.729.522s1.535-2.999.689-4.093c-.775-1.002-3.786-.331-3.786-.331z"/><path id="AS" d="M126.899 734.462c-.31-.061-.522-.648-.306-.874s.81-.061.9.227c.086.276-.302.704-.594.647z"/><path id="AT" d="M133.172 741.158c-.235-.181-.209-.677.03-.853.203-.149.619-.057.759.146.112.162.009.428-.137.564-.158.148-.48.275-.653.142z"/><path id="AU" d="M93.194 765.943l13.487-7.518-4.127 14.185s.285-3.371-.934-3.982c-1.507-.756-4.639 2.019-4.639 2.019s2.383-3.489 1.366-4.807c-1.049-1.36-5.152.104-5.152.104z"/><path id="AV" d="M104.104 756.627c-.244-.058-.41-.614-.241-.828s.637-.058.707.215c.068.262-.238.667-.467.612z"/><path id="AW" d="M109.212 762.441c-.185-.171-.164-.641.024-.808.16-.142.487-.054.597.139.088.154.007.405-.107.535-.124.14-.378.26-.513.134z"/></defs></svg>