<svg xmlns="http://www.w3.org/2000/svg" xmlns:xlink="http://www.w3.org/1999/xlink" width="360" height="540" viewBox="0 0 95.25 142.875" xmlns:v="https://vecta.io/nano"><g transform="matrix(.264583 0 0 .264583 0 -135.56249)"><rect rx="29.944" y="512.862" x=".5" height="539" width="359" fill="#fff" stroke="#000"/><g fill="#f55"><path d="M30 542.362a9.98 9.98 0 0 0-10 10v5h5v-5a5 5 0 1 1 10 0v5a4.99 4.99 0 0 1-5 5h-5v5h5a4.99 4.99 0 0 1 5 5v10a5 5 0 1 1-10 0v-5h-5v5a9.98 9.98 0 0 0 10 10 9.98 9.98 0 0 0 10-10v-10c0-3.004-1.323-5.67-3.406-7.5 2.083-1.83 3.406-4.496 3.406-7.5v-5a9.98 9.98 0 0 0-10-10zm300 480a9.98 9.98 0 0 0 10-10v-5h-5v5a5 5 0 1 1-10 0v-5a4.99 4.99 0 0 1 5-5h5v-5h-5a4.99 4.99 0 0 1-5-5v-10a5 5 0 1 1 10 0v5h5v-5a10 10 0 1 0-20 0v10c0 3.004 1.323 5.67 3.406 7.5-2.083 1.83-3.406 4.496-3.406 7.5v5a9.98 9.98 0 0 0 10 10z"/><use xlink:href="#B"/><use xlink:href="#B" x="300" y="315"/><use xlink:href="#C"/><use xlink:href="#C" y="180"/><use xlink:href="#C" y="360"/></g></g><defs ><path id="B" d="M30 602.362s3 7.5 6.5 12.5 8.5 10 8.5 10-5 5-8.5 10-6.5 12.5-6.5 12.5-3-7.5-6.5-12.5-8.5-10-8.5-10 5-5 8.5-10 6.5-12.5 6.5-12.5"/><path id="C" d="M180 557.362s6 15 13 25 17 20 17 20-10 10-17 20-13 25-13 25-6-15-13-25-17-20-17-20 10-10 17-20 13-25 13-25"/></defs></svg>