<svg xmlns="http://www.w3.org/2000/svg" xmlns:xlink="http://www.w3.org/1999/xlink" width="360" height="540" viewBox="0 0 95.25 142.875" xmlns:v="https://vecta.io/nano"><style><![CDATA[.B{stroke-linejoin:round}.C{stroke-width:2}.D{fill:#ff5}.E{stroke:#55a}.F{fill:none}.G{stroke-linecap:round}.H{fill:#55a}.I{fill:#f55}.J{stroke:#000}]]></style><g transform="matrix(.264583 0 0 .264583 0 -135.562492)"><rect rx="29.944" y="512.862" x=".5" height="539" width="359" fill="#fff" class="J"/><path d="M30 542.362v5h5v35a5 5 0 1 1-10 0v-5h-5v5a10 10 0 1 0 20 0v-40zm300 480v-5h-5v-35a5 5 0 1 1 10 0v5h5v-5a10 10 0 1 0-20 0v40z" class="I"/><g class="C E F"><path d="M60 542.362h270v360m-300-240v360h270"/><path d="M30 858.4l48.981 30.982M30 851.018l52.69 33.818M30 843.636l52.036 33.382M30 836.254l36.763 23.782M30 828.873L58.254 847.2M30 821.491l23.454 15.491M30 814.109l19.309 12m-16.582-17.891l13.527 9.164m-8.291-12.873l7.854 5.455" class="B G"/></g><path d="M130.175 659.374l-17.415 10.379c-9.192 5.701-18.364 11.448-27.266 17.591-6.834 4.716-13.608 9.543-20.054 14.777-6.939 5.634-13.443 11.786-20 17.859-5.235 4.849-10.293 9.887-15.439 14.83v74.969l13.431-8.217c1.349 6.685 2.216 13.612 4.191 20.199 2.228 7.433 5.078 14.717 8.588 21.637 2.883 5.682 6.404 11.046 10.172 16.184 2.775 3.785 6.032 7.193 9.116 10.731 3.53 4.049 6.873 8.201 10.743 12.012l52.906-70.083 7.564-.176 9.851-20.582 16.494.145-.47-18.434-16.288-.114-.264-20.826 18.966.107c-1.935-8.327-3.922-17.342-6.652-25.79-2.575-7.968-5.444-15.886-9.147-23.396-4.363-8.848-9.806-17.141-15.304-25.331-4.275-6.368-9.147-12.314-13.721-18.471z"/><use xlink:href="#B" class="D"/><use xlink:href="#C"/><g class="I"><path d="M330 567.362l-.5 122.5-18.5-12-1-97.818z"/><use xlink:href="#D" class="B C E"/></g><g fill="#fff" stroke="#fff" class="B C"><use xlink:href="#E"/><use xlink:href="#F"/><use xlink:href="#G"/></g><g class="E B C"><use xlink:href="#H" class="F G"/><use xlink:href="#I" class="H"/><g class="F G"><use xlink:href="#J"/><use xlink:href="#K"/><use xlink:href="#L"/><use xlink:href="#M"/></g><use xlink:href="#N" class="H"/><use xlink:href="#O" class="F G"/><g class="H"><use xlink:href="#P"/><use xlink:href="#Q"/></g><g class="D"><path d="M287.5 663.862l42.5 27.5v9.5l-47.5-31.5z"/><use xlink:href="#R"/><use xlink:href="#S"/><path d="M273.75 597.457l30.25-.22m-21.5-6.5l20.5-.375m-21.862-7.25h14.996m-14.561-7.543l7.625-.125m-7.073 29.418l19.134-.302M282 612.487l11.362-.302m-10.737 6.802l6.655-.021" class="G"/><path d="M330 558.362l-26 17.5v98.5l6 3.7v-97.7l20-13z"/></g></g><use xlink:href="#T" class="D"/><path d="M143.301 669.427l96.872-.363-3.809 4.716-89.611.363zm23.95-13.967v11.61l12.698.181-.181-11.791zm29.024.362l-.181 11.428h13.061l-.181-11.61zm28.116 0v11.247h11.791l-.181-11.61zm-85.698-.362h13.502l-.181 11.791-9.796.363-2.721-4.354-4.385-6.002z" class="D"/><g class="C J D"><use xlink:href="#U"/><use xlink:href="#U" x="27.754" y="-0.091"/><use xlink:href="#U" x="56.415" y="0.091"/><use xlink:href="#U" x="84.532" y="-0.453"/></g><use xlink:href="#V" class="D"/><use xlink:href="#V" x="28.064" y="-0.309" class="D"/><use xlink:href="#V" x="57.088" y="-0.128" class="D"/><use xlink:href="#W" class="D"/><use xlink:href="#X" class="H"/><use xlink:href="#Y" fill="#fff"/><use xlink:href="#Z" class="B C D J"/><use xlink:href="#a" class="H"/><path d="M254.912 659.388l5.657 1.414 7.955.177 6.01-1.591 4.066-2.652 9.9 6.126-67.297 89.687-33.643-.53z"/><g class="D"><use xlink:href="#b"/><use xlink:href="#V" x="98.93" y="7.179"/><use xlink:href="#c"/><use xlink:href="#V" x="76.479" y="35.993"/><use xlink:href="#c" x="-21.39" y="30.052"/><use xlink:href="#V" x="54.912" y="65.515"/><use xlink:href="#c" x="-41.189" y="57.983"/></g><g class="B C"><path d="M249.496 655.937l-69.199 95.931h7.583l66.924-92.708z" class="I J"/><g class="E F G"><use xlink:href="#d"/><use xlink:href="#e"/><use xlink:href="#f"/><use xlink:href="#g"/><use xlink:href="#h"/><use xlink:href="#i"/><use xlink:href="#j"/><use xlink:href="#k"/><use xlink:href="#l"/><path d="M193.727 631.902c.683 4.964 1.997 9.883 4.305 14.35m-9.02-8.2c.571 2.752 1.197 5.56 2.665 7.995m-8.049-3.182c.418 1.254.521 2.635 1.507 3.708"/></g></g><path d="M179.742 646.283l60.556-.154 2.566 3.536-69.748-.009z"/><path d="M310 588.809l20-13m-20 21.042l20-13m-20 21.043l20-13m-20 21.042l20-13m-20 21.043l20-13m-20 21.043l20-13m-20 21.042l20-13m-20 21.043l20-13m-20 21.042l20-13m-20 21.043l20-13m-20 21.042l20-13m-20 21.043l20-13m-14 17.043l14-9m-8 13.042l8-5" class="B C E F G"/><g class="D"><use xlink:href="#m"/><use xlink:href="#V" x="-27.586" y="10.691"/><use xlink:href="#V" x="-23.163" y="31.036"/><use xlink:href="#V" x="-6.578" y="43.64"/><use xlink:href="#V" x="-7.241" y="64.87"/><use xlink:href="#V" x="6.912" y="78.801"/><use xlink:href="#n"/><use xlink:href="#o"/><use xlink:href="#p"/><use xlink:href="#q"/><use xlink:href="#r"/><use xlink:href="#s"/><use xlink:href="#t"/><use xlink:href="#u"/><use xlink:href="#v"/><use xlink:href="#w"/><use xlink:href="#x"/><use xlink:href="#y"/><use xlink:href="#z"/><use xlink:href="#AA"/><use xlink:href="#AB"/><use xlink:href="#AC"/><use xlink:href="#AD"/><use xlink:href="#AE"/><use xlink:href="#AF"/><use xlink:href="#AG"/><use xlink:href="#AH"/><use xlink:href="#AI"/></g><use xlink:href="#AJ" stroke="#ff5" stroke-width="4" class="B F"/><g class="D"><use xlink:href="#AK"/><use xlink:href="#V" x="-21.673" y="92.407"/><use xlink:href="#V" x="-13.947" y="93.32"/><use xlink:href="#V" x="-21.678" y="100.252"/></g><g transform="rotate(343.552 185.632 811.664)" class="D"><use xlink:href="#V" x="-21.673" y="92.407"/><use xlink:href="#V" x="-13.947" y="93.32"/><use xlink:href="#V" x="-21.678" y="100.252"/></g><g transform="rotate(332.106 201.89 816.278)" class="D"><use xlink:href="#V" x="-21.673" y="92.407"/><use xlink:href="#V" x="-13.947" y="93.32"/><use xlink:href="#V" x="-21.678" y="100.252"/></g><g transform="rotate(300.698 182.933 805.089)" class="D"><use xlink:href="#V" x="-21.673" y="92.407"/><use xlink:href="#V" x="-13.947" y="93.32"/><use xlink:href="#V" x="-21.678" y="100.252"/></g><path d="M156.135 754.304l12.677.203-4.87 10.957h4.87l5.681-10.754h13.188l-4.667 10.551h5.478l4.87-10.754h14.203l-4.87 10.957h4.464l-2.638 4.87-8.725-.609 5.072-10.348h-4.667l-5.275 10.754-14.609-.406 4.667-9.942h-4.464l-5.275 10.551-14.203-.406 5.681-10.551-4.261-.203-2.332 3.652z" class="H"/><path d="M151.565 764.246l-8.319-4.464 3.855 8.725zm-12.084 12.453l-8.93-3.062 5.213 7.988zm-7.379 16.295l-9.412.736 7.957 5.261zm-1.206 17.195l-7.194 6.113 9.53-.401zm-23.027-67.137l8.343 4.418-3.903-8.703zm-9.764 11.83l9.06 2.655-5.569-7.744zm-7.755 14.941l9.42.619-7.121-6.346zm-4.938 16.465l9.333-1.422-8.32-4.665zm-1.768 15.006l8.964-2.961-8.982-3.21zm1.203 15.083l8.409-4.292-9.366-1.804zm4.315 15.035l7.031-6.301-9.516.652zm5.726 13.718l7.031-6.301-9.516.652zm6.989 12.112l6.035-7.26-9.319 2.036z" class="D"/><g class="I"><g stroke="#f55" class="B C"><use xlink:href="#AL"/><use xlink:href="#AM"/><use xlink:href="#AN"/><use xlink:href="#AO"/><use xlink:href="#AP"/></g><use xlink:href="#AQ"/></g><use xlink:href="#AR" class="B C E F G"/><use xlink:href="#AS" class="I"/><g class="B C E F G"><use xlink:href="#AT"/><use xlink:href="#AU"/><use xlink:href="#AV"/><use xlink:href="#AW"/><path d="M47.523 691.926c-.618.319-.927 1.256-1.264 2.136"/><use xlink:href="#AX"/><use xlink:href="#AY"/><path d="M41.366 712.421l2.121 3.182 3.359 2.298"/></g><g class="D B C E"><use xlink:href="#AZ"/><use xlink:href="#Aa"/></g><use xlink:href="#Ab" class="B E H"/><g transform="rotate(180 180 782.362)"><g class="B C E F"><path d="M30 851.018l53.444 35.305M30 858.4l50.175 32.395"/><path d="M30 843.636l52.036 33.382M30 836.254l36.763 23.782M30 828.873L58.254 847.2M30 821.491l23.454 15.491M30 814.109l19.309 12m-16.582-17.891l13.527 9.164m-8.291-12.873l7.854 5.455" class="G"/></g><path d="M130.175 659.374l-17.415 10.379c-9.192 5.701-18.364 11.448-27.266 17.591-6.834 4.716-13.608 9.543-20.054 14.777-6.939 5.634-13.443 11.786-20 17.859-5.235 4.849-10.293 9.887-15.439 14.83v74.969l13.431-8.217c1.349 6.685 2.216 13.612 4.191 20.199 2.228 7.433 5.078 14.717 8.588 21.637 2.883 5.682 6.404 11.046 10.172 16.184 2.775 3.785 6.032 7.193 9.116 10.731 3.53 4.049 6.873 8.201 10.743 12.012l52.906-70.083 7.564-.176 9.851-20.582 16.494.145-.47-18.434-16.288-.114-.264-20.625 18.119-.704c-1.935-8.327-3.263-16.95-5.805-25.18-2.472-8.001-5.444-15.886-9.147-23.396-4.363-8.848-9.806-17.141-15.304-25.331-4.275-6.368-9.147-12.314-13.721-18.471z"/><use xlink:href="#B" class="D"/><use xlink:href="#C"/><g class="I"><path d="M330 567.362l-.5 122.5-18.5-12-1-97.818z"/><use xlink:href="#D" class="B C E"/></g><g fill="#fff" stroke="#fff" class="B C"><use xlink:href="#E"/><use xlink:href="#F"/><use xlink:href="#G"/></g><g class="E B C"><use xlink:href="#H" class="F G"/><use xlink:href="#I" class="H"/><g class="F G"><use xlink:href="#J"/><use xlink:href="#K"/><use xlink:href="#L"/><use xlink:href="#M"/></g><use xlink:href="#N" class="H"/><use xlink:href="#O" class="F G"/><g class="H"><use xlink:href="#P"/><use xlink:href="#Q"/></g><g class="D"><path d="M287.5 663.862l42.5 27.5v9.5l-47.5-31.5z"/><use xlink:href="#R"/><use xlink:href="#S"/><path d="M273.75 597.457l30.25-.22m-21.5-6.5l20.5-.375m-21.862-7.25h14.996m-14.561-7.543l7.625-.125m-7.073 29.418l19.134-.302M282 612.487l11.362-.302m-10.737 6.802l6.655-.021" class="G"/><path d="M330 558.362l-26 17.5v98.5l6 3.7v-97.7l20-13z"/></g></g><use xlink:href="#T" class="D"/><path d="M143.301 669.427l96.872-.363-3.809 4.716-89.611.363zm23.95-13.967v11.61l12.698.181-.181-11.791zm29.024.362l-.181 11.428h13.061l-.181-11.61zm28.116 0v11.247h11.791l-.181-11.61zm-85.698-.362h13.502l-.181 11.791-9.796.363-2.721-4.354-4.385-6.002z" class="D"/><g class="C J D"><use xlink:href="#U"/><use xlink:href="#U" x="27.754" y="-0.091"/><use xlink:href="#U" x="56.415" y="0.091"/><use xlink:href="#U" x="84.532" y="-0.453"/></g><use xlink:href="#V" class="D"/><use xlink:href="#V" x="28.064" y="-0.309" class="D"/><use xlink:href="#V" x="57.088" y="-0.128" class="D"/><use xlink:href="#W" class="D"/><use xlink:href="#X" class="H"/><use xlink:href="#Y" fill="#fff"/><use xlink:href="#Z" class="B C D J"/><use xlink:href="#a" class="H"/><path d="M254.912 659.388l5.657 1.414 7.955.177 6.01-1.591 4.066-2.652 10.662 6.364-68.059 89.949-33.643-.53z"/><g class="D"><use xlink:href="#b"/><use xlink:href="#V" x="98.93" y="7.179"/><use xlink:href="#c"/><use xlink:href="#V" x="76.479" y="35.993"/><use xlink:href="#c" x="-21.39" y="30.052"/><use xlink:href="#V" x="54.912" y="65.515"/><use xlink:href="#c" x="-41.189" y="57.983"/></g><g class="B C"><path d="M249.496 655.937l-69.199 95.931h7.583l66.924-92.708z" class="I J"/><g class="E F G"><use xlink:href="#d"/><use xlink:href="#e"/><use xlink:href="#f"/><use xlink:href="#g"/><use xlink:href="#h"/><use xlink:href="#i"/><use xlink:href="#j"/><use xlink:href="#k"/><use xlink:href="#l"/><path d="M193.727 631.902c.683 4.964 1.997 9.883 4.305 14.35m-9.02-8.2c.571 2.752 1.197 5.56 2.665 7.995m-8.049-3.182c.418 1.254.521 2.635 1.507 3.708"/></g></g><path d="M179.742 646.283l60.556-.154 2.566 3.536-69.748-.009z"/><path d="M310 588.809l20-13m-20 21.042l20-13m-20 21.043l20-13m-20 21.042l20-13m-20 21.043l20-13m-20 21.043l20-13m-20 21.042l20-13m-20 21.043l20-13m-20 21.042l20-13m-20 21.043l20-13m-20 21.042l20-13m-20 21.043l20-13m-14 17.043l14-9m-8 13.042l8-5" class="B C E F G"/><g class="D"><use xlink:href="#m"/><use xlink:href="#V" x="-27.586" y="10.691"/><use xlink:href="#V" x="-23.163" y="31.036"/><use xlink:href="#V" x="-6.578" y="43.64"/><use xlink:href="#V" x="-7.241" y="64.87"/><use xlink:href="#V" x="6.912" y="78.801"/><use xlink:href="#n"/><use xlink:href="#o"/><use xlink:href="#p"/><use xlink:href="#q"/><use xlink:href="#r"/><use xlink:href="#s"/><use xlink:href="#t"/><use xlink:href="#u"/><use xlink:href="#v"/><use xlink:href="#w"/><use xlink:href="#x"/><use xlink:href="#y"/><use xlink:href="#z"/><use xlink:href="#AA"/><use xlink:href="#AB"/><use xlink:href="#AC"/><use xlink:href="#AD"/><use xlink:href="#AE"/><use xlink:href="#AF"/><use xlink:href="#AG"/><use xlink:href="#AH"/><use xlink:href="#AI"/></g><use xlink:href="#AJ" stroke="#ff5" stroke-width="4" class="B F"/><g class="D"><use xlink:href="#AK"/><use xlink:href="#V" x="-21.673" y="92.407"/><use xlink:href="#V" x="-13.947" y="93.32"/><use xlink:href="#V" x="-21.678" y="100.252"/></g><g transform="rotate(343.552 185.632 811.664)" class="D"><use xlink:href="#V" x="-21.673" y="92.407"/><use xlink:href="#V" x="-13.947" y="93.32"/><use xlink:href="#V" x="-21.678" y="100.252"/></g><g transform="rotate(332.106 201.89 816.278)" class="D"><use xlink:href="#V" x="-21.673" y="92.407"/><use xlink:href="#V" x="-13.947" y="93.32"/><use xlink:href="#V" x="-21.678" y="100.252"/></g><g transform="rotate(300.698 182.933 805.089)" class="D"><use xlink:href="#V" x="-21.673" y="92.407"/><use xlink:href="#V" x="-13.947" y="93.32"/><use xlink:href="#V" x="-21.678" y="100.252"/></g><path d="M156.135 754.304l12.677.203-4.87 10.957h4.87l5.681-10.754h13.188l-4.667 10.551h5.478l4.87-10.754h14.203l-4.87 10.957h4.464l-2.638 4.87-8.725-.609 5.072-10.348h-4.667l-5.275 10.754-14.609-.406 4.667-9.942h-4.464l-5.275 10.551-14.203-.406 5.681-10.551-4.261-.203-2.232 3.652z" class="H"/><path d="M151.565 764.246l-8.319-4.464 3.855 8.725zm-12.084 12.453l-8.93-3.062 5.213 7.988zm-7.379 16.295l-9.412.736 7.957 5.261zm-1.206 17.195l-7.194 6.113 9.53-.401zm-23.027-67.137l8.343 4.418-3.903-8.703zm-9.764 11.83l9.06 2.655-5.569-7.744zm-7.755 14.941l9.42.619-7.121-6.346zm-4.938 16.465l9.333-1.422-8.32-4.665zm-1.768 15.006l8.964-2.961-8.982-3.21zm1.203 15.083l8.409-4.292-9.366-1.804zm4.315 15.035l7.031-6.301-9.516.652zm5.726 13.718l7.031-6.301-9.516.652zm6.989 12.112l6.035-7.26-9.319 2.036z" class="D"/><g stroke="#f55" class="B C I"><use xlink:href="#AL"/><use xlink:href="#AM"/><use xlink:href="#AN"/><use xlink:href="#AO"/><use xlink:href="#AP"/></g><use xlink:href="#AQ" class="I"/><use xlink:href="#AR" class="B C E F G"/><use xlink:href="#AS" class="I"/><g class="B C E F G"><use xlink:href="#AT"/><use xlink:href="#AU"/><use xlink:href="#AV"/><use xlink:href="#AW"/><path d="M47.523 691.926c-.618.319-.927 1.256-1.264 2.136"/><use xlink:href="#AX"/><use xlink:href="#AY"/><path d="M41.366 712.421l2.121 3.182 3.359 2.298"/></g><g class="D B C E"><use xlink:href="#AZ"/><use xlink:href="#Aa"/></g><use xlink:href="#Ab" class="B E H"/></g><path d="M29.5 611.362c0-5.523-2.858-9-7-9s-7.5 4.477-7.5 10a24.83 24.83 0 0 1 0 1.406c0 3.649 1.338 7.188 2.5 10.5 1.195 3.405 2.917 6.39 4.531 9.438 2.501 4.72 7.969 13.656 7.969 13.656s5.468-8.937 7.969-13.656c1.614-3.047 3.337-6.032 4.531-9.437 1.162-3.312 2.5-6.851 2.5-10.5-.014-.487-.009-.957 0-1.406 0-5.523-3.358-10-7.5-10s-7 3.477-7 9c0 1-1 1-1 0zm59.5-36c0-11.046-5.716-18-14-18s-15 8.954-15 20c.035.956.018 1.891 0 2.813 0 7.298 2.677 14.377 5 21 2.389 6.811 5.834 12.781 9.063 18.875C79.064 629.489 90 647.362 90 647.362s10.936-17.873 15.938-27.312c3.229-6.094 6.673-12.064 9.063-18.875 2.323-6.623 5-13.702 5-21-.028-.974-.019-1.915 0-2.812 0-11.046-6.716-20-15-20s-14 6.954-14 18c0 2-2 2-2 0zm241.5 378c0 5.523 2.858 9 7 9s7.5-4.477 7.5-10c-.017-.478-.009-.946 0-1.406 0-3.649-1.338-7.188-2.5-10.5-1.195-3.405-2.917-6.39-4.531-9.437-2.501-4.72-7.969-13.656-7.969-13.656s-5.468 8.937-7.969 13.656c-1.614 3.047-3.337 6.032-4.531 9.438-1.162 3.312-2.5 6.851-2.5 10.5.014.487.009.957 0 1.406 0 5.523 3.358 10 7.5 10s7-3.477 7-9c0-1 1-1 1 0zm-59.5 36c0 11.046 5.716 18 14 18s15-8.954 15-20c-.035-.956-.018-1.891 0-2.812 0-7.298-2.677-14.377-5-21-2.389-6.811-5.834-12.781-9.062-18.875-5.001-9.439-15.937-27.313-15.937-27.313s-10.936 17.873-15.937 27.313c-3.229 6.094-6.673 12.064-9.062 18.875-2.323 6.623-5 13.702-5 21 .028.974.019 1.915 0 2.813 0 11.046 6.716 20 15 20s14-6.954 14-18c0-2 2-2 2 0z" class="I"/></g><defs ><path id="B" d="M193.683 572.889l16.047 1.926c4.72.658 9.434 1.38 14.121 2.247 6.881 1.272 20.54 4.333 20.54 4.333l1.765 13.64 2.407 15.084c.7 4.074 1.016 8.249 2.247 12.195 1.204 3.863 2.44 7.918 4.974 11.072 1.628 2.027 6.258 4.654 6.258 4.654s1.697-2.313 2.888-3.049c1.569-.969 3.451-1.577 5.295-1.605 2.05-.031 4.09.716 5.937 1.605 1.793.863 3.61 1.946 4.814 3.53 1.28 1.685 2.018 3.834 2.247 5.937.239 2.203-.234 4.486-.963 6.579-.772 2.218-1.872 4.434-3.53 6.098-1.574 1.579-3.668 2.647-5.777 3.37-2.297.788-4.793.998-7.221.963a23.67 23.67 0 0 1-6.9-1.123 31.03 31.03 0 0 1-8.344-4.172c-1.822-1.29-3.333-2.984-4.814-4.654-1.469-1.657-4.012-5.295-4.012-5.295l-64.026.321s7.849-5.607 11.072-9.147c3.267-3.587 6.118-7.645 8.184-12.035 2.206-4.687 3.538-9.805 4.333-14.923.648-4.177.695-8.466.321-12.677-.353-3.971-1.237-7.903-2.407-11.714-1.393-4.539-5.456-13.158-5.456-13.158z"/><path id="C" d="M140.451 654.561l6.767-2.76 98.579 1.664 4.172 3.447-10.158 12.517h-96.323l-3.628-5.986-4.7-6.27z"/><path id="D" d="M109.47 542.362l28.53 36s10.763-2.849 16.244-3.782c6.724-1.145 13.523-2.066 20.342-2.218 10.702-.238 21.425.737 32.048 2.057 12.62 1.567 37.514 6.943 37.514 6.943l27.941-39z"/><path id="E" d="M125.565 543.844l17.582 26.32c7.041-2.252 11.53-2.976 20.506-3.903l-4.488-22.417h-6.217l5.556 18.882c-5.565.742-7.464.844-12.678 2.298l-13.117-21.18z"/><path id="F" d="M168.822 543.844l4.326 21.706c10.935-.936 19.395-.597 30.331.606l5.238-22.312h-7.011l-3.717 17.638c-8.591-1.088-12.712-.879-19.927-.401l-2.925-17.237z"/><path id="G" d="M219.353 543.844l-7.322 23.612c7.982.612 18.219 3.972 26.905 5.88l15.658-29.492h-6.879l-11.781 24.574c-4.85-1.219-12.525-3.629-17.375-4.248l6.746-20.327z"/><path id="H" d="M194.342 573.886c2.05 5.877 5.044 11.505 6.15 17.63 1.118 6.188 1.192 12.621.41 18.86-.635 5.067-2.059 10.08-4.1 14.76-1.668 3.824-3.833 7.502-6.56 10.66-3.614 4.185-7.99 7.78-12.71 10.66-2.828 1.726-5.989 2.901-9.163 3.851-3.166.947-6.446 1.665-9.747 1.808-3.868.167-8.422 1.144-11.559-1.124-1.02-.737-1.334-2.209-1.525-3.452-.184-1.197.389-2.401.401-3.612.009-.887.018-1.801-.241-2.649-.276-.905-.702-1.814-1.365-2.488-.605-.616-1.903-.493-2.248-1.284-.329-.756-.051-1.857.562-2.408.983-.883 2.619-.349 3.933-.482 1.335-.135 2.684-.503 4.014-.321 1.694.232 3.147 1.206 4.816 1.766.117-.715-1.329-2.186-1.927-2.97-.678.547-2.021.501-3.05.642-1.222.168-2.463.139-3.693.241-1.072.088-2.135.327-3.211.321-.969-.005-2.095.233-2.89-.321-.491-.342-.789-1.007-.803-1.605-.012-.527.411-.971.642-1.445.399-.818 1.108-1.516 1.284-2.408.313-1.583.265-3.386-.482-4.816-.685-1.312-2.066-2.191-3.372-2.89-1.568-.839-3.478-.803-5.138-1.445-1.116-.432-2.707-.52-3.211-1.605-.857-1.849.727-4.033 1.445-5.94 1.425-3.786 3.911-7.09 5.619-10.757 1.247-2.676 2.696-5.315 3.371-8.188.344-1.462.578-3.015.321-4.495-.341-1.959-1.936-3.527-2.408-5.459-.395-1.615-.214-3.318-.321-4.977"/><path id="I" d="M174.387 593.965c-4.516-3.515-8.613-6.172-13.403-8.356-3.098-1.413-6.338-2.968-9.766-3-2.152-.019-6.191.955-6.204 1.771-.006.411.809.621 1.299.732 2.272.514 4.685-.692 7.008-.447 2.82.297 5.535 1.238 8.15 2.3 4.537 1.843 9.291 4.228 12.915 6.999z"/><path id="J" d="M145.5 591.612c1 .417 1.986.553 3 .52 1.456-.047 2.797-.915 4.25-1.02 2.754-.2 5.573.073 8.25.75 2.461.623 4.777 1.775 7 3 1.417.781 2.667 1.833 4 2.75"/><path id="K" d="M147.733 594.418c1.314.292 2.6.766 3.941.876 1.749.143 3.508-.453 5.255-.292 2.245.207 4.525.655 6.569 1.606 2.842 1.322 5.061 3.698 7.591 5.547"/><path id="L" d="M148.901 596.024c.097 1.168-.225 2.452.292 3.504.669 1.36 2 2.393 3.358 3.066 1.463.724 3.187.94 4.817.876 1.71-.067 3.382-.66 4.963-1.314.987-.408 1.767-1.249 2.774-1.606.882-.313 1.849-.292 2.774-.438"/><path id="M" d="M156.638 596.024c.292 1.071.918 2.103.876 3.212-.028.723-.294 1.466-.73 2.044-.505.668-1.362.973-2.044 1.46"/><path id="N" d="M152.405 600.257c.791.039 1.531-.963 1.606-1.752.071-.739-.429-1.826-1.168-1.898-.857-.083-1.708 1.038-1.752 1.898-.037.729.585 1.716 1.314 1.752z"/><path id="O" d="M149.193 602.447l3.941 3.65c1.094.836 2.254 1.61 3.504 2.19 1.159.537 2.433.779 3.65 1.168"/><path id="P" d="M150.799 612.665c.584.876 1.545 1.596 1.752 2.628.205 1.021-.091 2.156-.597 3.066-.459.827-1.182 1.63-2.078 1.932-.928.313-1.999.03-2.924-.292-1.127-.392-1.95-1.391-3.014-1.932-.838-.426-1.693-.922-2.628-1.022-.588-.063-1.161.286-1.752.279-.534-.006-1.164.052-1.576-.288-.36-.297-.716-.888-.507-1.305.321-.638 1.352-.609 2.065-.571 1.312.07 2.512.819 3.667 1.447 1.103.6 1.938 1.637 3.066 2.19.861.422 1.816 1.01 2.756.824 1.112-.219 2.071-1.161 2.645-2.138.383-.653.494-1.488.387-2.237-.135-.948-.97-1.656-1.262-2.58z"/><path id="Q" d="M163.061 619.965c1.8.681 3.826 1.223 5.208 2.269 1.082.819 1.392 2.425 1.215 3.716-.214 1.564-1.337 3.032-2.628 3.942-1.148.809-2.684.973-4.087 1.022-1.679.059-3.339-.446-4.963-.876-1.399-.37-2.691-1.08-4.087-1.46-1.004-.273-2.026-.619-3.066-.584-1.156.039-2.241 1.179-3.358.876-.731-.198-1.574-.849-1.606-1.606-.034-.828.873-1.511 1.606-1.898 1.255-.662 2.832-.661 4.233-.438 1.42.226 2.633 1.156 3.942 1.752 1.466.668 2.826 1.617 4.379 2.044 1.415.389 2.935.697 4.379.438 1.297-.233 2.762-.682 3.551-1.737.752-1.006.979-2.507.631-3.714-.279-.967-1.199-1.658-2.012-2.252-.984-.72-2.365-.91-3.338-1.494z"/><path id="R" d="M284.5 562.362c-3.833 6.333-8.34 11.498-10.616 18.116-1.956 5.687-2.651 11.876-2.384 17.884.303 6.827 1.709 13.763 4.5 20 2.343 5.235 6.667 9.333 10 14 1.5-4.833 2.166-10.01 4.5-14.5 2.137-4.111 5.176-7.771 8.5-11 1.626-1.579 3.667-2.667 5.5-4l-1-14.5c-3-1.833-6.388-3.147-9-5.5-2.65-2.387-4.89-5.317-6.5-8.5-1.881-3.718-2.333-8-3.5-12z"/><path id="S" d="M284.737 562.594s-4.126 11.68-4.237 17.768c-.062 3.399 2 10 2 10l-10.5 7 10.5 8s-1.863 7.651-1.5 11.5c.525 5.56 5.237 15.914 5.237 15.914s1.669-10.387 3.97-15.03c1.721-3.474 4.531-6.315 7.147-9.177 2.045-2.237 6.646-6.207 6.646-6.207v-15.5s-7.581-2.837-10.5-5.5c-2.493-2.274-4.06-5.448-5.5-8.5-1.533-3.248-3.263-10.268-3.263-10.268z"/><path id="T" d="M242.813 649.582l3.207 3.863-88.506-.128 6.413-.898c1.82-.364 3.616-.856 5.387-1.411l3.848-1.411z"/><path id="U" d="M148.943 661.348a3 3 0 1 1-6 0 3 3 0 1 1 6 0z"/><path id="V" d="M163.548 661.755a3.5 3.5 0 1 1-7 0 3.5 3.5 0 1 1 7 0z"/><path id="W" d="M246.757 660.902l-3.681 4.226c-1.27 1.457-2.774-1.386-2.774-3.319a3.5 3.5 0 0 1 3.5-3.5c1.933 0 4.226 1.136 2.956 2.593z"/><path id="X" d="M147.493 674.207l89.106-.379-55.738 78.489s-3.379-15.702-5.877-23.319c-2.871-8.754-6.468-17.276-10.427-25.594-2.881-6.052-6.25-11.866-9.669-17.632-2.334-3.936-7.394-11.565-7.394-11.565z"/><path id="Y" d="M166.726 684.54l46.749-.166-28.748 38.865s-2.274-8.017-3.72-11.921c-1.413-3.815-3.026-7.561-4.832-11.206-1.62-3.269-3.456-6.432-5.374-9.536-1.276-2.065-4.075-6.037-4.075-6.037z"/><path id="Z" d="M130.056 659.539c4.045 5.245 9.737 11.985 14.029 18.39 5.297 7.906 10.125 16.149 14.409 24.646 3.683 7.306 7.05 14.809 9.669 22.561 2.899 8.582 4.36 17.316 6.636 26.353 1.517.126 4.171.063 5.688.19-.758-3.602-1.596-6.837-2.465-10.238-1.619-6.342-2.971-12.775-5.119-18.959-2.369-6.82-5.418-13.393-8.531-19.907-3.145-6.58-6.457-13.1-10.238-19.338-3.062-5.052-6.594-9.806-10.048-14.598-2.945-4.086-6.636-8.652-9.1-12.065-1.201.758-3.729 2.206-4.929 2.965z"/><path id="a" d="M173.839 687.97l31.681-.11-19.482 25.91-2.521-7.947c-.958-2.543-2.051-5.041-3.275-7.471-1.098-2.179-2.342-4.288-3.642-6.357l-2.761-4.025z"/><path id="b" d="M271.031 662.487c-.847-.029-1.455.997-1.844 1.75-1.513 2.926.803 7.338-1.406 9.781-4.463 4.936-13.712 1.318-19.375 4.813a3.91 3.91 0 0 0-1.5 1.75c-3.214 7.486 2.995 18.298-2.5 24.313-4.038 4.419-12.407.505-17.625 3.438-.701.394-1.3 1.046-1.625 1.781-3.115 7.042 2.809 17.115-2.156 23-3.52 4.171-10.986 1.703-15.812 4.25a3.91 3.91 0 0 0-1.312 1.125c-1.94 2.64-3.761 5.757-3.875 9.031-.034.978.07 2.381.967 2.772s1.998-.485 2.689-1.178c2.085-2.091 1.296-6.195 3.531-8.125 4.23-3.653 11.463-1.388 16.188-4.375a3.87 3.87 0 0 0 1.469-1.719c2.99-7.062-2.992-17.222 2.156-22.906 4.018-4.436 12.394-.528 17.625-3.437a3.9 3.9 0 0 0 1.625-1.75c3.377-7.459-2.869-18.255 2.5-24.437 4.348-5.008 13.62-1.379 19.313-4.781.639-.382 1.183-.982 1.5-1.656 1.593-3.391 2.702-7.547 1.594-11.125-.31-1-1.079-2.277-2.125-2.312z"/><path id="c" d="M260.533 688.909a3.5 3.5 0 1 1-7 0 3.5 3.5 0 0 1 7 0z"/><path id="d" d="M244.158 581.676c1.485 7.568 2.487 15.22 3.783 22.821 1.074 6.296 1.281 12.817 3.309 18.873 1.259 3.76 2.94 7.494 5.416 10.59 1.332 1.665 3.234 2.78 4.916 4.092"/><path id="e" d="M237.393 580.856l4.632 27.225c1.094 5.876 1.532 11.95 3.554 17.574 2.162 6.013 4.529 12.375 9.034 16.906 3.14 3.159 7.294 6.311 11.748 6.367 1.794.022 4.531-.671 4.795-2.446.219-1.473-2.114-2.782-3.217-3.1"/><path id="f" d="M230.218 579.011c2.201 7.155 3.21 14.585 4.51 21.935 1.385 7.832 1.184 15.995 3.504 23.603 2.269 7.441 4.814 15.304 10.035 21.071 4.077 4.502 9.54 8.938 15.594 9.425 4.3.347 9.911-1.063 12.006-4.835 1.823-3.282 1.441-9.475-1.947-11.094-2.267-1.084-7.964-1.569-6.597 3.65"/><path id="g" d="M223.658 578.191c2.037 5.835 2.689 12.013 3.966 18.033 2.682 12.639 3.145 25.91 7.764 37.976 2.315 6.047 5.439 11.991 9.812 16.766 3.634 3.968 7.906 8.198 13.164 9.345 6.78 1.479 15.661 1.133 20.454-3.885 4.094-4.286 5.912-12.746 2.514-17.601-3.363-4.805-12.426-7.012-17.217-3.628-3.093 2.185-2.841 7.716-1.507 11.26.415 1.104 1.78 1.71 2.665 2.327"/><path id="h" d="M216.893 576.756c1.825 5.6 3.172 11.346 4.329 17.116 2.194 10.939 1.93 22.361 4.943 33.103 1.843 6.571 5.027 13.225 7.948 18.867"/><path id="i" d="M209.308 575.321c1.82 5.249 3.208 10.65 4.332 16.089 1.908 9.232 2.698 18.534 4.073 27.988 1.352 9.294 5.416 18.329 9.84 26.4"/><path id="j" d="M201.312 574.501c2.199 4.83 3.927 9.869 5.233 15.001 2.977 11.702 3.152 23.98 5.861 35.746 1.055 4.583 2.266 9.163 4.035 13.52 1.085 2.673 2.788 5.406 4.007 7.67"/><path id="k" d="M201.035 594.797c1.063 7 1.836 14.091 3.167 21.066 1.248 6.539 2.555 13.093 4.515 19.455 1.107 3.595 2.859 6.959 4.075 10.524"/><path id="l" d="M198.647 621.037c.964 5.367 1.883 10.771 3.408 16.009.895 3.075 2.191 6.019 3.357 9.001"/><path id="m" d="M124.219 665.768c-.936.029-1.572 1.188-1.906 2.063-1.134 2.968-.764 6.49.156 9.531.201.664.609 1.287 1.125 1.75 5.269 4.73 15.178 3.539 19 9.5 4.051 6.317-1.21 15.256.75 22.5.155.571.453 1.118.844 1.563 3.965 4.505 12.35 4.947 14.625 10.5 2.212 5.399-2.906 11.416-2.969 17.25-.005.421.059.849.188 1.25.874 2.719 1.752 5.75 3.906 7.625.726.632 1.868 1.385 2.725.949s.923-1.804.837-2.762c-.234-2.622-3.2-4.429-3.594-7.031-.902-5.958 3.754-11.822 3.094-17.812a3.93 3.93 0 0 0-.812-1.969c-3.789-4.787-11.999-5.302-14.875-10.687-3.564-6.675 1.532-15.473-.75-22.687a3.94 3.94 0 0 0-1.125-1.719c-5.289-4.708-15.232-3.505-19-9.5-1.475-2.346.984-5.773-.125-8.312-.386-.885-1.129-2.03-2.094-2z"/><path id="n" d="M113.379 669.835l-3.33 2.027s9.276 11.85 12.795 16.969c3.108 4.521 5.908 9.304 8.531 14.188 3.572 6.65 6.71 13.59 9.813 20.563 2.389 5.368 6.813 16.5 6.813 16.5l3.719-1.469-6.906-16.656c-3.109-6.987-6.279-14.002-9.937-20.812-2.665-4.962-5.496-9.874-8.719-14.562-3.799-5.526-12.777-16.746-12.777-16.746z"/><path id="o" d="M108.875 676.375c-3.12 2.25-6.092 4.084-9.594 6.906-1.51 1.218-1.867 3.086-1.812 4.75s.512 3.305.906 4.594c.708 2.315 2.2 4.559 4.469 5.813 1.108.612 2.433 1.145 3.844 1.344s2.968.089 4.281-.812c3.239-2.224 6.315-4.245 9.531-6.219l-1.562-2.562c-3.27 2.007-6.388 4.068-9.656 6.313-.453.311-1.21.446-2.156.313s-2.031-.551-2.844-1c-1.367-.755-2.556-2.406-3.062-4.062-.362-1.182-.711-2.629-.75-3.812s.217-1.94.719-2.344c3.352-2.703 6.219-4.461 9.438-6.781z"/><path id="p" d="M122.719 696.281c-3.099 1.734-6.46 3.08-9.75 5.438-1.305.935-1.957 2.363-2.281 3.75s-.319 2.823-.187 4.063c.276 2.603 1.607 5.127 3.688 6.781 1.086.864 2.478 1.725 4 2.25s3.299.773 4.844-.187c2.927-1.82 5.716-3.063 9.125-5.031l-1.5-2.594c-3.27 1.888-6.097 3.153-9.219 5.094-.381.237-1.202.247-2.281-.125s-2.282-1.08-3.125-1.75c-1.352-1.075-2.377-3.033-2.562-4.781-.103-.972-.094-2.095.125-3.031s.611-1.6 1.125-1.969c2.943-2.109 6.166-3.434 9.469-5.281z"/><path id="q" d="M134.469 716.594c-3.716 1.784-5.709 2.905-10.312 6.094-1.289.893-1.925 2.302-2.25 3.656s-.358 2.717-.219 3.938c.333 2.924 1.784 6.036 4.438 7.75 1.117.722 2.43 1.421 3.969 1.688 1.51.262 3.238-.006 4.844-1l.031.031 8.406-4.812-1.5-2.594-8.375 4.781a1.5 1.5 0 0 0-.062.031c-1.023.653-1.879.755-2.812.594s-1.94-.646-2.875-1.25c-1.617-1.044-2.82-3.404-3.062-5.531-.105-.919-.092-2.034.125-2.937s.603-1.557 1.063-1.875c4.545-3.148 6.251-4.089 9.906-5.844l-1.312-2.719z"/><path id="r" d="M149.313 735.3s-10.758 6.233-16 10.188c-4.857 3.664-9.411 7.934-13.518 12.701-4.234 4.915-7.992 10.403-10.687 16.406-2.626 5.848-4.436 11.764-5.357 17.955-.793 5.329-.821 10.743-.469 16.031.338 5.065 1.645 9.375 3.214 14.388 2.167 6.923 9.674 19.96 9.674 19.96l2.607-3.398s-6.637-11.897-8.469-17.75c-1.421-4.54-2.73-8.559-3.058-13.482-.339-5.088-.3-10.199.438-15.156.889-5.974 2.664-11.552 5.076-16.924 2.497-5.561 6.023-10.749 10.063-15.437 3.784-4.392 8.099-8.491 12.893-12.107 4.728-3.566 15.625-9.906 15.625-9.906z"/><path id="s" d="M88.683 685.764l-3.147 2.241s8.22 9.419 11.496 13.732c2.662 3.505 5.187 7.124 7.406 10.875 4.332 7.322 8.125 14.971 11.594 22.781 1.518 3.418 3.695 9.607 4.156 10.906-1.333 1.377-7.889 8.206-11.25 13.031-3.655 5.248-7.049 10.884-9.312 17.031-2.556 6.942-4.28 14.354-4.531 21.844-.296 8.812 1.081 17.688 3.594 26.063 2.687 8.954 12.362 25.523 12.362 25.523l2.576-3.429s-8.758-15.435-11.094-23.219c-2.407-8.021-3.716-16.517-3.437-24.812.234-6.959 1.842-13.969 4.281-20.594 2.091-5.677 5.297-11.033 8.844-16.125 3.217-4.619 11.719-13.469 11.719-13.469.523-.528.712-1.361.469-2.062 0 0-2.871-8.152-4.719-12.312-3.517-7.917-7.382-15.699-11.812-23.187-2.319-3.92-4.927-7.656-7.656-11.25-3.529-4.646-11.536-13.567-11.536-13.567z"/><path id="t" d="M100.406 705.768S97.9 724.1 95 732.331c-3.365 9.551-8.267 18.622-13.969 27.063-5.314 7.867-12.101 14.8-18.812 21.781-4.896 5.093-9.892 10.075-15.375 14.375C42.252 799.151 30 806.362 30 806.362v4s13.69-8.549 18.688-12.469c5.67-4.446 10.761-9.5 15.688-14.625 6.699-6.968 13.608-14.02 19.125-22.187 5.814-8.606 10.873-17.929 14.344-27.781 3.173-9.008 5.531-27.156 5.531-27.156z"/><path id="u" d="M67.152 701.323s-.479 13.454-1.871 18.82c-1.714 6.605-3.953 13.118-7.125 19.031-3.469 6.467-7.979 12.43-12.969 17.938C41.451 761.237 30 769.554 30 769.554v5.035s13.829-10.013 18.156-14.789c5.148-5.682 9.863-11.911 13.531-18.75 3.378-6.297 5.703-13.1 7.469-19.906 1.603-6.178 1.996-22.77 1.996-22.77z"/><path id="v" d="M90.125 696.05c-5.529 1.742-12.27 3.307-15.375 8.219-.468.74-.54 1.853-.125 2.625 2.181 4.056 8.628 3.796 11.875 7.063 2.452 2.467 6.247 5.658 5.281 9-.85 2.941-5.208 3.397-8.156 4.219-4.103 1.143-9.355-1.729-12.75.844a2.67 2.67 0 0 0-.906 2.563c.853 3.516 6.013 4.354 7.906 7.438 2.033 3.312 5.284 7.857 3.281 11.188-1.704 2.835-6.411 2.01-9.719 2-3.812-.012-7.611-3.694-11.187-2.375-.85.314-1.578 1.253-1.656 2.156-.349 4.029 4.573 6.845 5.625 10.75.855 3.171 2.733 7.494.438 9.844-2.417 2.474-6.995.518-10.375-.219-3.537-.771-6.399-4.919-9.969-4.312-.894.152-1.762.969-2 1.844-1.256 4.624 3.984 8.963 4.188 13.75.112 2.639.425 6.122-1.656 7.75-1.757 1.374-4.514.283-6.687-.219-1.168-.269-2.165-1.903-3.281-1.469-.93.362-1.555 1.822-1.187 2.75.51 1.288 2.46 1.354 3.813 1.656 2.756.615 5.788 1.139 8.469.25.605-.201 1.164-.645 1.5-1.187 1.731-2.797 2.129-6.369 2.031-9.656-.114-3.832-5.892-8.542-3.031-11.094 1.925-1.718 4.659 2.362 7.188 2.875 4.064.825 8.591 1.798 12.438.25.67-.27 1.269-.859 1.531-1.531 1.463-3.749.488-8.161-.5-12.062-.751-2.967-5.876-5.808-4.031-8.25 1.704-2.255 5.518 1.536 8.344 1.5 4.02-.052 8.542-.1 11.813-2.437a2.87 2.87 0 0 0 1.125-1.906c.575-4.622-1.595-9.38-3.937-13.406-1.289-2.216-6.234-3.127-5.344-5.531 1.086-2.934 6.342.005 9.344-.875 3.612-1.06 7.65-2.272 10.031-5.187a2.86 2.86 0 0 0 .594-2.094c-.541-4.187-3.494-7.88-6.437-10.906-2.745-2.822-10.138-2.347-10-6.281.17-4.839 11.322-2.237 12.813-6.844.307-.949-.362-2.987-1.312-2.687z"/><path id="w" d="M74.438 711.518c-.936.352-1.478 1.845-1.125 2.781.711 1.888 3.768 1.542 5.406 2.719.999.717 2.955 1.409 2.625 2.594-.333 1.198-2.386.774-3.625.875-1.947.158-4.319-1.658-5.844-.437-.781.625-1.064 2.189-.437 2.969 1.366 1.702 4.356.648 6.531.469 2.306-.19 5.08-.023 6.75-1.625.602-.577.898-1.599.688-2.406-.582-2.231-3.037-3.526-4.906-4.875-1.836-1.325-3.943-3.859-6.062-3.062z"/><path id="x" d="M93.844 702.081c-2.39 1.378-3.793 1.713-6.625 3.531-.64.411-.33 1.649.094 2.281.415.62 1.378.577 2.031.938.989.545 2.073 1.018 2.844 1.844.601.644.905 1.516 1.281 2.313.254.537.117 1.408.656 1.656.76.35 2.023-.054 2.375-.812.278-.598-.431-1.25-.719-1.844-.511-1.055-.98-2.176-1.781-3.031-.938-1.001-3.48-.942-3.406-2.312.089-1.661 3.913-.755 4.406-2.344.247-.797-.434-2.635-1.156-2.219z"/><path id="y" d="M90.344 729.175c-.819-.114-1.304 1.022-2 1.469-1.083.695-2.15 1.479-3.375 1.875-.419.136-.873.13-1.312.156-.302.018-.647-.156-.906 0a2.37 2.37 0 0 0-1.062 2c.052 1.296 1.569 2.094 2.094 3.281.645 1.461-.11 3.787 1.25 4.625.706.435 2.004.207 2.438-.5.926-1.51-.702-3.5-1.406-5.125-.301-.695-1.51-1.252-1.187-1.937.125-.267.595-.032.875-.125 1.442-.48 2.718-1.371 4-2.187.742-.472 2.004-.692 2.125-1.562.114-.823-.708-1.854-1.531-1.969z"/><path id="z" d="M83.406 691.787c-1.547-.018-2.143 1.874-3.394 2.629-1.228.741-3.435.659-3.981 1.836-.36.776.035 2.063.969 2.362 1.719.552 3.346-1.323 4.837-2.222 1.363-.822 3.672-1.466 3.694-2.865.013-.826-1.131-1.728-2.125-1.739z"/><path id="AA" d="M68.531 734.675c-.3.957-1.88 1.479-1.719 2.469.106.654 1.082.767 1.594 1.188.792.651 1.639 1.264 2.281 2.063.737.916 1.226 2.01 1.75 3.063.035.071.133.15.094.219s-.145.026-.219.031c-1.174.083-2.366.17-3.531 0-.903-.132-1.762-.483-2.625-.781-.561-.194-1.108-.884-1.656-.656-.922.382-1.567 1.826-1.187 2.75.243.592 1.176.51 1.781.719 1.066.368 2.134.776 3.25.938 1.381.201 2.793.098 4.188.031.805-.039 1.728.187 2.406-.25a2.74 2.74 0 0 0 1.188-2.031c.05-.815-.601-1.521-.969-2.25-.634-1.259-1.243-2.557-2.125-3.656-.789-.983-1.811-1.758-2.781-2.562-.55-.456-1.08-1.602-1.719-1.281z"/><path id="AB" d="M56.313 755.425c-.979-.227-2.276.707-2.5 1.688-.335 1.47 1.711 2.51 2.281 3.906.581 1.422 2.201 3.372 1.125 4.469-.711.725-2.013-.343-2.969-.687-1.468-.529-2.693-2.542-4.187-2.094-.957.287-1.788 1.637-1.5 2.594.5 1.659 3.028 1.719 4.656 2.313 1.863.68 3.872 1.942 5.781 1.406a2.67 2.67 0 0 0 1.75-1.75c.672-2.446-.923-5.024-1.875-7.375-.645-1.592-.89-4.08-2.562-4.469z"/><path id="AC" d="M39.219 771.675c-.884-.456-2.356.116-2.812 1-.943 1.829 1.367 3.905 1.688 5.938.182 1.153 1.04 2.776.125 3.5-.957.757-2.468-1.569-3.531-.969-.867.489-1.301 2.007-.812 2.875.938 1.667 3.65 1.879 5.531 1.531.776-.144 1.565-.694 1.906-1.406.865-1.805.068-4.024-.25-6-.356-2.214.149-5.442-1.844-6.469z"/><path id="AD" d="M77.188 755.393c-.997-.29-1.764 1.195-2.781 1.406-1.052.219-2.222-.589-3.219-.187-.711.286-1.725.938-1.562 1.688.495 2.285 2.154 5.425 1.438 6.969-.351.757 1.944.747 2.5.125 1.344-1.502-2.206-4.377-.969-5.969.507-.652 1.673.002 2.469-.219 1.217-.337 3.044-.447 3.406-1.656.24-.801-.479-1.923-1.281-2.156z"/><path id="AE" d="M52.719 776.862c-.611-.197-.949.945-1.125 1.563-.64 2.239-1.052 5.206.469 6.969.543.63 1.794 1.058 2.438.531 1.58-1.293-1.576-4.721-.094-6.125 1.524-1.443 4.94 2.052 6.281.438.529-.637-.003-1.859-.625-2.406-1.726-1.52-4.572-.517-6.844-.875-.168-.026-.392.037-.5-.094z"/><path id="AF" d="M34.156 795.3c-.27.786-1.766 1.171-1.531 1.969.312 1.059 2.038.902 3.125 1.094.769.136 1.754.544 2.344.031.626-.544.853-1.84.313-2.469-.55-.64-1.699.081-2.531-.062-.594-.102-1.231-.916-1.719-.562z"/><path id="AG" d="M112.531 681.219c-2.448 1.819-5.101 3.009-7.875 5.906-1.305 1.363-1.203 3.287-.437 4.5.523.828 1.292 1.315 2.125 1.625s1.757.474 2.719-.031c3.479-1.828 5.063-3.213 7.813-5.094l-1.406-2.062c-2.853 1.952-4.27 3.238-7.562 4.969.087-.046-.276.028-.687-.125s-.817-.483-.906-.625c-.295-.467-.416-.872.125-1.437 2.445-2.554 4.882-3.611 7.594-5.625-.537-.641-1.032-1.309-1.5-2z"/><path id="AH" d="M125.25 701.781c-2.029 1.129-4.358 1.482-7 3.25-1.04.696-1.579 1.814-1.781 2.938s-.079 2.332.625 3.344c.638.916 1.616 1.286 2.563 1.438s1.936.109 2.813-.469c2.407-1.587 3.835-1.981 6.344-3.812l-1.469-2.031c-2.272 1.66-3.633 2.025-6.25 3.75-.091.06-.599.168-1.062.094s-.837-.307-.906-.406c-.173-.248-.297-.859-.187-1.469s.434-1.143.688-1.312c2.172-1.453 4.357-1.741 6.844-3.125l-1.219-2.187z"/><path id="AI" d="M136.75 721.844s-5.258 2.497-8.437 4.656c-1.068.725-1.305 1.869-1.344 2.938s.176 2.198 1 3.094c1.541 1.675 4.069 1.557 5.969.438l6.625-4.094-1.344-2.094-6.562 4.031c-1.073.633-2.386.528-2.844.031-.112-.122-.365-.728-.344-1.312s.345-1.033.25-.969c2.853-1.937 8.094-4.469 8.094-4.469l-1.062-2.25z"/><path id="AJ" d="M46.836 797.658c1.472 8.193 2.269 15.862 4.561 23.418 2.439 8.04 5.704 15.865 9.637 23.289 2.85 5.38 6.31 10.446 10.038 15.258 5.289 6.827 11.914 13.172 17.402 19.196"/><path id="AK" d="M155.576 764.572c-4.549 3.203-9.155 8.257-11.983 11.884-2.363 3.032-4.691 6.312-6.281 10.063-1.74 4.105-2.729 8.5-3.187 12.844-.481 4.563-.572 10.922 1.656 16.813l2.75-4.094c-.45-2.944-.812-8.462-.406-12.312.426-4.035 1.327-8.036 2.875-11.687 1.363-3.215 3.463-6.253 5.75-9.187 2.512-3.223 4.888-6.922 8.906-9.25z"/><path id="AL" d="M36.571 733.675c4.753-4.244 8.941-8.71 13.707-12.731 4.003-3.377 8.318-6.365 12.477-9.548-.238 1.697-.361 3.411-.713 5.092-.45 2.15-1.188 4.244-1.782 6.365-3.446 2.016-6.747 4.244-10.338 6.047-2.409 1.209-4.924 2.295-7.486 3.183-1.914.663-3.726 1.061-5.864 1.591z"/><path id="AM" d="M35.129 738.654c3.229-1.076 6.505-2.037 9.686-3.229 2.233-.837 4.475-1.679 6.587-2.751 2.345-1.19 4.477-2.711 6.716-4.066-.387 1.634-.475 3.356-1.162 4.903-.582 1.309-1.636 2.392-2.454 3.588-2.325.678-4.585 1.586-6.974 2.033-2.246.421-4.557.717-6.845.598-1.888-.098-3.702-.718-5.554-1.076z"/><path id="AN" d="M34.988 742.759l7.038.361 4.942-.191c1.819-.234 3.595-.792 5.393-1.188-.705 1.17-1.244 2.499-2.114 3.511-.736.856-1.708 1.392-2.561 2.088-1.662-.163-3.348-.126-4.985-.49-1.54-.342-3.086-.801-4.5-1.581-1.167-.643-2.142-1.674-3.212-2.511z"/><path id="AO" d="M34.489 747.17l4.878 2.425 3.58 1.36c1.375.374 2.832.486 4.247.73-.908.687-1.753 1.546-2.724 2.061-.821.435-1.698.552-2.547.828-1.125-.633-2.336-1.118-3.374-1.898-.976-.733-1.915-1.558-2.65-2.591-.606-.852-.94-1.943-1.411-2.915z"/><path id="AP" d="M33.289 753.326l2.87 2.476c.694.532 1.391 1.065 2.144 1.45.836.428 1.749.631 2.623.947-.636.535-1.248 1.226-1.908 1.606-.559.321-1.124.36-1.686.54-.655-.635-1.379-1.148-1.966-1.906-.552-.713-1.073-1.503-1.445-2.459-.308-.789-.421-1.769-.632-2.653z"/><path id="AQ" d="M104.195 715.565l4.204 8.099c1.57 3.235 2.962 6.553 4.444 9.83-2.962 3.007-6.172 5.79-8.887 9.022-3.829 4.559-7.401 9.382-10.369 14.543-3.044 5.294-5.624 10.899-7.541 16.697-1.788 5.408-2.924 11.046-3.636 16.697-.623 4.947-.754 9.966-.539 14.947.238 5.512.875 11.031 2.02 16.428 1.023 4.82 2.554 9.535 4.309 14.139 1.831 4.804 3.913 9.54 6.464 14.004 2.112 3.698 4.848 7.002 7.271 10.503l-11.042 14.947c-4.803-5.476-9.922-10.69-14.408-16.428-4.41-5.64-8.746-11.399-12.254-17.64-2.788-4.96-4.938-10.272-6.911-15.609-1.609-4.351-2.903-8.822-3.999-13.33s-1.615-9.849-2.567-13.689l12.708-12.233c4.36-4.409 8.829-8.741 12.75-13.544 5.489-6.724 10.568-13.822 15.005-21.283 3.149-5.295 6.078-10.78 8.189-16.568 2.297-6.298 3.77-12.83 4.788-19.534z"/><path id="AR" d="M146.928 651.797a90.28 90.28 0 0 0-12.601 5.094c-7.905 3.896-15.276 8.8-22.79 13.406-8.497 5.209-17.01 10.412-25.203 16.087-6.612 4.58-13.054 9.416-19.304 14.478-7.285 5.9-14.303 12.131-21.181 18.5-5.431 5.028-10.932 10.367-15.848 15.551"/><path id="AS" d="M163.379 779.88s.273-1.673.8-2.2 1.455-.8 2.2-.8 1.673.273 2.2.8.8 1.455.8 2.2-.4 1.8-.8 2.2-.8.6-1.2 1-.6.4-1 .8l-1 1c-.4.4-1 1.2-1.4 2s-.6 2-.6 2-.2-1.2-.6-2-1-1.6-1.4-2l-1-1c-.4-.4-.6-.4-1-.8s-.8-.6-1.2-1-.8-1.455-.8-2.2.273-1.673.8-2.2 1.455-.8 2.2-.8 1.673.273 2.2.8.8 2.2.8 2.2z"/><path id="AT" d="M71.771 696.687c-.766-3.241-.715-6.793-2.298-9.723-1.466-2.714-3.754-5.073-6.364-6.718-1.624-1.023-3.561-1.724-5.48-1.768-2.015-.046-4.01.733-5.834 1.591-1.76.828-3.284 2.107-4.773 3.359-1.148.966-2.608 1.796-3.182 3.182-.338.817-.365 1.847 0 2.652.518 1.141 1.679 1.976 2.828 2.475 1.087.471 2.4.689 3.536.354 1.085-.321 1.808-1.366 2.652-2.121.994-.889 1.886-1.886 2.828-2.828.177.648.116 1.416.53 1.945.749.955 2.121 1.179 3.182 1.768-.943.884-2.139 1.559-2.828 2.652-.726 1.151-1.098 2.536-1.237 3.889-.176 1.709-.154 3.551.53 5.127.715 1.648 2.357 2.711 3.536 4.066"/><path id="AU" d="M48.027 683.034c.984-.552 2.718.961 3.062 2.163.334 1.168-.575 2.48-1.414 3.359-.947.991-2.475 1.179-3.712 1.768"/><path id="AV" d="M54.094 678.303c-1.827-1.945-3.08-4.669-5.48-5.834a5.9 5.9 0 0 0-4.066-.354c-1.416.405-2.737 1.414-3.536 2.652-.589.913-.921 2.117-.707 3.182.241 1.202 1.27 2.123 2.121 3.005 1.08 1.12 2.475 1.886 3.712 2.828"/><path id="AW" d="M40.835 679.894c-1.179.118-2.475-.173-3.536.354-1.008.501-2.006 1.388-2.298 2.475-.345 1.284.196 2.752.884 3.889 1.363 2.253 3.882 3.576 6.01 5.127 1.903 1.387 3.899 2.67 6.01 3.712 1.187.586 2.423 1.715 3.712 1.414 1.096-.256 1.982-1.394 2.298-2.475.185-.632-.085-1.343-.354-1.945-.274-.613-.825-1.061-1.237-1.591"/><path id="AX" d="M36.946 689.263c-1.002.825-2.356 1.351-3.005 2.475-.538.931-.858 2.158-.53 3.182.28.873 1.318 1.275 1.945 1.945.856.915 1.477 2.071 2.475 2.828 1.197.908 2.629 1.505 4.066 1.945 1.538.47 3.177.902 4.773.707 1.075-.132 2.402-.337 3.005-1.237.525-.783.361-1.957 0-2.828-.383-.924-1.258-1.617-2.121-2.121-.951-.555-2.112-1.141-3.182-.884-.933.224-1.669 1.099-2.121 1.945-.365.684-.459 1.53-.354 2.298.097.705.589 1.296.884 1.945"/><path id="AY" d="M35.002 698.632c-.648.53-1.586.834-1.945 1.591-.353.745-.296 1.705 0 2.475.568 1.48 1.86 2.66 3.182 3.536 1.507.998 3.373 1.33 5.127 1.768 1.1.274 2.312.964 3.359.53.74-.307 1.274-1.155 1.414-1.945.15-.845-.175-1.801-.707-2.475-.67-.849-1.75-1.513-2.828-1.591-.819-.059-1.701.321-2.298.884-.518.488-.762 1.243-.884 1.945s.118 1.414.177 2.121"/><path id="AZ" d="M37.123 707.648c-.471 1.886-1.149 3.731-1.414 5.657-.281 2.044-.118 4.125-.177 6.187l4.596-.177c-.059-2.18-.371-4.368-.177-6.541.129-1.439.589-2.828.884-4.243l-3.712-.884z"/><path id="Aa" d="M49.674 672.116c1.591-2.593 2.599-5.65 4.773-7.778a22.68 22.68 0 0 1 9.369-5.48c2.887-.843 6.009-.295 9.016-.354 3.594-.07 7.224.504 10.783 0 2.733-.387 5.427-1.189 7.955-2.298 1.768-.775 3.608-1.618 4.95-3.005.752-.778 1.061-1.886 1.591-2.828-.236 2.475.011 5.045-.707 7.425-.83 2.751-2.238 5.384-4.066 7.601-2.078 2.521-4.674 4.738-7.601 6.187-2.553 1.264-5.491 1.583-8.309 2-4.029.597-8.127.571-12.198.707-2.297.077-4.659-.472-6.894.061-1.854.442-3.418 1.357-5.127 2.535l-3.536-4.773z"/><path id="Ab" d="M89.047 660.183l-5.176 3.565-.049-1.091-6.881 1.925 1.066-1.681-10.338 2.4c-.063.006 1.415-1.585 1.353-1.571l-10.084 3.039c-.226.044.242-1.322.059-1.182l-7.905 8.09.589.663 8.894-4.571-1.516-.439 8.965-.724-.817-.724 10.845.399-1.396-.856a1680.34 1680.34 0 0 0 10.409-1.998l-1.784-.533c1.269-.697 4.04-1.347 5.032-1.949s-1.001-.475-.943-.509l3.713-3.105-3.984 1.847z"/></defs></svg>