<svg xmlns="http://www.w3.org/2000/svg" xmlns:xlink="http://www.w3.org/1999/xlink" width="360" height="540" viewBox="0 0 95.25 142.875" xmlns:v="https://vecta.io/nano"><g transform="matrix(.264583 0 0 .264583 0 -135.562492)"><rect rx="29.944" y="512.862" x=".5" height="539" width="359" fill="#fff" stroke="#000"/><g fill="#f55"><path d="M30 542.362a9.98 9.98 0 0 0-10 10v20 10a9.98 9.98 0 0 0 10 10 9.98 9.98 0 0 0 10-10v-10a9.98 9.98 0 0 0-10-10c-1.823 0-3.532.499-5 1.344v-11.344a5 5 0 1 1 10 0v1h5v-1a9.98 9.98 0 0 0-10-10zm0 25a4.99 4.99 0 0 1 5 5v10a5 5 0 1 1-10 0v-10a4.99 4.99 0 0 1 5-5zm300 455a9.98 9.98 0 0 0 10-10v-20-10a10 10 0 1 0-20 0v10a9.98 9.98 0 0 0 10 10c1.823 0 3.532-.499 5-1.344v11.344a5 5 0 1 1-10 0v-1h-5v1a9.98 9.98 0 0 0 10 10zm0-25a4.99 4.99 0 0 1-5-5v-10a5 5 0 1 1 10 0v10a4.99 4.99 0 0 1-5 5z"/><use xlink:href="#B"/><use xlink:href="#B" x="180"/><use xlink:href="#B" y="180"/><use xlink:href="#B" x="180" y="180"/><use xlink:href="#B" y="360"/><use xlink:href="#B" x="180" y="360"/><use xlink:href="#C"/><use xlink:href="#C" x="300" y="315"/></g></g><defs ><path id="B" d="M90 557.362s6 15 13 25 17 20 17 20-10 10-17 20-13 25-13 25-6-15-13-25-17-20-17-20 10-10 17-20 13-25 13-25"/><path id="C" d="M30 602.362s3 7.5 6.5 12.5 8.5 10 8.5 10-5 5-8.5 10-6.5 12.5-6.5 12.5-3-7.5-6.5-12.5-8.5-10-8.5-10 5-5 8.5-10 6.5-12.5 6.5-12.5"/></defs></svg>