<svg xmlns="http://www.w3.org/2000/svg" xmlns:xlink="http://www.w3.org/1999/xlink" width="360" height="540" viewBox="0 0 95.25 142.875" xmlns:v="https://vecta.io/nano"><g transform="matrix(.264583 0 0 .264583 0 -135.562492)"><rect rx="29.944" y="512.862" x=".5" height="539" width="359" fill="#fff" stroke="#000"/><g fill="#f55"><path d="M30 542.362a9.98 9.98 0 0 0-10 10v5h5v-5a5 5 0 1 1 10 0v5c0 1.128-.375 3.065-1 3.9-4.463 9.104-9.278 17.129-14 26.1v5h10 10v-5-5h-5v5h-5-4.5c4.489-7.915 8.218-15.572 12.5-23.6 1.25-1.669 2-4.145 2-6.4v-5a9.98 9.98 0 0 0-10-10zm300 480a9.98 9.98 0 0 0 10-10v-5h-5v5a5 5 0 1 1-10 0v-5c0-1.128.375-3.065 1-3.9 4.463-9.104 9.278-17.129 14-26.1v-5h-10-10v5 5h5v-5h5 4.5c-4.489 7.915-8.218 15.572-12.5 23.6-1.25 1.669-2 4.145-2 6.4v5a9.98 9.98 0 0 0 10 10z"/><use xlink:href="#B"/><use xlink:href="#B" y="360"/><use xlink:href="#C"/><use xlink:href="#C" x="300" y="315"/></g></g><defs ><path id="B" d="M180 557.362s6 15 13 25 17 20 17 20-10 10-17 20-13 25-13 25-6-15-13-25-17-20-17-20 10-10 17-20 13-25 13-25"/><path id="C" d="M30 602.362s3 7.5 6.5 12.5 8.5 10 8.5 10-5 5-8.5 10-6.5 12.5-6.5 12.5-3-7.5-6.5-12.5-8.5-10-8.5-10 5-5 8.5-10 6.5-12.5 6.5-12.5"/></defs></svg>