<svg xmlns="http://www.w3.org/2000/svg" xmlns:xlink="http://www.w3.org/1999/xlink" width="360" height="540" viewBox="0 0 95.25 142.875" xmlns:v="https://vecta.io/nano"><g transform="matrix(.264583 0 0 .264583 0 -135.562494)"><rect rx="29.944" y="512.862" x=".5" height="539" width="359" fill="#fff" stroke="#000"/><g fill="#f55"><path d="M20 542.362v5 5h5v-5h10l-10 45h5l10-45v-5zm320 480v-5-5h-5v5h-10l10-45h-5l-10 45v5z"/><use xlink:href="#B"/><use xlink:href="#B" x="300" y="315"/><use xlink:href="#C"/><use xlink:href="#C" x="180"/><use xlink:href="#C" x="90" y="90"/><use xlink:href="#C" y="180"/><use xlink:href="#C" x="180" y="180"/><use xlink:href="#C" y="360"/><use xlink:href="#C" x="180" y="360"/></g></g><defs ><path id="B" d="M30 602.362s3 7.5 6.5 12.5 8.5 10 8.5 10-5 5-8.5 10-6.5 12.5-6.5 12.5-3-7.5-6.5-12.5-8.5-10-8.5-10 5-5 8.5-10 6.5-12.5 6.5-12.5"/><path id="C" d="M90 557.362s6 15 13 25 17 20 17 20-10 10-17 20-13 25-13 25-6-15-13-25-17-20-17-20 10-10 17-20 13-25 13-25"/></defs></svg>