<?xml version="1.0" encoding="UTF-8"?>
<svg version="1.1" viewBox="0 0 129 129" xmlns="http://www.w3.org/2000/svg" xmlns:cc="http://creativecommons.org/ns#" xmlns:dc="http://purl.org/dc/elements/1.1/" xmlns:rdf="http://www.w3.org/1999/02/22-rdf-syntax-ns#">
<metadata>
<rdf:RDF>
<cc:Work rdf:about="">
<dc:format>image/svg+xml</dc:format>
<dc:type rdf:resource="http://purl.org/dc/dcmitype/StillImage"/>
</cc:Work>
</rdf:RDF>
</metadata>
<g transform="translate(-10 -886.8)">
<path d="m72.982 1010.3c-4.7921-12.883-12.214-23.307-38.165-53.6-15.826-18.474-21.724-27.409-23.655-35.835-2.344-10.231 1.1968-19.983 9.6649-26.617 5.6939-4.4606 11.608-6.3731 19.709-6.3731 13.354 0 24.174 6.661 30.646 18.867 1.8531 3.4946 3.6991 6.0287 4.1024 5.6313 0.40322-0.39739 1.4675-2.4118 2.365-4.4766 3.8902-8.9489 12.754-16.689 22-19.21 6.269-1.7096 17.497-0.69211 23.434 2.1238 16.528 7.838 20.132 24.972 9.2326 43.895-4.2834 7.4367-8.2631 12.505-21.472 27.345-18.466 20.746-29.595 36.539-34.002 48.249-0.90641 2.4089-1.7792 4.3798-1.9396 4.3798-0.16036 0-1.0247-1.9709-1.9206-4.3798z" fill="#f00"/>
</g>
</svg>
