<?xml version="1.0" encoding="UTF-8"?>
<svg version="1.1" viewBox="0 0 147 147" xmlns="http://www.w3.org/2000/svg" xmlns:cc="http://creativecommons.org/ns#" xmlns:dc="http://purl.org/dc/elements/1.1/" xmlns:rdf="http://www.w3.org/1999/02/22-rdf-syntax-ns#">
<metadata>
<rdf:RDF>
<cc:Work rdf:about="">
<dc:format>image/svg+xml</dc:format>
<dc:type rdf:resource="http://purl.org/dc/dcmitype/StillImage"/>
</cc:Work>
</rdf:RDF>
</metadata>
<g transform="translate(-10 -886.95)">
<path d="m35.756 1032.4c0.04175-2.1326 2.3227-3.3889 10.079-5.5512 11.658-3.2503 15.704-5.2676 21.087-10.512 9.4308-9.1901 14.644-21.222 15.337-35.399 0.35425-7.2408 0.23273-8.3245-0.76086-6.7854-0.65035 1.0074-2.8585 4.4542-4.9069 7.6596-7.6506 11.971-21.551 19.554-33.949 18.517-11.356-0.9496-21.251-8.0757-26.064-18.77-2.0973-4.6604-3.4498-6.6646-3.4492-14.503 5.52e-4 -7.2996 1.4091-9.9798 3.0023-13.572 2.6989-6.086 8.9319-12.903 14.471-15.827 4.0412-2.1334 5.406-2.3648 11.525-1.9539 4.231 0.28415 8.6959 1.2718 11.436 2.5297 2.4725 1.135 4.6708 1.881 4.8851 1.6577 0.21429-0.22324-0.97717-3.1423-2.6477-6.4868-2.7761-5.558-3.4686-9.7049-3.047-14.698 0.6865-8.1314 3.1967-17.066 8.8967-22.666 5.9614-5.8575 12.631-8.7028 23.26-8.2912 9.8883 0.38295 15.629 3.518 20.969 9.1127 5.224 5.4733 7.8235 13.729 8.4406 21.421 0.4121 5.136-0.29029 8.8028-3.2784 15.08-1.8032 3.7877-2.9904 6.8867-2.6384 6.8867s3.068-1.1762 6.0356-2.6137c13.878-6.7226 29.791-0.21065 36.517 14.943 1.614 3.6365 2.9228 6.2184 2.9169 14.479-7e-3 8.7485-1.2615 10.674-3.2355 14.84-6.2424 13.174-20.714 20.775-33.93 17.822-11.252-2.5139-20.715-9.5882-27.642-20.665-2.1509-3.4393-4.1019-6.2533-4.3355-6.2533-0.67845 0 0.6882 12.369 2.0894 18.91 2.7289 12.739 10.851 24.304 21.144 30.105 3.9377 2.2193 11.958 4.8896 20.722 6.8996 1.3656 0.3132 2.6278 1.3922 2.9008 2.4798 0.47962 1.9108 0.11815 1.9254-47.68 1.9254-26.49 0-48.157-0.3231-48.149-0.7181z"/>
</g>
</svg>
