<?xml version="1.0" encoding="UTF-8"?>
<svg version="1.1" viewBox="0 0 131 131" xmlns="http://www.w3.org/2000/svg" xmlns:cc="http://creativecommons.org/ns#" xmlns:dc="http://purl.org/dc/elements/1.1/" xmlns:rdf="http://www.w3.org/1999/02/22-rdf-syntax-ns#">
<metadata>
<rdf:RDF>
<cc:Work rdf:about="">
<dc:format>image/svg+xml</dc:format>
<dc:type rdf:resource="http://purl.org/dc/dcmitype/StillImage"/>
</cc:Work>
</rdf:RDF>
</metadata>
<g transform="translate(-10 -887.85)">
<path d="m29.335 1016.8c0-1.3447 0.89138-1.7779 4.5479-2.2102 13.962-1.6506 20.984-4.2918 28.324-10.655 7.6004-6.5887 11.615-15.452 12.717-28.074 0.67066-7.6822 0.65566-7.6834-4.771-0.35502-6.5139 8.7965-15.084 13.114-25.977 13.088-7.8255-0.0189-12.084-1.4448-17.515-5.8656-5.7728-4.6993-8.2025-9.9297-8.2618-17.785-0.0431-5.7001 0.35571-7.2589 3.2004-12.509 2.6006-4.7998 5.1635-7.6347 12.832-14.194 28.96-24.769 34.86-31.342 39.049-43.5l2.2318-6.4784 2.4917 6.3608c4.3799 11.181 7.8785 15.373 28.328 33.94 22.348 20.291 25.281 24.153 25.991 34.218 0.23597 3.3474-0.0613 7.7198-0.66058 9.7164-1.5486 5.1593-6.4181 10.433-12.456 13.489-4.3052 2.1792-6.2733 2.6331-11.489 2.65-3.4618 0.0108-7.9161-0.48505-9.8984-1.1027-5.4524-1.6989-12.419-7.1089-16.845-13.08l-3.9661-5.3516v5.5679c0 6.7767 2.9972 17.784 6.1714 22.665 5.0837 7.8163 16.564 14.309 28.422 16.074 10.417 1.5501 10.407 1.5469 10.407 3.3558 0 1.6801-0.78717 1.7091-46.436 1.7091-45.309 0-46.436-0.041-46.436-1.6726z"/>
</g>
</svg>
