<svg xmlns="http://www.w3.org/2000/svg" xmlns:xlink="http://www.w3.org/1999/xlink" width="360" height="540" viewBox="0 0 95.25 142.875" xmlns:v="https://vecta.io/nano"><g transform="matrix(.264583 0 0 .264583 0 -135.562496)"><rect rx="29.944" y="512.862" x=".5" height="539" width="359" fill="#fff" stroke="#000"/><g fill="#f55"><path d="M30 542.362l-10 35v5h12v10h5v-10h3v-5h-3v-15h-5v15h-6.8l10-35zm300 480l10-35v-5h-12v-10h-5v10h-3v5h3v15h5v-15h6.8l-10 35z"/><use xlink:href="#B"/><use xlink:href="#B" x="180"/><use xlink:href="#B" y="360"/><use xlink:href="#B" x="180" y="360"/><use xlink:href="#C"/><use xlink:href="#C" x="300" y="315"/></g></g><defs ><path id="B" d="M90 557.362s6 15 13 25 17 20 17 20-10 10-17 20-13 25-13 25-6-15-13-25-17-20-17-20 10-10 17-20 13-25 13-25"/><path id="C" d="M30 602.362s3 7.5 6.5 12.5 8.5 10 8.5 10-5 5-8.5 10-6.5 12.5-6.5 12.5-3-7.5-6.5-12.5-8.5-10-8.5-10 5-5 8.5-10 6.5-12.5 6.5-12.5"/></defs></svg>