<svg xmlns="http://www.w3.org/2000/svg" xmlns:xlink="http://www.w3.org/1999/xlink" width="360" height="540" viewBox="0 0 95.25 142.875" xmlns:v="https://vecta.io/nano"><g transform="matrix(.264583 0 0 .264583 0 -135.562492)"><rect rx="29.944" y="512.862" x=".5" height="539" width="359" fill="#fff" stroke="#000"/><path d="M30 542.362l-10 35v5h12v10h5v-10h3v-5h-3v-15h-5v15h-6.8l10-35zm300 480l10-35v-5h-12v-10h-5v10h-3v5h3v15h5v-15h6.8l-10 35zm-297.5-392c.5 2 2.5 7 6 7 4.5 0 6.5-4 6.5-9 0-3.5-1.289-5.806-2.5-8.5-1.289-2.868-3.19-5.429-5-8-2.323-3.299-7.5-9.5-7.5-9.5s-5.177 6.201-7.5 9.5c-1.81 2.571-3.711 5.132-5 8-1.211 2.694-2.5 5-2.5 8.5 0 5 2 9 6.5 9 3.5 0 5.5-5 6-7 .5-.5.5 0 .5.5-.5 4-.5 5-1 8s-2 8.5-2 8.5c2.5-1 7.5-1 10 0 0 0-1.5-5.5-2-8.5s-.5-4-1-8c0-.5 0-1 .5-.5zm300 304c.5-2 2.5-7 6-7 4.5 0 6.5 4 6.5 9 0 3.5-1.289 5.806-2.5 8.5-1.289 2.868-3.19 5.429-5 8-2.323 3.299-7.5 9.5-7.5 9.5s-5.177-6.201-7.5-9.5c-1.81-2.571-3.711-5.132-5-8-1.211-2.694-2.5-5-2.5-8.5 0-5 2-9 6.5-9 3.5 0 5.5 5 6 7 .5.5.5 0 .5-.5-.5-4-.5-5-1-8s-2-8.5-2-8.5c2.5 1 7.5 1 10 0 0 0-1.5 5.5-2 8.5s-.5 4-1 8c0 .5 0 1 .5.5z"/><use xlink:href="#B"/><use xlink:href="#B" x="180"/><path d="M95.008 951.378c.992-4.004 4.996-14.031 11.976-14.031 9 0 13.004 8.008 13.004 18 0 7.016-2.551 11.622-4.996 17.008-2.587 5.74-6.378 10.878-9.992 16.016-4.642 6.591-14.988 18.992-14.988 18.992S79.63 994.961 74.988 988.37c-3.614-5.138-7.406-10.276-9.992-16.016-2.409-5.386-4.996-9.992-4.996-17.008 0-9.992 4.004-18 13.004-18 6.98 0 10.984 10.028 12.012 14.031.992.992.992 0 .992-1.028-.992-7.972-.992-9.992-2.02-15.98-.992-6.024-4.004-17.008-4.004-17.008 5.031 1.984 15.024 1.984 20.02 0 0 0-3.012 10.984-4.004 17.008-.992 5.988-.992 8.008-1.984 15.98 0 1.028 0 2.02.992 1.028zm180 0c.992-4.004 4.996-14.031 11.976-14.031 9 0 13.004 8.008 13.004 18 0 7.016-2.551 11.622-4.996 17.008-2.587 5.74-6.378 10.878-9.992 16.016-4.642 6.591-14.988 18.992-14.988 18.992s-10.382-12.402-15.024-18.992c-3.614-5.138-7.406-10.276-9.992-16.016-2.409-5.386-4.996-9.992-4.996-17.008 0-9.992 4.004-18 13.004-18 6.98 0 10.984 10.028 12.012 14.031.992.992.992 0 .992-1.028-.992-7.972-.992-9.992-2.02-15.98-.992-6.024-4.004-17.008-4.004-17.008 5.031 1.984 15.024 1.984 20.02 0 0 0-3.012 10.984-4.004 17.008-.992 5.988-.992 8.008-1.984 15.98 0 1.028 0 2.02.992 1.028z"/></g><defs ><path id="B" d="M95.008 613.346c.992 4.004 4.996 14.031 11.976 14.031 9 0 13.004-8.008 13.004-18 0-7.016-2.551-11.622-4.996-17.008-2.587-5.74-6.378-10.878-9.992-16.016-4.642-6.591-14.988-18.992-14.988-18.992s-10.382 12.402-15.024 18.992c-3.614 5.138-7.406 10.276-9.992 16.016-2.409 5.386-4.996 9.992-4.996 17.008 0 9.992 4.004 18 13.004 18 6.98 0 10.984-10.028 12.012-14.031.992-.992.992 0 .992 1.028-.992 7.972-.992 9.992-2.02 15.98-.992 6.024-4.004 17.008-4.004 17.008 5.031-1.984 15.024-1.984 20.02 0 0 0-3.012-10.984-4.004-17.008-.992-5.988-.992-8.008-1.984-15.98 0-1.028 0-2.02.992-1.028z"/></defs></svg>