<svg xmlns="http://www.w3.org/2000/svg" xmlns:xlink="http://www.w3.org/1999/xlink" width="360" height="540" viewBox="0 0 95.25 142.875" xmlns:v="https://vecta.io/nano"><style><![CDATA[.B{stroke-linejoin:round}.C{stroke-width:2}.D{stroke-linecap:round}.E{stroke:#55a}.F{fill:none}.G{fill:#f55}.H{fill:#ff5}.I{stroke:#000}.J{fill:#55a}.K{fill:#ffff58}.L{stroke-width:2.026}.M{stroke-width:2.314}]]></style><g transform="matrix(.264583 0 0 .264583 0 -135.562492)"><rect rx="29.944" y="512.862" x=".5" height="539" width="359" fill="#fff" class="I"/><path d="M30 542.362a10 10 0 0 0-10 10v30a10 10 0 0 0 10 10 10.12 10.12 0 0 0 1.281-.094c1.713 3.049 4.972 5.094 8.719 5.094v-5c-1.64 0-3.088-.812-4-2.031 2.424-1.825 4-4.701 4-7.969v-30a10 10 0 0 0-10-10zm0 5a5 5 0 0 1 5 5v30c0 .716-.167 1.384-.437 2-1.275-4.056-5.085-7-9.562-7v-25a5 5 0 0 1 5-5zm-5 35a5 5 0 0 1 5 5 5 5 0 0 1-5-5zm305 440a10 10 0 0 0 10-10v-30a10 10 0 0 0-10-10c-.434 0-.862.04-1.281.094-1.713-3.049-4.972-5.094-8.719-5.094v5c1.64 0 3.088.812 4 2.031-2.424 1.825-4 4.701-4 7.969v30a10 10 0 0 0 10 10zm0-5a5 5 0 0 1-5-5v-30c0-.716.167-1.384.438-2 1.275 4.057 5.085 7 9.563 7v25a5 5 0 0 1-5 5zm5-35a5 5 0 0 1-5-5 5 5 0 0 1 5 5z" class="G"/><path d="M60 542.362h270v360m-300-240v360h270" class="C E F"/><use xlink:href="#B"/><g class="J"><use xlink:href="#C"/><use xlink:href="#D"/></g><use xlink:href="#E" class="G"/><g class="B D E L"><use xlink:href="#F" class="H"/><path d="M42.949 750.622s2.483-1.009 3.798-1.094c1.053-.069 3.129.474 3.129.474" class="F"/></g><use xlink:href="#G"/><use xlink:href="#H" class="K"/><use xlink:href="#I" class="G"/><path d="M224 542.362l65.5 84.167 7.833-1.667-59.333-82.5z"/><g class="B C"><use xlink:href="#J" class="E H"/><g stroke="#000100"><use xlink:href="#K"/><use xlink:href="#L"/></g><use xlink:href="#M" class="D F I"/></g><use xlink:href="#N"/><g class="C E"><path d="M211 542.362h13.333L330 681.029v32.333z" class="G"/><g class="B D F"><path d="M186.993 542.362s1.77 11.296 14.651 22.174 34.359 15.229 34.359 15.229"/><path d="M192.161 542.362s5.212 11.83 12.428 17.843 27.532 13.114 27.532 13.114"/><path d="M198.267 542.362s4.411 10.059 9.792 14.64 19.925 10.533 19.925 10.533"/><path d="M203.288 542.362s2.731 6.832 7.029 10.382 12.891 7.391 12.891 7.391M188.939 549.9s-.84 4.085-6.144 12.957-15.747 12.632-15.747 12.632"/><path d="M185.051 542.362s-.174 7.049-4.997 14.561-12.941 11.314-12.941 11.314"/><path d="M179.68 542.362s-1.933 7.458-4.509 12.039-7.861 7.898-7.861 7.898"/><path d="M173.554 542.362s.181 4.401-1.943 7.951-3.59 3.984-3.59 3.984m18.384 41.535s.59 2.581.53 3.887c-.162 3.576-1.196 7.097-2.409 10.465-.795 2.208-2.999 3.952-3.158 6.294-.132 1.946.616 4.064 1.896 5.537.901 1.038 2.64.965 3.676 1.868.839.731 1.906 2.74 1.906 2.74"/></g><g class="J B"><use xlink:href="#O"/><use xlink:href="#P"/><use xlink:href="#Q"/><use xlink:href="#R"/></g><g class="D F B"><path d="M197.578 640.195s-3.943 1.371-5.991 1.415c-1.753.038-5.174-.991-5.174-.991m-.787-45.357s-5.032-4.106-9.649-4.205c-4.942-.107-7.895 2.523-7.895 2.523m60.532 3.828s-9.864-7.326-15.527-7.162c-7.42.214-12.961 5.559-12.961 5.559"/><use xlink:href="#S"/><use xlink:href="#T"/><use xlink:href="#U"/><use xlink:href="#V"/></g><g class="J B"><use xlink:href="#W"/><use xlink:href="#X"/></g><g class="D F B"><path d="M184.968 603.775c-2.093 2.46-2.244 4.643-6.579 6.729m21.552-14.209c1.605 7.122 3.449 11.367 8.597 13.522"/><use xlink:href="#Y"/><use xlink:href="#Z"/><use xlink:href="#a"/><path d="M166.353 648.804c4.669 2.407 8.816 2.832 11.95 3.191"/><use xlink:href="#b"/><path d="M242.893 629.169l5.982 15.808m-9.4-11.535l4.913 13.031m-8.759-8.331l3.204 9.4m-7.049-5.982l2.991 7.477m-7.05-4.059l2.777 6.195m-6.622-3.418l1.709 3.632"/><use xlink:href="#c"/><use xlink:href="#d"/><use xlink:href="#e"/><use xlink:href="#f"/><use xlink:href="#g"/><use xlink:href="#h"/><use xlink:href="#i"/><use xlink:href="#j"/><use xlink:href="#k"/><use xlink:href="#l"/><use xlink:href="#m"/><use xlink:href="#n"/><use xlink:href="#o"/><use xlink:href="#p"/><use xlink:href="#q"/><use xlink:href="#r"/><use xlink:href="#s"/><use xlink:href="#t"/></g></g><g transform="rotate(335.106 55.66 674.372)" class="B C E"><use xlink:href="#u" class="H"/><use xlink:href="#v" class="D F"/></g><path d="M66.526 700.508l.888-10.32 3.067-2.706 2.653 2.68-.592 13.76z" class="B C E H"/><g transform="matrix(.861025 -.247143 .269122 .790704 -169.53017 160.45743)" class="B E M"><use xlink:href="#w" class="H"/><use xlink:href="#x" class="D F"/></g><g class="C E B"><path d="M80.399 672.051l5.843-4.137 5.616 3.127-5.644 4.659zm-13.758-8.181l-4.28-5.751 3.976-5.737 4.306 5.659zm-15.813 8.86l-5.475 4.475 6.675 3.082 4.062-4.416z" class="J"/><use xlink:href="#y" class="H"/><use xlink:href="#z" class="G"/><path d="M57.581 666.904l4.142 3.521m14.085-5.385l-4.142 5.178m1.242 7.87l4.971 3.728m-13.67-1.449l-4.35 5.592" class="D"/></g><use xlink:href="#AA"/><use xlink:href="#AB"/><use xlink:href="#AC"/><use xlink:href="#AD"/><use xlink:href="#AE"/><use xlink:href="#AF"/><use xlink:href="#AG"/><use xlink:href="#AH"/><use xlink:href="#AI"/><use xlink:href="#AJ"/><use xlink:href="#AK"/><use xlink:href="#AL"/><use xlink:href="#AM"/><use xlink:href="#AN"/><use xlink:href="#AO"/><use xlink:href="#AP"/><path d="M142.592 680.163l5.034-11.711-1.849-.719-10.581 9.143zm118.245-23.423l5.445 10.992 4.52-1.849-8.013-10.171z"/><g class="B C D E F"><use xlink:href="#AQ"/><use xlink:href="#AR"/></g><use xlink:href="#AS"/><g class="C B"><g class="D"><use xlink:href="#AT" class="E F"/><use xlink:href="#AU" class="I K"/></g><use xlink:href="#AV" class="I"/></g><use xlink:href="#AW" class="K"/><use xlink:href="#AX"/><g class="K"><use xlink:href="#AY"/><use xlink:href="#AZ"/><use xlink:href="#Aa"/><use xlink:href="#Ab"/></g><use xlink:href="#Ac"/><g class="B C D F I"><use xlink:href="#Ad"/><use xlink:href="#Ae"/><use xlink:href="#Af"/><use xlink:href="#Ag"/></g><path d="M171.288 643.463l-15.49 14.261-29.903 27.617-35.045 33.14-29.903 28.76L30 775.621" class="B C D E"/><path d="M142.128 718.608l17.324 4.596-7.025 21.382-17.293-4.243z" class="G"/><use xlink:href="#Ah" class="H"/><g class="B C D F I"><use xlink:href="#Ai"/><use xlink:href="#Aj"/></g><use xlink:href="#Ak"/><use xlink:href="#Al"/><use xlink:href="#Am"/><use xlink:href="#An"/><use xlink:href="#Ao"/><use xlink:href="#Ap"/><path d="M205.408 728.778l19.859.307-9.755 24.112-19.048-1.513z" class="G"/><g transform="rotate(180 180 782.362)"><use xlink:href="#B"/><g class="J"><use xlink:href="#C"/><use xlink:href="#D"/></g><use xlink:href="#E" class="G"/><g class="B D E L"><use xlink:href="#F" class="H"/><path d="M42.949 750.622s2.483-1.009 3.798-1.094c1.053-.069 3.129.474 3.129.474" class="F"/></g><use xlink:href="#G"/><use xlink:href="#H" class="K"/><use xlink:href="#I" class="G"/><path d="M224 542.362l65.5 84.167 7.833-1.667-59.333-82.5z"/><g class="B C"><use xlink:href="#J" class="E H"/><g stroke="#000100"><use xlink:href="#K"/><use xlink:href="#L"/></g><use xlink:href="#M" class="D F I"/></g><use xlink:href="#N"/><g class="C E"><path d="M211 542.362h13.333L330 681.029v32.333z" class="G"/><g class="B D F"><path d="M186.993 542.362s1.77 11.296 14.651 22.174 34.359 15.229 34.359 15.229"/><path d="M192.161 542.362s5.212 11.83 12.428 17.843 27.532 13.114 27.532 13.114"/><path d="M198.267 542.362s4.411 10.059 9.792 14.64 19.925 10.533 19.925 10.533"/><path d="M203.288 542.362s2.731 6.832 7.029 10.382 12.891 7.391 12.891 7.391M188.939 549.9s-.84 4.085-6.144 12.957-15.747 12.632-15.747 12.632"/><path d="M185.051 542.362s-.174 7.049-4.997 14.561-12.941 11.314-12.941 11.314"/><path d="M179.68 542.362s-1.933 7.458-4.509 12.039-7.861 7.898-7.861 7.898"/><path d="M173.554 542.362s.181 4.401-1.943 7.951-3.59 3.984-3.59 3.984m18.384 41.358s.596 2.699.53 4.064c-.173 3.576-1.196 7.097-2.409 10.465-.795 2.208-2.999 3.952-3.158 6.294-.132 1.946.616 4.064 1.896 5.537.901 1.038 2.64.965 3.676 1.868.839.731 1.906 2.74 1.906 2.74"/></g><g class="J B"><use xlink:href="#O"/><use xlink:href="#P"/><use xlink:href="#Q"/><use xlink:href="#R"/></g><g class="D F B"><path d="M197.578 640.195s-3.943 1.371-5.991 1.415c-1.753.038-5.174-.991-5.174-.991m-.787-45.357s-5.032-4.106-9.649-4.205c-4.942-.107-7.895 2.523-7.895 2.523m60.532 3.828s-9.864-7.326-15.527-7.162c-7.42.214-12.961 5.559-12.961 5.559"/><use xlink:href="#S"/><use xlink:href="#T"/><use xlink:href="#U"/><use xlink:href="#V"/></g><g class="J B"><use xlink:href="#W"/><use xlink:href="#X"/></g><g class="D F B"><path d="M184.968 603.775c-2.093 2.46-2.244 4.643-6.579 6.729m21.126-13.783c1.605 7.122 3.875 10.941 9.023 13.096"/><use xlink:href="#Y"/><use xlink:href="#Z"/><use xlink:href="#a"/><path d="M166.353 648.804c4.669 2.407 8.816 2.832 11.95 3.191"/><use xlink:href="#b"/><path d="M242.893 629.169l5.982 15.808m-9.4-11.535l4.913 13.031m-8.759-8.331l3.204 9.4m-7.049-5.982l2.991 7.477m-7.05-4.059l2.777 6.195m-6.622-3.418l1.709 3.632"/><use xlink:href="#c"/><use xlink:href="#d"/><use xlink:href="#e"/><use xlink:href="#f"/><use xlink:href="#g"/><use xlink:href="#h"/><use xlink:href="#i"/><use xlink:href="#j"/><use xlink:href="#k"/><use xlink:href="#l"/><use xlink:href="#m"/><use xlink:href="#n"/><use xlink:href="#o"/><use xlink:href="#p"/><use xlink:href="#q"/><use xlink:href="#r"/><use xlink:href="#s"/><use xlink:href="#t"/></g></g><g transform="rotate(335.106 55.66 674.372)" class="B C E"><use xlink:href="#u" class="H"/><use xlink:href="#v" class="D F"/></g><path d="M66.526 700.508l.888-10.32 3.067-2.706 2.653 2.68-.592 13.76z" class="B C E H"/><g transform="matrix(.861025 -.247143 .269122 .790704 -169.53017 160.45743)" class="B E M"><use xlink:href="#w" class="H"/><use xlink:href="#x" class="D F"/></g><path d="M80.399 672.051l5.843-4.137 5.616 3.127-5.644 4.659zm-13.758-8.181l-4.28-5.751 3.976-5.737 4.306 5.659zm-15.813 8.86l-5.475 4.475 6.675 3.082 4.062-4.416z" class="B C E J"/><use xlink:href="#y" class="B C E H"/><use xlink:href="#z" class="B C E G"/><path d="M57.581 666.904l4.142 3.521m14.085-5.385l-4.142 5.178m1.242 7.87l4.971 3.728m-13.67-1.449l-4.35 5.592" class="D B C E"/><use xlink:href="#AA"/><use xlink:href="#AB"/><use xlink:href="#AC"/><use xlink:href="#AD"/><use xlink:href="#AE"/><use xlink:href="#AF"/><use xlink:href="#AG"/><use xlink:href="#AH"/><use xlink:href="#AI"/><use xlink:href="#AJ"/><use xlink:href="#AK"/><use xlink:href="#AL"/><use xlink:href="#AM"/><use xlink:href="#AN"/><use xlink:href="#AO"/><use xlink:href="#AP"/><path d="M142.592 680.163l5.034-11.711-1.849-.719-10.581 9.143zm118.245-23.423l5.445 10.992 4.52-1.849-8.013-10.171z"/><g class="B C D E F"><use xlink:href="#AQ"/><use xlink:href="#AR"/></g><use xlink:href="#AS"/><g class="B C D"><use xlink:href="#AT" class="E F"/><use xlink:href="#AU" class="I K"/></g><use xlink:href="#AV" class="B C I"/><use xlink:href="#AW" class="K"/><use xlink:href="#AX"/><g class="K"><use xlink:href="#AY"/><use xlink:href="#AZ"/><use xlink:href="#Aa"/><use xlink:href="#Ab"/></g><use xlink:href="#Ac"/><g class="B D C"><g class="F I"><use xlink:href="#Ad"/><use xlink:href="#Ae"/><use xlink:href="#Af"/><use xlink:href="#Ag"/></g><path d="M171.288 643.463l-15.49 14.261-29.903 27.617-35.045 33.14-29.903 28.76L30 775.621" class="E"/></g><path d="M142.128 718.608l17.324 4.596-7.025 21.382-17.293-4.243z" class="G"/><use xlink:href="#Ah" class="H"/><g class="B C D F I"><use xlink:href="#Ai"/><use xlink:href="#Aj"/></g><use xlink:href="#Ak"/><use xlink:href="#Al"/><use xlink:href="#Am"/><use xlink:href="#An"/><use xlink:href="#Ao"/><use xlink:href="#Ap"/><path d="M205.408 728.778l18.797.263c-4.506 7.244-8.155 14.994-10.664 23.764l-17.077-1.12z" class="G"/></g><path d="M147.574 766.062s1.787 9.174 2.141 13.823c.277 3.639-.018 10.949-.018 10.949l16.174 1.128c5.266.465 10.526 1.011 15.77 1.685 4.761.612 9.502 1.372 14.24 2.141l16.633 2.897s-1.767-8.083-2.15-12.191c-.403-4.315-.15-13.001-.15-13.001s-10.745-.3-16.102-.708c-4.91-.374-9.805-.944-14.687-1.593-5.583-.742-11.13-1.731-16.69-2.627l-15.16-2.504z" class="G"/><path d="M265.626 703.036l14.872-6.226L330 746.362v17z"/><path d="M280.499 696.81l19.023-9.338 14.872 4.15L330 713.412v33.203z" class="J"/><path d="M94.374 861.643l-14.872 6.226L30 818.317v-17z"/><path d="M79.502 867.869l-19.023 9.338-14.872-4.15L30 851.267v-33.203z" class="J"/><path d="M90 557.362s6 15 13 25 17 20 17 20-10 10-17 20-13 25-13 25-6-15-13-25-17-20-17-20 10-10 17-20 13-25 13-25m-60 45s3 7.5 6.5 12.5 8.5 10 8.5 10-5 5-8.5 10-6.5 12.5-6.5 12.5-3-7.5-6.5-12.5-8.5-10-8.5-10 5-5 8.5-10 6.5-12.5 6.5-12.5m240 405s-6-15-13-25-17-20-17-20 10-10 17-20 13-25 13-25 6 15 13 25 17 20 17 20-10 10-17 20-13 25-13 25m60-45s-3-7.5-6.5-12.5-8.5-10-8.5-10 5-5 8.5-10 6.5-12.5 6.5-12.5 3 7.5 6.5 12.5 8.5 10 8.5 10-5 5-8.5 10-6.5 12.5-6.5 12.5" class="G"/></g><defs ><path id="B" d="M145.061 709.987l1.95-7.604s8.623 3.267 13.063 4.484c5.249 1.439 10.627 2.377 15.988 3.315 3.169.554 6.347 1.105 9.554 1.365 6.479.526 12.998.518 19.497.39 6.574-.129 13.142-.59 19.692-1.17a179.81 179.81 0 0 0 9.944-1.17c3.786-.549 11.309-1.95 11.309-1.95l-12.868 12.478-24.177.195-12.478 31.196 19.108 1.365-3.705 21.057s-14.706-.681-22.032-1.365c-6.782-.633-13.544-1.503-20.277-2.535-4.309-.661-8.571-1.605-12.868-2.34l-9.749-1.56s-2.681-6.969-4.289-10.334c-2.521-5.274-8.384-15.403-8.384-15.403l17.743 4.289 9.749-29.051z"/><path id="C" d="M121.023 689.985s8.463 5.516 12.974 7.763c4.212 2.098 13.081 5.303 13.081 5.303l-11.667 37.477s-6.506-9.228-10.253-13.435c-3.499-3.929-7.412-7.482-11.36-10.96-3.388-2.985-10.56-8.485-10.56-8.485z"/><path id="D" d="M123.39 756.792s4.468 13.495 5.303 20.506c.879 7.373.915 14.957-.354 22.274-1.127 6.5-3.58 12.758-6.364 18.738-2.499 5.369-5.352 10.695-9.192 15.203-3.307 3.883-7.517 6.934-11.667 9.899-5.246 3.749-16.617 9.899-16.617 9.899l-3.536-3.182s1.358-14.233 2.828-21.213c1.568-7.445 3.644-14.815 6.364-21.92 2.525-6.596 5.867-12.861 9.192-19.092 3.283-6.152 6.302-12.545 10.607-18.031 3.858-4.918 13.435-13.081 13.435-13.081z"/><path id="E" d="M117.026 763.509s4.251 12.794 4.596 19.445c.382 7.357-.834 14.828-2.828 21.92-1.956 6.958-4.833 13.783-8.839 19.799-3.05 4.58-7.084 8.501-11.314 12.021-4.85 4.036-15.91 10.253-15.91 10.253s1.498-14.674 2.828-21.92c1.006-5.482 2.061-10.998 3.889-16.263 2.3-6.625 5.591-12.877 8.839-19.092 2.593-4.962 5.208-9.956 8.485-14.496 3.03-4.198 10.253-11.667 10.253-11.667z"/><path id="F" d="M47.765 738l-5.803 12.993s.831 4.229 2.536 4.984c1.027.455 2.322-.127 3.25-.886 1.187-.971 2.5-4.31 2.5-4.31l4.96-10.437"/><path id="G" d="M166.208 578.144s-13.782 14.046-19.079 22.258c-5.544 8.594-9.703 18.111-12.991 27.794-2.852 8.398-4.356 17.221-5.74 25.982-.821 5.196-1.101 10.465-1.511 15.71-.393 5.029-.906 15.106-.906 15.106l45.015-41.692s-2.715-9.173-3.323-13.897c-.604-4.695-.252-9.465-.302-14.199-.067-6.344.204-12.692 0-19.033-.194-6.019-1.162-18.028-1.162-18.028z"/><path id="H" d="M299.778 686.731c-5.068 2.593-12.067 6.075-18.247 8.793-5.833 2.565-11.714 5.06-17.756 7.084-5.082 1.703-10.308 2.954-15.511 4.243-4.822 1.195-9.636 2.49-14.548 3.234-5.079.77-10.237.889-15.36 1.266-4.12.303-8.237.725-12.368.803-5.003.095-10.011-.118-15.006-.406-4.589-.264-9.195-.499-13.736-1.211-5.118-.802-10.146-2.121-15.157-3.437-4.316-1.134-8.584-2.453-12.826-3.837-4.653-1.518-9.352-2.948-13.841-4.897-5.264-2.286-11.739-6.174-15.275-7.942l45.291-42.05 4.104.807c2.589.566 2.447.947 7.73 1.858 2.496 1.037 4.165 3.571 6.645 4.644 3.023 1.308 6.376 2.038 9.67 2.031 6.289-.014 13.867-1.697 18.448-3.961 2.383-.002 4.486-.4 6.727-.616 3.11-.3 6.23-.523 9.326-.946 3.326-.455 6.689-.812 9.924-1.71 2.766-.768 5.391-1.985 8.026-3.125 2.891-1.251 8.528-4.071 8.528-4.071 3.982 6.639 9.038 15.503 17.592 23.605 4.277 4.051 9.276 9.738 13.551 12.983s11.071 5.267 14.071 6.858z"/><path id="I" d="M167.193 616.02s-6.095 9.734-8.584 14.895c-1.787 3.706-3.387 7.529-4.532 11.48a51.85 51.85 0 0 0-1.817 9.554c-.258 2.745.005 8.27.005 8.27l19.033-16.918s-2.644-8.573-3.323-12.991c-.725-4.715-.782-14.291-.782-14.291z"/><path id="J" d="M307 542.362c-1.672 9.899-2.343 19.967-2 30 .348 10.168 1.752 20.359 5 30a81.02 81.02 0 0 0 10 20c-3.329-.22-6.671-.22-10 0a75.96 75.96 0 0 0-13 2l-59-82z"/><path id="K" d="M273.592 567.832c.395.991.851 1.982 1.518 2.81.879 1.092 1.844 2.313 3.192 2.742 1.695.54 3.992.725 5.391-.45 1.363-1.145 1.79-3.434 1.347-5.106-.512-1.929-4.228-4.184-4.228-4.184s4.728-1.58 5.556-3.613c.777-1.908-.034-4.453-1.44-5.879-1.387-1.407-3.928-2.341-5.796-1.519-2.097.923-3.3 6.023-3.3 6.023s-.838-3.753-2.051-5.129c-1.077-1.222-2.627-2.417-4.29-2.38-1.475.032-3.177.957-3.867 2.279-1.085 2.08-.611 4.968.625 6.878s5.998 3.342 5.998 3.342-1.275-2.703.982-4.263c1.804-1.247 5.046.238 6.047 2.108.847 1.582.4 4.62-1.301 5.348-3.395 1.453-5.118-1.722-5.118-1.722s.389 1.846.735 2.714z"/><path id="L" d="M293.168 595.07c.353.896.76 1.793 1.354 2.541.785.987 1.645 2.091 2.848 2.48 1.512.489 3.562.656 4.81-.407 1.216-1.036 1.597-3.106 1.201-4.617-.457-1.745-3.772-3.784-3.772-3.784s3.707-1.827 4.291-3.6c.57-1.732.011-4.034-1.285-5.317-1.095-1.084-3.1-1.674-4.505-1.04-1.881.849-2.944 5.447-2.944 5.447s-.748-3.394-1.83-4.639c-.961-1.105-2.344-2.186-3.828-2.153-1.316.029-2.835.866-3.45 2.061-.968 1.881-.545 4.493.558 6.221s5.351 3.023 5.351 3.023-1.137-2.445.876-3.855c1.61-1.127 4.502.216 5.395 1.906.756 1.431.357 4.178-1.161 4.837-3.029 1.314-4.566-1.557-4.566-1.557s.347 1.669.656 2.454z"/><path id="M" d="M247.333 544.029s.588 11.228 5.5 16.833c4.722 5.389 10.278 5.611 15.167 5.167 0 0-2.3 13.14 2 18.5 4.664 5.814 20 10.333 20 10.333s-3.58 10.047 1.333 17c2.721 3.85 11.833 9.5 11.833 9.5"/><path id="N" d="M252.094 543a1.55 1.55 0 0 0-1.469 1.219s-1.823 8.333 4.063 14.219c.91.91 2.218 1.693 3.813 2.563s3.437 1.76 5.188 2.563l5.813 2.469c.003.707-.023 2.231.375 5.031.479 3.375 1.087 8.16 3.323 11.323 4.141 5.858 8.887 8.364 12.302 10.052 2.235 1.105 3.759 1.49 4.781 1.688.099.769.278 2.426.844 5.281.683 3.448 1.614 7.369 3.188 9.906 1.649 2.659 4.928 5.496 7.875 7.844a102.35 102.35 0 0 0 5.563 4.125 1.57 1.57 0 0 0 2.094-.406c.442-.655-3.085-3.152-3.74-3.594 0 0-2.356-3.363-2.875-6.802-2.852-2.272-4.934-2.322-6.552-4.396-1.584-2.031-1.956-3.948-2.615-7.271s-1-6.125-1-6.125a1.55 1.55 0 0 0-1.375-1.312s-5.701-1.434-7.844-3.292c-2.471-2.142-5.685-2.961-5.042-8.417-1.731-2.449-5.513-5.903-5.958-9.042s-.437-5.562-.437-5.562a1.54 1.54 0 0 0-.937-1.437s-3.108-1.243-6.531-2.812c-1.712-.785-3.8-1.049-5-2.469-1.467-1.736-1.551-6.124-1.958-6.531-4.656-4.656-4.417-6.969-4.417-6.969.207-.88-.565-1.849-1.469-1.844z"/><path id="O" d="M198.748 615.143s3.325 3.559 2.859 5.604c-.304 1.335-1.914 2.282-3.268 2.491-1.779.274-3.399-1.188-5.082-1.828-1.593-.605-3.127-2.431-4.747-1.901-.651.213-1.417 1.142-1.089 1.743.536.984 2.243-.014 3.361.053 3.394.204 7.438 3.118 10.144 1.061.871-.662.78-2.169.545-3.238-.345-1.571-2.723-3.985-2.723-3.985z"/><path id="P" d="M232.201 592.134s-9.208-6.282-14.498-7.65c-4.162-1.076-8.738-1.368-12.893-.266-1.671.444-4.451 2.664-4.451 2.664s4.075-1.311 6.189-1.539c4.27-.46 8.714-.676 12.877.375 4.62 1.166 12.776 6.414 12.776 6.414z"/><path id="Q" d="M168.271 586.613s5.567-2.98 8.54-2.654c3.705.406 9.588 5.526 9.588 5.526s-6.241-4.258-9.86-4.369c-3.038-.093-8.505 3.152-8.505 3.152z"/><path id="R" d="M203.94 635.333s-4.704-1.875-7.155-2.044c-1.839-.127-3.646.697-5.487.786-2.102.101-4.257-.854-6.305-.292-1.12.307-3.03 1.936-3.03 1.936s2.087-.46 3.137-.397c2.136.128 4.137 1.565 6.276 1.568 2.361.004 4.55-1.457 6.93-1.712 1.87-.201 5.635.156 5.635.156z"/><path id="S" d="M229.705 598.983c-5.852-.758-10.154-3.299-15.542-3.759-4.619-.395-13.942 1.036-13.942 1.036"/><path id="T" d="M167.453 599.056c5.387-2.542 4.233-3.35 9.621-3.81 4.619-.395 9.445 2.226 9.445 2.226"/><path id="U" d="M226.469 599.442c-5.267 1.2-10.769 5.081-16.728 5.378-4.415.22-9.151-2.814-9.54-6.897"/><path id="V" d="M215.381 596.758c.937 5.064-4.019 6.559-7.579 6.122-2.415-.297-4.654-3.26-3.492-6.154"/><path id="W" d="M207.132 599.605c-.098-.917.746-2.18 1.706-2.23.84-.044 1.724.978 1.706 1.784-.019.841-.984 1.762-1.861 1.784-.695.018-1.479-.675-1.551-1.338z"/><path id="X" d="M178.558 599.91c.027-.717-.847-1.645-1.742-1.626-.784.017-1.533.863-1.459 1.487.077.651 1.039 1.306 1.855 1.27.647-.028 1.327-.613 1.346-1.132z"/><path id="Y" d="M167.551 601.776c2.855 1.804 6.512 2.869 11.175 2.747 3.455-.09 6.968-2.538 7.029-5.496"/><path id="Z" d="M172.826 596.465c-1.112 4.899 1.096 7.536 5.143 7.453 1.78-.037 5.422-4.039 2.747-7.845"/><path id="a" d="M169 542.362s-2.295 21.97-2.5 33c-.161 8.672.745 17.331 1 26 .24 8.165-.411 16.383.5 24.5.645 5.749.935 11.814 3.5 17 2.252 4.553 5.707 8.784 10 11.5 3.657 2.313 8.179 3.274 12.5 3.5 4.389.23 8.832-.813 13-2.209 5.696-1.908 10.985-4.985 16-8.291 5.042-3.324 9.857-7.106 14-11.5 3.11-3.299 8-11 8-11"/><path id="b" d="M211.062 654.377c7.263-1.353 16.236-2.198 24.14-4.273 6.644-1.744 12.96-4.557 19.44-6.836"/><path id="c" d="M244.815 592.426c-.997 1.851-2.226 3.596-2.991 5.554-1.043 2.67-1.424 5.554-2.136 8.331"/><path id="d" d="M248.874 598.407c-1.282 2.564-2.91 4.981-3.845 7.691-1.162 3.366-1.424 6.978-2.136 10.468"/><path id="e" d="M252.506 603.748c-1.139 2.706-2.591 5.301-3.418 8.118-1.283 4.369-1.567 8.972-2.35 13.458"/><path id="f" d="M256.565 608.875c-1.353 3.489-3.28 6.807-4.059 10.468-1.202 5.649-.57 11.536-.855 17.304"/><path id="g" d="M260.837 614.429c-1.211 2.564-2.972 4.933-3.632 7.691-1.756 7.344-.427 15.096-.641 22.644"/><path id="h" d="M265.11 619.984c-1.282 3.204-3.34 7.223-3.845 11.109-.985 7.577 1.139 15.239 1.709 22.858"/><path id="i" d="M268.955 626.82c-1.068 3.418-2.237 8.906-2.35 13.458-.187 7.532 1.567 13.886 2.777 22.431"/><path id="j" d="M273.655 633.442c-.712 4.771-.911 8.975-.641 13.458.512 8.507 2.136 17.019 4.273 25.208"/><path id="k" d="M279.209 641.56c-.142 4.486-.633 9.584 0 14.313 1.078 8.047 4.13 15.381 6.409 23.499"/><path id="l" d="M286.045 651.387c-.285 3.276-.283 7.895.427 11.749 1.322 7.175 3.347 13.53 7.05 20.722"/><path id="m" d="M292.24 660.359c.498 3.703.386 7.541 1.495 11.109 1.684 5.413 5.483 10.468 7.691 15.167"/><path id="n" d="M89.797 720.324s-4.404-5.209-6.869-7.601c-2.594-2.518-5.292-4.98-8.299-7.077-2.317-1.616-4.682-3.491-7.441-4.194-1.628-.415-3.484-.563-5.04.071-1.144.466-2.419 1.345-2.687 2.55-.509 2.291 1.101 4.727 2.576 6.553 1.495 1.851 3.768 2.992 5.946 3.951 1.314.579 2.915.903 4.182 1.037.829 2.601-1.655 2.008-1.127 7.138l.362 3.568"/><path id="o" d="M63.467 706.048s.488 1.665 1.145 2.219c.6.506 1.483.778 2.29.786.791.008 2.26-.725 2.26-.725"/><path id="p" d="M58.888 703.287s-3.967-1.815-5.724-1.048c-1.849.807-2.855 3.104-2.862 4.98-.011 2.853 2.777 5.117 4.293 7.601.921 1.51 1.534 3.33 2.915 4.435 1.353 1.083 3.172 2.203 4.865 1.835 1.323-.288 2.386-1.615 2.862-2.883.424-1.131.583-2.726-.233-3.618-1.094-1.197-3.223-1.09-4.808-.747-.847.183-1.634.748-2.173 1.426-.554.697-.926 2.505-.926 2.505"/><path id="q" d="M49.444 708.529s-2.802.856-3.72 1.835c-.924.985-1.49 2.372-1.431 3.67.096 2.11 1.549 4.031 2.862 5.767 1.537 2.031 3.545 3.848 5.724 5.242 1.616 1.035 3.417 1.906 5.309 2.227 1.413.24 3.31.782 4.293-.262.838-.891.606-2.607 0-3.67-.457-.802-1.498-1.146-2.383-1.41-1.201-.358-2.707-.858-3.756-.172-.94.615-1.209 3.145-1.209 3.145"/><path id="r" d="M44.865 718.489s-3.484 2.211-3.72 3.932c-.16 1.163.906 2.239 1.717 3.145 2.069 2.311 4.948 3.938 7.727 5.504 1.708.963 3.432 2.337 5.438 2.359.939.01 2.108-.302 2.576-1.048.43-.686.088-1.646-.286-2.359-.701-1.336-1.816-3.195-3.434-3.145-1.014.031-1.604 1.243-2.003 2.097-.415.887-.286 2.883-.286 2.883"/><path id="s" d="M43.148 727.663s-1.256 2.045-1.145 3.145c.182 1.791 1.484 3.436 2.862 4.718 1.786 1.663 4.173 2.841 6.617 3.497 1.272.342 2.961.957 3.972.172 1.246-.967 1.326-3.129.572-4.456-.65-1.144-2.328-2.032-3.72-1.835-1.051.149-1.724 1.236-2.22 2.097-.5.867-.642 2.883-.642 2.883"/><path id="t" d="M54.737 740.634s.873 1.364 1.478 1.886c.568.491 1.27.815 1.957 1.119 1.364.604 4.258 1.383 4.258 1.383"/><path id="u" d="M50.841 703.782s-5.512-1.229-8-2.5c-1.896-.969-3.746-2.194-5.116-3.823-1.486-1.767-2.561-3.94-3.134-6.177-.642-2.504-.25-7.75-.25-7.75l5.5 3.75c2.093 1.16 4.519 1.658 6.573 2.884 1.532.914 2.945 2.045 4.22 3.293 1.021 1 2.031 2.065 2.707 3.323.661 1.23 1.039 2.619 1.25 4 .176 1.153 0 3.5 0 3.5z"/><path id="v" d="M39.591 692.282s2.02 2.617 3.263 3.689c1.878 1.621 4.192 2.657 6.237 4.061l4.5 3.25"/><path id="w" d="M62.341 706.532s3.313-3.896 5.5-5.116c2.535-1.414 5.506-2.042 8.396-2.311 2.699-.251 5.395.788 8.104.677 2.532-.104 7.5-1.25 7.5-1.25s-2.141 5.26-4 7.25c-1.978 2.117-4.546 3.736-7.203 4.547-3.585 1.095-7.409.638-11.047.203-1.63-.195-3.35-.401-4.75-1.25-1.059-.642-2.5-2.75-2.5-2.75z"/><path id="x" d="M63.5 706.782s4.335-1.827 6.591-2c2.639-.203 5.148 1.414 7.784 1.149 1.931-.194 5.582-1.975 5.582-1.975"/><path id="y" d="M53.687 678.084c-1.125 2.215-2.669 4.574-2.462 7.035.156 1.856 1.295 3.671 2.718 4.953 1.855 1.671 4.486 2.584 6.984 3.029 1.215.216 2.561.275 3.696-.209 2.253-.962 5.374-5.012 5.374-5.012s2.912 2.578 4.726 3.059c2.808.745 6.145.898 8.701-.483 1.788-.966 3.037-2.959 3.618-4.906.63-2.113.293-4.502-.368-6.606-.41-1.304-1.193-2.518-2.154-3.491-1.42-1.439-5.12-3.251-5.12-3.251s4.175-2.928 5.416-5.066c.846-1.457 1.338-3.242 1.168-4.919-.168-1.659-.971-3.283-2.108-4.535-1.312-1.445-3.104-2.809-5.1-3.059-2.49-.312-5.141.696-7.202 2.114-1.098.756-1.711 2.055-2.422 3.182-.935 1.483-2.405 4.679-2.405 4.679s-2.746-3.521-4.619-4.641c-2.375-1.419-5.198-2.728-7.953-2.371-1.734.225-3.445 1.279-4.404 2.712-1.174 1.754-1.236 4.151-1.012 6.25.212 1.986.946 4.013 2.183 5.581 1.208 1.532 4.803 3.343 4.803 3.343-.41 1.384-1.326 1.438-2.057 2.61z"/><path id="z" d="M66.487 668.561c-3.015.397-6.114 4.018-5.799 7.042.32 3.078 4.179 6.183 7.249 5.799 3.179-.397 6.283-4.497 5.799-7.664-.448-2.936-4.305-5.565-7.249-5.178z"/><path id="AA" d="M182.718 679.128l-2.476 13.174 13.06 1.216 1.167-12.924zm5.376 4.116l3.188 3.18-3.531 2.844-3.094-3.187z"/><path id="AB" d="M173.5 665.468l-3.811 12.147 12.957 2.654 2.503-12.821zm4.349 3.294l3.188 3.18-3.531 2.844-3.094-3.187z"/><path id="AC" d="M158.883 673.175l-5.142 11.948 13.073 4.406 3.733-12.732zm4.706 5.112l2.303 3.87-4.125 1.883-2.21-3.853z"/><path id="AD" d="M142.287 679.944l-4.705 10.754 11.891 5.535 5.102-11.339zm5.734 4.862l1.933 4.067-4.282 1.491-1.842-4.042z"/><path id="AE" d="M155.594 658.624l-5.127 4.224-3.073 5.868 11.787 4.727 4.526-10.409zm1.521 4.066l1.785 4.134-4.333 1.336-1.696-4.106z"/><path id="AF" d="M166.709 688.887l-3.459 11.331 14.344 3.12 2.777-11.641zm5.534 4.306l3.072 3.292-3.631 2.716-2.978-3.296z"/><path id="AG" d="M195.885 668.449l-1.705 12.723 13.191.141.698-12.745zm5.897 3.455l3.273 3.092-3.453 2.939-3.179-3.102z"/><path id="AH" d="M192.967 692.843l-1.566 11.938 14.334.724.555-12.244zm6.482 3.765l3.329 3.032-3.398 3.001-3.235-3.044z"/><path id="AI" d="M206.834 680.996l-.959 12.707 13.628-.391-.879-12.255zm5.877 3.184l3.419 2.93-3.306 3.103-3.326-2.945z"/><path id="AJ" d="M217.977 668.562l.713 12.787 12.564-2.244-1.534-11.489zm5.995 3.25l3.68 2.595-2.999 3.4-3.588-2.618z"/><path id="AK" d="M219.3 692.875l.736 11.25 13.57-2.218-1.345-11.347zm6.339 2.008l3.973 1.788-2.554 3.163-3.886-1.817z"/><path id="AL" d="M246.391 687.51l2.688 12.174 14.083-4.273-4.633-11.963zm7.161 1.289l3.973 1.788-2.554 3.163-3.886-1.817z"/><path id="AM" d="M270.946 679.755l3.492 10.792 12.226-4.536-5.395-10.237zm6.6.812l4.234 1.03-1.931 3.577-4.153-1.074z"/><path id="AN" d="M254.91 672.588l3.423 11.09 12.726-3.957-4.605-11.969zm5.781.792l4.237 1.017-1.92 3.583-4.156-1.061z"/><path id="AO" d="M240.048 664.651l2.776 11.688 12.289-3.99-4.193-11.665zm6.495 1.425l4.119 1.421-2.257 3.381-4.034-1.457z"/><path id="AP" d="M230.981 678.881l1.455 11.763 14.186-2.732-3.4-11.963zm6.339 2.521l3.973 1.788-2.554 3.163-3.886-1.817z"/><path id="AQ" d="M156.271 658.504c10.667 6.439 22.886 8.506 34.885 10.139 8.609 1.171 17.421.579 26.062-.324 8.569-.895 17.093-2.58 25.354-5.026 6.56-1.943 12.863-4.702 19.059-7.617"/><path id="AR" d="M289.914 683.606c-5.068 2.593-9.984 5.505-15.203 7.778-3.794 1.653-7.735 2.954-11.667 4.243-4.784 1.568-9.607 3.041-14.496 4.243-4.668 1.148-9.384 2.142-14.142 2.828-4.684.676-9.736 1.362-14.45 1.78-4.596.407-8.871.493-13.48.695-4.592.201-9.198.229-13.789 0-4.732-.236-9.457-.713-14.142-1.414-4.754-.711-9.486-1.631-14.142-2.828-4.548-1.169-9.009-2.672-13.435-4.243-4.538-1.61-9.038-3.341-13.435-5.303-3.61-1.611-7.071-3.536-10.607-5.303"/><path id="AS" d="M257.631 647.892s-12.748 5.861-19.444 7.877c-6.88 2.071-13.99 3.437-21.125 4.281-6.977.825-14.055 1.251-21.062.75-7.317-.524-14.576-1.989-21.656-3.906-4.218-1.142-12.312-4.5-12.312-4.5l-2.259 2.403s9.072 3.703 13.791 4.972c7.269 1.955 14.678 3.488 22.219 4.031 7.24.521 14.483.073 21.656-.781 7.305-.87 14.582-2.282 21.625-4.406 6.965-2.1 20.228-8.191 20.228-8.191z"/><path id="AT" d="M238.714 582.44s-.904 14.712.286 21.923c1.142 6.916 3.788 13.536 6.5 20 3.489 8.318 7.674 16.38 12.5 24 3.246 5.125 7.012 9.928 11 14.5 5.422 6.217 10.707 12.819 17.5 17.5 4.361 3.006 9.582 4.533 14.5 6.5 4.709 1.884 14.345 5.068 14.345 5.068"/><path id="AU" d="M103.406 707.956s13.852 10.113 19.594 16.406c5.329 5.84 13.5 19.5 13.5 19.5s-14.793 12.239-21 19.5c-7.179 8.398-13.32 17.742-18.5 27.5-4.382 8.256-8.005 16.992-10.5 26-1.712 6.179-2.17 12.642-3 19-.629 4.818-1.5 14.5-1.5 14.5l-52-50v-25.5"/><path id="AV" d="M37 778.362l68-62.5s8.806 7.602 12.579 12c3.573 4.165 9.421 13.5 9.421 13.5s-11.816 11.578-17 18c-6.475 8.022-12.448 16.514-17.5 25.5-3.583 6.373-6.581 13.101-9 20-1.993 5.684-3.552 11.552-4.5 17.5-.815 5.113-1 15.5-1 15.5l-40.5-40.5z"/><path id="AW" d="M91.297 734.342c-.059-1.627 1.15-4.748 1.15-4.748s2.866 1.493 4.078 2.54c1.26 1.089 3.229 3.814 3.229 3.814s1.294-2.916 2.239-4.183c1.065-1.427 3.797-3.759 3.797-3.759s1.452 3.168 1.626 4.871c.206 2.004-.71 6.003-.71 6.003s3.393-1.645 5.225-1.98c1.736-.318 5.295.002 5.295.002s-1.762 3.631-3.034 5.173c-1.297 1.572-4.591 4.04-4.591 4.04s2.357.827 3.284 1.621c1.071.918 2.434 3.462 2.434 3.462s-2.593 1.548-4.042 1.873c-1.268.285-3.9.033-3.9.033s.837 2.795.849 4.235c.014 1.579-.849 4.66-.849 4.66s-2.459-1.169-3.443-2.08c-1.092-1.012-2.593-3.638-2.593-3.638s-1.138 3.962-2.22 5.684c-1.241 1.974-4.769 5.117-4.769 5.117s-.708-4.837-.691-7.272c.014-2.011.654-5.998.654-5.998s-3.08 1.637-4.746 2.101c-1.743.485-5.383.685-5.383.685s.942-3.861 1.991-5.508c1.183-1.856 4.681-4.658 4.681-4.658s-2.949-.72-4.306-1.374c-1.658-.8-4.589-3.073-4.589-3.073s3.268-2.535 5.225-2.951c1.897-.403 5.791.553 5.791.553-1.404-1.18-1.615-3.409-1.682-5.244z"/><path id="AX" d="M99.031 739.081c-1.567.126-3.071 1.15-4.094 2.344s-1.744 2.835-1.687 4.406c.066 1.816 1.034 3.646 2.313 4.938 1.268 1.281 3.072 2.353 4.875 2.344 1.719-.009 3.444-1.032 4.625-2.281 1.189-1.259 2.121-3.052 2.031-4.781-.098-1.89-1.318-3.731-2.75-4.969s-3.426-2.151-5.312-2zm.156 2c1.384-.113 2.826.621 3.875 1.531 1.033.896 1.965 2.197 2.031 3.563.058 1.197-.645 2.411-1.469 3.281-.83.876-2.012 1.656-3.219 1.656-1.276 0-2.513-.838-3.406-1.75-.932-.952-1.7-2.262-1.75-3.594-.041-1.098.506-2.226 1.219-3.062.685-.804 1.666-1.539 2.719-1.625z"/><path id="AY" d="M57.183 780.741v-8.578s6.303-.701 8.26-2.859c1.829-2.017 1.906-7.942 1.906-7.942h12.072z"/><path id="AZ" d="M71.904 774.629c-1.274 1.29-.719 4.196.635 5.401 1.345 1.196 4.128 1.273 5.401 0 1.123-1.123 1.063-3.585 0-4.765-1.354-1.504-4.614-2.075-6.036-.635z"/><path id="Aa" d="M90.858 772.163l-16.837 20.967 9.213-1.906s-.241-5.351 1.271-7.307c1.565-2.024 6.989-3.177 6.989-3.177z"/><path id="Ab" d="M41.617 798.214c3.376.699 6.877.771 9.531 5.083.39-7.234 4.254-10.995 7.942-14.931 2.067 5.189 3.168 10.378 0 15.567 5.736-5.014 10.539-2.565 15.567-1.906-2.357 4.606-5.393 8.759-11.119 11.119 3.926 3.226 5.42 7.668 6.354 12.39-1.906-.445-3.812-.695-5.718-2.224l-20.014-20.014c-1.121-1.694-1.775-3.389-2.541-5.083z"/><path id="Ac" d="M55.438 804.862c-1.331-.398-2.859.145-4.094.781-1.205.621-2.333 1.62-2.937 2.813l1.6 1.088c.346-.682 1.355-1.642 2.275-2.119.86-.445 1.918-.879 2.844-.594 1.535.473 2.743 1.979 3.344 3.469.577 1.43.164 3.092 0 4.625-.11 1.028-.656 3.031-.656 3.031l1.912 1.412.713-4.131c.145-1.87.652-3.904-.094-5.625-.906-2.088-2.725-4.098-4.906-4.75z"/><path id="Ad" d="M137.24 744.842s7.784 15.014 9.848 23.138c1.6 6.298 2.03 12.91 1.853 19.405-.239 8.799-1.342 17.701-3.936 26.112-2.61 8.464-6.599 16.581-11.525 23.941-4.867 7.273-17.526 19.546-17.526 19.546"/><path id="Ae" d="M133.746 747.702s6.077 12.395 7.624 19.061c1.898 8.172 2.341 16.719 1.906 25.097-.38 7.321-1.716 14.649-3.927 21.638-2.219 7.014-5.362 13.796-9.266 20.032-4.125 6.59-9.138 12.689-14.764 18.055-2.958 2.821-9.848 7.307-9.848 7.307"/><path id="Af" d="M129.933 751.196s4.707 11.456 6.036 17.473c1.47 6.655 2.335 13.53 2.083 20.341-.289 7.807-1.792 15.613-4.103 23.076-2.177 7.031-5.057 13.968-9.098 20.12-4.322 6.579-10.001 12.244-15.884 17.473-4.766 4.236-15.567 11.119-15.567 11.119"/><path id="Ag" d="M126.174 753.588s3.607 9.074 4.712 13.811c1.287 5.518 2.073 11.19 2.197 16.855.148 6.736-.163 13.585-1.73 20.138-1.741 7.281-4.601 14.381-8.41 20.826-3.753 6.35-8.563 12.147-13.978 17.155-6.147 5.684-20.65 14.296-20.65 14.296"/><path id="Ah" d="M180.773 712.213l-6.641 2.029 3.874 3.505-5.349 2.398 3.505 3.874-6.456 2.582 3.32 4.243-6.456 2.029 4.058 4.427-5.903 2.029 2.582 4.612-4.622 3.32 21.593 3.505-2.582-4.796 4.243-2.214-2.398-5.534 6.272-2.398-2.767-5.903 5.903-1.107-3.874-4.98 5.903-1.476-3.136-4.243 5.903-2.398-4.9-2.407-12.071-1.097z"/><path id="Ai" d="M182.423 712.399c-2.371 5.564-5.334 11.432-7.696 17.277-2.558 6.327-4.865 13.41-7.005 19.237"/><path id="Aj" d="M191.616 713.478c-2.799 6.058-5.395 12.146-7.704 18.371-2.155 5.808-4.05 11.721-5.729 17.68"/><path id="Ak" d="M186.075 713.228c-.753.104-1.54 1.103-1.35 1.839s1.357 1.226 2.064.954c.566-.218.865-1.086.714-1.674s-.829-1.201-1.429-1.119z"/><path id="Al" d="M183.418 719.61c-.756.104-1.551 1.099-1.363 1.838.189.745 1.374 1.252 2.09.974.573-.222.867-1.107.71-1.701-.155-.586-.837-1.195-1.437-1.112z"/><path id="Am" d="M180.467 726.16c-.768.124-1.561 1.175-1.331 1.918s1.468 1.153 2.171.828c.536-.248.761-1.105.59-1.671-.172-.571-.841-1.171-1.43-1.076z"/><path id="An" d="M178.18 732.667c-.758.097-1.556 1.093-1.375 1.835s1.351 1.266 2.069 1c.577-.213.888-1.091.741-1.688s-.828-1.225-1.436-1.148z"/><path id="Ao" d="M175.869 739.103c-.786.139-1.62 1.225-1.351 1.976.27.757 1.614 1.075 2.313.679.498-.282.627-1.123.432-1.66s-.831-1.094-1.393-.994z"/><path id="Ap" d="M173.483 745.55c-.769.121-1.571 1.166-1.343 1.91s1.472 1.158 2.176.83c.535-.249.755-1.107.583-1.671s-.832-1.161-1.417-1.069z"/></defs></svg>