<svg xmlns="http://www.w3.org/2000/svg" xmlns:xlink="http://www.w3.org/1999/xlink" width="360" height="540" viewBox="0 0 95.25 142.875" xmlns:v="https://vecta.io/nano"><style><![CDATA[.B{stroke-linejoin:round}.C{stroke:#55a}.D{stroke-width:2}.E{fill:#ff5}.F{fill:none}.G{fill:#f55}.H{stroke-linecap:round}.I{fill:#55a}.J{fill:#fff}.K{stroke-width:2.054}]]></style><g transform="matrix(.264583 0 0 .264583 0 -135.562492)"><rect rx="29.944" y="512.862" x=".5" height="539" width="359" stroke="#000" class="J"/><path d="M144.438 707.831l-5.844 3-3.375 3.719-5.469-3.375-6-1.062-5.5 3.375-4.406 6.188 5.844 6.719 6.719 9.188 5.813 10.25 5.5 11.125 4.594 13.094 3 14.313 1.063.031 2.188 14.531 1.25 14.844c0-.707 1.781 13.094 1.781 13.094l4.406 8.656 7.438 6.344 8.656 1.063 6.531 5.844 7.438 4.594 7.938-.719 7.438-3 6.188 4.594 7.938 2.656 5.844-3 3.375-3.719 5.469 3.375 6 1.063 5.5-3.375 4.406-6.187-5.844-6.719-6.719-9.187-5.812-10.25-5.5-11.125-4.594-13.094-3-14.312-1.062-.031-2.187-14.531-1.25-14.844c0 .707-1.781-13.094-1.781-13.094L204 729.206l-7.437-6.344-8.656-1.062-6.531-5.844-7.437-4.594-7.937.719-7.437 3-6.187-4.594z"/><use xlink:href="#B" class="E"/><use xlink:href="#C"/><use xlink:href="#D" class="G"/><use xlink:href="#E"/><path d="M135 682.362h78l12.785-19.581-90.785-.419z" class="B C D E"/><g class="I"><use xlink:href="#F"/><g class="B C D"><use xlink:href="#G"/><use xlink:href="#H"/></g></g><use xlink:href="#I" class="B C D G"/><g class="F B C D"><use xlink:href="#J" class="H"/><use xlink:href="#K"/><g class="H"><use xlink:href="#L"/><use xlink:href="#M"/><use xlink:href="#N"/></g><use xlink:href="#O"/><use xlink:href="#P"/><use xlink:href="#Q"/><use xlink:href="#R"/><use xlink:href="#S" class="H"/></g><g class="I B C D"><use xlink:href="#T"/><use xlink:href="#U"/><use xlink:href="#V"/><use xlink:href="#W"/></g><g class="F H B C D"><use xlink:href="#X"/><use xlink:href="#Y"/><use xlink:href="#Z"/><use xlink:href="#a"/><use xlink:href="#b"/><use xlink:href="#c"/><use xlink:href="#d"/><use xlink:href="#e"/><use xlink:href="#f"/><use xlink:href="#g"/><use xlink:href="#h"/><path d="M126.999 629.793c-1.389 2.682-3.12 4.68-4.769 6.842m9.019-2.902c-1.617 2.537-2.893 4.047-4.251 5.806m10.472-4.666c-2.445 4.354-4.99 8.307-7.983 10.471"/><use xlink:href="#i"/><use xlink:href="#i" x="5.65" y="2.54"/><path d="M161.262 634.2c-.249 3.406-3.75 10.87-5.702 13.996"/><use xlink:href="#j"/><path d="M177.487 638.813c-.76 2.937-1.729 5.922-2.799 8.812l-3.214 7.568"/></g><use xlink:href="#k" class="B C D E"/><g class="G B C D"><use xlink:href="#l"/><use xlink:href="#m"/></g><path d="M306.949 617.286l-5.903-8.16 6.076-8.854 6.076 8.333z" class="B C D I"/><g class="F H B C D"><use xlink:href="#n"/><use xlink:href="#o"/><use xlink:href="#p"/><use xlink:href="#q"/><use xlink:href="#r"/><use xlink:href="#s"/><path d="M307.625 697.737c-.358 1.167-2.257 2.333-4.25 3.5"/></g><use xlink:href="#t" class="B C D I"/><path d="M135 667.362h87" class="B C D F H"/><use xlink:href="#u" class="J"/><use xlink:href="#v" class="E"/><path d="M245.305 664.232l3.945 2.38-43 66.75-2.5-4z" class="I"/><path d="M248.924 666.917l4.826 3.445-45 69.5-2.315-7.103z" class="E"/><path d="M254.25 670.362l74.75 47.25v8l-77.5-49.5z" class="G"/><path d="M250.935 675.444l-5.473 8.688L329 737.862v-12.2z"/><path d="M245.555 683.629l-2.842 4.788L329 743.612v-6z" class="G"/><g class="B C D E"><use xlink:href="#w"/><use xlink:href="#x"/></g><g class="F H B C D"><use xlink:href="#y"/><path d="M187.814 721.797L216 677.362h-81"/></g><use xlink:href="#z" class="B C D E"/><use xlink:href="#AA" class="B C D I"/><use xlink:href="#AB" class="B C D F H"/><g class="G"><use xlink:href="#AC"/><use xlink:href="#AD"/><use xlink:href="#AE"/></g><g class="E"><use xlink:href="#AF"/><use xlink:href="#AG"/><use xlink:href="#AH"/><use xlink:href="#AI"/></g><use xlink:href="#AJ" class="J"/><g class="B C D"><use xlink:href="#AK" class="E"/><use xlink:href="#AL" class="F"/><g class="E"><use xlink:href="#AM"/><use xlink:href="#AN"/><use xlink:href="#AO"/><use xlink:href="#AP"/><use xlink:href="#AQ"/></g><path d="M140 671.362v2h10v-2z" class="F"/><use xlink:href="#AK" x="12.279" y="7.402" class="E"/><use xlink:href="#AL" x="12.279" y="7.402" class="F"/><use xlink:href="#AK" x="22.279" y="16.402" class="E"/><use xlink:href="#AL" x="22.279" y="16.402" class="F"/><use xlink:href="#AK" x="30.029" y="27.402" class="E"/><use xlink:href="#AL" x="30.029" y="27.402" class="F"/><use xlink:href="#AK" x="36.029" y="40.027" class="E"/><use xlink:href="#AL" x="36.029" y="40.027" class="F"/><use xlink:href="#AK" x="40.404" y="53.152" class="E"/><use xlink:href="#AL" x="40.404" y="53.152" class="F"/><use xlink:href="#AR" class="E"/><use xlink:href="#AS" class="F"/><g class="H"><use xlink:href="#AT" class="E"/><use xlink:href="#AU" class="F"/></g></g><g transform="matrix(.729573 .638262 -.604893 .769819 525.39743 31.732465)" class="B C H K"><use xlink:href="#AV" class="E"/><use xlink:href="#AU" x="-39.904" y="-81.402" class="F"/></g><g transform="matrix(.903586 .248657 -.241681 .929667 228.4534 10.21084)" class="G"><use xlink:href="#AC" x="1.908" y="-0.848"/><use xlink:href="#AD" x="1.908" y="-0.848"/><use xlink:href="#AE" x="1.908" y="-0.848"/></g><g transform="matrix(.855544 .48413 -.517731 .800019 469.47872 74.531064)" class="G"><use xlink:href="#AC" x="1.908" y="-0.848"/><use xlink:href="#AD" x="1.908" y="-0.848"/><use xlink:href="#AE" x="1.908" y="-0.848"/></g><g transform="matrix(.706655 .651322 -.707558 .650491 662.32946 174.42791)" class="G"><use xlink:href="#AC" x="1.908" y="-0.848"/><use xlink:href="#AD" x="1.908" y="-0.848"/><use xlink:href="#AE" x="1.908" y="-0.848"/></g><g transform="matrix(.413839 .876795 -.91035 .398585 890.22172 341.26127)" class="G"><use xlink:href="#AC" x="1.908" y="-0.848"/><use xlink:href="#AD" x="1.908" y="-0.848"/><use xlink:href="#AE" x="1.908" y="-0.848"/></g><g transform="matrix(.139059 .952795 -.990284 .133794 1012.2835 553.25907)" class="G"><use xlink:href="#AC" x="1.908" y="-0.848"/><use xlink:href="#AD" x="1.908" y="-0.848"/><use xlink:href="#AE" x="1.908" y="-0.848"/></g><g class="J"><use xlink:href="#AW"/><use xlink:href="#AX"/><use xlink:href="#AY"/><use xlink:href="#AY" x="6.249" y="11.322"/><use xlink:href="#AZ"/><use xlink:href="#AZ" x="9.212" y="9.475"/><use xlink:href="#Aa"/><use xlink:href="#Ab"/><use xlink:href="#Ac"/><use xlink:href="#Ad"/><use xlink:href="#Ae"/><use xlink:href="#Af"/><use xlink:href="#Ag"/><use xlink:href="#Ah"/><use xlink:href="#Ai"/><use xlink:href="#Aj"/><use xlink:href="#Ak"/></g><g class="B C D"><g class="H"><path d="M329.448 744.639l-86.902-55.818m-7.464-31.466L330 718.016"/><path d="M254.462 669.802l-45.85 70.115"/></g><path d="M155 671.362v2h10v-2zm15 0v2h10v-2zm15 0v2h10v-2zm15 0v2h10v-2zm15 0v2h3.3l1.2-2z" class="F"/></g><path d="M86 667.362v22.375l-17.375-11.875z" class="G"/><path d="M94.75 663.487l.25 34.625-9.625-8.25.375-22.375z"/><g class="C D"><use xlink:href="#Al" class="B I"/><g class="E"><use xlink:href="#Am"/><use xlink:href="#An" class="B"/></g><g class="H B"><use xlink:href="#Ao" class="F"/><path d="M135 682.569v31.716" class="J"/><use xlink:href="#Ap" class="F"/></g></g><path d="M165.281 775.362l-.094 4.031c-3.839.481-5.931-1.063-9.094-2.969-.635 3.574-1.127 6.122-1.344 10.813 3.122-2.214 5.468-2.905 9.094-2.812l-.25 4.938h31.125l.094-4.031c3.839-.481 5.931 1.063 9.094 2.969.635-3.574 1.127-6.122 1.344-10.812-3.122 2.214-5.468 2.905-9.094 2.813l.25-4.937z" class="E"/><use xlink:href="#Aq" class="G"/><use xlink:href="#Ar"/><use xlink:href="#As" class="G"/><use xlink:href="#At"/><use xlink:href="#Au" class="G"/><use xlink:href="#Av"/><use xlink:href="#Aw" class="G"/><g transform="rotate(180 180 782.362)"><g class="G"><use xlink:href="#Aq" x="2"/><use xlink:href="#As" x="2"/><use xlink:href="#Au" x="2"/><use xlink:href="#Aw" x="2"/></g><use xlink:href="#B" class="E"/><use xlink:href="#C"/><use xlink:href="#D" class="G"/><use xlink:href="#E"/><path d="M135 682.362h78l12.785-19.581-90.785-.419z" class="B C D E"/><g class="I"><use xlink:href="#F"/><g class="B C D"><use xlink:href="#G"/><use xlink:href="#H"/></g></g><use xlink:href="#I" class="B C D G"/><g class="F B C D"><use xlink:href="#J" class="H"/><use xlink:href="#K"/><g class="H"><use xlink:href="#L"/><use xlink:href="#M"/><use xlink:href="#N"/></g><use xlink:href="#O"/><use xlink:href="#P"/><use xlink:href="#Q"/><use xlink:href="#R"/><use xlink:href="#S" class="H"/></g><g class="I B C D"><use xlink:href="#T"/><use xlink:href="#U"/><use xlink:href="#V"/><use xlink:href="#W"/></g><g class="F H B C D"><use xlink:href="#X"/><use xlink:href="#Y"/><use xlink:href="#Z"/><use xlink:href="#a"/><use xlink:href="#b"/><use xlink:href="#c"/><use xlink:href="#d"/><use xlink:href="#e"/><use xlink:href="#f"/><use xlink:href="#g"/><use xlink:href="#h"/><path d="M126.999 629.793c-1.389 2.682-3.12 4.68-4.769 6.842m9.019-2.902c-1.617 2.537-2.893 4.047-4.251 5.806m10.472-4.666c-2.445 4.354-4.99 8.307-7.983 10.471"/><use xlink:href="#i"/><use xlink:href="#i" x="5.65" y="2.54"/><path d="M161.262 634.2c-.249 3.406-3.75 10.87-5.702 13.996"/><use xlink:href="#j"/><path d="M177.487 638.813c-.76 2.937-1.729 5.922-2.799 8.812l-3.214 7.568"/></g><use xlink:href="#k" class="B C D E"/><g class="G B C D"><use xlink:href="#l"/><use xlink:href="#m"/></g><path d="M306.949 617.286l-5.903-8.16 6.076-8.854 6.076 8.333z" class="B C D I"/><g class="F H B C D"><use xlink:href="#n"/><use xlink:href="#o"/><use xlink:href="#p"/><use xlink:href="#q"/><use xlink:href="#r"/><use xlink:href="#s"/><path d="M307.625 697.737c-.358 1.167-2.257 2.333-4.25 3.5"/></g><use xlink:href="#t" class="B C D I"/><path d="M135 667.362h87" class="B C D F H"/><use xlink:href="#u" class="J"/><use xlink:href="#v" class="E"/><path d="M245.305 664.232l3.945 2.38-43 66.75-2.5-4z" class="I"/><path d="M248.924 666.917l4.826 3.445-45 69.5-2.315-7.103z" class="E"/><path d="M254.25 670.362l74.75 47.25v8l-77.5-49.5z" class="G"/><path d="M250.935 675.444l-5.473 8.688L329 737.862v-12.2z"/><path d="M245.555 683.629l-2.842 4.788L329 743.612v-6z" class="G"/><g class="B C D E"><use xlink:href="#w"/><use xlink:href="#x"/></g><g class="F H B C D"><use xlink:href="#y"/><path d="M187.814 721.797L216 677.362h-81"/></g><use xlink:href="#z" class="B C D E"/><use xlink:href="#AA" class="B C D I"/><use xlink:href="#AB" class="B C D F H"/><g class="G"><use xlink:href="#AC"/><use xlink:href="#AD"/><use xlink:href="#AE"/></g><g class="E"><use xlink:href="#AF"/><use xlink:href="#AG"/><use xlink:href="#AH"/><use xlink:href="#AI"/></g><use xlink:href="#AJ" class="J"/><g class="B C D"><use xlink:href="#AK" class="E"/><use xlink:href="#AL" class="F"/><g class="E"><use xlink:href="#AM"/><use xlink:href="#AN"/><use xlink:href="#AO"/><use xlink:href="#AP"/><use xlink:href="#AQ"/></g><path d="M140 671.362v2h10v-2z" class="F"/><use xlink:href="#AK" x="12.279" y="7.402" class="E"/><use xlink:href="#AL" x="12.279" y="7.402" class="F"/><use xlink:href="#AK" x="22.279" y="16.402" class="E"/><use xlink:href="#AL" x="22.279" y="16.402" class="F"/><use xlink:href="#AK" x="30.029" y="27.402" class="E"/><use xlink:href="#AL" x="30.029" y="27.402" class="F"/><use xlink:href="#AK" x="36.029" y="40.027" class="E"/><use xlink:href="#AL" x="36.029" y="40.027" class="F"/><use xlink:href="#AK" x="40.404" y="53.152" class="E"/><use xlink:href="#AL" x="40.404" y="53.152" class="F"/><use xlink:href="#AR" class="E"/><use xlink:href="#AS" class="F"/><g class="H"><use xlink:href="#AT" class="E"/><use xlink:href="#AU" class="F"/></g></g><g transform="matrix(.729573 .638262 -.604893 .769819 525.39743 31.732465)" class="B C H K"><use xlink:href="#AV" class="E"/><use xlink:href="#AU" x="-39.904" y="-81.402" class="F"/></g><g transform="matrix(.903586 .248657 -.241681 .929667 228.4534 10.21084)" class="G"><use xlink:href="#AC" x="1.908" y="-0.848"/><use xlink:href="#AD" x="1.908" y="-0.848"/><use xlink:href="#AE" x="1.908" y="-0.848"/></g><g transform="matrix(.855544 .48413 -.517731 .800019 469.47872 74.531064)" class="G"><use xlink:href="#AC" x="1.908" y="-0.848"/><use xlink:href="#AD" x="1.908" y="-0.848"/><use xlink:href="#AE" x="1.908" y="-0.848"/></g><g transform="matrix(.706655 .651322 -.707558 .650491 662.32946 174.42791)" class="G"><use xlink:href="#AC" x="1.908" y="-0.848"/><use xlink:href="#AD" x="1.908" y="-0.848"/><use xlink:href="#AE" x="1.908" y="-0.848"/></g><g transform="matrix(.413839 .876795 -.91035 .398585 890.22172 341.26127)" class="G"><use xlink:href="#AC" x="1.908" y="-0.848"/><use xlink:href="#AD" x="1.908" y="-0.848"/><use xlink:href="#AE" x="1.908" y="-0.848"/></g><g transform="matrix(.139059 .952795 -.990284 .133794 1012.2835 553.25907)" class="G"><use xlink:href="#AC" x="1.908" y="-0.848"/><use xlink:href="#AD" x="1.908" y="-0.848"/><use xlink:href="#AE" x="1.908" y="-0.848"/></g><g class="J"><use xlink:href="#AW"/><use xlink:href="#AX"/><use xlink:href="#AY"/><use xlink:href="#AY" x="6.249" y="11.322"/><use xlink:href="#AZ"/><use xlink:href="#AZ" x="9.212" y="9.475"/><use xlink:href="#Aa"/><use xlink:href="#Ab"/><use xlink:href="#Ac"/><use xlink:href="#Ad"/><use xlink:href="#Ae"/><use xlink:href="#Af"/><use xlink:href="#Ag"/><use xlink:href="#Ah"/><use xlink:href="#Ai"/><use xlink:href="#Aj"/><use xlink:href="#Ak"/></g><g class="B C D"><g class="H"><path d="M329.448 744.639l-86.902-55.818m-7.464-31.466L330 718.016"/><path d="M254.462 669.802l-45.85 70.115"/></g><path d="M155 671.362v2h10v-2zm15 0v2h10v-2zm15 0v2h10v-2zm15 0v2h10v-2zm15 0v2h3.3l1.2-2z" class="F"/></g><path d="M86 667.362v22.375l-17.375-11.875z" class="G"/><path d="M94.75 663.487l.25 34.625-9.625-8.25.375-22.375z"/><g class="C D"><use xlink:href="#Al" class="B I"/><g class="E"><use xlink:href="#Am"/><use xlink:href="#An" class="B"/></g><g class="H B"><use xlink:href="#Ao" class="F"/><path d="M135 682.569v31.716" class="J"/><use xlink:href="#Ap" class="F"/></g></g><use xlink:href="#Ar"/><use xlink:href="#At"/><use xlink:href="#Av"/></g><path d="M30 662.362v360h270m-240-480h270v360" class="C D F"/><path d="M30 542.362v5h5v35a5 5 0 1 1-10 0v-5h-5v5a10 10 0 1 0 20 0v-40zm300 480v-5h-5v-35a5 5 0 1 1 10 0v5h5v-5a10 10 0 1 0-20 0v40zm-235-409c1 4 5 14 12 14 9 0 13-8 13-18 0-7-2.579-11.612-5-17-2.578-5.737-6.379-10.857-10-16-4.645-6.598-15-19-15-19s-10.355 12.402-15 19c-3.621 5.143-7.422 10.263-10 16-2.421 5.388-5 10-5 17 0 10 4 18 13 18 7 0 11-10 12-14 1-1 1 0 1 1-1 8-1 10-2 16s-4 17-4 17c5-2 15-2 20 0 0 0-3-11-4-17s-1-8-2-16c0-1 0-2 1-1zm-62.5 17c.5 2 2.5 7 6 7 4.5 0 6.5-4 6.5-9 0-3.5-1.289-5.806-2.5-8.5-1.289-2.868-3.19-5.429-5-8-2.323-3.299-7.5-9.5-7.5-9.5s-5.177 6.201-7.5 9.5c-1.81 2.571-3.711 5.132-5 8-1.211 2.694-2.5 5-2.5 8.5 0 5 2 9 6.5 9 3.5 0 5.5-5 6-7 .5-.5.5 0 .5.5-.5 4-.5 5-1 8s-2 8.5-2 8.5c2.5-1 7.5-1 10 0 0 0-1.5-5.5-2-8.5s-.5-4-1-8c0-.5 0-1 .5-.5zm232.5 321c-1-4-5-14-12-14-9 0-13 8-13 18 0 7 2.579 11.612 5 17 2.578 5.737 6.379 10.857 10 16 4.645 6.598 15 19 15 19s10.355-12.402 15-19c3.621-5.143 7.422-10.263 10-16 2.421-5.388 5-10 5-17 0-10-4-18-13-18-7 0-11 10-12 14-1 1-1 0-1-1 1-8 1-10 2-16s4-17 4-17c-5 2-15 2-20 0 0 0 3 11 4 17s1 8 2 16c0 1 0 2-1 1zm62.5-17c-.5-2-2.5-7-6-7-4.5 0-6.5 4-6.5 9 0 3.5 1.289 5.806 2.5 8.5 1.289 2.868 3.19 5.429 5 8 2.323 3.299 7.5 9.5 7.5 9.5s5.177-6.201 7.5-9.5c1.81-2.571 3.711-5.132 5-8 1.211-2.694 2.5-5 2.5-8.5 0-5-2-9-6.5-9-3.5 0-5.5 5-6 7-.5.5-.5 0-.5-.5.5-4 .5-5 1-8s2-8.5 2-8.5c-2.5 1-7.5 1-10 0 0 0 1.5 5.5 2 8.5s.5 4 1 8c0 .5 0 1-.5.5z"/></g><defs ><path id="B" d="M144.78 582.49c-2.298 5.127-4.122 10.493-6.894 15.38-1.775 3.128-4.322 5.764-6.187 8.839-1.722 2.84-3.464 5.717-4.596 8.839-.843 2.325-1.642 4.775-1.591 7.248.048 2.315 1.179 4.478 1.768 6.718l-4.95 7.425c-2.534.295-5.332-.281-7.601.884-2.338 1.2-4.356 3.382-5.303 5.834-.956 2.473-.861 5.447 0 7.955.872 2.542 2.723 4.86 4.95 6.364 2.133 1.441 4.864 2.383 7.425 2.121 2.91-.297 5.442-2.305 7.778-4.066 2.73-2.057 4.714-4.95 7.071-7.425.707 2.003.918 4.26 2.121 6.01 1.184 1.722 2.836 3.281 4.773 4.066 1.696.687 3.668.613 5.48.354 2.048-.293 4.044-1.083 5.834-2.121.868-.503 1.35-1.617 2.298-1.945 4.514-1.56 9.546.354 14.319.53l6.364-16.263-1.768-3.536c2.298.354 4.593 1.392 6.894 1.061 2.061-.296 4.223-1.141 5.657-2.652 1.401-1.476 2.029-3.639 2.298-5.657a11.85 11.85 0 0 0-.707-5.834c-.806-2.038-2.109-4.024-3.889-5.303-1.105-.794-2.593-.825-3.889-1.237.648-2.475 1.121-5.003 1.945-7.425.927-2.725 2.155-5.341 3.359-7.955.937-2.035 2.088-3.967 3.005-6.01 1.3-2.895 2.592-5.809 3.536-8.839.791-2.539 1.206-5.179 1.768-7.778l1.414-6.894c-3.889.118-7.791.014-11.667.354-3.263.286-6.484.927-9.723 1.414-3.42.514-6.863.906-10.253 1.591-3.096.626-6.202 1.281-9.192 2.298-2.373.808-4.638 1.912-6.894 3.005-1.684.817-3.3 1.768-4.95 2.652z"/><path id="C" d="M125.043 658.718s3.662-1.456 5.228-2.614c1.693-1.252 4.357-4.575 4.357-4.575l.218 61.868s-3.787-2.351-5.882-3.05c-1.257-.419-3.921-.654-3.921-.654z"/><path id="D" d="M134.192 683.334l78.206-.436-25.27 39.648s-8.972-8.855-14.813-10.239c-4.567-1.081-13.942 1.961-13.942 1.961s-8.446-5.995-13.288-5.882c-4.058.095-10.892 5.446-10.892 5.446"/><path id="E" d="M227 661.612l-39 60.5s4.07-.28 6 .25c1.187.326 3.25 1.75 3.25 1.75l41.75-64.75-3.5-2-3.25 2.25z"/><path id="F" d="M218.375 801.612l10.75 6.875 7.375 6.5 6.5 8.25 5 8.875 3.375 8.5.625 6.875-.5 6.625-8.75-10.75-5.5-6.75-5.25-7.625-4.375-7-4.75-8.125-3.5-7.5z"/><path id="G" d="M213.868 743.664c7 1.333 11.439 2.579 16.882 4.698 9.238 3.597 18.256 7.994 26.5 13.5 6.833 4.563 13.121 10.015 18.75 16 6.931 7.369 13.316 15.418 18.25 24.25 3.811 6.822 6.525 14.281 8.56 21.826 2.101 7.791 3.169 15.872 3.69 23.924.452 6.987.231 14.036-.5 21-.425 4.047-1.46 8.008-2.25 12l-2.5 12s9.299 4.009 14.12 5.528c4.785 1.507 14.63 3.536 14.63 3.536V743.71l-82.513-51.972z"/><path id="H" d="M296.908 881.404c1.298-6.382 2.78-12.787 3.092-19.292.444-9.258-.076-18.634-1.75-27.75-1.323-7.207-3.565-14.286-6.5-21-3.469-7.937-7.845-15.539-13-22.5-4.07-5.496-8.866-10.481-14-15-6.319-5.562-13.258-10.459-20.5-14.75-3.656-2.166-7.546-3.943-11.5-5.5-4.145-1.632-8.443-2.863-12.75-4-3.387-.894-7.022-1.837-10.272-2.212l2.064 18.665 11.448 3.604 17.808 7.42 19.292 17.384 11.872 16.96 6.784 17.384 3.18 20.776-1.272 13.78-2.756 13.992c6.784 5.304 11.024 7.606 16.536 11.024 0 0 1.607-5.963 2.223-8.987z"/><path id="I" d="M120 542.362l25 40s6.475-3.791 10-5c8.038-2.758 16.543-4.163 25-5 9.951-.985 20.034-.825 30 0 10.103.836 30 5 30 5l25-35z"/><path id="J" d="M239.478 577.394s3.14 9.29 2.353 13.935c-.449 2.652-3.22 4.466-3.889 7.071-.264 1.027-.276 2.158 0 3.182 1.77 6.578 8.078 11.222 10.253 17.678.303.9.701 1.944.354 2.828-1.405 3.582-7.214 3.937-8.839 7.425-1.045 2.243.783 5.077 0 7.425-.373 1.118-1.861 1.679-2.121 2.828-.399 1.758 1.276 3.513 1.061 5.303-.233 1.937-1.989 3.414-2.475 5.303-.441 1.716.543 3.775-.354 5.303-1.422 2.425-4.451 3.578-7.071 4.596-3.341 1.299-7.022 1.761-10.607 1.768-5.134.01-10.363-.761-15.203-2.475-4.478-1.585-8.453-4.389-12.374-7.071-2.482-1.697-4.959-3.477-7.01-5.675-3.006-3.222-7.584-10.827-7.584-10.827"/><path id="K" d="M234.53 588.12s-4.335-3.63-6.994-4.196c-3.777-.804-7.811.26-11.501 1.399-3.122.964-5.825 2.963-8.704 4.507-1.41.757-4.196 2.331-4.196 2.331s5.201-2.871 7.926-4.041c2.575-1.105 5.165-2.325 7.926-2.798 2.655-.455 5.431-.481 8.082 0 2.613.474 7.46 2.798 7.46 2.798z"/><path id="L" d="M227.07 591.695s-3.418-.819-5.129-.622c-2.247.26-4.379 1.262-6.372 2.331-1.927 1.034-3.648 2.435-5.284 3.886-1.755 1.556-4.818 5.129-4.818 5.129"/><path id="M" d="M230.489 593.56s-1.999 1.22-3.108 1.554c-2.049.617-4.278.339-6.372.777-1.588.333-3.158.791-4.663 1.399-1.676.677-3.236 1.612-4.818 2.487l-3.419 2.02c-.799.382-2.487.933-2.487.933"/><path id="N" d="M228.624 603.507l-3.886 4.663c-.917.95-1.904 1.84-2.953 2.642-.981.751-3.108 2.02-3.108 2.02"/><path id="O" d="M228.469 618.117s-1.968 2.921-1.71 4.507c.237 1.453 1.467 2.789 2.798 3.419 1.311.621 2.936.316 4.352 0 .95-.212 1.8-.755 2.642-1.243 1.094-.634 1.888-1.842 3.108-2.176.652-.178 1.85-.498 2.02.155.236.904-1.498 1.133-2.331 1.554-1.082.548-2.25.921-3.419 1.243-1.322.365-2.67.802-4.041.777-1.382-.025-3.049.03-4.041-.933-.731-.709-.804-1.936-.777-2.953.041-1.523 1.399-4.352 1.399-4.352z"/><path id="P" d="M214.481 630.239s-2.18-2.213-3.575-2.176c-1.192.032-2.253 1.055-2.953 2.02-.76 1.049-1.23 2.443-1.088 3.73.129 1.175.793 2.362 1.71 3.108 1.639 1.335 3.957 2.063 6.061 1.865 2.1-.197 3.775-1.888 5.595-2.953l4.818-3.108c1.409-.803 2.749-1.927 4.352-2.176 1.658-.258 3.692-.306 4.973.777.375.317.782 1.022.466 1.399-.909 1.083-2.784-.691-4.196-.622-1.707.084-3.39.602-4.973 1.243-2.108.854-3.842 2.463-5.906 3.419-2.096.971-4.223 2.501-6.528 2.331-1.757-.129-3.465-1.195-4.663-2.487-.962-1.038-1.732-2.471-1.71-3.886.021-1.321.67-2.76 1.71-3.575a4.52 4.52 0 0 1 3.73-.777c.925.238 2.176 1.865 2.176 1.865z"/><path id="Q" d="M236.55 637.233l-4.507.777c-2.226.373-4.59.244-6.683 1.088-.76.306-2.02 1.399-2.02 1.399s2.524-1.198 3.886-1.399c1.95-.288 3.935.325 5.906.311 1.558-.011 4.663-.311 4.663-.311l1.865-2.487-3.108.622z"/><path id="R" d="M223.961 596.047c1.158 0 2.402.636 3.108 1.554.935 1.216 1.508 3.085.933 4.507-.517 1.279-2.043 2.238-3.419 2.331-1.734.117-3.691-.891-4.663-2.331-.727-1.077-.949-2.754-.311-3.886.797-1.413 2.73-2.176 4.352-2.176z"/><path id="S" d="M208.419 601.953s3.665-.219 5.44.155c1.478.311 2.73 1.346 4.196 1.71 2.021.502 6.217.622 6.217.622"/><path id="T" d="M224.738 598.223c-.955-.025-1.845 1.221-1.865 2.176-.02.922.787 2.191 1.71 2.176.964-.016 1.721-1.368 1.71-2.331-.01-.85-.705-1.998-1.554-2.02z"/><path id="U" d="M134.445 542.362l14.505 28.532c6.488-2.252 12.085-3.339 20.356-4.266l-3.9-24.266h-5.729l5.119 20.731c-4.75.332-9.186 1.293-13.286 2.925l-10.483-23.657z"/><path id="V" d="M174.303 542.362l3.047 23.291c10.076-.936 18.153-1.485 28.229-.488l5.485-22.803h-6.46l-3.047 17.806c-7.916-.473-12.561.009-19.209.488l-2.225-18.294z"/><path id="W" d="M220.866 542.362l-7.313 23.047c7.355.612 14.059 1.018 22.062 2.925l15.724-25.973H245l-12.067 21.341c-4.469-1.219-8.329-1.575-12.799-2.194l6.216-19.147z"/><path id="X" d="M144.971 582.629s-4.623 10.621-7.412 15.687c-3.053 5.543-7.918 10.117-10.17 16.031-1.264 3.319-2.35 7.019-1.724 10.515.512 2.862 2.063 5.738 4.309 7.585 1.825 1.5 4.361 2.233 6.723 2.241 2.598.009 5.614-.538 7.412-2.413 1.916-1.998 2.419-5.235 2.24-7.998-.18-2.78-1.191-5.839-3.274-7.688-1.074-.954-2.701-1.255-4.137-1.207-1.835.062-3.893.579-5.171 1.896-1.519 1.565-2.208 4.03-2.069 6.206.118 1.847.897 3.938 2.413 4.999 1.42.993 3.597 1.24 5.171.517 1.275-.585 2.235-2.056 2.412-3.448.158-1.241-.443-2.615-1.31-3.516-.578-.601-2.308-.966-2.308-.966"/><path id="Y" d="M164.011 575.389s-4.428 14.136-7.412 20.898c-2.217 5.024-6.002 9.33-7.757 14.534-1.496 4.435-3.181 9.275-2.241 13.86.561 2.734 2.37 5.351 4.482 7.071 1.886 1.536 4.361 2.41 6.723 2.419 2.598.01 5.536-.778 7.412-2.605 2.192-2.134 3.445-5.519 3.275-8.573-.174-3.13-1.911-6.34-4.309-8.36-1.106-.931-2.701-1.355-4.137-1.303-1.835.067-3.893.625-5.171 2.047-1.519 1.689-2.208 4.35-2.069 6.699.118 1.993.918 4.113 2.413 5.396 1.357 1.164 3.453 1.912 5.171 1.42 1.548-.443 2.923-1.978 3.275-3.549.378-1.685-.444-4.147-1.551-4.942-2.973-2.136-4.309.793-4.309.793"/><path id="Z" d="M183.63 572.458s-1.652 12.008-6.378 22.794c-2.257 5.15-5.443 9.963-6.895 15.395-1.319 4.933-2.512 10.224-1.551 15.239.585 3.055 1.967 6.231 4.309 8.278 1.793 1.567 4.344 2.296 6.723 2.419 2.66.137 5.784-.127 7.757-1.916 2.426-2.2 3.55-5.999 3.275-9.263-.268-3.178-2.182-6.345-4.654-8.36-1.121-.913-2.692-1.354-4.137-1.303-1.853.067-3.912.686-5.171 2.047-1.587 1.715-2.21 4.366-2.069 6.699.119 1.967.918 4.113 2.413 5.396 1.357 1.164 3.453 1.912 5.171 1.42 1.548-.443 2.923-1.978 3.275-3.549.378-1.685-.444-4.147-1.551-4.942-2.973-2.136-4.309.793-4.309.793"/><path id="a" d="M151.177 579.871c-1.149 3.62-1.933 7.377-3.448 10.86-1.867 4.294-4.436 8.254-6.895 12.239-1.674 2.712-3.825 5.127-5.344 7.929-1.546 2.852-2.816 6.033-3.792 8.964"/><path id="b" d="M157.555 577.716c-.968 3.387-1.628 6.902-2.903 10.161-1.573 4.018-3.697 7.728-5.806 11.451-1.604 2.83-3.796 5.324-5.199 8.259-1.171 2.45-1.818 4.966-2.64 7.708"/><path id="c" d="M169.966 573.837c-.968 3.884-1.628 7.915-2.903 11.652-1.573 4.607-3.697 8.862-5.806 13.132-1.604 3.245-3.796 6.105-5.199 9.471-1.171 2.81-1.818 5.695-2.64 8.84"/><path id="d" d="M177.378 573.32c-.907 3.558-1.526 7.25-2.722 10.673-1.474 4.22-3.533 8.064-5.444 12.029-1.438 2.985-3.216 5.806-4.529 8.848-1.111 2.574-2.049 5.045-2.82 7.925"/><path id="e" d="M190.134 571.941c-.877 4.459-1.344 9.018-2.631 13.377-1.427 4.834-3.805 9.335-5.607 14.041-1.512 3.948-3.151 7.858-4.366 11.907-.999 3.329-1.647 6.538-2.393 10.148"/><path id="f" d="M197.202 572.2c-.827 3.837-1.39 7.82-2.48 11.512-1.343 4.552-3.157 8.756-4.96 12.974-1.37 3.207-3.242 6.032-4.44 9.357-1 2.776-1.552 5.627-2.255 8.734"/><path id="g" d="M144.268 632.179c-2.333 5.25-4.036 10.781-7.311 15.439-2.637 3.75-5.72 7.481-9.707 9.744-2.69 1.526-5.951 2.764-9 2.25-2.553-.43-4.929-2.192-6.5-4.25-1.647-2.158-2.513-5.036-2.5-7.75.013-2.635.806-5.481 2.5-7.5 1.462-1.743 3.795-2.691 6-3.25 1.858-.471 3.999-.78 5.75 0 2.048.912 3.539 2.974 4.5 5 .939 1.981 1.682 4.417 1 6.5-.697 2.128-2.681 3.893-4.75 4.75-1.771.733-4.04.866-5.75 0-1.383-.701-2.268-2.277-2.75-3.75-.415-1.267-.599-2.809 0-4 .606-1.206 1.907-2.281 3.25-2.415 1.1-.109 2.401.485 3 1.415.545.846.27 2.392.043 3.018"/><path id="h" d="M168.923 628.72c-2.032 4.555-2.921 10.63-5.37 15.53-2.258 4.518-4.364 9.63-8.48 12.558-2.61 1.857-6.125 2.977-9.288 2.47-2.223-.356-4.293-1.902-5.66-3.687-1.434-1.872-2.212-4.368-2.177-6.724.032-2.156.821-4.415 2.177-6.092 1.288-1.593 3.255-2.674 5.225-3.234 1.605-.457 3.482-.676 5.007 0 1.784.791 3.086 2.576 3.919 4.338.738 1.56 1.25 3.464.767 5.121-.573 1.967-2.168 3.79-4.033 4.639-1.519.692-3.518.752-5.007 0-1.204-.608-2.047-1.952-2.395-3.253-.318-1.192-.24-2.632.415-3.678.506-.807 1.471-1.403 2.415-1.528 1.083-.143 2.481.093 3.131.971.615.831.56 2.794.01 3.102"/><path id="i" d="M149.91 631.66c-.145 2.371-1.462 4.68-2.177 7.361"/><path id="j" d="M172.718 633.94c-.691 3.974-2.151 7.63-3.629 11.3-1.322 3.283-2.903 6.151-4.665 9.538"/><path id="k" d="M310.773 595.218s5.469-6.671 7.071-10.607c1.447-3.554 2.849-7.546 2.121-11.314-.582-3.017-2.471-5.962-4.95-7.778-2.952-2.163-6.99-3.386-10.607-2.828-3.037.469-5.849 2.557-7.778 4.95-1.498 1.858-2.243 4.342-2.475 6.718-.289 2.97.367 6.045 1.414 8.839.78 2.082 2.267 3.831 3.536 5.657 1.487 2.141 4.77 6.197 4.77 6.197l-9.893 13.609 9.739 13.95s-4.713 5.494-6.383 8.672c-1.509 2.87-2.862 5.966-3.182 9.192-.258 2.604-.064 5.416 1.061 7.778 1.111 2.334 3.162 4.21 5.303 5.657 1.886 1.274 4.089 2.389 6.364 2.475 2.831.107 5.869-.769 8.132-2.475 1.906-1.436 3.119-3.752 3.889-6.01.914-2.682.974-5.652.701-8.473-.272-2.806-1.055-5.609-2.301-8.138-1.657-3.362-6.718-9.019-6.718-9.019l9.732-13.261z"/><path id="l" d="M307.47 590.202s-4.778-5.677-6.25-9.028c-.74-1.684-1.45-3.558-1.215-5.382.225-1.746 1.177-3.452 2.431-4.688 1.29-1.272 3.05-2.404 4.861-2.431 1.786-.026 3.629.963 4.861 2.257 1.379 1.447 2.109 3.562 2.257 5.556.145 1.96-.583 3.937-1.389 5.729-1.331 2.957-3.153 5.365-5.556 7.986z"/><path id="m" d="M307.397 627.355s-4.757 6.291-6.25 9.896c-.704 1.699-1.45 3.558-1.215 5.382.225 1.746 1.177 3.452 2.431 4.688 1.29 1.272 3.05 2.404 4.861 2.431 1.786.026 3.629-.963 4.861-2.257 1.379-1.447 2.109-3.562 2.257-5.556.145-1.96-.625-3.919-1.389-5.729-1.354-3.21-3.153-6.233-5.556-8.854z"/><path id="n" d="M274.875 681.987c2.211-4.831 3.847-10.192 7.445-14.107 3.396-3.695 7.946-6.446 12.675-8.124 3.811-1.353 8.013-1.344 12.057-1.356 1.716-.005 4.021-.774 5.12.545 1.217 1.46.57 4.069-.43 5.686-1.618 2.619-5 3.783-7.926 4.742-2.487.815-5.198.66-7.817.741.615 4.236.796 7.787.055 11.573-.471 2.407-2.161 4.877-2.805 6.802"/><path id="o" d="M302.125 659.237c0 1.292-.679 2.776 0 3.875.539.872 1.76 1.109 2.75 1.375 1.29.347 2.667.334 4 .25.889-.056 1.75-.333 2.625-.5"/><path id="p" d="M313 664.737c1.083.292 2.43.109 3.25.875 1.03.962 1.556 2.602 1.375 4-.135 1.043-1.004 1.884-1.75 2.625-1.238 1.23-2.79 2.145-4.375 2.875-1.773.816-3.689 1.378-5.625 1.625-1.53.196-3.125.234-4.625-.125-.852-.204-1.808-.457-2.375-1.125-.392-.463-.556-1.146-.5-1.75.069-.742.468-1.478 1-2 .758-.745 1.82-1.252 2.875-1.375.974-.114 2.088.04 2.875.625.689.512 1.035 1.419 1.25 2.25.157.605.118 1.261 0 1.875-.085.441-.333.833-.5 1.25"/><path id="q" d="M316.375 672.362c.958.792 2.319 1.263 2.875 2.375.392.783.45 1.811.125 2.625-.513 1.286-1.859 2.09-3 2.875-1.367.94-2.914 1.64-4.5 2.125-1.572.481-3.237.604-4.875.75-1.619.145-3.263.336-4.875.125-.732-.096-1.538-.177-2.125-.625-.505-.386-.927-.993-1-1.625-.076-.654.246-1.336.625-1.875.58-.826 1.402-1.609 2.375-1.875.893-.244 1.876.072 2.75.375.776.269 1.671.565 2.125 1.25.349.525.304 1.247.25 1.875-.059.696-.417 1.333-.625 2"/><path id="r" d="M316.5 680.487c.625.958 1.62 1.76 1.875 2.875.29 1.27.221 2.79-.5 3.875-.827 1.244-2.462 1.765-3.875 2.25-1.75.601-3.654.625-5.5.75-1.58.107-3.206.349-4.75 0-.945-.214-1.917-.588-2.625-1.25-.559-.522-1.087-1.236-1.125-2-.036-.727.359-1.487.875-2 .676-.671 1.685-.974 2.625-1.125.95-.152 2.021-.192 2.875.25.63.326 1.096.972 1.375 1.625.313.732.411 1.595.25 2.375-.155.749-.75 1.333-1.125 2"/><path id="s" d="M314.625 689.362c.792.375 2.16.691 2.5 1.625.343.941-.342 2.027-.875 2.875-.753 1.198-1.825 2.314-3.125 2.875-1.074.464-2.33.268-3.5.25-1.633-.025-3.296-.08-4.875-.5-1.19-.317-2.627-.522-3.375-1.5-.333-.435-.388-1.095-.25-1.625.239-.92.935-1.761 1.75-2.25 1.052-.631 2.496-1.103 3.625-.625 1.022.433 1.581 1.68 1.875 2.75a3.13 3.13 0 0 1-.125 2c-.265.624-.917 1-1.375 1.5"/><path id="t" d="M135 662.362h81.364s-9.907-.706-14.485-2.444c-2.079-.789-5.657-3.536-5.657-3.536l-39.244-1.061s-3.598 2.519-5.657 3.182c-2.032.654-4.276 1.149-6.364.707-1.602-.339-3.033-1.372-4.243-2.475-.749-.683-1.321-1.565-1.768-2.475-.542-1.105-.882-2.318-1.061-3.536-.171-1.166 0-3.536 0-3.536L135 652.362z"/><path id="u" d="M167.384 693.264c1.406-1.406-1.406-4.558 0-5.964s4.558-1.406 5.964 0-1.406 4.558 0 5.964 4.558-1.406 5.964 0 1.406 4.558 0 5.964-4.558-1.406-5.964 0 1.406 4.558 0 5.964-4.558 1.406-5.964 0 1.406-4.558 0-5.964-4.558 1.406-5.964 0-1.406-4.558 0-5.964 4.558 1.406 5.964 0z"/><path id="v" d="M238.674 659.547l6.826 4.815-42 65.25s-1.31-2.176-2.25-3c-1.15-1.009-4-2.25-4-2.25z"/><path id="w" d="M330 784.362s-16.209-12.663-22.75-20.5c-5.586-6.694-10.379-14.21-13.75-22.25-3.096-7.385-5.723-23.332-5.723-23.332l-7.75-4.889s3.659 21.708 7.973 31.72c3.988 9.257 9.701 17.838 16.25 25.5 7.442 8.706 25.75 22.75 25.75 22.75z"/><path id="x" d="M263.25 703.362s1.638 25.346 5 37.5c2.468 8.922 6.124 17.631 11 25.5 6.728 10.857 15.18 20.792 24.75 29.25 7.759 6.857 26 17 26 17v6.7s-21.109-12.055-30.25-19.95c-8.71-7.523-16.681-16.131-23-25.75-6.101-9.286-10.767-19.62-14-30.25-2.48-8.153-4-25.25-4-25.25l-20.625 32.75-6.5-2.625 30.125-45.875z"/><path id="y" d="M330 902.362c-9.969-2.235-19.678-5.057-29-9-1.923-.813-3.7-1.941-5.5-3-5.779-3.399-11.701-6.642-17-10.75-1.537-1.192-2.818-2.683-4.25-4l-13.5-12.125c-3.091-2.95-6.11-5.979-9-9.125-3.079-3.351-6.044-6.812-8.875-10.375-4.412-5.552-8.883-11.101-12.625-17.125-4.602-7.408-9.071-15.035-12-23.25-1.487-4.172-1.89-8.655-2.75-13l-3-16.25a178.89 178.89 0 0 1-1-6.75c-.794-6.235-1.342-12.499-2-18.75-.338-3.208-.317-6.473-1-9.625-.465-2.148-1.095-4.295-2.094-6.253a18.88 18.88 0 0 0-3.151-4.412c-1.754-1.841-3.762-3.497-5.987-4.727-1.512-.835-3.193-1.382-4.884-1.733-1.495-.311-3.046-.21-4.569-.315 0 0-9.121-8.99-15.063-10.144-4.809-.934-14.378 3.05-14.378 3.05s-8.98-6.975-14.16-6.535c-3.717.316-9.225 6.337-9.225 6.337s-7.439-5.221-11.47-4.461c-4.363.823-9.803 9.017-9.803 9.017"/><path id="z" d="M278.625 879.612c1-6.833 2.843-13.426 3.125-20.25.341-8.264.121-16.694-1.75-24.75-1.954-8.411-5.492-16.488-9.75-24-4.372-7.714-9.597-15.117-16-21.25-5.843-5.596-12.788-10.085-20-13.75-7.166-3.642-15.667-5.333-22.75-8 2.167 13.088 4.333 23.221 6.5 33.75 5 3.333 11.525 7.184 16.5 11.75 3.223 2.958 6.088 6.35 8.5 10 2.877 4.353 5.205 9.101 7 14 1.091 2.98 1.971 6.089 2.25 9.25.235 2.662-.5 5.833-.5 8l13.25 13.5z"/><path id="AA" d="M273.5 874.362c.917-5.583 2.593-11.094 2.75-16.75.217-7.792-.594-15.692-2.5-23.25-1.782-7.067-4.703-13.882-8.25-20.25-4.064-7.295-8.795-14.395-14.75-20.25-5.375-5.284-11.806-9.537-18.5-13-5.736-2.967-12.167-4.333-18.25-6.5l2.5 15.75c2.833 1.167 5.795 2.06 8.5 3.5 3.713 1.977 7.196 4.397 10.5 7 2.988 2.354 5.822 4.931 8.375 7.75 2.735 3.021 5.21 6.298 7.375 9.75 2.237 3.568 4.222 7.325 5.75 11.25 1.474 3.787 2.62 7.735 3.25 11.75.621 3.955.514 7.997.5 12-.012 3.421-.5 7.167-.5 10.25z"/><path id="AB" d="M217.25 796.612c4.167 1.375 8.365 3.784 12.125 6.375 4.254 2.931 8.153 6.425 11.625 10.25 2.868 3.16 5.313 6.711 7.5 10.375 2.11 3.537 4.057 7.223 5.375 11.125 1.266 3.747 1.998 7.688 2.375 11.625.373 3.899-.125 8.083-.125 11.75"/><path id="AC" d="M222.967 770.085s-6.188-2.876-7.875-5.625c-1.455-2.371-1.25-8.25-1.25-8.25s4.943 2.941 6.5 5.25c1.68 2.491 2.625 8.625 2.625 8.625z"/><path id="AD" d="M223.217 770.085s4.664-5.231 7.875-5.875c2.358-.473 7 1.75 7 1.75s-3.498 3.875-5.875 4.625c-2.865.904-9-.5-9-.5z"/><path id="AE" d="M225.342 764.21c-1.812-.291-3.718-2.428-3.5-4.25.248-2.069 2.949-4.114 5-3.75 1.957.347 3.675 3.058 3.25 5-.401 1.829-2.901 3.297-4.75 3z"/><path id="AF" d="M296.967 723.623s-3.548 4.209-3.949 6.799c-.235 1.518-.12 3.448 1 4.5 1.168 1.098 3.16.956 4.75.75 3.611-.468 9.999-4.399 9.999-4.399l-3.749-2.2s-3.144 2.885-5 2.599c-1.048-.162-2.006-1.218-2.25-2.25-.303-1.282 1.25-3.75 1.25-3.75z"/><path id="AG" d="M310.36 732.551s-6.314 2.531-8.549 4.949c-1.442 1.56-2.651 3.628-2.75 5.75-.079 1.686.529 3.585 1.75 4.75 1.48 1.412 3.805 1.874 5.85 1.851 2.166-.025 4.244-1.071 6.15-2.101 2.508-1.354 4.514-3.482 6.75-5.25l3.049-2.45-3.45-2.2s-4.985 4.691-8.099 5.899c-1.407.546-3.089 1.037-4.5.5-1.048-.399-2.319-1.381-2.25-2.5.102-1.651 2.435-2.246 3.75-3.25 1.929-1.472 6.049-4.049 6.049-4.049z"/><path id="AH" d="M324.299 741.463s-7.636 5.293-10.799 8.649c-1.681 1.783-4.042 3.558-4.25 6-.181 2.117.953 4.617 2.75 5.75 1.128.711 2.741.438 4 0 2.409-.838 4.025-3.136 6-4.75 2.701-2.208 8-6.75 8-6.75v-3.899l-6.4 5.1c-2.164 1.648-3.98 4.066-6.6 4.799-.966.27-2.617.678-3-.25-.835-2.022 2.679-3.477 4.25-5 1.516-1.47 3.28-2.66 4.952-3.951 1.564-1.208 4.748-3.549 4.748-3.549z"/><path id="AI" d="M330 753.814s-9.493 5.661-12 10.298c-.919 1.7-1.429 3.94-.75 5.75.664 1.769 2.385 3.451 4.25 3.75 1.88.302 3.865-.944 5.25-2.25 1.762-1.662 3.25-6.499 3.25-6.499s-3.804 4.853-6.25 4.249c-1.375-.339-2.178-2.345-2-3.75.17-1.346 1.735-2.1 2.75-3 1.688-1.498 5.5-3.949 5.5-3.949z"/><path id="AJ" d="M279.25 717.862s-6.763-3.158-9.75-1.75c-1.384.652-2.868 2.601-2.25 4 .449 1.017 2.14.808 3.25.75 3.079-.159 8.75-3 8.75-3z"/><path id="AK" d="M229.851 780.947c-1.716-.648-3.845-.558-5.499.237a7.19 7.19 0 0 0-3.606 4.124c-.516 1.619-.293 3.576.516 5.07.817 1.508 2.366 2.721 4.003 3.234 1.556.487 3.409.354 4.878-.353 1.532-.737 2.884-2.146 3.462-3.745.593-1.641.448-3.641-.278-5.228-.669-1.461-1.973-2.771-3.475-3.339z"/><path id="AL" d="M227.804 784.638c-1.203-.297-2.877.675-3.215 1.867-.341 1.201.564 2.974 1.769 3.301 1.279.347 3.089-.783 3.392-2.073.278-1.186-.763-2.803-1.946-3.095z"/><path id="AM" d="M228.116 808.737c-1.534-.366-3.683 1.021-4 2.66-.266 1.373.966 3.143 2.25 3.458 1.491.365 3.631-.814 4-2.394.334-1.432-.897-3.401-2.25-3.724z"/><path id="AN" d="M233.161 815.006c-1.837-.483-4.408 1.349-4.788 3.512-.319 1.813 1.156 4.15 2.693 4.565 1.785.482 4.347-1.075 4.788-3.161.4-1.891-1.073-4.491-2.693-4.916z"/><path id="AO" d="M238.741 822.136c-2.2-.512-5.279 1.43-5.734 3.725-.381 1.923 1.385 4.402 3.226 4.842 2.137.512 5.206-1.14 5.734-3.352.479-2.005-1.285-4.763-3.226-5.215z"/><path id="AP" d="M243.479 830.249c-1.958-.439-4.699 1.226-5.104 3.192-.339 1.648 1.233 3.772 2.871 4.15 1.902.439 4.633-.977 5.104-2.873.427-1.719-1.144-4.082-2.871-4.469z"/><path id="AQ" d="M247.366 838.359c-1.534-.344-3.683.96-4 2.5-.266 1.29.966 2.954 2.25 3.25 1.491.343 3.631-.765 4-2.25.334-1.346-.897-3.197-2.25-3.5z"/><path id="AR" d="M271.13 860.75c-1.716.648-3.845.558-5.499-.237a7.19 7.19 0 0 1-3.606-4.124c-.516-1.619-.293-3.576.516-5.07.817-1.508 2.366-2.721 4.003-3.234 1.556-.487 3.409-.354 4.878.353 1.532.737 2.884 2.146 3.462 3.745.593 1.641.448 3.641-.278 5.228-.669 1.461-1.973 2.771-3.475 3.339z"/><path id="AS" d="M269.083 857.059c-1.203.297-2.877-.675-3.215-1.867-.341-1.201.564-2.974 1.769-3.301 1.279-.347 3.089.783 3.392 2.073.278 1.186-.763 2.803-1.946 3.095z"/><path id="AT" d="M271.884 872.666c1.718-1.641 2.152-4.75 1.347-6.978-.619-1.713-2.435-3.132-4.225-3.464-2.201-.408-5.595.067-6.374 2.112"/><path id="AU" d="M268.858 870.73c1.051-.617 1.13-3.119.148-4.044-.84-.791-2.848-.992-3.444.335"/><path id="AV" d="M231.98 791.264c1.718-1.641 2.152-4.75 1.347-6.978-.619-1.713-2.39-3.167-4.225-3.464-2.275-.368-5.9.32-6.678 2.364"/><path id="AW" d="M280.94 729.909s-7.236-1.832-9.905.111c-1.237.9-2.329 3.093-1.459 4.351.632.915 2.253.392 3.333.127 2.995-.734 8.032-4.589 8.032-4.589z"/><path id="AX" d="M283.691 740.913s-7.432-.694-9.769 1.638c-1.083 1.08-1.824 3.415-.771 4.524.766.806 2.287.039 3.313-.389 2.845-1.188 7.227-5.773 7.227-5.773z"/><path id="AY" d="M287.761 751.376s-7.421.803-9.246 3.555c-.846 1.275-1.106 3.71.148 4.587.911.637 2.248-.418 3.168-1.042 2.551-1.732 5.93-7.1 5.93-7.1z"/><path id="AZ" d="M301.459 772.074s-7.216 1.909-8.607 4.904c-.645 1.387-.536 3.834.835 4.513.996.493 2.16-.751 2.976-1.507 2.262-2.095 4.796-7.91 4.796-7.91z"/><path id="Aa" d="M319.682 789.581s-6.97 2.669-8.034 5.796c-.493 1.448-.123 3.869 1.313 4.398 1.043.384 2.068-.978 2.798-1.816 2.025-2.325 3.923-8.377 3.923-8.377z"/><path id="Ab" d="M328.859 795.714s-6.561 3.559-7.206 6.797c-.299 1.5.385 3.852 1.877 4.188 1.085.244 1.922-1.24 2.536-2.167 1.703-2.57 2.793-8.818 2.793-8.818z"/><path id="Ac" d="M224.472 734.501s2.919 5.744 5.7 6.471c1.48.387 3.871-.059 4.331-1.518.334-1.06-1.034-2.073-1.945-2.709-2.294-1.601-8.086-2.244-8.086-2.244z"/><path id="Ad" d="M222.016 734.558c-.776 4.85-1.175 6.08.981 8.581.999 1.159 3.273 2.068 4.456 1.098.86-.705.255-2.295-.147-3.332-.995-2.568-5.29-6.347-5.29-6.347z"/><path id="Ae" d="M223.393 732.326s6.222 2.456 8.851 1.07c1.123-.592 2.187-2.183 1.759-3.377-.374-1.043-1.951-1.324-3.058-1.3-2.789.061-7.552 3.607-7.552 3.607z"/><path id="Af" d="M235.856 718.802s2.213 5.829 4.826 6.646c1.46.456 3.871-.059 4.331-1.518.334-1.06-1.051-2.049-1.945-2.709-2.04-1.506-7.212-2.419-7.212-2.419z"/><path id="Ag" d="M232.701 718.568s-1.165 6.749.806 9.047c.996 1.161 3.273 2.068 4.456 1.098.86-.705.228-2.286-.147-3.332-.958-2.673-5.115-6.813-5.115-6.813z"/><path id="Ah" d="M234.661 716.394s5.649 2.721 8.094 1.478c1.363-.694 2.697-2.777 1.992-4.135-.513-.987-2.19-.696-3.291-.542-2.479.345-6.794 3.199-6.794 3.199z"/><path id="Ai" d="M245.493 701.777s2.322 6.185 5.088 7.054c1.459.459 3.871-.059 4.331-1.518.334-1.06-1.063-2.032-1.945-2.709-2.113-1.622-7.474-2.826-7.474-2.826z"/><path id="Aj" d="M242.63 702.038s-1.172 6.682.777 8.96c.995 1.162 3.273 2.068 4.456 1.098.86-.705.23-2.286-.147-3.332-.953-2.644-5.086-6.725-5.086-6.725z"/><path id="Ak" d="M244.153 699.457s5.902 3.075 8.501 1.798c1.373-.675 2.697-2.777 1.992-4.135-.513-.987-2.186-.663-3.291-.542-2.57.28-7.202 2.879-7.202 2.879z"/><path id="Al" d="M99.125 661.862l.125 40.125 13.25 14.25 1.375 1.375 2.5-2.75 3.75-3.909-.125-50.341-4.375-1.625-3.375-2.125z"/><path id="Am" d="M112.225 658.018c-.314 2.873-.218 6.875-.812 9.063-.516 1.899-1.44 3.779-2.531 5.625-1.268 2.143-3.711 4.13-5.406 7.188-1.583 2.855-3.443 6.114-3.75 9.938-.263 3.273.518 4.585 1.969 7.438 1.676 3.295 4.592 4.963 6.094 6.844 1.187 1.487 3.174 2.609 3.906 4.031.581 1.128 1.929 6.286 2.531 8l5.125-4.062c-.481-1.369-1.554-4.847-2.469-6.625-.992-1.929-2.555-3.261-3.719-4.719-2.143-2.684-4.309-3.87-5.281-5.781-1.135-2.232-1.6-3.275-1.406-5.687.215-2.671.924-4.595 2.5-7.437 1.19-2.146 3.582-4.085 5.344-7.062 1.187-2.007 2.311-4.205 2.969-6.625.813-2.99.668-5.852.938-8.312z"/><path id="An" d="M107.875 659.456l-6 1.438c.266 3.187-.337 7.04.969 10.969 1.191 3.584 3.73 6.04 5.219 8.438 1.748 2.816 3.819 4.84 4.375 6.938.466 1.758.135 4.017-.281 6.406-.367 2.11-1.008 4.197-1.937 6.094-.598 1.221-1.768 2.481-2.875 4.156-.924 1.398-1.669 2.176-2.531 3.531l4 4.875 3.844-6.219c.843-1.276 2.167-2.639 3.125-4.594a26.72 26.72 0 0 0 2.313-7.156c.414-2.375.992-5.177.219-8.094-.949-3.581-3.525-5.888-4.875-8.062-1.829-2.945-3.989-5.178-4.781-7.562-.91-2.737-.463-7.343-.781-11.156z"/><path id="Ao" d="M112.375 656.487c-5.333 1.708-10.664 3.624-15.875 5.75-4.281 1.747-8.547 3.57-12.625 5.75-5.792 3.097-11.167 6.917-16.75 10.375"/><path id="Ap" d="M113.223 718.946s-4.598-6.654-7.162-9.776c-1.991-2.425-4.184-4.679-6.366-6.934l-5.798-5.684c-2.778-2.505-5.648-4.916-8.639-7.162-5.455-4.095-16.938-11.481-16.938-11.481"/><path id="Aq" d="M178.014 767.221s-.218-14.745 0-22.981c.063-2.383 1.363-4.842 3.182-6.364 1.602-1.34 3.928-1.919 6.01-1.768 2.393.173 4.852 1.301 6.541 3.005 1.318 1.33 2.256 3.264 2.298 5.127.18 8.075-.354 22.451-.354 22.451z"/><path id="Ar" d="M185.616 751.398s-4.596-.925-4.419-5.439c.094-2.392 2.803-5.059 5.303-5.078 2.625-.02 4.704 2.905 5.657 5.247.728 1.791.312 3.942-.354 5.755-.743 2.023-2.943 3.303-3.889 5.247-.592 1.215-.789 2.577-1.061 3.893-.254 1.229-.53 3.724-.53 3.724s-1.361-3.897-1.591-5.924c-.178-1.572-.055-3.175.177-4.739.136-.916.707-2.686.707-2.686z"/><path id="As" d="M157.4 767.143V735.5c.063-2.383 1.81-4.716 3.712-6.187 1.652-1.277 3.928-1.919 6.01-1.768 2.393.173 4.791 1.363 6.541 3.005 1.269 1.191 2.433 2.733 2.475 4.596.18 8.075.177 31.82.177 31.82z"/><path id="At" d="M166.688 745.377s-5.303-.432-5.127-5.381c.094-2.622 2.803-5.546 5.303-5.567 2.625-.022 4.704 3.184 5.657 5.752.728 1.963.312 4.321-.354 6.309-.743 2.218-2.943 3.621-3.889 5.752-.592 1.333-.808 2.824-1.061 4.268-.297 1.698-.53 5.143-.53 5.143s-1.368-4.991-1.591-7.555c-.15-1.726-.179-3.503.177-5.195.262-1.245 1.414-3.525 1.414-3.525z"/><path id="Au" d="M137.669 753.797s-1.456-13.861-1.237-22.097c.063-2.383 1.81-4.716 3.712-6.187 1.652-1.277 3.928-1.919 6.01-1.768 2.393.173 4.791 1.363 6.541 3.005 1.269 1.191 2.433 2.733 2.475 4.596.18 8.075.177 35.709.177 35.709l-13.081.177c-1.187-4.302-2.48-9.133-4.596-13.435z"/><path id="Av" d="M145.651 740.339s-5.303-.432-5.127-5.381c.094-2.622 2.803-5.546 5.303-5.567 2.625-.022 4.704 3.184 5.657 5.752.728 1.963.312 4.321-.354 6.309-.743 2.218-2.943 3.621-3.889 5.752-.592 1.333-.863 2.815-1.061 4.268-.295 2.167-.177 6.557-.177 6.557s-1.67-5.922-1.945-8.969c-.155-1.726-.179-3.503.177-5.195.262-1.245 1.414-3.525 1.414-3.525z"/><path id="Aw" d="M135.057 748.129l-3.536-5.834-2.121-4.243s.269-4.025 0-6.01c-.238-1.757-.376-3.69-1.414-5.127-.747-1.033-1.937-1.848-3.182-2.121-1.107-.243-2.444-.139-3.359.53-.319.233-.53 1.061-.53 1.061l-1.768-2.298s1.393-2.111 2.475-2.652c1.484-.742 3.347-.959 4.95-.53 2.323.621 4.357 2.345 5.834 4.243 1.169 1.503 2.072 3.4 2.121 5.303l.53 17.678z"/></defs></svg>