<svg xmlns="http://www.w3.org/2000/svg" width="360" height="540" viewBox="0 0 95.25 142.875" xmlns:v="https://vecta.io/nano"><g transform="matrix(.264583 0 0 .264583 0 -135.562492)"><rect rx="29.944" y="512.862" x=".5" height="539" width="359" fill="#fff" stroke="#000"/><path d="M30 542.362l-10 35v5h12v10h5v-10h3v-5h-3v-15h-5v15h-6.8l10-35zm300 480l10-35v-5h-12v-10h-5v10h-3v5h3v15h5v-15h6.8l-10 35zm-300.5-411c0-5.523-2.858-9-7-9s-7.5 4.477-7.5 10a24.83 24.83 0 0 1 0 1.406c0 3.649 1.338 7.188 2.5 10.5 1.195 3.405 2.917 6.39 4.531 9.438 2.501 4.72 7.969 13.656 7.969 13.656s5.468-8.937 7.969-13.656c1.614-3.047 3.337-6.032 4.531-9.437 1.162-3.312 2.5-6.851 2.5-10.5-.014-.487-.009-.957 0-1.406 0-5.523-3.358-10-7.5-10s-7 3.477-7 9c0 1-1 1-1 0zm300 342c0 5.523-2.858 9-7 9s-7.5-4.477-7.5-10c.017-.478.009-.946 0-1.406 0-3.649 1.338-7.188 2.5-10.5 1.195-3.405 2.917-6.39 4.531-9.437 2.501-4.72 7.969-13.656 7.969-13.656s5.468 8.937 7.969 13.656c1.614 3.047 3.337 6.032 4.531 9.438 1.162 3.312 2.5 6.851 2.5 10.5-.014.487-.009.957 0 1.406 0 5.523-3.358 10-7.5 10s-7-3.477-7-9c0-1-1-1-1 0zm-240.5-378c0-11.046-5.716-18-14-18s-15 8.954-15 20c.035.956.018 1.891 0 2.813 0 7.298 2.677 14.377 5 21 2.389 6.811 5.834 12.781 9.063 18.875C79.064 629.489 90 647.362 90 647.362s10.936-17.873 15.938-27.312c3.229-6.094 6.673-12.064 9.063-18.875 2.323-6.623 5-13.702 5-21-.028-.974-.019-1.915 0-2.812 0-11.046-6.716-20-15-20s-14 6.954-14 18c0 2-2 2-2 0zm180 0c0-11.046-5.716-18-14-18s-15 8.954-15 20c.035.956.018 1.891 0 2.813 0 7.298 2.677 14.377 5 21 2.389 6.811 5.834 12.781 9.063 18.875 5.001 9.439 15.938 27.313 15.938 27.313s10.936-17.873 15.938-27.312c3.229-6.094 6.673-12.064 9.063-18.875 2.323-6.623 5-13.702 5-21-.028-.974-.019-1.915 0-2.812 0-11.046-6.716-20-15-20s-14 6.954-14 18c0 2-2 2-2 0zm-180 414c0 11.046-5.716 18-14 18s-15-8.954-15-20c.035-.956.018-1.891 0-2.812 0-7.298 2.677-14.377 5-21 2.389-6.811 5.834-12.781 9.063-18.875C79.064 935.235 90 917.362 90 917.362s10.936 17.873 15.938 27.313c3.229 6.094 6.673 12.064 9.063 18.875 2.323 6.623 5 13.702 5 21-.028.974-.019 1.915 0 2.813 0 11.046-6.716 20-15 20s-14-6.954-14-18c0-2-2-2-2 0zm180 0c0 11.046-5.716 18-14 18s-15-8.954-15-20c.035-.956.018-1.891 0-2.812 0-7.298 2.677-14.377 5-21 2.389-6.811 5.834-12.781 9.063-18.875 5.001-9.439 15.938-27.313 15.938-27.313s10.936 17.873 15.938 27.313c3.229 6.094 6.673 12.064 9.063 18.875 2.323 6.623 5 13.702 5 21-.028.974-.019 1.915 0 2.813 0 11.046-6.716 20-15 20s-14-6.954-14-18c0-2-2-2-2 0z" fill="#f55"/></g></svg>