<svg xmlns="http://www.w3.org/2000/svg" xmlns:xlink="http://www.w3.org/1999/xlink" width="360" height="540" viewBox="0 0 95.25 142.875" xmlns:v="https://vecta.io/nano"><style><![CDATA[.B{stroke-linejoin:round}.C{stroke-linecap:round}.D{fill:none}.E{fill:#ff5}.F{stroke:#55a}.G{stroke:#000}.H{stroke-width:2}.I{fill:#55a}.J{stroke-width:2.083}.K{fill:#f55}.L{stroke-width:1.933}.M{stroke-width:2.009}.N{stroke-width:2.36}.O{stroke-width:2.14}]]></style><g transform="matrix(.264583 0 0 .264583 0 -135.562492)"><rect rx="29.944" y="512.862" x=".5" height="539" width="359" fill="#fff" class="G"/><path d="M152.75 769.612l56.25.5s-1.943 7.606-2.25 11.5c-.367 4.655.5 14 .5 14l-56.5-.5s2.177-8.935 2.5-13.5c.283-3.993-.5-12-.5-12zM30 542.362a10 10 0 0 0-10 10v30a10 10 0 0 0 10 10 10.12 10.12 0 0 0 1.281-.094c1.713 3.049 4.972 5.094 8.719 5.094v-5c-1.64 0-3.088-.812-4-2.031 2.424-1.825 4-4.701 4-7.969v-30a10 10 0 0 0-10-10zm0 5a5 5 0 0 1 5 5v30c0 .716-.167 1.384-.437 2-1.275-4.056-5.085-7-9.562-7v-25a5 5 0 0 1 5-5zm-5 35a5 5 0 0 1 5 5 5 5 0 0 1-5-5zm305 440a10 10 0 0 0 10-10v-30a10 10 0 0 0-10-10c-.434 0-.862.04-1.281.094-1.713-3.049-4.972-5.094-8.719-5.094v5c1.64 0 3.088.812 4 2.031-2.424 1.825-4 4.701-4 7.969v30a10 10 0 0 0 10 10zm0-5a5 5 0 0 1-5-5v-30c0-.716.167-1.384.438-2 1.275 4.057 5.085 7 9.563 7v25a5 5 0 0 1-5 5zm5-35a5 5 0 0 1-5-5 5 5 0 0 1 5 5z"/><path d="M30 662.362v360h270m-240-480h270v360" class="D F H"/><use xlink:href="#B" class="E"/><use xlink:href="#C" fill="#ff5655"/><use xlink:href="#D" class="K"/><use xlink:href="#E" class="E"/><g class="G H B"><path d="M144.5 654.612l109.25.75m-112.5 4.5l116.25 1.25m-130 19.5l142.25.75m-146.5 5.5l151.5 1" class="C I"/><path d="M141.375 660.362l-6.125 9.75h11.375l6.125-9.07zm6.888 10.875l-5.012 8.25 13.488-.5 4.262-8.174zm19.375-10l-5.012 9h11.988l5.512-9.174zm8.5 10l-5.262 8.75 12.238-.75 5.512-8.674zm17.75-9.25l-4.262 8.25h12.238l4.262-8.924zm8.5 9l-5.512 9.25 13.488-.5 5.762-8.674zm19.187-10l-5.2 9.5 12.55.25 5.2-9.174zm8.563 10.5l-5.512 8.25 12.488.25 4.512-8.674zm17.5-9.5l-4.262 8.5 11.738.75 4.006-5.837-1.744-2.587zm7.25 10l-5.512 8.25h13.238l2.631-3.837-1.869-4.337z"/></g><path d="M220.264 643.301l27.577.354 4.066 6.718-47.023-.177z" class="I"/><use xlink:href="#F"/><g class="B H"><use xlink:href="#G" class="E F"/><g stroke="#000100"><use xlink:href="#H" class="C D"/><use xlink:href="#I"/><use xlink:href="#J"/><use xlink:href="#K"/></g><g class="C D F"><path d="M191.334 543.313s3.777 13.72 12.651 20.591 19.274 9.808 19.274 9.808m-26.757-30.816s3.212 10.664 10.428 16.677 15.04 8.636 15.04 8.636m-19.362-25.105s2.411 8.684 7.792 13.266 10.497 6.526 10.497 6.526M207.629 543s.731 5.562 5.029 9.112 6.998 5.034 6.998 5.034m-6.401-13.833s.097 3.661 2.648 5.837 3.362 2.099 3.362 2.099m-27.985-7.833s-1.312 8.523-6.615 17.395-15.276 14.047-15.276 14.047"/><path d="M185.392 543.362s.884 4.945-3.94 12.458-11.998 11.786-11.998 11.786"/><path d="M181.021 543.362s-.933 5.826-3.508 10.407-7.861 7.898-7.861 7.898"/><path d="M175.895 543.362s.181 2.768-1.943 6.319-4.091 3.984-4.091 3.984"/><use xlink:href="#L"/></g><g class="I F"><use xlink:href="#M"/><use xlink:href="#N"/><use xlink:href="#O"/><use xlink:href="#P"/></g><g class="C D F"><path d="M200.247 635.458s-4.102-1.452-6.344-1.482c-2.537-.034-7.276 1.482-7.276 1.482m11.14-5.836s-3.749 1.197-5.696 1.235c-1.667.033-4.919-.864-4.919-.864m-.75-42.177s-4.784-4.071-9.174-4.17c-4.699-.106-7.506 2.502-7.506 2.502m53.967 3.562s-8.137-7.264-12.808-7.102c-6.121.212-10.692 5.512-10.692 5.512"/><use xlink:href="#Q"/><use xlink:href="#R"/><use xlink:href="#S"/><use xlink:href="#T"/></g><use xlink:href="#U" class="F I"/><g class="C D F"><use xlink:href="#V"/><use xlink:href="#W"/></g><use xlink:href="#X" class="F I"/><g class="C D F"><use xlink:href="#Y"/><path d="M185.777 595.322c-1.99 2.439-2.133 4.604-6.255 6.672m20.016-8.34c1.75 4.608 4.071 8.497 8.966 10.634"/></g></g><use xlink:href="#Z"/><g class="B D F H"><use xlink:href="#a"/><path d="M220.131 551.002c4.522 5.416 9.045 10.928 13.567 15.578m-12.451-5.436c6.007 6.327 11.443 12.654 19.71 18.981m-17.158-9.656c11.181 12.128 16.536 16.49 23.224 22.627m-21.102-13.081c11.026 11.811 21.134 22.017 28.991 28.284m-27.477-19.467c11.651 11.967 22.917 24.454 33.808 31.863m-30.019-20.174c11.876 11.911 25.011 25.678 35.355 31.466m-31.355-19.335c13.412 12.092 27.733 25.407 38.073 31.356m-34.825-21.799c12.047 11.445 27.015 23.658 39.852 31.941m-32.604-17.213c11.374 9.467 22.939 18.744 36.659 25.865m-31.024-13.457c11.002 9.592 23.053 16.56 35.642 22.185m-27.919-9.325c11.111 7.11 22.222 14.422 33.333 19.224m-26.727-8.507c10.664 6.99 21.813 13.008 34.018 16.915m-26.316-4.894c12.61 6.119 27.905 14.937 40.515 14.385" class="C"/></g><g class="K B F H"><path d="M300 632.362l-8 3-57-93h15z"/><use xlink:href="#b"/><path d="M30.75 772.112l69.75-56.25 4.75 5.75-74.75 60z"/></g><path d="M101 715.112l27.75 37.25 5-2.909-28.866-39.548z" class="B D F H"/><use xlink:href="#c" class="B F H I"/><use xlink:href="#d" class="B F H"/><use xlink:href="#e" fill="#fff954" class="B F H"/><g class="I B F H"><path d="M30.5 817.862l90.5-74.75-12.25-16.75-78.25 62.5z"/><use xlink:href="#f"/></g><use xlink:href="#g" fill="#ff5554"/><g class="B G"><use xlink:href="#h" class="H"/><g class="M"><use xlink:href="#i" class="E"/><path d="M52.567 816.862s2.976 2.082 4.608 2.75c1.337.547 4.169 1 4.169 1" class="C D"/></g></g><g class="F H B"><use xlink:href="#j" class="C D"/><use xlink:href="#k" class="C D"/><use xlink:href="#l" class="C D"/><use xlink:href="#m" class="C D"/><use xlink:href="#n" class="C D"/><use xlink:href="#o" class="C D"/><use xlink:href="#p" class="C E"/><path d="M43.366 752.393s2.081-1.847 3.384-2.03c1.281-.18 3.75 1 3.75 1" class="C D"/><use xlink:href="#q" class="E"/><path d="M48.5 695.862s2.02 2.617 3.263 3.689c1.878 1.621 4.192 2.657 6.237 4.061l4.5 3.25" class="C D"/><g class="E"><path d="M64.439 708.13l7.457-13.798 4.104 2.28-7.53 13.311z"/><use xlink:href="#r"/></g><use xlink:href="#s" class="C D"/><path d="M81.5 685.362l1.5 7.25 6 1.5-.5-7.25zm0-9l1.5-7 6.25-1.5-1 7.25zm-10.25 0l-7.043-1.336-.957-6.914 7 1.25zM65 687.112l-1 7 7-2.25v-6z" class="I"/><use xlink:href="#t" class="E"/><use xlink:href="#u" class="K"/></g><g fill="#000003"><use xlink:href="#v"/><use xlink:href="#w"/></g><use xlink:href="#x" class="B C D F H"/><g fill="#fff"><use xlink:href="#y"/><use xlink:href="#y" x="-7.5" y="36.75"/><use xlink:href="#y" x="61.25" y="21.25"/><use xlink:href="#y" x="82.75" y="3"/><use xlink:href="#y" x="111.75" y="0.75"/></g><use xlink:href="#z" class="I"/><g class="E"><use xlink:href="#AA"/><use xlink:href="#AB"/></g><g fill="#fff" stroke="#fff" class="B H"><use xlink:href="#AC"/><use xlink:href="#AC" x="-25.233" y="21.192"/><use xlink:href="#AC" x="-51.75" y="41.698"/><use xlink:href="#AD"/><use xlink:href="#AD" x="7.409" y="-0.689"/><use xlink:href="#AD" x="5.409" y="6.936"/><use xlink:href="#AD" x="-25.42" y="20.563"/><use xlink:href="#AD" x="-18.012" y="19.873"/><use xlink:href="#AD" x="-20.012" y="27.498"/><use xlink:href="#AE"/><use xlink:href="#AE" x="7.408" y="-0.69"/><use xlink:href="#AE" x="5.408" y="6.935"/><use xlink:href="#AE" x="-17.171" y="20.998"/></g><g transform="rotate(36.279 49.368 810.54)" class="B G H"><use xlink:href="#AF" class="E"/><use xlink:href="#AG" class="C D"/></g><g transform="rotate(20.504 33.819 845.355)" class="B G H"><use xlink:href="#AF" class="E"/><use xlink:href="#AG" class="C D"/></g><g transform="rotate(346.967 137.383 712.17)" class="B G H"><use xlink:href="#AF" class="E"/><use xlink:href="#AG" class="C D"/></g><g transform="rotate(329.06 104.975 741.73)" class="B G H"><use xlink:href="#AF" class="E"/><use xlink:href="#AG" class="C D"/></g><g transform="rotate(313.882 92.506 746.66)" class="B G H"><use xlink:href="#AF" class="E"/><use xlink:href="#AG" class="C D"/></g><g transform="rotate(295.006 86.655 755.231)" class="B G H"><use xlink:href="#AF" class="E"/><use xlink:href="#AG" class="C D"/></g><g transform="matrix(.189491 -1.051622 .981882 .20295 -677.73138 685.42735)" class="B G L"><use xlink:href="#AF" class="E"/><use xlink:href="#AG" class="C D"/></g><g transform="matrix(-.183952 -1.052605 .991756 -.147317 -662.06283 954.54502)" class="B G L"><use xlink:href="#AF" class="E"/><use xlink:href="#AG" class="C D"/></g><g transform="matrix(-.15807 -1.05265 -.84587 .197536 838.64405 673.45242)" class="B G J"><use xlink:href="#AF" class="E"/><use xlink:href="#AG" class="C D"/></g><g transform="matrix(.012864 -1.064374 -.866605 .059267 844.65286 805.30421)" class="B G J"><use xlink:href="#AF" class="E"/><use xlink:href="#AG" class="C D"/></g><g transform="matrix(.309323 -1.018517 -.848726 -.184877 806.27001 1018.2801)" class="B G J"><use xlink:href="#AF" class="E"/><use xlink:href="#AG" class="C D"/></g><g transform="matrix(.098085 -.921947 -.774667 -.03915 766.78396 848.28291)" class="B G N"><use xlink:href="#AF" class="E"/><use xlink:href="#AG" class="C D"/></g><g transform="matrix(.665332 -.830898 -.71944 -.486746 667.42575 1268.4307)" class="B G J"><use xlink:href="#AF" class="E"/><use xlink:href="#AG" class="C D"/></g><g transform="matrix(.821775 -.676568 -.604157 -.624108 549.64641 1378.707)" class="B G J"><use xlink:href="#AF" class="E"/><use xlink:href="#AG" class="C D"/></g><g transform="matrix(1.017247 -.313476 -.321624 -.806891 289.00159 1509.8887)" class="B G J"><use xlink:href="#AF" class="E"/><use xlink:href="#AG" class="C D"/></g><g transform="matrix(.910241 -.30542 .327281 .84944 -252.94937 146.56768)" class="B G O"><use xlink:href="#AF" class="E"/><use xlink:href="#AG" class="C D"/></g><g transform="rotate(180 180 782.362)"><use xlink:href="#B" class="E"/><use xlink:href="#C" fill="#ff5655"/><use xlink:href="#D" class="K"/><use xlink:href="#E" class="E"/><path d="M144.5 654.612l109.25.75m-112.5 4.5l116.25 1.25m-130 19.5l142.25.75m-146.5 5.5l151.5 1" class="B C G H I"/><path d="M141.375 660.362l-6.125 9.75h11.375l6.125-9.07zm6.888 10.875l-5.012 8.25 13.488-.5 4.262-8.174zm19.375-10l-5.012 9h11.988l5.512-9.174zm8.5 10l-5.262 8.75 12.238-.75 5.512-8.674zm17.75-9.25l-4.262 8.25h12.238l4.262-8.924zm8.5 9l-5.512 9.25 13.488-.5 5.762-8.674zm19.187-10l-5.2 9.5 12.55.25 5.2-9.174zm8.563 10.5l-5.512 8.25 12.488.25 4.512-8.674zm17.5-9.5l-4.262 8.5 11.738.75 4.006-5.837-1.744-2.587zm7.25 10l-5.512 8.25h13.238l2.631-3.837-1.869-4.337z" class="B G H"/><path d="M220.264 643.301l27.577.354 4.066 6.718-47.023-.177z" class="I"/><use xlink:href="#F"/><g class="B H"><use xlink:href="#G" class="E F"/><g stroke="#000100"><use xlink:href="#H" class="C D"/><use xlink:href="#I"/><use xlink:href="#J"/><use xlink:href="#K"/></g><g class="C D F"><path d="M191.334 543.313s3.777 13.72 12.651 20.591 19.274 9.808 19.274 9.808m-26.757-30.816s3.212 10.664 10.428 16.677 15.04 8.636 15.04 8.636m-19.362-25.105s2.411 8.684 7.792 13.266 10.497 6.526 10.497 6.526M207.629 543s.731 5.562 5.029 9.112 6.998 5.034 6.998 5.034m-6.401-13.833s.097 3.661 2.648 5.837 3.362 2.099 3.362 2.099m-27.985-7.833s-1.312 8.523-6.615 17.395-15.276 14.047-15.276 14.047"/><path d="M185.392 543.362s.884 4.945-3.94 12.458-11.998 11.786-11.998 11.786"/><path d="M181.021 543.362s-.933 5.826-3.508 10.407-7.861 7.898-7.861 7.898"/><path d="M175.895 543.362s.181 2.768-1.943 6.319-4.091 3.984-4.091 3.984"/><use xlink:href="#L"/></g><g class="I F"><use xlink:href="#M"/><use xlink:href="#N"/><use xlink:href="#O"/><use xlink:href="#P"/></g><g class="C D F"><path d="M200.247 635.458s-4.102-1.452-6.344-1.482c-2.537-.034-7.276 1.482-7.276 1.482m11.14-5.836s-3.749 1.197-5.696 1.235c-1.667.033-4.919-.864-4.919-.864m-.75-42.177s-4.784-4.071-9.174-4.17c-4.699-.106-7.506 2.502-7.506 2.502m53.967 3.562s-8.137-7.264-12.808-7.102c-6.121.212-10.692 5.512-10.692 5.512"/><use xlink:href="#Q"/><use xlink:href="#R"/><use xlink:href="#S"/><use xlink:href="#T"/></g><use xlink:href="#U" class="F I"/><g class="C D F"><use xlink:href="#V"/><use xlink:href="#W"/></g><use xlink:href="#X" class="F I"/><g class="C D F"><use xlink:href="#Y"/><path d="M185.777 595.322c-1.99 2.439-2.133 4.604-6.255 6.672m20.016-8.34c1.75 4.608 4.071 8.497 8.966 10.634"/></g></g><use xlink:href="#Z"/><g class="B F H"><g class="D"><use xlink:href="#a"/><path d="M220.131 551.002c4.522 5.416 9.045 10.928 13.567 15.578m-12.451-5.436c6.007 6.327 11.443 12.654 19.71 18.981m-17.158-9.656c11.181 12.128 16.536 16.49 23.224 22.627m-21.102-13.081c11.026 11.811 21.134 22.017 28.991 28.284m-27.477-19.467c11.651 11.967 22.917 24.454 33.808 31.863m-30.019-20.174c11.876 11.911 25.011 25.678 35.355 31.466m-31.355-19.335c13.412 12.092 27.733 25.407 38.073 31.356m-34.825-21.799c12.047 11.445 27.015 23.658 39.852 31.941m-32.604-17.213c11.374 9.467 22.939 18.744 36.659 25.865m-31.024-13.457c11.002 9.592 23.053 16.56 35.642 22.185m-27.919-9.325c11.111 7.11 22.222 14.422 33.333 19.224m-26.727-8.507c10.664 6.99 21.813 13.008 34.018 16.915m-26.316-4.894c12.61 6.119 27.905 14.937 40.515 14.385" class="C"/></g><g class="K"><path d="M300 632.362l-8 3-57-93h15z"/><use xlink:href="#b"/><path d="M30.75 772.112l69.75-56.25 4.75 5.75-74.75 60z"/></g><path d="M101 715.112l27.75 37.25 5-2.909-28.866-39.548z" class="D"/><use xlink:href="#c" class="I"/><use xlink:href="#d"/><use xlink:href="#e" fill="#fff954"/><g class="I"><path d="M30.5 817.862l90.5-74.75-12.25-16.75-78.25 62.5z"/><use xlink:href="#f"/></g></g><use xlink:href="#g" fill="#ff5554"/><g class="B G"><use xlink:href="#h" class="H"/><g class="M"><use xlink:href="#i" class="E"/><path d="M52.567 816.862s2.976 2.082 4.608 2.75c1.337.547 4.169 1 4.169 1" class="C D"/></g></g><g class="F H B"><use xlink:href="#j" class="C D"/><use xlink:href="#k" class="C D"/><use xlink:href="#l" class="C D"/><use xlink:href="#m" class="C D"/><use xlink:href="#n" class="C D"/><use xlink:href="#o" class="C D"/><use xlink:href="#p" class="C E"/><path d="M43.366 752.393s2.081-1.847 3.384-2.03c1.281-.18 3.75 1 3.75 1" class="C D"/><use xlink:href="#q" class="E"/><path d="M48.5 695.862s2.02 2.617 3.263 3.689c1.878 1.621 4.192 2.657 6.237 4.061l4.5 3.25" class="C D"/><g class="E"><path d="M64.439 708.13l7.457-13.798 4.104 2.28-7.53 13.311z"/><use xlink:href="#r"/></g><use xlink:href="#s" class="C D"/><path d="M81.5 685.362l1.5 7.25 6 1.5-.5-7.25zm0-9l1.5-7 6.25-1.5-1 7.25zm-10.25 0l-7.043-1.336-.957-6.914 7 1.25zM65 687.112l-1 7 7-2.25v-6z" class="I"/><use xlink:href="#t" class="E"/><use xlink:href="#u" class="K"/></g><g fill="#000003"><use xlink:href="#v"/><use xlink:href="#w"/></g><use xlink:href="#x" class="B C D F H"/><g fill="#fff"><use xlink:href="#y"/><use xlink:href="#y" x="-7.5" y="36.75"/><use xlink:href="#y" x="61.25" y="21.25"/><use xlink:href="#y" x="82.75" y="3"/><use xlink:href="#y" x="111.75" y="0.75"/></g><use xlink:href="#z" class="I"/><g class="E"><use xlink:href="#AA"/><use xlink:href="#AB"/></g><g fill="#fff" stroke="#fff" class="B H"><use xlink:href="#AC"/><use xlink:href="#AC" x="-25.233" y="21.192"/><use xlink:href="#AC" x="-51.75" y="41.698"/><use xlink:href="#AD"/><use xlink:href="#AD" x="7.409" y="-0.689"/><use xlink:href="#AD" x="5.409" y="6.936"/><use xlink:href="#AD" x="-25.42" y="20.563"/><use xlink:href="#AD" x="-18.012" y="19.873"/><use xlink:href="#AD" x="-20.012" y="27.498"/><use xlink:href="#AE"/><use xlink:href="#AE" x="7.408" y="-0.69"/><use xlink:href="#AE" x="5.408" y="6.935"/><use xlink:href="#AE" x="-17.171" y="20.998"/></g><g transform="rotate(36.279 49.368 810.54)" class="B G H"><use xlink:href="#AF" class="E"/><use xlink:href="#AG" class="C D"/></g><g transform="rotate(20.504 33.819 845.355)" class="B G H"><use xlink:href="#AF" class="E"/><use xlink:href="#AG" class="C D"/></g><g transform="rotate(346.967 137.383 712.17)" class="B G H"><use xlink:href="#AF" class="E"/><use xlink:href="#AG" class="C D"/></g><g transform="rotate(329.06 104.975 741.73)" class="B G H"><use xlink:href="#AF" class="E"/><use xlink:href="#AG" class="C D"/></g><g transform="rotate(313.882 92.506 746.66)" class="B G H"><use xlink:href="#AF" class="E"/><use xlink:href="#AG" class="C D"/></g><g transform="rotate(295.006 86.655 755.231)" class="B G H"><use xlink:href="#AF" class="E"/><use xlink:href="#AG" class="C D"/></g><g transform="matrix(.189491 -1.051622 .981882 .20295 -677.73138 685.42735)" class="B G L"><use xlink:href="#AF" class="E"/><use xlink:href="#AG" class="C D"/></g><g transform="matrix(-.183952 -1.052605 .991756 -.147317 -662.06283 954.54502)" class="B G L"><use xlink:href="#AF" class="E"/><use xlink:href="#AG" class="C D"/></g><g transform="matrix(-.15807 -1.05265 -.84587 .197536 838.64405 673.45242)" class="B G J"><use xlink:href="#AF" class="E"/><use xlink:href="#AG" class="C D"/></g><g transform="matrix(.012864 -1.064374 -.866605 .059267 844.65286 805.30421)" class="B G J"><use xlink:href="#AF" class="E"/><use xlink:href="#AG" class="C D"/></g><g transform="matrix(.309323 -1.018517 -.848726 -.184877 806.27001 1018.2801)" class="B G J"><use xlink:href="#AF" class="E"/><use xlink:href="#AG" class="C D"/></g><g transform="matrix(.098085 -.921947 -.774667 -.03915 766.78396 848.28291)" class="B G N"><use xlink:href="#AF" class="E"/><use xlink:href="#AG" class="C D"/></g><g transform="matrix(.665332 -.830898 -.71944 -.486746 667.42575 1268.4307)" class="B G J"><use xlink:href="#AF" class="E"/><use xlink:href="#AG" class="C D"/></g><g transform="matrix(.821775 -.676568 -.604157 -.624108 549.64641 1378.707)" class="B G J"><use xlink:href="#AF" class="E"/><use xlink:href="#AG" class="C D"/></g><g transform="matrix(1.017247 -.313476 -.321624 -.806891 289.00159 1509.8887)" class="B G J"><use xlink:href="#AF" class="E"/><use xlink:href="#AG" class="C D"/></g><g transform="matrix(.910241 -.30542 .327281 .84944 -252.94937 146.56768)" class="B G O"><use xlink:href="#AF" class="E"/><use xlink:href="#AG" class="C D"/></g></g><path d="M180 792.362l-3-4.804-5.66-.196 2.66-5-2.66-5 5.66-.196 3-4.804 3 4.804 5.66.196-2.66 5 2.66 5-5.66.196z" class="E"/><path d="M95.008 613.346c1.984 4.004 6.98 10.028 11.976 10.028 9 0 13.004-8.008 13.004-18 0-10.028-4.004-19.028-13.004-19.028-4.996 0-7.972 5.031-10.984 8.008-.992.992-1.984 0-.992-.992 2.976-3.012 8.008-10.984 8.008-18 0-8.008-5.031-18-13.004-18-8.008 0-13.004 9.992-13.004 18 0 7.016 4.996 14.988 8.008 18 .992.992 0 1.984-1.028.992-2.976-2.976-5.988-8.008-10.984-8.008-9 0-13.004 9-13.004 19.028 0 9.992 4.004 18 13.004 18 4.996 0 9.992-6.024 12.012-10.028.992-.992.992 0 .992 1.028-.992 7.972-.992 9.992-2.02 15.98-.992 6.024-4.004 17.008-4.004 17.008 5.031-1.984 15.024-1.984 20.02 0 0 0-3.012-10.984-4.004-17.008-.992-5.988-.992-8.008-1.984-15.98 0-1.028 0-2.02.992-1.028zm-62.504 17.008c.992 2.02 3.508 4.996 5.988 4.996 4.5 0 6.52-4.004 6.52-9s-2.02-9.496-6.52-9.496c-2.48 0-4.004 2.516-5.492 4.004-.496.496-.992 0-.496-.496 1.488-1.488 4.004-5.492 4.004-9 0-4.004-2.516-9-6.52-9s-6.484 4.996-6.484 9c0 3.508 2.48 7.512 4.004 9 .496.496 0 .992-.496.496-1.524-1.488-3.012-4.004-5.528-4.004-4.5 0-6.484 4.5-6.484 9.496s1.984 9 6.484 9c2.516 0 5.031-2.976 6.024-4.996.496-.496.496 0 .496.496-.496 4.004-.496 4.996-.992 8.008s-2.02 8.504-2.02 8.504c2.516-.992 7.512-.992 9.992 0 0 0-1.488-5.492-1.984-8.504s-.496-4.004-.992-8.008c0-.496 0-.992.496-.496z"/><path d="M80.008 55.984c1.984 4.004 6.98 10.028 11.976 10.028 9 0 13.004-8.008 13.004-18 0-10.028-4.004-19.028-13.004-19.028-4.996 0-7.972 5.031-10.984 8.008-.992.992-1.984 0-.992-.992 2.976-3.012 8.008-10.984 8.008-18 0-8.008-5.031-18-13.004-18-8.008 0-13.004 9.992-13.004 18 0 7.016 4.996 14.988 8.008 18 .992.992 0 1.984-1.028.992-2.976-2.976-5.988-8.008-10.984-8.008-9 0-13.004 9-13.004 19.028 0 9.992 4.004 18 13.004 18 4.996 0 9.992-6.024 12.012-10.028.992-.992.992 0 .992 1.028-.992 7.972-.992 9.992-2.02 15.98C67.996 79.016 64.984 90 64.984 90c5.031-1.984 15.024-1.984 20.02 0 0 0-3.012-10.984-4.004-17.008-.992-5.988-.992-8.008-1.984-15.98 0-1.028 0-2.02.992-1.028zM17.504 72.992c.992 2.02 3.508 4.996 5.988 4.996 4.5 0 6.52-4.004 6.52-9s-2.02-9.496-6.52-9.496c-2.48 0-4.004 2.516-5.492 4.004-.496.496-.992 0-.496-.496 1.488-1.488 4.004-5.492 4.004-9 0-4.004-2.516-9-6.52-9s-6.484 4.996-6.484 9c0 3.508 2.48 7.512 4.004 9 .496.496 0 .992-.496.496-1.524-1.488-3.012-4.004-5.528-4.004-4.5 0-6.484 4.5-6.484 9.496s1.984 9 6.484 9c2.516 0 5.031-2.976 6.024-4.996.496-.496.496 0 .496.496-.496 4.004-.496 4.996-.992 8.008S9.992 90 9.992 90c2.516-.992 7.512-.992 9.992 0 0 0-1.488-5.492-1.984-8.504s-.496-4.004-.992-8.008c0-.496 0-.992.496-.496z" transform="rotate(180 172.494 503.681)"/></g><defs ><path id="B" d="M194.985 687.495l17.678.354s-10.837 15.987-15.203 24.572c-3.115 6.125-5.696 12.543-7.778 19.092-1.889 5.939-3.116 12.079-4.243 18.208-.634 3.451-.961 6.951-1.414 10.43l-1.237 9.899h-8.309l2.121-16.087 2.475-15.38c.884-4.738 1.755-9.488 3.005-14.142 1.527-5.687 3.549-11.231 5.48-16.794 2.348-6.763 7.425-20.153 7.425-20.153z"/><path id="C" d="M194.101 769.873l8.662-.177 2.652-9.016c1.662-4.331 3.63-8.57 6.01-12.551 2.921-4.886 6.226-9.596 10.076-13.789 2.853-3.107 6.221-5.713 9.546-8.308 3.002-2.344 5.931-4.902 9.369-6.541 3.653-1.742 7.724-2.447 11.667-3.359 5.305-1.226 10.668-2.3 16.087-2.828 2.874-.28 5.776-.276 8.662-.177 3.961.137 11.844 1.061 11.844 1.061l8.839-11.667s-7.286-3.351-10.783-5.303c-2.127-1.187-4.259-2.401-6.187-3.889-2.046-1.579-5.657-5.303-5.657-5.303l-38.007-.354-7.778 8.308c-4.216 4.567-8.88 8.773-12.551 13.789-3.54 4.836-6.321 10.203-9.016 15.556-2.943 5.847-5.583 11.864-7.778 18.031-1.664 4.674-3.065 9.459-4.066 14.319-.827 4.016-1.591 12.198-1.591 12.198z"/><path id="D" d="M143.012 687.495l33.057.177-6.364 21.036-3.536 20.153-2.652 24.042.177 16.794h-10.43l-2.652-11.137-6.894-14.496-2.121-3.182 4.95-8.485 3.536-10.783.354-10.607-1.414-11.314-2.828-6.187z"/><path id="E" d="M122.75 686.612l5-7 6.75-9.5 7.5-11 2.75-5.25 3.5-6 36.75-.75 5.25 4.25 5.5 1 7.25-1.25 3.5-1.5 44.75.5 2.75 5 3.25 5.5 3.25 5.75 2.75 4.5 3.25 5.75 3.75 5 4.5 6.5z"/><path id="F" d="M147.785 648.251h37.83s-6.075-6.655-8.132-10.607c-2.169-4.166-3.095-8.881-4.243-13.435-1.157-4.595-1.9-9.287-2.652-13.965-.716-4.46-1.309-8.941-1.768-13.435-.33-3.233-.707-9.723-.707-9.723s-2.033 10.42-3.359 15.556c-1.43 5.542-3.043 11.044-4.95 16.44-1.717 4.859-3.87 9.554-5.834 14.319l-6.187 14.849z"/><path id="G" d="M307 542.362c-1.366 9.938-1.366 20.062 0 30 1.413 10.276 4.276 20.319 8 30a174.34 174.34 0 0 0 15 30c-4.882-1.326-9.941-2-15-2s-10.118.674-15 2l-50-90z"/><path id="H" d="M261.43 542.362s-3.889 5.312-1.036 9.879c1.596 2.554 8.696 3.143 8.696 3.143s-2.712 7.967-.851 11.226c1.845 3.231 10.016 4.93 10.016 4.93s-3.62 7.181-1.306 11.235c3.356 5.88 9.756 3.894 9.756 3.894s-4.019 7.076.793 12.72c2.498 2.93 8.02 2.989 8.02 2.989-2.742 2.809-2.756 7.944-.895 11.19 1.446 2.522 7.854 3.794 7.854 3.794s-2.567 6.593-.21 8.95 6.008 3.361 6.008 3.361"/><path id="I" d="M287.432 589.432c.269 1.032.599 2.072 1.157 2.976.737 1.192 1.542 2.524 2.826 3.117 1.615.747 3.871 1.215 5.405.223 1.495-.967 2.203-3.185 1.97-4.899-.268-1.978-3.676-4.676-3.676-4.676s4.888-.981 5.962-2.895c1.008-1.797.52-4.423-.699-6.012-1.202-1.568-3.607-2.811-5.563-2.227-2.196.656-4.022 5.567-4.022 5.567s-.365-3.828-1.398-5.344c-.917-1.347-2.307-2.724-3.962-2.895-1.468-.151-3.271.555-4.12 1.781-1.335 1.929-1.223 4.853-.234 6.903s5.536 4.061 5.536 4.061-.929-2.841 1.504-4.108c1.945-1.013 4.977.863 5.738 2.842.644 1.675-.176 4.634-1.955 5.145-3.549 1.02-4.865-2.344-4.865-2.344s.157 1.88.392 2.784z"/><path id="J" d="M271.342 558.933c.298 1.037.664 2.083 1.283 2.991.817 1.198 1.709 2.536 3.133 3.133 1.79.75 4.291 1.221 5.992.224 1.657-.972 2.442-3.201 2.184-4.923-.298-1.988-4.075-4.7-4.075-4.7s5.418-.986 6.609-2.909c1.118-1.806.576-4.445-.774-6.042-1.332-1.576-3.999-2.825-6.166-2.238-2.434.659-4.459 5.595-4.459 5.595s.034-4.182-1.11-5.705H265c-1.48 1.939-1.628 4.267-.698 6.153 1.028 2.087 6.137 4.081 6.137 4.081s-1.03-2.855 1.667-4.129c2.156-1.018 5.518.867 6.361 2.856.714 1.684-.195 4.657-2.167 5.171-3.934 1.025-5.392-2.356-5.392-2.356s.174 1.889.435 2.798z"/><path id="K" d="M303.809 619.625c.229.942.51 1.891.986 2.716.628 1.088 1.314 2.302 2.408 2.844 1.376.681 3.298 1.108 4.605.203 1.274-.882 1.877-2.906 1.679-4.469-.229-1.805-3.132-4.266-3.132-4.266s4.164-.895 5.079-2.641c.859-1.639.443-4.035-.595-5.485-1.024-1.431-3.073-2.564-4.74-2.032-1.871.598-3.427 5.079-3.427 5.079s-.311-3.492-1.191-4.876c-.781-1.228-1.966-2.485-3.375-2.641-1.251-.138-2.787.507-3.51 1.625-1.138 1.76-1.042 4.428-.199 6.298s4.717 3.705 4.717 3.705-.792-2.592 1.281-3.748c1.657-.924 4.241.787 4.889 2.593.549 1.528-.15 4.228-1.665 4.694-3.024.931-4.145-2.139-4.145-2.139s.133 1.715.334 2.54z"/><path id="L" d="M187.648 583.59s.398 5.172 0 7.711c-.5 3.186-1.985 6.136-2.963 9.209-.785 2.467-2.203 4.834-2.33 7.409-.072 1.468-.002 3.135.906 4.322.786 1.027 2.525.981 3.495 1.852.819.736 1.812 2.717 1.812 2.717"/><path id="M" d="M199.96 606.478s3.173 3.545 2.718 5.557c-.291 1.29-1.813 2.196-3.107 2.47-1.439.305-2.907-.562-4.272-1.111-1.56-.629-2.776-2.902-4.401-2.47-.649.173-1.313 1.117-1.036 1.729.761 1.678 3.602.823 5.437.988 2.235.201 5.023 1.455 6.731 0 .825-.703.744-2.15.518-3.211-.328-1.54-2.589-3.952-2.589-3.952z"/><path id="N" d="M223.289 580.274s-7.256-3.841-11.136-4.566c-2.642-.493-5.444-.65-8.021.195-1.378.452-3.722 2.523-3.722 2.523s3.415-1.203 5.175-1.457c2.65-.383 5.364-.529 8.008-.091 3.338.553 9.697 3.396 9.697 3.396z"/><path id="O" d="M169.902 578.305s5.293-2.955 8.119-2.631c3.522.403 9.116 5.479 9.116 5.479s-5.934-4.222-9.375-4.333c-2.888-.093-8.087 3.125-8.087 3.125z"/><path id="P" d="M203.815 625.378s-4.812-1.636-7.319-1.784c-1.882-.111-3.73.608-5.613.686-2.15.088-4.355-.745-6.45-.255-1.146.268-3.1 1.69-3.1 1.69s2.134-.402 3.209-.347c2.185.112 4.232 1.366 6.42 1.369 2.415.003 4.654-1.271 7.089-1.494 1.913-.175 5.763.136 5.763.136z"/><path id="Q" d="M228.312 591.506c-5.564-.751-9.655-3.271-14.777-3.728-4.392-.391-13.256 1.028-13.256 1.028"/><path id="R" d="M169.124 591.578c5.122-2.52 4.025-3.322 9.147-3.778 4.392-.391 8.98 2.207 8.98 2.207"/><path id="S" d="M225.235 591.026c-5.007 1.19-10.239 5.039-15.904 5.333-4.198.218-8.7-2.79-9.07-6.839"/><path id="T" d="M214.693 588.832c.891 5.021-3.821 6.504-7.206 6.07-2.296-.294-4.425-3.233-3.32-6.102"/><path id="U" d="M206.85 591.188c-.094-.909.709-2.162 1.622-2.212.799-.044 1.639.969 1.622 1.769-.018.834-.935 1.747-1.769 1.769-.661.017-1.407-.669-1.474-1.327z"/><path id="V" d="M169.517 593.334c2.672 1.804 6.095 2.869 10.459 2.747 3.234-.09 6.522-2.538 6.579-5.496"/><path id="W" d="M174.792 589.023c-1.112 4.283 1.762 7.026 5.81 6.953 1.78-.032 3.922-4.551 2.914-6.567"/><path id="X" d="M181.59 591.256c.025-.711-.805-1.631-1.656-1.612-.745.017-1.457.855-1.387 1.474.073.645.987 1.295 1.763 1.26.615-.028 1.262-.608 1.28-1.122z"/><path id="Y" d="M169.096 543.405l-.209 31.693c-.02 6.047-.341 12.103 0 18.14.418 7.402 1.017 14.837 2.502 22.101 1.409 6.894 3.174 13.802 6.047 20.225 1.898 4.244 3.903 8.708 7.298 11.885 2.179 2.039 5.036 3.413 7.923 4.17 2.354.617 4.905.653 7.298.209 4.962-.922 9.424-3.646 13.97-5.838 4.287-2.067 8.487-4.338 12.51-6.881 4.924-3.112 14.178-10.217 14.178-10.217"/><path id="Z" d="M226.084 543.226S267.993 630.033 292 671.777c2.296 3.993 4.475 8.122 7.457 11.632 2.597 3.059 5.585 5.864 8.948 8.053 2.648 1.724 5.607 3.026 8.65 3.877 2.316.648 4.763 1.109 7.158.895 1.66-.149 4.772-1.491 4.772-1.491l-93.953-151.518z"/><path id="a" d="M218.496 542.892s2.801 20.834 4.95 31.113c1.246 5.96 2.817 11.855 4.596 17.678 3.834 12.547 7.957 25.045 13.081 37.123 3.19 7.52 7.035 14.756 10.96 21.92 5.739 10.476 11.382 21.082 18.385 30.759 2.743 3.79 5.595 7.615 9.192 10.607 4.833 4.019 10.391 7.304 16.263 9.546 4.728 1.805 9.824 2.855 14.883 2.994 3.679.101 7.376-.613 10.927-1.58 2.703-.736 7.778-3.182 7.778-3.182s-9.866 1.035-14.496-.354c-5.325-1.598-9.953-5.184-14.142-8.839-3.468-3.025-6.296-6.771-8.839-10.607-4.689-7.073-7.805-15.071-11.667-22.627l-13.435-26.516-16.617-31.82-13.789-28.284-14.142-27.931z"/><path id="b" d="M164.402 543.245s.32 15.621-.707 23.335c-1.071 8.047-2.756 16.106-5.657 23.688-2.299 6.009-5.706 11.564-9.192 16.971-4.649 7.211-10.825 13.349-15.556 20.506-4.191 6.341-8.106 12.908-11.314 19.799-2.596 5.578-5 11.325-6.364 17.324-1.102 4.848-1.57 9.88-1.414 14.849.165 5.248 2.475 15.556 2.475 15.556l12.728-18.738c5.938-9.088 12.311-17.948 17.324-27.577 4.902-9.416 8.805-19.347 12.374-29.345 3.222-9.026 6.513-18.131 8.132-27.577 1.136-6.63.801-13.431 1.061-20.153l.707-28.638z"/><path id="c" d="M104.75 709.612l15-17.75s4.967 5.177 6.75 8.25c1.933 3.332 3.457 7 4.134 10.793.627 3.514.644 7.223-.134 10.707-.658 2.948-2.103 5.718-3.75 8.25-1.094 1.682-4 4.5-4 4.5z"/><path id="d" d="M126 687.862s6.092 6.256 8.25 10c1.91 3.312 3.323 6.987 4 10.75.694 3.855.732 7.902 0 11.75-.636 3.344-1.995 6.583-3.75 9.5-2.162 3.593-8.177 9.561-8.177 9.561l-3.854-5.104c3.078-3.071 5.067-4.745 6.78-7.707 1.719-2.971 3.041-6.328 3.311-9.75.26-3.297-.532-6.677-1.677-9.78-1.44-3.902-3.788-7.47-6.384-10.72-1.435-1.796-5-4.75-5-4.75l2.75-3.75z"/><path id="e" d="M130.75 742.862s3.895-3.112 5.5-5a32.98 32.98 0 0 0 4.53-6.97c1.576-3.255 2.884-6.711 3.47-10.28.5-3.043.397-6.192 0-9.25-.588-4.53-1.763-9.025-3.5-13.25-1.462-3.556-5.75-10-5.75-10l7.866.323s4.663 7.674 5.945 11.927c1.21 4.016 1.444 8.294 1.543 12.487.074 3.161-.117 6.354-.72 9.457-.568 2.923-1.651 5.728-2.707 8.513-.781 2.06-1.59 4.126-2.677 6.043-.855 1.508-3 4.25-3 4.25s3.34 5.407 4.75 8.25c1.527 3.078 2.969 6.222 4 9.5 1.432 4.553 2.713 9.236 3 14 .388 6.431-.51 12.927-1.75 19.25-1.207 6.157-2.815 12.33-5.5 18-2.186 4.616-5.216 8.838-8.5 12.75-3.259 3.882-6.925 7.486-11 10.5-4.38 3.239-9.196 5.967-14.25 8-6.788 2.73-13.984 4.636-21.25 5.5-4.966.59-10.041.391-15-.25-4.51-.583-8.944-1.789-13.25-3.25-3.534-1.199-7.061-2.563-10.25-4.5-3.292-2-6.164-4.643-9-7.25-1.866-1.715-5.25-5.5-5.25-5.5l-8 6.5v-8.5l94-75.75 4.25 4.75 6.25-5.25z"/><path id="f" d="M61.5 806.862l12.75-9.75 30.25-25 13.543-11.336s2.874 6.92 3.457 10.586c.747 4.691.63 9.542 0 14.25s-1.407 9.617-3.75 13.75c-2.907 5.127-7.276 9.589-12.25 12.75-4.382 2.784-9.6 4.342-14.75 5-4.558.583-9.326.244-13.75-1-2.978-.837-5.596-2.66-8.25-4.25-2.518-1.509-7.25-5-7.25-5z"/><path id="g" d="M75 797.862l29.75-24.75s1.69 4.934 1.75 7.5c.076 3.219-.303 6.623-1.75 9.5-1.483 2.95-4.029 5.38-6.75 7.25-2.481 1.705-5.412 2.847-8.375 3.375-2.709.483-5.559.325-8.25-.25-2.247-.48-6.375-2.625-6.375-2.625z"/><path id="h" d="M42.5 823.362l14.75-12.75s7.836 6.721 12.5 8.75a39.82 39.82 0 0 0 15.25 3.25c5.426.067 10.912-1.114 16-3 5.146-1.908 10.079-4.683 14.25-8.25a37.54 37.54 0 0 0 8.5-10.5c2.305-4.236 3.741-8.988 4.5-13.75.577-3.621.186-7.338 0-11-.209-4.099-.27-8.264-1.25-12.25-.643-2.615-3-7.5-3-7.5l13.5-10.75s4.457 6.604 6 10.25c1.82 4.301 3.119 8.872 3.75 13.5.529 3.881.343 7.848 0 11.75-.46 5.227-1.29 10.46-2.75 15.5-1.653 5.708-3.615 11.452-6.75 16.5-2.99 4.815-7.038 8.957-11.25 12.75-3.952 3.559-8.272 6.814-13 9.25-4.076 2.101-8.511 3.564-13 4.5-5.237 1.092-10.65 1.251-16 1.25a80.72 80.72 0 0 1-12.75-1c-3.812-.611-7.666-1.315-11.25-2.75-3.57-1.429-6.947-3.412-10-5.75-2.994-2.293-8-8-8-8z"/><path id="i" d="M52.128 816.112s4.987-.833 7.461-.5c2.505.338 5.078 1.023 7.242 2.5 1.331.909 3.292 3.75 3.292 3.75s-4.275 2.336-6.583 2.5c-2.606.185-5.356-.395-7.681-1.75-1.244-.725-2.372-1.872-3.072-3.25-.489-.962-.658-3.25-.658-3.25z"/><path id="j" d="M85.5 726.112l-6-7.25c-2.266-2.402-4.623-4.75-7.25-6.75-2.024-1.541-4.072-3.239-6.5-4-1.434-.449-3.125-.855-4.5-.25-1.084.477-2.05 1.583-2.25 2.75-.375 2.182 1.086 4.366 2.25 6.25 1.27 2.056 3.219 3.616 5 5.25 1.18 1.082 3.12 1.529 3.75 3 .757 1.769-.249 3.843-.5 5.75l-.75 4.25"/><path id="k" d="M62.5 712.496s.426 1.588 1 2.116c.524.482 1.292.824 2 .75 1.081-.113 2.75-1.75 2.75-1.75"/><path id="l" d="M58.5 709.862s-3.465-1.731-5-1c-1.615.769-2.494 2.961-2.5 4.75-.01 2.721 2.321 4.935 3.75 7.25 1.191 1.929 2.218 4.099 4 5.5 1.204.947 2.755 2.086 4.25 1.75 1.209-.272 2.257-1.535 2.5-2.75s-.496-2.517-1.25-3.5c-.802-1.046-1.938-2.371-3.25-2.25-1.032.095-1.569 1.377-2.189 2.207-.616.825-1.487 2.707-1.487 2.707"/><path id="m" d="M50.25 714.862s-2.448.817-3.25 1.75c-.807.94-1.302 2.262-1.25 3.5.084 2.012 1.353 3.845 2.5 5.5 1.343 1.937 3.255 3.416 5 5 1.359 1.234 2.503 2.938 4.25 3.5 1.193.384 2.894.665 3.75-.25.797-.852.25-2.36 0-3.5-.256-1.165-.428-2.727-1.5-3.25-1.308-.638-3.14.058-4.25 1-.826.701-1.25 3-1.25 3"/><path id="n" d="M46.25 724.362s-3.043 2.109-3.25 3.75c-.14 1.109.791 2.135 1.5 3 1.807 2.204 4.322 3.756 6.75 5.25 1.492.918 2.998 2.229 4.75 2.25.821.01 1.842-.288 2.25-1 .376-.655.077-1.57-.25-2.25-.613-1.275-1.587-3.047-3-3-.885.029-1.401 1.186-1.75 2-.362.846-.25 2.75-.25 2.75"/><path id="o" d="M44.75 733.112s-1.098 1.95-1 3c.159 1.709 1.297 3.277 2.5 4.5 1.56 1.586 3.646 2.71 5.78 3.336 1.111.326 2.586.913 3.47.164 1.088-.922 1.159-2.985.5-4.25-.568-1.091-2.034-1.938-3.25-1.75-.918.142-1.506 1.179-1.939 2-.437.827-.561 2.75-.561 2.75"/><path id="p" d="M47.768 742.155L43 751.862s.336 3.036 1.5 3.646c.982.515 2.322-.101 3.25-.707 1.187-.775 2.5-3.439 2.5-3.439l2.061-6.841"/><path id="q" d="M59.75 707.362s-5.512-1.229-8-2.5c-1.896-.969-3.746-2.194-5.116-3.823-1.486-1.767-2.561-3.94-3.134-6.177-.642-2.504-.25-7.75-.25-7.75l5.5 3.75c2.093 1.16 4.519 1.658 6.573 2.884 1.532.914 2.945 2.045 4.22 3.293 1.021 1 2.031 2.065 2.707 3.323.661 1.23 1.039 2.619 1.25 4 .176 1.153 0 3.5 0 3.5z"/><path id="r" d="M71.25 710.112s3.313-3.896 5.5-5.116c2.535-1.414 5.506-2.042 8.396-2.311 2.699-.251 5.395.788 8.104.677 2.532-.104 7.5-1.25 7.5-1.25s-1.936 5.417-4 7.25c-2.152 1.911-5.223 2.494-8 3.25-3.332.906-6.802 1.693-10.25 1.5-1.635-.092-3.35-.401-4.75-1.25-1.059-.642-2.5-2.75-2.5-2.75z"/><path id="s" d="M72.409 710.362s4.326-1.625 6.591-2c2.468-.408 5.052.264 7.5-.25 1.318-.277 3.75-1.5 3.75-1.5"/><path id="t" d="M72.841 684.448s-2.059 2.992-2.164 4.72.449 3.63 1.573 4.945c.848.991 2.207 1.577 3.5 1.75 1.685.226 3.697.092 5-1 1.577-1.322 2.248-3.692 2.25-5.75.002-1.609-1.75-4.5-1.75-4.5s3.173 2.218 5 2.25c1.981.034 4.323-.657 5.5-2.25 1.094-1.48 1.193-3.794.5-5.5-.578-1.424-2.048-2.497-3.5-3-1.891-.655-4.137-.483-6 .25-.715.281-1.75 1.5-1.75 1.5s1.395-3.093 1.5-4.75c.117-1.86.069-3.974-1-5.5-.664-.948-1.874-1.483-3-1.75-1.3-.308-2.824-.384-4 .25-1.467.792-2.622 2.377-3 4-.308 1.321.396 2.691.75 4 .323 1.196 1.25 3.5 1.25 3.5s-3.721-1.987-5.75-2c-1.845-.012-3.916.476-5.25 1.75-.839.802-1.194 2.091-1.25 3.25-.075 1.555.217 3.335 1.25 4.5 1.017 1.146 2.718 1.74 4.25 1.75 2.184.014 6.091-2.414 6.091-2.414z"/><path id="u" d="M70 680.862c3.43-.473 5.721-3.225 7.75-6.5 1.435 2.256 1.709 4.125 5.75 7.25-3.551 1.292-5.55 3.827-6.75 7-1.536-2.94-2.518-6.158-6.75-7.75z"/><path id="v" d="M175.5 687.362s-4.923 15.893-6.75 24c-1.524 6.763-2.544 13.634-3.5 20.5-.856 6.143-1.647 12.307-2 18.5-.38 6.656-.125 20-.125 20h12.125s1.432-13.699 2.5-20.5c1.436-9.138 2.825-18.323 5.25-27.25 1.506-5.545 3.724-10.873 5.75-16.25 1.266-3.36 2.659-6.67 4-10l3.75-9.25z"/><path id="w" d="M211.75 687.362s-11.477 17.396-16 26.75c-2.87 5.936-5.088 12.19-7 18.5-1.935 6.384-3.395 12.921-4.5 19.5-.652 3.884-.885 7.828-1.25 11.75l-.5 6.25 11.5.25s3.617-18.596 6.75-27.5c2.685-7.632 6.161-15.019 10.25-22 4.255-7.264 9.298-14.086 14.75-20.5 2.901-3.412 6.271-6.397 9.5-9.5 1.063-1.021 3.25-3 3.25-3z"/><path id="x" d="M203 769.362s3.582-11.965 6.5-17.439c3.293-6.178 7.477-11.939 12.25-17.061 4.691-5.034 9.916-9.756 15.879-13.189 5.884-3.388 12.501-5.51 19.121-7.018 5.224-1.19 10.642-1.501 16-1.543 5.183-.041 15.5 1.25 15.5 1.25"/><path id="y" d="M162.75 702.779c.5.5 1.25 1 2.5 1 2.25 0 3.75-1.333 3.75-3s-1.5-3.167-3.75-3.167c-1.25 0-1.5.333-2.25.833l-.25-.167c.75-.5 2.5-2 2.5-3.167 0-1.333-1.75-3-3.75-3s-3.75 1.667-3.75 3c0 1.167 1.75 2.667 2.5 3.167l-.25.167c-.75-.5-1-.833-2.25-.833-2.25 0-3.75 1.5-3.75 3.167s1.5 3 3.75 3c1.25 0 2-.5 2.5-1l.25.167-.5 1.667c-.25.833-1 2.5-1 2.5 2.5-.333 2.5-.333 5 0l-1-2.5c-.25-.833-.25-.667-.5-1.667z"/><path id="z" d="M296.75 702.862l-12.25 16.5s9.346 1.383 13.75 3c4.165 1.529 8.094 3.737 11.75 6.25 4.186 2.878 11.5 10 11.5 10l8.5-6.25v-32s-6.082 2.448-9.25 3.25c-3.599.911-7.288 1.663-11 1.75-2.263.053-4.528-.318-6.75-.75-2.124-.412-6.25-1.75-6.25-1.75z"/><path id="AA" d="M216.813 688.112c-2.358.769-.737 3.107.616 3.989l2.759 2.636-11.375 5.781c-1.757 1.268.053 3.162.533 4.64.306.963 1.641 2.275-.038 2.562l-7.679 4.19c-.901 1.594.72 3.089 1.208 4.586.16.95 1.747 2.268.808 2.935-2.192 1.641-5.311 2.579-7.385 4.354-.659 1.691 1.763 3.599 2.344 5.109 1.222 1.164-.036 1.686-1.06 2.267-1.651 1.126-3.475 2.034-5.007 3.311-.762 1.65.934 3.028 1.517 4.49.377.919 1.859 2.197.101 2.422-1.487.768-3.139 1.264-4.511 2.223-.977 1.645.791 3.133 1.353 4.636.14.837 2.028 2.378.553 2.563-1.568.561-3.221.918-4.726 1.633-1.531 1.555.628 2.829 1.448 4.038.394.805 2.41 1.839.805 2.361-1.179 1.036-3.439 1.5-3.254 3.415.679 1.281 1.779 2.291 2.643 3.452-1.127 1.298-2.941 2.174-3.449 3.863 1.482.863 3.203.826 4.252-.495.951-1.158 2.892-1.928 2.639-3.661-.661-1.177-1.664-2.129-2.474-3.207 1.233-.993 2.95-1.539 3.753-2.937-.046-1.859-2.408-3.289-3.032-5.029.632-.499 3.235-.726 4.219-1.052 2.469-.36 1.308-2.911.39-4.233l-1.954-3.624c1.83-.934 3.828-1.591 5.543-2.714.993-1.654-.823-3.115-1.413-4.603-.252-.899-1.968-2.167-.417-2.611l5.937-3.9c.755-1.646-.921-3.036-1.494-4.503-1.078-1.128-.545-1.888.715-2.481l5.547-4.065c.66-1.652-.892-3.115-1.396-4.642-.108-.873-1.858-2.29-.466-2.666l8.002-4.323c.926-1.573-.667-3.089-1.127-4.588-.69-1.085-1.061-2.06.533-2.352l10.95-5.63c1.452-1.711-.798-2.902-1.804-4.011-1.506-1.327-2.806-2.925-4.457-4.062-.862-.175-1.122.399-1.715.992z"/><path id="AB" d="M186.875 688.612c-2.551 1.165-4.871 2.858-7.329 4.235-2 .659-1.557 2.793-.361 4.012l2.689 4.034-6.837 4.352c-.811 1.643.985 2.873 1.671 4.22l2.229 3.272-6.198 4.577c-.682 1.685 1.117 2.906 1.818 4.288.444.851 1.496 1.789 1.562 2.585l-5.897 4.925c-.587 1.623 1.031 2.886 1.643 4.281.221.846 1.825 1.986.971 2.605-1.595 1.217-3.395 2.201-4.849 3.577-.665 1.706 1.174 2.898 1.908 4.269.79.878 1.401 1.73-.029 2.278-1.088.974-3.387 1.881-2.275 3.695l2.377 3.64c-1.107 1.027-3.421 1.655-2.812 3.563l2.219 4.406c-1.022 1.011-2.94 1.565-2.834 3.262.789 1.612 1.995 3.001 2.959 4.519 2.613 2.148 3.349-1.871 1.444-3.213-.966-.914-.987-1.68.293-2.24 1.561-.714 1.774-2.469.753-3.754l-1.584-3.168c1.092-1.004 3.108-1.507 3.046-3.258-.714-1.551-1.822-2.901-2.702-4.367 1.159-.963 2.499-1.734 3.526-2.837.622-1.697-1.189-2.875-1.918-4.241-.803-.875-1.356-1.707.088-2.2 1.335-1.02 2.844-1.841 4.054-3.004.671-1.639-1.004-2.928-1.625-4.337-.266-.843-1.631-1.877-1.176-2.595l5.839-4.895c.598-1.668-1.151-2.859-1.846-4.225-.404-.811-1.483-1.742-1.493-2.483l6.061-4.479c.681-1.684-1.115-2.908-1.815-4.29l-2.071-3.039 6.837-4.352c.802-1.637-.97-2.883-1.642-4.239l-1.851-2.784c2.282-1.554 4.814-2.791 6.905-4.589 1.424-1.699.455-1.195.126-1.63-.385-.508-1.875-.375-1.875-.375z"/><path id="AC" d="M89.146 746.684l14.303-3.277-7.859 14.084s.662-3.405-.413-4.424c-.932-.882-3.846-.15-3.846-.15s2.314-3.077 1.674-4.566c-.553-1.287-3.858-1.667-3.858-1.667z"/><path id="AD" d="M103.808 736.888c.588.483.522 1.809-.076 2.279-.507.399-1.548.151-1.898-.391-.279-.433-.022-1.143.342-1.508.394-.396 1.201-.734 1.632-.379z"/><path id="AE" d="M53.138 777.451c.588.483.522 1.809-.076 2.279-.507.399-1.548.151-1.898-.391-.279-.433-.023-1.143.342-1.508.394-.396 1.201-.734 1.632-.379z"/><path id="AF" d="M53.25 818.112s5.681-.833 8.5-.5c2.854.338 5.785 1.023 8.25 2.5 1.516.909 3.75 3.75 3.75 3.75s-4.87 2.336-7.5 2.5c-2.969.185-6.102-.395-8.75-1.75-1.417-.725-2.703-1.872-3.5-3.25-.557-.962-.75-3.25-.75-3.25z"/><path id="AG" d="M53.75 818.862s3.391 2.082 5.25 2.75c1.523.547 4.75 1 4.75 1"/></defs></svg>