<svg xmlns="http://www.w3.org/2000/svg" xmlns:xlink="http://www.w3.org/1999/xlink" width="360" height="540" viewBox="0 0 95.25 142.875" xmlns:v="https://vecta.io/nano"><g transform="matrix(.264583 0 0 .264583 0 -135.562492)"><rect rx="29.944" y="512.862" x=".5" height="539" width="359" fill="#fff" stroke="#000"/><g fill="#f55"><path d="M180 737.362s6 15 13 25 17 20 17 20-10 10-17 20-13 25-13 25-6-15-13-25-17-20-17-20 10-10 17-20 13-25 13-25m-152.5-195l-9 50h5l2.344-13h8.313l2.344 13h5l-9-50zm2.5 13.906l3.25 18.094h-6.5zm297.5 466.094l-9-50h5l2.344 13h8.313l2.344-13h5l-9 50zm2.5-13.906l3.25-18.094h-6.5z"/><use xlink:href="#B"/><use xlink:href="#B" x="300" y="315"/></g></g><defs ><path id="B" d="M30 602.362s3 7.5 6.5 12.5 8.5 10 8.5 10-5 5-8.5 10-6.5 12.5-6.5 12.5-3-7.5-6.5-12.5-8.5-10-8.5-10 5-5 8.5-10 6.5-12.5 6.5-12.5"/></defs></svg>