<svg xmlns="http://www.w3.org/2000/svg" xmlns:xlink="http://www.w3.org/1999/xlink" width="360" height="540" viewBox="0 0 95.25 142.875" xmlns:v="https://vecta.io/nano"><style><![CDATA[.B{stroke-linejoin:round}.C{stroke:#55a}.D{stroke-linecap:round}.E{stroke-width:2}.F{stroke-width:1.817}.G{fill:none}.H{fill:#ff5}.I{fill:#55a}.J{fill:#f55}.K{fill:#fff}.L{stroke:#000}.M{stroke-width:2.147}]]></style><g transform="matrix(.264583 0 0 .264583 0 -135.562489)"><rect rx="29.944" y="512.862" x=".5" height="539" width="359" class="K L"/><path d="M30 542.362v5h5v35a5 5 0 1 1-10 0v-5h-5v5a10 10 0 1 0 20 0v-40zm300 480v-5h-5v-35a5 5 0 1 1 10 0v5h5v-5a10 10 0 1 0-20 0v40z" class="J"/><path d="M30 662.362v360h270" class="C E G"/><g class="J"><use xlink:href="#B"/><use xlink:href="#C"/></g><path d="M329 702.521l-3.024 3.712-3.889 2.652h-5.127l-3.889-.707.354 174.479L329 892.733zm-16.282-75.484v46.669l13.435-2.298L329 674.59v-45.255l-8.327-.53z"/><use xlink:href="#D"/><use xlink:href="#E" class="H"/><path d="M142.493 774.902l3.884 6.311 128.656-125.501-6.069-4.127z"/><use xlink:href="#F" class="H"/><path d="M118.75 679.862l.25 75 7.25 4-.5-81.25-4-3.75z"/><use xlink:href="#G" class="B C E H"/><use xlink:href="#H"/><use xlink:href="#I" class="H"/><g class="B C D E G"><use xlink:href="#J"/><use xlink:href="#K"/><use xlink:href="#L"/><use xlink:href="#M"/><use xlink:href="#N"/><use xlink:href="#O"/><use xlink:href="#P"/><use xlink:href="#Q"/></g><g transform="matrix(-.848902 -.114804 0 1.022569 57.779657 -14.305588)"><use xlink:href="#R" class="H"/><g class="B C D G M"><use xlink:href="#S"/><use xlink:href="#T"/><use xlink:href="#U"/><use xlink:href="#V"/><use xlink:href="#W"/><use xlink:href="#X"/><use xlink:href="#Y"/><use xlink:href="#Z"/><use xlink:href="#a"/><use xlink:href="#b"/><use xlink:href="#c"/><use xlink:href="#d"/><use xlink:href="#e"/><use xlink:href="#f"/><use xlink:href="#g"/></g></g><g class="E"><g class="B"><use xlink:href="#h" class="C J"/><g stroke="#fff" class="K"><use xlink:href="#i"/><use xlink:href="#j"/><use xlink:href="#k"/></g></g><path d="M60 542.362h270v360" class="C G"/></g><g transform="matrix(-1.20804 0 0 1.002825 -8.379238 14.435068)" class="B C F"><g class="I"><use xlink:href="#l"/><use xlink:href="#m"/></g><g class="G"><use xlink:href="#n" class="D"/><use xlink:href="#o"/><use xlink:href="#p" class="D"/></g><use xlink:href="#q" class="I"/><g class="D G"><use xlink:href="#r"/><use xlink:href="#s"/><use xlink:href="#t"/></g><use xlink:href="#u" class="I"/><g class="D G"><use xlink:href="#v"/><path d="M-148.062 641.232c-1.155-.464-2.249-.918-3.432-.907-.987.009-1.91.378-2.849.809"/></g><use xlink:href="#w" class="I"/><g class="G"><use xlink:href="#x" class="D"/><use xlink:href="#y"/><g class="D"><use xlink:href="#p" x="31.884" y="0.967"/><use xlink:href="#z"/></g></g></g><g class="B C E"><use xlink:href="#AA" class="D G"/><use xlink:href="#AB"/><use xlink:href="#AC" class="I"/></g><use xlink:href="#AD" class="K"/><g class="C E B"><g class="H"><use xlink:href="#AE"/><path d="M165.315 705.139l-1.33-10.218 5.453-3.037 2.206 6.069z"/></g><g class="J"><use xlink:href="#AF"/><g class="D"><path d="M132.54 683.386l.478 80.777m83.027-72.038l-72.824 71.853m-9.71-72.824l4.369-3.884m-4.611 11.166l10.681-8.496m-10.681 14.807l17.235-12.38m-16.75 19.177l23.547-17.478m-23.304 25.004l24.917-19.591m-25.16 26.873l24.196-21.04m-23.711 27.109l19.63-16.954m-19.387 23.022l11.403-10.165m.977 23.759l.728 6.554m3.642-12.622l.485 8.253m4.613-13.594l.971 8.739m4.369-14.322l1.214 7.525m2.192-18.193l2.42 14.794m.27-24.698l4.832 20.314"/><path d="M171.648 704.832l5.558 24.662m-.971-31.058l4.855 26.702m1.456-26.702l3.641 20.876m1.457-21.119l3.398 16.264m2.185-16.506l2.913 12.38m3.158-13.837l1.93 9.725m2.195-10.453l1.214 5.826m3.883-7.283l.722 4.129"/></g></g><g class="G D"><use xlink:href="#AG"/><use xlink:href="#AH"/><use xlink:href="#AI"/><use xlink:href="#AJ"/><use xlink:href="#AK"/><use xlink:href="#AL"/></g><use xlink:href="#AM" class="J"/></g><use xlink:href="#AN"/><g class="B C E H"><path d="M330 555.946l-23.175 20.13v25.718l5.782.797.399-23.725L330 564.712z"/><use xlink:href="#AO"/></g><ellipse transform="matrix(1.813764 0 0 1.435896 -236.75694 471.8796)" cx="292.196" cy="94.024" rx=".827" ry="1.045" class="H"/><ellipse transform="matrix(1.276352 0 0 1.248606 -81.469017 488.45105)" cx="299.595" cy="97.68" rx="1.959" ry="2.002" class="H"/><ellipse transform="matrix(1.296939 0 0 1.218336 -90.926681 490.19984)" cx="310.085" cy="101.424" rx="2.699" ry="2.873" class="H"/><ellipse transform="matrix(1.45612 0 0 1.435896 -148.05197 466.6921)" cx="323.1" cy="104.035" rx="3.09" ry="3.134" class="H"/><g class="B C E H"><path d="M306.884 625.623v50.205l5.48-1.768v-46.492z"/><use xlink:href="#AP"/></g><g class="I"><use xlink:href="#AQ"/><use xlink:href="#AR"/></g><g class="B C E"><path d="M270.689 652.35l26.083 16.617" class="D G"/><use xlink:href="#AS" class="I"/></g><use xlink:href="#AT" class="K"/><path d="M166.77 704.237l5.212-5.088 1.929 7.516-5.694 6.069zm-10.417-3.974l6.541-4.736 1.493 7.304-6.105 6.29z" class="B C E J"/><use xlink:href="#AU" class="B E L"/><g class="H"><use xlink:href="#AV"/><use xlink:href="#AW"/><use xlink:href="#AX"/><use xlink:href="#AY"/><use xlink:href="#AZ"/><use xlink:href="#Aa"/></g><use xlink:href="#Ab" class="B D E G L"/><g transform="rotate(180 180 782.362)"><g class="J"><use xlink:href="#B"/><use xlink:href="#C"/></g><path d="M329 702.521l-3.024 3.712-3.889 2.652h-5.127l-3.889-.707.354 174.479L329 892.733zm-16.282-75.484v46.669l13.435-2.298L329 674.59v-45.255l-8.327-.53z"/><use xlink:href="#D"/><use xlink:href="#E" class="H"/><path d="M142.493 774.902l3.884 6.311 128.656-125.501-6.069-4.127z"/><use xlink:href="#F" class="H"/><path d="M118.75 679.862l.25 75 7.25 4-.5-81.25-4-3.75z"/><use xlink:href="#G" class="B C E H"/><use xlink:href="#H"/><use xlink:href="#I" class="H"/><g class="B C D E G"><use xlink:href="#J"/><use xlink:href="#K"/><use xlink:href="#L"/><use xlink:href="#M"/><use xlink:href="#N"/><use xlink:href="#O"/><use xlink:href="#P"/><use xlink:href="#Q"/></g><g transform="matrix(-.848902 -.114804 0 1.022569 57.779657 -14.305588)"><use xlink:href="#R" class="H"/><g class="B C D G M"><use xlink:href="#S"/><use xlink:href="#T"/><use xlink:href="#U"/><use xlink:href="#V"/><use xlink:href="#W"/><use xlink:href="#X"/><use xlink:href="#Y"/><use xlink:href="#Z"/><use xlink:href="#a"/><use xlink:href="#b"/><use xlink:href="#c"/><use xlink:href="#d"/><use xlink:href="#e"/><use xlink:href="#f"/><use xlink:href="#g"/></g></g><g class="E"><g class="B"><use xlink:href="#h" class="C J"/><g stroke="#fff" class="K"><use xlink:href="#i"/><use xlink:href="#j"/><use xlink:href="#k"/></g></g><path d="M60 542.362h270v360" class="C G"/></g><g transform="matrix(-1.20804 0 0 1.002825 -8.379238 14.435068)" class="B C F"><g class="I"><use xlink:href="#l"/><use xlink:href="#m"/></g><g class="G"><use xlink:href="#n" class="D"/><use xlink:href="#o"/><use xlink:href="#p" class="D"/></g><use xlink:href="#q" class="I"/><g class="D G"><use xlink:href="#r"/><use xlink:href="#s"/><use xlink:href="#t"/></g><use xlink:href="#u" class="I"/><g class="D G"><use xlink:href="#v"/><path d="M-148.062 641.232c-1.155-.464-2.249-.918-3.432-.907-.987.009-1.91.378-2.849.809"/></g><use xlink:href="#w" class="I"/><g class="G"><use xlink:href="#x" class="D"/><use xlink:href="#y"/><g class="D"><use xlink:href="#p" x="31.884" y="0.967"/><use xlink:href="#z"/></g></g></g><g class="B C E"><use xlink:href="#AA" class="D G"/><use xlink:href="#AB"/><use xlink:href="#AC" class="I"/></g><use xlink:href="#AD" class="K"/><g class="B C E H"><use xlink:href="#AE"/><path d="M165.315 705.139l-1.33-10.218 5.453-3.037 2.206 6.069z"/></g><g class="J B C E"><use xlink:href="#AF"/><g class="D"><path d="M132.54 683.386l.478 80.777m83.027-72.038l-72.824 71.853m-9.71-72.824l4.369-3.884m-4.611 11.166l10.681-8.496m-10.681 14.807l17.235-12.38m-16.75 19.177l23.547-17.478m-23.304 25.004l24.917-19.591m-25.16 26.873l24.196-21.04m-23.711 27.109l19.63-16.954m-19.387 23.022l11.403-10.165m.977 23.759l.728 6.554m3.642-12.622l.485 8.253m4.613-13.594l.971 8.739m4.369-14.322l1.214 7.525m2.192-18.193l2.42 14.794m.27-24.698l4.832 20.314"/><path d="M171.648 704.832l5.558 24.662m-.971-31.058l4.855 26.702m1.456-26.702l3.641 20.876m1.457-21.119l3.398 16.264m2.185-16.506l2.913 12.38m3.158-13.837l1.93 9.725m2.195-10.453l1.214 5.826m3.883-7.283l.722 4.129"/></g></g><g class="G B C D E"><use xlink:href="#AG"/><use xlink:href="#AH"/><use xlink:href="#AI"/><use xlink:href="#AJ"/><use xlink:href="#AK"/><use xlink:href="#AL"/></g><use xlink:href="#AM" class="B C E J"/><use xlink:href="#AN"/><g class="H"><g class="B C E"><path d="M330 555.946l-23.175 20.13v25.718l5.782.797.399-23.725L330 564.712z"/><use xlink:href="#AO"/></g><ellipse transform="matrix(1.813764 0 0 1.435896 -236.75694 471.8796)" cx="292.196" cy="94.024" rx=".827" ry="1.045"/><ellipse transform="matrix(1.276352 0 0 1.248606 -81.469017 488.45105)" cx="299.595" cy="97.68" rx="1.959" ry="2.002"/><ellipse transform="matrix(1.296939 0 0 1.218336 -90.926681 490.19984)" cx="310.085" cy="101.424" rx="2.699" ry="2.873"/><ellipse transform="matrix(1.45612 0 0 1.435896 -148.05197 466.6921)" cx="323.1" cy="104.035" rx="3.09" ry="3.134"/><g class="B C E"><path d="M306.884 625.623v50.205l5.48-1.768v-46.492z"/><use xlink:href="#AP"/></g></g><g class="I"><use xlink:href="#AQ"/><use xlink:href="#AR"/></g><g class="B C E"><path d="M270.689 652.35l26.083 16.617" class="D G"/><use xlink:href="#AS" class="I"/></g><use xlink:href="#AT" class="K"/><path d="M166.77 704.237l5.212-5.088 1.929 7.516-5.694 6.069zm-10.417-3.974l6.541-4.736 1.493 7.304-6.105 6.29z" class="B C E J"/><use xlink:href="#AU" class="B E L"/><g class="H"><use xlink:href="#AV"/><use xlink:href="#AW"/><use xlink:href="#AX"/><use xlink:href="#AY"/><use xlink:href="#AZ"/><use xlink:href="#Aa"/></g><use xlink:href="#Ab" class="B D E G L"/></g><path d="M180 767.362s3 5.167 6.5 8.5 8.5 6.5 8.5 6.5-5 3.333-8.5 6.667-6.5 8.333-6.5 8.333-3-5-6.5-8.333-8.5-6.5-8.5-6.5 5-3.5 8.5-6.833 6.5-8.333 6.5-8.333" class="H"/><g class="J"><path d="M180 772.362s2 3.444 4.333 5.667 5.667 4.333 5.667 4.333-3.333 2.222-5.667 4.444-4.333 5.556-4.333 5.556-2-3.333-4.333-5.556-5.667-4.333-5.667-4.333 3.333-2.333 5.667-4.556 4.333-5.556 4.333-5.556M90 557.362s6 15 13 25 17 20 17 20-10 10-17 20-13 25-13 25-6-15-13-25-17-20-17-20 10-10 17-20 13-25 13-25"/><path d="M30 602.362s3 7.5 6.5 12.5 8.5 10 8.5 10-5 5-8.5 10-6.5 12.5-6.5 12.5-3-7.5-6.5-12.5-8.5-10-8.5-10 5-5 8.5-10 6.5-12.5 6.5-12.5m240 405s-6-15-13-25-17-20-17-20 10-10 17-20 13-25 13-25 6 15 13 25 17 20 17 20-10 10-17 20-13 25-13 25m60-45s-3-7.5-6.5-12.5-8.5-10-8.5-10 5-5 8.5-10 6.5-12.5 6.5-12.5 3 7.5 6.5 12.5 8.5 10 8.5 10-5 5-8.5 10-6.5 12.5-6.5 12.5"/></g></g><defs ><path id="B" d="M292.458 677.372c-5.222 4.598-9.395 9.447-13.523 14.657-5.261 6.639-10.225 13.589-14.246 21.045-3.748 6.948-6.76 14.327-9.096 21.868-2.128 6.87-3.585 13.974-4.428 21.116-.748 6.344-.866 12.776-.54 19.155.273 5.347 1.353 10.621 2.085 15.925.838 6.07 1.017 12.284 2.642 18.192 1.852 6.733 4.839 13.136 8.016 19.355 2.532 4.958 5.917 8.999 8.755 14.222l6.13-5.449c-3.406-6.244-7.126-12.347-9.877-18.902-2.424-5.777-4.274-11.802-5.79-17.88-1.73-6.936-3.188-13.989-3.746-21.116-.461-5.886-.226-11.833.341-17.71.696-7.227 1.853-14.447 3.746-21.457 1.705-6.311 4.081-12.452 6.812-18.391 2.929-6.372 6.201-12.642 10.217-18.391 3.78-5.411 7.606-10.501 12.942-14.986-.454-3.633-.667-7.108-.44-11.251z"/><path id="C" d="M297.338 706.941c-4.007 6.01-8.788 11.572-12.021 18.031-3.637 7.266-6.262 15.073-8.132 22.981-1.531 6.472-2.317 13.15-2.475 19.799-.183 7.681.307 15.438 1.768 22.981 1.34 6.916 3.72 13.623 6.364 20.153 2.077 5.129 4.95 9.899 7.425 14.849l15.91-11.314.354-105.712c-1.414-.118-2.847-.098-4.243-.354-1.688-.308-3.3-.943-4.95-1.414z"/><path id="D" d="M329.585 609.781l-11.752-1.045-11.752-1.828-10.446-2.96-8.009-3.482-7.138-2.96 4.701 6.268 6.355 6.964 11.491 6.529 13.058 4.44 7.313 1.306 6.181.696z"/><path id="E" d="M138.593 769.519l4.596 6.718 5.657 8.839 131.168-126.219s-7.246-5.643-10.607-7.778c-1.105-.173-3.182 1.061-3.182 1.061s-.886 2.934-2.121 3.536c-.854.416-2.828-.354-2.828-.354l-2.828 2.828s-1.993 4.935-3.536 7.071c-3.323 4.602-7.687 8.406-12.063 12.021-3.393 2.803-7.075 5.28-10.918 7.425-2.756 1.538-5.751 2.604-8.643 3.868l-5.588 2.385z"/><path id="F" d="M112.25 690.112l.25 62.75s7.359 2.97 10.75 5c3.575 2.14 10 7.5 10 7.5l-.75-83-10.75-9.25z"/><path id="G" d="M110.22 660.682l15.344-10.078c3.613 3.914 6.795 8.276 10.84 11.743 3.995 3.424 8.465 6.315 13.098 8.808 3.557 1.913 7.337 3.434 11.184 4.664 3.824 1.222 7.766 2.126 11.743 2.671 4.331.593 8.73.786 13.098.638 4.287-.145 8.585-.607 12.783-1.491 3.922-.827 7.736-2.138 11.489-3.545 3.337-1.251 6.627-2.66 9.769-4.343 2.256-1.208 4.603-3.132 6.485-4.111 1.882.903 2.851 3.773 4.974 4.388 1.831.531 3.885-.175 5.646-.903 1.545-.639 2.71-1.957 4.065-2.936.979 0 2.032.374 2.936 0 1.574-.652 1.978-3.137 3.613-3.613.666-.194 1.362.631 2.032.452 1.184-.317 1.807-1.656 2.71-2.484.678 0 1.407.259 2.032 0 1.082-.448 1.656-1.656 2.484-2.484l2.258.452c-2.258 3.463-4.042 7.287-6.775 10.388-3.46 3.927-7.67 7.178-11.969 10.163-4.817 3.344-10.046 6.095-15.357 8.582-5.33 2.496-10.832 4.686-16.486 6.323-4.793 1.388-9.718 2.405-14.679 2.936-4.716.505-9.488.407-14.228.226-4.079-.156-8.172-.434-12.195-1.129-3.598-.622-7.137-1.597-10.614-2.71-6.151-1.969-12.415-3.875-18.067-7.001-4.848-2.682-9.051-6.41-13.324-9.937-2.671-2.205-5.285-4.497-7.678-7.001-2.597-2.717-5.106-5.579-7.213-8.666z"/><path id="H" d="M115.804 658.152l5.437-3.678 4.462 5.642c1.949 2.137 4.062 4.131 6.282 5.984 2.834 2.366 5.819 4.567 8.948 6.525 4.533 2.837 9.189 5.573 14.168 7.525 4.968 1.948 10.205 3.255 15.473 4.101 5.163.829 10.433 1.084 15.659.932 4.973-.145 9.974-.63 14.821-1.752 5.229-1.211 10.31-3.104 15.193-5.332 4.947-2.257 14.168-8.084 14.168-8.084s4.072-.406 5.965-1.119c1.825-.687 5.033-2.983 5.033-2.983s2.064.38 2.983 0c1.218-.504 2.796-2.796 2.796-2.796s1.098.669 1.678.559c.954-.18 2.237-1.864 2.237-1.864s-2.463 3.008-3.915 4.288c-3.479 3.066-7.494 5.471-11.372 8.016-3.529 2.316-7.05 4.678-10.812 6.593-5.266 2.68-10.704 5.122-16.368 6.805-6.555 1.948-13.347 3.287-20.171 3.747-6.325.426-12.727.014-18.996-.932-6.095-.92-12.203-2.27-17.916-4.586-5.839-2.368-11.217-5.814-16.405-9.389-3.309-2.28-6.363-4.924-9.321-7.643-2.232-2.052-4.258-4.319-6.338-6.525-1.25-1.326-3.691-4.033-3.691-4.033z"/><path id="I" d="M146.002 627.117l-1.807 7.678c-.643 2.047-1.473 4.036-2.371 5.985-.606 1.315-1.355 2.559-2.032 3.839-.151-1.317-.08-2.679-.452-3.952-.481-1.648-.924-3.549-2.258-4.63-1.567-1.27-3.855-1.538-5.872-1.468-1.701.059-3.514.533-4.855 1.581-1.399 1.093-2.385 2.796-2.823 4.517-.465 1.827-.285 3.867.339 5.646.518 1.478 1.608 2.726 2.71 3.839.816.824 1.882 1.355 2.823 2.033.113 1.054-.163 2.228.339 3.162.532.989 1.572 1.688 2.597 2.145.695.31 1.506.226 2.258.339.113.903-.085 1.904.339 2.71s1.194 1.462 2.033 1.807c.662.272 1.43.075 2.145.113.263.866.222 1.893.79 2.597a3.27 3.27 0 0 0 2.032 1.129c1.302.181 2.559-.602 3.839-.903.452.753.622 1.775 1.355 2.258.698.46 1.652.416 2.484.339.948-.088 1.807-.602 2.71-.903.414.753.484 1.854 1.242 2.258.766.409 1.764.02 2.597-.226.694-.205 1.28-.678 1.92-1.016.64.678 1.072 1.644 1.92 2.033.754.345 1.7.38 2.484.113.607-.207 1.02-.784 1.468-1.242.711-.727 1.28-1.581 1.92-2.371l-3.613-2.258c-1.243-.921-2.46-1.903-3.5-3.049-1.088-1.199-1.969-2.577-2.823-3.952-.968-1.559-1.776-3.214-2.597-4.855l-2.371-5.081c-.943-2.496-1.579-5.099-2.258-7.678l-1.581-6.775-1.129-5.759z"/><path id="J" d="M132.607 640.757c-1.431-.006-2.972 1.269-3.182 2.629-.245 1.587 1.177 3.334 2.617 4.045 1.784.88 4.273.597 5.948-.476 2.721-1.742 3.512-5.466 4.746-8.452 1.578-3.818 2.221-8.447 3.331-11.936"/><path id="K" d="M137.954 646.77c1.242-1.291 1.935-4.102 1.694-6.245-.186-1.651-1.02-3.395-2.343-4.399-1.711-1.299-4.156-1.6-6.294-1.39-1.954.191-4.024.958-5.396 2.362-1.285 1.315-1.861 3.28-2.095 5.104-.23 1.784-.063 3.729.719 5.35.801 1.662 2.253 3.039 3.833 3.992 1.233.745 2.718 1.058 4.152 1.198 1.835.179 3.744.053 5.509-.479 1.613-.486 3.156-1.322 4.438-2.415 1.273-1.085 2.167-2.563 3.067-3.973 1.243-1.946 2.129-4.099 3.194-6.148"/><path id="L" d="M129.507 652.741c-.16 1.171.032 2.392.719 3.274.878 1.127 2.42 1.702 3.833 1.916 1.627.247 3.289-.345 4.87-.798 1.525-.437 3.023-1.033 4.391-1.836 1.226-.72 2.334-1.644 3.353-2.635 1.491-1.449 2.661-3.194 3.992-4.791"/><path id="M" d="M134.777 658.65c.16.825.001 1.784.479 2.475.462.668 1.277 1.128 2.076 1.278 1.303.244 2.647-.322 3.912-.719 1.227-.385 2.384-.981 3.513-1.597 1.556-.848 3.103-1.748 4.471-2.874 1.395-1.149 2.502-2.608 3.753-3.912"/><path id="N" d="M139.408 662.802c.186.719.071 1.596.559 2.156.643.738 1.736 1.095 2.715 1.118 1.187.028 2.28-.69 3.353-1.198 1.403-.663 2.731-1.491 3.992-2.395 1.135-.815 2.107-1.837 3.194-2.715l2.395-1.836"/><path id="O" d="M145.955 665.351c.187 1.682.925 2.168 1.916 2.561 1.005.398 2.186-.169 3.194-.559 1.205-.466 2.234-1.309 3.274-2.076 1.52-1.12 2.874-2.449 4.312-3.673"/><path id="P" d="M152.423 667.273c.08.932.871 1.65 1.677 1.916.957.316 2.02-.261 2.954-.639.842-.34 1.599-.878 2.315-1.437.935-.729 1.703-1.65 2.555-2.475"/><path id="Q" d="M158.491 668.551c.399.612.921 1.266 1.597 1.597.578.283 1.293.401 1.916.24.83-.215 1.498-.884 2.076-1.517.523-.573.798-1.331 1.198-1.996"/><path id="R" d="M-176.762 559.479c-7.071.118-14.155-.096-21.213.354-5.858.373-11.702 1.035-17.501 1.945-3.802.596-7.542 1.532-11.314 2.298l-1.768 12.374-1.768 13.965c-.486 3.483-.782 7.007-1.591 10.43-.484 2.049-1.296 4.007-1.945 6.01l-2.652.354c-.884-.884-1.459-2.277-2.652-2.652-1.599-.502-3.478.083-4.95.884-2.124 1.156-3.673 3.25-4.95 5.303-1.231 1.98-2.239 4.222-2.475 6.541-.151 1.484.103 3.055.707 4.419.458 1.035 1.101 2.161 2.121 2.652 1.009.485 2.239 0 3.359 0 .589.825.986 1.829 1.768 2.475 1.2.99 2.828 1.296 4.243 1.945.766.884 1.234 2.166 2.298 2.652.911.416 2.003 0 3.005 0 .884.825 1.527 2.032 2.652 2.475.932.367 2.003 0 3.005 0 1.002 1.179 1.585 2.923 3.005 3.536 1.03.444 2.239-.118 3.359-.177.884 1.061 1.401 2.596 2.652 3.182 1.014.475 2.239 0 3.359 0 1.12.943 2.111 2.063 3.359 2.828 1.418.87 2.978 1.558 4.596 1.945 1.666.398 3.44.654 5.127.354 1.844-.328 3.606-1.205 5.127-2.298 1.693-1.217 3.09-2.859 4.243-4.596 1.575-2.373 2.664-5.067 3.536-7.778 1.58-4.918 2.098-10.117 3.005-15.203 1.184-6.638 2.03-13.332 3.182-19.976l3.712-19.799 3.359-16.44z"/><path id="S" d="M-177 560.362l-5 25c-1.828 9.972-2.936 20.074-5 30-1.399 6.728-1.614 14.02-5 20-2.323 4.102-5.444 8.789-10 10-4.421 1.175-10.194-.195-13.241-3.607-2.56-2.866-3.086-7.787-1.759-11.393 1.442-3.919 5.309-8.34 9.482-8.188 4.345.159 9.165 4.876 9.223 9.223.052 3.903-4.161 8.235-8.055 8.5-2.41.164-5.336-2.141-5.65-4.536-.367-2.793 2.183-6.837 5-6.812 1.691.015 4.024 1.985 2.929 4.142"/><path id="T" d="M-182.831 559.533c-2.934 8.975-3.688 18.081-5.26 27.171-1.562 9.032-2.021 18.267-4.142 27.184-1.684 7.079-3.586 14.622-6.779 20.749"/><path id="U" d="M-189.515 559.521c-2.238 7.814-2.915 16.047-4.147 24.118-1.2 7.862-1.633 15.879-3.159 23.667-1.109 5.66-1.909 11.345-4.344 16.679"/><path id="V" d="M-195.469 559.909c-1.989 7.469-2.591 15.338-3.686 23.052-1.067 7.514-1.452 15.178-2.808 22.621-.986 5.41-1.697 10.844-3.861 15.943"/><path id="W" d="M-201.294 560.556c-1.79 7.092-2.332 14.564-3.317 21.89-.96 7.135-1.306 14.413-2.527 21.481-.887 5.138-1.527 10.297-3.475 15.139"/><path id="X" d="M-206.99 561.074c-1.79 6.747-2.332 13.856-3.317 20.824-.96 6.788-1.306 13.711-2.527 20.435-.887 4.888-1.527 9.796-3.475 14.402"/><path id="Y" d="M-213.38 561.993c-1.741 6.276-2.132 12.545-3.048 18.841-.92 6.323-1.27 12.754-2.457 19.009-.863 4.547-1.485 9.112-3.379 13.397"/><path id="Z" d="M-219.546 562.886c-1.641 5.743-2.137 11.793-3.041 17.725-.88 5.778-1.198 11.67-2.317 17.394-.814 4.16-1.4 8.338-3.186 12.258"/><path id="a" d="M-225.737 563.161c-1.392 5.146-2.452 11.309-3.379 17.034-.835 5.158-1.016 10.459-1.966 15.588-.69 3.728-1.188 7.472-2.703 10.986"/><path id="b" d="M-207.144 621.8c-1.619-1.11-2.809-2.32-4.471-2.377-3.558-.122-6.414 2.041-8.5 4.469-2.22 2.584-3.567 6.262-3.337 9.661.165 2.436 1.352 5.07 3.302 6.539.975.734 2.014.559 3.596.684"/><path id="c" d="M-213.041 619.343c-1.36-1.498-2.382-2.654-3.996-2.75-3.195-.19-6.414 2.041-8.5 4.469-2.22 2.584-3.567 6.262-3.337 9.661.165 2.436 1.004 5.088 3.302 6.539.795.502 1.229 1.016 2.811.235"/><path id="d" d="M-217.96 616.365c-1.619-1.11-3.056-3.065-5.032-3.138-3.199-.118-6.414 2.041-8.5 4.469-2.22 2.584-3.567 6.262-3.337 9.661.165 2.436 1.237 5.236 3.302 6.539.905.571 1.629.596 3.211.074"/><path id="e" d="M-224.691 613c-1.231-1.757-2.475-2.664-4.126-2.75-3.197-.166-6.414 2.041-8.5 4.469-2.22 2.584-3.567 6.262-3.337 9.661.165 2.436 1.315 5.12 3.302 6.539.915.653 1.629.855 3.34.462"/><path id="f" d="M-230.386 609.634c-.584-1.498-2.219-2.523-3.737-2.62-3.194-.204-6.414 2.041-8.5 4.469-2.22 2.584-3.567 6.262-3.337 9.661.165 2.436 1.311 5.125 3.302 6.539.757.538 1.181.242 2.763.367"/><path id="g" d="M-236.341 607.045c-.584-1.757-1.773-2.362-3.09-2.491-3.186-.311-6.414 2.041-8.5 4.469-2.22 2.584-3.423 6.255-3.337 9.661.045 1.791.667 3.797 2.008 4.986 1.063.943 2.535.984 4.117 1.109"/><path id="h" d="M112.47 542.362l32.53 40s9.168-2.898 13.882-3.782c6.946-1.303 14.02-2.066 21.086-2.218 11.092-.238 22.25.398 33.22 2.057 12.486 1.888 36.813 8.943 36.813 8.943l28.963-45z"/><path id="i" d="M129.154 543.844l18.65 27.14c7.299-2.252 11.527-1.796 20.831-2.723l-4.652-24.417h-6.445l5.759 20.882c-5.344.332-7.737.279-13.142 1.118l-13.596-22z"/><path id="j" d="M173.992 543.844l4.485 23.706c11.335-.936 19.892-.957 31.228.041l5.642-23.747h-7.267l-3.428 19.278c-8.906-.473-13.602-.519-21.081-.041l-3.032-19.237z"/><path id="k" d="M226.372 543.844l-8.227 25.047c8.274.612 19.523 4.997 28.526 6.905l16.231-31.952h-7.13l-12.211 24.574c-5.028-1.219-12.983-2.809-18.011-3.428l6.993-21.147z"/><path id="l" d="M-137.441 590.546c-.327.439-.168 1.256.077 1.767.261.543.793 1.009 1.314 1.023.508.009 1.052-.406 1.314-.93.293-.585.481-1.565.077-2.045-.66-.786-2.163-.646-2.783.186z"/><path id="m" d="M-179.03 579.247c3.935-1.135 7.759-2.774 11.806-3.406 2.618-.408 5.398-1.099 7.946-.227 1.6.547 4.366 2.517 4.183 3.28-.092.384-.746.366-1.135.341-1.806-.118-3.31-1.876-5.091-2.258-2.161-.464-4.4-.221-6.584 0-3.766.38-7.417 1.514-11.125 2.27z"/><path id="n" d="M-157.784 588.282c.454-.492 2.504-.727 2.139-1.289-.48-.738-3.257-3.292-5.204-4.202-1.814-.848-3.817-.996-5.772-1.048-2.071-.055-4.198.025-6.166.786-2.382.921-4.972 3.804-6.529 4.459"/><path id="o" d="M-181.187 593.393c3.33-.887 6.424-4.72 9.99-5.653 2.373-.621 4.869-.331 7.265.121a13.74 13.74 0 0 1 4.226 1.552c.802.455 1.405.687 2.238 1.776-1.627.766-1.781 3.454-3.172 4.293-2.54 1.533-5.6.967-8.4.726-2.206-.19-4.323-1.201-6.5-1.7-1.875-.43-3.868.055-5.646-1.114z"/><path id="p" d="M-172.786 589.301c.076 1.173-.338 2.488.227 3.519.676 1.235 2.068 2.059 3.406 2.497 1.043.341 2.263.381 3.292 0 .982-.363 1.848-1.144 2.384-2.043.733-1.23.605-2.8.908-4.2"/><path id="q" d="M-169.013 589.336c-.327.439-.168 1.256.077 1.767.261.543.793 1.009 1.314 1.023.508.009 1.052-.406 1.314-.93.293-.585.481-1.565.077-2.046-.66-.786-2.163-.646-2.783.186z"/><path id="r" d="M-169.552 603.841c2.384-.454 4.938-2.207 7.002-4.103 1.941-1.783 3.566-4.559 4.833-6.628"/><path id="s" d="M-143.928 581.296c-.605 1.476-1.526 2.859-1.816 4.427-.592 3.201-.164 6.531.227 9.763.484 4.001 1.819 7.847 2.611 11.806.509 2.544 2.474 5.417 1.374 7.673-.642 1.318-2.481.717-3.639 1.34-1.512.813-3.043 2.374-4.254 3.093"/><path id="t" d="M-158.142 606.604c-1.551 1.703-3.822 2.96-4.654 5.108-.396 1.023-.462 2.297 0 3.292.542 1.169 1.695 2.211 2.951 2.497 1.029.235 2.129-.308 3.065-.795 1.191-.619 1.857-2.025 3.065-2.611.868-.421 1.941-.922 2.838-.568.303.12.661.483.568.795-.303 1.01-1.962.771-2.951 1.135l-3.86 1.362"/><path id="u" d="M-163.647 627.613c1.598-.801 3.84-.633 5.773-.587 1.967.047 3.872.968 5.837.878 2.241-.103 4.292-1.585 6.536-1.606 1.646-.015 3.527.719 4.817 1.088-.104.563-.266 1.295 0 1.735-1.653-.617-3.983-1.495-6.016-1.249-1.915.232-3.293 2.447-5.222 2.497-2.253.059-3.991-2.511-6.243-2.595-2.151-.08-4.45 1.638-6.13 2.028a4.5 4.5 0 0 0 .649-2.188z"/><path id="v" d="M-158.624 633.812c1.587.68 3.067 1.7 4.76 2.04 1.259.253 2.59.198 3.853-.032.86-.157 1.654-.569 2.461-.907l2.202-1.036"/><path id="w" d="M-143.715 578.925c1.573-1.842 5.013-2.308 7.707-2.517 1.959-.152 3.944.269 5.82.944 1.062.382 1.741 1.153 3 1.73-2.15-.419-3.752-1.177-5.673-1.258-1.951-.083-3.912.345-5.82.786-1.343.311-2.587.931-3.775 1.573-.522.282-1.643-.807-1.258-1.258z"/><path id="x" d="M-144.266 587.015c1.537-.757 2.874-2.894 4.612-3.582 2.315-.917 4.894-.975 7.296-.551 1.587.281 2.937 1.331 4.405 1.996"/><path id="y" d="M-144.055 590.015c1.699-.752 2.958-.974 4.47-1.18 2.237-.305 4.517-.407 6.745-.076 1.324.197 2.703.467 3.854 1.214.727.471 1.193 1.315 1.79 1.972l-.344 3.034c-1.193.455-2.339 1.107-3.579 1.365-1.692.352-3.443.344-5.162.228-1.833-.125-3.69-.27-5.437-.986-.942-.386-1.883-.925-2.647-1.754-.535-.581-.953-1.79-1.274-2.169.298-.656 1.326-1.3 1.585-1.648z"/><path id="z" d="M-144.494 596.413c1.265 1.395 2.312 3.026 3.796 4.186 1.19.93 2.661 1.428 3.991 2.141"/><path id="AA" d="M144.415 583.194l.238 20.223c.237 6.59.397 13.201 1.19 19.747.795 6.563 1.552 13.213 3.569 19.509 1.764 5.507 3.96 11.036 7.375 15.702 2.552 3.487 5.738 6.707 9.517 8.803 3.163 1.754 6.859 2.616 10.468 2.855 4.152.275 8.351-.594 12.372-1.665 4.468-1.19 8.711-3.166 12.847-5.234 3.309-1.654 6.362-3.778 9.517-5.71l7.613-4.758"/><path id="AB" d="M110.839 660.271c-18.859 9.051-37.744 18.168-55.685 24.926l-.354 46.492s12.964-11.549 18.915-17.854c5.282-5.597 10.258-11.502 14.849-17.678 3.657-4.918 6.83-10.181 10.076-15.38 4.213-6.746 12.198-20.506 12.198-20.506z"/><path id="AC" d="M54.5 731.112l.25 19.5 15.5-12.5c5.623-4.775 11.473-9.35 16.5-14.75 4.736-5.088 8.677-10.867 12.75-16.5 4.361-6.031 8.439-12.263 12.5-18.5 3.167-4.863 6.167-9.833 9.25-14.75l-11-12.5-9.25 16c-3.524 5.757-7.048 11.528-11 17-4.13 5.719-8.573 11.219-13.25 16.5-3.165 3.573-6.498 7.006-10 10.25-3.906 3.618-8.167 6.833-12.25 10.25z"/><path id="AD" d="M107.781 669.112c-1.012-.287-1.555 1.64-1.656 2.688-.306 3.156 5.324 6.43 3.344 8.906-1.615 2.02-5.272-1.989-7.687-1.062a3.71 3.71 0 0 0-2.187 2.594c-.66 3.389 5.479 7.235 3.219 9.844-1.821 2.102-5.578-2.311-8.219-1.437-1.049.347-1.986 1.341-2.281 2.406-.963 3.476 4.838 7.958 2.344 10.563-1.946 2.032-5.635-2.332-8.312-1.469-1.052.339-2.003 1.314-2.312 2.375-.981 3.359 4.592 7.8 2.125 10.281-2.277 2.29-6.393-2.789-9.5-1.906a3.75 3.75 0 0 0-2.375 2.219c-1.185 3.278 4.08 8.255 1.313 10.375-2.244 1.718-5.029-3.469-7.844-3.219-1.082.096-2.204.811-2.75 1.75-1.893 3.254 2.789 9.566-.562 11.281-1.978 1.012-3.409-3.222-5.594-3.625-.932-.172-2.266-.202-2.781.594s.056 2.001.594 2.781c1.915 2.779 5.129 5.334 8.5 5.5a3.7 3.7 0 0 0 3.094-1.594c2.158-3.349-2.768-9.799.594-11.937 2.554-1.625 5.406 3.842 8.406 3.438 1.134-.153 2.28-1.037 2.719-2.094 1.418-3.414-4.112-8.481-1.406-11 2.434-2.266 6.598 2.931 9.781 1.969 1.072-.324 2.055-1.302 2.375-2.375 1.007-3.375-4.607-7.815-2.156-10.344 1.965-2.028 5.662 2.354 8.344 1.469 1.05-.347 1.986-1.341 2.281-2.406.966-3.485-4.844-7.98-2.344-10.594 2.003-2.094 5.832 2.47 8.563 1.5 1.078-.383 2.023-1.472 2.25-2.594.693-3.426-5.489-7.285-3.25-9.969 1.684-2.018 5.369 2.03 7.813 1.063 1.06-.42 1.972-1.531 2.156-2.656.499-3.051-5.243-6.324-3.25-8.687 1.257-1.492 3.84 1.49 5.75 1.094.925-.192 2.167-.666 2.344-1.594s-.804-1.826-1.594-2.344c-2.624-1.72-6.134-1.375-9.25-1.75-.197-.024-.457.113-.594-.031z"/><path id="AE" d="M133.269 758.637c.243-3.641-.265-5.782-.022-9.424 6.231-8.092 11.284-19.369 17.515-27.461 1.688-6.066 11.218-17.356 13.854-19.284 1.848.371 3.527 1.105 2.9 3.34s-2.717 5.973-7.082 11.628c-1.861 2.185-5.438 10.114-8.473 14.983-2.956 4.743-6.219 9.289-9.467 13.837-2.991 4.188-6.15 8.253-9.224 12.38z"/><path id="AF" d="M164.824 722.019s-2.412 10.154-5.096 14.528c-2.693 4.39-7.36 7.229-10.681 11.166-2.014 2.387-4.445 4.617-5.583 7.525-1.097 2.804-.037 6.119-.971 8.982-.754 2.309-3.641 6.311-3.641 6.311l-5.826-5.098.485-6.797s6.389-7.259 9.224-11.166c2.307-3.179 4.141-6.678 6.311-9.953 1.414-2.133 2.994-4.154 4.369-6.311 4.456-6.993 12.556-21.474 12.556-21.474l4.483-2.888z"/><path id="AG" d="M303.827 695.512c-1.141-1.838 2.079-5.635 2.093-8.578.017-3.756-2.898-7.23-2.569-10.972.201-2.288 1.981-4.157 2.715-6.334.584-1.733 1.759-3.544 1.333-5.323-.454-1.895-1.89-4.305-3.836-4.413-1.715-.095-2.744 2.129-3.789 3.492-2.429 3.165-4.302 6.812-5.558 10.599-1.365 4.114-2.068 5.816-2.043 8.841.032 3.772.26 5.92 2.736 10.981-.133 2.287-.688 4.588-.399 6.86.216 1.701.484 3.573 1.574 4.897 1.227 1.491 3.19 2.365 5.072 2.798 3.299.759 7.112.874 10.143-.525"/><path id="AH" d="M297.232 667.699c.96.906 1.582 2.481 2.881 2.718.949.173 1.934-.492 2.669-1.116.854-.726 1.281-1.848 1.78-2.851.566-1.138.96-2.782 1.36-3.561"/><path id="AI" d="M314.922 682.81c.184-.447.457-.867.551-1.341.13-.658.172-1.363 0-2.011-.238-.895-.629-1.868-1.378-2.414-.872-.636-2.096-.793-3.169-.67-1.158.132-2.329.667-3.169 1.475-.579.557-1.026 1.345-1.102 2.146-.062.649.125 1.384.551 1.877.628.727 1.682.989 2.618 1.207 1.655.386 3.4.227 5.098.134 2.141-.117 4.362-.129 6.375-.869 1.791-.658 3.458-1.765 4.822-3.084.822-.795 1.78-1.697 1.929-2.816.199-1.5-.171-3.414-1.516-4.291-.795-.518-1.965-.071-2.936.038-2.44.273-4.771 1.098-7.18 1.531-2.074.373-4.231.331-6.254.92-2.045.596-3.929 1.765-5.833 2.611"/><path id="AJ" d="M325.52 679.393c1.001.939 2.423 1.499 3.004 2.817.41.929.47 2.149.131 3.114-.536 1.526-1.943 2.479-3.135 3.41-1.428 1.115-3.045 1.945-4.702 2.521-1.643.571-3.383.716-5.094.89-1.692.172-3.41.399-5.094.148-.765-.114-1.608-.21-2.221-.741-.528-.458-.969-1.178-1.045-1.927-.079-.776.258-1.584.653-2.224.606-.979 1.465-1.909 2.482-2.224.933-.289 1.96.085 2.874.445.811.319 1.746.67 2.221 1.483.364.623.317 1.479.261 2.224-.062.825-.435 1.582-.653 2.372"/><path id="AK" d="M326.429 689.03c.683 1.137 1.769 2.087 2.048 3.41.317 1.506.241 3.31-.546 4.596-.903 1.476-2.689 2.093-4.232 2.669-1.911.713-3.991.741-6.007.89-1.725.127-3.501.414-5.188 0-1.032-.253-2.093-.698-2.867-1.483-.61-.619-1.187-1.466-1.229-2.372-.04-.862.392-1.764.956-2.372.738-.795 1.84-1.156 2.867-1.334 1.037-.181 2.207-.228 3.14.297.688.387 1.197 1.153 1.502 1.927a5.23 5.23 0 0 1 .273 2.817c-.169.889-.819 1.582-1.229 2.372"/><path id="AL" d="M325.306 699.557c.922.445 2.514.82 2.91 1.927.399 1.116-.398 2.404-1.019 3.41-.877 1.421-2.125 2.745-3.638 3.41-1.25.55-2.713.318-4.074.297-1.901-.03-3.837-.095-5.675-.593-1.385-.376-3.058-.619-3.929-1.779-.387-.516-.451-1.298-.291-1.927.278-1.091 1.089-2.089 2.037-2.669 1.224-.748 2.905-1.309 4.22-.741 1.189.513 1.841 1.993 2.183 3.262a3.78 3.78 0 0 1-.146 2.372c-.309.74-1.067 1.186-1.601 1.779"/><path id="AM" d="M111.793 689.11l.712 63.152s-4.556-13.945-7.795-20.498c-3.023-6.117-10.779-17.4-10.779-17.4s6.297-8.009 9.239-12.165c3.019-4.264 8.623-13.089 8.623-13.089z"/><path id="AN" d="M329 563.915l-16.194 14.952.199 23.326s5.016 1.192 7.576 1.396c2.798.222 8.419-.199 8.419-.199z"/><path id="AO" d="M330 603.589c-5.117-.199-11.001-.494-16.422-1.382-6.069-.994-12.111-2.375-17.918-4.4-5.868-2.046-11.456-4.862-16.946-7.775-3.846-2.041-7.443-4.519-11.165-6.778 2.459 5.383 4.193 11.16 7.377 16.149 3.905 6.119 8.436 12.078 14.155 16.547 5.854 4.575 12.897 7.591 19.937 9.968 5.063 1.71 10.453 2.288 15.75 2.99 1.734.23 3.571.266 5.232.399v-5.782c-3.921-.163-8.31-.545-12.359-1.446-5.487-1.222-10.902-2.963-16-5.332-3.814-1.773-7.525-3.899-10.766-6.579-2.557-2.115-4.674-4.735-6.694-7.368-1.406-1.833-3.006-3.474-3.749-5.829 2.593 1.205 5.783 2.991 8.772 4.274 3.492 1.498 7.04 2.894 10.679 3.987 3.507 1.054 7.103 1.805 10.704 2.468a113.93 113.93 0 0 0 9.718 1.345c3.221.31 6.504.261 9.694.527z"/><path id="AP" d="M306.531 709.592l4.773-1.945 2.298.884-.354 174.479 16.617 10.253.135 9.099-23.646-14.933z"/><path id="AQ" d="M294.156 698.809c-3.889 5.068-8.3 9.774-11.667 15.203-3.528 5.688-6.437 11.783-8.839 18.031-2.463 6.407-4.392 13.053-5.657 19.799-1.178 6.282-1.847 12.701-1.768 19.092.075 6.051 1.137 12.06 2.121 18.031.921 5.588 1.925 11.188 3.536 16.617 1.401 4.721 3.29 9.294 5.303 13.789 1.896 4.233 4.243 8.25 6.364 12.374l7.425-6.718c-3.3-6.482-7.366-12.627-9.899-19.445-2.24-6.029-3.609-12.383-4.596-18.738-1.07-6.887-1.742-13.898-1.414-20.86.275-5.845 1.478-11.631 2.828-17.324 1.454-6.129 3.189-12.235 5.657-18.031 2.211-5.192 5.061-10.115 8.132-14.849 2.014-3.105 4.478-5.893 6.718-8.839-1.179-.943-2.793-1.514-3.536-2.828-.877-1.553-.471-3.536-.707-5.303z"/><path id="AR" d="M296.601 668.529c-1.476-1.135-4.952-2.271-6.428-3.406l-10.558 12.261-6.812 8.174c-2.572 3.234-5.125 6.49-7.493 9.877-2.165 3.097-4.239 6.265-6.13 9.536-1.856 3.209-3.494 6.54-5.109 9.877-1.682 3.476-3.346 6.968-4.768 10.558-1.547 3.905-3.049 7.85-4.087 11.92-1.167 4.576-1.837 9.274-2.384 13.964-.651 5.577-1.077 11.197-1.063 16.812.013 5.193.525 10.378 1.063 15.543.677 6.499 1.264 13.044 2.725 19.413 1.573 6.859 3.948 13.525 6.471 20.094 2.187 5.692 4.698 11.269 7.493 16.688 1.749 3.392 3.86 6.585 5.79 9.877l7.152-7.152c-3.633-6.244-7.99-12.12-10.899-18.732-2.921-6.639-4.792-13.719-6.471-20.775-1.758-7.39-3.181-14.903-3.746-22.478-.524-7.02-.246-14.101.341-21.116.541-6.469 1.295-12.971 2.924-19.255 1.747-6.739 4.39-13.244 7.293-19.571 2.649-5.773 5.899-11.26 9.196-16.688 2.762-4.548 5.465-9.181 8.855-13.283 3.695-4.47 8.429-8.456 12.402-12.202.908-3.633 3.335-6.302 4.243-9.935z"/><path id="AS" d="M227.34 710.63l53.463-51.778 9.633 7.466s-10.5 10.75-15.172 16.617c-5.715 7.177-11.045 14.705-15.654 22.638-2.236 3.85-3.989 7.965-5.78 12.041-2.087 4.749-5.78 14.45-5.78 14.45z"/><path id="AT" d="M276.375 663.831c-.946.373-1.644 1.416-1.875 2.406-.716 3.066 4.29 7.193 1.906 9.25-1.931 1.666-4.672-3.048-7.187-2.625-1.139.191-2.269 1.111-2.687 2.188-1.109 2.856 3.842 7.319 1.344 9.094-2.032 1.443-4.181-2.981-6.625-3.469-.705-.141-1.578-.249-2.147.19s-.686 1.312-.728 2.029c-.205 3.534 5.175 8.138 2.406 10.344-2.321 1.849-5.075-3.405-8-3.906-.698-.12-1.559-.2-2.112.243s-.662 1.3-.7 2.007c-.214 3.896 5.705 9.011 2.625 11.406-2.858 2.222-6.099-4.299-9.656-4.969-.711-.134-1.594-.23-2.158.223s-.62 1.338-.686 2.059c-.507 5.541 7.327 14.121 2.313 16.531-4.005 1.925-4.885-8.464-9.156-9.687-.911-.261-2.271-.099-2.75.719s.2 1.957.719 2.75c3.566 5.449 9.127 10.154 15.344 12.094.702.219 1.615.305 2.202-.138s.704-1.346.735-2.081c.243-5.798-8.937-13.217-4.406-16.844 2.783-2.227 6.003 4.218 9.5 4.906.705.139 1.578.249 2.147-.19s.686-1.312.728-2.029c.23-3.95-5.785-9.1-2.687-11.562 2.334-1.855 5.096 3.413 8.031 3.938.705.126 1.577.226 2.139-.219s.667-1.316.705-2.031c.183-3.482-5.129-8.049-2.375-10.187 1.855-1.44 3.951 2.77 6.25 3.25.682.142 1.517.262 2.085-.141s.732-1.231.821-1.921c.418-3.238-3.968-7.625-1.437-9.687 2.046-1.668 4.842 3.198 7.438 2.719 1.14-.21 2.253-1.183 2.625-2.281 1.013-2.992-4.293-7.213-1.906-9.281 2.326-2.015 5.611 3.202 8.688 3.125.985-.025 2.395-.211 2.728-1.138s-.64-1.966-1.384-2.612c-3.22-2.795-7.903-3.278-12.031-4.344-.255-.066-.536-.222-.781-.125z"/><path id="AU" d="M150.5 785.362l62-5.5 4.836 7.836c2.183 3.046 4.5 6.029 7.164 8.664 2.52 2.492 5.338 4.689 8.268 6.682 2.553 1.736 5.375 3.039 8.061 4.561l6.172 3.5s-2.867-10.918-3.755-16.483c-.803-5.026-1.115-10.122-1.414-15.203-.277-4.707-.546-9.431-.354-14.142.271-6.632.898-13.275 2.121-19.799.832-4.44 3.536-13.081 3.536-13.081l-19.86-21.274z"/><path id="AV" d="M221.094 718.299l-4.062 4 8.438.063-1.562 1.469h-.625l-7.781.156-3.937 4 8-.094-2.312 2.156-6.719-.812-4.5 3.969 7.438.406-1.344 1.281-7.5.219-3.875 4 6.969-.094-1.25 1.188h-6.875l-4.031 4h6.625l-2.125 2-5.656-.625-4.437 3.969 9.375.594.361 13.696 4-3.969-.361-11.258 2.094-2 .156 11.406 4-4.062-.219-11.031 1.875-1.75.344 11.5 4-4.187-.5-10.937 1.531-1.437.344 10.875 4-4.187-.5-10.281 1.188-1.125.406 9.938 4-4.25-.625-9.25 2.5-2.344.281 10.563 3.969-4.156-.437-11.531-.062-1.906-1.906-.031z"/><path id="AW" d="M235.016 733.797l-4.062 4 8.438.063-1.562 1.469h-.625l-7.781.156-3.937 4 8-.094-2.312 2.156-6.719-.812-4.5 3.969 7.438.406-1.344 1.281-7.5.219-3.875 4 6.969-.094-1.25 1.188h-6.875l-4.031 4h6.625l-2.125 2-5.656-.625-4.437 3.969 9.375.594.467 13.378 4-3.969-.467-10.941 2.094-2 .156 11.406 4-4.062-.219-11.031 1.875-1.75.344 11.5 4-4.187-.5-10.937 1.531-1.437.344 10.875 4-4.187-.5-10.281 1.188-1.125.406 9.938 4-4.25-.625-9.25 2.5-2.344.281 10.563 1.428-7.862 2.104-7.825-.062-1.906-1.906-.031z"/><path id="AX" d="M238.649 758.723l-4.5 3.969 5.955.406-.391 1.493-6.971.007-3.875 4 6.969-.094-1.25 1.188h-6.875l-4.031 4h6.625l-2.125 2-5.656-.625-4.437 3.969 9.375.594.467 13.378 4-3.969-.467-10.941 2.094-2 .156 11.406 4-4.062-.219-11.031 1.875-1.75.344 11.5 1.035-2.282-.077-11.679.472-9.133z"/><path id="AY" d="M324.688 575.425c-.554-.012-1.042.428-1.469.781-2.922 2.42-5.795 5.322-7.125 8.875a3.89 3.89 0 0 0-.094 2.344c.978 3.539 3.023 7.113 6.031 9.219.791.554 2.012 1.189 2.82.661s.714-1.902.524-2.848c-.631-3.135-5.405-4.837-5.25-8.031.159-3.294 4.912-4.678 6.188-7.719.282-.672.581-1.518.258-2.171s-1.154-1.094-1.883-1.11z"/><path id="AZ" d="M317.719 631.175c-.939.599-1.464 1.919-1.406 3.031.238 4.614 7.483 7.303 7.094 11.906-.314 3.711-5.896 5.031-7.25 8.5a3.87 3.87 0 0 0-.094 2.469c1.109 3.637 3.479 7.229 6.719 9.219.805.494 2.031 1.006 2.797.453s.673-1.878.453-2.797c-.765-3.198-5.935-4.683-5.812-7.969.137-3.663 5.699-4.999 7.125-8.375a3.89 3.89 0 0 0 .219-2.312c-1.118-4.967-4.072-9.671-7.812-13.125-.554-.512-1.296-.829-2.031-1z"/><path id="Aa" d="M321.938 710.3c-.669.181-1.465.44-1.794 1.05s-.109 1.417.106 2.075c.749 2.296 3.877 3.649 3.969 6.063.18 4.743-5.613 7.894-6.875 12.469-.161.583-.185 1.22-.062 1.813.931 4.513 6.211 7.902 5.906 12.5-.292 4.405-5.807 6.931-7.187 11.125-.209.634-.261 1.346-.125 2 1.152 5.523 7.722 9.421 7.719 15.063-.003 5.106-5.756 8.673-7 13.625-.145.576-.158 1.201-.031 1.781 1.155 5.304 7.226 9.263 7.031 14.688-.168 4.686-5.73 7.697-6.969 12.219-.168.613-.175 1.287-.031 1.906 1.154 4.959 7.047 8.502 6.969 13.594-.074 4.783-5.705 7.94-6.937 12.563-.161.604-.176 1.267-.031 1.875 1.145 4.819 7.143 8.209 6.906 13.156-.197 4.127-5.406 6.479-6.781 10.375-.209.592-.278 1.253-.187 1.875.494 3.408 1.546 7.055 3.906 9.563.677.72 1.756 1.658 2.672 1.285s1.034-1.797 1.016-2.785c-.057-3.093-3.798-5.515-3.5-8.594.403-4.164 5.587-6.52 6.875-10.5a3.94 3.94 0 0 0 .094-2.031c-1.079-4.867-6.996-8.265-6.937-13.25.056-4.774 5.705-7.919 6.938-12.531.161-.604.173-1.266.031-1.875-1.154-4.96-7.075-8.503-6.969-13.594.098-4.668 5.64-7.693 6.906-12.187.167-.592.188-1.242.063-1.844-1.106-5.319-7.078-9.286-7-14.719.074-5.124 5.8-8.705 7-13.687a3.92 3.92 0 0 0 0-1.812c-1.313-5.439-7.936-9.349-7.656-14.937.221-4.409 5.803-6.933 7.188-11.125a3.93 3.93 0 0 0 .125-1.937c-.868-4.55-6.081-7.933-5.937-12.562.149-4.79 5.814-7.935 6.938-12.594.161-.669.143-1.406-.062-2.062-.845-2.693-2.567-5.161-4.625-7.094-.462-.434-1.043-.776-1.656-.937z"/><path id="Ab" d="M112.5 752.612c3.167 1.25 6.55 2.051 9.5 3.75 3.959 2.28 7.382 5.413 10.75 8.5 2.955 2.709 5.731 5.632 8.25 8.75 2.862 3.542 5.167 7.5 7.75 11.25"/></defs></svg>