<svg xmlns="http://www.w3.org/2000/svg" xmlns:xlink="http://www.w3.org/1999/xlink" width="360" height="540" viewBox="0 0 95.25 142.875" xmlns:v="https://vecta.io/nano"><style><![CDATA[.B{stroke-linejoin:round}.C{stroke:#55a}.D{stroke-width:2}.E{stroke-linecap:round}.F{fill:none}.G{fill:#ff5}.H{fill:#f55}.I{fill:#55a}.J{stroke:#000}.K{stroke-width:2.217}.L{stroke-width:2.13}]]></style><g transform="matrix(.264583 0 0 .264583 0 -135.562492)"><rect width="359" height="539" x=".5" y="512.862" rx="29.944" fill="#fff" class="J"/><path d="M206.99 765.132l-4.696-.09-1.174 10.476-1.084 13.546v18.423l.722 24.474 2.529 16.256 3.251 10.837-7.225 1.987-6.683 3.071 6.502 14.991 1.987 1.445 3.793-3.251 4.696.542 2.529-1.445 3.793-1.264 3.612.722-4.877-14.269-3.251-12.463-3.793-14.45-1.626-16.436.361-28.357zm-53.734 34.543l4.696.09 1.174-10.476 1.084-13.546V757.32l-.722-24.474-2.529-16.256-3.251-10.837 7.225-1.987 6.683-3.071-6.502-14.991-1.987-1.445-3.793 3.251-4.696-.542-2.529 1.445-3.793 1.264-3.612-.722 4.877 14.269 3.251 12.463 3.793 14.45 1.626 16.436-.361 28.357z" class="G"/><path d="M340 1022.362v-30-20h-5v15l-3 7-7-22h-5l9 28-9 22h5l10-24v24zm-320-480v30 20h5v-15l3-7 7 22h5l-9-28 9-22h-5l-10 24v-24z" class="H"/><path d="M140.5 689.362s4.251 11.587 6 17.5c1.949 6.59 3.738 13.245 5 20 1.234 6.604 2.083 13.294 2.5 20 .383 6.155.081 12.334 0 18.5l-.5 19c-.233 5.006-1 15-1 15m66.765 76.319s-4.251-11.587-6-17.5c-1.949-6.59-3.738-13.245-5-20-1.234-6.604-2.083-13.294-2.5-20-.383-6.155-.081-12.334 0-18.5l.5-19c.233-5.006 1-15 1-15" class="B C D E F"/><path d="M220.25 765.862l-18-.25-1.069 10.709-13.556-.584.25-10.625-14.375.125-.75 10.75-12.625-.75.625-17.75v-13l47.125 1.625z"/><path d="M159.302 729.88l13.714-5.679 11.497-6.372 8.727-7.757 6.788-7.342 4.294-5.541 25.073.554-6.372 11.082-5.957 12.052-5.264 13.021-3.602 12.744-47.652-1.385-.416-6.926z" class="H"/><path d="M270.845 687.62l15.763-14.407 16.102 14.915 6.61 6.61 19.661 20.508.508 29.152-11.017 7.966z"/><path d="M231.333 764.856l3.319-14.043 2.809-12.767 39.066 50.301-6.894 9.447-10.213 14.299-5.362 10.213-4.596 10.469-4.596 11.235-5.107-13.788-3.83-11.745-3.575-18.639-2.043-10.469v-9.192z" class="I"/><path d="M256.355 860.096l72.515-31.917v9.447l-61.791 36.257-6.128-7.66z"/><path d="M252.571 711.004l3.448-5.459 43.388 59.479-3.735 4.023z" class="G"/><path d="M256.306 705.257l4.885-6.609 4.885-6.321 47.124 63.502 16.378-11.206v12.643L313.2 767.323l-18.677 15.229-14.942 15.229-10.632 14.942-9.77 17.528-6.896 15.229-2.873 6.896-4.885-8.908 4.597-12.068 11.781-21.263 9.482-12.93 8.62-11.494 10.344-10.057 5.747-6.321 4.885-3.735zm40.075 130.519l4.159-9.551 6.008-8.472 5.854-6.624 6.008-5.392 6.624-5.083 4.775-3.543v24.493z" class="H"/><path d="M251.664 854.771l28.819-11.831 3.037-7.628 5.03-9.205 6.014-10.603 10.424-13.304 10.175-8.467 7.996-5.019 6.141-3.651.77-24.694-3.83 1.802-11.716 7.66-14.419 10.815-12.617 11.265-11.941 14.645-9.012 13.744-8.336 16.672-6.759 16.447z" class="G"/><g class="D"><g class="B"><path d="M251.94 855.635l76.931-33.839" class="E J"/><use xlink:href="#B" class="C H"/><g class="E F J"><use xlink:href="#C"/><use xlink:href="#D"/></g></g><use xlink:href="#E" class="C G"/></g><use xlink:href="#F"/><use xlink:href="#G"/><use xlink:href="#H"/><use xlink:href="#I"/><use xlink:href="#J"/><use xlink:href="#K"/><use xlink:href="#L"/><use xlink:href="#M"/><use xlink:href="#N"/><use xlink:href="#O"/><use xlink:href="#P"/><use xlink:href="#Q"/><path d="M163.962 684.764c2.399.247 5.29-.655 7.935-3.199l6.434-8.182 4.184-4.583 3.786 3.387 6.177 2.192-4.782 9.166-8.369 8.568-8.568 6.376-3.597 2.79-2.58-5.778-1.989-4.903-1.398-4.063z" class="H"/><g class="B C D E F"><use xlink:href="#R"/><use xlink:href="#S"/><use xlink:href="#T"/><use xlink:href="#U"/><use xlink:href="#V"/><use xlink:href="#W"/><use xlink:href="#W" x="5.786"/><use xlink:href="#X"/><use xlink:href="#Y"/><use xlink:href="#Y" x="5.181" y="-0.199"/><use xlink:href="#Y" x="10.361" y="0.2"/><use xlink:href="#Y" x="15.741"/><path d="M193.141 675.416l-4.668 7.294c-2.809 3.658-5.908 7.126-9.336 10.211-2.74 2.466-5.723 4.694-8.898 6.564-2.718 1.601-5.689 2.737-8.607 3.939-2.347.966-7.148 2.626-7.148 2.626m43.325-32.822h88.401M155.259 687.67l4.96 14.734m-11.862-13.421l5.106 16.922 2.188 7.148c1.468 5.679 2.861 11.401 3.647 17.213.653 4.827.753 9.718.875 14.588.253 10.063-.292 30.197-.292 30.197h0"/></g><path d="M155.952 713.704s8.837-3.144 12.973-5.32c4.166-2.191 8.15-4.779 11.816-7.731 3.026-2.437 5.778-5.226 8.315-8.169 1.727-2.004 3.183-4.229 4.668-6.419 1.227-1.809 3.501-5.543 3.501-5.543h42.742l19.839-.438s-9.905 10.586-14.296 16.338c-2.831 3.709-5.377 7.641-7.731 11.67-2.48 4.243-4.744 8.625-6.71 13.129-1.846 4.227-3.319 8.611-4.756 12.993-1.324 4.039-2.783 8.065-3.559 12.244-1.159 6.237-1.605 18.964-1.605 18.964l-12.837-18.818s2.207-9.339 3.793-13.858c1.421-4.049 3.321-7.914 5.106-11.816 1.999-4.371 3.997-8.75 6.273-12.983 1.982-3.687 6.419-10.795 6.419-10.795h-25.82s-4.577 5.641-7.032 8.315c-2.693 2.933-5.387 5.895-8.431 8.461a73.32 73.32 0 0 1-10.357 7.294c-3.252 1.893-6.772 3.288-10.211 4.814-2.889 1.282-8.753 3.647-8.753 3.647z" class="B C D G"/><path d="M240.93 680.824l-11.029 16.182m14.443.73l-14.004-.292m-7.148 10.941l14.004.438m-19.402 12.107l12.4.146m-17.651 12.837l13.129-.292m-16.485 13.421l12.691-.292" class="E F B C D"/><path d="M258.582 877.767l-7.673-11.544c-2.206-3.46-4.46-6.898-6.419-10.503-3.063-5.638-5.975-11.385-8.315-17.359-2.581-6.588-4.538-13.418-6.273-20.277-1.106-4.373-1.888-8.825-2.626-13.275-.778-4.695-1.634-9.398-1.896-14.15-.466-8.45-.254-16.961.584-25.383.637-6.398 1.71-12.78 3.365-18.994 1.181-4.434 2.937-8.7 4.658-12.953 1.641-4.055 3.424-8.058 5.397-11.962 2.014-3.983 4.303-7.822 6.564-11.67 2.167-3.689 4.246-7.444 6.71-10.941 4.423-6.276 9.43-12.126 14.442-17.943 2.204-2.558 6.866-7.45 6.866-7.45l12.098-.136s-10.688 8.839-15.609 13.712c-2.227 2.205-4.271 4.591-6.273 7.002-3.057 3.681-5.945 7.504-8.753 11.378-1.519 2.097-3.035 4.204-4.376 6.419a204.02 204.02 0 0 0-10.211 19.11c-1.463 3.121-2.752 6.327-3.89 9.58-1.212 3.465-2.262 6.992-3.122 10.561-1.169 4.855-2.286 9.753-2.762 14.724-.83 8.664-.802 17.433-.146 26.112.423 5.596 1.456 11.141 2.626 16.63 1.212 5.684 2.752 11.305 4.542 16.834 1.852 5.72 4.008 11.347 6.399 16.864 1.012 2.335 2.117 4.633 3.355 6.856.978 1.756 2.089 3.437 3.209 5.106 1.417 2.109 2.919 4.16 4.439 6.196 3.345 4.482 10.295 13.247 10.295 13.247z" class="B C D G"/><path d="M287.086 673.082l15.755 14.734 26.55 28.008" class="B C D E F"/><path d="M330 552.082l-27.769 27.438 1.031 108.564L330 716.381z" class="B C D G"/><path d="M309.989 695.255l.081-113.053L330 564.254v152.278z" class="B C D H"/><path d="M301.818 597.056l-5.57-1.65-5.776-6.189c-2.832-3.671-6.052-7.332-7.427-11.759-.796-2.563-.313-8.046-.313-8.046s-6.252 6.29-8.813 9.885c-2.106 2.957-3.903 6.163-5.315 9.507-1.312 3.107-2.182 6.399-2.888 9.696-.7 3.27-1.282 6.602-1.325 9.946-.053 4.135.343 8.318 1.325 12.335.673 2.754 1.874 5.364 3.095 7.923 1.316 2.757 2.862 5.408 4.539 7.963 1.887 2.875 6.189 8.252 6.189 8.252s1.952-5.211 3.301-7.633c2.284-4.1 4.889-8.08 8.046-11.553 2.002-2.202 4.041-4.681 6.808-5.776 1.28-.507 4.126-.206 4.126-.206z" class="B C D F"/><path d="M296.455 619.955s-1.703-3.087-2.278-4.745c-.651-1.875-1.187-3.829-1.304-5.811-.16-2.719.129-5.5.842-8.129.578-2.128 2.739-6.023 2.739-6.023s-5.106-4.742-7.253-7.467c-2.474-3.14-6.411-10.135-6.411-10.135s-4.185 4.894-5.851 7.633-3.072 5.66-4.086 8.699c-1.132 3.392-1.82 6.947-2.186 10.504a37.39 37.39 0 0 0 0 7.839c.311 2.87.894 5.737 1.857 8.458.769 2.175 2.006 4.155 3.095 6.189 1.046 1.955 2.074 3.929 3.301 5.776 1.152 1.734 3.797 4.96 3.797 4.96s3.775-7.072 6.238-10.209c2.19-2.789 7.501-7.541 7.501-7.541z" class="B C D G"/><path d="M290.266 590.661s-2.669 3.399-3.507 5.364c-.936 2.195-1.313 4.607-1.614 6.974-.412 3.237-.672 6.549-.251 9.785.349 2.683 1.066 5.372 2.278 7.791.825 1.646 3.318 4.415 3.318 4.415m-2.906-39.487h-4.332c.311 3.413 1.039 6.659 2.682 9.49-2.917.036-5.585.489-8.252 1.857 1.48 3.478 4.542 5.042 6.855 6.272-2.617.876-5.65 2.667-7.517 4.542 2.226 2.204 4.951 3.742 7.677 4.864-2.7 1.386-5.4 3.105-7.184 5.657 2.168 1.585 6.084 3.004 8.835 3.008-2.262 2.53-3.275 4.727-4.539 7.839l4.745.413" class="E F B C D"/><path d="M162.397 640.74s2.498-.384 3.354-.165 1.296.55 1.671 1.102c.672.987.877 2.311.736 3.506-.151 1.278-.645 2.712-1.638 3.479-1.566 1.21-3.823 1.21-5.727.935-1.839-.266-3.393-1.553-5.042-2.43-1.114-.592-2.117-1.413-3.274-1.91-1.281-.551-2.615-1.135-4.007-1.169-.854-.021-2.237-.26-2.51.596-.206.646.686 1.227 1.266 1.513 1.566.774 3.521-.185 5.221.183 1.859.403 3.478 1.585 5.286 2.183 1.696.56 3.408 1.468 5.191 1.307 1.468-.132 3.021-.743 4.088-1.828.72-.732 1.169-1.818 1.265-2.859.1-1.077-.121-2.286-.747-3.131-.787-1.063-2.441-1.825-3.393-1.912s-1.74.599-1.74.599zm-12.996-8.696c1.105-.242 2.549 1.298 3.05 2.295.657 1.305-.144 3.331-1.249 4.223-1.49 1.204-3.816.76-5.612.198-1.5-.469-2.397-2.243-3.857-2.839-.884-.36-1.993-.877-2.816-.382-.487.293-.91 1.094-.676 1.634.332.767 1.507.545 2.282.733 1.065.258 2.192.202 3.237.537 1.187.38 2.147 1.528 3.382 1.647 1.399.136 3.086-.052 4.086-1.101 1.079-1.133 1.689-3.156 1.175-4.673-.416-1.229-3.002-2.274-3.002-2.274z" class="I B C D"/><g class="F B C"><path d="M139.107 592.161s-.296 5.556 0 8.31c.279 2.593 1.345 5.056 1.662 7.645.229 1.87.513 3.799.166 5.651-1.363 7.271-6.555 13.345-8.642 20.442-.365 1.241-1.207 2.648-.665 3.823 1.187 2.571 5.656 2.025 7.313 4.321 1.227 1.701 1.328 4.052 1.33 6.149.001.793-.499 2.327-.499 2.327 2.493-.118 4.791.336 7.146.499 2.802.193 6.253.083 8.144 2.161.454.498.332 1.994.332 1.994s-2.564-1.569-3.989-1.994c-3.634-1.086-7.503-.429-11.301-1.33-.649-.154.116 1.883.166 2.825.124 2.326.562 4.662.332 6.98-.09.909-.665 2.659-.665 2.659" class="D E"/><path d="M146.644 600.845c.494-.722 5.265-.359 7.882-.269 3.151.108 6.382.01 9.37.973 3.395 1.095 6.369 3.267 9.286 5.32 1.117.786 3.119 2.659 3.119 2.659s-5.603-4.166-8.809-5.565c-2.472-1.079-5.174-1.701-7.88-2.112-2.646-.402-5.397-.091-8.072-.33-1.646-.147-5.844.709-4.897-.677z" class="D"/><path d="M152.198 607.976s6.37-.038 9.407.784c4.432 1.2 12.431 5.936 12.431 5.936m-24.084-1.929s6.152-.933 9.134-.311c4.495.938 12.431 5.936 12.431 5.936m-22.791 3.583c3.696.448 5.152 4.48 8.399 5.6" class="E D"/><path d="M168.636 619.657s-2.623-3.2-4.305-4.347c-1.246-.848-2.675-1.485-4.151-1.78-1.939-.387-3.985-.279-5.936.063-1.232.216-2.359.842-3.547 1.237l-1.45.458s1.129 2.573 2.059 3.594c.909.998 2.096 1.79 3.31 2.333 1.769.792 3.71 1.382 5.636 1.282 2.94-.153 8.386-2.841 8.386-2.841z" class="D"/><ellipse transform="matrix(-.862523 -.133435 .119568 -.924755 324.48517 744.21754)" cx="208.064" cy="106.494" rx="5.399" ry="3.948" class="K"/></g><ellipse transform="matrix(-.862523 -.133435 .129532 -1.001818 322.69695 750.86491)" cx="208.401" cy="105.212" rx="1.957" ry="1.518" class="B C I L"/><path d="M147.41 609.858c1.095.73 1.095 2.829 1.642 4.243" class="B C D E F"/><path d="M238.079 692.335l3.804-6.489 8.055-1.119-4.251 6.713zm-9.822 10.552l6.172-4.283 5.004 4.326-6.496 4.206zm-6.507 12.065l6.172-4.283 5.004 4.326-6.496 4.206zm-5.37 12.307l6.172-4.283 5.004 4.326-6.496 4.206zm-4.645 13.509l5.536-5.078 5.543 3.61-5.868 5.045zm10.177-52.635l5.219-5.484 4.659 5.467-5.017 6.287zm-11.65.281l4.638-5.983 5.187 4.969-4.356 6.761zm-12.807 2.42l2.994-6.954 6.266 3.513-2.526 7.636zm-7.924 11.236l-.202-7.568 7.161.558.913 7.991zm-8.801 8.19l-.027-7.571 7.147.724.727 8.01zm-10.118 5.826l2.016-7.297 6.686 2.625-1.46 7.909zm-10.386 4.833l2.427-7.171 6.527 3-1.907 7.814z"/><g class="B C D"><path d="M238.717 739.186l37.791 49.016" class="E G"/><path d="M295.667 769.046l-43.481-58.597c-4.996 6.604-7.894 13.508-11.391 20.711l40.711 52.085z"/><path d="M256.303 705.885l43.704 59.867m-33.602-72.588l47.145 62.86M270.895 688.3l47.405 64.156m-4.576 3.828l15.541-11.485" class="E G"/><path d="M299.782 765.975l-4.19 3.517c-4.682 4.291-9.065 8.898-13.471 13.471-1.959 2.034-3.937 4.056-5.763 6.211a179.93 179.93 0 0 0-9.952 12.871c-2.857 4.065-5.449 8.313-8.006 12.573-2.167 3.61-4.279 7.259-6.212 11-1.076 2.082-2.075 4.205-2.993 6.361-1.368 3.214-3.742 9.788-3.742 9.788" class="E F"/><path d="M241.711 755.649l25.817 33.675s-8.544 10.897-12.198 16.763c-3.592 5.768-9.504 18.034-9.504 18.034s-4.274-9.302-5.612-14.218c-1.691-6.213-2.558-12.659-2.993-19.082-.413-6.099-.419-12.273.374-18.334.749-5.729 4.116-16.837 4.116-16.837z" fill="#fff"/></g><path d="M245.826 772.487s-.978 9.727-.748 14.592c.284 6.019 2.62 17.886 2.62 17.886l10.476-16.015z" class="I"/><path d="M247.682 722.443c1.455-.649 3.147-1.186 4.705-.851 2.845.611 5.438 2.626 7.194 4.946 1.688 2.23 2.303 5.175 2.698 7.943.317 2.228-.325 4.494-.3 6.744.017 1.502.02 3.02.3 4.496.215 1.133 1.049 3.297 1.049 3.297s.524-3.343 1.499-4.646c.797-1.065 1.996-1.974 3.297-2.248 1.342-.283 2.833.111 4.047.749 1.063.559 2.088 1.438 2.548 2.548.338.816.303 1.821 0 2.651-.239.654-.724 1.287-1.347 1.598-.521.26-1.746.097-1.746.097s.875-1.485.695-2.248c-.233-.984-1.135-1.884-2.098-2.191-.92-.294-2.12-.093-2.848.543-1.07.936-1.294 2.626-1.349 4.047-.047 1.235.32 2.505.899 3.597.597 1.125 1.481 2.152 2.548 2.848 1.892 1.234 4.267 1.496 6.445 2.098 1.729.478 3.624.433 5.246 1.199 1.256.593 2.266 1.617 3.297 2.548 1.023.924 2.09 1.846 2.848 2.997.628.953 1.119 2.029 1.349 3.147a7.31 7.31 0 0 1 0 2.848c-.28 1.429-.803 2.861-1.649 4.047-.308.432-1.199 1.049-1.199 1.049s.704-2.386.599-3.597c-.091-1.055-.455-2.121-1.049-2.997-.483-.713-1.141-1.401-1.95-1.695-.844-.307-1.826-.179-2.696.047-.584.152-1.222.38-1.596.853-.523.661-.625 1.602-.648 2.445-.011.408.105.817.249 1.199.189.501.792 1.397.792 1.397s-1.754-.376-2.394-.948c-.633-.566-.993-1.424-1.199-2.248-.254-1.018-.302-2.143 0-3.147a4.63 4.63 0 0 1 1.45-2.195c.639-.528 1.482-.8 2.297-.952.639-.119 1.948.047 1.948.047l-3.297-1.395c-1.415-.467-2.922-.612-4.346-1.049-1.224-.376-2.401-.891-3.597-1.349-1.152-.441-2.387-.718-3.447-1.349-1.067-.634-2.017-1.476-2.848-2.398-1.132-1.256-2.024-2.72-2.848-4.196-.773-1.387-1.493-2.825-1.948-4.346-.45-1.503-.51-3.096-.749-4.646l-.599-4.047-.45-3.747c-.161-1.006-.156-2.08-.599-2.997-.37-.766-.961-1.447-1.649-1.948-.742-.541-1.63-1.031-2.548-1.049-.869-.017-1.829.289-2.448.899-.496.488-.694 1.255-.75 1.948-.066.814.5 2.398.5 2.398s-2.134-1.144-2.698-2.145c-.388-.688-.454-1.576-.3-2.351.157-.79.632-1.526 1.199-2.098.489-.493 1.146-.813 1.798-1.049 1.33-.481 4.184-.699 4.184-.699s-2.201-1.795-3.49-2.347c-.782-.335-1.645-.482-2.493-.551-.896-.073-2.692.148-2.692.148s1.342-1.32 2.183-1.695z" class="G"/><path d="M329.381 797.539l-8.171 5.617c-3.874 3.066-7.613 6.341-10.979 9.958-2.726 2.929-5.239 6.083-7.405 9.447-2.699 4.193-6.894 13.277-6.894 13.277m-15.681 7.061l5.723-12.167c1.707-3.387 3.405-6.788 5.393-10.017 2.328-3.781 4.825-7.477 7.629-10.92 2.973-3.65 6.221-7.094 9.703-10.262 3.355-3.053 6.999-5.789 10.724-8.377 2.134-1.483 4.439-2.702 6.639-4.085l3.575-2.298m-.511-7.661s-10.538 6.585-15.575 10.213c-4.081 2.94-8.178 5.905-11.847 9.346-3.957 3.71-7.543 7.825-10.878 12.102-3.281 4.207-6.159 8.723-8.937 13.277-3.035 4.976-5.794 10.12-8.426 15.32-1.87 3.694-5.227 11.266-5.227 11.266" class="B D E F J"/><path d="M252.314 854.404l6.85-15.501c2.412-5.303 4.625-10.711 7.405-15.831 2.918-5.376 6.147-10.599 9.703-15.575 3.447-4.824 7.172-9.47 11.235-13.788 4.045-4.299 8.496-8.212 13.022-12.001 4.425-3.704 9.087-7.122 13.788-10.469 3.75-2.67 7.564-5.258 11.49-7.66 1.041-.637 3.194-1.787 3.194-1.787v-5.617s-11.557 6.623-16.982 10.469c-5.183 3.675-10.024 7.82-14.809 12.001-4.489 3.922-8.947 7.905-13.022 12.256-4.298 4.59-8.292 9.476-12.001 14.554-3.523 4.823-6.797 9.846-9.703 15.065-2.796 5.023-5.04 10.336-7.405 15.575-1.996 4.422-5.723 13.383-5.723 13.383z"/><path d="M266.263 849.199l-6.453-11.328 14.354-2.301-8.035-14.49 15.527.722-6.5-14.624 15.347 1.625-2.889-16.791 13.902 3.972-1.264-15.166 13.18 5.778 1.264-16.43 11.736 7.041 2.434-15.751" class="B D E F J"/><ellipse transform="matrix(1.36568 0 0 1.268132 -120.17359 443.63984)" cx="324.549" cy="257.244" rx="1.464" ry="1.577"/><ellipse transform="matrix(1.36568 0 0 1.268132 -133.88927 453.07486)" cx="324.549" cy="257.244" rx="1.464" ry="1.577"/><ellipse transform="matrix(1.36568 0 0 1.268132 -146.28095 463.21351)" cx="324.549" cy="257.244" rx="1.464" ry="1.577"/><ellipse transform="matrix(1.36568 0 0 1.268132 -158.89794 476.73171)" cx="324.549" cy="257.244" rx="1.464" ry="1.577"/><ellipse transform="matrix(1.36568 0 0 1.268132 -168.58598 491.15112)" cx="324.549" cy="257.244" rx="1.464" ry="1.577"/><ellipse transform="matrix(1.36568 0 0 1.268132 -176.9222 505.34523)" cx="324.549" cy="257.244" rx="1.464" ry="1.577"/><ellipse transform="matrix(1.36568 0 0 1.268132 -183.6813 520.44056)" cx="324.549" cy="257.244" rx="1.464" ry="1.577"/><g class="I"><ellipse transform="matrix(1.36568 0 0 1.268132 -153.26536 507.82357)" cx="324.549" cy="257.244" rx="1.464" ry="1.577"/><ellipse transform="matrix(1.36568 0 0 1.268132 -150.1111 502.19099)" cx="324.549" cy="257.244" rx="1.464" ry="1.577"/><ellipse transform="matrix(1.36568 0 0 1.268132 -146.79577 496.71664)" cx="324.549" cy="257.244" rx="1.464" ry="1.577"/><ellipse transform="matrix(1.36568 0 0 1.268132 -143.19091 490.98259)" cx="324.549" cy="257.244" rx="1.464" ry="1.577"/><ellipse transform="matrix(1.36568 0 0 1.268132 -139.26674 485.59766)" cx="324.549" cy="257.244" rx="1.464" ry="1.577"/><ellipse transform="matrix(1.36568 0 0 1.268132 -134.44879 480.43804)" cx="324.549" cy="257.244" rx="1.464" ry="1.577"/><ellipse transform="matrix(1.36568 0 0 1.268132 -129.29663 476.04834)" cx="324.549" cy="257.244" rx="1.464" ry="1.577"/><ellipse transform="matrix(1.36568 0 0 1.268132 -124.14446 471.8123)" cx="324.549" cy="257.244" rx="1.464" ry="1.577"/><ellipse transform="matrix(1.36568 0 0 1.268132 -118.54169 467.77174)" cx="324.549" cy="257.244" rx="1.464" ry="1.577"/></g><g class="B C D E F"><use xlink:href="#Z"/><path d="M280.069 880.464s2.617 1.802 3.193 3.193c.88 2.124 0 6.896 0 6.896m11.749-28.607s-.881 5.912-2.171 8.557c-.945 1.936-3.959 5.108-3.959 5.108m12.133-11.239c-1.533 1.745-3.32 4.385-5.619 6.13m8.811-3.192c-2.639 2.696-4.85 5.106-8.429 8.429"/></g><g class="B C D E F"><use xlink:href="#a"/><use xlink:href="#b"/><use xlink:href="#c"/><use xlink:href="#d"/><use xlink:href="#e"/><use xlink:href="#f"/><use xlink:href="#g"/><use xlink:href="#h"/></g><path d="M161.325 686.222l5.877 14.399" class="B C D E"/><path d="M211.625 765.362l14.125.25s-1.066 9.819-1.125 14.75c-.058 4.798.214 9.607.75 14.375.463 4.118 1.392 8.171 2.125 12.25.645 3.587 1.185 7.197 2 10.75 1.13 4.926 2.432 9.82 4 14.625 1.162 3.561 2.488 7.073 4 10.5 2.241 5.08 4.727 10.064 7.5 14.875 2.511 4.355 5.345 8.522 8.25 12.625 1.941 2.741 6.125 8 6.125 8l-14 8.625s-.818-4.186-2.375-5.375c-1.833-1.4-4.628-.387-6.842-1.033-1.456-.424-2.742-1.303-4.158-1.844-1.943-.743-5.938-1.922-5.938-1.922s-4.475-11.821-6.437-17.826c-2.117-6.48-4.205-12.986-5.75-19.625-1.102-4.737-1.974-9.54-2.5-14.375-.811-7.463-.833-14.994-1-22.5-.14-6.29-.159-12.585 0-18.875.104-4.129.302-8.257.625-12.375.154-1.963.625-5.875.625-5.875z" class="I"/><path d="M213.125 778.237l4.5-5.375 3.75 5.5-4.125 5.75zm-.245 14.573l3.713-5.946 4.475 4.928-3.29 6.265zm1.299 14.358l3.407-6.127 4.719 4.695-2.968 6.424zm1.494 15.31l4.208-6.933 5.67 5.346-3.679 7.273zm3.509 16.839l3.402-7.362 6.235 4.675-2.838 7.64zm5.156 16.086l2.763-8.747 7.518 4.374-2.103 8.98zm8.713 18.1l.509-10.749 9.304 2.731.266 10.817z" fill="#fff"/><path d="M139.75 798.862l18 .25 1-10.125h13.625l-.25 10.625 15.875-.125.5-10h11.375l-.625 17.75v13l-47.125-1.625z"/><path d="M200.698 834.844l-13.714 5.679-11.497 6.372-8.727 7.757-6.788 7.342-4.294 5.541-25.073-.554 6.372-11.082 5.957-12.052 5.264-13.021 3.602-12.744 47.652 1.385.416 6.926z" class="H"/><path d="M89.155 877.105l-15.763 14.407-16.102-14.915-6.61-6.61-19.661-20.508-.508-29.152 11.017-7.966z"/><path d="M128.667 799.868l-3.319 14.043-2.809 12.767-39.066-50.301 6.894-9.447 10.213-14.299 5.362-10.213 4.596-10.469 4.596-11.235 5.107 13.788 3.83 11.745 3.575 18.639 2.043 10.469v9.192z" class="I"/><path d="M103.645 704.629L31.13 736.546v-9.447l61.791-36.257 6.128 7.66z"/><path d="M107.429 853.721l-3.448 5.459-43.388-59.479 3.735-4.023z" class="G"/><path d="M103.694 859.467l-4.885 6.609-4.885 6.321L46.8 808.895l-16.378 11.206v-12.643L46.8 797.401l18.677-15.229 14.942-15.229 10.632-14.942 9.77-17.528 6.896-15.229 2.873-6.896 4.885 8.908-4.597 12.068-11.781 21.263-9.482 12.93-8.62 11.494-10.344 10.057-5.747 6.321-4.885 3.735zM63.619 728.948l-4.159 9.551-6.008 8.472-5.854 6.624-6.008 5.392-6.624 5.083-4.775 3.543V743.12z" class="H"/><path d="M108.336 709.953l-28.819 11.831-3.037 7.628-5.03 9.205-6.014 10.603-10.424 13.304-10.175 8.467-7.996 5.019-6.141 3.651-.77 24.694 3.83-1.802 11.716-7.66 14.419-10.815 12.617-11.265 11.941-14.645 9.012-13.744 8.336-16.672 6.759-16.447z" class="G"/><path d="M108.06 709.09L31.13 742.929" class="B D E J"/><g transform="rotate(180 180 782.362)"><g class="B D"><use xlink:href="#B" class="C H"/><g class="E F J"><use xlink:href="#C"/><use xlink:href="#D"/></g></g><use xlink:href="#E" class="C D G"/><use xlink:href="#F"/><use xlink:href="#G"/><use xlink:href="#H"/><use xlink:href="#I"/><use xlink:href="#J"/><use xlink:href="#K"/><use xlink:href="#L"/><use xlink:href="#M"/><use xlink:href="#N"/><use xlink:href="#O"/><use xlink:href="#P"/><use xlink:href="#Q"/></g><path d="M196.038 879.96c-2.399-.247-5.29.655-7.935 3.199l-6.434 8.182-4.184 4.583-3.786-3.387-6.177-2.192 4.782-9.166 8.369-8.568 8.568-6.376 3.597-2.79 2.58 5.778 1.989 4.903 1.398 4.063z" class="H"/><g transform="rotate(180 180 782.362)" class="B C D E F"><use xlink:href="#R"/><use xlink:href="#S"/><use xlink:href="#T"/><use xlink:href="#U"/><use xlink:href="#V"/><use xlink:href="#W"/><use xlink:href="#W" x="5.786"/><use xlink:href="#X"/><use xlink:href="#Y"/><use xlink:href="#Y" x="5.181" y="-0.199"/><use xlink:href="#Y" x="10.361" y="0.2"/><use xlink:href="#Y" x="15.741"/></g><path d="M166.859 889.308l4.668-7.294c2.809-3.658 5.908-7.126 9.336-10.211 2.74-2.466 5.723-4.694 8.898-6.564 2.718-1.601 5.689-2.737 8.607-3.939 2.347-.966 7.148-2.626 7.148-2.626m-43.325 32.822H73.79m130.951-14.442l-4.96-14.734m11.862 13.421l-5.106-16.922-2.188-7.148c-1.468-5.679-2.861-11.401-3.647-17.213-.653-4.827-.753-9.718-.875-14.588-.253-10.063.292-30.197.292-30.197h0" class="B C D E F"/><path d="M204.048 851.02s-8.837 3.144-12.973 5.32c-4.166 2.191-8.15 4.779-11.816 7.731-3.026 2.437-5.778 5.226-8.315 8.169-1.727 2.004-3.183 4.229-4.668 6.419-1.227 1.809-3.501 5.543-3.501 5.543s-28.495-.157-42.742 0l-19.839.438s9.905-10.586 14.296-16.338c2.831-3.709 5.377-7.641 7.731-11.67 2.48-4.243 4.744-8.625 6.71-13.129 1.846-4.227 3.319-8.611 4.756-12.993 1.324-4.039 2.783-8.065 3.559-12.244 1.159-6.237 1.605-18.964 1.605-18.964l12.837 18.818s-2.207 9.339-3.793 13.858c-1.421 4.049-3.321 7.914-5.106 11.816-1.999 4.371-3.997 8.75-6.273 12.983-1.982 3.687-6.419 10.795-6.419 10.795h25.82s4.577-5.641 7.032-8.315c2.693-2.933 5.387-5.895 8.431-8.461a73.32 73.32 0 0 1 10.357-7.294c3.252-1.893 6.772-3.288 10.211-4.814 2.889-1.282 8.753-3.647 8.753-3.647z" class="B C D G"/><path d="M119.07 883.901l11.029-16.182m-14.443-.73l14.004.292m7.148-10.941l-14.004-.438m19.402-12.108l-12.4-.146m17.651-12.837l-13.129.292m16.485-13.421l-12.691.292" class="E F B C D"/><path d="M101.418 686.957l7.673 11.544c2.206 3.46 4.46 6.898 6.419 10.503 3.063 5.638 5.975 11.385 8.315 17.359 2.581 6.588 4.538 13.418 6.273 20.277 1.106 4.373 1.888 8.825 2.626 13.275.778 4.695 1.634 9.398 1.896 14.15.466 8.45.254 16.961-.584 25.383-.637 6.398-1.71 12.78-3.365 18.994-1.181 4.434-2.937 8.7-4.658 12.953-1.641 4.055-3.424 8.058-5.397 11.962-2.014 3.983-4.303 7.822-6.564 11.67-2.168 3.689-4.246 7.444-6.71 10.941-4.423 6.276-9.43 12.126-14.442 17.943-2.204 2.558-6.866 7.45-6.866 7.45l-12.098.136s10.688-8.839 15.609-13.712c2.227-2.205 4.271-4.591 6.273-7.002 3.057-3.681 5.945-7.504 8.753-11.378 1.519-2.097 3.035-4.204 4.376-6.419a204.02 204.02 0 0 0 10.211-19.11c1.463-3.121 2.752-6.327 3.89-9.58 1.212-3.465 2.262-6.992 3.122-10.561 1.169-4.855 2.286-9.753 2.762-14.724.83-8.664.802-17.433.146-26.112-.423-5.596-1.456-11.141-2.626-16.63-1.212-5.684-2.752-11.305-4.542-16.834-1.852-5.72-4.008-11.347-6.399-16.864-1.012-2.335-2.117-4.633-3.355-6.856-.978-1.756-2.089-3.437-3.209-5.106-1.416-2.109-2.919-4.16-4.439-6.196-3.345-4.482-10.295-13.247-10.295-13.247z" class="B C D G"/><path d="M72.914 891.642L57.16 876.908 30.61 848.9" class="B C D E F"/><path d="M30 1012.642l27.769-27.438-1.032-108.564L30 848.343z" class="B C D G"/><path d="M50.011 869.469l-.081 113.053L30 1000.47V848.192z" class="B C D H"/><path d="M58.182 967.669l5.57 1.65 5.776 6.189c2.832 3.671 5.997 7.349 7.427 11.759.829 2.556.513 8.046.513 8.046s6.098-6.311 8.613-9.885c2.09-2.969 3.903-6.163 5.315-9.507 1.312-3.107 2.182-6.399 2.888-9.696.7-3.27 1.282-6.602 1.325-9.946.053-4.135-.343-8.318-1.325-12.335-.673-2.754-1.874-5.364-3.095-7.923-1.316-2.757-2.862-5.408-4.539-7.963-1.887-2.875-6.189-8.252-6.189-8.252s-1.952 5.211-3.301 7.633c-2.284 4.1-4.889 8.08-8.046 11.553-2.002 2.202-4.041 4.681-6.808 5.776-1.28.507-4.126.206-4.126.206z" class="B C D F"/><path d="M63.545 944.769s1.703 3.087 2.278 4.745c.651 1.875 1.187 3.829 1.304 5.811.16 2.719-.129 5.5-.842 8.129-.578 2.128-2.739 6.023-2.739 6.023s5.106 4.742 7.253 7.467c2.474 3.14 6.411 10.135 6.411 10.135s4.185-4.894 5.851-7.633 3.072-5.66 4.086-8.699c1.132-3.392 1.82-6.947 2.186-10.504a37.39 37.39 0 0 0 0-7.839c-.311-2.87-.894-5.737-1.857-8.458-.769-2.175-2.006-4.155-3.095-6.189-1.046-1.955-2.074-3.929-3.301-5.776-1.152-1.734-3.797-4.96-3.797-4.96s-3.775 7.072-6.238 10.209c-2.19 2.789-7.501 7.541-7.501 7.541z" class="B C D G"/><path d="M69.734 974.064s2.669-3.399 3.507-5.364c.936-2.195 1.313-4.607 1.614-6.974.412-3.237.672-6.549.251-9.785-.349-2.683-1.066-5.372-2.278-7.791-.825-1.646-3.318-4.415-3.318-4.415m2.906 39.486h4.332c-.311-3.413-1.039-6.659-2.682-9.49 2.917-.036 5.585-.489 8.252-1.857-1.48-3.478-4.542-5.042-6.855-6.272 2.617-.876 5.65-2.667 7.517-4.542-2.226-2.204-4.951-3.742-7.677-4.864 2.7-1.386 5.4-3.105 7.184-5.657-2.168-1.585-6.084-3.004-8.835-3.008 2.262-2.53 3.275-4.727 4.539-7.839l-4.745-.413" class="E F B C D"/><path d="M197.603 923.984s-2.498.384-3.354.165-1.296-.55-1.671-1.102c-.672-.987-.877-2.311-.736-3.506.151-1.278.645-2.712 1.638-3.479 1.566-1.21 3.823-1.21 5.727-.935 1.839.266 3.393 1.553 5.042 2.43 1.114.592 2.117 1.413 3.274 1.91 1.281.551 2.615 1.135 4.007 1.169.854.021 2.237.26 2.51-.596.206-.646-.686-1.227-1.266-1.513-1.566-.774-3.521.185-5.221-.183-1.859-.403-3.478-1.585-5.286-2.183-1.696-.56-3.408-1.468-5.191-1.307-1.468.132-3.021.743-4.088 1.828-.72.732-1.169 1.818-1.265 2.859-.1 1.077.121 2.286.747 3.131.787 1.063 2.441 1.825 3.393 1.912s1.74-.599 1.74-.599zm12.996 8.696c-1.105.242-2.549-1.298-3.05-2.295-.657-1.305.144-3.331 1.249-4.223 1.49-1.204 3.816-.76 5.612-.198 1.5.469 2.397 2.243 3.857 2.839.884.36 1.993.877 2.816.382.487-.293.91-1.094.676-1.634-.332-.767-1.507-.545-2.282-.733-1.065-.258-2.192-.202-3.237-.537-1.187-.38-2.147-1.528-3.382-1.647-1.399-.136-3.086.052-4.086 1.101-1.079 1.133-1.689 3.156-1.175 4.673.416 1.229 3.002 2.274 3.002 2.274z" class="I B C D"/><g class="F B C"><path d="M220.893 972.563s.296-5.556 0-8.31c-.279-2.593-1.345-5.056-1.662-7.645-.229-1.87-.513-3.799-.166-5.651 1.363-7.271 6.555-13.345 8.642-20.442.365-1.241 1.207-2.648.665-3.823-1.187-2.571-5.656-2.025-7.313-4.321-1.227-1.701-1.328-4.052-1.33-6.149-.001-.793.499-2.327.499-2.327-2.493.118-4.791-.336-7.146-.499-2.802-.193-6.253-.083-8.144-2.161-.454-.498-.332-1.994-.332-1.994s2.564 1.569 3.989 1.994c3.634 1.086 7.503.429 11.301 1.33.649.154-.116-1.883-.166-2.825-.124-2.326-.562-4.662-.332-6.98.09-.909.665-2.659.665-2.659" class="D E"/><path d="M213.356 963.879c-.494.722-5.265.359-7.882.269-3.151-.108-6.382-.01-9.37-.973-3.395-1.095-6.369-3.267-9.286-5.32-1.117-.786-3.119-2.659-3.119-2.659s5.603 4.166 8.809 5.565c2.472 1.079 5.174 1.701 7.88 2.112 2.646.402 5.397.091 8.072.33 1.646.147 5.844-.709 4.897.677z" class="D"/><path d="M207.802 956.748s-6.37.038-9.407-.784c-4.432-1.2-12.431-5.936-12.431-5.936m24.084 1.929s-6.152.933-9.134.311c-4.495-.938-12.431-5.936-12.431-5.936m22.791-3.583c-3.696-.448-5.152-4.48-8.399-5.6" class="E D"/><path d="M191.364 945.067s2.623 3.2 4.305 4.347c1.246.848 2.675 1.485 4.151 1.78 1.939.387 3.985.279 5.936-.063 1.232-.216 2.359-.842 3.547-1.237l1.45-.458s-1.129-2.573-2.059-3.594c-.909-.998-2.096-1.79-3.31-2.333-1.769-.792-3.71-1.382-5.636-1.282-2.94.153-8.386 2.841-8.386 2.841z" class="D"/><ellipse transform="matrix(.862523 .133435 -.119568 .924755 35.51483 820.50686)" cx="208.064" cy="106.494" rx="5.399" ry="3.948" class="K"/></g><ellipse transform="matrix(.862523 .133435 -.129532 1.001818 37.30305 813.85949)" cx="208.401" cy="105.212" rx="1.957" ry="1.518" class="B C I L"/><path d="M212.59 954.867c-1.095-.73-1.095-2.829-1.642-4.243" class="B C D E F"/><path d="M121.921 872.389l-3.804 6.489-8.055 1.119 4.251-6.713zm9.822-10.552l-6.172 4.283-5.004-4.326 6.496-4.206zm6.507-12.065l-6.172 4.283-5.004-4.326 6.496-4.206zm5.37-12.307l-6.172 4.283-5.004-4.326 6.496-4.206zm4.645-13.509l-5.536 5.078-5.543-3.61 5.868-5.045zm-10.177 52.636l-5.219 5.484-4.659-5.467 5.017-6.287zm11.65-.281l-4.638 5.983-5.187-4.969 4.356-6.761zm12.807-2.42l-2.994 6.954-6.266-3.513 2.526-7.636zm7.924-11.237l.202 7.568-7.161-.558-.913-7.991zm8.801-8.19l.027 7.571-7.147-.724-.727-8.01zm10.118-5.825l-2.016 7.297-6.686-2.625 1.46-7.909zm10.386-4.834l-2.427 7.171-6.527-3 1.907-7.814z"/><g class="B C D"><path d="M121.283 825.538l-37.791-49.016" class="E G"/><path d="M64.333 795.678l43.481 58.597c4.996-6.604 7.894-13.508 11.391-20.711l-40.711-52.085z"/><path d="M103.697 858.839l-43.704-59.867m33.602 72.589l-47.145-62.86m42.655 67.724L41.7 812.269m4.576-3.829l-15.541 11.485" class="E G"/><path d="M60.218 798.749l4.19-3.517c4.682-4.291 9.065-8.898 13.471-13.471 1.959-2.034 3.937-4.056 5.763-6.211a179.93 179.93 0 0 0 9.952-12.871c2.857-4.065 5.449-8.313 8.006-12.573 2.167-3.61 4.279-7.259 6.212-11 1.076-2.082 2.075-4.205 2.993-6.361 1.368-3.214 3.742-9.788 3.742-9.788" class="E F"/><path d="M118.289 809.075L92.472 775.4s8.544-10.897 12.198-16.763c3.592-5.768 9.504-18.034 9.504-18.034s4.274 9.302 5.612 14.218c1.691 6.213 2.558 12.659 2.993 19.082.413 6.099.419 12.273-.374 18.334-.749 5.729-4.116 16.837-4.116 16.837z" fill="#fff"/></g><path d="M114.174 792.238s.978-9.727.748-14.592c-.284-6.019-2.62-17.886-2.62-17.886l-10.476 16.015z" class="I"/><path d="M112.318 842.282c-1.455.649-3.147 1.186-4.705.851-2.845-.611-5.438-2.626-7.194-4.946-1.688-2.23-2.303-5.175-2.698-7.943-.317-2.228.325-4.494.3-6.744-.017-1.502-.02-3.02-.3-4.496-.215-1.133-1.049-3.297-1.049-3.297s-.524 3.343-1.499 4.646c-.797 1.065-1.996 1.974-3.297 2.248-1.342.283-2.833-.111-4.047-.749-1.063-.559-2.088-1.438-2.548-2.548-.338-.816-.303-1.821 0-2.651.239-.654.724-1.287 1.347-1.598.521-.26 1.746-.097 1.746-.097s-.875 1.485-.695 2.248c.233.984 1.135 1.884 2.098 2.191.92.294 2.12.093 2.848-.543 1.07-.936 1.294-2.626 1.349-4.047.047-1.235-.32-2.505-.899-3.597-.597-1.125-1.481-2.152-2.548-2.848-1.892-1.234-4.267-1.496-6.445-2.098-1.729-.478-3.624-.433-5.246-1.199-1.256-.593-2.266-1.617-3.297-2.548-1.023-.924-2.09-1.846-2.848-2.997-.628-.953-1.119-2.029-1.349-3.147a7.31 7.31 0 0 1 0-2.848c.28-1.429.803-2.861 1.649-4.047.308-.432 1.199-1.049 1.199-1.049s-.704 2.386-.6 3.597c.091 1.055.455 2.121 1.049 2.997.484.713 1.141 1.401 1.95 1.695.844.307 1.826.179 2.696-.047.584-.152 1.222-.38 1.596-.853.523-.661.625-1.602.648-2.445.011-.408-.105-.817-.249-1.199-.189-.501-.792-1.397-.792-1.397s1.754.376 2.394.948c.633.566.993 1.424 1.199 2.248.254 1.018.302 2.143 0 3.147a4.63 4.63 0 0 1-1.45 2.195c-.639.528-1.482.8-2.297.952-.639.119-1.948-.047-1.948-.047l3.297 1.395c1.415.467 2.922.612 4.346 1.049 1.224.376 2.401.891 3.597 1.349 1.152.441 2.387.718 3.447 1.349 1.067.634 2.017 1.476 2.848 2.398 1.132 1.256 2.024 2.72 2.848 4.196.773 1.387 1.493 2.825 1.948 4.346.45 1.503.51 3.096.749 4.646l.599 4.047.45 3.747c.161 1.006.156 2.08.599 2.997.37.766.961 1.447 1.649 1.948.742.541 1.63 1.031 2.548 1.049.869.017 1.829-.289 2.448-.899.496-.488.694-1.255.75-1.948.066-.814-.5-2.398-.5-2.398s2.134 1.144 2.698 2.145c.388.688.454 1.576.3 2.351-.157.79-.632 1.526-1.199 2.098-.489.493-1.146.813-1.798 1.049-1.33.481-4.184.699-4.184.699s2.201 1.795 3.49 2.347c.782.335 1.645.482 2.493.551.896.073 2.692-.148 2.692-.148s-1.342 1.32-2.183 1.695z" class="G"/><g class="B D E F J"><path d="M30.619 767.186l8.171-5.617c3.874-3.066 7.613-6.341 10.979-9.958 2.726-2.929 5.239-6.083 7.405-9.447 2.699-4.193 6.894-13.277 6.894-13.277"/><path d="M79.749 721.825l-5.723 12.167c-1.707 3.387-3.405 6.788-5.393 10.017-2.328 3.781-4.825 7.477-7.629 10.92-2.973 3.65-6.221 7.094-9.703 10.262-3.355 3.053-6.999 5.789-10.724 8.377-2.134 1.483-4.439 2.702-6.639 4.085l-3.575 2.298m.511 7.661s10.538-6.585 15.575-10.213c4.081-2.94 8.178-5.905 11.847-9.346 3.957-3.71 7.543-7.825 10.878-12.102 3.281-4.207 6.159-8.723 8.937-13.277 3.035-4.976 5.794-10.12 8.426-15.32 1.87-3.694 5.227-11.266 5.227-11.266"/></g><path d="M107.686 710.321l-6.85 15.501c-2.412 5.303-4.625 10.711-7.405 15.831-2.918 5.376-6.147 10.599-9.703 15.575-3.447 4.824-7.172 9.47-11.235 13.788-4.045 4.299-8.496 8.212-13.022 12.001-4.425 3.704-9.087 7.122-13.788 10.469-3.75 2.67-7.564 5.258-11.49 7.66-1.041.637-3.194 1.787-3.194 1.787v5.617s11.557-6.623 16.982-10.469c5.183-3.675 10.024-7.82 14.809-12.001 4.489-3.922 8.948-7.905 13.022-12.256 4.298-4.59 8.292-9.476 12.001-14.554 3.523-4.823 6.797-9.846 9.703-15.065 2.796-5.023 5.04-10.336 7.405-15.575 1.996-4.422 5.723-13.383 5.723-13.383z"/><path d="M93.737 715.525l6.453 11.328-14.354 2.301 8.035 14.49-15.527-.722 6.5 14.624-15.347-1.625 2.889 16.791-13.902-3.972 1.264 15.166-13.18-5.778-1.264 16.43-11.736-7.041-2.434 15.751" class="B D E F J"/><ellipse transform="matrix(-1.36568 0 0 -1.268132 480.17359 1121.0846)" cx="324.549" cy="257.244" rx="1.464" ry="1.577"/><ellipse transform="matrix(-1.36568 0 0 -1.268132 493.88927 1111.6495)" cx="324.549" cy="257.244" rx="1.464" ry="1.577"/><ellipse transform="matrix(-1.36568 0 0 -1.268132 506.28095 1101.5109)" cx="324.549" cy="257.244" rx="1.464" ry="1.577"/><ellipse transform="matrix(-1.36568 0 0 -1.268132 518.89794 1087.9927)" cx="324.549" cy="257.244" rx="1.464" ry="1.577"/><ellipse transform="matrix(-1.36568 0 0 -1.268132 528.58598 1073.5733)" cx="324.549" cy="257.244" rx="1.464" ry="1.577"/><ellipse transform="matrix(-1.36568 0 0 -1.268132 536.9222 1059.3792)" cx="324.549" cy="257.244" rx="1.464" ry="1.577"/><ellipse transform="matrix(-1.36568 0 0 -1.268132 543.6813 1044.2838)" cx="324.549" cy="257.244" rx="1.464" ry="1.577"/><g class="I"><ellipse transform="matrix(-1.36568 0 0 -1.268132 513.26536 1056.9008)" cx="324.549" cy="257.244" rx="1.464" ry="1.577"/><ellipse transform="matrix(-1.36568 0 0 -1.268132 510.1111 1062.5334)" cx="324.549" cy="257.244" rx="1.464" ry="1.577"/><ellipse transform="matrix(-1.36568 0 0 -1.268132 506.79577 1068.0078)" cx="324.549" cy="257.244" rx="1.464" ry="1.577"/><ellipse transform="matrix(-1.36568 0 0 -1.268132 503.19091 1073.7418)" cx="324.549" cy="257.244" rx="1.464" ry="1.577"/><ellipse transform="matrix(-1.36568 0 0 -1.268132 499.26674 1079.1267)" cx="324.549" cy="257.244" rx="1.464" ry="1.577"/><ellipse transform="matrix(-1.36568 0 0 -1.268132 494.44879 1084.2864)" cx="324.549" cy="257.244" rx="1.464" ry="1.577"/><ellipse transform="matrix(-1.36568 0 0 -1.268132 489.29663 1088.6761)" cx="324.549" cy="257.244" rx="1.464" ry="1.577"/><ellipse transform="matrix(-1.36568 0 0 -1.268132 484.14446 1092.9121)" cx="324.549" cy="257.244" rx="1.464" ry="1.577"/><ellipse transform="matrix(-1.36568 0 0 -1.268132 478.54169 1096.9527)" cx="324.549" cy="257.244" rx="1.464" ry="1.577"/></g><g transform="rotate(180 180 782.362)" class="B C D E F"><use xlink:href="#Z"/><path d="M280.069 880.464s2.617 1.802 3.193 3.193c.88 2.124 0 6.896 0 6.896m11.749-28.607s-.881 5.912-2.171 8.557c-.945 1.936-3.959 5.108-3.959 5.108m12.133-11.239c-1.533 1.745-3.32 4.385-5.619 6.13m8.811-3.192c-2.639 2.696-4.85 5.106-8.429 8.429"/><use xlink:href="#a"/><use xlink:href="#b"/><use xlink:href="#c"/><use xlink:href="#d"/><use xlink:href="#e"/><use xlink:href="#f"/><use xlink:href="#g"/><use xlink:href="#h"/></g><path d="M198.675 878.502l-5.877-14.399" class="B C D E"/><g transform="rotate(180 180 782.362)"><path d="M211.625 765.362l14.125.25s-1.066 9.819-1.125 14.75c-.058 4.798.214 9.607.75 14.375.463 4.118 1.392 8.171 2.125 12.25.645 3.587 1.185 7.197 2 10.75 1.13 4.926 2.432 9.82 4 14.625 1.162 3.561 2.488 7.073 4 10.5 2.241 5.08 4.727 10.064 7.5 14.875 2.511 4.355 5.345 8.522 8.25 12.625 1.941 2.741 6.125 8 6.125 8l-12.58 7.408s-2.151-3.254-3.795-4.158c-2.09-1.148-4.753-.58-7.045-1.236-1.928-.551-3.706-1.532-5.578-2.25-1.564-.6-4.721-1.719-4.721-1.719l-6.031-17.42c-2.074-6.494-4.205-12.986-5.75-19.625-1.102-4.737-1.974-9.54-2.5-14.375-.811-7.463-.833-14.994-1-22.5-.14-6.29-.159-12.585 0-18.875.104-4.129.302-8.257.625-12.375.154-1.963.625-5.875.625-5.875z" class="I"/><path d="M213.125 778.237l4.5-5.375 3.75 5.5-4.125 5.75zm-.245 14.573l3.713-5.946 4.475 4.928-3.29 6.265zm1.299 14.358l3.407-6.127 4.719 4.695-2.968 6.424zm1.494 15.31l4.208-6.933 5.67 5.346-3.679 7.273zm3.509 16.839l3.402-7.362 6.235 4.675-2.838 7.64zm5.156 16.086l2.763-8.747 7.518 4.374-2.103 8.98zm8.713 18.1l.509-10.749 9.304 2.731.266 10.817z" fill="#fff"/></g><path d="M30 662.362v360h270m-240-480h270v360" class="C D F"/><path d="M158.374 775.293l13.626.569.5-10.75 15.75-.25v10.75l13.584.222.042 13.708-13.376-.181-.25 10.75-16.09-.278-.048-10.514-13.361.042z" class="G"/><path d="M174.479 777.82h11.921v9.392h-11.921z" fill="#010000"/><path d="M90 557.362s6 15 13 25 17 20 17 20-10 10-17 20-13 25-13 25-6-15-13-25-17-20-17-20 10-10 17-20 13-25 13-25m-60 45s3 7.5 6.5 12.5 8.5 10 8.5 10-5 5-8.5 10-6.5 12.5-6.5 12.5-3-7.5-6.5-12.5-8.5-10-8.5-10 5-5 8.5-10 6.5-12.5 6.5-12.5m240 405s-6-15-13-25-17-20-17-20 10-10 17-20 13-25 13-25 6 15 13 25 17 20 17 20-10 10-17 20-13 25-13 25m60-45s-3-7.5-6.5-12.5-8.5-10-8.5-10 5-5 8.5-10 6.5-12.5 6.5-12.5 3 7.5 6.5 12.5 8.5 10 8.5 10-5 5-8.5 10-6.5 12.5-6.5 12.5" class="H"/></g><defs ><path id="B" d="M132.702 575.351s-.709 6.146.598 8.767c.588 1.18 2.334 1.446 2.989 2.59.906 1.583.996 5.38.996 5.38l8.169-.399c5.511-.234 11.026-.818 16.538-.598 4.009.16 8.022.605 11.955 1.395 5.421 1.088 10.733 2.726 15.94 4.583 5.241 1.868 10.121 4.652 15.342 6.575 3.785 1.394 7.615 2.731 11.557 3.587 3.599.781 7.289 1.091 10.959 1.395 3.445.285 6.906.489 10.361.399 2.933-.077 8.767-.797 8.767-.797s3.268-1.466 3.587-2.989c.334-1.599-2.088-2.753-2.192-4.384-.089-1.405 1.738-2.62 1.395-3.985-.263-1.049-2.391-2.192-2.391-2.192s-14.277-.672-21.32-1.793c-5.998-.955-11.953-2.321-17.733-4.184-5.13-1.654-9.87-4.358-14.944-6.177-4.707-1.688-9.431-3.465-14.346-4.384-5.368-1.003-10.882-.996-16.339-1.196-4.845-.177-9.713-.4-14.545 0-4.026.333-11.955 1.993-11.955 1.993z"/><path id="C" d="M139.477 582.923s14.862-1.816 22.316-1.594c7.633.227 15.331 1.041 22.715 2.989 8.038 2.12 15.247 6.676 23.113 9.365 5.81 1.986 11.678 3.969 17.733 4.981 5.709.954 17.335.996 17.335.996"/><path id="D" d="M141.469 587.505s13.288-.903 19.925-.598c7.086.326 14.258.796 21.121 2.59 8.126 2.124 15.398 6.752 23.313 9.564 5.623 1.998 11.27 4.085 17.136 5.181 4.321.807 8.755 1.008 13.151.996 2.465-.006 7.372-.598 7.372-.598"/><path id="E" d="M117 542.362c9.723 17.202 9.077 19.479 18.8 36.681 10.451-3.776 29.585-2.729 44.12-.48 12.039 1.863 22.845 8.689 34.717 11.424 10.569 2.435 22.243 4.377 32.243 4.377L275 542.362H117z"/><path id="F" d="M171.737 571.2c1.639.009 3.282-.121 4.78-.482.815-.196 1.517-.526 2.224-.9 1.183-.627 2.027-1.632 3.338-2.236-.579 2.128-2.458 3.218-4.11 4.325-1.484.995-3.215 1.627-4.998 1.94-1.918.337-3.976.356-5.896-.104-2.26-.543-4.4-1.678-6.248-3.044-1.255-.928-2.477-2.027-3.145-3.393-.359-.734-.381-1.759-.371-2.389.716 1.135 1.677 2.472 2.999 3.427 1.329.96 3.01 1.668 4.698 2.127 2.188.595 4.506.717 6.729.729z"/><path id="G" d="M154.243 562.085c-.689-.566-.528-2.415.283-3.239.234-.238.716-.336 1.054-.219.952.33 1.571 1.338 1.629 2.21.036.55-.648.959-.837 1.484-.164.457-.247 1.42-.247 1.42 1.01 1.21 1.483 2.69 2.95 3.157 2.184.695 5.334.347 6.859-1.118 1.407-1.352 1.082-3.694.384-5.418-.473-1.167-1.511-2.374-2.884-2.812-1.244-.397-2.652.163-3.921.46 1.154-1.524 2.458-3.298 2.146-5.096-.299-1.722-1.905-3.303-3.644-4.267-.732-.406-1.697-.36-2.559-.473h0c-1.705.309-3.559.961-4.524 2.173-.973 1.222-.841 2.919-.684 4.397.12 1.132.727 2.2 1.229 3.261-1.01-.571-2.285-.887-3.434-.702-2.174.351-4.745 1.46-5.363 3.243-.595 1.718.726 3.846 2.332 5.057 1.485 1.12 3.849 1.754 5.759 1.294 1.604-.386 2.24-1.954 3.493-3.092z"/><path id="H" d="M141.219 571.252c-1.308.009-2.622-.012-3.814-.482-1.242-.489-2.119-1.629-3.246-2.344-.841-.533-1.541-1.491-2.616-1.444.462 2.128 2.864 3.625 4.704 4.976 1.192.875 2.565 1.627 3.988 1.94 1.531.337 3.173.356 4.705-.104 1.803-.543 3.511-1.678 4.986-3.044 1.001-.928 1.813-2.171 2.509-3.393.631-1.107 1.493-2.891 1.485-3.521-1.477.117-2.117 3.299-3.582 4.559a11.51 11.51 0 0 1-3.749 2.127c-1.746.595-3.595.717-5.369.729z"/><path id="I" d="M131.161 565.082c.059-.681.539-.673.534-1.503-.005-.825-1.218-1.403-2.023-1.354-.286.017-.712 1.149-.795 1.43l-4.437-9.462c.336-.377.702-.708 1.079-1.009.656-.207 1.309-.607 1.987-.513 1.61.225 3.388 1.03 4.27 2.422.921 1.453.685 3.455.458 5.187.786-.706 1.56-1.678 2.598-1.771 1.146-.103 2.354.574 3.144 1.422 1.167 1.253 2.318 3.189 1.845 4.862-.513 1.812-2.623 3.022-4.433 3.373-1.346.261-2.762-.421-3.95-1.117"/><path id="J" d="M182.592 565.867c-.585-.673-.116-2.47.822-3.146.271-.196.763-.211 1.076-.039.883.485 1.325 1.582 1.235 2.452-.056.548-.799.837-1.074 1.323-.239.423-.482 1.358-.482 1.358.793 1.362 1.011 2.9 2.379 3.606 2.036 1.051 5.201 1.236 6.949.048 1.614-1.097 1.686-3.461 1.287-5.277-.27-1.23-1.092-2.593-2.372-3.256-1.159-.6-2.642-.284-3.942-.204 1.393-1.309 2.976-2.84 2.97-4.664-.006-1.748-1.325-3.575-2.877-4.817-.654-.523-1.612-.64-2.443-.895h0c-1.733.019-3.67.351-4.825 1.384-1.164 1.042-1.319 2.737-1.412 4.22-.071 1.136.348 2.291.665 3.421-.9-.733-2.104-1.258-3.268-1.268-2.202-.019-4.923.644-5.83 2.298-.874 1.594.071 3.913 1.452 5.377 1.276 1.353 3.5 2.374 5.461 2.241 1.646-.112 2.536-1.551 3.962-2.463z"/><path id="K" d="M195.609 576.711c1.416.321 2.932.387 4.354.093 1.25-.258 2.347-1.011 3.483-1.593 1.29-.662 2.46-1.951 3.778-2.158-1.069 1.876-3.633 4.885-6.288 6.103-1.499.688-3.269.648-4.929.443-1.785-.22-3.611-.786-5.188-1.772-1.857-1.161-3.453-2.857-4.73-4.691-.867-1.245-1.66-2.647-1.894-4.146-.125-.805.123-1.795.297-2.396.337 1.292.837 2.846 1.756 4.137.924 1.298 2.226 2.453 3.599 3.372 1.78 1.191 3.706 2.141 5.761 2.608z"/><path id="L" d="M209.981 571.768c.809-.312 1.337-2.08.924-3.096-.119-.294-.506-.533-.845-.529-.954.013-1.861.757-2.227 1.549-.23.499.221 1.091.196 1.637-.021.475-.297 1.395-.297 1.395-1.323.812-2.273 2.04-3.727 2.02-2.165-.03-4.801-1.327-5.608-3.158-.744-1.691.388-3.766 1.623-5.151.837-.938 2.183-1.737 3.545-1.72 1.234.015 2.265.971 3.27 1.639-.461-1.772-.961-3.823-.038-5.396.885-1.507 2.864-2.479 4.737-2.836.788-.151 1.617.19 2.414.352h0c1.382.814 2.772 1.993 3.179 3.417.41 1.435-.319 2.971-.991 4.295-.515 1.014-1.433 1.819-2.257 2.649 1.092-.219 2.358-.209 3.264.409 1.462.999 2.646 2.903 2.532 4.669-.106 1.633-1.384 3.309-2.878 3.976-1.688.754-4.008.439-5.516-.579-1.266-.855-1.257-2.507-1.943-3.951z"/><path id="M" d="M220.768 582.786c1.391.253 2.867.245 4.233-.117 1.201-.318 2.264-1.069 3.303-1.759 1.132-.753 1.892-2.307 3.162-2.577-.945 1.925-2.92 5.234-5.403 6.639-1.396.79-3.143.805-4.764.68-1.744-.134-3.545-.611-5.125-1.52-1.861-1.07-3.495-2.687-4.826-4.457-.904-1.202-1.743-2.563-2.044-4.05-.162-.798.031-1.798.169-2.408.391 1.274.954 2.803 1.91 4.047.962 1.251 2.284 2.343 3.662 3.195 1.787 1.104 3.704 1.96 5.724 2.327z"/><path id="N" d="M233.758 577.244c.727-.397 1.044-2.211.554-3.177a.9.9 0 0 0-.846-.435c-.894.115-1.67.952-1.933 1.779-.166.521.318 1.061.35 1.607.028.475-.137 1.419-.137 1.419-1.159.949-1.937 2.308-3.293 2.407-1.867.137-4.062-.979-4.969-2.616-.845-1.526-.492-3.713.39-5.219.637-1.088 1.873-1.961 3.153-2.09 1.159-.117 2.224.723 3.234 1.279-.611-1.712-1.289-3.698-.581-5.361.678-1.593 2.437-2.771 4.158-3.328.725-.234 1.537.015 2.3.091h0c1.38.661 2.803 1.684 3.329 3.057.53 1.383.002 2.988-.495 4.377-.381 1.063-1.16 1.962-1.85 2.875 1.002-.334 1.883-.976 2.901-.957 1.181.022 2.798.177 3.323 1.236 1.111 2.244-.097 5.807-2.187 7.186-1.336.882-3.265.011-4.775-.52-1.144-.403-2.275-.597-3.065-1.959z"/><path id="O" d="M241.159 585.66c-1.235-.104-2.534-.423-3.52-1.169-1.053-.797-1.441-2.216-2.223-3.281-.596-.813-.884-1.793-1.877-2.369.276 2.086.817 5.594 2.59 7.597.936 1.057 2.421 1.558 3.815 1.843 1.5.307 3.139.298 4.709-.181 1.849-.564 3.654-1.709 5.247-3.078 1.081-.929 2.151-2.028 2.803-3.38.35-.726.457-1.735.505-2.356-.67 1.127-1.553 2.455-2.69 3.412-1.143.962-2.546 1.681-3.931 2.155-1.796.615-3.635.958-5.428.807z"/><path id="P" d="M253.653 578.294c.195-.718.012-.824.279-1.68.265-.851.906-1.16 1.193-.919.102.086-.099 1.356-.158 1.666l4.691-8.724a12.8 12.8 0 0 0-.084-1.299c-.181-.369-.298-.938-.584-1.002-.678-.15-1.604.26-2.38 1.489-.811 1.282-1.361 3.408-1.829 5.252-.07-.916-.816-.665-1.303-.664-1.086.002-2.202.658-2.897 1.493-1.088 1.307-1.954 3.251-1.477 4.883.243.831 1.144 1.436 1.972 1.689.592.18 1.174.221 1.843-.216"/><path id="Q" d="M133.829 573.314s6.61 2.206 10.005 2.001c4.261-.257 12.166-4.002 12.166-4.002s8.314 3.98 12.807 4.322c4.321.33 12.807-2.241 12.807-2.241s6.803 6.107 11.046 7.364c4.221 1.25 13.207-.16 13.207-.16s5.578 6.945 9.605 8.084c5.036 1.424 15.528-2.321 15.528-2.321s7.221 5.046 11.366 5.043c2.425-.002 6.643-2.962 6.643-2.962l-2.721 5.004c-5.713-.182-9.992-.508-15.848-1.407s-11.741-1.75-17.449-3.323c-5.399-1.488-10.513-3.864-15.785-5.755-4.229-1.516-8.357-3.37-12.71-4.482-3.287-.84-6.681-1.196-10.045-1.634-2.868-.374-5.748-.67-8.635-.847-4.392-.27-8.797-.398-13.197-.328a89.07 89.07 0 0 0-8.696.56c-2.595.293-7.557 1.706-7.557 1.706z"/><path id="R" d="M183.512 595.874c.867 8.681 3.144 17.138 5.119 25.621 2.687 11.541 8.775 22.508 9.15 34.352.129 4.087 1.259 10.207-2.402 12.03-2.841 1.415-8.612.431-8.576-4.137.029-3.743 5.647-5.674 6.87-1.714"/><path id="S" d="M188.692 598.066c2.241 12.558 7.242 24.448 9.968 36.891 2.045 9.334 5.604 19.275 4.777 28.265-.429 4.664-4.481 10.695-9.296 11.132-5.567.505-12.784-3.344-12.89-10.726-.067-4.674 5.666-9.81 10.43-9.771 2.865.023 4.637 3.538 6.177 5.978"/><path id="T" d="M193.873 600.058c1.903 11.085 6.317 21.559 8.957 32.473 2.38 9.842 7.591 19.708 6.198 29.738-.534 3.844-2.694 7.508-5.392 10.318"/><path id="U" d="M200.632 602.649c1.751 10.609 5.822 20.677 8.253 31.134 2.195 9.441 7.005 18.906 5.711 28.512-.492 3.657-2.453 7.17-4.968 9.893"/><path id="V" d="M206.188 604.741c1.753 10.348 5.821 20.14 8.253 30.332 2.194 9.195 6.998 18.412 5.711 27.777-.492 3.581-2.472 7.003-4.968 9.638"/><path id="W" d="M212.166 607.431c1.755 9.999 5.82 19.423 8.253 29.261 2.193 8.866 6.989 17.754 5.711 26.796-.492 3.479-2.499 6.781-4.968 9.297"/><path id="X" d="M223.531 608.825c1.756 9.796 5.819 19.005 8.253 28.637 2.192 8.674 6.983 17.369 5.711 26.225-.491 3.421-2.515 6.65-4.968 9.099"/><path id="Y" d="M229.309 609.921c1.757 9.622 5.795 18.653 8.253 28.101 2.175 8.364 6.888 16.718 5.74 25.283-.47 3.511-2.454 6.891-4.998 9.38"/><path id="Z" d="M276.621 868.842l2.426 8.557c.307 1.43.576 2.881.639 4.342.12 2.812-1.677 5.867-.511 8.429.289.635.963 1.25 1.66 1.277 2.183.086 4.187-1.824 5.492-3.576 1.617-2.171 2.299-7.79 2.299-7.79s1.784 7.4 4.725 9.195c.254.155.692-.219.894 0 .377.407-.288 1.129-.128 1.66.979 3.254 3.039 6.957 6.258 8.046.792.268 1.833-.049 2.426-.639 1.158-1.15 1.568-3.12 1.277-4.725-.494-2.732-2.741-4.967-4.853-6.769-.217-.185-.631-.132-.766-.383-.346-.641.349-1.448.255-2.171-.194-1.497-1.66-4.214-1.66-4.214l.511-.383s1.366 4.619 2.426 6.769c1.321 2.679 3.234 5.024 4.853 7.535.851 1.32 1.219 3.132 2.554 3.959 1.311.812 3.327 1.385 4.598.511 1.667-1.147 2.099-3.932 1.533-5.875-.455-1.562-2.675-1.966-3.576-3.32-.753-1.133-.789-2.618-1.405-3.831-.486-.958-1.288-1.731-1.788-2.682-.747-1.42-.923-3.118-1.788-4.47-.601-.938-2.299-2.427-2.299-2.427l1.149-.894s1.286 3.608 2.426 5.108c.511.673 1.451.955 1.916 1.66 1.081 1.642.876 3.878 1.788 5.619.873 1.667 1.759 3.64 3.448 4.47.802.394 2.039.621 2.682 0 1.807-1.747.949-5.119.255-7.535-.652-2.27-2.312-4.182-3.959-5.875-.255-.262-.682-.34-.894-.639-.616-.868-.47-2.089-.894-3.065-.532-1.226-1.151-2.454-2.043-3.448-.284-.317-1.022-.766-1.022-.766l1.022-1.022.766 1.533c.869 1.674 1.452 3.551 2.682 4.981.278.323.831.385 1.022.766.171.343-.117.785 0 1.149.559 1.744 1.596 3.575 3.193 4.47.521.292 1.31.486 1.788.128 1.289-.967 1.154-3.119 1.022-4.725-.238-2.876-1.924-5.454-3.193-8.046-.848-1.731-2.036-3.277-2.937-4.981-1.122-2.121-1.909-4.411-3.065-6.513-1.263-2.297-4.214-6.641-4.214-6.641"/><path id="a" d="M181.908 668.123l-4.732 7.54c-2.007 2.701-4.074 5.32-6.637 7.604-1.348 1.201-3.446 2.465-5.115 1.778-.294-.121-.419-.857-.419-.857"/><path id="b" d="M140.137 664.081c-3.009 5.973-6.95 8.698-11.985 11.178-2.06 2.51-5.583 4.828-7.618 3.009-1.804-1.613-1.664-6.866 1.897-7.007"/><path id="c" d="M145.023 665.335c-3.583 8.091-11.489 17.331-20.669 18.584-3.998.546-9.481-1.586-10.843-5.385-1.629-4.543 1.228-11.207 5.92-13.212 2.923-1.249 6.712-.212 8.601 2.051 1.659 1.988 1.112 5.985.42 7.757"/><path id="d" d="M150.551 666.635c-2.461 6.782-8.676 16.903-16.871 19.478-2.605.819-6.283.73-7.94-2.011"/><path id="e" d="M157.424 666.364c-2.598 6.808-7.726 16.908-15.448 20.74-2.73 1.355-6.607 1.469-9.143-.085"/><path id="f" d="M163.911 666.289c-1.751 6.237-7.495 16.029-14.505 20.707-2.59 1.728-6.547 3.502-9.121 2.012"/><path id="g" d="M170.486 663.662c-.927 4.746-6.041 15.662-12.186 20.873-1.842 1.563-4.757 4.125-6.772 2.583"/><path id="h" d="M176.954 663.675c-.976 4.221-4.969 11.21-8.857 16.177-2.04 2.606-5.003 7.479-8.41 5.276"/></defs></svg>