<svg xmlns="http://www.w3.org/2000/svg" xmlns:xlink="http://www.w3.org/1999/xlink" width="360" height="540" viewBox="0 0 95.25 142.875" xmlns:v="https://vecta.io/nano"><g transform="matrix(.264583 0 0 .264583 0 -135.562492)"><rect rx="29.944" y="512.862" x=".5" height="539" width="359" fill="#fff" stroke="#000"/><path d="M30 592.362a9.98 9.98 0 0 0 10-10v-20-10a9.98 9.98 0 0 0-10-10 9.98 9.98 0 0 0-10 10v10a9.98 9.98 0 0 0 10 10c1.823 0 3.532-.499 5-1.344v11.344a5 5 0 1 1-10 0v-1h-5v1a9.98 9.98 0 0 0 10 10zm0-25a4.99 4.99 0 0 1-5-5v-10a5 5 0 1 1 10 0v10a4.99 4.99 0 0 1-5 5zm300 405a9.98 9.98 0 0 0-10 10v20 10a10 10 0 1 0 20 0v-10a9.98 9.98 0 0 0-10-10 10.01 10.01 0 0 0-5 1.344v-11.344a5 5 0 1 1 10 0v1h5v-1a9.98 9.98 0 0 0-10-10zm0 25a4.99 4.99 0 0 1 5 5v10a5 5 0 1 1-10 0v-10a4.99 4.99 0 0 1 5-5z"/><use xlink:href="#B"/><use xlink:href="#B" x="180"/><use xlink:href="#B" y="120"/><use xlink:href="#B" x="90" y="180"/><use xlink:href="#B" x="180" y="120"/><use xlink:href="#C"/><use xlink:href="#C" x="180"/><use xlink:href="#C" y="120"/><use xlink:href="#C" x="180" y="120"/><path d="M32.5 630.362c1 2 3.5 5 6 5 4.5 0 6.5-4 6.5-9s-2-9.5-6.5-9.5c-2.5 0-4 2.5-5.5 4-.5.5-1 0-.5-.5 1.5-1.5 4-5.5 4-9 0-4-2.5-9-6.5-9s-6.5 5-6.5 9c0 3.5 2.5 7.5 4 9 .5.5 0 1-.5.5-1.5-1.5-3-4-5.5-4-4.5 0-6.5 4.5-6.5 9.5s2 9 6.5 9c2.5 0 5-3 6-5 .5-.5.5 0 .5.5-.5 4-.5 5-1 8s-2 8.5-2 8.5c2.5-1 7.5-1 10 0 0 0-1.5-5.5-2-8.5s-.5-4-1-8c0-.5 0-1 .5-.5zm300 304c1-2 3.5-5 6-5 4.5 0 6.5 4 6.5 9s-2 9.5-6.5 9.5c-2.5 0-4-2.5-5.5-4-.5-.5-1 0-.5.5 1.5 1.5 4 5.5 4 9 0 4-2.5 9-6.5 9s-6.5-5-6.5-9c0-3.5 2.5-7.5 4-9 .5-.5 0-1-.5-.5-1.5 1.5-3 4-5.5 4-4.5 0-6.5-4.5-6.5-9.5s2-9 6.5-9c2.5 0 5 3 6 5 .5.5.5 0 .5-.5-.5-4-.5-5-1-8s-2-8.5-2-8.5c2.5 1 7.5 1 10 0 0 0-1.5 5.5-2 8.5s-.5 4-1 8c0 .5 0 1 .5.5z"/></g><defs ><path id="B" d="M95 613.362c2 4 7 10 12 10 9 0 13-8 13-18s-4-19-13-19c-5 0-8 5-11 8-1 1-2 0-1-1 3-3 8-11 8-18 0-8-5-18-13-18s-13 10-13 18c0 7 5 15 8 18 1 1 0 2-1 1-3-3-6-8-11-8-9 0-13 9-13 19s4 18 13 18c5 0 10-6 12-10 1-1 1 0 1 1-1 8-1 10-2 16s-4 17-4 17c5-2 15-2 20 0 0 0-3-11-4-17s-1-8-2-16c0-1 0-2 1-1z"/><path id="C" d="M95 831.362c2-4 7-10 12-10 9 0 13 8 13 18s-4 19-13 19c-5 0-8-5-11-8-1-1-2 0-1 1 3 3 8 11 8 18 0 8-5 18-13 18s-13-10-13-18c0-7 5-15 8-18 1-1 0-2-1-1-3 3-6 8-11 8-9 0-13-9-13-19s4-18 13-18c5 0 10 6 12 10 1 1 1 0 1-1-1-8-1-10-2-16s-4-17-4-17c5 2 15 2 20 0 0 0-3 11-4 17s-1 8-2 16c0 1 0 2 1 1z"/></defs></svg>